<svg xmlns="http://www.w3.org/2000/svg" xmlns:xlink="http://www.w3.org/1999/xlink" contentStyleType="text/css" data-diagram-type="CLASS" height="860px" preserveAspectRatio="none" style="width:1665px;height:860px;background:#FFFFFF;" version="1.1" viewBox="0 0 1665 860" width="1665px" zoomAndPan="magnify"><defs/><g><!--class Doctor--><g class="entity" data-entity="Doctor" data-source-line="1" data-uid="ent0002" id="entity_Doctor"><rect fill="#F1F1F1" height="178.375" rx="2.5" ry="2.5" style="stroke:#181818;stroke-width:0.5;" width="616.7822" x="294.59" y="387.38"/><ellipse cx="575.3044" cy="403.38" fill="#ADD1B2" rx="11" ry="11" style="stroke:#181818;stroke-width:1;"/><path d="M578.2731,409.0206 Q577.695,409.3175 577.0544,409.4581 Q576.4137,409.6144 575.7106,409.6144 Q573.2106,409.6144 571.8825,407.9738 Q570.57,406.3175 570.57,403.1925 Q570.57,400.0675 571.8825,398.4113 Q573.2106,396.755 575.7106,396.755 Q576.4137,396.755 577.0544,396.9113 Q577.7106,397.0675 578.2731,397.3644 L578.2731,400.0831 Q577.6481,399.505 577.0544,399.2394 Q576.4606,398.9581 575.8356,398.9581 Q574.4919,398.9581 573.8044,400.0363 Q573.1169,401.0988 573.1169,403.1925 Q573.1169,405.2863 573.8044,406.3644 Q574.4919,407.4269 575.8356,407.4269 Q576.4606,407.4269 577.0544,407.1613 Q577.6481,406.88 578.2731,406.3019 L578.2731,409.0206 Z " fill="#000000"/><text fill="#000000" font-family="sans-serif" font-size="14" lengthAdjust="spacing" textLength="46.8535" x="595.8044" y="408.2267">Doctor</text><line style="stroke:#181818;stroke-width:0.5;" x1="295.59" x2="910.3722" y1="419.38" y2="419.38"/><rect fill="none" height="6" style="stroke:#C82930;stroke-width:1;" width="6" x="302.59" y="430.0284"/><text fill="#000000" font-family="sans-serif" font-size="14" lengthAdjust="spacing" textLength="104.207" x="314.59" y="436.3751">String doctorId</text><rect fill="none" height="6" style="stroke:#C82930;stroke-width:1;" width="6" x="302.59" y="446.3253"/><text fill="#000000" font-family="sans-serif" font-size="14" lengthAdjust="spacing" textLength="85.9346" x="314.59" y="452.672">String name</text><rect fill="none" height="6" style="stroke:#C82930;stroke-width:1;" width="6" x="302.59" y="462.6222"/><text fill="#000000" font-family="sans-serif" font-size="14" lengthAdjust="spacing" textLength="141.7158" x="314.59" y="468.9689">String specialization</text><rect fill="none" height="6" style="stroke:#C82930;stroke-width:1;" width="6" x="302.59" y="478.9191"/><text fill="#000000" font-family="sans-serif" font-size="14" lengthAdjust="spacing" textLength="125.1182" x="314.59" y="485.2657">String contactInfo</text><line style="stroke:#181818;stroke-width:0.5;" x1="295.59" x2="910.3722" y1="492.5675" y2="492.5675"/><ellipse cx="305.59" cy="506.2159" fill="#84BE84" rx="3" ry="3" style="stroke:#038048;stroke-width:1;"/><text fill="#000000" font-family="sans-serif" font-size="14" lengthAdjust="spacing" textLength="567.8066" x="314.59" y="509.5626">addDoctor(String doctorId, String name, String specialization, String contactInfo)</text><ellipse cx="305.59" cy="522.5128" fill="#84BE84" rx="3" ry="3" style="stroke:#038048;stroke-width:1;"/><text fill="#000000" font-family="sans-serif" font-size="14" lengthAdjust="spacing" textLength="590.7822" x="314.59" y="525.8595">updateDoctor(String doctorId, String name, String specialization, String contactInfo)</text><ellipse cx="305.59" cy="538.8097" fill="#84BE84" rx="3" ry="3" style="stroke:#038048;stroke-width:1;"/><text fill="#000000" font-family="sans-serif" font-size="14" lengthAdjust="spacing" textLength="206.0898" x="314.59" y="542.1564">deleteDoctor(String doctorId)</text><ellipse cx="305.59" cy="555.1066" fill="#84BE84" rx="3" ry="3" style="stroke:#038048;stroke-width:1;"/><text fill="#000000" font-family="sans-serif" font-size="14" lengthAdjust="spacing" textLength="208.7969" x="314.59" y="558.4532">searchDoctor(String doctorId)</text></g><!--class Patient--><g class="entity" data-entity="Patient" data-source-line="12" data-uid="ent0003" id="entity_Patient"><rect fill="#F1F1F1" height="178.375" rx="2.5" ry="2.5" style="stroke:#181818;stroke-width:0.5;" width="609.8096" x="946.08" y="387.38"/><ellipse cx="1222.0468" cy="403.38" fill="#ADD1B2" rx="11" ry="11" style="stroke:#181818;stroke-width:1;"/><path d="M1225.0155,409.0206 Q1224.4374,409.3175 1223.7968,409.4581 Q1223.1562,409.6144 1222.453,409.6144 Q1219.953,409.6144 1218.6249,407.9738 Q1217.3124,406.3175 1217.3124,403.1925 Q1217.3124,400.0675 1218.6249,398.4113 Q1219.953,396.755 1222.453,396.755 Q1223.1562,396.755 1223.7968,396.9113 Q1224.453,397.0675 1225.0155,397.3644 L1225.0155,400.0831 Q1224.3905,399.505 1223.7968,399.2394 Q1223.203,398.9581 1222.578,398.9581 Q1221.2343,398.9581 1220.5468,400.0363 Q1219.8593,401.0988 1219.8593,403.1925 Q1219.8593,405.2863 1220.5468,406.3644 Q1221.2343,407.4269 1222.578,407.4269 Q1223.203,407.4269 1223.7968,407.1613 Q1224.3905,406.88 1225.0155,406.3019 L1225.0155,409.0206 Z " fill="#000000"/><text fill="#000000" font-family="sans-serif" font-size="14" lengthAdjust="spacing" textLength="49.376" x="1242.5468" y="408.2267">Patient</text><line style="stroke:#181818;stroke-width:0.5;" x1="947.08" x2="1554.8896" y1="419.38" y2="419.38"/><rect fill="none" height="6" style="stroke:#C82930;stroke-width:1;" width="6" x="954.08" y="430.0284"/><text fill="#000000" font-family="sans-serif" font-size="14" lengthAdjust="spacing" textLength="109.0674" x="966.08" y="436.3751">String patientId</text><rect fill="none" height="6" style="stroke:#C82930;stroke-width:1;" width="6" x="954.08" y="446.3253"/><text fill="#000000" font-family="sans-serif" font-size="14" lengthAdjust="spacing" textLength="85.9346" x="966.08" y="452.672">String name</text><rect fill="none" height="6" style="stroke:#C82930;stroke-width:1;" width="6" x="954.08" y="462.6222"/><text fill="#000000" font-family="sans-serif" font-size="14" lengthAdjust="spacing" textLength="127.3604" x="966.08" y="468.9689">String dateOfBirth</text><rect fill="none" height="6" style="stroke:#C82930;stroke-width:1;" width="6" x="954.08" y="478.9191"/><text fill="#000000" font-family="sans-serif" font-size="14" lengthAdjust="spacing" textLength="125.1182" x="966.08" y="485.2657">String contactInfo</text><line style="stroke:#181818;stroke-width:0.5;" x1="947.08" x2="1554.8896" y1="492.5675" y2="492.5675"/><ellipse cx="957.08" cy="506.2159" fill="#84BE84" rx="3" ry="3" style="stroke:#038048;stroke-width:1;"/><text fill="#000000" font-family="sans-serif" font-size="14" lengthAdjust="spacing" textLength="560.834" x="966.08" y="509.5626">addPatient(String patientId, String name, String dateOfBirth, String contactInfo)</text><ellipse cx="957.08" cy="522.5128" fill="#84BE84" rx="3" ry="3" style="stroke:#038048;stroke-width:1;"/><text fill="#000000" font-family="sans-serif" font-size="14" lengthAdjust="spacing" textLength="583.8096" x="966.08" y="525.8595">updatePatient(String patientId, String name, String dateOfBirth, String contactInfo)</text><ellipse cx="957.08" cy="538.8097" fill="#84BE84" rx="3" ry="3" style="stroke:#038048;stroke-width:1;"/><text fill="#000000" font-family="sans-serif" font-size="14" lengthAdjust="spacing" textLength="213.4727" x="966.08" y="542.1564">deletePatient(String patientId)</text><ellipse cx="957.08" cy="555.1066" fill="#84BE84" rx="3" ry="3" style="stroke:#038048;stroke-width:1;"/><text fill="#000000" font-family="sans-serif" font-size="14" lengthAdjust="spacing" textLength="216.1797" x="966.08" y="558.4532">searchPatient(String patientId)</text></g><!--class Appointment--><g class="entity" data-entity="Appointment" data-source-line="23" data-uid="ent0004" id="entity_Appointment"><rect fill="#F1F1F1" height="194.6719" rx="2.5" ry="2.5" style="stroke:#181818;stroke-width:0.5;" width="735.5156" x="923.22" y="650.9"/><ellipse cx="1241.3372" cy="666.9" fill="#ADD1B2" rx="11" ry="11" style="stroke:#181818;stroke-width:1;"/><path d="M1244.3059,672.5406 Q1243.7278,672.8375 1243.0872,672.9781 Q1242.4466,673.1344 1241.7434,673.1344 Q1239.2434,673.1344 1237.9153,671.4938 Q1236.6028,669.8375 1236.6028,666.7125 Q1236.6028,663.5875 1237.9153,661.9313 Q1239.2434,660.275 1241.7434,660.275 Q1242.4466,660.275 1243.0872,660.4313 Q1243.7434,660.5875 1244.3059,660.8844 L1244.3059,663.6031 Q1243.6809,663.025 1243.0872,662.7594 Q1242.4934,662.4781 1241.8684,662.4781 Q1240.5247,662.4781 1239.8372,663.5563 Q1239.1497,664.6188 1239.1497,666.7125 Q1239.1497,668.8063 1239.8372,669.8844 Q1240.5247,670.9469 1241.8684,670.9469 Q1242.4934,670.9469 1243.0872,670.6813 Q1243.6809,670.4 1244.3059,669.8219 L1244.3059,672.5406 Z " fill="#000000"/><text fill="#000000" font-family="sans-serif" font-size="14" lengthAdjust="spacing" textLength="90.7813" x="1261.8372" y="671.7467">Appointment</text><line style="stroke:#181818;stroke-width:0.5;" x1="924.22" x2="1657.7356" y1="682.9" y2="682.9"/><rect fill="none" height="6" style="stroke:#C82930;stroke-width:1;" width="6" x="931.22" y="693.5484"/><text fill="#000000" font-family="sans-serif" font-size="14" lengthAdjust="spacing" textLength="149.0303" x="943.22" y="699.8951">String appointmentId</text><rect fill="none" height="6" style="stroke:#C82930;stroke-width:1;" width="6" x="931.22" y="709.8453"/><text fill="#000000" font-family="sans-serif" font-size="14" lengthAdjust="spacing" textLength="104.207" x="943.22" y="716.192">String doctorId</text><rect fill="none" height="6" style="stroke:#C82930;stroke-width:1;" width="6" x="931.22" y="726.1422"/><text fill="#000000" font-family="sans-serif" font-size="14" lengthAdjust="spacing" textLength="109.0674" x="943.22" y="732.4889">String patientId</text><rect fill="none" height="6" style="stroke:#C82930;stroke-width:1;" width="6" x="931.22" y="742.4391"/><text fill="#000000" font-family="sans-serif" font-size="14" lengthAdjust="spacing" textLength="169.4766" x="943.22" y="748.7857">String appointmentDate</text><rect fill="none" height="6" style="stroke:#C82930;stroke-width:1;" width="6" x="931.22" y="758.7359"/><text fill="#000000" font-family="sans-serif" font-size="14" lengthAdjust="spacing" textLength="89.25" x="943.22" y="765.0826">String status</text><line style="stroke:#181818;stroke-width:0.5;" x1="924.22" x2="1657.7356" y1="772.3844" y2="772.3844"/><ellipse cx="934.22" cy="786.0328" fill="#84BE84" rx="3" ry="3" style="stroke:#038048;stroke-width:1;"/><text fill="#000000" font-family="sans-serif" font-size="14" lengthAdjust="spacing" textLength="704.9355" x="943.22" y="789.3795">createAppointment(String appointmentId, String doctorId, String patientId, String appointmentDate)</text><ellipse cx="934.22" cy="802.3297" fill="#84BE84" rx="3" ry="3" style="stroke:#038048;stroke-width:1;"/><text fill="#000000" font-family="sans-serif" font-size="14" lengthAdjust="spacing" textLength="296.085" x="943.22" y="805.6764">cancelAppointment(String appointmentId)</text><ellipse cx="934.22" cy="818.6266" fill="#84BE84" rx="3" ry="3" style="stroke:#038048;stroke-width:1;"/><text fill="#000000" font-family="sans-serif" font-size="14" lengthAdjust="spacing" textLength="709.5156" x="943.22" y="821.9732">updateAppointment(String appointmentId, String doctorId, String patientId, String appointmentDate)</text><ellipse cx="934.22" cy="834.9234" fill="#84BE84" rx="3" ry="3" style="stroke:#038048;stroke-width:1;"/><text fill="#000000" font-family="sans-serif" font-size="14" lengthAdjust="spacing" textLength="297.5479" x="943.22" y="838.2701">searchAppointment(String appointmentId)</text></g><!--class MedicalRecord--><g class="entity" data-entity="MedicalRecord" data-source-line="35" data-uid="ent0005" id="entity_MedicalRecord"><rect fill="#F1F1F1" height="210.9688" rx="2.5" ry="2.5" style="stroke:#181818;stroke-width:0.5;" width="804.7568" x="83.6" y="642.75"/><ellipse cx="430.288" cy="658.75" fill="#ADD1B2" rx="11" ry="11" style="stroke:#181818;stroke-width:1;"/><path d="M433.2567,664.3906 Q432.6786,664.6875 432.038,664.8281 Q431.3974,664.9844 430.6942,664.9844 Q428.1942,664.9844 426.8661,663.3438 Q425.5536,661.6875 425.5536,658.5625 Q425.5536,655.4375 426.8661,653.7813 Q428.1942,652.125 430.6942,652.125 Q431.3974,652.125 432.038,652.2813 Q432.6942,652.4375 433.2567,652.7344 L433.2567,655.4531 Q432.6317,654.875 432.038,654.6094 Q431.4442,654.3281 430.8192,654.3281 Q429.4755,654.3281 428.788,655.4063 Q428.1005,656.4688 428.1005,658.5625 Q428.1005,660.6563 428.788,661.7344 Q429.4755,662.7969 430.8192,662.7969 Q431.4442,662.7969 432.038,662.5313 Q432.6317,662.25 433.2567,661.6719 L433.2567,664.3906 Z " fill="#000000"/><text fill="#000000" font-family="sans-serif" font-size="14" lengthAdjust="spacing" textLength="102.8809" x="450.788" y="663.5967">MedicalRecord</text><line style="stroke:#181818;stroke-width:0.5;" x1="84.6" x2="887.3568" y1="674.75" y2="674.75"/><rect fill="none" height="6" style="stroke:#C82930;stroke-width:1;" width="6" x="91.6" y="685.3984"/><text fill="#000000" font-family="sans-serif" font-size="14" lengthAdjust="spacing" textLength="104.5215" x="103.6" y="691.7451">String recordId</text><rect fill="none" height="6" style="stroke:#C82930;stroke-width:1;" width="6" x="91.6" y="701.6953"/><text fill="#000000" font-family="sans-serif" font-size="14" lengthAdjust="spacing" textLength="109.0674" x="103.6" y="708.042">String patientId</text><rect fill="none" height="6" style="stroke:#C82930;stroke-width:1;" width="6" x="91.6" y="717.9922"/><text fill="#000000" font-family="sans-serif" font-size="14" lengthAdjust="spacing" textLength="104.207" x="103.6" y="724.3389">String doctorId</text><rect fill="none" height="6" style="stroke:#C82930;stroke-width:1;" width="6" x="91.6" y="734.2891"/><text fill="#000000" font-family="sans-serif" font-size="14" lengthAdjust="spacing" textLength="112.3896" x="103.6" y="740.6357">String diagnosis</text><rect fill="none" height="6" style="stroke:#C82930;stroke-width:1;" width="6" x="91.6" y="750.5859"/><text fill="#000000" font-family="sans-serif" font-size="14" lengthAdjust="spacing" textLength="116.7715" x="103.6" y="756.9326">String treatment</text><rect fill="none" height="6" style="stroke:#C82930;stroke-width:1;" width="6" x="91.6" y="766.8828"/><text fill="#000000" font-family="sans-serif" font-size="14" lengthAdjust="spacing" textLength="77.7998" x="103.6" y="773.2295">String date</text><line style="stroke:#181818;stroke-width:0.5;" x1="84.6" x2="887.3568" y1="780.5313" y2="780.5313"/><ellipse cx="94.6" cy="794.1797" fill="#84BE84" rx="3" ry="3" style="stroke:#038048;stroke-width:1;"/><text fill="#000000" font-family="sans-serif" font-size="14" lengthAdjust="spacing" textLength="755.7813" x="103.6" y="797.5264">addRecord(String recordId, String patientId, String doctorId, String diagnosis, String treatment, String date)</text><ellipse cx="94.6" cy="810.4766" fill="#84BE84" rx="3" ry="3" style="stroke:#038048;stroke-width:1;"/><text fill="#000000" font-family="sans-serif" font-size="14" lengthAdjust="spacing" textLength="778.7568" x="103.6" y="813.8232">updateRecord(String recordId, String patientId, String doctorId, String diagnosis, String treatment, String date)</text><ellipse cx="94.6" cy="826.7734" fill="#84BE84" rx="3" ry="3" style="stroke:#038048;stroke-width:1;"/><text fill="#000000" font-family="sans-serif" font-size="14" lengthAdjust="spacing" textLength="208.7969" x="103.6" y="830.1201">deleteRecord(String recordId)</text><ellipse cx="94.6" cy="843.0703" fill="#84BE84" rx="3" ry="3" style="stroke:#038048;stroke-width:1;"/><text fill="#000000" font-family="sans-serif" font-size="14" lengthAdjust="spacing" textLength="211.5039" x="103.6" y="846.417">searchRecord(String recordId)</text></g><!--class User--><g class="entity" data-entity="User" data-source-line="48" data-uid="ent0006" id="entity_User"><rect fill="#F1F1F1" height="145.7813" rx="2.5" ry="2.5" style="stroke:#181818;stroke-width:0.5;" width="309.3428" x="448.31" y="164.59"/><ellipse cx="582.7763" cy="180.59" fill="#ADD1B2" rx="11" ry="11" style="stroke:#181818;stroke-width:1;"/><path d="M585.7451,186.2306 Q585.1669,186.5275 584.5263,186.6681 Q583.8857,186.8244 583.1826,186.8244 Q580.6826,186.8244 579.3544,185.1838 Q578.0419,183.5275 578.0419,180.4025 Q578.0419,177.2775 579.3544,175.6213 Q580.6826,173.965 583.1826,173.965 Q583.8857,173.965 584.5263,174.1213 Q585.1826,174.2775 585.7451,174.5744 L585.7451,177.2931 Q585.1201,176.715 584.5263,176.4494 Q583.9326,176.1681 583.3076,176.1681 Q581.9638,176.1681 581.2763,177.2463 Q580.5888,178.3088 580.5888,180.4025 Q580.5888,182.4963 581.2763,183.5744 Q581.9638,184.6369 583.3076,184.6369 Q583.9326,184.6369 584.5263,184.3713 Q585.1201,184.09 585.7451,183.5119 L585.7451,186.2306 Z " fill="#000000"/><text fill="#000000" font-family="sans-serif" font-size="14" lengthAdjust="spacing" textLength="31.9102" x="603.2763" y="185.4367">User</text><line style="stroke:#181818;stroke-width:0.5;" x1="449.31" x2="756.6528" y1="196.59" y2="196.59"/><rect fill="none" height="6" style="stroke:#C82930;stroke-width:1;" width="6" x="456.31" y="207.2384"/><text fill="#000000" font-family="sans-serif" font-size="14" lengthAdjust="spacing" textLength="89.7832" x="468.31" y="213.5851">String userId</text><rect fill="none" height="6" style="stroke:#C82930;stroke-width:1;" width="6" x="456.31" y="223.5353"/><text fill="#000000" font-family="sans-serif" font-size="14" lengthAdjust="spacing" textLength="116.4707" x="468.31" y="229.882">String username</text><rect fill="none" height="6" style="stroke:#C82930;stroke-width:1;" width="6" x="456.31" y="239.8322"/><text fill="#000000" font-family="sans-serif" font-size="14" lengthAdjust="spacing" textLength="112.9434" x="468.31" y="246.1789">String password</text><rect fill="none" height="6" style="stroke:#C82930;stroke-width:1;" width="6" x="456.31" y="256.1291"/><text fill="#000000" font-family="sans-serif" font-size="14" lengthAdjust="spacing" textLength="73.0557" x="468.31" y="262.4757">String role</text><line style="stroke:#181818;stroke-width:0.5;" x1="449.31" x2="756.6528" y1="269.7775" y2="269.7775"/><ellipse cx="459.31" cy="283.4259" fill="#84BE84" rx="3" ry="3" style="stroke:#038048;stroke-width:1;"/><text fill="#000000" font-family="sans-serif" font-size="14" lengthAdjust="spacing" textLength="283.3428" x="468.31" y="286.7726">login(String username, String password)</text><ellipse cx="459.31" cy="299.7228" fill="#84BE84" rx="3" ry="3" style="stroke:#038048;stroke-width:1;"/><text fill="#000000" font-family="sans-serif" font-size="14" lengthAdjust="spacing" textLength="55.1934" x="468.31" y="303.0695">logout()</text></g><!--class Admin--><g class="entity" data-entity="Admin" data-source-line="57" data-uid="ent0007" id="entity_Admin"><rect fill="#F1F1F1" height="113.1875" rx="2.5" ry="2.5" style="stroke:#181818;stroke-width:0.5;" width="192.168" x="67.9" y="419.97"/><ellipse cx="137.3019" cy="435.97" fill="#ADD1B2" rx="11" ry="11" style="stroke:#181818;stroke-width:1;"/><path d="M140.2706,441.6106 Q139.6925,441.9075 139.0519,442.0481 Q138.4112,442.2044 137.7081,442.2044 Q135.2081,442.2044 133.88,440.5638 Q132.5675,438.9075 132.5675,435.7825 Q132.5675,432.6575 133.88,431.0013 Q135.2081,429.345 137.7081,429.345 Q138.4112,429.345 139.0519,429.5013 Q139.7081,429.6575 140.2706,429.9544 L140.2706,432.6731 Q139.6456,432.095 139.0519,431.8294 Q138.4581,431.5481 137.8331,431.5481 Q136.4894,431.5481 135.8019,432.6263 Q135.1144,433.6888 135.1144,435.7825 Q135.1144,437.8763 135.8019,438.9544 Q136.4894,440.0169 137.8331,440.0169 Q138.4581,440.0169 139.0519,439.7513 Q139.6456,439.47 140.2706,438.8919 L140.2706,441.6106 Z " fill="#000000"/><text fill="#000000" font-family="sans-serif" font-size="14" lengthAdjust="spacing" textLength="44.8643" x="157.8019" y="440.8167">Admin</text><line style="stroke:#181818;stroke-width:0.5;" x1="68.9" x2="259.068" y1="451.97" y2="451.97"/><line style="stroke:#181818;stroke-width:0.5;" x1="68.9" x2="259.068" y1="459.97" y2="459.97"/><ellipse cx="78.9" cy="473.6184" fill="#84BE84" rx="3" ry="3" style="stroke:#038048;stroke-width:1;"/><text fill="#000000" font-family="sans-serif" font-size="14" lengthAdjust="spacing" textLength="107.2969" x="87.9" y="476.9651">manageUsers()</text><ellipse cx="78.9" cy="489.9153" fill="#84BE84" rx="3" ry="3" style="stroke:#038048;stroke-width:1;"/><text fill="#000000" font-family="sans-serif" font-size="14" lengthAdjust="spacing" textLength="166.168" x="87.9" y="493.262">manageAppointments()</text><ellipse cx="78.9" cy="506.2122" fill="#84BE84" rx="3" ry="3" style="stroke:#038048;stroke-width:1;"/><text fill="#000000" font-family="sans-serif" font-size="14" lengthAdjust="spacing" textLength="124.7627" x="87.9" y="509.5589">managePatients()</text><ellipse cx="78.9" cy="522.5091" fill="#84BE84" rx="3" ry="3" style="stroke:#038048;stroke-width:1;"/><text fill="#000000" font-family="sans-serif" font-size="14" lengthAdjust="spacing" textLength="122.2402" x="87.9" y="525.8557">manageDoctors()</text></g><!--class System--><g class="entity" data-entity="System" data-source-line="64" data-uid="ent0008" id="entity_System"><rect fill="#F1F1F1" height="80.5938" rx="2.5" ry="2.5" style="stroke:#181818;stroke-width:0.5;" width="174.5039" x="515.73" y="7"/><ellipse cx="572.6289" cy="23" fill="#ADD1B2" rx="11" ry="11" style="stroke:#181818;stroke-width:1;"/><path d="M575.5977,28.6406 Q575.0196,28.9375 574.3789,29.0781 Q573.7383,29.2344 573.0352,29.2344 Q570.5352,29.2344 569.2071,27.5938 Q567.8946,25.9375 567.8946,22.8125 Q567.8946,19.6875 569.2071,18.0313 Q570.5352,16.375 573.0352,16.375 Q573.7383,16.375 574.3789,16.5313 Q575.0352,16.6875 575.5977,16.9844 L575.5977,19.7031 Q574.9727,19.125 574.3789,18.8594 Q573.7852,18.5781 573.1602,18.5781 Q571.8164,18.5781 571.1289,19.6563 Q570.4414,20.7188 570.4414,22.8125 Q570.4414,24.9063 571.1289,25.9844 Q571.8164,27.0469 573.1602,27.0469 Q573.7852,27.0469 574.3789,26.7813 Q574.9727,26.5 575.5977,25.9219 L575.5977,28.6406 Z " fill="#000000"/><text fill="#000000" font-family="sans-serif" font-size="14" lengthAdjust="spacing" textLength="52.2061" x="593.1289" y="27.8467">System</text><line style="stroke:#181818;stroke-width:0.5;" x1="516.73" x2="689.2339" y1="39" y2="39"/><ellipse cx="526.73" cy="52.6484" fill="none" rx="3" ry="3" style="stroke:#038048;stroke-width:1;"/><text fill="#000000" font-family="sans-serif" font-size="14" lengthAdjust="spacing" textLength="138.1475" x="535.73" y="55.9951">String systemName</text><line style="stroke:#181818;stroke-width:0.5;" x1="516.73" x2="689.2339" y1="63.2969" y2="63.2969"/><ellipse cx="526.73" cy="76.9453" fill="#84BE84" rx="3" ry="3" style="stroke:#038048;stroke-width:1;"/><text fill="#000000" font-family="sans-serif" font-size="14" lengthAdjust="spacing" textLength="148.5039" x="535.73" y="80.292">SystemInitialization()</text></g><!--link Doctor to Appointment--><g class="link" data-entity-1="Doctor" data-entity-2="Appointment" data-source-line="69" data-uid="lnk9" id="link_Doctor_Appointment"><path codeLine="69" d="M829.21,566.24 C898.05,593.22 974.03,623 1044.15,650.49" fill="none" id="Doctor-Appointment" style="stroke:#181818;stroke-width:1;"/><polygon fill="#000000" points="956.6352,606.1411,949.2864,600.104,947.1414,605.5764,956.6352,606.1411" style="stroke:#000000;stroke-width:1;"/><text fill="#000000" font-family="sans-serif" font-size="13" lengthAdjust="spacing" textLength="22.9785" x="960.98" y="608.8169">has</text><text fill="#000000" font-family="sans-serif" font-size="13" lengthAdjust="spacing" textLength="6.5" x="1019.8216" y="639.8328">*</text></g><!--link Patient to Appointment--><g class="link" data-entity-1="Patient" data-entity-2="Appointment" data-source-line="70" data-uid="lnk10" id="link_Patient_Appointment"><path codeLine="70" d="M1264.14,566.24 C1268.14,593.26 1272.57,623.09 1276.65,650.6" fill="none" id="Patient-Appointment" style="stroke:#181818;stroke-width:1;"/><polygon fill="#000000" points="1276.7134,609.2623,1278.2938,599.884,1272.4795,600.7462,1276.7134,609.2623" style="stroke:#000000;stroke-width:1;"/><text fill="#000000" font-family="sans-serif" font-size="13" lengthAdjust="spacing" textLength="22.9785" x="1284.98" y="608.8169">has</text><text fill="#000000" font-family="sans-serif" font-size="13" lengthAdjust="spacing" textLength="6.5" x="1269.3958" y="639.9509">*</text></g><!--link Doctor to MedicalRecord--><g class="link" data-entity-1="Doctor" data-entity-2="MedicalRecord" data-source-line="71" data-uid="lnk11" id="link_Doctor_MedicalRecord"><path codeLine="71" d="M564.51,566.24 C553.92,590.65 542.33,617.35 531.39,642.57" fill="none" id="Doctor-MedicalRecord" style="stroke:#181818;stroke-width:1;"/><polygon fill="#000000" points="553.9898,608.9032,560.2862,601.7754,554.8941,599.4358,553.9898,608.9032" style="stroke:#000000;stroke-width:1;"/><text fill="#000000" font-family="sans-serif" font-size="13" lengthAdjust="spacing" textLength="39.457" x="564.98" y="608.8169">writes</text><text fill="#000000" font-family="sans-serif" font-size="13" lengthAdjust="spacing" textLength="6.5" x="528.3896" y="631.6847">*</text></g><!--link Patient to MedicalRecord--><g class="link" data-entity-1="Patient" data-entity-2="MedicalRecord" data-source-line="72" data-uid="lnk12" id="link_Patient_MedicalRecord"><path codeLine="72" d="M1094.68,566.2 C1061.41,583.05 1026.03,599.53 991.98,612.75 C968.68,621.8 932.04,633.17 888.86,645.44" fill="none" id="Patient-MedicalRecord" style="stroke:#181818;stroke-width:1;"/><polygon fill="#000000" points="1028.3139,606.1129,1037.8109,605.6057,1035.6991,600.1204,1028.3139,606.1129" style="stroke:#000000;stroke-width:1;"/><text fill="#000000" font-family="sans-serif" font-size="13" lengthAdjust="spacing" textLength="68.2627" x="1041.98" y="608.8169">belongs to</text><text fill="#000000" font-family="sans-serif" font-size="13" lengthAdjust="spacing" textLength="6.5" x="895.8404" y="640.6124">*</text></g><!--reverse link User to Doctor--><g class="link" data-entity-1="User" data-entity-2="Doctor" data-source-line="73" data-uid="lnk13" id="link_User_Doctor"><path codeLine="73" d="M602.98,328.58 C602.98,352.7 602.98,361.85 602.98,387.07" fill="none" id="User-backto-Doctor" style="stroke:#181818;stroke-width:1;"/><polygon fill="none" points="602.98,310.58,596.98,328.58,608.98,328.58,602.98,310.58" style="stroke:#181818;stroke-width:1;"/></g><!--reverse link User to Patient--><g class="link" data-entity-1="User" data-entity-2="Patient" data-source-line="74" data-uid="lnk14" id="link_User_Patient"><path codeLine="74" d="M774.6845,301.3035 C849.7545,328.7635 924.75,356.21 1008.8,386.96" fill="none" id="User-backto-Patient" style="stroke:#181818;stroke-width:1;"/><polygon fill="none" points="757.78,295.12,772.6234,306.9384,776.7457,295.6687,757.78,295.12" style="stroke:#181818;stroke-width:1;"/></g><!--reverse link User to Admin--><g class="link" data-entity-1="User" data-entity-2="Admin" data-source-line="75" data-uid="lnk15" id="link_User_Admin"><path codeLine="75" d="M431.3684,307.7186 C375.9984,332.1186 330.57,354.85 276.98,387.38 C261.35,396.87 245.37,408.18 230.55,419.48" fill="none" id="User-backto-Admin" style="stroke:#181818;stroke-width:1;"/><polygon fill="none" points="447.84,300.46,428.9489,302.228,433.7879,313.2091,447.84,300.46" style="stroke:#181818;stroke-width:1;"/></g><!--link System to User--><g class="link" data-entity-1="System" data-entity-2="User" data-source-line="76" data-uid="lnk16" id="link_System_User"><path codeLine="76" d="M602.98,87.75 C602.98,109.95 602.98,138.36 602.98,164.4" fill="none" id="System-User" style="stroke:#181818;stroke-width:1;"/><polygon fill="#000000" points="607.98,131.1564,610.9189,122.1113,605.0411,122.1113,607.98,131.1564" style="stroke:#000000;stroke-width:1;"/><text fill="#000000" font-family="sans-serif" font-size="13" lengthAdjust="spacing" textLength="59.8584" x="616.98" y="130.6569">manages</text></g><!--link System to Appointment--><g class="link" data-entity-1="System" data-entity-2="Appointment" data-source-line="77" data-uid="lnk17" id="link_System_Appointment"><path codeLine="77" d="M690.43,48.06 C887.62,52.86 1365.83,95.51 1572.98,387.38 C1618.87,452.02 1610.95,496.16 1572.98,565.75 C1554.79,599.1 1527.55,627.24 1497.05,650.66" fill="none" id="System-Appointment" style="stroke:#181818;stroke-width:1;"/><polygon fill="#000000" points="1555.9856,351.9389,1550.4983,344.171,1546.9804,348.8799,1555.9856,351.9389" style="stroke:#000000;stroke-width:1;"/><text fill="#000000" font-family="sans-serif" font-size="13" lengthAdjust="spacing" textLength="59.8584" x="1560.98" y="353.4469">manages</text></g><!--link System to MedicalRecord--><g class="link" data-entity-1="System" data-entity-2="MedicalRecord" data-source-line="78" data-uid="lnk18" id="link_System_MedicalRecord"><path codeLine="78" d="M515.38,72.34 C386.39,113 149.9,208.9 49.98,387.38 C11.25,456.55 6,499.8 49.98,565.75 C70.17,596.02 96.46,621.25 126.13,642.27" fill="none" id="System-MedicalRecord" style="stroke:#181818;stroke-width:1;"/><polygon fill="#000000" points="81.16,353.0753,88.6883,347.2636,83.8345,343.9485,81.16,353.0753" style="stroke:#000000;stroke-width:1;"/><text fill="#000000" font-family="sans-serif" font-size="13" lengthAdjust="spacing" textLength="55.0278" x="92.98" y="353.4469">contains</text></g><!--SRC=[lLLBRiCW5Dpx52Whft4k45MLMcMJHJzgrGDGe0wI3PPvKTNVtOi1su1naqtINORfpFCC7r9XfT1M4f0j-iwG_bkZ5sYvA14rw8w6gC0r2n7LCC9nnRymS2d2DI85O08xyIxDmWfXIgrT7jaKlaEH5YyIkaidV6We1dOURSegDgVTSnJ3BTdFSNwpZ9YidxGP4n27tLZuUDhTHpw-t_4MzYT4xTpos2KTYATzFEcpIDkWvwJ3gETPGzYtJIEvW3eHE1wNuj3J6t-c8KzdgxynEXg0uQ3SrAHbck2DbAT6AT3Stfqc77dtyH0i2AkE6OLjNc0iszhniORsxXdb15VFZCYMnlsr1Zsnf7IZbEDIICLL24FNKpVCzE2D1yiEbKV3_1FA9BV1lPWO1wScxEdollP8fdt3QkSuGw6lYarUcOF6uc8wR7hpDLhYGqj6-q1MVIsLBBd88uqY_lVbo9O7oFtRWjPSkFbMgCO2bwmRMUNB0FEsSBpaxgGOjg-2yirUFXMmUd3hBmo3FlJVldAqdU0mlbHMnZtQwpLQN2s2csw3zbYXcwn_QlwXX2BXWTkWZvO3IoZ5l3TMIL4g159pJSdNFvfgnJt0oNY8YJnpMUZVPcNZKkkSnwLm_1GZ7ikyBrneqXy0]--></g></svg>