<svg xmlns="http://www.w3.org/2000/svg" xmlns:xlink="http://www.w3.org/1999/xlink" contentStyleType="text/css" data-diagram-type="CLASS" height="822px" preserveAspectRatio="none" style="width:449px;height:822px;background:#FFFFFF;" version="1.1" viewBox="0 0 449 822" width="449px" zoomAndPan="magnify"><defs/><g><!--class School--><g class="entity" data-entity="School" data-source-line="1" data-uid="ent0002" id="entity_School"><rect fill="#F1F1F1" height="113.1875" rx="2.5" ry="2.5" style="stroke:#181818;stroke-width:0.5;" width="195.9824" x="7" y="7"/><ellipse cx="77.5024" cy="23" fill="#ADD1B2" rx="11" ry="11" style="stroke:#181818;stroke-width:1;"/><path d="M80.4712,28.6406 Q79.8931,28.9375 79.2524,29.0781 Q78.6118,29.2344 77.9087,29.2344 Q75.4087,29.2344 74.0806,27.5938 Q72.7681,25.9375 72.7681,22.8125 Q72.7681,19.6875 74.0806,18.0313 Q75.4087,16.375 77.9087,16.375 Q78.6118,16.375 79.2524,16.5313 Q79.9087,16.6875 80.4712,16.9844 L80.4712,19.7031 Q79.8462,19.125 79.2524,18.8594 Q78.6587,18.5781 78.0337,18.5781 Q76.6899,18.5781 76.0024,19.6563 Q75.3149,20.7188 75.3149,22.8125 Q75.3149,24.9063 76.0024,25.9844 Q76.6899,27.0469 78.0337,27.0469 Q78.6587,27.0469 79.2524,26.7813 Q79.8462,26.5 80.4712,25.9219 L80.4712,28.6406 Z " fill="#000000"/><text fill="#000000" font-family="sans-serif" font-size="14" lengthAdjust="spacing" textLength="46.4775" x="98.0024" y="27.8467">School</text><line style="stroke:#181818;stroke-width:0.5;" x1="8" x2="201.9824" y1="39" y2="39"/><rect fill="none" height="6" style="stroke:#C82930;stroke-width:1;" width="6" x="15" y="49.6484"/><text fill="#000000" font-family="sans-serif" font-size="14" lengthAdjust="spacing" textLength="85.9346" x="27" y="55.9951">String name</text><rect fill="none" height="6" style="stroke:#C82930;stroke-width:1;" width="6" x="15" y="65.9453"/><text fill="#000000" font-family="sans-serif" font-size="14" lengthAdjust="spacing" textLength="101.541" x="27" y="72.292">String address</text><rect fill="none" height="6" style="stroke:#C82930;stroke-width:1;" width="6" x="15" y="82.2422"/><text fill="#000000" font-family="sans-serif" font-size="14" lengthAdjust="spacing" textLength="168.3076" x="27" y="88.5889">List&lt;Student&gt; students</text><rect fill="none" height="6" style="stroke:#C82930;stroke-width:1;" width="6" x="15" y="98.5391"/><text fill="#000000" font-family="sans-serif" font-size="14" lengthAdjust="spacing" textLength="169.9824" x="27" y="104.8857">List&lt;Teacher&gt; teachers</text><line style="stroke:#181818;stroke-width:0.5;" x1="8" x2="201.9824" y1="112.1875" y2="112.1875"/></g><!--class Student--><g class="entity" data-entity="Student" data-source-line="8" data-uid="ent0003" id="entity_Student"><rect fill="#F1F1F1" height="96.8906" rx="2.5" ry="2.5" style="stroke:#181818;stroke-width:0.5;" width="153.3604" x="123.31" y="544.97"/><ellipse cx="168.1845" cy="560.97" fill="#ADD1B2" rx="11" ry="11" style="stroke:#181818;stroke-width:1;"/><path d="M171.1533,566.6106 Q170.5751,566.9075 169.9345,567.0481 Q169.2939,567.2044 168.5908,567.2044 Q166.0908,567.2044 164.7626,565.5638 Q163.4501,563.9075 163.4501,560.7825 Q163.4501,557.6575 164.7626,556.0013 Q166.0908,554.345 168.5908,554.345 Q169.2939,554.345 169.9345,554.5013 Q170.5908,554.6575 171.1533,554.9544 L171.1533,557.6731 Q170.5283,557.095 169.9345,556.8294 Q169.3408,556.5481 168.7158,556.5481 Q167.372,556.5481 166.6845,557.6263 Q165.997,558.6888 165.997,560.7825 Q165.997,562.8763 166.6845,563.9544 Q167.372,565.0169 168.7158,565.0169 Q169.3408,565.0169 169.9345,564.7513 Q170.5283,564.47 171.1533,563.8919 L171.1533,566.6106 Z " fill="#000000"/><text fill="#000000" font-family="sans-serif" font-size="14" lengthAdjust="spacing" textLength="55.1113" x="188.6845" y="565.8167">Student</text><line style="stroke:#181818;stroke-width:0.5;" x1="124.31" x2="275.6704" y1="576.97" y2="576.97"/><rect fill="none" height="6" style="stroke:#C82930;stroke-width:1;" width="6" x="131.31" y="587.6184"/><text fill="#000000" font-family="sans-serif" font-size="14" lengthAdjust="spacing" textLength="112.7656" x="143.31" y="593.9651">String studentId</text><rect fill="none" height="6" style="stroke:#C82930;stroke-width:1;" width="6" x="131.31" y="603.9153"/><text fill="#000000" font-family="sans-serif" font-size="14" lengthAdjust="spacing" textLength="85.9346" x="143.31" y="610.262">String name</text><rect fill="none" height="6" style="stroke:#C82930;stroke-width:1;" width="6" x="131.31" y="620.2122"/><text fill="#000000" font-family="sans-serif" font-size="14" lengthAdjust="spacing" textLength="127.3604" x="143.31" y="626.5589">String dateOfBirth</text><line style="stroke:#181818;stroke-width:0.5;" x1="124.31" x2="275.6704" y1="633.8606" y2="633.8606"/></g><!--class Teacher--><g class="entity" data-entity="Teacher" data-source-line="14" data-uid="ent0004" id="entity_Teacher"><rect fill="#F1F1F1" height="96.8906" rx="2.5" ry="2.5" style="stroke:#181818;stroke-width:0.5;" width="167.7158" x="129.13" y="197.19"/><ellipse cx="180.3961" cy="213.19" fill="#ADD1B2" rx="11" ry="11" style="stroke:#181818;stroke-width:1;"/><path d="M183.3649,218.8306 Q182.7867,219.1275 182.1461,219.2681 Q181.5055,219.4244 180.8024,219.4244 Q178.3024,219.4244 176.9742,217.7838 Q175.6617,216.1275 175.6617,213.0025 Q175.6617,209.8775 176.9742,208.2213 Q178.3024,206.565 180.8024,206.565 Q181.5055,206.565 182.1461,206.7213 Q182.8024,206.8775 183.3649,207.1744 L183.3649,209.8931 Q182.7399,209.315 182.1461,209.0494 Q181.5524,208.7681 180.9274,208.7681 Q179.5836,208.7681 178.8961,209.8463 Q178.2086,210.9088 178.2086,213.0025 Q178.2086,215.0963 178.8961,216.1744 Q179.5836,217.2369 180.9274,217.2369 Q181.5524,217.2369 182.1461,216.9713 Q182.7399,216.69 183.3649,216.1119 L183.3649,218.8306 Z " fill="#000000"/><text fill="#000000" font-family="sans-serif" font-size="14" lengthAdjust="spacing" textLength="56.6836" x="200.8961" y="218.0367">Teacher</text><line style="stroke:#181818;stroke-width:0.5;" x1="130.13" x2="295.8458" y1="229.19" y2="229.19"/><rect fill="none" height="6" style="stroke:#C82930;stroke-width:1;" width="6" x="137.13" y="239.8384"/><text fill="#000000" font-family="sans-serif" font-size="14" lengthAdjust="spacing" textLength="112.8682" x="149.13" y="246.1851">String teacherId</text><rect fill="none" height="6" style="stroke:#C82930;stroke-width:1;" width="6" x="137.13" y="256.1353"/><text fill="#000000" font-family="sans-serif" font-size="14" lengthAdjust="spacing" textLength="85.9346" x="149.13" y="262.482">String name</text><rect fill="none" height="6" style="stroke:#C82930;stroke-width:1;" width="6" x="137.13" y="272.4322"/><text fill="#000000" font-family="sans-serif" font-size="14" lengthAdjust="spacing" textLength="141.7158" x="149.13" y="278.7789">String specialization</text><line style="stroke:#181818;stroke-width:0.5;" x1="130.13" x2="295.8458" y1="286.0806" y2="286.0806"/></g><!--class Course--><g class="entity" data-entity="Course" data-source-line="20" data-uid="ent0005" id="entity_Course"><rect fill="#F1F1F1" height="96.8906" rx="2.5" ry="2.5" style="stroke:#181818;stroke-width:0.5;" width="198.7646" x="165.61" y="718.86"/><ellipse cx="236.3038" cy="734.86" fill="#ADD1B2" rx="11" ry="11" style="stroke:#181818;stroke-width:1;"/><path d="M239.2726,740.5006 Q238.6945,740.7975 238.0538,740.9381 Q237.4132,741.0944 236.7101,741.0944 Q234.2101,741.0944 232.882,739.4538 Q231.5695,737.7975 231.5695,734.6725 Q231.5695,731.5475 232.882,729.8913 Q234.2101,728.235 236.7101,728.235 Q237.4132,728.235 238.0538,728.3913 Q238.7101,728.5475 239.2726,728.8444 L239.2726,731.5631 Q238.6476,730.985 238.0538,730.7194 Q237.4601,730.4381 236.8351,730.4381 Q235.4913,730.4381 234.8038,731.5163 Q234.1163,732.5788 234.1163,734.6725 Q234.1163,736.7663 234.8038,737.8444 Q235.4913,738.9069 236.8351,738.9069 Q237.4601,738.9069 238.0538,738.6413 Q238.6476,738.36 239.2726,737.7819 L239.2726,740.5006 Z " fill="#000000"/><text fill="#000000" font-family="sans-serif" font-size="14" lengthAdjust="spacing" textLength="48.877" x="256.8038" y="739.7067">Course</text><line style="stroke:#181818;stroke-width:0.5;" x1="166.61" x2="363.3746" y1="750.86" y2="750.86"/><rect fill="none" height="6" style="stroke:#C82930;stroke-width:1;" width="6" x="173.61" y="761.5084"/><text fill="#000000" font-family="sans-serif" font-size="14" lengthAdjust="spacing" textLength="106.0459" x="185.61" y="767.8551">String courseId</text><rect fill="none" height="6" style="stroke:#C82930;stroke-width:1;" width="6" x="173.61" y="777.8053"/><text fill="#000000" font-family="sans-serif" font-size="14" lengthAdjust="spacing" textLength="134.333" x="185.61" y="784.152">String courseName</text><rect fill="none" height="6" style="stroke:#C82930;stroke-width:1;" width="6" x="173.61" y="794.1022"/><text fill="#000000" font-family="sans-serif" font-size="14" lengthAdjust="spacing" textLength="172.7646" x="185.61" y="800.4489">String courseDescription</text><line style="stroke:#181818;stroke-width:0.5;" x1="166.61" x2="363.3746" y1="807.7506" y2="807.7506"/></g><!--class Class--><g class="entity" data-entity="Class" data-source-line="26" data-uid="ent0006" id="entity_Class"><rect fill="#F1F1F1" height="96.8906" rx="2.5" ry="2.5" style="stroke:#181818;stroke-width:0.5;" width="148.2881" x="128.85" y="371.08"/><ellipse cx="180.328" cy="387.08" fill="#ADD1B2" rx="11" ry="11" style="stroke:#181818;stroke-width:1;"/><path d="M183.2968,392.7206 Q182.7187,393.0175 182.078,393.1581 Q181.4374,393.3144 180.7343,393.3144 Q178.2343,393.3144 176.9062,391.6738 Q175.5937,390.0175 175.5937,386.8925 Q175.5937,383.7675 176.9062,382.1113 Q178.2343,380.455 180.7343,380.455 Q181.4374,380.455 182.078,380.6113 Q182.7343,380.7675 183.2968,381.0644 L183.2968,383.7831 Q182.6718,383.205 182.078,382.9394 Q181.4843,382.6581 180.8593,382.6581 Q179.5155,382.6581 178.828,383.7363 Q178.1405,384.7988 178.1405,386.8925 Q178.1405,388.9863 178.828,390.0644 Q179.5155,391.1269 180.8593,391.1269 Q181.4843,391.1269 182.078,390.8613 Q182.6718,390.58 183.2968,390.0019 L183.2968,392.7206 Z " fill="#000000"/><text fill="#000000" font-family="sans-serif" font-size="14" lengthAdjust="spacing" textLength="36.832" x="200.828" y="391.9267">Class</text><line style="stroke:#181818;stroke-width:0.5;" x1="129.85" x2="276.1381" y1="403.08" y2="403.08"/><rect fill="none" height="6" style="stroke:#C82930;stroke-width:1;" width="6" x="136.85" y="413.7284"/><text fill="#000000" font-family="sans-serif" font-size="14" lengthAdjust="spacing" textLength="94.001" x="148.85" y="420.0751">String classId</text><rect fill="none" height="6" style="stroke:#C82930;stroke-width:1;" width="6" x="136.85" y="430.0253"/><text fill="#000000" font-family="sans-serif" font-size="14" lengthAdjust="spacing" textLength="122.2881" x="148.85" y="436.372">String className</text><rect fill="none" height="6" style="stroke:#C82930;stroke-width:1;" width="6" x="136.85" y="446.3222"/><text fill="#000000" font-family="sans-serif" font-size="14" lengthAdjust="spacing" textLength="112.4854" x="148.85" y="452.6689">String classYear</text><line style="stroke:#181818;stroke-width:0.5;" x1="129.85" x2="276.1381" y1="459.9706" y2="459.9706"/></g><!--link School to Student--><g class="link" data-entity-1="School" data-entity-2="Student" data-source-line="32" data-uid="lnk7" id="link_School_Student"><path codeLine="32" d="M95.57,120.46 C84.42,199.95 71.92,349.21 110.99,467.97 C120.16,495.85 138,522.85 155.31,544.53" fill="none" id="School-Student" style="stroke:#181818;stroke-width:1;"/><polygon fill="#000000" points="92.6875,337.5975,94.3359,328.2309,88.5155,329.0508,92.6875,337.5975" style="stroke:#000000;stroke-width:1;"/><text fill="#000000" font-family="sans-serif" font-size="13" lengthAdjust="spacing" textLength="55.0278" x="100.99" y="337.1469">contains</text><text fill="#000000" font-family="sans-serif" font-size="13" lengthAdjust="spacing" textLength="8.271" x="85.9508" y="140.3796">1</text><text fill="#000000" font-family="sans-serif" font-size="13" lengthAdjust="spacing" textLength="6.5" x="142.9366" y="534.029">*</text></g><!--link School to Teacher--><g class="link" data-entity-1="School" data-entity-2="Teacher" data-source-line="33" data-uid="lnk8" id="link_School_Teacher"><path codeLine="33" d="M138.57,120.57 C153.25,145.04 170.28,173.43 184.35,196.88" fill="none" id="School-Teacher" style="stroke:#181818;stroke-width:1;"/><polygon fill="#000000" points="172.5622,163.044,170.4292,153.7757,165.3888,156.7996,172.5622,163.044" style="stroke:#000000;stroke-width:1;"/><text fill="#000000" font-family="sans-serif" font-size="13" lengthAdjust="spacing" textLength="54.9453" x="178.99" y="163.2569">employs</text><text fill="#000000" font-family="sans-serif" font-size="13" lengthAdjust="spacing" textLength="8.271" x="134.0057" y="140.0996">1</text><text fill="#000000" font-family="sans-serif" font-size="13" lengthAdjust="spacing" textLength="6.5" x="173.9361" y="186.0453">*</text></g><!--link Teacher to Course--><g class="link" data-entity-1="Teacher" data-entity-2="Course" data-source-line="34" data-uid="lnk9" id="link_Teacher_Course"><path codeLine="34" d="M286.53,294.41 C295.19,303.21 302.79,313.12 307.99,324.08 C377.55,470.52 348.64,531.91 307.99,688.86 C305.37,698.98 301.11,709.19 296.26,718.73" fill="none" id="Teacher-Course" style="stroke:#181818;stroke-width:1;"/><polygon fill="#000000" points="354.1046,511.5351,356.8354,502.425,350.9591,502.5598,354.1046,511.5351" style="stroke:#000000;stroke-width:1;"/><text fill="#000000" font-family="sans-serif" font-size="13" lengthAdjust="spacing" textLength="78.3872" x="362.99" y="511.0369">teaches 0..*</text><text fill="#000000" font-family="sans-serif" font-size="13" lengthAdjust="spacing" textLength="8.271" x="287.8929" y="314.0477">1</text><text fill="#000000" font-family="sans-serif" font-size="13" lengthAdjust="spacing" textLength="6.5" x="294.2703" y="707.9206">*</text></g><!--link Student to Course--><g class="link" data-entity-1="Student" data-entity-2="Course" data-source-line="35" data-uid="lnk10" id="link_Student_Course"><path codeLine="35" d="M195.66,642.14 C195.79,657.46 197.6,674.24 202.99,688.86 C206.81,699.2 212.59,709.21 219.12,718.41" fill="none" id="Student-Course" style="stroke:#181818;stroke-width:1;"/><polygon fill="#000000" points="209.46,685.2054,209.6098,675.6961,203.9917,677.4241,209.46,685.2054" style="stroke:#000000;stroke-width:1;"/><text fill="#000000" font-family="sans-serif" font-size="13" lengthAdjust="spacing" textLength="86.6836" x="216.99" y="684.9269">enrolls in 0..*</text><text fill="#000000" font-family="sans-serif" font-size="13" lengthAdjust="spacing" textLength="8.271" x="186.5588" y="661.771">1</text><text fill="#000000" font-family="sans-serif" font-size="13" lengthAdjust="spacing" textLength="6.5" x="206.5864" y="707.9077">*</text></g><!--link Class to Student--><g class="link" data-entity-1="Class" data-entity-2="Student" data-source-line="36" data-uid="lnk11" id="link_Class_Student"><path codeLine="36" d="M202.16,468.4 C201.74,492.15 201.24,520.74 200.83,544.49" fill="none" id="Class-Student" style="stroke:#181818;stroke-width:1;"/><polygon fill="#000000" points="205.9026,511.5356,208.9992,502.5433,203.1222,502.4406,205.9026,511.5356" style="stroke:#000000;stroke-width:1;"/><text fill="#000000" font-family="sans-serif" font-size="13" lengthAdjust="spacing" textLength="22.9785" x="214.99" y="511.0369">has</text><text fill="#000000" font-family="sans-serif" font-size="13" lengthAdjust="spacing" textLength="8.271" x="193.5286" y="488.0512">1</text><text fill="#000000" font-family="sans-serif" font-size="13" lengthAdjust="spacing" textLength="6.5" x="194.5733" y="533.9837">*</text></g><!--link Teacher to Class--><g class="link" data-entity-1="Teacher" data-entity-2="Class" data-source-line="37" data-uid="lnk12" id="link_Teacher_Class"><path codeLine="37" d="M207.43,294.5 C206.47,304.28 205.59,314.5 204.99,324.08 C204.05,339.3 203.52,355.93 203.24,370.93" fill="none" id="Teacher-Class" style="stroke:#181818;stroke-width:1;"/><polygon fill="#000000" points="209.7163,337.6389,213.1459,328.7683,207.2769,328.4465,209.7163,337.6389" style="stroke:#000000;stroke-width:1;"/><text fill="#000000" font-family="sans-serif" font-size="13" lengthAdjust="spacing" textLength="84.9063" x="218.99" y="337.1469">classTeacher</text><text fill="#000000" font-family="sans-serif" font-size="13" lengthAdjust="spacing" textLength="23.0356" x="182.1402" y="314.1498">0..*</text><text fill="#000000" font-family="sans-serif" font-size="13" lengthAdjust="spacing" textLength="8.271" x="194.7311" y="360.1178">1</text></g><!--SRC=[XP4nRyCW48Lt_ueJOoIYThKg3ssNIb4pk4l74rnh908MHuOawdzl2BYfYQKm8FHuVE_kK1QPeLU3znPE3PoNX3u6uxx1uOxc2ceTYBc86yFngOzxJIvsmFamk_mWL0E53c8-SFFJD2f7PdkTMIXl-buf6YDjlvvDYCCLMl9gQ4c_3-MHb45hZXYDTrVkYzy7fXghBcfDpUhx3JlhhyGgcB72N_QQdiGRU18Ns4d-90o9MJvJF0gG4iHA_CswFHVX8Xh7q2tOfkcrGBlH-aDoJTe_Mnb6MyRAyB1UhnAmf2nPoGLlBODnapltl5ZaWBFaz418cQpvKPlxdGpTBm00]--></g></svg>