<svg xmlns="http://www.w3.org/2000/svg" xmlns:xlink="http://www.w3.org/1999/xlink" contentStyleType="text/css" data-diagram-type="CLASS" height="860px" preserveAspectRatio="none" style="width:862px;height:860px;background:#FFFFFF;" version="1.1" viewBox="0 0 862 860" width="862px" zoomAndPan="magnify"><defs/><g><!--class School--><g class="entity" data-entity="School" data-source-line="1" data-uid="ent0002" id="entity_School"><rect fill="#F1F1F1" height="113.1875" rx="2.5" ry="2.5" style="stroke:#181818;stroke-width:0.5;" width="381.1816" x="7" y="7"/><ellipse cx="170.1021" cy="23" fill="#ADD1B2" rx="11" ry="11" style="stroke:#181818;stroke-width:1;"/><path d="M173.0708,28.6406 Q172.4927,28.9375 171.8521,29.0781 Q171.2114,29.2344 170.5083,29.2344 Q168.0083,29.2344 166.6802,27.5938 Q165.3677,25.9375 165.3677,22.8125 Q165.3677,19.6875 166.6802,18.0313 Q168.0083,16.375 170.5083,16.375 Q171.2114,16.375 171.8521,16.5313 Q172.5083,16.6875 173.0708,16.9844 L173.0708,19.7031 Q172.4458,19.125 171.8521,18.8594 Q171.2583,18.5781 170.6333,18.5781 Q169.2896,18.5781 168.6021,19.6563 Q167.9146,20.7188 167.9146,22.8125 Q167.9146,24.9063 168.6021,25.9844 Q169.2896,27.0469 170.6333,27.0469 Q171.2583,27.0469 171.8521,26.7813 Q172.4458,26.5 173.0708,25.9219 L173.0708,28.6406 Z " fill="#000000"/><text fill="#000000" font-family="sans-serif" font-size="14" lengthAdjust="spacing" textLength="46.4775" x="190.6021" y="27.8467">School</text><line style="stroke:#181818;stroke-width:0.5;" x1="8" x2="387.1816" y1="39" y2="39"/><rect fill="none" height="6" style="stroke:#C82930;stroke-width:1;" width="6" x="15" y="49.6484"/><text fill="#000000" font-family="sans-serif" font-size="14" lengthAdjust="spacing" textLength="132.4189" x="27" y="55.9951">String schoolName</text><line style="stroke:#181818;stroke-width:0.5;" x1="8" x2="387.1816" y1="63.2969" y2="63.2969"/><ellipse cx="18" cy="76.9453" fill="#84BE84" rx="3" ry="3" style="stroke:#038048;stroke-width:1;"/><text fill="#000000" font-family="sans-serif" font-size="14" lengthAdjust="spacing" textLength="328.0635" x="27" y="80.292">void addDepartment(Department department)</text><ellipse cx="18" cy="93.2422" fill="#84BE84" rx="3" ry="3" style="stroke:#038048;stroke-width:1;"/><text fill="#000000" font-family="sans-serif" font-size="14" lengthAdjust="spacing" textLength="355.1816" x="27" y="96.5889">void removeDepartment(Department department)</text><ellipse cx="18" cy="109.5391" fill="#84BE84" rx="3" ry="3" style="stroke:#038048;stroke-width:1;"/><text fill="#000000" font-family="sans-serif" font-size="14" lengthAdjust="spacing" textLength="263.0264" x="27" y="112.8857">List&lt;Department&gt; getDepartments()</text></g><!--class Department--><g class="entity" data-entity="Department" data-source-line="8" data-uid="ent0003" id="entity_Department"><rect fill="#F1F1F1" height="194.6719" rx="2.5" ry="2.5" style="stroke:#181818;stroke-width:0.5;" width="295.9102" x="49.64" y="197.19"/><ellipse cx="150.9862" cy="213.19" fill="#ADD1B2" rx="11" ry="11" style="stroke:#181818;stroke-width:1;"/><path d="M153.9549,218.8306 Q153.3768,219.1275 152.7362,219.2681 Q152.0956,219.4244 151.3924,219.4244 Q148.8924,219.4244 147.5643,217.7838 Q146.2518,216.1275 146.2518,213.0025 Q146.2518,209.8775 147.5643,208.2213 Q148.8924,206.565 151.3924,206.565 Q152.0956,206.565 152.7362,206.7213 Q153.3924,206.8775 153.9549,207.1744 L153.9549,209.8931 Q153.3299,209.315 152.7362,209.0494 Q152.1424,208.7681 151.5174,208.7681 Q150.1737,208.7681 149.4862,209.8463 Q148.7987,210.9088 148.7987,213.0025 Q148.7987,215.0963 149.4862,216.1744 Q150.1737,217.2369 151.5174,217.2369 Q152.1424,217.2369 152.7362,216.9713 Q153.3299,216.69 153.9549,216.1119 L153.9549,218.8306 Z " fill="#000000"/><text fill="#000000" font-family="sans-serif" font-size="14" lengthAdjust="spacing" textLength="84.7178" x="171.4862" y="218.0367">Department</text><line style="stroke:#181818;stroke-width:0.5;" x1="50.64" x2="344.5502" y1="229.19" y2="229.19"/><rect fill="none" height="6" style="stroke:#C82930;stroke-width:1;" width="6" x="57.64" y="239.8384"/><text fill="#000000" font-family="sans-serif" font-size="14" lengthAdjust="spacing" textLength="170.3584" x="69.64" y="246.1851">String departmentName</text><rect fill="none" height="6" style="stroke:#C82930;stroke-width:1;" width="6" x="57.64" y="256.1353"/><text fill="#000000" font-family="sans-serif" font-size="14" lengthAdjust="spacing" textLength="139.877" x="69.64" y="262.482">List&lt;Class&gt; classes</text><rect fill="none" height="6" style="stroke:#C82930;stroke-width:1;" width="6" x="57.64" y="272.4322"/><text fill="#000000" font-family="sans-serif" font-size="14" lengthAdjust="spacing" textLength="169.9824" x="69.64" y="278.7789">List&lt;Teacher&gt; teachers</text><line style="stroke:#181818;stroke-width:0.5;" x1="50.64" x2="344.5502" y1="286.0806" y2="286.0806"/><ellipse cx="60.64" cy="299.7291" fill="#84BE84" rx="3" ry="3" style="stroke:#038048;stroke-width:1;"/><text fill="#000000" font-family="sans-serif" font-size="14" lengthAdjust="spacing" textLength="184.2217" x="69.64" y="303.0757">void addClass(Class class)</text><ellipse cx="60.64" cy="316.0259" fill="#84BE84" rx="3" ry="3" style="stroke:#038048;stroke-width:1;"/><text fill="#000000" font-family="sans-serif" font-size="14" lengthAdjust="spacing" textLength="211.3398" x="69.64" y="319.3726">void removeClass(Class class)</text><ellipse cx="60.64" cy="332.3228" fill="#84BE84" rx="3" ry="3" style="stroke:#038048;stroke-width:1;"/><text fill="#000000" font-family="sans-serif" font-size="14" lengthAdjust="spacing" textLength="242.792" x="69.64" y="335.6695">void addTeacher(Teacher teacher)</text><ellipse cx="60.64" cy="348.6197" fill="#84BE84" rx="3" ry="3" style="stroke:#038048;stroke-width:1;"/><text fill="#000000" font-family="sans-serif" font-size="14" lengthAdjust="spacing" textLength="269.9102" x="69.64" y="351.9664">void removeTeacher(Teacher teacher)</text><ellipse cx="60.64" cy="364.9166" fill="#84BE84" rx="3" ry="3" style="stroke:#038048;stroke-width:1;"/><text fill="#000000" font-family="sans-serif" font-size="14" lengthAdjust="spacing" textLength="175.8682" x="69.64" y="368.2632">List&lt;Class&gt; getClasses()</text><ellipse cx="60.64" cy="381.2134" fill="#84BE84" rx="3" ry="3" style="stroke:#038048;stroke-width:1;"/><text fill="#000000" font-family="sans-serif" font-size="14" lengthAdjust="spacing" textLength="206.958" x="69.64" y="384.5601">List&lt;Teacher&gt; getTeachers()</text></g><!--class Teacher--><g class="entity" data-entity="Teacher" data-source-line="20" data-uid="ent0004" id="entity_Teacher"><rect fill="#F1F1F1" height="145.7813" rx="2.5" ry="2.5" style="stroke:#181818;stroke-width:0.5;" width="273.4746" x="174.85" y="707.94"/><ellipse cx="278.9955" cy="723.94" fill="#ADD1B2" rx="11" ry="11" style="stroke:#181818;stroke-width:1;"/><path d="M281.9643,729.5806 Q281.3861,729.8775 280.7455,730.0181 Q280.1049,730.1744 279.4018,730.1744 Q276.9018,730.1744 275.5736,728.5338 Q274.2611,726.8775 274.2611,723.7525 Q274.2611,720.6275 275.5736,718.9713 Q276.9018,717.315 279.4018,717.315 Q280.1049,717.315 280.7455,717.4713 Q281.4018,717.6275 281.9643,717.9244 L281.9643,720.6431 Q281.3393,720.065 280.7455,719.7994 Q280.1518,719.5181 279.5268,719.5181 Q278.183,719.5181 277.4955,720.5963 Q276.808,721.6588 276.808,723.7525 Q276.808,725.8463 277.4955,726.9244 Q278.183,727.9869 279.5268,727.9869 Q280.1518,727.9869 280.7455,727.7213 Q281.3393,727.44 281.9643,726.8619 L281.9643,729.5806 Z " fill="#000000"/><text fill="#000000" font-family="sans-serif" font-size="14" lengthAdjust="spacing" textLength="56.6836" x="299.4955" y="728.7867">Teacher</text><line style="stroke:#181818;stroke-width:0.5;" x1="175.85" x2="447.3246" y1="739.94" y2="739.94"/><rect fill="none" height="6" style="stroke:#C82930;stroke-width:1;" width="6" x="182.85" y="750.5884"/><text fill="#000000" font-family="sans-serif" font-size="14" lengthAdjust="spacing" textLength="112.8682" x="194.85" y="756.9351">String teacherId</text><rect fill="none" height="6" style="stroke:#C82930;stroke-width:1;" width="6" x="182.85" y="766.8853"/><text fill="#000000" font-family="sans-serif" font-size="14" lengthAdjust="spacing" textLength="85.9346" x="194.85" y="773.232">String name</text><rect fill="none" height="6" style="stroke:#C82930;stroke-width:1;" width="6" x="182.85" y="783.1822"/><text fill="#000000" font-family="sans-serif" font-size="14" lengthAdjust="spacing" textLength="147.1572" x="194.85" y="789.5289">String contactDetails</text><line style="stroke:#181818;stroke-width:0.5;" x1="175.85" x2="447.3246" y1="796.8306" y2="796.8306"/><ellipse cx="185.85" cy="810.4791" fill="#84BE84" rx="3" ry="3" style="stroke:#038048;stroke-width:1;"/><text fill="#000000" font-family="sans-serif" font-size="14" lengthAdjust="spacing" textLength="238.8203" x="194.85" y="813.8257">void assignCourse(Course course)</text><ellipse cx="185.85" cy="826.7759" fill="#84BE84" rx="3" ry="3" style="stroke:#038048;stroke-width:1;"/><text fill="#000000" font-family="sans-serif" font-size="14" lengthAdjust="spacing" textLength="247.4746" x="194.85" y="830.1226">void removeCourse(Course course)</text><ellipse cx="185.85" cy="843.0728" fill="#84BE84" rx="3" ry="3" style="stroke:#038048;stroke-width:1;"/><text fill="#000000" font-family="sans-serif" font-size="14" lengthAdjust="spacing" textLength="191.3447" x="194.85" y="846.4195">List&lt;Course&gt; getCourses()</text></g><!--class Student--><g class="entity" data-entity="Student" data-source-line="29" data-uid="ent0005" id="entity_Student"><rect fill="#F1F1F1" height="145.7813" rx="2.5" ry="2.5" style="stroke:#181818;stroke-width:0.5;" width="259.5908" x="529.8" y="707.94"/><ellipse cx="627.7897" cy="723.94" fill="#ADD1B2" rx="11" ry="11" style="stroke:#181818;stroke-width:1;"/><path d="M630.7585,729.5806 Q630.1804,729.8775 629.5397,730.0181 Q628.8991,730.1744 628.196,730.1744 Q625.696,730.1744 624.3679,728.5338 Q623.0554,726.8775 623.0554,723.7525 Q623.0554,720.6275 624.3679,718.9713 Q625.696,717.315 628.196,717.315 Q628.8991,717.315 629.5397,717.4713 Q630.196,717.6275 630.7585,717.9244 L630.7585,720.6431 Q630.1335,720.065 629.5397,719.7994 Q628.946,719.5181 628.321,719.5181 Q626.9772,719.5181 626.2897,720.5963 Q625.6022,721.6588 625.6022,723.7525 Q625.6022,725.8463 626.2897,726.9244 Q626.9772,727.9869 628.321,727.9869 Q628.946,727.9869 629.5397,727.7213 Q630.1335,727.44 630.7585,726.8619 L630.7585,729.5806 Z " fill="#000000"/><text fill="#000000" font-family="sans-serif" font-size="14" lengthAdjust="spacing" textLength="55.1113" x="648.2897" y="728.7867">Student</text><line style="stroke:#181818;stroke-width:0.5;" x1="530.8" x2="788.3908" y1="739.94" y2="739.94"/><rect fill="none" height="6" style="stroke:#C82930;stroke-width:1;" width="6" x="537.8" y="750.5884"/><text fill="#000000" font-family="sans-serif" font-size="14" lengthAdjust="spacing" textLength="112.7656" x="549.8" y="756.9351">String studentId</text><rect fill="none" height="6" style="stroke:#C82930;stroke-width:1;" width="6" x="537.8" y="766.8853"/><text fill="#000000" font-family="sans-serif" font-size="14" lengthAdjust="spacing" textLength="85.9346" x="549.8" y="773.232">String name</text><rect fill="none" height="6" style="stroke:#C82930;stroke-width:1;" width="6" x="537.8" y="783.1822"/><text fill="#000000" font-family="sans-serif" font-size="14" lengthAdjust="spacing" textLength="147.1572" x="549.8" y="789.5289">String contactDetails</text><line style="stroke:#181818;stroke-width:0.5;" x1="530.8" x2="788.3908" y1="796.8306" y2="796.8306"/><ellipse cx="540.8" cy="810.4791" fill="#84BE84" rx="3" ry="3" style="stroke:#038048;stroke-width:1;"/><text fill="#000000" font-family="sans-serif" font-size="14" lengthAdjust="spacing" textLength="233.5908" x="549.8" y="813.8257">void enrollCourse(Course course)</text><ellipse cx="540.8" cy="826.7759" fill="#84BE84" rx="3" ry="3" style="stroke:#038048;stroke-width:1;"/><text fill="#000000" font-family="sans-serif" font-size="14" lengthAdjust="spacing" textLength="231.9844" x="549.8" y="830.1226">void leaveCourse(Course course)</text><ellipse cx="540.8" cy="843.0728" fill="#84BE84" rx="3" ry="3" style="stroke:#038048;stroke-width:1;"/><text fill="#000000" font-family="sans-serif" font-size="14" lengthAdjust="spacing" textLength="191.3447" x="549.8" y="846.4195">List&lt;Course&gt; getCourses()</text></g><!--class Class--><g class="entity" data-entity="Class" data-source-line="38" data-uid="ent0006" id="entity_Class"><rect fill="#F1F1F1" height="162.0781" rx="2.5" ry="2.5" style="stroke:#181818;stroke-width:0.5;" width="300.668" x="555.26" y="468.86"/><ellipse cx="682.928" cy="484.86" fill="#ADD1B2" rx="11" ry="11" style="stroke:#181818;stroke-width:1;"/><path d="M685.8967,490.5006 Q685.3186,490.7975 684.678,490.9381 Q684.0373,491.0944 683.3342,491.0944 Q680.8342,491.0944 679.5061,489.4538 Q678.1936,487.7975 678.1936,484.6725 Q678.1936,481.5475 679.5061,479.8913 Q680.8342,478.235 683.3342,478.235 Q684.0373,478.235 684.678,478.3913 Q685.3342,478.5475 685.8967,478.8444 L685.8967,481.5631 Q685.2717,480.985 684.678,480.7194 Q684.0842,480.4381 683.4592,480.4381 Q682.1155,480.4381 681.428,481.5163 Q680.7405,482.5788 680.7405,484.6725 Q680.7405,486.7663 681.428,487.8444 Q682.1155,488.9069 683.4592,488.9069 Q684.0842,488.9069 684.678,488.6413 Q685.2717,488.36 685.8967,487.7819 L685.8967,490.5006 Z " fill="#000000"/><text fill="#000000" font-family="sans-serif" font-size="14" lengthAdjust="spacing" textLength="36.832" x="703.428" y="489.7067">Class</text><line style="stroke:#181818;stroke-width:0.5;" x1="556.26" x2="854.928" y1="500.86" y2="500.86"/><rect fill="none" height="6" style="stroke:#C82930;stroke-width:1;" width="6" x="563.26" y="511.5084"/><text fill="#000000" font-family="sans-serif" font-size="14" lengthAdjust="spacing" textLength="122.2881" x="575.26" y="517.8551">String className</text><rect fill="none" height="6" style="stroke:#C82930;stroke-width:1;" width="6" x="563.26" y="527.8053"/><text fill="#000000" font-family="sans-serif" font-size="14" lengthAdjust="spacing" textLength="94.001" x="575.26" y="534.152">String classId</text><rect fill="none" height="6" style="stroke:#C82930;stroke-width:1;" width="6" x="563.26" y="544.1022"/><text fill="#000000" font-family="sans-serif" font-size="14" lengthAdjust="spacing" textLength="168.3076" x="575.26" y="550.4489">List&lt;Student&gt; students</text><rect fill="none" height="6" style="stroke:#C82930;stroke-width:1;" width="6" x="563.26" y="560.3991"/><text fill="#000000" font-family="sans-serif" font-size="14" lengthAdjust="spacing" textLength="152.5713" x="575.26" y="566.7457">Teacher classTeacher</text><line style="stroke:#181818;stroke-width:0.5;" x1="556.26" x2="854.928" y1="574.0475" y2="574.0475"/><ellipse cx="566.26" cy="587.6959" fill="#84BE84" rx="3" ry="3" style="stroke:#038048;stroke-width:1;"/><text fill="#000000" font-family="sans-serif" font-size="14" lengthAdjust="spacing" textLength="239.5449" x="575.26" y="591.0426">void addStudent(Student student)</text><ellipse cx="566.26" cy="603.9928" fill="#84BE84" rx="3" ry="3" style="stroke:#038048;stroke-width:1;"/><text fill="#000000" font-family="sans-serif" font-size="14" lengthAdjust="spacing" textLength="266.6631" x="575.26" y="607.3395">void removeStudent(Student student)</text><ellipse cx="566.26" cy="620.2897" fill="#84BE84" rx="3" ry="3" style="stroke:#038048;stroke-width:1;"/><text fill="#000000" font-family="sans-serif" font-size="14" lengthAdjust="spacing" textLength="274.668" x="575.26" y="623.6364">void setClassTeacher(Teacher teacher)</text></g><!--class Course--><g class="entity" data-entity="Course" data-source-line="48" data-uid="ent0007" id="entity_Course"><rect fill="#F1F1F1" height="162.0781" rx="2.5" ry="2.5" style="stroke:#181818;stroke-width:0.5;" width="292.6631" x="227.26" y="468.86"/><ellipse cx="344.9031" cy="484.86" fill="#ADD1B2" rx="11" ry="11" style="stroke:#181818;stroke-width:1;"/><path d="M347.8718,490.5006 Q347.2937,490.7975 346.6531,490.9381 Q346.0124,491.0944 345.3093,491.0944 Q342.8093,491.0944 341.4812,489.4538 Q340.1687,487.7975 340.1687,484.6725 Q340.1687,481.5475 341.4812,479.8913 Q342.8093,478.235 345.3093,478.235 Q346.0124,478.235 346.6531,478.3913 Q347.3093,478.5475 347.8718,478.8444 L347.8718,481.5631 Q347.2468,480.985 346.6531,480.7194 Q346.0593,480.4381 345.4343,480.4381 Q344.0906,480.4381 343.4031,481.5163 Q342.7156,482.5788 342.7156,484.6725 Q342.7156,486.7663 343.4031,487.8444 Q344.0906,488.9069 345.4343,488.9069 Q346.0593,488.9069 346.6531,488.6413 Q347.2468,488.36 347.8718,487.7819 L347.8718,490.5006 Z " fill="#000000"/><text fill="#000000" font-family="sans-serif" font-size="14" lengthAdjust="spacing" textLength="48.877" x="365.4031" y="489.7067">Course</text><line style="stroke:#181818;stroke-width:0.5;" x1="228.26" x2="518.9231" y1="500.86" y2="500.86"/><rect fill="none" height="6" style="stroke:#C82930;stroke-width:1;" width="6" x="235.26" y="511.5084"/><text fill="#000000" font-family="sans-serif" font-size="14" lengthAdjust="spacing" textLength="106.0459" x="247.26" y="517.8551">String courseId</text><rect fill="none" height="6" style="stroke:#C82930;stroke-width:1;" width="6" x="235.26" y="527.8053"/><text fill="#000000" font-family="sans-serif" font-size="14" lengthAdjust="spacing" textLength="134.333" x="247.26" y="534.152">String courseName</text><rect fill="none" height="6" style="stroke:#C82930;stroke-width:1;" width="6" x="235.26" y="544.1022"/><text fill="#000000" font-family="sans-serif" font-size="14" lengthAdjust="spacing" textLength="114.7549" x="247.26" y="550.4489">Teacher teacher</text><rect fill="none" height="6" style="stroke:#C82930;stroke-width:1;" width="6" x="235.26" y="560.3991"/><text fill="#000000" font-family="sans-serif" font-size="14" lengthAdjust="spacing" textLength="168.3076" x="247.26" y="566.7457">List&lt;Student&gt; students</text><line style="stroke:#181818;stroke-width:0.5;" x1="228.26" x2="518.9231" y1="574.0475" y2="574.0475"/><ellipse cx="238.26" cy="587.6959" fill="#84BE84" rx="3" ry="3" style="stroke:#038048;stroke-width:1;"/><text fill="#000000" font-family="sans-serif" font-size="14" lengthAdjust="spacing" textLength="239.5449" x="247.26" y="591.0426">void addStudent(Student student)</text><ellipse cx="238.26" cy="603.9928" fill="#84BE84" rx="3" ry="3" style="stroke:#038048;stroke-width:1;"/><text fill="#000000" font-family="sans-serif" font-size="14" lengthAdjust="spacing" textLength="266.6631" x="247.26" y="607.3395">void removeStudent(Student student)</text><ellipse cx="238.26" cy="620.2897" fill="#84BE84" rx="3" ry="3" style="stroke:#038048;stroke-width:1;"/><text fill="#000000" font-family="sans-serif" font-size="14" lengthAdjust="spacing" textLength="237.8359" x="247.26" y="623.6364">void setTeacher(Teacher teacher)</text></g><!--reverse link School to Department--><g class="link" data-entity-1="School" data-entity-2="Department" data-source-line="58" data-uid="lnk8" id="link_School_Department"><path codeLine="58" d="M197.59,132.6 C197.59,155.63 197.59,170.98 197.59,197.05" fill="none" id="School-backto-Department" style="stroke:#181818;stroke-width:1;"/><polygon fill="#181818" points="197.59,120.6,193.59,126.6,197.59,132.6,201.59,126.6,197.59,120.6" style="stroke:#181818;stroke-width:1;"/><text fill="#000000" font-family="sans-serif" font-size="13" lengthAdjust="spacing" textLength="22.9785" x="198.59" y="163.2569">has</text><text fill="#000000" font-family="sans-serif" font-size="13" lengthAdjust="spacing" textLength="8.271" x="189.1431" y="140.1331">1</text><text fill="#000000" font-family="sans-serif" font-size="13" lengthAdjust="spacing" textLength="23.0356" x="173.7105" y="186.0848">1..*</text></g><!--reverse link Department to Class--><g class="link" data-entity-1="Department" data-entity-2="Class" data-source-line="59" data-uid="lnk9" id="link_Department_Class"><path codeLine="59" d="M356.6287,374.8455 C422.3787,407.6355 488.88,440.81 554.9,473.74" fill="none" id="Department-backto-Class" style="stroke:#181818;stroke-width:1;"/><polygon fill="#181818" points="345.89,369.49,349.4742,375.7473,356.6287,374.8455,353.0445,368.5882,345.89,369.49" style="stroke:#181818;stroke-width:1;"/><text fill="#000000" font-family="sans-serif" font-size="13" lengthAdjust="spacing" textLength="22.9785" x="482.59" y="434.9269">has</text><text fill="#000000" font-family="sans-serif" font-size="13" lengthAdjust="spacing" textLength="8.271" x="353.7497" y="370.0389">1</text><text fill="#000000" font-family="sans-serif" font-size="13" lengthAdjust="spacing" textLength="23.0356" x="527.8408" y="464.7038">0..*</text></g><!--reverse link Department to Teacher--><g class="link" data-entity-1="Department" data-entity-2="Teacher" data-source-line="60" data-uid="lnk10" id="link_Department_Teacher"><path codeLine="60" d="M173.2392,404.0071 C161.7992,472.7171 157.48,554.2 185.59,630.94 C195.84,658.92 213.93,685.26 233.26,707.77" fill="none" id="Department-backto-Teacher" style="stroke:#181818;stroke-width:1;"/><polygon fill="#181818" points="175.21,392.17,170.2789,397.4316,173.2392,404.0071,178.1703,398.7455,175.21,392.17" style="stroke:#181818;stroke-width:1;"/><text fill="#000000" font-family="sans-serif" font-size="13" lengthAdjust="spacing" textLength="22.9785" x="186.59" y="554.4669">has</text><text fill="#000000" font-family="sans-serif" font-size="13" lengthAdjust="spacing" textLength="8.271" x="165.2823" y="411.9633">1</text><text fill="#000000" font-family="sans-serif" font-size="13" lengthAdjust="spacing" textLength="23.0356" x="201.4194" y="696.9132">1..*</text></g><!--reverse link Class to Student--><g class="link" data-entity-1="Class" data-entity-2="Student" data-source-line="61" data-uid="lnk11" id="link_Class_Student"><path codeLine="61" d="M687.0748,643.0546 C682.0748,667.9246 678.97,683.38 674.09,707.65" fill="none" id="Class-backto-Student" style="stroke:#181818;stroke-width:1;"/><polygon fill="#181818" points="689.44,631.29,684.3359,636.3839,687.0748,643.0546,692.1789,637.9607,689.44,631.29" style="stroke:#181818;stroke-width:1;"/><text fill="#000000" font-family="sans-serif" font-size="13" lengthAdjust="spacing" textLength="22.9785" x="683.59" y="674.0069">has</text><text fill="#000000" font-family="sans-serif" font-size="13" lengthAdjust="spacing" textLength="8.271" x="679.7197" y="651.0017">1</text><text fill="#000000" font-family="sans-serif" font-size="13" lengthAdjust="spacing" textLength="24.7749" x="650.3737" y="696.7814">1..n</text></g><!--link Class to Teacher--><g class="link" data-entity-1="Class" data-entity-2="Teacher" data-source-line="62" data-uid="lnk12" id="link_Class_Teacher"><path codeLine="62" d="M573.46,631.39 C547.41,646.99 520.21,663.1 494.59,677.94 C477.91,687.6 460.3,697.63 442.85,707.45" fill="none" id="Class-Teacher" style="stroke:#181818;stroke-width:1;"/><text fill="#000000" font-family="sans-serif" font-size="13" lengthAdjust="spacing" textLength="130.8887" x="523.59" y="674.0069">has as classTeacher</text><text fill="#000000" font-family="sans-serif" font-size="13" lengthAdjust="spacing" textLength="8.271" x="553.7726" y="651.1103">1</text><text fill="#000000" font-family="sans-serif" font-size="13" lengthAdjust="spacing" textLength="8.271" x="446.9926" y="696.8143">1</text></g><!--link Course to Teacher--><g class="link" data-entity-1="Course" data-entity-2="Teacher" data-source-line="63" data-uid="lnk13" id="link_Course_Teacher"><path codeLine="63" d="M319.71,631.37 C315.19,641.02 311.31,650.99 308.59,660.94 C304.54,675.78 303.09,692.05 303.09,707.66" fill="none" id="Course-Teacher" style="stroke:#181818;stroke-width:1;"/><text fill="#000000" font-family="sans-serif" font-size="13" lengthAdjust="spacing" textLength="95.7734" x="309.59" y="674.0069">has as teacher</text><text fill="#000000" font-family="sans-serif" font-size="13" lengthAdjust="spacing" textLength="8.271" x="306.7474" y="651.0885">1</text><text fill="#000000" font-family="sans-serif" font-size="13" lengthAdjust="spacing" textLength="8.271" x="293.8731" y="696.7924">1</text></g><!--link Course to Student--><g class="link" data-entity-1="Course" data-entity-2="Student" data-source-line="64" data-uid="lnk14" id="link_Course_Student"><path codeLine="64" d="M409.21,631.19 C419.26,648.06 431.4,664.72 445.59,677.94 C469.68,700.37 499.62,718.74 529.39,733.38" fill="none" id="Course-Student" style="stroke:#181818;stroke-width:1;"/><text fill="#000000" font-family="sans-serif" font-size="13" lengthAdjust="spacing" textLength="43.5322" x="446.59" y="674.0069">enrolls</text><text fill="#000000" font-family="sans-serif" font-size="13" lengthAdjust="spacing" textLength="8.271" x="403.9389" y="650.8931">1</text><text fill="#000000" font-family="sans-serif" font-size="13" lengthAdjust="spacing" textLength="23.0356" x="498.6415" y="727.4454">0..*</text></g><!--SRC=[jLInReCm4Dtv2el9IKNKhbN5aYwLgYpf3rXW0HAn8yx9KlNVwzpPsBY4H8hAW8_pksU_vpDLBm3OlcgrxjbtnknJiBqPEjKmmEnE72JcdzXPTpKJTVqkZs8m1waC3o6hnt0LumTvq6TvRybd1-Oj84hMI1C-WQ-odoohSDCHJxBnG3jklY3cxQMoP4WW8Pxvag9gvL0oGm4ach6IuvlAPqGkOoo9MuIxqQyrGtK36Okn3cr93vzCZueimCKJ_pnrOfvRwQEUfbLmqcKghOoexEaOqVLJkm2wHctrQG39QR3eop1dsWACP6AAT68uKR4tftgc1O3IZwYGQj1zVrD5ByN38gXb4WaujVkxuKjwr8NapeFIg_QDxKyOIzn7qf6kb7iR7SFCETs31DUALxitA2QdKicOJG-Dif4J2UrjA_vHxv9KzrlDNtAsBWexRZRhFFvllR9MG1ObHkWpGgalhgE8q2zDEAg98IeVRqaAGKJ2OA_lj6FSMItXpJoKL8J5wKh1Bm00]--></g></svg>