<svg xmlns="http://www.w3.org/2000/svg" xmlns:xlink="http://www.w3.org/1999/xlink" contentStyleType="text/css" data-diagram-type="DESCRIPTION" height="752px" preserveAspectRatio="none" style="width:390px;height:752px;background:#FFFFFF;" version="1.1" viewBox="0 0 390 752" width="390px" zoomAndPan="magnify"><defs/><g><!--cluster School Management System--><g class="cluster" data-entity="School Management System" data-source-line="5" data-uid="ent0005" id="cluster_School Management System"><rect fill="none" height="739" rx="2.5" ry="2.5" style="stroke:#181818;stroke-width:1;" width="238.96" x="145.68" y="7"/><text fill="#000000" font-family="sans-serif" font-size="14" font-weight="bold" lengthAdjust="spacing" textLength="223.501" x="153.4095" y="21.9951">School Management System</text></g><!--entity Enroll--><g class="entity" data-entity="Enroll" data-source-line="6" data-uid="ent0006" id="entity_Enroll"><ellipse cx="264.661" cy="123.9982" fill="#F1F1F1" rx="71.591" ry="16.7182" style="stroke:#181818;stroke-width:0.5;"/><text fill="#000000" font-family="sans-serif" font-size="14" lengthAdjust="spacing" textLength="110.3594" x="209.4813" y="128.6466">Enroll in Course</text></g><!--entity Drop--><g class="entity" data-entity="Drop" data-source-line="7" data-uid="ent0007" id="entity_Drop"><ellipse cx="264.6553" cy="57.0031" fill="#F1F1F1" rx="62.7153" ry="14.9431" style="stroke:#181818;stroke-width:0.5;"/><text fill="#000000" font-family="sans-serif" font-size="14" lengthAdjust="spacing" textLength="87.3154" x="220.9976" y="61.6515">Drop Course</text></g><!--entity AssignGrades--><g class="entity" data-entity="AssignGrades" data-source-line="8" data-uid="ent0008" id="entity_AssignGrades"><ellipse cx="264.6614" cy="484.9983" fill="#F1F1F1" rx="67.5914" ry="15.9183" style="stroke:#181818;stroke-width:0.5;"/><text fill="#000000" font-family="sans-serif" font-size="14" lengthAdjust="spacing" textLength="100.2422" x="214.5403" y="489.6467">Assign Grades</text></g><!--entity ViewGrades--><g class="entity" data-entity="ViewGrades" data-source-line="9" data-uid="ent0009" id="entity_ViewGrades"><ellipse cx="264.6606" cy="264.0001" fill="#F1F1F1" rx="62.9506" ry="14.9901" style="stroke:#181818;stroke-width:0.5;"/><text fill="#000000" font-family="sans-serif" font-size="14" lengthAdjust="spacing" textLength="87.958" x="220.6816" y="268.6486">View Grades</text></g><!--entity ManageCourseCatalog--><g class="entity" data-entity="ManageCourseCatalog" data-source-line="10" data-uid="ent0010" id="entity_ManageCourseCatalog"><ellipse cx="264.658" cy="707.9956" fill="#F1F1F1" rx="95.978" ry="21.5956" style="stroke:#181818;stroke-width:0.5;"/><text fill="#000000" font-family="sans-serif" font-size="14" lengthAdjust="spacing" textLength="167.1523" x="181.0818" y="712.644">Manage Course Catalog</text></g><!--entity GenerateTranscript--><g class="entity" data-entity="GenerateTranscript" data-source-line="11" data-uid="ent0011" id="entity_GenerateTranscript"><ellipse cx="264.6564" cy="195.0013" fill="#F1F1F1" rx="84.2564" ry="19.2513" style="stroke:#181818;stroke-width:0.5;"/><text fill="#000000" font-family="sans-serif" font-size="14" lengthAdjust="spacing" textLength="140.6084" x="194.3522" y="199.6497">Generate Transcript</text></g><!--entity UploadCourseMaterial--><g class="entity" data-entity="UploadCourseMaterial" data-source-line="12" data-uid="ent0012" id="entity_UploadCourseMaterial"><ellipse cx="264.6626" cy="412.9965" fill="#F1F1F1" rx="94.4326" ry="21.2865" style="stroke:#181818;stroke-width:0.5;"/><text fill="#000000" font-family="sans-serif" font-size="14" lengthAdjust="spacing" textLength="163.707" x="182.8091" y="417.645">Upload Course Material</text></g><!--entity ReviewCourseMaterial--><g class="entity" data-entity="ReviewCourseMaterial" data-source-line="13" data-uid="ent0013" id="entity_ReviewCourseMaterial"><ellipse cx="264.6556" cy="335.0031" fill="#F1F1F1" rx="95.1156" ry="21.4231" style="stroke:#181818;stroke-width:0.5;"/><text fill="#000000" font-family="sans-serif" font-size="14" lengthAdjust="spacing" textLength="165.2314" x="182.0399" y="339.6516">Review Course Material</text></g><!--entity ManageUserAccounts--><g class="entity" data-entity="ManageUserAccounts" data-source-line="14" data-uid="ent0014" id="entity_ManageUserAccounts"><ellipse cx="264.6643" cy="629.9989" fill="#F1F1F1" rx="92.9943" ry="20.9989" style="stroke:#181818;stroke-width:0.5;"/><text fill="#000000" font-family="sans-serif" font-size="14" lengthAdjust="spacing" textLength="160.4873" x="184.4206" y="634.6473">Manage User Accounts</text></g><!--entity MonitorAttendance--><g class="entity" data-entity="MonitorAttendance" data-source-line="15" data-uid="ent0015" id="entity_MonitorAttendance"><ellipse cx="264.6555" cy="554.9971" fill="#F1F1F1" rx="83.2855" ry="19.0571" style="stroke:#181818;stroke-width:0.5;"/><text fill="#000000" font-family="sans-serif" font-size="14" lengthAdjust="spacing" textLength="138.3594" x="195.4758" y="559.6455">Monitor Attendance</text></g><!--entity Student--><g class="entity" data-entity="Student" data-source-line="2" data-uid="ent0002" id="entity_Student"><ellipse cx="53.8457" cy="165.35" fill="#F1F1F1" rx="8" ry="8" style="stroke:#181818;stroke-width:0.5;"/><path d="M53.8457,173.35 L53.8457,200.35 M40.8457,181.35 L66.8457,181.35 M53.8457,200.35 L40.8457,215.35 M53.8457,200.35 L66.8457,215.35" fill="none" style="stroke:#181818;stroke-width:0.5;"/><text fill="#000000" font-family="sans-serif" font-size="14" lengthAdjust="spacing" textLength="55.1113" x="26.29" y="229.8451">Student</text></g><!--entity Teacher--><g class="entity" data-entity="Teacher" data-source-line="3" data-uid="ent0003" id="entity_Teacher"><ellipse cx="53.8418" cy="383.35" fill="#F1F1F1" rx="8" ry="8" style="stroke:#181818;stroke-width:0.5;"/><path d="M53.8418,391.35 L53.8418,418.35 M40.8418,399.35 L66.8418,399.35 M53.8418,418.35 L40.8418,433.35 M53.8418,418.35 L66.8418,433.35" fill="none" style="stroke:#181818;stroke-width:0.5;"/><text fill="#000000" font-family="sans-serif" font-size="14" lengthAdjust="spacing" textLength="56.6836" x="25.5" y="447.8451">Teacher</text></g><!--entity Administrator--><g class="entity" data-entity="Administrator" data-source-line="4" data-uid="ent0004" id="entity_Administrator"><ellipse cx="53.8413" cy="600.35" fill="#F1F1F1" rx="8" ry="8" style="stroke:#181818;stroke-width:0.5;"/><path d="M53.8413,608.35 L53.8413,635.35 M40.8413,616.35 L66.8413,616.35 M53.8413,635.35 L40.8413,650.35 M53.8413,635.35 L66.8413,650.35" fill="none" style="stroke:#181818;stroke-width:0.5;"/><text fill="#000000" font-family="sans-serif" font-size="14" lengthAdjust="spacing" textLength="95.6826" x="6" y="664.8451">Administrator</text></g><!--link Student to Enroll--><g class="link" data-entity-1="Student" data-entity-2="Enroll" data-source-line="17" data-uid="lnk16" id="link_Student_Enroll"><path d="M81.64,181.75 C97.65,174.15 118.54,164.81 137.68,158 C161.91,149.38 183.5939,143.1941 206.7139,137.3341" fill="none" id="Student-to-Enroll" style="stroke:#181818;stroke-width:1;"/><polygon fill="#181818" points="212.53,135.86,202.8231,134.1938,207.6833,137.0885,204.7886,141.9486,212.53,135.86" style="stroke:#181818;stroke-width:1;"/></g><!--link Student to Drop--><g class="link" data-entity-1="Student" data-entity-2="Drop" data-source-line="18" data-uid="lnk17" id="link_Student_Drop"><path d="M76.44,156.52 C90.97,133.97 112.13,106.72 137.68,90 C158.49,76.38 178.8005,69.5663 201.9005,64.8663" fill="none" id="Student-to-Drop" style="stroke:#181818;stroke-width:1;"/><polygon fill="#181818" points="207.78,63.67,198.1632,61.5447,202.8804,64.6669,199.7582,69.3841,207.78,63.67" style="stroke:#181818;stroke-width:1;"/></g><!--link Student to ViewGrades--><g class="link" data-entity-1="Student" data-entity-2="ViewGrades" data-source-line="19" data-uid="lnk18" id="link_Student_ViewGrades"><path d="M81.61,208.36 C97.6,215.99 118.49,225.33 137.68,232 C163.26,240.89 186.6962,247.1099 210.5862,252.6699" fill="none" id="Student-to-ViewGrades" style="stroke:#181818;stroke-width:1;"/><polygon fill="#181818" points="216.43,254.03,208.571,248.094,211.5601,252.8966,206.7576,255.8858,216.43,254.03" style="stroke:#181818;stroke-width:1;"/></g><!--link Student to GenerateTranscript--><g class="link" data-entity-1="Student" data-entity-2="GenerateTranscript" data-source-line="20" data-uid="lnk19" id="link_Student_GenerateTranscript"><path d="M81.71,195 C106.61,195 138.98,195 174.07,195" fill="none" id="Student-to-GenerateTranscript" style="stroke:#181818;stroke-width:1;"/><polygon fill="#181818" points="180.07,195,171.07,191,175.07,195,171.07,199,180.07,195" style="stroke:#181818;stroke-width:1;"/></g><!--link Student to ReviewCourseMaterial--><g class="link" data-entity-1="Student" data-entity-2="ReviewCourseMaterial" data-source-line="21" data-uid="lnk20" id="link_Student_ReviewCourseMaterial"><path d="M78.2,233.35 C92.88,254.55 113.59,279.8 137.68,296 C154.02,306.99 167.8658,313.224 186.6658,319.014" fill="none" id="Student-to-ReviewCourseMaterial" style="stroke:#181818;stroke-width:1;"/><polygon fill="#181818" points="192.4,320.78,184.976,314.3082,187.6215,319.3083,182.6213,321.9538,192.4,320.78" style="stroke:#181818;stroke-width:1;"/></g><!--link Teacher to AssignGrades--><g class="link" data-entity-1="Teacher" data-entity-2="AssignGrades" data-source-line="22" data-uid="lnk21" id="link_Teacher_AssignGrades"><path d="M82.67,427.67 C98.49,435.61 118.85,445.17 137.68,452 C162.23,460.91 184.4377,467.0812 207.8277,472.7312" fill="none" id="Teacher-to-AssignGrades" style="stroke:#181818;stroke-width:1;"/><polygon fill="#181818" points="213.66,474.14,205.8508,468.1386,208.7998,472.966,203.9724,475.9149,213.66,474.14" style="stroke:#181818;stroke-width:1;"/></g><!--link Teacher to UploadCourseMaterial--><g class="link" data-entity-1="Teacher" data-entity-2="UploadCourseMaterial" data-source-line="23" data-uid="lnk22" id="link_Teacher_UploadCourseMaterial"><path d="M82.57,413 C105.09,413 132.22,413 164.01,413" fill="none" id="Teacher-to-UploadCourseMaterial" style="stroke:#181818;stroke-width:1;"/><polygon fill="#181818" points="170.01,413,161.01,409,165.01,413,161.01,417,170.01,413" style="stroke:#181818;stroke-width:1;"/></g><!--link Teacher to ReviewCourseMaterial--><g class="link" data-entity-1="Teacher" data-entity-2="ReviewCourseMaterial" data-source-line="24" data-uid="lnk23" id="link_Teacher_ReviewCourseMaterial"><path d="M82.41,398.83 C98.33,390.96 118.86,381.3 137.68,374 C158.81,365.8 176.6959,359.8436 197.7359,353.4936" fill="none" id="Teacher-to-ReviewCourseMaterial" style="stroke:#181818;stroke-width:1;"/><polygon fill="#181818" points="203.48,351.76,193.7081,350.531,198.6933,353.2047,196.0196,358.1898,203.48,351.76" style="stroke:#181818;stroke-width:1;"/></g><!--link Administrator to ManageCourseCatalog--><g class="link" data-entity-1="Administrator" data-entity-2="ManageCourseCatalog" data-source-line="25" data-uid="lnk24" id="link_Administrator_ManageCourseCatalog"><path d="M102.16,652.92 C113.67,658.15 126.02,663.49 137.68,668 C159.19,676.31 177.4995,682.4819 198.7695,689.0819" fill="none" id="Administrator-to-ManageCourseCatalog" style="stroke:#181818;stroke-width:1;"/><polygon fill="#181818" points="204.5,690.86,197.0897,684.3725,199.7246,689.3782,194.7189,692.0131,204.5,690.86" style="stroke:#181818;stroke-width:1;"/></g><!--link Administrator to ManageUserAccounts--><g class="link" data-entity-1="Administrator" data-entity-2="ManageUserAccounts" data-source-line="26" data-uid="lnk25" id="link_Administrator_ManageUserAccounts"><path d="M101.96,630 C122.53,630 141.4,630 165.4,630" fill="none" id="Administrator-to-ManageUserAccounts" style="stroke:#181818;stroke-width:1;"/><polygon fill="#181818" points="171.4,630,162.4,626,166.4,630,162.4,634,171.4,630" style="stroke:#181818;stroke-width:1;"/></g><!--link Administrator to MonitorAttendance--><g class="link" data-entity-1="Administrator" data-entity-2="MonitorAttendance" data-source-line="27" data-uid="lnk26" id="link_Administrator_MonitorAttendance"><path d="M102.09,606.9 C113.6,601.67 125.97,596.38 137.68,592 C160.42,583.5 180.2644,577.2856 202.4344,571.0456" fill="none" id="Administrator-to-MonitorAttendance" style="stroke:#181818;stroke-width:1;"/><polygon fill="#181818" points="208.21,569.42,198.4629,568.008,203.397,570.7747,200.6304,575.7088,208.21,569.42" style="stroke:#181818;stroke-width:1;"/></g><!--SRC=[VLDBQyCm3BxdLuZU-nS6eHizzRAskmj7ImskN6nbOupzzpb-KBjuoyd-7fBrYA5t0R7Wz7mHcBGZ9ThoW4giWyrHbebODe0UyhbG9q9r8HUfV2xKE5qrQoyEmpKA6cHOao3FXa82TR7Mm04PPxg6y73yyaBN3NmF4Bx5aq8VX2_ih36W6NPsSPvYs0IsmcTdRxLclRUAqNizC-mTJkJJyoAIW5RxfkcpLgxtdYuLaFF23WMDdQCZCOd8U6lT4rFe2y798Nlbz2trk-1tkFMTRyRYL58UWj9fDD6QgCGKeZM_qiTQMS-SgF_CkTYp9mUZKdPXyLMjArxW1wDblMx8A48y8QiqeWpVqU5doDi6s-rJ6NCDnQdMG3MO6kuqiQQxjUPjZe9cCsgYs-9Qq0tT_0THrbkFlrHDOpkYnpR-0W00]--></g></svg>