<svg xmlns="http://www.w3.org/2000/svg" xmlns:xlink="http://www.w3.org/1999/xlink" contentStyleType="text/css" data-diagram-type="CLASS" height="844px" preserveAspectRatio="none" style="width:758px;height:844px;background:#FFFFFF;" version="1.1" viewBox="0 0 758 844" width="758px" zoomAndPan="magnify"><defs/><g><!--class School--><g class="entity" data-entity="School" data-source-line="1" data-uid="ent0002" id="entity_School"><rect fill="#F1F1F1" height="129.4844" rx="2.5" ry="2.5" style="stroke:#181818;stroke-width:0.5;" width="347.1045" x="7" y="7"/><ellipse cx="153.0635" cy="23" fill="#ADD1B2" rx="11" ry="11" style="stroke:#181818;stroke-width:1;"/><path d="M156.0322,28.6406 Q155.4541,28.9375 154.8135,29.0781 Q154.1729,29.2344 153.4697,29.2344 Q150.9697,29.2344 149.6416,27.5938 Q148.3291,25.9375 148.3291,22.8125 Q148.3291,19.6875 149.6416,18.0313 Q150.9697,16.375 153.4697,16.375 Q154.1729,16.375 154.8135,16.5313 Q155.4697,16.6875 156.0322,16.9844 L156.0322,19.7031 Q155.4072,19.125 154.8135,18.8594 Q154.2197,18.5781 153.5947,18.5781 Q152.251,18.5781 151.5635,19.6563 Q150.876,20.7188 150.876,22.8125 Q150.876,24.9063 151.5635,25.9844 Q152.251,27.0469 153.5947,27.0469 Q154.2197,27.0469 154.8135,26.7813 Q155.4072,26.5 156.0322,25.9219 L156.0322,28.6406 Z " fill="#000000"/><text fill="#000000" font-family="sans-serif" font-size="14" lengthAdjust="spacing" textLength="46.4775" x="173.5635" y="27.8467">School</text><line style="stroke:#181818;stroke-width:0.5;" x1="8" x2="353.1045" y1="39" y2="39"/><rect fill="none" height="6" style="stroke:#C82930;stroke-width:1;" width="6" x="15" y="49.6484"/><text fill="#000000" font-family="sans-serif" font-size="14" lengthAdjust="spacing" textLength="85.9346" x="27" y="55.9951">String name</text><rect fill="none" height="6" style="stroke:#C82930;stroke-width:1;" width="6" x="15" y="65.9453"/><text fill="#000000" font-family="sans-serif" font-size="14" lengthAdjust="spacing" textLength="101.541" x="27" y="72.292">String address</text><rect fill="none" height="6" style="stroke:#C82930;stroke-width:1;" width="6" x="15" y="82.2422"/><text fill="#000000" font-family="sans-serif" font-size="14" lengthAdjust="spacing" textLength="227.2197" x="27" y="88.5889">List&lt;Department&gt; departments</text><line style="stroke:#181818;stroke-width:0.5;" x1="8" x2="353.1045" y1="95.8906" y2="95.8906"/><ellipse cx="18" cy="109.5391" fill="#84BE84" rx="3" ry="3" style="stroke:#038048;stroke-width:1;"/><text fill="#000000" font-family="sans-serif" font-size="14" lengthAdjust="spacing" textLength="293.9863" x="27" y="112.8857">addDepartment(Department department)</text><ellipse cx="18" cy="125.8359" fill="#84BE84" rx="3" ry="3" style="stroke:#038048;stroke-width:1;"/><text fill="#000000" font-family="sans-serif" font-size="14" lengthAdjust="spacing" textLength="321.1045" x="27" y="129.1826">removeDepartment(Department department)</text></g><!--class Department--><g class="entity" data-entity="Department" data-source-line="9" data-uid="ent0003" id="entity_Department"><rect fill="#F1F1F1" height="145.7813" rx="2.5" ry="2.5" style="stroke:#181818;stroke-width:0.5;" width="234.7148" x="63.19" y="213.48"/><ellipse cx="133.9385" cy="229.48" fill="#ADD1B2" rx="11" ry="11" style="stroke:#181818;stroke-width:1;"/><path d="M136.9073,235.1206 Q136.3292,235.4175 135.6885,235.5581 Q135.0479,235.7144 134.3448,235.7144 Q131.8448,235.7144 130.5167,234.0737 Q129.2042,232.4175 129.2042,229.2925 Q129.2042,226.1675 130.5167,224.5112 Q131.8448,222.855 134.3448,222.855 Q135.0479,222.855 135.6885,223.0112 Q136.3448,223.1675 136.9073,223.4644 L136.9073,226.1831 Q136.2823,225.605 135.6885,225.3394 Q135.0948,225.0581 134.4698,225.0581 Q133.126,225.0581 132.4385,226.1362 Q131.751,227.1987 131.751,229.2925 Q131.751,231.3862 132.4385,232.4644 Q133.126,233.5269 134.4698,233.5269 Q135.0948,233.5269 135.6885,233.2612 Q136.2823,232.98 136.9073,232.4019 L136.9073,235.1206 Z " fill="#000000"/><text fill="#000000" font-family="sans-serif" font-size="14" lengthAdjust="spacing" textLength="84.7178" x="154.4385" y="234.3267">Department</text><line style="stroke:#181818;stroke-width:0.5;" x1="64.19" x2="296.9048" y1="245.48" y2="245.48"/><rect fill="none" height="6" style="stroke:#C82930;stroke-width:1;" width="6" x="71.19" y="256.1284"/><text fill="#000000" font-family="sans-serif" font-size="14" lengthAdjust="spacing" textLength="85.9346" x="83.19" y="262.4751">String name</text><rect fill="none" height="6" style="stroke:#C82930;stroke-width:1;" width="6" x="71.19" y="272.4253"/><text fill="#000000" font-family="sans-serif" font-size="14" lengthAdjust="spacing" textLength="81.1836" x="83.19" y="278.772">String head</text><rect fill="none" height="6" style="stroke:#C82930;stroke-width:1;" width="6" x="71.19" y="288.7222"/><text fill="#000000" font-family="sans-serif" font-size="14" lengthAdjust="spacing" textLength="169.9824" x="83.19" y="295.0689">List&lt;Teacher&gt; teachers</text><rect fill="none" height="6" style="stroke:#C82930;stroke-width:1;" width="6" x="71.19" y="305.0191"/><text fill="#000000" font-family="sans-serif" font-size="14" lengthAdjust="spacing" textLength="155.3535" x="83.19" y="311.3657">List&lt;Course&gt; courses</text><line style="stroke:#181818;stroke-width:0.5;" x1="64.19" x2="296.9048" y1="318.6675" y2="318.6675"/><ellipse cx="74.19" cy="332.3159" fill="#84BE84" rx="3" ry="3" style="stroke:#038048;stroke-width:1;"/><text fill="#000000" font-family="sans-serif" font-size="14" lengthAdjust="spacing" textLength="208.7148" x="83.19" y="335.6626">addTeacher(Teacher teacher)</text><ellipse cx="74.19" cy="348.6128" fill="#84BE84" rx="3" ry="3" style="stroke:#038048;stroke-width:1;"/><text fill="#000000" font-family="sans-serif" font-size="14" lengthAdjust="spacing" textLength="186.2793" x="83.19" y="351.9595">addCourse(Course course)</text></g><!--class Student--><g class="entity" data-entity="Student" data-source-line="18" data-uid="ent0004" id="entity_Student"><rect fill="#F1F1F1" height="162.0781" rx="2.5" ry="2.5" style="stroke:#181818;stroke-width:0.5;" width="238.6729" x="513.22" y="436.26"/><ellipse cx="600.7508" cy="452.26" fill="#ADD1B2" rx="11" ry="11" style="stroke:#181818;stroke-width:1;"/><path d="M603.7195,457.9006 Q603.1414,458.1975 602.5008,458.3381 Q601.8601,458.4944 601.157,458.4944 Q598.657,458.4944 597.3289,456.8537 Q596.0164,455.1975 596.0164,452.0725 Q596.0164,448.9475 597.3289,447.2912 Q598.657,445.635 601.157,445.635 Q601.8601,445.635 602.5008,445.7912 Q603.157,445.9475 603.7195,446.2444 L603.7195,448.9631 Q603.0945,448.385 602.5008,448.1194 Q601.907,447.8381 601.282,447.8381 Q599.9383,447.8381 599.2508,448.9162 Q598.5633,449.9787 598.5633,452.0725 Q598.5633,454.1662 599.2508,455.2444 Q599.9383,456.3069 601.282,456.3069 Q601.907,456.3069 602.5008,456.0412 Q603.0945,455.76 603.7195,455.1819 L603.7195,457.9006 Z " fill="#000000"/><text fill="#000000" font-family="sans-serif" font-size="14" lengthAdjust="spacing" textLength="55.1113" x="621.2508" y="457.1067">Student</text><line style="stroke:#181818;stroke-width:0.5;" x1="514.22" x2="750.8929" y1="468.26" y2="468.26"/><rect fill="none" height="6" style="stroke:#C82930;stroke-width:1;" width="6" x="521.22" y="478.9084"/><text fill="#000000" font-family="sans-serif" font-size="14" lengthAdjust="spacing" textLength="114.6592" x="533.22" y="485.2551">String studentID</text><rect fill="none" height="6" style="stroke:#C82930;stroke-width:1;" width="6" x="521.22" y="495.2053"/><text fill="#000000" font-family="sans-serif" font-size="14" lengthAdjust="spacing" textLength="85.9346" x="533.22" y="501.552">String name</text><rect fill="none" height="6" style="stroke:#C82930;stroke-width:1;" width="6" x="521.22" y="511.5022"/><text fill="#000000" font-family="sans-serif" font-size="14" lengthAdjust="spacing" textLength="48.7813" x="533.22" y="517.8489">int age</text><rect fill="none" height="6" style="stroke:#C82930;stroke-width:1;" width="6" x="521.22" y="527.7991"/><text fill="#000000" font-family="sans-serif" font-size="14" lengthAdjust="spacing" textLength="101.541" x="533.22" y="534.1457">String address</text><rect fill="none" height="6" style="stroke:#C82930;stroke-width:1;" width="6" x="521.22" y="544.0959"/><text fill="#000000" font-family="sans-serif" font-size="14" lengthAdjust="spacing" textLength="212.6729" x="533.22" y="550.4426">List&lt;Course&gt; coursesEnrolled</text><line style="stroke:#181818;stroke-width:0.5;" x1="514.22" x2="750.8929" y1="557.7444" y2="557.7444"/><ellipse cx="524.22" cy="571.3928" fill="#84BE84" rx="3" ry="3" style="stroke:#038048;stroke-width:1;"/><text fill="#000000" font-family="sans-serif" font-size="14" lengthAdjust="spacing" textLength="212.5156" x="533.22" y="574.7395">enrollInCourse(Course course)</text><ellipse cx="524.22" cy="587.6897" fill="#84BE84" rx="3" ry="3" style="stroke:#038048;stroke-width:1;"/><text fill="#000000" font-family="sans-serif" font-size="14" lengthAdjust="spacing" textLength="192.0215" x="533.22" y="591.0364">dropCourse(Course course)</text></g><!--class Teacher--><g class="entity" data-entity="Teacher" data-source-line="28" data-uid="ent0005" id="entity_Teacher"><rect fill="#F1F1F1" height="162.0781" rx="2.5" ry="2.5" style="stroke:#181818;stroke-width:0.5;" width="275.4092" x="202.85" y="436.26"/><ellipse cx="307.9628" cy="452.26" fill="#ADD1B2" rx="11" ry="11" style="stroke:#181818;stroke-width:1;"/><path d="M310.9315,457.9006 Q310.3534,458.1975 309.7128,458.3381 Q309.0722,458.4944 308.369,458.4944 Q305.869,458.4944 304.5409,456.8537 Q303.2284,455.1975 303.2284,452.0725 Q303.2284,448.9475 304.5409,447.2912 Q305.869,445.635 308.369,445.635 Q309.0722,445.635 309.7128,445.7912 Q310.369,445.9475 310.9315,446.2444 L310.9315,448.9631 Q310.3065,448.385 309.7128,448.1194 Q309.119,447.8381 308.494,447.8381 Q307.1503,447.8381 306.4628,448.9162 Q305.7753,449.9787 305.7753,452.0725 Q305.7753,454.1662 306.4628,455.2444 Q307.1503,456.3069 308.494,456.3069 Q309.119,456.3069 309.7128,456.0412 Q310.3065,455.76 310.9315,455.1819 L310.9315,457.9006 Z " fill="#000000"/><text fill="#000000" font-family="sans-serif" font-size="14" lengthAdjust="spacing" textLength="56.6836" x="328.4628" y="457.1067">Teacher</text><line style="stroke:#181818;stroke-width:0.5;" x1="203.85" x2="477.2592" y1="468.26" y2="468.26"/><rect fill="none" height="6" style="stroke:#C82930;stroke-width:1;" width="6" x="210.85" y="478.9084"/><text fill="#000000" font-family="sans-serif" font-size="14" lengthAdjust="spacing" textLength="114.7617" x="222.85" y="485.2551">String teacherID</text><rect fill="none" height="6" style="stroke:#C82930;stroke-width:1;" width="6" x="210.85" y="495.2053"/><text fill="#000000" font-family="sans-serif" font-size="14" lengthAdjust="spacing" textLength="85.9346" x="222.85" y="501.552">String name</text><rect fill="none" height="6" style="stroke:#C82930;stroke-width:1;" width="6" x="210.85" y="511.5022"/><text fill="#000000" font-family="sans-serif" font-size="14" lengthAdjust="spacing" textLength="48.7813" x="222.85" y="517.8489">int age</text><rect fill="none" height="6" style="stroke:#C82930;stroke-width:1;" width="6" x="210.85" y="527.7991"/><text fill="#000000" font-family="sans-serif" font-size="14" lengthAdjust="spacing" textLength="101.541" x="222.85" y="534.1457">String address</text><rect fill="none" height="6" style="stroke:#C82930;stroke-width:1;" width="6" x="210.85" y="544.0959"/><text fill="#000000" font-family="sans-serif" font-size="14" lengthAdjust="spacing" textLength="204.6064" x="222.85" y="550.4426">List&lt;Course&gt; coursesTaught</text><line style="stroke:#181818;stroke-width:0.5;" x1="203.85" x2="477.2592" y1="557.7444" y2="557.7444"/><ellipse cx="213.85" cy="571.3928" fill="#84BE84" rx="3" ry="3" style="stroke:#038048;stroke-width:1;"/><text fill="#000000" font-family="sans-serif" font-size="14" lengthAdjust="spacing" textLength="221.8604" x="222.85" y="574.7395">assignToCourse(Course course)</text><ellipse cx="213.85" cy="587.6897" fill="#84BE84" rx="3" ry="3" style="stroke:#038048;stroke-width:1;"/><text fill="#000000" font-family="sans-serif" font-size="14" lengthAdjust="spacing" textLength="249.4092" x="222.85" y="591.0364">removeFromCourse(Course course)</text></g><!--class Course--><g class="entity" data-entity="Course" data-source-line="38" data-uid="ent0006" id="entity_Course"><rect fill="#F1F1F1" height="162.0781" rx="2.5" ry="2.5" style="stroke:#181818;stroke-width:0.5;" width="258.5859" x="211.26" y="675.34"/><ellipse cx="311.8645" cy="691.34" fill="#ADD1B2" rx="11" ry="11" style="stroke:#181818;stroke-width:1;"/><path d="M314.8332,696.9806 Q314.2551,697.2775 313.6145,697.4181 Q312.9739,697.5744 312.2707,697.5744 Q309.7707,697.5744 308.4426,695.9337 Q307.1301,694.2775 307.1301,691.1525 Q307.1301,688.0275 308.4426,686.3712 Q309.7707,684.715 312.2707,684.715 Q312.9739,684.715 313.6145,684.8712 Q314.2707,685.0275 314.8332,685.3244 L314.8332,688.0431 Q314.2082,687.465 313.6145,687.1994 Q313.0207,686.9181 312.3957,686.9181 Q311.052,686.9181 310.3645,687.9962 Q309.677,689.0587 309.677,691.1525 Q309.677,693.2462 310.3645,694.3244 Q311.052,695.3869 312.3957,695.3869 Q313.0207,695.3869 313.6145,695.1212 Q314.2082,694.84 314.8332,694.2619 L314.8332,696.9806 Z " fill="#000000"/><text fill="#000000" font-family="sans-serif" font-size="14" lengthAdjust="spacing" textLength="48.877" x="332.3645" y="696.1867">Course</text><line style="stroke:#181818;stroke-width:0.5;" x1="212.26" x2="468.8459" y1="707.34" y2="707.34"/><rect fill="none" height="6" style="stroke:#C82930;stroke-width:1;" width="6" x="219.26" y="717.9884"/><text fill="#000000" font-family="sans-serif" font-size="14" lengthAdjust="spacing" textLength="107.9395" x="231.26" y="724.3351">String courseID</text><rect fill="none" height="6" style="stroke:#C82930;stroke-width:1;" width="6" x="219.26" y="734.2853"/><text fill="#000000" font-family="sans-serif" font-size="14" lengthAdjust="spacing" textLength="85.9346" x="231.26" y="740.632">String name</text><rect fill="none" height="6" style="stroke:#C82930;stroke-width:1;" width="6" x="219.26" y="750.5822"/><text fill="#000000" font-family="sans-serif" font-size="14" lengthAdjust="spacing" textLength="124.0723" x="231.26" y="756.9289">String description</text><rect fill="none" height="6" style="stroke:#C82930;stroke-width:1;" width="6" x="219.26" y="766.8791"/><text fill="#000000" font-family="sans-serif" font-size="14" lengthAdjust="spacing" textLength="128.8164" x="231.26" y="773.2257">Teacher instructor</text><rect fill="none" height="6" style="stroke:#C82930;stroke-width:1;" width="6" x="219.26" y="783.1759"/><text fill="#000000" font-family="sans-serif" font-size="14" lengthAdjust="spacing" textLength="226.9873" x="231.26" y="789.5226">List&lt;Student&gt; enrolledStudents</text><line style="stroke:#181818;stroke-width:0.5;" x1="212.26" x2="468.8459" y1="796.8244" y2="796.8244"/><ellipse cx="222.26" cy="810.4728" fill="#84BE84" rx="3" ry="3" style="stroke:#038048;stroke-width:1;"/><text fill="#000000" font-family="sans-serif" font-size="14" lengthAdjust="spacing" textLength="218.7021" x="231.26" y="813.8195">enrollStudent(Student student)</text><ellipse cx="222.26" cy="826.7697" fill="#84BE84" rx="3" ry="3" style="stroke:#038048;stroke-width:1;"/><text fill="#000000" font-family="sans-serif" font-size="14" lengthAdjust="spacing" textLength="232.5859" x="231.26" y="830.1164">removeStudent(Student student)</text></g><!--class Class--><g class="entity" data-entity="Class" data-source-line="48" data-uid="ent0007" id="entity_Class"><rect fill="#F1F1F1" height="145.7813" rx="2.5" ry="2.5" style="stroke:#181818;stroke-width:0.5;" width="258.5859" x="359.26" y="213.48"/><ellipse cx="465.887" cy="229.48" fill="#ADD1B2" rx="11" ry="11" style="stroke:#181818;stroke-width:1;"/><path d="M468.8557,235.1206 Q468.2776,235.4175 467.637,235.5581 Q466.9963,235.7144 466.2932,235.7144 Q463.7932,235.7144 462.4651,234.0737 Q461.1526,232.4175 461.1526,229.2925 Q461.1526,226.1675 462.4651,224.5112 Q463.7932,222.855 466.2932,222.855 Q466.9963,222.855 467.637,223.0112 Q468.2932,223.1675 468.8557,223.4644 L468.8557,226.1831 Q468.2307,225.605 467.637,225.3394 Q467.0432,225.0581 466.4182,225.0581 Q465.0745,225.0581 464.387,226.1362 Q463.6995,227.1987 463.6995,229.2925 Q463.6995,231.3862 464.387,232.4644 Q465.0745,233.5269 466.4182,233.5269 Q467.0432,233.5269 467.637,233.2612 Q468.2307,232.98 468.8557,232.4019 L468.8557,235.1206 Z " fill="#000000"/><text fill="#000000" font-family="sans-serif" font-size="14" lengthAdjust="spacing" textLength="36.832" x="486.387" y="234.3267">Class</text><line style="stroke:#181818;stroke-width:0.5;" x1="360.26" x2="616.8459" y1="245.48" y2="245.48"/><rect fill="none" height="6" style="stroke:#C82930;stroke-width:1;" width="6" x="367.26" y="256.1284"/><text fill="#000000" font-family="sans-serif" font-size="14" lengthAdjust="spacing" textLength="95.8945" x="379.26" y="262.4751">String classID</text><rect fill="none" height="6" style="stroke:#C82930;stroke-width:1;" width="6" x="367.26" y="272.4253"/><text fill="#000000" font-family="sans-serif" font-size="14" lengthAdjust="spacing" textLength="135.2285" x="379.26" y="278.772">String gradeOrYear</text><rect fill="none" height="6" style="stroke:#C82930;stroke-width:1;" width="6" x="367.26" y="288.7222"/><text fill="#000000" font-family="sans-serif" font-size="14" lengthAdjust="spacing" textLength="152.5713" x="379.26" y="295.0689">Teacher classTeacher</text><rect fill="none" height="6" style="stroke:#C82930;stroke-width:1;" width="6" x="367.26" y="305.0191"/><text fill="#000000" font-family="sans-serif" font-size="14" lengthAdjust="spacing" textLength="168.3076" x="379.26" y="311.3657">List&lt;Student&gt; students</text><line style="stroke:#181818;stroke-width:0.5;" x1="360.26" x2="616.8459" y1="318.6675" y2="318.6675"/><ellipse cx="370.26" cy="332.3159" fill="#84BE84" rx="3" ry="3" style="stroke:#038048;stroke-width:1;"/><text fill="#000000" font-family="sans-serif" font-size="14" lengthAdjust="spacing" textLength="205.4678" x="379.26" y="335.6626">addStudent(Student student)</text><ellipse cx="370.26" cy="348.6128" fill="#84BE84" rx="3" ry="3" style="stroke:#038048;stroke-width:1;"/><text fill="#000000" font-family="sans-serif" font-size="14" lengthAdjust="spacing" textLength="232.5859" x="379.26" y="351.9595">removeStudent(Student student)</text></g><!--reverse link School to Department--><g class="link" data-entity-1="School" data-entity-2="Department" data-source-line="57" data-uid="lnk8" id="link_School_Department"><path codeLine="57" d="M180.55,148.83 C180.55,172.91 180.55,188.46 180.55,213.23" fill="none" id="School-backto-Department" style="stroke:#181818;stroke-width:1;"/><polygon fill="#181818" points="180.55,136.83,176.55,142.83,180.55,148.83,184.55,142.83,180.55,136.83" style="stroke:#181818;stroke-width:1;"/><text fill="#000000" font-family="sans-serif" font-size="13" lengthAdjust="spacing" textLength="55.0278" x="181.55" y="179.5469">contains</text><text fill="#000000" font-family="sans-serif" font-size="13" lengthAdjust="spacing" textLength="8.271" x="172.1512" y="156.3894">1</text><text fill="#000000" font-family="sans-serif" font-size="13" lengthAdjust="spacing" textLength="6.5" x="174.2796" y="202.3654">*</text></g><!--link Department to Teacher--><g class="link" data-entity-1="Department" data-entity-2="Teacher" data-source-line="58" data-uid="lnk9" id="link_Department_Teacher"><path codeLine="58" d="M230.96,359.49 C247.9,383.74 266.91,410.94 284.28,435.79" fill="none" id="Department-Teacher" style="stroke:#181818;stroke-width:1;"/><text fill="#000000" font-family="sans-serif" font-size="13" lengthAdjust="spacing" textLength="54.9453" x="261.55" y="402.3269">employs</text><text fill="#000000" font-family="sans-serif" font-size="13" lengthAdjust="spacing" textLength="8.271" x="227.3966" y="379.2473">1</text><text fill="#000000" font-family="sans-serif" font-size="13" lengthAdjust="spacing" textLength="6.5" x="273.2076" y="425.2134">*</text></g><!--link Department to Course--><g class="link" data-entity-1="Department" data-entity-2="Course" data-source-line="59" data-uid="lnk10" id="link_Department_Course"><path codeLine="59" d="M151.72,359.55 C130.29,425.03 110.42,522.61 146.55,598.34 C161.2,629.04 185.11,655.68 211.21,677.86" fill="none" id="Department-Course" style="stroke:#181818;stroke-width:1;"/><text fill="#000000" font-family="sans-serif" font-size="13" lengthAdjust="spacing" textLength="37.2227" x="147.55" y="521.8669">offers</text><text fill="#000000" font-family="sans-serif" font-size="13" lengthAdjust="spacing" textLength="8.271" x="140.6041" y="379.313">1</text><text fill="#000000" font-family="sans-serif" font-size="13" lengthAdjust="spacing" textLength="6.5" x="196.7478" y="669.4206">*</text></g><!--link Student to Course--><g class="link" data-entity-1="Student" data-entity-2="Course" data-source-line="60" data-uid="lnk11" id="link_Student_Course"><path codeLine="60" d="M533.69,598.57 C503.25,623.28 469.74,650.49 439.31,675.2" fill="none" id="Student-Course" style="stroke:#181818;stroke-width:1;"/><text fill="#000000" font-family="sans-serif" font-size="13" lengthAdjust="spacing" textLength="68.9927" x="495.55" y="641.4069">enrolled in</text><text fill="#000000" font-family="sans-serif" font-size="13" lengthAdjust="spacing" textLength="8.271" x="516.8616" y="618.2714">1</text><text fill="#000000" font-family="sans-serif" font-size="13" lengthAdjust="spacing" textLength="6.5" x="441.8606" y="664.3748">*</text></g><!--link Teacher to Course--><g class="link" data-entity-1="Teacher" data-entity-2="Course" data-source-line="61" data-uid="lnk12" id="link_Teacher_Course"><path codeLine="61" d="M340.55,598.57 C340.55,623.28 340.55,650.49 340.55,675.2" fill="none" id="Teacher-Course" style="stroke:#181818;stroke-width:1;"/><text fill="#000000" font-family="sans-serif" font-size="13" lengthAdjust="spacing" textLength="51.2192" x="341.55" y="641.4069">teaches</text><text fill="#000000" font-family="sans-serif" font-size="13" lengthAdjust="spacing" textLength="8.271" x="332.2175" y="618.2714">1</text><text fill="#000000" font-family="sans-serif" font-size="13" lengthAdjust="spacing" textLength="6.5" x="334.3048" y="664.3748">*</text></g><!--link Class to Student--><g class="link" data-entity-1="Class" data-entity-2="Student" data-source-line="62" data-uid="lnk13" id="link_Class_Student"><path codeLine="62" d="M533.92,359.49 C549.17,383.74 566.28,410.94 581.91,435.79" fill="none" id="Class-Student" style="stroke:#181818;stroke-width:1;"/><text fill="#000000" font-family="sans-serif" font-size="13" lengthAdjust="spacing" textLength="22.9785" x="561.55" y="402.3269">has</text><text fill="#000000" font-family="sans-serif" font-size="13" lengthAdjust="spacing" textLength="8.271" x="529.8757" y="379.2473">1</text><text fill="#000000" font-family="sans-serif" font-size="13" lengthAdjust="spacing" textLength="6.5" x="571.3212" y="425.2134">*</text></g><!--link Class to Teacher--><g class="link" data-entity-1="Class" data-entity-2="Teacher" data-source-line="63" data-uid="lnk14" id="link_Class_Teacher"><path codeLine="63" d="M433.86,359.58 C426.85,369.43 419.91,379.51 413.55,389.26 C403.89,404.07 394.1,420.2 384.95,435.84" fill="none" id="Class-Teacher" style="stroke:#181818;stroke-width:1;"/><text fill="#000000" font-family="sans-serif" font-size="13" lengthAdjust="spacing" textLength="132.1772" x="414.55" y="402.3269">has as class teacher</text><text fill="#000000" font-family="sans-serif" font-size="13" lengthAdjust="spacing" textLength="8.271" x="420.2787" y="379.3458">1</text><text fill="#000000" font-family="sans-serif" font-size="13" lengthAdjust="spacing" textLength="8.271" x="380.4331" y="425.2677">1</text></g><!--SRC=[hPInReCm48Ptdi9Y8gaOigAAfMcbI9Kw94j72ry02MnqDfMggkzUWy_581A6bW6Ryt_M_ztP50tNcfsBIgc6VKNCFYax6wnboIHlOHxXGY1eJS7NMfl78tGSJGlIv4pypftaOKYO1Caq3QGxaYAqwWEsrTzHL8ocW_LDunLm4Rg-02ygm9mPDvaXFQaUDUIi6CS0XR8I6dtoRbAurCGDj45W-MnwiU9Nk_3fU1EZjacytEx6mlgpHDKq8CWWZ9ydkUxIQGIgReF2uoyeg1h_Jt7XVLaPNsIjwr9Ur3q6TvHUKBKR91HVW3ZP7GwA2D05rfsfbQG5NvbQQeDzOHI6MDJzdFe0WW9wrXuA9lwiqE6OizqKJMZZUqas19TW9N81R_WE71SOevm-La7q7C2syi_kwLSK7sAsJrCMx-FmecUsET9mMzyeY0vYqdhh6OEsQzJdBHrrFcFgUXsklxUo9l7jicsD_FvhEdS1TEHA7oZyvXch-7Bv47gExRezuQxm_aB5Fm00]--></g></svg>