<svg xmlns="http://www.w3.org/2000/svg" xmlns:xlink="http://www.w3.org/1999/xlink" contentStyleType="text/css" data-diagram-type="CLASS" height="649px" preserveAspectRatio="none" style="width:566px;height:649px;background:#FFFFFF;" version="1.1" viewBox="0 0 566 649" width="566px" zoomAndPan="magnify"><defs/><g><!--class School--><g class="entity" data-entity="School" data-source-line="1" data-uid="ent0002" id="entity_School"><rect fill="#F1F1F1" height="96.8906" rx="2.5" ry="2.5" style="stroke:#181818;stroke-width:0.5;" width="319.9863" x="7" y="7"/><ellipse cx="139.5044" cy="23" fill="#ADD1B2" rx="11" ry="11" style="stroke:#181818;stroke-width:1;"/><path d="M142.4731,28.6406 Q141.895,28.9375 141.2544,29.0781 Q140.6138,29.2344 139.9106,29.2344 Q137.4106,29.2344 136.0825,27.5938 Q134.77,25.9375 134.77,22.8125 Q134.77,19.6875 136.0825,18.0313 Q137.4106,16.375 139.9106,16.375 Q140.6138,16.375 141.2544,16.5313 Q141.9106,16.6875 142.4731,16.9844 L142.4731,19.7031 Q141.8481,19.125 141.2544,18.8594 Q140.6606,18.5781 140.0356,18.5781 Q138.6919,18.5781 138.0044,19.6563 Q137.3169,20.7188 137.3169,22.8125 Q137.3169,24.9063 138.0044,25.9844 Q138.6919,27.0469 140.0356,27.0469 Q140.6606,27.0469 141.2544,26.7813 Q141.8481,26.5 142.4731,25.9219 L142.4731,28.6406 Z " fill="#000000"/><text fill="#000000" font-family="sans-serif" font-size="14" lengthAdjust="spacing" textLength="46.4775" x="160.0044" y="27.8467">School</text><line style="stroke:#181818;stroke-width:0.5;" x1="8" x2="325.9863" y1="39" y2="39"/><ellipse cx="18" cy="52.6484" fill="none" rx="3" ry="3" style="stroke:#038048;stroke-width:1;"/><text fill="#000000" font-family="sans-serif" font-size="14" lengthAdjust="spacing" textLength="85.9346" x="27" y="55.9951">String name</text><ellipse cx="18" cy="68.9453" fill="none" rx="3" ry="3" style="stroke:#038048;stroke-width:1;"/><text fill="#000000" font-family="sans-serif" font-size="14" lengthAdjust="spacing" textLength="101.541" x="27" y="72.292">String address</text><line style="stroke:#181818;stroke-width:0.5;" x1="8" x2="325.9863" y1="79.5938" y2="79.5938"/><ellipse cx="18" cy="93.2422" fill="#84BE84" rx="3" ry="3" style="stroke:#038048;stroke-width:1;"/><text fill="#000000" font-family="sans-serif" font-size="14" lengthAdjust="spacing" textLength="293.9863" x="27" y="96.5889">addDepartment(Department department)</text></g><!--class Department--><g class="entity" data-entity="Department" data-source-line="7" data-uid="ent0003" id="entity_Department"><rect fill="#F1F1F1" height="113.1875" rx="2.5" ry="2.5" style="stroke:#181818;stroke-width:0.5;" width="234.7148" x="49.64" y="164.89"/><ellipse cx="120.3885" cy="180.89" fill="#ADD1B2" rx="11" ry="11" style="stroke:#181818;stroke-width:1;"/><path d="M123.3573,186.5306 Q122.7792,186.8275 122.1385,186.9681 Q121.4979,187.1244 120.7948,187.1244 Q118.2948,187.1244 116.9667,185.4838 Q115.6542,183.8275 115.6542,180.7025 Q115.6542,177.5775 116.9667,175.9213 Q118.2948,174.265 120.7948,174.265 Q121.4979,174.265 122.1385,174.4213 Q122.7948,174.5775 123.3573,174.8744 L123.3573,177.5931 Q122.7323,177.015 122.1385,176.7494 Q121.5448,176.4681 120.9198,176.4681 Q119.576,176.4681 118.8885,177.5463 Q118.201,178.6088 118.201,180.7025 Q118.201,182.7963 118.8885,183.8744 Q119.576,184.9369 120.9198,184.9369 Q121.5448,184.9369 122.1385,184.6713 Q122.7323,184.39 123.3573,183.8119 L123.3573,186.5306 Z " fill="#000000"/><text fill="#000000" font-family="sans-serif" font-size="14" lengthAdjust="spacing" textLength="84.7178" x="140.8885" y="185.7367">Department</text><line style="stroke:#181818;stroke-width:0.5;" x1="50.64" x2="283.3548" y1="196.89" y2="196.89"/><ellipse cx="60.64" cy="210.5384" fill="none" rx="3" ry="3" style="stroke:#038048;stroke-width:1;"/><text fill="#000000" font-family="sans-serif" font-size="14" lengthAdjust="spacing" textLength="85.9346" x="69.64" y="213.8851">String name</text><ellipse cx="60.64" cy="226.8353" fill="none" rx="3" ry="3" style="stroke:#038048;stroke-width:1;"/><text fill="#000000" font-family="sans-serif" font-size="14" lengthAdjust="spacing" textLength="165.6621" x="69.64" y="230.182">String departmentHead</text><line style="stroke:#181818;stroke-width:0.5;" x1="50.64" x2="283.3548" y1="237.4838" y2="237.4838"/><ellipse cx="60.64" cy="251.1322" fill="#84BE84" rx="3" ry="3" style="stroke:#038048;stroke-width:1;"/><text fill="#000000" font-family="sans-serif" font-size="14" lengthAdjust="spacing" textLength="208.7148" x="69.64" y="254.4789">addTeacher(Teacher teacher)</text><ellipse cx="60.64" cy="267.4291" fill="#84BE84" rx="3" ry="3" style="stroke:#038048;stroke-width:1;"/><text fill="#000000" font-family="sans-serif" font-size="14" lengthAdjust="spacing" textLength="186.2793" x="69.64" y="270.7757">addCourse(Course course)</text></g><!--class Course--><g class="entity" data-entity="Course" data-source-line="14" data-uid="ent0004" id="entity_Course"><rect fill="#F1F1F1" height="113.1875" rx="2.5" ry="2.5" style="stroke:#181818;stroke-width:0.5;" width="244.7021" x="201.64" y="339.07"/><ellipse cx="295.3026" cy="355.07" fill="#ADD1B2" rx="11" ry="11" style="stroke:#181818;stroke-width:1;"/><path d="M298.2713,360.7106 Q297.6932,361.0075 297.0526,361.1481 Q296.412,361.3044 295.7088,361.3044 Q293.2088,361.3044 291.8807,359.6638 Q290.5682,358.0075 290.5682,354.8825 Q290.5682,351.7575 291.8807,350.1013 Q293.2088,348.445 295.7088,348.445 Q296.412,348.445 297.0526,348.6013 Q297.7088,348.7575 298.2713,349.0544 L298.2713,351.7731 Q297.6463,351.195 297.0526,350.9294 Q296.4588,350.6481 295.8338,350.6481 Q294.4901,350.6481 293.8026,351.7263 Q293.1151,352.7888 293.1151,354.8825 Q293.1151,356.9763 293.8026,358.0544 Q294.4901,359.1169 295.8338,359.1169 Q296.4588,359.1169 297.0526,358.8513 Q297.6463,358.57 298.2713,357.9919 L298.2713,360.7106 Z " fill="#000000"/><text fill="#000000" font-family="sans-serif" font-size="14" lengthAdjust="spacing" textLength="48.877" x="315.8026" y="359.9167">Course</text><line style="stroke:#181818;stroke-width:0.5;" x1="202.64" x2="445.3421" y1="371.07" y2="371.07"/><ellipse cx="212.64" cy="384.7184" fill="none" rx="3" ry="3" style="stroke:#038048;stroke-width:1;"/><text fill="#000000" font-family="sans-serif" font-size="14" lengthAdjust="spacing" textLength="128.8711" x="221.64" y="388.0651">String courseCode</text><ellipse cx="212.64" cy="401.0153" fill="none" rx="3" ry="3" style="stroke:#038048;stroke-width:1;"/><text fill="#000000" font-family="sans-serif" font-size="14" lengthAdjust="spacing" textLength="134.333" x="221.64" y="404.362">String courseName</text><ellipse cx="212.64" cy="417.3122" fill="none" rx="3" ry="3" style="stroke:#038048;stroke-width:1;"/><text fill="#000000" font-family="sans-serif" font-size="14" lengthAdjust="spacing" textLength="104.0498" x="221.64" y="420.6589">int creditHours</text><line style="stroke:#181818;stroke-width:0.5;" x1="202.64" x2="445.3421" y1="427.9606" y2="427.9606"/><ellipse cx="212.64" cy="441.6091" fill="#84BE84" rx="3" ry="3" style="stroke:#038048;stroke-width:1;"/><text fill="#000000" font-family="sans-serif" font-size="14" lengthAdjust="spacing" textLength="218.7021" x="221.64" y="444.9557">enrollStudent(Student student)</text></g><!--class Student--><g class="entity" data-entity="Student" data-source-line="21" data-uid="ent0005" id="entity_Student"><rect fill="#F1F1F1" height="113.1875" rx="2.5" ry="2.5" style="stroke:#181818;stroke-width:0.5;" width="138.7656" x="420.61" y="529.26"/><ellipse cx="458.8544" cy="545.26" fill="#ADD1B2" rx="11" ry="11" style="stroke:#181818;stroke-width:1;"/><path d="M461.8232,550.9006 Q461.2451,551.1975 460.6044,551.3381 Q459.9638,551.4944 459.2607,551.4944 Q456.7607,551.4944 455.4326,549.8538 Q454.1201,548.1975 454.1201,545.0725 Q454.1201,541.9475 455.4326,540.2913 Q456.7607,538.635 459.2607,538.635 Q459.9638,538.635 460.6044,538.7913 Q461.2607,538.9475 461.8232,539.2444 L461.8232,541.9631 Q461.1982,541.385 460.6044,541.1194 Q460.0107,540.8381 459.3857,540.8381 Q458.0419,540.8381 457.3544,541.9163 Q456.6669,542.9788 456.6669,545.0725 Q456.6669,547.1663 457.3544,548.2444 Q458.0419,549.3069 459.3857,549.3069 Q460.0107,549.3069 460.6044,549.0413 Q461.1982,548.76 461.8232,548.1819 L461.8232,550.9006 Z " fill="#000000"/><text fill="#000000" font-family="sans-serif" font-size="14" lengthAdjust="spacing" textLength="55.1113" x="478.0199" y="550.1067">Student</text><line style="stroke:#181818;stroke-width:0.5;" x1="421.61" x2="558.3756" y1="561.26" y2="561.26"/><ellipse cx="431.61" cy="574.9084" fill="none" rx="3" ry="3" style="stroke:#038048;stroke-width:1;"/><text fill="#000000" font-family="sans-serif" font-size="14" lengthAdjust="spacing" textLength="112.7656" x="440.61" y="578.2551">String studentId</text><ellipse cx="431.61" cy="591.2053" fill="none" rx="3" ry="3" style="stroke:#038048;stroke-width:1;"/><text fill="#000000" font-family="sans-serif" font-size="14" lengthAdjust="spacing" textLength="85.9346" x="440.61" y="594.552">String name</text><ellipse cx="431.61" cy="607.5022" fill="none" rx="3" ry="3" style="stroke:#038048;stroke-width:1;"/><text fill="#000000" font-family="sans-serif" font-size="14" lengthAdjust="spacing" textLength="48.7813" x="440.61" y="610.8489">int age</text><ellipse cx="431.61" cy="623.7991" fill="none" rx="3" ry="3" style="stroke:#038048;stroke-width:1;"/><text fill="#000000" font-family="sans-serif" font-size="14" lengthAdjust="spacing" textLength="86.6592" x="440.61" y="627.1457">String major</text><line style="stroke:#181818;stroke-width:0.5;" x1="421.61" x2="558.3756" y1="634.4475" y2="634.4475"/></g><!--class Teacher--><g class="entity" data-entity="Teacher" data-source-line="28" data-uid="ent0006" id="entity_Teacher"><rect fill="#F1F1F1" height="96.8906" rx="2.5" ry="2.5" style="stroke:#181818;stroke-width:0.5;" width="167.7158" x="61.14" y="537.41"/><ellipse cx="112.4061" cy="553.41" fill="#ADD1B2" rx="11" ry="11" style="stroke:#181818;stroke-width:1;"/><path d="M115.3749,559.0506 Q114.7967,559.3475 114.1561,559.4881 Q113.5155,559.6444 112.8124,559.6444 Q110.3124,559.6444 108.9842,558.0038 Q107.6717,556.3475 107.6717,553.2225 Q107.6717,550.0975 108.9842,548.4413 Q110.3124,546.785 112.8124,546.785 Q113.5155,546.785 114.1561,546.9413 Q114.8124,547.0975 115.3749,547.3944 L115.3749,550.1131 Q114.7499,549.535 114.1561,549.2694 Q113.5624,548.9881 112.9374,548.9881 Q111.5936,548.9881 110.9061,550.0663 Q110.2186,551.1288 110.2186,553.2225 Q110.2186,555.3163 110.9061,556.3944 Q111.5936,557.4569 112.9374,557.4569 Q113.5624,557.4569 114.1561,557.1913 Q114.7499,556.91 115.3749,556.3319 L115.3749,559.0506 Z " fill="#000000"/><text fill="#000000" font-family="sans-serif" font-size="14" lengthAdjust="spacing" textLength="56.6836" x="132.9061" y="558.2567">Teacher</text><line style="stroke:#181818;stroke-width:0.5;" x1="62.14" x2="227.8558" y1="569.41" y2="569.41"/><ellipse cx="72.14" cy="583.0584" fill="none" rx="3" ry="3" style="stroke:#038048;stroke-width:1;"/><text fill="#000000" font-family="sans-serif" font-size="14" lengthAdjust="spacing" textLength="112.8682" x="81.14" y="586.4051">String teacherId</text><ellipse cx="72.14" cy="599.3553" fill="none" rx="3" ry="3" style="stroke:#038048;stroke-width:1;"/><text fill="#000000" font-family="sans-serif" font-size="14" lengthAdjust="spacing" textLength="85.9346" x="81.14" y="602.702">String name</text><ellipse cx="72.14" cy="615.6522" fill="none" rx="3" ry="3" style="stroke:#038048;stroke-width:1;"/><text fill="#000000" font-family="sans-serif" font-size="14" lengthAdjust="spacing" textLength="141.7158" x="81.14" y="618.9989">String specialization</text><line style="stroke:#181818;stroke-width:0.5;" x1="62.14" x2="227.8558" y1="626.3006" y2="626.3006"/></g><!--class Classroom--><g class="entity" data-entity="Classroom" data-source-line="34" data-uid="ent0007" id="entity_Classroom"><rect fill="#F1F1F1" height="80.5938" rx="2.5" ry="2.5" style="stroke:#181818;stroke-width:0.5;" width="121.7715" x="264.11" y="545.56"/><ellipse cx="286.4968" cy="561.56" fill="#ADD1B2" rx="11" ry="11" style="stroke:#181818;stroke-width:1;"/><path d="M289.4655,567.2006 Q288.8874,567.4975 288.2468,567.6381 Q287.6061,567.7944 286.903,567.7944 Q284.403,567.7944 283.0749,566.1538 Q281.7624,564.4975 281.7624,561.3725 Q281.7624,558.2475 283.0749,556.5913 Q284.403,554.935 286.903,554.935 Q287.6061,554.935 288.2468,555.0913 Q288.903,555.2475 289.4655,555.5444 L289.4655,558.2631 Q288.8405,557.685 288.2468,557.4194 Q287.653,557.1381 287.028,557.1381 Q285.6843,557.1381 284.9968,558.2163 Q284.3093,559.2788 284.3093,561.3725 Q284.3093,563.4663 284.9968,564.5444 Q285.6843,565.6069 287.028,565.6069 Q287.653,565.6069 288.2468,565.3413 Q288.8405,565.06 289.4655,564.4819 L289.4655,567.2006 Z " fill="#000000"/><text fill="#000000" font-family="sans-serif" font-size="14" lengthAdjust="spacing" textLength="73.3564" x="302.1383" y="566.4067">Classroom</text><line style="stroke:#181818;stroke-width:0.5;" x1="265.11" x2="384.8815" y1="577.56" y2="577.56"/><ellipse cx="275.11" cy="591.2084" fill="none" rx="3" ry="3" style="stroke:#038048;stroke-width:1;"/><text fill="#000000" font-family="sans-serif" font-size="14" lengthAdjust="spacing" textLength="95.7715" x="284.11" y="594.5551">String roomId</text><ellipse cx="275.11" cy="607.5053" fill="none" rx="3" ry="3" style="stroke:#038048;stroke-width:1;"/><text fill="#000000" font-family="sans-serif" font-size="14" lengthAdjust="spacing" textLength="81.8057" x="284.11" y="610.852">int capacity</text><line style="stroke:#181818;stroke-width:0.5;" x1="265.11" x2="384.8815" y1="618.1538" y2="618.1538"/></g><!--link School to Department--><g class="link" data-entity-1="School" data-entity-2="Department" data-source-line="39" data-uid="lnk8" id="link_School_Department"><path codeLine="39" d="M166.99,104.33 C166.99,123.15 166.99,144.89 166.99,164.43" fill="none" id="School-Department" style="stroke:#181818;stroke-width:1;"/><text fill="#000000" font-family="sans-serif" font-size="13" lengthAdjust="spacing" textLength="8.271" x="158.4703" y="123.9825">1</text><text fill="#000000" font-family="sans-serif" font-size="13" lengthAdjust="spacing" textLength="23.0356" x="142.5897" y="153.6375">1..*</text></g><!--link Department to Teacher--><g class="link" data-entity-1="Department" data-entity-2="Teacher" data-source-line="40" data-uid="lnk9" id="link_Department_Teacher"><path codeLine="40" d="M163.6,278.31 C159.3,349.18 151.95,470.26 147.89,537.07" fill="none" id="Department-Teacher" style="stroke:#181818;stroke-width:1;"/><text fill="#000000" font-family="sans-serif" font-size="13" lengthAdjust="spacing" textLength="8.271" x="154.715" y="298.2247">1</text><text fill="#000000" font-family="sans-serif" font-size="13" lengthAdjust="spacing" textLength="23.0356" x="123.682" y="526.2311">1..*</text></g><!--link Department to Course--><g class="link" data-entity-1="Department" data-entity-2="Course" data-source-line="41" data-uid="lnk10" id="link_Department_Course"><path codeLine="41" d="M217.97,278.39 C235.61,297.73 255.37,319.4 273.01,338.75" fill="none" id="Department-Course" style="stroke:#181818;stroke-width:1;"/><text fill="#000000" font-family="sans-serif" font-size="13" lengthAdjust="spacing" textLength="8.271" x="215.7113" y="298.3145">1</text><text fill="#000000" font-family="sans-serif" font-size="13" lengthAdjust="spacing" textLength="23.0356" x="242.3973" y="327.9746">1..*</text></g><!--link Course to Student--><g class="link" data-entity-1="Course" data-entity-2="Student" data-source-line="42" data-uid="lnk11" id="link_Course_Student"><path codeLine="42" d="M373.35,452.62 C394.57,476.67 419.31,504.73 440.54,528.79" fill="none" id="Course-Student" style="stroke:#181818;stroke-width:1;"/><text fill="#000000" font-family="sans-serif" font-size="13" lengthAdjust="spacing" textLength="23.0356" x="354.7295" y="472.1473">1..*</text><text fill="#000000" font-family="sans-serif" font-size="13" lengthAdjust="spacing" textLength="23.0356" x="410.1135" y="517.9963">1..*</text></g><!--link Course to Classroom--><g class="link" data-entity-1="Course" data-entity-2="Classroom" data-source-line="43" data-uid="lnk12" id="link_Course_Classroom"><path codeLine="43" d="M324.29,452.62 C324.45,482.42 324.64,518.35 324.78,545.24" fill="none" id="Course-Classroom" style="stroke:#181818;stroke-width:1;"/><text fill="#000000" font-family="sans-serif" font-size="13" lengthAdjust="spacing" textLength="23.0356" x="299.9969" y="472.1473">1..*</text><text fill="#000000" font-family="sans-serif" font-size="13" lengthAdjust="spacing" textLength="8.271" x="316.1042" y="534.3485">1</text></g><!--link Course to Teacher--><g class="link" data-entity-1="Course" data-entity-2="Teacher" data-source-line="44" data-uid="lnk13" id="link_Course_Teacher"><path codeLine="44" d="M270.77,452.62 C245.21,479.49 214.91,511.36 190.44,537.07" fill="none" id="Course-Teacher" style="stroke:#181818;stroke-width:1;"/><polygon fill="#000000" points="240.5439,494.4492,248.9073,489.921,244.6485,485.87,240.5439,494.4492" style="stroke:#000000;stroke-width:1;"/><text fill="#000000" font-family="sans-serif" font-size="13" lengthAdjust="spacing" textLength="51.2192" x="252.99" y="495.3269">teaches</text><text fill="#000000" font-family="sans-serif" font-size="13" lengthAdjust="spacing" textLength="8.271" x="256.1695" y="472.1473">1</text><text fill="#000000" font-family="sans-serif" font-size="13" lengthAdjust="spacing" textLength="8.271" x="188.2868" y="526.2311">1</text></g><!--SRC=[VLB1RiCW3Btp5LPEwQPMsdM7NRf3Uzab-m4Bh9Q9G0Jqi4txzuN45D3QNVACd_4ppv46Gu11dfqpy2q07c68NjiJM1ofFgDIda9OKdFyIXFwE9ADVGb1NSED-152Bjqh_b-5Slb0gBBGEw4ya-yP8QwuoVpUNNoWVWMG2rJYd6-4rwAzK_Gt-vQ7qlEuqfFIyP289KVMEsE6U57ftOmGLgn4CzEeSjbHtVGWoU6f6MZ43-TBqsn0qvJTkDCqAqyaDHhzXL4xMtcJljwviUsPCjnmCG4db3f-fdlyetHF7MotC-ns3rsrNr6jkgtXuUyNh7iIl2vE5feTlSLtvHs5ldBPjMUsAi3BBm00]--></g></svg>