<svg xmlns="http://www.w3.org/2000/svg" xmlns:xlink="http://www.w3.org/1999/xlink" contentStyleType="text/css" data-diagram-type="CLASS" height="728px" preserveAspectRatio="none" style="width:1254px;height:728px;background:#FFFFFF;" version="1.1" viewBox="0 0 1254 728" width="1254px" zoomAndPan="magnify"><defs/><g><!--class School--><g class="entity" data-entity="School" data-source-line="1" data-uid="ent0002" id="entity_School"><rect fill="#F1F1F1" height="129.4844" rx="2.5" ry="2.5" style="stroke:#181818;stroke-width:0.5;" width="278.2256" x="644.72" y="7"/><ellipse cx="756.344" cy="23" fill="#ADD1B2" rx="11" ry="11" style="stroke:#181818;stroke-width:1;"/><path d="M759.3128,28.6406 Q758.7346,28.9375 758.094,29.0781 Q757.4534,29.2344 756.7503,29.2344 Q754.2503,29.2344 752.9221,27.5938 Q751.6096,25.9375 751.6096,22.8125 Q751.6096,19.6875 752.9221,18.0313 Q754.2503,16.375 756.7503,16.375 Q757.4534,16.375 758.094,16.5313 Q758.7503,16.6875 759.3128,16.9844 L759.3128,19.7031 Q758.6878,19.125 758.094,18.8594 Q757.5003,18.5781 756.8753,18.5781 Q755.5315,18.5781 754.844,19.6563 Q754.1565,20.7188 754.1565,22.8125 Q754.1565,24.9063 754.844,25.9844 Q755.5315,27.0469 756.8753,27.0469 Q757.5003,27.0469 758.094,26.7813 Q758.6878,26.5 759.3128,25.9219 L759.3128,28.6406 Z " fill="#000000"/><text fill="#000000" font-family="sans-serif" font-size="14" lengthAdjust="spacing" textLength="46.4775" x="776.844" y="27.8467">School</text><line style="stroke:#181818;stroke-width:0.5;" x1="645.72" x2="921.9456" y1="39" y2="39"/><rect fill="none" height="6" style="stroke:#C82930;stroke-width:1;" width="6" x="652.72" y="49.6484"/><text fill="#000000" font-family="sans-serif" font-size="14" lengthAdjust="spacing" textLength="90.6514" x="664.72" y="55.9951">name: String</text><rect fill="none" height="6" style="stroke:#C82930;stroke-width:1;" width="6" x="652.72" y="65.9453"/><text fill="#000000" font-family="sans-serif" font-size="14" lengthAdjust="spacing" textLength="106.2578" x="664.72" y="72.292">address: String</text><rect fill="none" height="6" style="stroke:#C82930;stroke-width:1;" width="6" x="652.72" y="82.2422"/><text fill="#000000" font-family="sans-serif" font-size="14" lengthAdjust="spacing" textLength="150.999" x="664.72" y="88.5889">phoneNumber: String</text><line style="stroke:#181818;stroke-width:0.5;" x1="645.72" x2="921.9456" y1="95.8906" y2="95.8906"/><ellipse cx="655.72" cy="109.5391" fill="#84BE84" rx="3" ry="3" style="stroke:#038048;stroke-width:1;"/><text fill="#000000" font-family="sans-serif" font-size="14" lengthAdjust="spacing" textLength="252.2256" x="664.72" y="112.8857">addTeacher(teacher: Teacher): void</text><ellipse cx="655.72" cy="125.8359" fill="#84BE84" rx="3" ry="3" style="stroke:#038048;stroke-width:1;"/><text fill="#000000" font-family="sans-serif" font-size="14" lengthAdjust="spacing" textLength="248.9785" x="664.72" y="129.1826">addStudent(student: Student): void</text></g><!--class Teacher--><g class="entity" data-entity="Teacher" data-source-line="9" data-uid="ent0003" id="entity_Teacher"><rect fill="#F1F1F1" height="129.4844" rx="2.5" ry="2.5" style="stroke:#181818;stroke-width:0.5;" width="503.6611" x="7" y="204.63"/><ellipse cx="226.2388" cy="220.63" fill="#ADD1B2" rx="11" ry="11" style="stroke:#181818;stroke-width:1;"/><path d="M229.2075,226.2706 Q228.6294,226.5675 227.9888,226.7081 Q227.3481,226.8644 226.645,226.8644 Q224.145,226.8644 222.8169,225.2238 Q221.5044,223.5675 221.5044,220.4425 Q221.5044,217.3175 222.8169,215.6613 Q224.145,214.005 226.645,214.005 Q227.3481,214.005 227.9888,214.1613 Q228.645,214.3175 229.2075,214.6144 L229.2075,217.3331 Q228.5825,216.755 227.9888,216.4894 Q227.395,216.2081 226.77,216.2081 Q225.4263,216.2081 224.7388,217.2863 Q224.0513,218.3488 224.0513,220.4425 Q224.0513,222.5363 224.7388,223.6144 Q225.4263,224.6769 226.77,224.6769 Q227.395,224.6769 227.9888,224.4113 Q228.5825,224.13 229.2075,223.5519 L229.2075,226.2706 Z " fill="#000000"/><text fill="#000000" font-family="sans-serif" font-size="14" lengthAdjust="spacing" textLength="56.6836" x="246.7388" y="225.4767">Teacher</text><line style="stroke:#181818;stroke-width:0.5;" x1="8" x2="509.6611" y1="236.63" y2="236.63"/><rect fill="none" height="6" style="stroke:#C82930;stroke-width:1;" width="6" x="15" y="247.2784"/><text fill="#000000" font-family="sans-serif" font-size="14" lengthAdjust="spacing" textLength="90.6514" x="27" y="253.6251">name: String</text><rect fill="none" height="6" style="stroke:#C82930;stroke-width:1;" width="6" x="15" y="263.5753"/><text fill="#000000" font-family="sans-serif" font-size="14" lengthAdjust="spacing" textLength="134.9619" x="27" y="269.922">employeeID: String</text><rect fill="none" height="6" style="stroke:#C82930;stroke-width:1;" width="6" x="15" y="279.8722"/><text fill="#000000" font-family="sans-serif" font-size="14" lengthAdjust="spacing" textLength="129.835" x="27" y="286.2189">contactInfo: String</text><line style="stroke:#181818;stroke-width:0.5;" x1="8" x2="509.6611" y1="293.5206" y2="293.5206"/><ellipse cx="18" cy="307.1691" fill="#84BE84" rx="3" ry="3" style="stroke:#038048;stroke-width:1;"/><text fill="#000000" font-family="sans-serif" font-size="14" lengthAdjust="spacing" textLength="242.6895" x="27" y="310.5157">teachCourse(course: Course): void</text><ellipse cx="18" cy="323.4659" fill="#84BE84" rx="3" ry="3" style="stroke:#038048;stroke-width:1;"/><text fill="#000000" font-family="sans-serif" font-size="14" lengthAdjust="spacing" textLength="477.6611" x="27" y="326.8126">gradeStudent(student: Student, course: Course, grade: String): void</text></g><!--class Student--><g class="entity" data-entity="Student" data-source-line="17" data-uid="ent0004" id="entity_Student"><rect fill="#F1F1F1" height="145.7813" rx="2.5" ry="2.5" style="stroke:#181818;stroke-width:0.5;" width="282.0264" x="545.82" y="196.48"/><ellipse cx="655.0275" cy="212.48" fill="#ADD1B2" rx="11" ry="11" style="stroke:#181818;stroke-width:1;"/><path d="M657.9963,218.1206 Q657.4181,218.4175 656.7775,218.5581 Q656.1369,218.7144 655.4338,218.7144 Q652.9338,218.7144 651.6056,217.0738 Q650.2931,215.4175 650.2931,212.2925 Q650.2931,209.1675 651.6056,207.5113 Q652.9338,205.855 655.4338,205.855 Q656.1369,205.855 656.7775,206.0113 Q657.4338,206.1675 657.9963,206.4644 L657.9963,209.1831 Q657.3713,208.605 656.7775,208.3394 Q656.1838,208.0581 655.5588,208.0581 Q654.215,208.0581 653.5275,209.1363 Q652.84,210.1988 652.84,212.2925 Q652.84,214.3863 653.5275,215.4644 Q654.215,216.5269 655.5588,216.5269 Q656.1838,216.5269 656.7775,216.2613 Q657.3713,215.98 657.9963,215.4019 L657.9963,218.1206 Z " fill="#000000"/><text fill="#000000" font-family="sans-serif" font-size="14" lengthAdjust="spacing" textLength="55.1113" x="675.5275" y="217.3267">Student</text><line style="stroke:#181818;stroke-width:0.5;" x1="546.82" x2="826.8464" y1="228.48" y2="228.48"/><rect fill="none" height="6" style="stroke:#C82930;stroke-width:1;" width="6" x="553.82" y="239.1284"/><text fill="#000000" font-family="sans-serif" font-size="14" lengthAdjust="spacing" textLength="90.6514" x="565.82" y="245.4751">name: String</text><rect fill="none" height="6" style="stroke:#C82930;stroke-width:1;" width="6" x="553.82" y="255.4253"/><text fill="#000000" font-family="sans-serif" font-size="14" lengthAdjust="spacing" textLength="119.376" x="565.82" y="261.772">studentID: String</text><rect fill="none" height="6" style="stroke:#C82930;stroke-width:1;" width="6" x="553.82" y="271.7222"/><text fill="#000000" font-family="sans-serif" font-size="14" lengthAdjust="spacing" textLength="129.835" x="565.82" y="278.0689">contactInfo: String</text><rect fill="none" height="6" style="stroke:#C82930;stroke-width:1;" width="6" x="553.82" y="288.0191"/><text fill="#000000" font-family="sans-serif" font-size="14" lengthAdjust="spacing" textLength="219.2354" x="565.82" y="294.3657">enrolledCourses: List&lt;Course&gt;</text><line style="stroke:#181818;stroke-width:0.5;" x1="546.82" x2="826.8464" y1="301.6675" y2="301.6675"/><ellipse cx="556.82" cy="315.3159" fill="#84BE84" rx="3" ry="3" style="stroke:#038048;stroke-width:1;"/><text fill="#000000" font-family="sans-serif" font-size="14" lengthAdjust="spacing" textLength="256.0264" x="565.82" y="318.6626">enrollInCourse(course: Course): void</text><ellipse cx="556.82" cy="331.6128" fill="#84BE84" rx="3" ry="3" style="stroke:#038048;stroke-width:1;"/><text fill="#000000" font-family="sans-serif" font-size="14" lengthAdjust="spacing" textLength="245.6221" x="565.82" y="334.9595">getGrades(): Map&lt;Course, String&gt;</text></g><!--class Classroom--><g class="entity" data-entity="Classroom" data-source-line="26" data-uid="ent0005" id="entity_Classroom"><rect fill="#F1F1F1" height="113.1875" rx="2.5" ry="2.5" style="stroke:#181818;stroke-width:0.5;" width="274.2539" x="663.7" y="608.04"/><ellipse cx="759.8987" cy="624.04" fill="#ADD1B2" rx="11" ry="11" style="stroke:#181818;stroke-width:1;"/><path d="M762.8675,629.6806 Q762.2894,629.9775 761.6487,630.1181 Q761.0081,630.2744 760.305,630.2744 Q757.805,630.2744 756.4769,628.6338 Q755.1644,626.9775 755.1644,623.8525 Q755.1644,620.7275 756.4769,619.0713 Q757.805,617.415 760.305,617.415 Q761.0081,617.415 761.6487,617.5713 Q762.305,617.7275 762.8675,618.0244 L762.8675,620.7431 Q762.2425,620.165 761.6487,619.8994 Q761.055,619.6181 760.43,619.6181 Q759.0862,619.6181 758.3987,620.6963 Q757.7112,621.7588 757.7112,623.8525 Q757.7112,625.9463 758.3987,627.0244 Q759.0862,628.0869 760.43,628.0869 Q761.055,628.0869 761.6487,627.8213 Q762.2425,627.54 762.8675,626.9619 L762.8675,629.6806 Z " fill="#000000"/><text fill="#000000" font-family="sans-serif" font-size="14" lengthAdjust="spacing" textLength="73.3564" x="780.3987" y="628.8867">Classroom</text><line style="stroke:#181818;stroke-width:0.5;" x1="664.7" x2="936.9539" y1="640.04" y2="640.04"/><rect fill="none" height="6" style="stroke:#C82930;stroke-width:1;" width="6" x="671.7" y="650.6884"/><text fill="#000000" font-family="sans-serif" font-size="14" lengthAdjust="spacing" textLength="143.7119" x="683.7" y="657.0351">roomNumber: String</text><rect fill="none" height="6" style="stroke:#C82930;stroke-width:1;" width="6" x="671.7" y="666.9853"/><text fill="#000000" font-family="sans-serif" font-size="14" lengthAdjust="spacing" textLength="86.5225" x="683.7" y="673.332">capacity: int</text><rect fill="none" height="6" style="stroke:#C82930;stroke-width:1;" width="6" x="671.7" y="683.2822"/><text fill="#000000" font-family="sans-serif" font-size="14" lengthAdjust="spacing" textLength="157.9785" x="683.7" y="689.6289">currentCourse: Course</text><line style="stroke:#181818;stroke-width:0.5;" x1="664.7" x2="936.9539" y1="696.9306" y2="696.9306"/><ellipse cx="674.7" cy="710.5791" fill="#84BE84" rx="3" ry="3" style="stroke:#038048;stroke-width:1;"/><text fill="#000000" font-family="sans-serif" font-size="14" lengthAdjust="spacing" textLength="248.2539" x="683.7" y="713.9257">assignCourse(course: Course): void</text></g><!--class Course--><g class="entity" data-entity="Course" data-source-line="33" data-uid="ent0006" id="entity_Course"><rect fill="#F1F1F1" height="145.7813" rx="2.5" ry="2.5" style="stroke:#181818;stroke-width:0.5;" width="274.9785" x="202.34" y="402.26"/><ellipse cx="311.1408" cy="418.26" fill="#ADD1B2" rx="11" ry="11" style="stroke:#181818;stroke-width:1;"/><path d="M314.1095,423.9006 Q313.5314,424.1975 312.8908,424.3381 Q312.2502,424.4944 311.547,424.4944 Q309.047,424.4944 307.7189,422.8538 Q306.4064,421.1975 306.4064,418.0725 Q306.4064,414.9475 307.7189,413.2913 Q309.047,411.635 311.547,411.635 Q312.2502,411.635 312.8908,411.7913 Q313.547,411.9475 314.1095,412.2444 L314.1095,414.9631 Q313.4845,414.385 312.8908,414.1194 Q312.297,413.8381 311.672,413.8381 Q310.3283,413.8381 309.6408,414.9163 Q308.9533,415.9788 308.9533,418.0725 Q308.9533,420.1663 309.6408,421.2444 Q310.3283,422.3069 311.672,422.3069 Q312.297,422.3069 312.8908,422.0413 Q313.4845,421.76 314.1095,421.1819 L314.1095,423.9006 Z " fill="#000000"/><text fill="#000000" font-family="sans-serif" font-size="14" lengthAdjust="spacing" textLength="48.877" x="331.6408" y="423.1067">Course</text><line style="stroke:#181818;stroke-width:0.5;" x1="203.34" x2="476.3185" y1="434.26" y2="434.26"/><rect fill="none" height="6" style="stroke:#C82930;stroke-width:1;" width="6" x="210.34" y="444.9084"/><text fill="#000000" font-family="sans-serif" font-size="14" lengthAdjust="spacing" textLength="112.6563" x="222.34" y="451.2551">courseID: String</text><rect fill="none" height="6" style="stroke:#C82930;stroke-width:1;" width="6" x="210.34" y="461.2053"/><text fill="#000000" font-family="sans-serif" font-size="14" lengthAdjust="spacing" textLength="139.0498" x="222.34" y="467.552">courseName: String</text><rect fill="none" height="6" style="stroke:#C82930;stroke-width:1;" width="6" x="210.34" y="477.5022"/><text fill="#000000" font-family="sans-serif" font-size="14" lengthAdjust="spacing" textLength="112.2461" x="222.34" y="483.8489">subject: Subject</text><rect fill="none" height="6" style="stroke:#C82930;stroke-width:1;" width="6" x="210.34" y="493.7991"/><text fill="#000000" font-family="sans-serif" font-size="14" lengthAdjust="spacing" textLength="119.4717" x="222.34" y="500.1457">teacher: Teacher</text><line style="stroke:#181818;stroke-width:0.5;" x1="203.34" x2="476.3185" y1="507.4475" y2="507.4475"/><ellipse cx="213.34" cy="521.0959" fill="#84BE84" rx="3" ry="3" style="stroke:#038048;stroke-width:1;"/><text fill="#000000" font-family="sans-serif" font-size="14" lengthAdjust="spacing" textLength="247.2695" x="222.34" y="524.4426">setTeacher(teacher: Teacher): void</text><ellipse cx="213.34" cy="537.3928" fill="#84BE84" rx="3" ry="3" style="stroke:#038048;stroke-width:1;"/><text fill="#000000" font-family="sans-serif" font-size="14" lengthAdjust="spacing" textLength="248.9785" x="222.34" y="540.7395">addStudent(student: Student): void</text></g><!--class Subject--><g class="entity" data-entity="Subject" data-source-line="42" data-uid="ent0007" id="entity_Subject"><rect fill="#F1F1F1" height="96.8906" rx="2.5" ry="2.5" style="stroke:#181818;stroke-width:0.5;" width="255.79" x="211.94" y="616.19"/><ellipse cx="309.4171" cy="632.19" fill="#ADD1B2" rx="11" ry="11" style="stroke:#181818;stroke-width:1;"/><path d="M312.3858,637.8306 Q311.8077,638.1275 311.1671,638.2681 Q310.5264,638.4244 309.8233,638.4244 Q307.3233,638.4244 305.9952,636.7838 Q304.6827,635.1275 304.6827,632.0025 Q304.6827,628.8775 305.9952,627.2213 Q307.3233,625.565 309.8233,625.565 Q310.5264,625.565 311.1671,625.7213 Q311.8233,625.8775 312.3858,626.1744 L312.3858,628.8931 Q311.7608,628.315 311.1671,628.0494 Q310.5733,627.7681 309.9483,627.7681 Q308.6046,627.7681 307.9171,628.8463 Q307.2296,629.9088 307.2296,632.0025 Q307.2296,634.0963 307.9171,635.1744 Q308.6046,636.2369 309.9483,636.2369 Q310.5733,636.2369 311.1671,635.9713 Q311.7608,635.69 312.3858,635.1119 L312.3858,637.8306 Z " fill="#000000"/><text fill="#000000" font-family="sans-serif" font-size="14" lengthAdjust="spacing" textLength="52.3359" x="329.9171" y="637.0367">Subject</text><line style="stroke:#181818;stroke-width:0.5;" x1="212.94" x2="466.73" y1="648.19" y2="648.19"/><rect fill="none" height="6" style="stroke:#C82930;stroke-width:1;" width="6" x="219.94" y="658.8384"/><text fill="#000000" font-family="sans-serif" font-size="14" lengthAdjust="spacing" textLength="116.6006" x="231.94" y="665.1851">subjectID: String</text><rect fill="none" height="6" style="stroke:#C82930;stroke-width:1;" width="6" x="219.94" y="675.1353"/><text fill="#000000" font-family="sans-serif" font-size="14" lengthAdjust="spacing" textLength="142.9941" x="231.94" y="681.482">subjectName: String</text><line style="stroke:#181818;stroke-width:0.5;" x1="212.94" x2="466.73" y1="688.7838" y2="688.7838"/><ellipse cx="222.94" cy="702.4322" fill="#84BE84" rx="3" ry="3" style="stroke:#038048;stroke-width:1;"/><text fill="#000000" font-family="sans-serif" font-size="14" lengthAdjust="spacing" textLength="229.79" x="231.94" y="705.7789">addCourse(course: Course): void</text></g><!--class AdministrativeStaff--><g class="entity" data-entity="AdministrativeStaff" data-source-line="48" data-uid="ent0008" id="entity_AdministrativeStaff"><rect fill="#F1F1F1" height="129.4844" rx="2.5" ry="2.5" style="stroke:#181818;stroke-width:0.5;" width="313.1367" x="934.26" y="204.63"/><ellipse cx="1019.0974" cy="220.63" fill="#ADD1B2" rx="11" ry="11" style="stroke:#181818;stroke-width:1;"/><path d="M1022.0662,226.2706 Q1021.488,226.5675 1020.8474,226.7081 Q1020.2068,226.8644 1019.5037,226.8644 Q1017.0037,226.8644 1015.6755,225.2238 Q1014.363,223.5675 1014.363,220.4425 Q1014.363,217.3175 1015.6755,215.6613 Q1017.0037,214.005 1019.5037,214.005 Q1020.2068,214.005 1020.8474,214.1613 Q1021.5037,214.3175 1022.0662,214.6144 L1022.0662,217.3331 Q1021.4412,216.755 1020.8474,216.4894 Q1020.2537,216.2081 1019.6287,216.2081 Q1018.2849,216.2081 1017.5974,217.2863 Q1016.9099,218.3488 1016.9099,220.4425 Q1016.9099,222.5363 1017.5974,223.6144 Q1018.2849,224.6769 1019.6287,224.6769 Q1020.2537,224.6769 1020.8474,224.4113 Q1021.4412,224.13 1022.0662,223.5519 L1022.0662,226.2706 Z " fill="#000000"/><text fill="#000000" font-family="sans-serif" font-size="14" lengthAdjust="spacing" textLength="134.9619" x="1039.5974" y="225.4767">AdministrativeStaff</text><line style="stroke:#181818;stroke-width:0.5;" x1="935.26" x2="1246.3967" y1="236.63" y2="236.63"/><rect fill="none" height="6" style="stroke:#C82930;stroke-width:1;" width="6" x="942.26" y="247.2784"/><text fill="#000000" font-family="sans-serif" font-size="14" lengthAdjust="spacing" textLength="90.6514" x="954.26" y="253.6251">name: String</text><rect fill="none" height="6" style="stroke:#C82930;stroke-width:1;" width="6" x="942.26" y="263.5753"/><text fill="#000000" font-family="sans-serif" font-size="14" lengthAdjust="spacing" textLength="97.0771" x="954.26" y="269.922">staffID: String</text><rect fill="none" height="6" style="stroke:#C82930;stroke-width:1;" width="6" x="942.26" y="279.8722"/><text fill="#000000" font-family="sans-serif" font-size="14" lengthAdjust="spacing" textLength="129.835" x="954.26" y="286.2189">contactInfo: String</text><line style="stroke:#181818;stroke-width:0.5;" x1="935.26" x2="1246.3967" y1="293.5206" y2="293.5206"/><ellipse cx="945.26" cy="307.1691" fill="#84BE84" rx="3" ry="3" style="stroke:#038048;stroke-width:1;"/><text fill="#000000" font-family="sans-serif" font-size="14" lengthAdjust="spacing" textLength="287.1367" x="954.26" y="310.5157">handleAdmission(student: Student): void</text><ellipse cx="945.26" cy="323.4659" fill="#84BE84" rx="3" ry="3" style="stroke:#038048;stroke-width:1;"/><text fill="#000000" font-family="sans-serif" font-size="14" lengthAdjust="spacing" textLength="163.4268" x="954.26" y="326.8126">manageRecords(): void</text></g><!--reverse link School to Student--><g class="link" data-entity-1="School" data-entity-2="Student" data-source-line="56" data-uid="lnk9" id="link_School_Student"><path codeLine="56" d="M746.7398,147.5512 C737.3498,166.4912 732.33,176.61 722.7,196.04" fill="none" id="School-backto-Student" style="stroke:#181818;stroke-width:1;"/><polygon fill="#181818" points="752.07,136.8,745.8212,140.3989,746.7398,147.5512,752.9886,143.9523,752.07,136.8" style="stroke:#181818;stroke-width:1;"/><text fill="#000000" font-family="sans-serif" font-size="13" lengthAdjust="spacing" textLength="8.271" x="740.3959" y="156.3563">1</text><text fill="#000000" font-family="sans-serif" font-size="13" lengthAdjust="spacing" textLength="23.0356" x="702.0242" y="185.4091">0..*</text></g><!--reverse link School to Teacher--><g class="link" data-entity-1="School" data-entity-2="Teacher" data-source-line="57" data-uid="lnk10" id="link_School_Teacher"><path codeLine="57" d="M633.275,128.8392 C567.805,153.2292 500.37,178.36 431.19,204.14" fill="none" id="School-backto-Teacher" style="stroke:#181818;stroke-width:1;"/><polygon fill="#181818" points="644.52,124.65,637.5011,122.9963,633.275,128.8392,640.2939,130.4929,644.52,124.65" style="stroke:#181818;stroke-width:1;"/><text fill="#000000" font-family="sans-serif" font-size="13" lengthAdjust="spacing" textLength="8.271" x="628.2426" y="124.3459">1</text><text fill="#000000" font-family="sans-serif" font-size="13" lengthAdjust="spacing" textLength="23.0356" x="424.7805" y="193.7132">0..*</text></g><!--reverse link School to AdministrativeStaff--><g class="link" data-entity-1="School" data-entity-2="AdministrativeStaff" data-source-line="58" data-uid="lnk11" id="link_School_AdministrativeStaff"><path codeLine="58" d="M894.4715,143.2464 C928.4015,164.8564 956.14,182.54 990.08,204.17" fill="none" id="School-backto-AdministrativeStaff" style="stroke:#181818;stroke-width:1;"/><polygon fill="#181818" points="884.35,136.8,887.262,143.397,894.4715,143.2464,891.5595,136.6494,884.35,136.8" style="stroke:#181818;stroke-width:1;"/><text fill="#000000" font-family="sans-serif" font-size="13" lengthAdjust="spacing" textLength="8.271" x="886.3173" y="156.3563">1</text><text fill="#000000" font-family="sans-serif" font-size="13" lengthAdjust="spacing" textLength="23.0356" x="955.5062" y="193.7463">0..*</text></g><!--reverse link School to Classroom--><g class="link" data-entity-1="School" data-entity-2="Classroom" data-source-line="59" data-uid="lnk12" id="link_School_Classroom"><path codeLine="59" d="M828.3357,147.4335 C837.7257,166.0435 841.02,176.14 845.83,196.48 C880.29,342.18 842.1,519.4 817.79,607.83" fill="none" id="School-backto-Classroom" style="stroke:#181818;stroke-width:1;"/><polygon fill="#181818" points="822.93,136.72,822.0617,143.8786,828.3357,147.4335,829.204,140.2748,822.93,136.72" style="stroke:#181818;stroke-width:1;"/><text fill="#000000" font-family="sans-serif" font-size="13" lengthAdjust="spacing" textLength="8.271" x="818.7836" y="156.7214">1</text><text fill="#000000" font-family="sans-serif" font-size="13" lengthAdjust="spacing" textLength="23.0356" x="795.458" y="597.068">0..*</text></g><!--link Teacher to Course--><g class="link" data-entity-1="Teacher" data-entity-2="Course" data-source-line="61" data-uid="lnk13" id="link_Teacher_Course"><path codeLine="61" d="M272.41,334.57 C279.94,355.92 289.34,379.84 298.79,401.76" fill="none" id="Teacher-Course" style="stroke:#181818;stroke-width:1;"/><text fill="#000000" font-family="sans-serif" font-size="13" lengthAdjust="spacing" textLength="23.0356" x="249.6263" y="354.1407">1..*</text><text fill="#000000" font-family="sans-serif" font-size="13" lengthAdjust="spacing" textLength="23.0356" x="270.7841" y="391.1233">0..*</text></g><!--link Course to Teacher--><g class="link" data-entity-1="Course" data-entity-2="Teacher" data-source-line="62" data-uid="lnk14" id="link_Course_Teacher"><path codeLine="62" d="M324.04,401.76 C316.11,379.84 306.49,355.92 296.99,334.57" fill="none" id="Course-Teacher" style="stroke:#181818;stroke-width:1;"/><text fill="#000000" font-family="sans-serif" font-size="13" lengthAdjust="spacing" textLength="8.271" x="314.1668" y="391.1233">1</text><text fill="#000000" font-family="sans-serif" font-size="13" lengthAdjust="spacing" textLength="8.271" x="292.5267" y="354.1407">1</text></g><!--link Course to Subject--><g class="link" data-entity-1="Course" data-entity-2="Subject" data-source-line="63" data-uid="lnk15" id="link_Course_Subject"><path codeLine="63" d="M339.83,548.37 C339.83,570.96 339.83,595.31 339.83,615.79" fill="none" id="Course-Subject" style="stroke:#181818;stroke-width:1;"/><text fill="#000000" font-family="sans-serif" font-size="13" lengthAdjust="spacing" textLength="8.271" x="331.4617" y="568.1368">1</text><text fill="#000000" font-family="sans-serif" font-size="13" lengthAdjust="spacing" textLength="8.271" x="331.31" y="605.2944">1</text></g><!--link Course to Classroom--><g class="link" data-entity-1="Course" data-entity-2="Classroom" data-source-line="64" data-uid="lnk16" id="link_Course_Classroom"><path codeLine="64" d="M477.52,532.15 C536.29,556.05 604.72,583.88 663.45,607.77" fill="none" id="Course-Classroom" style="stroke:#181818;stroke-width:1;"/><text fill="#000000" font-family="sans-serif" font-size="13" lengthAdjust="spacing" textLength="23.0356" x="485.2136" y="531.7726">0..*</text><text fill="#000000" font-family="sans-serif" font-size="13" lengthAdjust="spacing" textLength="8.271" x="647.2845" y="601.1197">1</text></g><!--link Student to Course--><g class="link" data-entity-1="Student" data-entity-2="Course" data-source-line="66" data-uid="lnk17" id="link_Student_Course"><path codeLine="66" d="M564,342.5 C531.25,361.74 495.85,382.52 463.08,401.77" fill="none" id="Student-Course" style="stroke:#181818;stroke-width:1;"/><text fill="#000000" font-family="sans-serif" font-size="13" lengthAdjust="spacing" textLength="23.0356" x="528.1981" y="362.2582">0..*</text><text fill="#000000" font-family="sans-serif" font-size="13" lengthAdjust="spacing" textLength="23.0356" x="450.7329" y="391.1343">0..*</text></g><!--SRC=[hLHTQyCW57tFhv0yPLrRcjTG1gE3KTZwiEuFMBrj7OaMDOKozj-dKPFcgtImF4Izz-JUS_H4acEbq9OSXSZHTuJCCqCS5v2XhPQC7tm8Kof1gKxqT1GSDcMn0zdAF5hy9s1o19beDsR81nuoT1QCDi2jBYbmdIWtsahL901_eeXKD7s1MpoXEENY0h1-wII8u1eJlUPxqQ5QyLk9KYf8I3Lao2tRJ0yIKnZZEaNjJwSE7bhrfFZFRadnBUvMOiHpAV8SgADW3kkDARrqgoUlmc7M_1x1e5-j29MO-3i-BOCqr_IfKREoRob4KUknYm5Z6FRuX0dJbmmnhaEibD8eNRMu17yenGwtsJOqgd3DmQ47zi-6DmCRNkw-WDWpTHCVxlhN4rEW_z_XldCjmLFgQV3ndeYgstsRzKmBneq_9DRiR7oDz_lRRZI0F_nLHynf3hQ9EK31HwKxT84vFi07425fPRV0rTzCSHgZoMo6uiLyFeb3ZP5iEAVXx83k4MJjwYWADq-SLfahZFEgTvujO7DfGwAV2UuAcKLTCctr35V45U2wvoy0]--></g></svg>