<svg xmlns="http://www.w3.org/2000/svg" xmlns:xlink="http://www.w3.org/1999/xlink" contentStyleType="text/css" data-diagram-type="CLASS" height="1002px" preserveAspectRatio="none" style="width:1095px;height:1002px;background:#FFFFFF;" version="1.1" viewBox="0 0 1095 1002" width="1095px" zoomAndPan="magnify"><defs/><g><!--class School--><g class="entity" data-entity="School" data-source-line="1" data-uid="ent0002" id="entity_School"><rect fill="#F1F1F1" height="162.0781" rx="2.5" ry="2.5" style="stroke:#181818;stroke-width:0.5;" width="342.1279" x="280.9" y="7"/><ellipse cx="424.4752" cy="23" fill="#ADD1B2" rx="11" ry="11" style="stroke:#181818;stroke-width:1;"/><path d="M427.4439,28.6406 Q426.8658,28.9375 426.2252,29.0781 Q425.5846,29.2344 424.8814,29.2344 Q422.3814,29.2344 421.0533,27.5938 Q419.7408,25.9375 419.7408,22.8125 Q419.7408,19.6875 421.0533,18.0313 Q422.3814,16.375 424.8814,16.375 Q425.5846,16.375 426.2252,16.5313 Q426.8814,16.6875 427.4439,16.9844 L427.4439,19.7031 Q426.8189,19.125 426.2252,18.8594 Q425.6314,18.5781 425.0064,18.5781 Q423.6627,18.5781 422.9752,19.6563 Q422.2877,20.7188 422.2877,22.8125 Q422.2877,24.9063 422.9752,25.9844 Q423.6627,27.0469 425.0064,27.0469 Q425.6314,27.0469 426.2252,26.7813 Q426.8189,26.5 427.4439,25.9219 L427.4439,28.6406 Z " fill="#000000"/><text fill="#000000" font-family="sans-serif" font-size="14" lengthAdjust="spacing" textLength="46.4775" x="444.9752" y="27.8467">School</text><line style="stroke:#181818;stroke-width:0.5;" x1="281.9" x2="622.0279" y1="39" y2="39"/><rect fill="none" height="6" style="stroke:#C82930;stroke-width:1;" width="6" x="288.9" y="49.6484"/><text fill="#000000" font-family="sans-serif" font-size="14" lengthAdjust="spacing" textLength="89.0586" x="300.9" y="55.9951">name: string</text><rect fill="none" height="6" style="stroke:#C82930;stroke-width:1;" width="6" x="288.9" y="65.9453"/><text fill="#000000" font-family="sans-serif" font-size="14" lengthAdjust="spacing" textLength="104.665" x="300.9" y="72.292">address: string</text><line style="stroke:#181818;stroke-width:0.5;" x1="281.9" x2="622.0279" y1="79.5938" y2="79.5938"/><ellipse cx="291.9" cy="93.2422" fill="#84BE84" rx="3" ry="3" style="stroke:#038048;stroke-width:1;"/><text fill="#000000" font-family="sans-serif" font-size="14" lengthAdjust="spacing" textLength="248.9785" x="300.9" y="96.5889">addStudent(student: Student): void</text><ellipse cx="291.9" cy="109.5391" fill="#84BE84" rx="3" ry="3" style="stroke:#038048;stroke-width:1;"/><text fill="#000000" font-family="sans-serif" font-size="14" lengthAdjust="spacing" textLength="252.2256" x="300.9" y="112.8857">addTeacher(teacher: Teacher): void</text><ellipse cx="291.9" cy="125.8359" fill="#84BE84" rx="3" ry="3" style="stroke:#038048;stroke-width:1;"/><text fill="#000000" font-family="sans-serif" font-size="14" lengthAdjust="spacing" textLength="229.79" x="300.9" y="129.1826">addCourse(course: Course): void</text><ellipse cx="291.9" cy="142.1328" fill="#84BE84" rx="3" ry="3" style="stroke:#038048;stroke-width:1;"/><text fill="#000000" font-family="sans-serif" font-size="14" lengthAdjust="spacing" textLength="303.2285" x="300.9" y="145.4795">addClassroom(classroom: Classroom): void</text><ellipse cx="291.9" cy="158.4297" fill="#84BE84" rx="3" ry="3" style="stroke:#038048;stroke-width:1;"/><text fill="#000000" font-family="sans-serif" font-size="14" lengthAdjust="spacing" textLength="316.1279" x="300.9" y="161.7764">addAdmin(admin: SchoolAdministrator): void</text></g><!--class SchoolAdministrator--><g class="entity" data-entity="SchoolAdministrator" data-source-line="11" data-uid="ent0003" id="entity_SchoolAdministrator"><rect fill="#F1F1F1" height="96.8906" rx="2.5" ry="2.5" style="stroke:#181818;stroke-width:0.5;" width="255.79" x="143.06" y="254.52"/><ellipse cx="195.6249" cy="270.52" fill="#ADD1B2" rx="11" ry="11" style="stroke:#181818;stroke-width:1;"/><path d="M198.5937,276.1606 Q198.0156,276.4575 197.3749,276.5981 Q196.7343,276.7544 196.0312,276.7544 Q193.5312,276.7544 192.2031,275.1138 Q190.8906,273.4575 190.8906,270.3325 Q190.8906,267.2075 192.2031,265.5513 Q193.5312,263.895 196.0312,263.895 Q196.7343,263.895 197.3749,264.0513 Q198.0312,264.2075 198.5937,264.5044 L198.5937,267.2231 Q197.9687,266.645 197.3749,266.3794 Q196.7812,266.0981 196.1562,266.0981 Q194.8124,266.0981 194.1249,267.1763 Q193.4374,268.2388 193.4374,270.3325 Q193.4374,272.4263 194.1249,273.5044 Q194.8124,274.5669 196.1562,274.5669 Q196.7812,274.5669 197.3749,274.3013 Q197.9687,274.02 198.5937,273.4419 L198.5937,276.1606 Z " fill="#000000"/><text fill="#000000" font-family="sans-serif" font-size="14" lengthAdjust="spacing" textLength="142.1602" x="216.1249" y="275.3667">SchoolAdministrator</text><line style="stroke:#181818;stroke-width:0.5;" x1="144.06" x2="397.85" y1="286.52" y2="286.52"/><rect fill="none" height="6" style="stroke:#C82930;stroke-width:1;" width="6" x="151.06" y="297.1684"/><text fill="#000000" font-family="sans-serif" font-size="14" lengthAdjust="spacing" textLength="89.0586" x="163.06" y="303.5151">name: string</text><rect fill="none" height="6" style="stroke:#C82930;stroke-width:1;" width="6" x="151.06" y="313.4653"/><text fill="#000000" font-family="sans-serif" font-size="14" lengthAdjust="spacing" textLength="101.7461" x="163.06" y="319.812">contact: string</text><line style="stroke:#181818;stroke-width:0.5;" x1="144.06" x2="397.85" y1="327.1138" y2="327.1138"/><ellipse cx="154.06" cy="340.7622" fill="#84BE84" rx="3" ry="3" style="stroke:#038048;stroke-width:1;"/><text fill="#000000" font-family="sans-serif" font-size="14" lengthAdjust="spacing" textLength="229.79" x="163.06" y="344.1089">addCourse(course: Course): void</text></g><!--class Student--><g class="entity" data-entity="Student" data-source-line="17" data-uid="ent0004" id="entity_Student"><rect fill="#F1F1F1" height="145.7813" rx="2.5" ry="2.5" style="stroke:#181818;stroke-width:0.5;" width="379.2402" x="505.34" y="230.08"/><ellipse cx="663.1545" cy="246.08" fill="#ADD1B2" rx="11" ry="11" style="stroke:#181818;stroke-width:1;"/><path d="M666.1232,251.7206 Q665.5451,252.0175 664.9045,252.1581 Q664.2638,252.3144 663.5607,252.3144 Q661.0607,252.3144 659.7326,250.6737 Q658.4201,249.0175 658.4201,245.8925 Q658.4201,242.7675 659.7326,241.1112 Q661.0607,239.455 663.5607,239.455 Q664.2638,239.455 664.9045,239.6112 Q665.5607,239.7675 666.1232,240.0644 L666.1232,242.7831 Q665.4982,242.205 664.9045,241.9394 Q664.3107,241.6581 663.6857,241.6581 Q662.342,241.6581 661.6545,242.7362 Q660.967,243.7987 660.967,245.8925 Q660.967,247.9862 661.6545,249.0644 Q662.342,250.1269 663.6857,250.1269 Q664.3107,250.1269 664.9045,249.8612 Q665.4982,249.58 666.1232,249.0019 L666.1232,251.7206 Z " fill="#000000"/><text fill="#000000" font-family="sans-serif" font-size="14" lengthAdjust="spacing" textLength="55.1113" x="683.6545" y="250.9267">Student</text><line style="stroke:#181818;stroke-width:0.5;" x1="506.34" x2="883.5802" y1="262.08" y2="262.08"/><rect fill="none" height="6" style="stroke:#C82930;stroke-width:1;" width="6" x="513.34" y="272.7284"/><text fill="#000000" font-family="sans-serif" font-size="14" lengthAdjust="spacing" textLength="115.8896" x="525.34" y="279.0751">studentId: string</text><rect fill="none" height="6" style="stroke:#C82930;stroke-width:1;" width="6" x="513.34" y="289.0253"/><text fill="#000000" font-family="sans-serif" font-size="14" lengthAdjust="spacing" textLength="89.0586" x="525.34" y="295.372">name: string</text><rect fill="none" height="6" style="stroke:#C82930;stroke-width:1;" width="6" x="513.34" y="305.3222"/><text fill="#000000" font-family="sans-serif" font-size="14" lengthAdjust="spacing" textLength="90.0771" x="525.34" y="311.6689">grade: string</text><line style="stroke:#181818;stroke-width:0.5;" x1="506.34" x2="883.5802" y1="318.9706" y2="318.9706"/><ellipse cx="516.34" cy="332.6191" fill="#84BE84" rx="3" ry="3" style="stroke:#038048;stroke-width:1;"/><text fill="#000000" font-family="sans-serif" font-size="14" lengthAdjust="spacing" textLength="256.0264" x="525.34" y="335.9657">enrollInCourse(course: Course): void</text><ellipse cx="516.34" cy="348.9159" fill="#84BE84" rx="3" ry="3" style="stroke:#038048;stroke-width:1;"/><text fill="#000000" font-family="sans-serif" font-size="14" lengthAdjust="spacing" textLength="353.2402" x="525.34" y="352.2626">submitAssignment(assignment: Assignment): void</text><ellipse cx="516.34" cy="365.2128" fill="#84BE84" rx="3" ry="3" style="stroke:#038048;stroke-width:1;"/><text fill="#000000" font-family="sans-serif" font-size="14" lengthAdjust="spacing" textLength="207.4844" x="525.34" y="368.5595">takeExam(exam: Exam): void</text></g><!--class Teacher--><g class="entity" data-entity="Teacher" data-source-line="26" data-uid="ent0005" id="entity_Teacher"><rect fill="#F1F1F1" height="145.7813" rx="2.5" ry="2.5" style="stroke:#181818;stroke-width:0.5;" width="375.918" x="7" y="659.34"/><ellipse cx="162.3672" cy="675.34" fill="#ADD1B2" rx="11" ry="11" style="stroke:#181818;stroke-width:1;"/><path d="M165.3359,680.9806 Q164.7578,681.2775 164.1172,681.4181 Q163.4766,681.5744 162.7734,681.5744 Q160.2734,681.5744 158.9453,679.9337 Q157.6328,678.2775 157.6328,675.1525 Q157.6328,672.0275 158.9453,670.3712 Q160.2734,668.715 162.7734,668.715 Q163.4766,668.715 164.1172,668.8712 Q164.7734,669.0275 165.3359,669.3244 L165.3359,672.0431 Q164.7109,671.465 164.1172,671.1994 Q163.5234,670.9181 162.8984,670.9181 Q161.5547,670.9181 160.8672,671.9962 Q160.1797,673.0587 160.1797,675.1525 Q160.1797,677.2462 160.8672,678.3244 Q161.5547,679.3869 162.8984,679.3869 Q163.5234,679.3869 164.1172,679.1212 Q164.7109,678.84 165.3359,678.2619 L165.3359,680.9806 Z " fill="#000000"/><text fill="#000000" font-family="sans-serif" font-size="14" lengthAdjust="spacing" textLength="56.6836" x="182.8672" y="680.1867">Teacher</text><line style="stroke:#181818;stroke-width:0.5;" x1="8" x2="381.918" y1="691.34" y2="691.34"/><rect fill="none" height="6" style="stroke:#C82930;stroke-width:1;" width="6" x="15" y="701.9884"/><text fill="#000000" font-family="sans-serif" font-size="14" lengthAdjust="spacing" textLength="115.9922" x="27" y="708.3351">teacherId: string</text><rect fill="none" height="6" style="stroke:#C82930;stroke-width:1;" width="6" x="15" y="718.2853"/><text fill="#000000" font-family="sans-serif" font-size="14" lengthAdjust="spacing" textLength="89.0586" x="27" y="724.632">name: string</text><rect fill="none" height="6" style="stroke:#C82930;stroke-width:1;" width="6" x="15" y="734.5822"/><text fill="#000000" font-family="sans-serif" font-size="14" lengthAdjust="spacing" textLength="132.1797" x="27" y="740.9289">department: string</text><line style="stroke:#181818;stroke-width:0.5;" x1="8" x2="381.918" y1="748.2306" y2="748.2306"/><ellipse cx="18" cy="761.8791" fill="#84BE84" rx="3" ry="3" style="stroke:#038048;stroke-width:1;"/><text fill="#000000" font-family="sans-serif" font-size="14" lengthAdjust="spacing" textLength="242.6895" x="27" y="765.2257">teachCourse(course: Course): void</text><ellipse cx="18" cy="778.1759" fill="#84BE84" rx="3" ry="3" style="stroke:#038048;stroke-width:1;"/><text fill="#000000" font-family="sans-serif" font-size="14" lengthAdjust="spacing" textLength="349.918" x="27" y="781.5226">createAssignment(assignment: Assignment): void</text><ellipse cx="18" cy="794.4728" fill="#84BE84" rx="3" ry="3" style="stroke:#038048;stroke-width:1;"/><text fill="#000000" font-family="sans-serif" font-size="14" lengthAdjust="spacing" textLength="221.4434" x="27" y="797.8195">createExam(exam: Exam): void</text></g><!--class Parent--><g class="entity" data-entity="Parent" data-source-line="35" data-uid="ent0006" id="entity_Parent"><rect fill="#F1F1F1" height="96.8906" rx="2.5" ry="2.5" style="stroke:#181818;stroke-width:0.5;" width="327.9023" x="656.01" y="469.15"/><ellipse cx="792.8347" cy="485.15" fill="#ADD1B2" rx="11" ry="11" style="stroke:#181818;stroke-width:1;"/><path d="M795.8035,490.7906 Q795.2253,491.0875 794.5847,491.2281 Q793.9441,491.3844 793.241,491.3844 Q790.741,491.3844 789.4128,489.7438 Q788.1003,488.0875 788.1003,484.9625 Q788.1003,481.8375 789.4128,480.1813 Q790.741,478.525 793.241,478.525 Q793.9441,478.525 794.5847,478.6813 Q795.241,478.8375 795.8035,479.1344 L795.8035,481.8531 Q795.1785,481.275 794.5847,481.0094 Q793.991,480.7281 793.366,480.7281 Q792.0222,480.7281 791.3347,481.8063 Q790.6472,482.8688 790.6472,484.9625 Q790.6472,487.0563 791.3347,488.1344 Q792.0222,489.1969 793.366,489.1969 Q793.991,489.1969 794.5847,488.9313 Q795.1785,488.65 795.8035,488.0719 L795.8035,490.7906 Z " fill="#000000"/><text fill="#000000" font-family="sans-serif" font-size="14" lengthAdjust="spacing" textLength="45.7529" x="813.3347" y="489.9967">Parent</text><line style="stroke:#181818;stroke-width:0.5;" x1="657.01" x2="982.9123" y1="501.15" y2="501.15"/><rect fill="none" height="6" style="stroke:#C82930;stroke-width:1;" width="6" x="664.01" y="511.7984"/><text fill="#000000" font-family="sans-serif" font-size="14" lengthAdjust="spacing" textLength="89.0586" x="676.01" y="518.1451">name: string</text><rect fill="none" height="6" style="stroke:#C82930;stroke-width:1;" width="6" x="664.01" y="528.0953"/><text fill="#000000" font-family="sans-serif" font-size="14" lengthAdjust="spacing" textLength="101.7461" x="676.01" y="534.442">contact: string</text><line style="stroke:#181818;stroke-width:0.5;" x1="657.01" x2="982.9123" y1="541.7438" y2="541.7438"/><ellipse cx="667.01" cy="555.3922" fill="#84BE84" rx="3" ry="3" style="stroke:#038048;stroke-width:1;"/><text fill="#000000" font-family="sans-serif" font-size="14" lengthAdjust="spacing" textLength="301.9023" x="676.01" y="558.7389">viewStudentReport(student: Student): void</text></g><!--class Course--><g class="entity" data-entity="Course" data-source-line="41" data-uid="ent0007" id="entity_Course"><rect fill="#F1F1F1" height="129.4844" rx="2.5" ry="2.5" style="stroke:#181818;stroke-width:0.5;" width="278.2256" x="271.85" y="452.86"/><ellipse cx="382.2743" cy="468.86" fill="#ADD1B2" rx="11" ry="11" style="stroke:#181818;stroke-width:1;"/><path d="M385.2431,474.5006 Q384.6649,474.7975 384.0243,474.9381 Q383.3837,475.0944 382.6806,475.0944 Q380.1806,475.0944 378.8524,473.4537 Q377.5399,471.7975 377.5399,468.6725 Q377.5399,465.5475 378.8524,463.8912 Q380.1806,462.235 382.6806,462.235 Q383.3837,462.235 384.0243,462.3912 Q384.6806,462.5475 385.2431,462.8444 L385.2431,465.5631 Q384.6181,464.985 384.0243,464.7194 Q383.4306,464.4381 382.8056,464.4381 Q381.4618,464.4381 380.7743,465.5162 Q380.0868,466.5787 380.0868,468.6725 Q380.0868,470.7662 380.7743,471.8444 Q381.4618,472.9069 382.8056,472.9069 Q383.4306,472.9069 384.0243,472.6412 Q384.6181,472.36 385.2431,471.7819 L385.2431,474.5006 Z " fill="#000000"/><text fill="#000000" font-family="sans-serif" font-size="14" lengthAdjust="spacing" textLength="48.877" x="402.7743" y="473.7067">Course</text><line style="stroke:#181818;stroke-width:0.5;" x1="272.85" x2="549.0756" y1="484.86" y2="484.86"/><rect fill="none" height="6" style="stroke:#C82930;stroke-width:1;" width="6" x="279.85" y="495.5084"/><text fill="#000000" font-family="sans-serif" font-size="14" lengthAdjust="spacing" textLength="109.1699" x="291.85" y="501.8551">courseId: string</text><rect fill="none" height="6" style="stroke:#C82930;stroke-width:1;" width="6" x="279.85" y="511.8053"/><text fill="#000000" font-family="sans-serif" font-size="14" lengthAdjust="spacing" textLength="76.7266" x="291.85" y="518.152">title: string</text><rect fill="none" height="6" style="stroke:#C82930;stroke-width:1;" width="6" x="279.85" y="528.1022"/><text fill="#000000" font-family="sans-serif" font-size="14" lengthAdjust="spacing" textLength="127.1963" x="291.85" y="534.4489">description: string</text><line style="stroke:#181818;stroke-width:0.5;" x1="272.85" x2="549.0756" y1="541.7506" y2="541.7506"/><ellipse cx="282.85" cy="555.3991" fill="#84BE84" rx="3" ry="3" style="stroke:#038048;stroke-width:1;"/><text fill="#000000" font-family="sans-serif" font-size="14" lengthAdjust="spacing" textLength="248.9785" x="291.85" y="558.7457">addStudent(student: Student): void</text><ellipse cx="282.85" cy="571.6959" fill="#84BE84" rx="3" ry="3" style="stroke:#038048;stroke-width:1;"/><text fill="#000000" font-family="sans-serif" font-size="14" lengthAdjust="spacing" textLength="252.2256" x="291.85" y="575.0426">addTeacher(teacher: Teacher): void</text></g><!--class Classroom--><g class="entity" data-entity="Classroom" data-source-line="49" data-uid="ent0008" id="entity_Classroom"><rect fill="#F1F1F1" height="96.8906" rx="2.5" ry="2.5" style="stroke:#181818;stroke-width:0.5;" width="168.1191" x="919.9" y="254.52"/><ellipse cx="963.1432" cy="270.52" fill="#ADD1B2" rx="11" ry="11" style="stroke:#181818;stroke-width:1;"/><path d="M966.112,276.1606 Q965.5338,276.4575 964.8932,276.5981 Q964.2526,276.7544 963.5495,276.7544 Q961.0495,276.7544 959.7213,275.1138 Q958.4088,273.4575 958.4088,270.3325 Q958.4088,267.2075 959.7213,265.5513 Q961.0495,263.895 963.5495,263.895 Q964.2526,263.895 964.8932,264.0513 Q965.5495,264.2075 966.112,264.5044 L966.112,267.2231 Q965.487,266.645 964.8932,266.3794 Q964.2995,266.0981 963.6745,266.0981 Q962.3307,266.0981 961.6432,267.1763 Q960.9557,268.2388 960.9557,270.3325 Q960.9557,272.4263 961.6432,273.5044 Q962.3307,274.5669 963.6745,274.5669 Q964.2995,274.5669 964.8932,274.3013 Q965.487,274.02 966.112,273.4419 L966.112,276.1606 Z " fill="#000000"/><text fill="#000000" font-family="sans-serif" font-size="14" lengthAdjust="spacing" textLength="73.3564" x="983.4195" y="275.3667">Classroom</text><line style="stroke:#181818;stroke-width:0.5;" x1="920.9" x2="1087.0191" y1="286.52" y2="286.52"/><rect fill="none" height="6" style="stroke:#C82930;stroke-width:1;" width="6" x="927.9" y="297.1684"/><text fill="#000000" font-family="sans-serif" font-size="14" lengthAdjust="spacing" textLength="133.6494" x="939.9" y="303.5151">classroomId: string</text><rect fill="none" height="6" style="stroke:#C82930;stroke-width:1;" width="6" x="927.9" y="313.4653"/><text fill="#000000" font-family="sans-serif" font-size="14" lengthAdjust="spacing" textLength="142.1191" x="939.9" y="319.812">roomNumber: string</text><rect fill="none" height="6" style="stroke:#C82930;stroke-width:1;" width="6" x="927.9" y="329.7622"/><text fill="#000000" font-family="sans-serif" font-size="14" lengthAdjust="spacing" textLength="86.5225" x="939.9" y="336.1089">capacity: int</text><line style="stroke:#181818;stroke-width:0.5;" x1="920.9" x2="1087.0191" y1="343.4106" y2="343.4106"/></g><!--class Assignment--><g class="entity" data-entity="Assignment" data-source-line="55" data-uid="ent0009" id="entity_Assignment"><rect fill="#F1F1F1" height="113.1875" rx="2.5" ry="2.5" style="stroke:#181818;stroke-width:0.5;" width="169.8008" x="368.06" y="882.12"/><ellipse cx="407.9779" cy="898.12" fill="#ADD1B2" rx="11" ry="11" style="stroke:#181818;stroke-width:1;"/><path d="M410.9466,903.7606 Q410.3685,904.0575 409.7279,904.1981 Q409.0872,904.3544 408.3841,904.3544 Q405.8841,904.3544 404.556,902.7137 Q403.2435,901.0575 403.2435,897.9325 Q403.2435,894.8075 404.556,893.1512 Q405.8841,891.495 408.3841,891.495 Q409.0872,891.495 409.7279,891.6512 Q410.3841,891.8075 410.9466,892.1044 L410.9466,894.8231 Q410.3216,894.245 409.7279,893.9794 Q409.1341,893.6981 408.5091,893.6981 Q407.1654,893.6981 406.4779,894.7762 Q405.7904,895.8387 405.7904,897.9325 Q405.7904,900.0262 406.4779,901.1044 Q407.1654,902.1669 408.5091,902.1669 Q409.1341,902.1669 409.7279,901.9012 Q410.3216,901.62 410.9466,901.0419 L410.9466,903.7606 Z " fill="#000000"/><text fill="#000000" font-family="sans-serif" font-size="14" lengthAdjust="spacing" textLength="82.4277" x="427.5152" y="902.9667">Assignment</text><line style="stroke:#181818;stroke-width:0.5;" x1="369.06" x2="536.8608" y1="914.12" y2="914.12"/><rect fill="none" height="6" style="stroke:#C82930;stroke-width:1;" width="6" x="376.06" y="924.7684"/><text fill="#000000" font-family="sans-serif" font-size="14" lengthAdjust="spacing" textLength="143.8008" x="388.06" y="931.1151">assignmentId: string</text><rect fill="none" height="6" style="stroke:#C82930;stroke-width:1;" width="6" x="376.06" y="941.0653"/><text fill="#000000" font-family="sans-serif" font-size="14" lengthAdjust="spacing" textLength="76.7266" x="388.06" y="947.412">title: string</text><rect fill="none" height="6" style="stroke:#C82930;stroke-width:1;" width="6" x="376.06" y="957.3622"/><text fill="#000000" font-family="sans-serif" font-size="14" lengthAdjust="spacing" textLength="127.1963" x="388.06" y="963.7089">description: string</text><rect fill="none" height="6" style="stroke:#C82930;stroke-width:1;" width="6" x="376.06" y="973.6591"/><text fill="#000000" font-family="sans-serif" font-size="14" lengthAdjust="spacing" textLength="102.4639" x="388.06" y="980.0057">dueDate: Date</text><line style="stroke:#181818;stroke-width:0.5;" x1="369.06" x2="536.8608" y1="987.3075" y2="987.3075"/></g><!--class Exam--><g class="entity" data-entity="Exam" data-source-line="62" data-uid="ent0010" id="entity_Exam"><rect fill="#F1F1F1" height="96.8906" rx="2.5" ry="2.5" style="stroke:#181818;stroke-width:0.5;" width="127.4863" x="585.22" y="890.27"/><ellipse cx="625.4824" cy="906.27" fill="#ADD1B2" rx="11" ry="11" style="stroke:#181818;stroke-width:1;"/><path d="M628.4512,911.9106 Q627.873,912.2075 627.2324,912.3481 Q626.5918,912.5044 625.8887,912.5044 Q623.3887,912.5044 622.0605,910.8638 Q620.748,909.2075 620.748,906.0825 Q620.748,902.9575 622.0605,901.3013 Q623.3887,899.645 625.8887,899.645 Q626.5918,899.645 627.2324,899.8013 Q627.8887,899.9575 628.4512,900.2544 L628.4512,902.9731 Q627.8262,902.395 627.2324,902.1294 Q626.6387,901.8481 626.0137,901.8481 Q624.6699,901.8481 623.9824,902.9263 Q623.2949,903.9888 623.2949,906.0825 Q623.2949,908.1763 623.9824,909.2544 Q624.6699,910.3169 626.0137,910.3169 Q626.6387,910.3169 627.2324,910.0513 Q627.8262,909.77 628.4512,909.1919 L628.4512,911.9106 Z " fill="#000000"/><text fill="#000000" font-family="sans-serif" font-size="14" lengthAdjust="spacing" textLength="39.3477" x="645.0963" y="911.1167">Exam</text><line style="stroke:#181818;stroke-width:0.5;" x1="586.22" x2="711.7063" y1="922.27" y2="922.27"/><rect fill="none" height="6" style="stroke:#C82930;stroke-width:1;" width="6" x="593.22" y="932.9184"/><text fill="#000000" font-family="sans-serif" font-size="14" lengthAdjust="spacing" textLength="101.4863" x="605.22" y="939.2651">examId: string</text><rect fill="none" height="6" style="stroke:#C82930;stroke-width:1;" width="6" x="593.22" y="949.2153"/><text fill="#000000" font-family="sans-serif" font-size="14" lengthAdjust="spacing" textLength="76.7266" x="605.22" y="955.562">title: string</text><rect fill="none" height="6" style="stroke:#C82930;stroke-width:1;" width="6" x="593.22" y="965.5122"/><text fill="#000000" font-family="sans-serif" font-size="14" lengthAdjust="spacing" textLength="74.1973" x="605.22" y="971.8589">date: Date</text><line style="stroke:#181818;stroke-width:0.5;" x1="586.22" x2="711.7063" y1="979.1606" y2="979.1606"/></g><!--link School to Student--><g class="link" data-entity-1="School" data-entity-2="Student" data-source-line="68" data-uid="lnk11" id="link_School_Student"><path codeLine="68" d="M543.83,169.54 C566.41,189.32 590.44,210.38 612.54,229.75" fill="none" id="School-Student" style="stroke:#181818;stroke-width:1;"/><text fill="#000000" font-family="sans-serif" font-size="13" lengthAdjust="spacing" textLength="8.271" x="543.3926" y="189.2611">1</text><text fill="#000000" font-family="sans-serif" font-size="13" lengthAdjust="spacing" textLength="23.0356" x="580.5899" y="219.1295">1..*</text></g><!--link School to Teacher--><g class="link" data-entity-1="School" data-entity-2="Teacher" data-source-line="69" data-uid="lnk12" id="link_School_Teacher"><path codeLine="69" d="M280.47,122.62 C221.29,143.31 161.09,176.6 125.96,230.08 C39.4,361.84 108.15,555.21 156.97,659.02" fill="none" id="School-Teacher" style="stroke:#181818;stroke-width:1;"/><text fill="#000000" font-family="sans-serif" font-size="13" lengthAdjust="spacing" textLength="8.271" x="264.5241" y="120.917">1</text><text fill="#000000" font-family="sans-serif" font-size="13" lengthAdjust="spacing" textLength="23.0356" x="129.1002" y="648.1485">1..*</text></g><!--link School to SchoolAdministrator--><g class="link" data-entity-1="School" data-entity-2="SchoolAdministrator" data-source-line="70" data-uid="lnk13" id="link_School_SchoolAdministrator"><path codeLine="70" d="M383.53,169.54 C359.3,198.04 332.83,229.18 311.65,254.1" fill="none" id="School-SchoolAdministrator" style="stroke:#181818;stroke-width:1;"/><text fill="#000000" font-family="sans-serif" font-size="13" lengthAdjust="spacing" textLength="8.271" x="369.3169" y="189.2611">1</text><text fill="#000000" font-family="sans-serif" font-size="13" lengthAdjust="spacing" textLength="23.0356" x="292.5755" y="243.6017">1..*</text></g><!--link School to Classroom--><g class="link" data-entity-1="School" data-entity-2="Classroom" data-source-line="71" data-uid="lnk14" id="link_School_Classroom"><path codeLine="71" d="M623.45,129.32 C709.49,152.85 813.87,186.56 901.96,230.08 C915.65,236.84 929.54,245.33 942.48,254.08" fill="none" id="School-Classroom" style="stroke:#181818;stroke-width:1;"/><text fill="#000000" font-family="sans-serif" font-size="13" lengthAdjust="spacing" textLength="8.271" x="630.859" y="127.8148">1</text><text fill="#000000" font-family="sans-serif" font-size="13" lengthAdjust="spacing" textLength="23.0356" x="909.6758" y="243.579">1..*</text></g><!--link School to Course--><g class="link" data-entity-1="School" data-entity-2="Course" data-source-line="72" data-uid="lnk15" id="link_School_Course"><path codeLine="72" d="M444.25,169.46 C436.38,251.46 424.34,377.06 417.1,452.57" fill="none" id="School-Course" style="stroke:#181818;stroke-width:1;"/><text fill="#000000" font-family="sans-serif" font-size="13" lengthAdjust="spacing" textLength="8.271" x="435.255" y="189.1742">1</text><text fill="#000000" font-family="sans-serif" font-size="13" lengthAdjust="spacing" textLength="23.0356" x="393.5154" y="441.7109">1..*</text></g><!--link SchoolAdministrator to Course--><g class="link" data-entity-1="SchoolAdministrator" data-entity-2="Course" data-source-line="74" data-uid="lnk16" id="link_SchoolAdministrator_Course"><path codeLine="74" d="M302.38,351.69 C321.97,381.44 347.42,420.1 368.76,452.51" fill="none" id="SchoolAdministrator-Course" style="stroke:#181818;stroke-width:1;"/><text fill="#000000" font-family="sans-serif" font-size="13" lengthAdjust="spacing" textLength="59.8584" x="346.96" y="418.9269">manages</text></g><!--link Student to Parent--><g class="link" data-entity-1="Student" data-entity-2="Parent" data-source-line="76" data-uid="lnk17" id="link_Student_Parent"><path codeLine="76" d="M737.45,376.25 C755.43,406.83 775.88,441.61 791.92,468.9" fill="none" id="Student-Parent" style="stroke:#181818;stroke-width:1;"/><text fill="#000000" font-family="sans-serif" font-size="13" lengthAdjust="spacing" textLength="23.0356" x="717.4054" y="396.0225">1..*</text><text fill="#000000" font-family="sans-serif" font-size="13" lengthAdjust="spacing" textLength="23.0356" x="763.362" y="458.0738">1..*</text></g><!--link Student to Course--><g class="link" data-entity-1="Student" data-entity-2="Course" data-source-line="77" data-uid="lnk18" id="link_Student_Course"><path codeLine="77" d="M548.89,376.2 C534.24,385.46 519.98,395.4 506.96,405.86 C490.1,419.4 473.85,436.16 459.66,452.5" fill="none" id="Student-Course" style="stroke:#181818;stroke-width:1;"/><text fill="#000000" font-family="sans-serif" font-size="13" lengthAdjust="spacing" textLength="68.9927" x="507.96" y="418.9269">enrolled in</text><text fill="#000000" font-family="sans-serif" font-size="13" lengthAdjust="spacing" textLength="23.0356" x="510.8733" y="395.9677">1..*</text><text fill="#000000" font-family="sans-serif" font-size="13" lengthAdjust="spacing" textLength="23.0356" x="440.7304" y="441.6333">1..*</text></g><!--link Course to Teacher--><g class="link" data-entity-1="Course" data-entity-2="Teacher" data-source-line="78" data-uid="lnk19" id="link_Course_Teacher"><path codeLine="78" d="M345.86,582.68 C321.39,606.77 293.41,634.32 268.24,659.09" fill="none" id="Course-Teacher" style="stroke:#181818;stroke-width:1;"/><text fill="#000000" font-family="sans-serif" font-size="13" lengthAdjust="spacing" textLength="62.9688" x="310.96" y="625.4069">taught by</text><text fill="#000000" font-family="sans-serif" font-size="13" lengthAdjust="spacing" textLength="8.271" x="330.7477" y="602.2383">1</text><text fill="#000000" font-family="sans-serif" font-size="13" lengthAdjust="spacing" textLength="23.0356" x="251.3233" y="648.2254">1..*</text></g><!--link Course to Assignment--><g class="link" data-entity-1="Course" data-entity-2="Assignment" data-source-line="79" data-uid="lnk20" id="link_Course_Assignment"><path codeLine="79" d="M417.38,582.71 C425.56,664.34 439.57,804.09 447.34,881.66" fill="none" id="Course-Assignment" style="stroke:#181818;stroke-width:1;"/><text fill="#000000" font-family="sans-serif" font-size="13" lengthAdjust="spacing" textLength="53.8726" x="440.96" y="736.7969">includes</text><text fill="#000000" font-family="sans-serif" font-size="13" lengthAdjust="spacing" textLength="8.271" x="409.6432" y="602.2714">1</text><text fill="#000000" font-family="sans-serif" font-size="13" lengthAdjust="spacing" textLength="23.0356" x="422.2556" y="870.8675">0..*</text></g><!--link Course to Exam--><g class="link" data-entity-1="Course" data-entity-2="Exam" data-source-line="80" data-uid="lnk21" id="link_Course_Exam"><path codeLine="80" d="M454.65,582.59 C470.39,606.38 487.95,633.79 502.96,659.34 C549.52,738.63 598.04,834.15 625.77,890.17" fill="none" id="Course-Exam" style="stroke:#181818;stroke-width:1;"/><text fill="#000000" font-family="sans-serif" font-size="13" lengthAdjust="spacing" textLength="53.8726" x="581.96" y="736.7969">includes</text><text fill="#000000" font-family="sans-serif" font-size="13" lengthAdjust="spacing" textLength="8.271" x="451.0056" y="602.5925">1</text><text fill="#000000" font-family="sans-serif" font-size="13" lengthAdjust="spacing" textLength="23.0356" x="597.8938" y="879.3649">0..*</text></g><!--link Student to Assignment--><g class="link" data-entity-1="Student" data-entity-2="Assignment" data-source-line="82" data-uid="lnk22" id="link_Student_Assignment"><path codeLine="82" d="M667.32,376.36 C618.52,504.16 518.11,767.1 474.25,881.96" fill="none" id="Student-Assignment" style="stroke:#181818;stroke-width:1;"/><text fill="#000000" font-family="sans-serif" font-size="13" lengthAdjust="spacing" textLength="51.4097" x="577.96" y="625.4069">submits</text></g><!--link Student to Exam--><g class="link" data-entity-1="Student" data-entity-2="Exam" data-source-line="83" data-uid="lnk23" id="link_Student_Exam"><path codeLine="83" d="M883.63,376.25 C937.41,400.88 985.65,428.38 1000.96,452.86 C1031.48,501.65 1022.85,529.12 1000.96,582.34 C942.64,724.09 797.42,839.3 712.84,897.2" fill="none" id="Student-Exam" style="stroke:#181818;stroke-width:1;"/><text fill="#000000" font-family="sans-serif" font-size="13" lengthAdjust="spacing" textLength="35.3628" x="985.96" y="625.4069">takes</text></g><!--link Teacher to Assignment--><g class="link" data-entity-1="Teacher" data-entity-2="Assignment" data-source-line="84" data-uid="lnk24" id="link_Teacher_Assignment"><path codeLine="84" d="M226.67,805.49 C236.51,822.31 248.61,839.09 262.96,852.12 C292.69,879.12 332.36,898.8 367.76,912.43" fill="none" id="Teacher-Assignment" style="stroke:#181818;stroke-width:1;"/><text fill="#000000" font-family="sans-serif" font-size="13" lengthAdjust="spacing" textLength="48.3247" x="263.96" y="848.1869">creates</text></g><!--link Teacher to Exam--><g class="link" data-entity-1="Teacher" data-entity-2="Exam" data-source-line="85" data-uid="lnk25" id="link_Teacher_Exam"><path codeLine="85" d="M383.14,805.17 C439.16,828.16 500.2,854.78 554.96,882.12 C564.8,887.04 575,892.58 584.9,898.21" fill="none" id="Teacher-Exam" style="stroke:#181818;stroke-width:1;"/><text fill="#000000" font-family="sans-serif" font-size="13" lengthAdjust="spacing" textLength="48.3247" x="488.96" y="848.1869">creates</text></g><!--SRC=[jLJDRkCW4BxxAL1ERgjKtIktgEsXbrNLxWjCOEIWjI42t1zL- -uB1eCTdAwhQdCmPEQRds-66TQ2CUIP7PHgoKT5t6zB97H8YR5Qo2QAW7EDnioaLrxwR7kEqjOcd9H4mGKbBqhm3Fo5m0weQnjEIgAW0DwgNXkisN1G4lwMA9-uLgghsNXpsF5Qm7Uy4x86_wMHxY0IZWzObRBuKrLiKf8PvhFwC2KjC5lMvrCsELeeMeeGg_d0Jy8iH6uqS3o9YrAhjdsGAqff-dqdxCuOqSZEDnBIbP8idXjP-8ttRz3Lw3wK-6j1AROtKOfzNqE9un6q3IdCU0q-Lf1Y6i7Y5qa5et_HUWGzRTJgf_0Yy3Ls-GcFIf-Vc1GgC4kX0k6YVbROjYoWOLeShL3oFqviJdGSkvphA2dIzSAVVRVt_kPbWoCmOTyf4T9ctxbRoNbkvhUAuJGzthcMK-A_EQJlUmhcdyAwC3DFSQDkVcp8TkkEw-lBpLZePMKixXdBSXij0rChpgY7DpIcDzzk3dKRPwe32GqQXujxAPfdHs4Cpkj7Js4J8NTDhU9xNgHDtKxfcuCb-_TJtCs0sqqcM4ZMkhXc6Na_36_2f1mTOkeaB3upLGTBlznCDQwl4wkm96RgO1KLVm40]--></g></svg>