<svg xmlns="http://www.w3.org/2000/svg" xmlns:xlink="http://www.w3.org/1999/xlink" contentStyleType="text/css" data-diagram-type="CLASS" height="793px" preserveAspectRatio="none" style="width:823px;height:793px;background:#FFFFFF;" version="1.1" viewBox="0 0 823 793" width="823px" zoomAndPan="magnify"><defs/><g><!--class School--><g class="entity" data-entity="School" data-source-line="1" data-uid="ent0002" id="entity_School"><rect fill="#F1F1F1" height="113.1875" rx="2.5" ry="2.5" style="stroke:#181818;stroke-width:0.5;" width="167.1689" x="309.33" y="31.44"/><ellipse cx="365.4257" cy="47.44" fill="#ADD1B2" rx="11" ry="11" style="stroke:#181818;stroke-width:1;"/><path d="M368.3945,53.0806 Q367.8163,53.3775 367.1757,53.5181 Q366.5351,53.6744 365.832,53.6744 Q363.332,53.6744 362.0038,52.0337 Q360.6913,50.3775 360.6913,47.2525 Q360.6913,44.1275 362.0038,42.4712 Q363.332,40.815 365.832,40.815 Q366.5351,40.815 367.1757,40.9712 Q367.832,41.1275 368.3945,41.4244 L368.3945,44.1431 Q367.7695,43.565 367.1757,43.2994 Q366.582,43.0181 365.957,43.0181 Q364.6132,43.0181 363.9257,44.0962 Q363.2382,45.1587 363.2382,47.2525 Q363.2382,49.3462 363.9257,50.4244 Q364.6132,51.4869 365.957,51.4869 Q366.582,51.4869 367.1757,51.2212 Q367.7695,50.94 368.3945,50.3619 L368.3945,53.0806 Z " fill="#000000"/><text fill="#000000" font-family="sans-serif" font-size="14" lengthAdjust="spacing" textLength="46.4775" x="385.9257" y="52.2867">School</text><line style="stroke:#181818;stroke-width:0.5;" x1="310.33" x2="475.4989" y1="63.44" y2="63.44"/><rect fill="none" height="6" style="stroke:#C82930;stroke-width:1;" width="6" x="317.33" y="74.0884"/><text fill="#000000" font-family="sans-serif" font-size="14" lengthAdjust="spacing" textLength="90.6514" x="329.33" y="80.4351">name: String</text><rect fill="none" height="6" style="stroke:#C82930;stroke-width:1;" width="6" x="317.33" y="90.3853"/><text fill="#000000" font-family="sans-serif" font-size="14" lengthAdjust="spacing" textLength="106.2578" x="329.33" y="96.732">address: String</text><line style="stroke:#181818;stroke-width:0.5;" x1="310.33" x2="475.4989" y1="104.0337" y2="104.0337"/><ellipse cx="320.33" cy="117.6822" fill="#84BE84" rx="3" ry="3" style="stroke:#038048;stroke-width:1;"/><text fill="#000000" font-family="sans-serif" font-size="14" lengthAdjust="spacing" textLength="126.1641" x="329.33" y="121.0289">getName(): String</text><ellipse cx="320.33" cy="133.9791" fill="#84BE84" rx="3" ry="3" style="stroke:#038048;stroke-width:1;"/><text fill="#000000" font-family="sans-serif" font-size="14" lengthAdjust="spacing" textLength="141.1689" x="329.33" y="137.3257">getAddress(): String</text></g><!--class Student--><g class="entity" data-entity="Student" data-source-line="8" data-uid="ent0003" id="entity_Student"><rect fill="#F1F1F1" height="162.0781" rx="2.5" ry="2.5" style="stroke:#181818;stroke-width:0.5;" width="277.1729" x="37.33" y="229.08"/><ellipse cx="144.1108" cy="245.08" fill="#ADD1B2" rx="11" ry="11" style="stroke:#181818;stroke-width:1;"/><path d="M147.0795,250.7206 Q146.5014,251.0175 145.8608,251.1581 Q145.2201,251.3144 144.517,251.3144 Q142.017,251.3144 140.6889,249.6737 Q139.3764,248.0175 139.3764,244.8925 Q139.3764,241.7675 140.6889,240.1112 Q142.017,238.455 144.517,238.455 Q145.2201,238.455 145.8608,238.6112 Q146.517,238.7675 147.0795,239.0644 L147.0795,241.7831 Q146.4545,241.205 145.8608,240.9394 Q145.267,240.6581 144.642,240.6581 Q143.2983,240.6581 142.6108,241.7362 Q141.9233,242.7987 141.9233,244.8925 Q141.9233,246.9862 142.6108,248.0644 Q143.2983,249.1269 144.642,249.1269 Q145.267,249.1269 145.8608,248.8612 Q146.4545,248.58 147.0795,248.0019 L147.0795,250.7206 Z " fill="#000000"/><text fill="#000000" font-family="sans-serif" font-size="14" lengthAdjust="spacing" textLength="55.1113" x="164.6108" y="249.9267">Student</text><line style="stroke:#181818;stroke-width:0.5;" x1="38.33" x2="313.5029" y1="261.08" y2="261.08"/><rect fill="none" height="6" style="stroke:#C82930;stroke-width:1;" width="6" x="45.33" y="271.7284"/><text fill="#000000" font-family="sans-serif" font-size="14" lengthAdjust="spacing" textLength="117.4824" x="57.33" y="278.0751">studentId: String</text><rect fill="none" height="6" style="stroke:#C82930;stroke-width:1;" width="6" x="45.33" y="288.0253"/><text fill="#000000" font-family="sans-serif" font-size="14" lengthAdjust="spacing" textLength="90.6514" x="57.33" y="294.372">name: String</text><rect fill="none" height="6" style="stroke:#C82930;stroke-width:1;" width="6" x="45.33" y="304.3222"/><text fill="#000000" font-family="sans-serif" font-size="14" lengthAdjust="spacing" textLength="123.7578" x="57.33" y="310.6689">dateOfBirth: Date</text><rect fill="none" height="6" style="stroke:#C82930;stroke-width:1;" width="6" x="45.33" y="320.6191"/><text fill="#000000" font-family="sans-serif" font-size="14" lengthAdjust="spacing" textLength="100.5771" x="57.33" y="326.9657">gender: String</text><line style="stroke:#181818;stroke-width:0.5;" x1="38.33" x2="313.5029" y1="334.2675" y2="334.2675"/><ellipse cx="48.33" cy="347.9159" fill="#84BE84" rx="3" ry="3" style="stroke:#038048;stroke-width:1;"/><text fill="#000000" font-family="sans-serif" font-size="14" lengthAdjust="spacing" textLength="243.0244" x="57.33" y="351.2626">enrollCourse(course: Course): void</text><ellipse cx="48.33" cy="364.2128" fill="#84BE84" rx="3" ry="3" style="stroke:#038048;stroke-width:1;"/><text fill="#000000" font-family="sans-serif" font-size="14" lengthAdjust="spacing" textLength="235.5322" x="57.33" y="367.5595">dropCourse(course: Course): void</text><ellipse cx="48.33" cy="380.5097" fill="#84BE84" rx="3" ry="3" style="stroke:#038048;stroke-width:1;"/><text fill="#000000" font-family="sans-serif" font-size="14" lengthAdjust="spacing" textLength="251.1729" x="57.33" y="383.8564">getStudentCourses(): List&lt;Course&gt;</text></g><!--class Teacher--><g class="entity" data-entity="Teacher" data-source-line="18" data-uid="ent0004" id="entity_Teacher"><rect fill="#F1F1F1" height="162.0781" rx="2.5" ry="2.5" style="stroke:#181818;stroke-width:0.5;" width="282.9082" x="277.46" y="451.15"/><ellipse cx="386.3223" cy="467.15" fill="#ADD1B2" rx="11" ry="11" style="stroke:#181818;stroke-width:1;"/><path d="M389.2911,472.7906 Q388.7129,473.0875 388.0723,473.2281 Q387.4317,473.3844 386.7286,473.3844 Q384.2286,473.3844 382.9004,471.7438 Q381.5879,470.0875 381.5879,466.9625 Q381.5879,463.8375 382.9004,462.1813 Q384.2286,460.525 386.7286,460.525 Q387.4317,460.525 388.0723,460.6813 Q388.7286,460.8375 389.2911,461.1344 L389.2911,463.8531 Q388.6661,463.275 388.0723,463.0094 Q387.4786,462.7281 386.8536,462.7281 Q385.5098,462.7281 384.8223,463.8063 Q384.1348,464.8688 384.1348,466.9625 Q384.1348,469.0563 384.8223,470.1344 Q385.5098,471.1969 386.8536,471.1969 Q387.4786,471.1969 388.0723,470.9313 Q388.6661,470.65 389.2911,470.0719 L389.2911,472.7906 Z " fill="#000000"/><text fill="#000000" font-family="sans-serif" font-size="14" lengthAdjust="spacing" textLength="56.6836" x="406.8223" y="471.9967">Teacher</text><line style="stroke:#181818;stroke-width:0.5;" x1="278.46" x2="559.3682" y1="483.15" y2="483.15"/><rect fill="none" height="6" style="stroke:#C82930;stroke-width:1;" width="6" x="285.46" y="493.7984"/><text fill="#000000" font-family="sans-serif" font-size="14" lengthAdjust="spacing" textLength="117.585" x="297.46" y="500.1451">teacherId: String</text><rect fill="none" height="6" style="stroke:#C82930;stroke-width:1;" width="6" x="285.46" y="510.0953"/><text fill="#000000" font-family="sans-serif" font-size="14" lengthAdjust="spacing" textLength="90.6514" x="297.46" y="516.442">name: String</text><rect fill="none" height="6" style="stroke:#C82930;stroke-width:1;" width="6" x="285.46" y="526.3922"/><text fill="#000000" font-family="sans-serif" font-size="14" lengthAdjust="spacing" textLength="101.6914" x="297.46" y="532.7389">subject: String</text><rect fill="none" height="6" style="stroke:#C82930;stroke-width:1;" width="6" x="285.46" y="542.6891"/><text fill="#000000" font-family="sans-serif" font-size="14" lengthAdjust="spacing" textLength="89.5576" x="297.46" y="549.0357">email: String</text><line style="stroke:#181818;stroke-width:0.5;" x1="278.46" x2="559.3682" y1="556.3375" y2="556.3375"/><ellipse cx="288.46" cy="569.9859" fill="#84BE84" rx="3" ry="3" style="stroke:#038048;stroke-width:1;"/><text fill="#000000" font-family="sans-serif" font-size="14" lengthAdjust="spacing" textLength="248.2539" x="297.46" y="573.3326">assignCourse(course: Course): void</text><ellipse cx="288.46" cy="586.2828" fill="#84BE84" rx="3" ry="3" style="stroke:#038048;stroke-width:1;"/><text fill="#000000" font-family="sans-serif" font-size="14" lengthAdjust="spacing" textLength="256.9082" x="297.46" y="589.6295">removeCourse(course: Course): void</text><ellipse cx="288.46" cy="602.5797" fill="#84BE84" rx="3" ry="3" style="stroke:#038048;stroke-width:1;"/><text fill="#000000" font-family="sans-serif" font-size="14" lengthAdjust="spacing" textLength="245.3145" x="297.46" y="605.9264">getTaughtCourses(): List&lt;Course&gt;</text></g><!--class Course--><g class="entity" data-entity="Course" data-source-line="28" data-uid="ent0005" id="entity_Course"><rect fill="#F1F1F1" height="113.1875" rx="2.5" ry="2.5" style="stroke:#181818;stroke-width:0.5;" width="208.2734" x="167.78" y="673.23"/><ellipse cx="243.2282" cy="689.23" fill="#ADD1B2" rx="11" ry="11" style="stroke:#181818;stroke-width:1;"/><path d="M246.197,694.8706 Q245.6189,695.1675 244.9782,695.3081 Q244.3376,695.4644 243.6345,695.4644 Q241.1345,695.4644 239.8064,693.8237 Q238.4939,692.1675 238.4939,689.0425 Q238.4939,685.9175 239.8064,684.2612 Q241.1345,682.605 243.6345,682.605 Q244.3376,682.605 244.9782,682.7612 Q245.6345,682.9175 246.197,683.2144 L246.197,685.9331 Q245.572,685.355 244.9782,685.0894 Q244.3845,684.8081 243.7595,684.8081 Q242.4157,684.8081 241.7282,685.8862 Q241.0407,686.9487 241.0407,689.0425 Q241.0407,691.1362 241.7282,692.2144 Q242.4157,693.2769 243.7595,693.2769 Q244.3845,693.2769 244.9782,693.0112 Q245.572,692.73 246.197,692.1519 L246.197,694.8706 Z " fill="#000000"/><text fill="#000000" font-family="sans-serif" font-size="14" lengthAdjust="spacing" textLength="48.877" x="263.7282" y="694.0767">Course</text><line style="stroke:#181818;stroke-width:0.5;" x1="168.78" x2="375.0534" y1="705.23" y2="705.23"/><rect fill="none" height="6" style="stroke:#C82930;stroke-width:1;" width="6" x="175.78" y="715.8784"/><text fill="#000000" font-family="sans-serif" font-size="14" lengthAdjust="spacing" textLength="110.7627" x="187.78" y="722.2251">courseId: String</text><rect fill="none" height="6" style="stroke:#C82930;stroke-width:1;" width="6" x="175.78" y="732.1753"/><text fill="#000000" font-family="sans-serif" font-size="14" lengthAdjust="spacing" textLength="139.0498" x="187.78" y="738.522">courseName: String</text><rect fill="none" height="6" style="stroke:#C82930;stroke-width:1;" width="6" x="175.78" y="748.4722"/><text fill="#000000" font-family="sans-serif" font-size="14" lengthAdjust="spacing" textLength="128.7891" x="187.78" y="754.8189">description: String</text><line style="stroke:#181818;stroke-width:0.5;" x1="168.78" x2="375.0534" y1="762.1206" y2="762.1206"/><ellipse cx="178.78" cy="775.7691" fill="#84BE84" rx="3" ry="3" style="stroke:#038048;stroke-width:1;"/><text fill="#000000" font-family="sans-serif" font-size="14" lengthAdjust="spacing" textLength="182.2734" x="187.78" y="779.1157">getCourseDetails(): String</text></g><!--class Classroom--><g class="entity" data-entity="Classroom" data-source-line="35" data-uid="ent0006" id="entity_Classroom"><rect fill="#F1F1F1" height="129.4844" rx="2.5" ry="2.5" style="stroke:#181818;stroke-width:0.5;" width="207.5967" x="446.12" y="245.37"/><ellipse cx="508.9901" cy="261.37" fill="#ADD1B2" rx="11" ry="11" style="stroke:#181818;stroke-width:1;"/><path d="M511.9589,267.0106 Q511.3807,267.3075 510.7401,267.4481 Q510.0995,267.6044 509.3964,267.6044 Q506.8964,267.6044 505.5682,265.9638 Q504.2557,264.3075 504.2557,261.1825 Q504.2557,258.0575 505.5682,256.4013 Q506.8964,254.745 509.3964,254.745 Q510.0995,254.745 510.7401,254.9013 Q511.3964,255.0575 511.9589,255.3544 L511.9589,258.0731 Q511.3339,257.495 510.7401,257.2294 Q510.1464,256.9481 509.5214,256.9481 Q508.1776,256.9481 507.4901,258.0263 Q506.8026,259.0888 506.8026,261.1825 Q506.8026,263.2763 507.4901,264.3544 Q508.1776,265.4169 509.5214,265.4169 Q510.1464,265.4169 510.7401,265.1513 Q511.3339,264.87 511.9589,264.2919 L511.9589,267.0106 Z " fill="#000000"/><text fill="#000000" font-family="sans-serif" font-size="14" lengthAdjust="spacing" textLength="73.3564" x="529.4901" y="266.2167">Classroom</text><line style="stroke:#181818;stroke-width:0.5;" x1="447.12" x2="652.7167" y1="277.37" y2="277.37"/><rect fill="none" height="6" style="stroke:#C82930;stroke-width:1;" width="6" x="454.12" y="288.0184"/><text fill="#000000" font-family="sans-serif" font-size="14" lengthAdjust="spacing" textLength="135.2422" x="466.12" y="294.3651">classroomId: String</text><rect fill="none" height="6" style="stroke:#C82930;stroke-width:1;" width="6" x="454.12" y="304.3153"/><text fill="#000000" font-family="sans-serif" font-size="14" lengthAdjust="spacing" textLength="143.7119" x="466.12" y="310.662">roomNumber: String</text><rect fill="none" height="6" style="stroke:#C82930;stroke-width:1;" width="6" x="454.12" y="320.6122"/><text fill="#000000" font-family="sans-serif" font-size="14" lengthAdjust="spacing" textLength="86.5225" x="466.12" y="326.9589">capacity: int</text><line style="stroke:#181818;stroke-width:0.5;" x1="447.12" x2="652.7167" y1="334.2606" y2="334.2606"/><ellipse cx="457.12" cy="347.9091" fill="#84BE84" rx="3" ry="3" style="stroke:#038048;stroke-width:1;"/><text fill="#000000" font-family="sans-serif" font-size="14" lengthAdjust="spacing" textLength="181.5967" x="466.12" y="351.2557">getRoomNumber(): String</text><ellipse cx="457.12" cy="364.2059" fill="#84BE84" rx="3" ry="3" style="stroke:#038048;stroke-width:1;"/><text fill="#000000" font-family="sans-serif" font-size="14" lengthAdjust="spacing" textLength="122.5137" x="466.12" y="367.5526">getCapacity(): int</text></g><!--class SchoolAdmin--><g class="entity" data-entity="SchoolAdmin" data-source-line="43" data-uid="ent0007" id="entity_SchoolAdmin"><rect fill="#F1F1F1" height="162.0781" rx="2.5" ry="2.5" style="stroke:#181818;stroke-width:0.5;" width="305.3438" x="511.24" y="7"/><ellipse cx="613.991" cy="23" fill="#ADD1B2" rx="11" ry="11" style="stroke:#181818;stroke-width:1;"/><path d="M616.9597,28.6406 Q616.3816,28.9375 615.741,29.0781 Q615.1004,29.2344 614.3972,29.2344 Q611.8972,29.2344 610.5691,27.5938 Q609.2566,25.9375 609.2566,22.8125 Q609.2566,19.6875 610.5691,18.0313 Q611.8972,16.375 614.3972,16.375 Q615.1004,16.375 615.741,16.5313 Q616.3972,16.6875 616.9597,16.9844 L616.9597,19.7031 Q616.3347,19.125 615.741,18.8594 Q615.1472,18.5781 614.5222,18.5781 Q613.1785,18.5781 612.491,19.6563 Q611.8035,20.7188 611.8035,22.8125 Q611.8035,24.9063 612.491,25.9844 Q613.1785,27.0469 614.5222,27.0469 Q615.1472,27.0469 615.741,26.7813 Q616.3347,26.5 616.9597,25.9219 L616.9597,28.6406 Z " fill="#000000"/><text fill="#000000" font-family="sans-serif" font-size="14" lengthAdjust="spacing" textLength="91.3418" x="634.491" y="27.8467">SchoolAdmin</text><line style="stroke:#181818;stroke-width:0.5;" x1="512.24" x2="815.5838" y1="39" y2="39"/><rect fill="none" height="6" style="stroke:#C82930;stroke-width:1;" width="6" x="519.24" y="49.6484"/><text fill="#000000" font-family="sans-serif" font-size="14" lengthAdjust="spacing" textLength="107.8301" x="531.24" y="55.9951">adminId: String</text><rect fill="none" height="6" style="stroke:#C82930;stroke-width:1;" width="6" x="519.24" y="65.9453"/><text fill="#000000" font-family="sans-serif" font-size="14" lengthAdjust="spacing" textLength="90.6514" x="531.24" y="72.292">name: String</text><rect fill="none" height="6" style="stroke:#C82930;stroke-width:1;" width="6" x="519.24" y="82.2422"/><text fill="#000000" font-family="sans-serif" font-size="14" lengthAdjust="spacing" textLength="133.7725" x="531.24" y="88.5889">department: String</text><line style="stroke:#181818;stroke-width:0.5;" x1="512.24" x2="815.5838" y1="95.8906" y2="95.8906"/><ellipse cx="522.24" cy="109.5391" fill="#84BE84" rx="3" ry="3" style="stroke:#038048;stroke-width:1;"/><text fill="#000000" font-family="sans-serif" font-size="14" lengthAdjust="spacing" textLength="248.9785" x="531.24" y="112.8857">addStudent(student: Student): void</text><ellipse cx="522.24" cy="125.8359" fill="#84BE84" rx="3" ry="3" style="stroke:#038048;stroke-width:1;"/><text fill="#000000" font-family="sans-serif" font-size="14" lengthAdjust="spacing" textLength="276.0967" x="531.24" y="129.1826">removeStudent(student: Student): void</text><ellipse cx="522.24" cy="142.1328" fill="#84BE84" rx="3" ry="3" style="stroke:#038048;stroke-width:1;"/><text fill="#000000" font-family="sans-serif" font-size="14" lengthAdjust="spacing" textLength="252.2256" x="531.24" y="145.4795">addTeacher(teacher: Teacher): void</text><ellipse cx="522.24" cy="158.4297" fill="#84BE84" rx="3" ry="3" style="stroke:#038048;stroke-width:1;"/><text fill="#000000" font-family="sans-serif" font-size="14" lengthAdjust="spacing" textLength="279.3438" x="531.24" y="161.7764">removeTeacher(teacher: Teacher): void</text></g><!--class Enrollment--><g class="entity" data-entity="Enrollment" data-source-line="53" data-uid="ent0008" id="entity_Enrollment"><rect fill="#F1F1F1" height="96.8906" rx="2.5" ry="2.5" style="stroke:#181818;stroke-width:0.5;" width="235.8291" x="7" y="483.75"/><ellipse cx="82.4482" cy="499.75" fill="#ADD1B2" rx="11" ry="11" style="stroke:#181818;stroke-width:1;"/><path d="M85.417,505.3906 Q84.8389,505.6875 84.1982,505.8281 Q83.5576,505.9844 82.8545,505.9844 Q80.3545,505.9844 79.0264,504.3437 Q77.7139,502.6875 77.7139,499.5625 Q77.7139,496.4375 79.0264,494.7812 Q80.3545,493.125 82.8545,493.125 Q83.5576,493.125 84.1982,493.2812 Q84.8545,493.4375 85.417,493.7344 L85.417,496.4531 Q84.792,495.875 84.1982,495.6094 Q83.6045,495.3281 82.9795,495.3281 Q81.6357,495.3281 80.9482,496.4062 Q80.2607,497.4687 80.2607,499.5625 Q80.2607,501.6562 80.9482,502.7344 Q81.6357,503.7969 82.9795,503.7969 Q83.6045,503.7969 84.1982,503.5312 Q84.792,503.25 85.417,502.6719 L85.417,505.3906 Z " fill="#000000"/><text fill="#000000" font-family="sans-serif" font-size="14" lengthAdjust="spacing" textLength="76.4326" x="102.9482" y="504.5967">Enrollment</text><line style="stroke:#181818;stroke-width:0.5;" x1="8" x2="241.8291" y1="515.75" y2="515.75"/><rect fill="none" height="6" style="stroke:#C82930;stroke-width:1;" width="6" x="15" y="526.3984"/><text fill="#000000" font-family="sans-serif" font-size="14" lengthAdjust="spacing" textLength="140.1641" x="27" y="532.7451">enrollmentId: String</text><rect fill="none" height="6" style="stroke:#C82930;stroke-width:1;" width="6" x="15" y="542.6953"/><text fill="#000000" font-family="sans-serif" font-size="14" lengthAdjust="spacing" textLength="152.291" x="27" y="549.042">enrollmentDate: Date</text><line style="stroke:#181818;stroke-width:0.5;" x1="8" x2="241.8291" y1="556.3438" y2="556.3438"/><ellipse cx="18" cy="569.9922" fill="#84BE84" rx="3" ry="3" style="stroke:#038048;stroke-width:1;"/><text fill="#000000" font-family="sans-serif" font-size="14" lengthAdjust="spacing" textLength="209.8291" x="27" y="573.3389">getEnrollmentDetails(): String</text></g><!--reverse link School to Student--><g class="link" data-entity-1="School" data-entity-2="Student" data-source-line="59" data-uid="lnk9" id="link_School_Student"><path codeLine="59" d="M329.4536,153.4038 C304.3336,178.8738 282.56,200.96 255.07,228.84" fill="none" id="School-backto-Student" style="stroke:#181818;stroke-width:1;"/><polygon fill="#181818" points="337.88,144.86,330.8189,146.3231,329.4536,153.4038,336.5147,151.9407,337.88,144.86" style="stroke:#181818;stroke-width:1;"/><text fill="#000000" font-family="sans-serif" font-size="13" lengthAdjust="spacing" textLength="8.271" x="322.7017" y="164.7747">1</text><text fill="#000000" font-family="sans-serif" font-size="13" lengthAdjust="spacing" textLength="23.0356" x="238.097" y="218.0059">0..*</text></g><!--reverse link School to Teacher--><g class="link" data-entity-1="School" data-entity-2="Teacher" data-source-line="60" data-uid="lnk10" id="link_School_Teacher"><path codeLine="60" d="M396.9144,157.0193 C401.4644,234.3993 408.99,362.49 414.2,450.97" fill="none" id="School-backto-Teacher" style="stroke:#181818;stroke-width:1;"/><polygon fill="#181818" points="396.21,145.04,392.5691,151.2645,396.9144,157.0193,400.5553,150.7949,396.21,145.04" style="stroke:#181818;stroke-width:1;"/><text fill="#000000" font-family="sans-serif" font-size="13" lengthAdjust="spacing" textLength="8.271" x="388.1442" y="164.5731">1</text><text fill="#000000" font-family="sans-serif" font-size="13" lengthAdjust="spacing" textLength="23.0356" x="389.7575" y="440.1413">0..*</text></g><!--reverse link School to Classroom--><g class="link" data-entity-1="School" data-entity-2="Classroom" data-source-line="61" data-uid="lnk11" id="link_School_Classroom"><path codeLine="61" d="M439.7088,154.6291 C461.5088,185.1891 481.65,213.42 504.3,245.17" fill="none" id="School-backto-Classroom" style="stroke:#181818;stroke-width:1;"/><polygon fill="#181818" points="432.74,144.86,432.968,152.0675,439.7088,154.6291,439.4808,147.4216,432.74,144.86" style="stroke:#181818;stroke-width:1;"/><text fill="#000000" font-family="sans-serif" font-size="13" lengthAdjust="spacing" textLength="8.271" x="429.1227" y="164.7747">1</text><text fill="#000000" font-family="sans-serif" font-size="13" lengthAdjust="spacing" textLength="23.0356" x="475.0546" y="234.3208">0..*</text></g><!--reverse link Student to Enrollment--><g class="link" data-entity-1="Student" data-entity-2="Enrollment" data-source-line="62" data-uid="lnk12" id="link_Student_Enrollment"><path codeLine="62" d="M154.5781,403.1896 C147.4281,434.0096 142.22,456.5 136.01,483.33" fill="none" id="Student-backto-Enrollment" style="stroke:#181818;stroke-width:1;"/><polygon fill="#181818" points="157.29,391.5,152.0375,396.4408,154.5781,403.1896,159.8306,398.2487,157.29,391.5" style="stroke:#181818;stroke-width:1;"/><text fill="#000000" font-family="sans-serif" font-size="13" lengthAdjust="spacing" textLength="8.271" x="147.3572" y="411.2108">1</text><text fill="#000000" font-family="sans-serif" font-size="13" lengthAdjust="spacing" textLength="23.0356" x="112.958" y="472.8317">0..*</text></g><!--reverse link Enrollment to Course--><g class="link" data-entity-1="Enrollment" data-entity-2="Course" data-source-line="63" data-uid="lnk13" id="link_Enrollment_Course"><path codeLine="63" d="M168.0805,590.6421 C188.9105,618.3521 208.02,643.79 229.81,672.79" fill="none" id="Enrollment-backto-Course" style="stroke:#181818;stroke-width:1;"/><polygon fill="#181818" points="160.87,581.05,161.2779,588.2496,168.0805,590.6421,167.6726,583.4425,160.87,581.05" style="stroke:#181818;stroke-width:1;"/><text fill="#000000" font-family="sans-serif" font-size="13" lengthAdjust="spacing" textLength="8.271" x="157.1822" y="600.6985">1</text><text fill="#000000" font-family="sans-serif" font-size="13" lengthAdjust="spacing" textLength="8.271" x="216.2073" y="661.9999">1</text></g><!--link Teacher to Course--><g class="link" data-entity-1="Teacher" data-entity-2="Course" data-source-line="64" data-uid="lnk14" id="link_Teacher_Course"><path codeLine="64" d="M358.49,613.61 C343.52,633.53 327.81,654.44 313.94,672.9" fill="none" id="Teacher-Course" style="stroke:#181818;stroke-width:1;"/><text fill="#000000" font-family="sans-serif" font-size="13" lengthAdjust="spacing" textLength="8.271" x="344.9652" y="633.3242">1</text><text fill="#000000" font-family="sans-serif" font-size="13" lengthAdjust="spacing" textLength="23.0356" x="294.6622" y="662.1233">0..*</text></g><!--SRC=[ZLHHQyCW47xFhv0yPHqjssiOWwtTms1qiFOFMBqbZgX1JM6C_VTfD2PBKfeyHEwxy-u-_KvIOQtHWPHILkWdGVPR8u4vvEXW51D5W32b2hJ-XzwY0ipUncOtK_p9RnYuVfE4-6gceI1CBAUz_Kf7DMVQeDZ0- -SpKwRCqSuQ0Iz0K52ZBa0eMLLRsIWD6McN77dJTdMMZ8P0gcIz8Coo2grxRqlkZMdpuEt7dk8HC2b1HOh6sqiewkRq1SICKE2OLID-jX0hn8B65N1vXcKCZxWfoki4FH3v-QGJUXxUpzmZQA9ORPWKK-dut3imblAiWBRkhwJaVVqEcRJWm7t3JoDrs2suneIPxnmnOVhY7p5-JjNRiCdvtBPUq-q4FL7EH6mAEskHgg76od0hhF4DKneKbuKXoRlfcRlXPR4sQP1d5cIPTtgTItejDXx1IpjkV3ZP4A79CVGkDyQ3OMxFkSyrAuFmNgNtALgjroYzssnMQSVsWZUqVS4R9PLqhzCeeEye6H2DGNRriaswqNVG87_h_0C0]--></g></svg>