<svg xmlns="http://www.w3.org/2000/svg" xmlns:xlink="http://www.w3.org/1999/xlink" contentStyleType="text/css" data-diagram-type="CLASS" height="1241px" preserveAspectRatio="none" style="width:873px;height:1241px;background:#FFFFFF;" version="1.1" viewBox="0 0 873 1241" width="873px" zoomAndPan="magnify"><defs/><g><!--class Hospital--><g class="entity" data-entity="Hospital" data-source-line="1" data-uid="ent0002" id="entity_Hospital"><rect fill="#F1F1F1" height="129.4844" rx="2.5" ry="2.5" style="stroke:#181818;stroke-width:0.5;" width="381.1816" x="433.64" y="7"/><ellipse cx="591.4203" cy="23" fill="#ADD1B2" rx="11" ry="11" style="stroke:#181818;stroke-width:1;"/><path d="M594.389,28.6406 Q593.8109,28.9375 593.1703,29.0781 Q592.5296,29.2344 591.8265,29.2344 Q589.3265,29.2344 587.9984,27.5938 Q586.6859,25.9375 586.6859,22.8125 Q586.6859,19.6875 587.9984,18.0313 Q589.3265,16.375 591.8265,16.375 Q592.5296,16.375 593.1703,16.5313 Q593.8265,16.6875 594.389,16.9844 L594.389,19.7031 Q593.764,19.125 593.1703,18.8594 Q592.5765,18.5781 591.9515,18.5781 Q590.6078,18.5781 589.9203,19.6563 Q589.2328,20.7188 589.2328,22.8125 Q589.2328,24.9063 589.9203,25.9844 Q590.6078,27.0469 591.9515,27.0469 Q592.5765,27.0469 593.1703,26.7813 Q593.764,26.5 594.389,25.9219 L594.389,28.6406 Z " fill="#000000"/><text fill="#000000" font-family="sans-serif" font-size="14" lengthAdjust="spacing" textLength="57.1211" x="611.9203" y="27.8467">Hospital</text><line style="stroke:#181818;stroke-width:0.5;" x1="434.64" x2="813.8216" y1="39" y2="39"/><rect fill="none" height="6" style="stroke:#C82930;stroke-width:1;" width="6" x="441.64" y="49.6484"/><text fill="#000000" font-family="sans-serif" font-size="14" lengthAdjust="spacing" textLength="85.9346" x="453.64" y="55.9951">String name</text><rect fill="none" height="6" style="stroke:#C82930;stroke-width:1;" width="6" x="441.64" y="65.9453"/><text fill="#000000" font-family="sans-serif" font-size="14" lengthAdjust="spacing" textLength="101.541" x="453.64" y="72.292">String address</text><rect fill="none" height="6" style="stroke:#C82930;stroke-width:1;" width="6" x="441.64" y="82.2422"/><text fill="#000000" font-family="sans-serif" font-size="14" lengthAdjust="spacing" textLength="154.8613" x="453.64" y="88.5889">String contactNumber</text><line style="stroke:#181818;stroke-width:0.5;" x1="434.64" x2="813.8216" y1="95.8906" y2="95.8906"/><ellipse cx="444.64" cy="109.5391" fill="#84BE84" rx="3" ry="3" style="stroke:#038048;stroke-width:1;"/><text fill="#000000" font-family="sans-serif" font-size="14" lengthAdjust="spacing" textLength="328.0635" x="453.64" y="112.8857">void addDepartment(Department department)</text><ellipse cx="444.64" cy="125.8359" fill="#84BE84" rx="3" ry="3" style="stroke:#038048;stroke-width:1;"/><text fill="#000000" font-family="sans-serif" font-size="14" lengthAdjust="spacing" textLength="355.1816" x="453.64" y="129.1826">void removeDepartment(Department department)</text></g><!--class Department--><g class="entity" data-entity="Department" data-source-line="9" data-uid="ent0003" id="entity_Department"><rect fill="#F1F1F1" height="129.4844" rx="2.5" ry="2.5" style="stroke:#181818;stroke-width:0.5;" width="267.5889" x="490.44" y="213.48"/><ellipse cx="577.6255" cy="229.48" fill="#ADD1B2" rx="11" ry="11" style="stroke:#181818;stroke-width:1;"/><path d="M580.5943,235.1206 Q580.0162,235.4175 579.3755,235.5581 Q578.7349,235.7144 578.0318,235.7144 Q575.5318,235.7144 574.2037,234.0737 Q572.8912,232.4175 572.8912,229.2925 Q572.8912,226.1675 574.2037,224.5112 Q575.5318,222.855 578.0318,222.855 Q578.7349,222.855 579.3755,223.0112 Q580.0318,223.1675 580.5943,223.4644 L580.5943,226.1831 Q579.9693,225.605 579.3755,225.3394 Q578.7818,225.0581 578.1568,225.0581 Q576.813,225.0581 576.1255,226.1362 Q575.438,227.1987 575.438,229.2925 Q575.438,231.3862 576.1255,232.4644 Q576.813,233.5269 578.1568,233.5269 Q578.7818,233.5269 579.3755,233.2612 Q579.9693,232.98 580.5943,232.4019 L580.5943,235.1206 Z " fill="#000000"/><text fill="#000000" font-family="sans-serif" font-size="14" lengthAdjust="spacing" textLength="84.7178" x="598.1255" y="234.3267">Department</text><line style="stroke:#181818;stroke-width:0.5;" x1="491.44" x2="757.0289" y1="245.48" y2="245.48"/><rect fill="none" height="6" style="stroke:#C82930;stroke-width:1;" width="6" x="498.44" y="256.1284"/><text fill="#000000" font-family="sans-serif" font-size="14" lengthAdjust="spacing" textLength="85.9346" x="510.44" y="262.4751">String name</text><rect fill="none" height="6" style="stroke:#C82930;stroke-width:1;" width="6" x="498.44" y="272.4253"/><text fill="#000000" font-family="sans-serif" font-size="14" lengthAdjust="spacing" textLength="143.9648" x="510.44" y="278.772">String departmentID</text><rect fill="none" height="6" style="stroke:#C82930;stroke-width:1;" width="6" x="498.44" y="288.7222"/><text fill="#000000" font-family="sans-serif" font-size="14" lengthAdjust="spacing" textLength="117.0381" x="510.44" y="295.0689">Hospital hospital</text><line style="stroke:#181818;stroke-width:0.5;" x1="491.44" x2="757.0289" y1="302.3706" y2="302.3706"/><ellipse cx="501.44" cy="316.0191" fill="#84BE84" rx="3" ry="3" style="stroke:#038048;stroke-width:1;"/><text fill="#000000" font-family="sans-serif" font-size="14" lengthAdjust="spacing" textLength="214.4707" x="510.44" y="319.3657">void addDoctor(Doctor doctor)</text><ellipse cx="501.44" cy="332.3159" fill="#84BE84" rx="3" ry="3" style="stroke:#038048;stroke-width:1;"/><text fill="#000000" font-family="sans-serif" font-size="14" lengthAdjust="spacing" textLength="241.5889" x="510.44" y="335.6626">void removeDoctor(Doctor doctor)</text></g><!--class Doctor--><g class="entity" data-entity="Doctor" data-source-line="17" data-uid="ent0004" id="entity_Doctor"><rect fill="#F1F1F1" height="145.7813" rx="2.5" ry="2.5" style="stroke:#181818;stroke-width:0.5;" width="392.1465" x="63.16" y="419.96"/><ellipse cx="231.5565" cy="435.96" fill="#ADD1B2" rx="11" ry="11" style="stroke:#181818;stroke-width:1;"/><path d="M234.5252,441.6006 Q233.9471,441.8975 233.3065,442.0381 Q232.6659,442.1944 231.9627,442.1944 Q229.4627,442.1944 228.1346,440.5537 Q226.8221,438.8975 226.8221,435.7725 Q226.8221,432.6475 228.1346,430.9912 Q229.4627,429.335 231.9627,429.335 Q232.6659,429.335 233.3065,429.4912 Q233.9627,429.6475 234.5252,429.9444 L234.5252,432.6631 Q233.9002,432.085 233.3065,431.8194 Q232.7127,431.5381 232.0877,431.5381 Q230.744,431.5381 230.0565,432.6162 Q229.369,433.6787 229.369,435.7725 Q229.369,437.8662 230.0565,438.9444 Q230.744,440.0069 232.0877,440.0069 Q232.7127,440.0069 233.3065,439.7412 Q233.9002,439.46 234.5252,438.8819 L234.5252,441.6006 Z " fill="#000000"/><text fill="#000000" font-family="sans-serif" font-size="14" lengthAdjust="spacing" textLength="46.8535" x="252.0565" y="440.8067">Doctor</text><line style="stroke:#181818;stroke-width:0.5;" x1="64.16" x2="454.3065" y1="451.96" y2="451.96"/><rect fill="none" height="6" style="stroke:#C82930;stroke-width:1;" width="6" x="71.16" y="462.6084"/><text fill="#000000" font-family="sans-serif" font-size="14" lengthAdjust="spacing" textLength="85.9346" x="83.16" y="468.9551">String name</text><rect fill="none" height="6" style="stroke:#C82930;stroke-width:1;" width="6" x="71.16" y="478.9053"/><text fill="#000000" font-family="sans-serif" font-size="14" lengthAdjust="spacing" textLength="106.1006" x="83.16" y="485.252">String doctorID</text><rect fill="none" height="6" style="stroke:#C82930;stroke-width:1;" width="6" x="71.16" y="495.2022"/><text fill="#000000" font-family="sans-serif" font-size="14" lengthAdjust="spacing" textLength="108.8555" x="83.16" y="501.5489">String specialty</text><rect fill="none" height="6" style="stroke:#C82930;stroke-width:1;" width="6" x="71.16" y="511.4991"/><text fill="#000000" font-family="sans-serif" font-size="14" lengthAdjust="spacing" textLength="171.9922" x="83.16" y="517.8457">Department department</text><line style="stroke:#181818;stroke-width:0.5;" x1="64.16" x2="454.3065" y1="525.1475" y2="525.1475"/><ellipse cx="74.16" cy="538.7959" fill="#84BE84" rx="3" ry="3" style="stroke:#038048;stroke-width:1;"/><text fill="#000000" font-family="sans-serif" font-size="14" lengthAdjust="spacing" textLength="347.1494" x="83.16" y="542.1426">void addAppointment(Appointment appointment)</text><ellipse cx="74.16" cy="555.0928" fill="#84BE84" rx="3" ry="3" style="stroke:#038048;stroke-width:1;"/><text fill="#000000" font-family="sans-serif" font-size="14" lengthAdjust="spacing" textLength="366.1465" x="83.16" y="558.4395">void cancelAppointment(Appointment appointment)</text></g><!--class Patient--><g class="entity" data-entity="Patient" data-source-line="26" data-uid="ent0005" id="entity_Patient"><rect fill="#F1F1F1" height="145.7813" rx="2.5" ry="2.5" style="stroke:#181818;stroke-width:0.5;" width="392.1465" x="255.16" y="865.53"/><ellipse cx="422.2953" cy="881.53" fill="#ADD1B2" rx="11" ry="11" style="stroke:#181818;stroke-width:1;"/><path d="M425.264,887.1706 Q424.6859,887.4675 424.0453,887.6081 Q423.4046,887.7644 422.7015,887.7644 Q420.2015,887.7644 418.8734,886.1238 Q417.5609,884.4675 417.5609,881.3425 Q417.5609,878.2175 418.8734,876.5613 Q420.2015,874.905 422.7015,874.905 Q423.4046,874.905 424.0453,875.0613 Q424.7015,875.2175 425.264,875.5144 L425.264,878.2331 Q424.639,877.655 424.0453,877.3894 Q423.4515,877.1081 422.8265,877.1081 Q421.4828,877.1081 420.7953,878.1863 Q420.1078,879.2488 420.1078,881.3425 Q420.1078,883.4363 420.7953,884.5144 Q421.4828,885.5769 422.8265,885.5769 Q423.4515,885.5769 424.0453,885.3113 Q424.639,885.03 425.264,884.4519 L425.264,887.1706 Z " fill="#000000"/><text fill="#000000" font-family="sans-serif" font-size="14" lengthAdjust="spacing" textLength="49.376" x="442.7953" y="886.3767">Patient</text><line style="stroke:#181818;stroke-width:0.5;" x1="256.16" x2="646.3065" y1="897.53" y2="897.53"/><rect fill="none" height="6" style="stroke:#C82930;stroke-width:1;" width="6" x="263.16" y="908.1784"/><text fill="#000000" font-family="sans-serif" font-size="14" lengthAdjust="spacing" textLength="85.9346" x="275.16" y="914.5251">String name</text><rect fill="none" height="6" style="stroke:#C82930;stroke-width:1;" width="6" x="263.16" y="924.4753"/><text fill="#000000" font-family="sans-serif" font-size="14" lengthAdjust="spacing" textLength="110.9609" x="275.16" y="930.822">String patientID</text><rect fill="none" height="6" style="stroke:#C82930;stroke-width:1;" width="6" x="263.16" y="940.7722"/><text fill="#000000" font-family="sans-serif" font-size="14" lengthAdjust="spacing" textLength="154.8613" x="275.16" y="947.1189">String contactNumber</text><rect fill="none" height="6" style="stroke:#C82930;stroke-width:1;" width="6" x="263.16" y="957.0691"/><text fill="#000000" font-family="sans-serif" font-size="14" lengthAdjust="spacing" textLength="151.2314" x="275.16" y="963.4157">String medicalHistory</text><line style="stroke:#181818;stroke-width:0.5;" x1="256.16" x2="646.3065" y1="970.7175" y2="970.7175"/><ellipse cx="266.16" cy="984.3659" fill="#84BE84" rx="3" ry="3" style="stroke:#038048;stroke-width:1;"/><text fill="#000000" font-family="sans-serif" font-size="14" lengthAdjust="spacing" textLength="359.7344" x="275.16" y="987.7126">void makeAppointment(Appointment appointment)</text><ellipse cx="266.16" cy="1000.6628" fill="#84BE84" rx="3" ry="3" style="stroke:#038048;stroke-width:1;"/><text fill="#000000" font-family="sans-serif" font-size="14" lengthAdjust="spacing" textLength="366.1465" x="275.16" y="1004.0095">void cancelAppointment(Appointment appointment)</text></g><!--class Appointment--><g class="entity" data-entity="Appointment" data-source-line="35" data-uid="ent0006" id="entity_Appointment"><rect fill="#F1F1F1" height="145.7813" rx="2.5" ry="2.5" style="stroke:#181818;stroke-width:0.5;" width="176.9238" x="290.77" y="642.75"/><ellipse cx="330.1342" cy="658.75" fill="#ADD1B2" rx="11" ry="11" style="stroke:#181818;stroke-width:1;"/><path d="M333.1029,664.3906 Q332.5248,664.6875 331.8842,664.8281 Q331.2435,664.9844 330.5404,664.9844 Q328.0404,664.9844 326.7123,663.3437 Q325.3998,661.6875 325.3998,658.5625 Q325.3998,655.4375 326.7123,653.7812 Q328.0404,652.125 330.5404,652.125 Q331.2435,652.125 331.8842,652.2812 Q332.5404,652.4375 333.1029,652.7344 L333.1029,655.4531 Q332.4779,654.875 331.8842,654.6094 Q331.2904,654.3281 330.6654,654.3281 Q329.3217,654.3281 328.6342,655.4062 Q327.9467,656.4687 327.9467,658.5625 Q327.9467,660.6562 328.6342,661.7344 Q329.3217,662.7969 330.6654,662.7969 Q331.2904,662.7969 331.8842,662.5312 Q332.4779,662.25 333.1029,661.6719 L333.1029,664.3906 Z " fill="#000000"/><text fill="#000000" font-family="sans-serif" font-size="14" lengthAdjust="spacing" textLength="90.7813" x="349.5484" y="663.5967">Appointment</text><line style="stroke:#181818;stroke-width:0.5;" x1="291.77" x2="466.6938" y1="674.75" y2="674.75"/><rect fill="none" height="6" style="stroke:#C82930;stroke-width:1;" width="6" x="298.77" y="685.3984"/><text fill="#000000" font-family="sans-serif" font-size="14" lengthAdjust="spacing" textLength="150.9238" x="310.77" y="691.7451">String appointmentID</text><rect fill="none" height="6" style="stroke:#C82930;stroke-width:1;" width="6" x="298.77" y="701.6953"/><text fill="#000000" font-family="sans-serif" font-size="14" lengthAdjust="spacing" textLength="69.4805" x="310.77" y="708.042">Date date</text><rect fill="none" height="6" style="stroke:#C82930;stroke-width:1;" width="6" x="298.77" y="717.9922"/><text fill="#000000" font-family="sans-serif" font-size="14" lengthAdjust="spacing" textLength="77.8613" x="310.77" y="724.3389">String time</text><rect fill="none" height="6" style="stroke:#C82930;stroke-width:1;" width="6" x="298.77" y="734.2891"/><text fill="#000000" font-family="sans-serif" font-size="14" lengthAdjust="spacing" textLength="89.25" x="310.77" y="740.6357">String status</text><rect fill="none" height="6" style="stroke:#C82930;stroke-width:1;" width="6" x="298.77" y="750.5859"/><text fill="#000000" font-family="sans-serif" font-size="14" lengthAdjust="spacing" textLength="96.2637" x="310.77" y="756.9326">Doctor doctor</text><rect fill="none" height="6" style="stroke:#C82930;stroke-width:1;" width="6" x="298.77" y="766.8828"/><text fill="#000000" font-family="sans-serif" font-size="14" lengthAdjust="spacing" textLength="103.6465" x="310.77" y="773.2295">Patient patient</text><line style="stroke:#181818;stroke-width:0.5;" x1="291.77" x2="466.6938" y1="780.5312" y2="780.5312"/></g><!--class Room--><g class="entity" data-entity="Room" data-source-line="44" data-uid="ent0007" id="entity_Room"><rect fill="#F1F1F1" height="129.4844" rx="2.5" ry="2.5" style="stroke:#181818;stroke-width:0.5;" width="268.8398" x="489.81" y="428.11"/><ellipse cx="599.7319" cy="444.11" fill="#ADD1B2" rx="11" ry="11" style="stroke:#181818;stroke-width:1;"/><path d="M602.7006,449.7506 Q602.1225,450.0475 601.4819,450.1881 Q600.8413,450.3444 600.1381,450.3444 Q597.6381,450.3444 596.31,448.7037 Q594.9975,447.0475 594.9975,443.9225 Q594.9975,440.7975 596.31,439.1412 Q597.6381,437.485 600.1381,437.485 Q600.8413,437.485 601.4819,437.6412 Q602.1381,437.7975 602.7006,438.0944 L602.7006,440.8131 Q602.0756,440.235 601.4819,439.9694 Q600.8881,439.6881 600.2631,439.6881 Q598.9194,439.6881 598.2319,440.7662 Q597.5444,441.8287 597.5444,443.9225 Q597.5444,446.0162 598.2319,447.0944 Q598.9194,448.1569 600.2631,448.1569 Q600.8881,448.1569 601.4819,447.8912 Q602.0756,447.61 602.7006,447.0319 L602.7006,449.7506 Z " fill="#000000"/><text fill="#000000" font-family="sans-serif" font-size="14" lengthAdjust="spacing" textLength="40.4961" x="620.2319" y="448.9567">Room</text><line style="stroke:#181818;stroke-width:0.5;" x1="490.81" x2="757.6498" y1="460.11" y2="460.11"/><rect fill="none" height="6" style="stroke:#C82930;stroke-width:1;" width="6" x="497.81" y="470.7584"/><text fill="#000000" font-family="sans-serif" font-size="14" lengthAdjust="spacing" textLength="97.665" x="509.81" y="477.1051">String roomID</text><rect fill="none" height="6" style="stroke:#C82930;stroke-width:1;" width="6" x="497.81" y="487.0553"/><text fill="#000000" font-family="sans-serif" font-size="14" lengthAdjust="spacing" textLength="117.0928" x="509.81" y="493.402">String roomType</text><rect fill="none" height="6" style="stroke:#C82930;stroke-width:1;" width="6" x="497.81" y="503.3522"/><text fill="#000000" font-family="sans-serif" font-size="14" lengthAdjust="spacing" textLength="137.1699" x="509.81" y="509.6989">boolean isOccupied</text><line style="stroke:#181818;stroke-width:0.5;" x1="490.81" x2="757.6498" y1="517.0006" y2="517.0006"/><ellipse cx="500.81" cy="530.6491" fill="#84BE84" rx="3" ry="3" style="stroke:#038048;stroke-width:1;"/><text fill="#000000" font-family="sans-serif" font-size="14" lengthAdjust="spacing" textLength="242.8398" x="509.81" y="533.9957">void assignPatient(Patient patient)</text><ellipse cx="500.81" cy="546.9459" fill="#84BE84" rx="3" ry="3" style="stroke:#038048;stroke-width:1;"/><text fill="#000000" font-family="sans-serif" font-size="14" lengthAdjust="spacing" textLength="145.7354" x="509.81" y="550.2926">void releasePatient()</text></g><!--class Nurse--><g class="entity" data-entity="Nurse" data-source-line="52" data-uid="ent0008" id="entity_Nurse"><rect fill="#F1F1F1" height="113.1875" rx="2.5" ry="2.5" style="stroke:#181818;stroke-width:0.5;" width="155.0557" x="683.71" y="659.04"/><ellipse cx="736.4834" cy="675.04" fill="#ADD1B2" rx="11" ry="11" style="stroke:#181818;stroke-width:1;"/><path d="M739.4522,680.6806 Q738.8741,680.9775 738.2334,681.1181 Q737.5928,681.2744 736.8897,681.2744 Q734.3897,681.2744 733.0616,679.6338 Q731.7491,677.9775 731.7491,674.8525 Q731.7491,671.7275 733.0616,670.0713 Q734.3897,668.415 736.8897,668.415 Q737.5928,668.415 738.2334,668.5713 Q738.8897,668.7275 739.4522,669.0244 L739.4522,671.7431 Q738.8272,671.165 738.2334,670.8994 Q737.6397,670.6181 737.0147,670.6181 Q735.6709,670.6181 734.9834,671.6963 Q734.2959,672.7588 734.2959,674.8525 Q734.2959,676.9463 734.9834,678.0244 Q735.6709,679.0869 737.0147,679.0869 Q737.6397,679.0869 738.2334,678.8213 Q738.8272,678.54 739.4522,677.9619 L739.4522,680.6806 Z " fill="#000000"/><text fill="#000000" font-family="sans-serif" font-size="14" lengthAdjust="spacing" textLength="41.0088" x="756.9834" y="679.8867">Nurse</text><line style="stroke:#181818;stroke-width:0.5;" x1="684.71" x2="837.7657" y1="691.04" y2="691.04"/><rect fill="none" height="6" style="stroke:#C82930;stroke-width:1;" width="6" x="691.71" y="701.6884"/><text fill="#000000" font-family="sans-serif" font-size="14" lengthAdjust="spacing" textLength="85.9346" x="703.71" y="708.0351">String name</text><rect fill="none" height="6" style="stroke:#C82930;stroke-width:1;" width="6" x="691.71" y="717.9853"/><text fill="#000000" font-family="sans-serif" font-size="14" lengthAdjust="spacing" textLength="100.5498" x="703.71" y="724.332">String nurseID</text><rect fill="none" height="6" style="stroke:#C82930;stroke-width:1;" width="6" x="691.71" y="734.2822"/><text fill="#000000" font-family="sans-serif" font-size="14" lengthAdjust="spacing" textLength="129.0557" x="703.71" y="740.6289">String department</text><rect fill="none" height="6" style="stroke:#C82930;stroke-width:1;" width="6" x="691.71" y="750.5791"/><text fill="#000000" font-family="sans-serif" font-size="14" lengthAdjust="spacing" textLength="81.4707" x="703.71" y="756.9257">Room room</text><line style="stroke:#181818;stroke-width:0.5;" x1="684.71" x2="837.7657" y1="764.2275" y2="764.2275"/></g><!--class MedicalRecord--><g class="entity" data-entity="MedicalRecord" data-source-line="59" data-uid="ent0009" id="entity_MedicalRecord"><rect fill="#F1F1F1" height="145.7813" rx="2.5" ry="2.5" style="stroke:#181818;stroke-width:0.5;" width="470.4658" x="7" y="1088.31"/><ellipse cx="186.5425" cy="1104.31" fill="#ADD1B2" rx="11" ry="11" style="stroke:#181818;stroke-width:1;"/><path d="M189.5112,1109.9506 Q188.9331,1110.2475 188.2925,1110.3881 Q187.6519,1110.5444 186.9487,1110.5444 Q184.4487,1110.5444 183.1206,1108.9038 Q181.8081,1107.2475 181.8081,1104.1225 Q181.8081,1100.9975 183.1206,1099.3413 Q184.4487,1097.685 186.9487,1097.685 Q187.6519,1097.685 188.2925,1097.8413 Q188.9487,1097.9975 189.5112,1098.2944 L189.5112,1101.0131 Q188.8862,1100.435 188.2925,1100.1694 Q187.6987,1099.8881 187.0737,1099.8881 Q185.73,1099.8881 185.0425,1100.9663 Q184.355,1102.0288 184.355,1104.1225 Q184.355,1106.2163 185.0425,1107.2944 Q185.73,1108.3569 187.0737,1108.3569 Q187.6987,1108.3569 188.2925,1108.0913 Q188.8862,1107.81 189.5112,1107.2319 L189.5112,1109.9506 Z " fill="#000000"/><text fill="#000000" font-family="sans-serif" font-size="14" lengthAdjust="spacing" textLength="102.8809" x="207.0425" y="1109.1567">MedicalRecord</text><line style="stroke:#181818;stroke-width:0.5;" x1="8" x2="476.4658" y1="1120.31" y2="1120.31"/><rect fill="none" height="6" style="stroke:#C82930;stroke-width:1;" width="6" x="15" y="1130.9584"/><text fill="#000000" font-family="sans-serif" font-size="14" lengthAdjust="spacing" textLength="106.415" x="27" y="1137.3051">String recordID</text><rect fill="none" height="6" style="stroke:#C82930;stroke-width:1;" width="6" x="15" y="1147.2553"/><text fill="#000000" font-family="sans-serif" font-size="14" lengthAdjust="spacing" textLength="110.9609" x="27" y="1153.602">String patientID</text><rect fill="none" height="6" style="stroke:#C82930;stroke-width:1;" width="6" x="15" y="1163.5522"/><text fill="#000000" font-family="sans-serif" font-size="14" lengthAdjust="spacing" textLength="112.3896" x="27" y="1169.8989">String diagnosis</text><rect fill="none" height="6" style="stroke:#C82930;stroke-width:1;" width="6" x="15" y="1179.8491"/><text fill="#000000" font-family="sans-serif" font-size="14" lengthAdjust="spacing" textLength="116.7715" x="27" y="1186.1957">String treatment</text><rect fill="none" height="6" style="stroke:#C82930;stroke-width:1;" width="6" x="15" y="1196.1459"/><text fill="#000000" font-family="sans-serif" font-size="14" lengthAdjust="spacing" textLength="103.6465" x="27" y="1202.4926">Patient patient</text><line style="stroke:#181818;stroke-width:0.5;" x1="8" x2="476.4658" y1="1209.7944" y2="1209.7944"/><ellipse cx="18" cy="1223.4428" fill="#84BE84" rx="3" ry="3" style="stroke:#038048;stroke-width:1;"/><text fill="#000000" font-family="sans-serif" font-size="14" lengthAdjust="spacing" textLength="444.4658" x="27" y="1226.7895">void updateRecord(String newDiagnosis, String newTreatment)</text></g><!--class Bill--><g class="entity" data-entity="Bill" data-source-line="68" data-uid="ent0010" id="entity_Bill"><rect fill="#F1F1F1" height="145.7813" rx="2.5" ry="2.5" style="stroke:#181818;stroke-width:0.5;" width="297.5166" x="512.47" y="1088.31"/><ellipse cx="646.3416" cy="1104.31" fill="#ADD1B2" rx="11" ry="11" style="stroke:#181818;stroke-width:1;"/><path d="M649.3103,1109.9506 Q648.7322,1110.2475 648.0916,1110.3881 Q647.451,1110.5444 646.7478,1110.5444 Q644.2478,1110.5444 642.9197,1108.9038 Q641.6072,1107.2475 641.6072,1104.1225 Q641.6072,1100.9975 642.9197,1099.3413 Q644.2478,1097.685 646.7478,1097.685 Q647.451,1097.685 648.0916,1097.8413 Q648.7478,1097.9975 649.3103,1098.2944 L649.3103,1101.0131 Q648.6853,1100.435 648.0916,1100.1694 Q647.4978,1099.8881 646.8728,1099.8881 Q645.5291,1099.8881 644.8416,1100.9663 Q644.1541,1102.0288 644.1541,1104.1225 Q644.1541,1106.2163 644.8416,1107.2944 Q645.5291,1108.3569 646.8728,1108.3569 Q647.4978,1108.3569 648.0916,1108.0913 Q648.6853,1107.81 649.3103,1107.2319 L649.3103,1109.9506 Z " fill="#000000"/><text fill="#000000" font-family="sans-serif" font-size="14" lengthAdjust="spacing" textLength="21.2734" x="666.8416" y="1109.1567">Bill</text><line style="stroke:#181818;stroke-width:0.5;" x1="513.47" x2="808.9866" y1="1120.31" y2="1120.31"/><rect fill="none" height="6" style="stroke:#C82930;stroke-width:1;" width="6" x="520.47" y="1130.9584"/><text fill="#000000" font-family="sans-serif" font-size="14" lengthAdjust="spacing" textLength="81.6963" x="532.47" y="1137.3051">String billID</text><rect fill="none" height="6" style="stroke:#C82930;stroke-width:1;" width="6" x="520.47" y="1147.2553"/><text fill="#000000" font-family="sans-serif" font-size="14" lengthAdjust="spacing" textLength="89.9199" x="532.47" y="1153.602">float amount</text><rect fill="none" height="6" style="stroke:#C82930;stroke-width:1;" width="6" x="520.47" y="1163.5522"/><text fill="#000000" font-family="sans-serif" font-size="14" lengthAdjust="spacing" textLength="89.25" x="532.47" y="1169.8989">String status</text><rect fill="none" height="6" style="stroke:#C82930;stroke-width:1;" width="6" x="520.47" y="1179.8491"/><text fill="#000000" font-family="sans-serif" font-size="14" lengthAdjust="spacing" textLength="103.6465" x="532.47" y="1186.1957">Patient patient</text><line style="stroke:#181818;stroke-width:0.5;" x1="513.47" x2="808.9866" y1="1193.4975" y2="1193.4975"/><ellipse cx="523.47" cy="1207.1459" fill="#84BE84" rx="3" ry="3" style="stroke:#038048;stroke-width:1;"/><text fill="#000000" font-family="sans-serif" font-size="14" lengthAdjust="spacing" textLength="271.5166" x="532.47" y="1210.4926">void updateBill(float additionalCharge)</text><ellipse cx="523.47" cy="1223.4428" fill="#84BE84" rx="3" ry="3" style="stroke:#038048;stroke-width:1;"/><text fill="#000000" font-family="sans-serif" font-size="14" lengthAdjust="spacing" textLength="259.2939" x="532.47" y="1226.7895">void processPayment(float payment)</text></g><!--link Hospital to Department--><g class="link" data-entity-1="Hospital" data-entity-2="Department" data-source-line="77" data-uid="lnk11" id="link_Hospital_Department"><path codeLine="77" d="M624.23,136.88 C624.23,161.24 624.23,188.97 624.23,213.31" fill="none" id="Hospital-Department" style="stroke:#181818;stroke-width:1;"/><polygon fill="#000000" points="629.23,180.0464,632.1689,171.0013,626.2911,171.0013,629.23,180.0464" style="stroke:#000000;stroke-width:1;"/><text fill="#000000" font-family="sans-serif" font-size="13" lengthAdjust="spacing" textLength="55.0278" x="638.23" y="179.5469">contains</text><text fill="#000000" font-family="sans-serif" font-size="13" lengthAdjust="spacing" textLength="8.271" x="615.8314" y="156.4445">1</text><text fill="#000000" font-family="sans-serif" font-size="13" lengthAdjust="spacing" textLength="23.0356" x="599.9737" y="202.4641">1..*</text></g><!--link Department to Doctor--><g class="link" data-entity-1="Department" data-entity-2="Doctor" data-source-line="78" data-uid="lnk12" id="link_Department_Doctor"><path codeLine="78" d="M514.23,343.31 C472.98,367.34 425.83,394.8 383.39,419.53" fill="none" id="Department-Doctor" style="stroke:#181818;stroke-width:1;"/><polygon fill="#000000" points="453.9096,384.0432,463.2046,382.0297,460.2459,376.9508,453.9096,384.0432" style="stroke:#000000;stroke-width:1;"/><text fill="#000000" font-family="sans-serif" font-size="13" lengthAdjust="spacing" textLength="22.9785" x="467.23" y="386.0269">has</text><text fill="#000000" font-family="sans-serif" font-size="13" lengthAdjust="spacing" textLength="8.271" x="494.4873" y="362.8694">1</text><text fill="#000000" font-family="sans-serif" font-size="13" lengthAdjust="spacing" textLength="23.0356" x="371.1293" y="408.9">1..*</text></g><!--link Doctor to Appointment--><g class="link" data-entity-1="Doctor" data-entity-2="Appointment" data-source-line="79" data-uid="lnk13" id="link_Doctor_Appointment"><path codeLine="79" d="M246.96,566.16 C247.08,582.08 249.51,598.45 256.23,612.75 C264.2,629.68 276.51,644.77 290.33,657.81" fill="none" id="Doctor-Appointment" style="stroke:#181818;stroke-width:1;"/><polygon fill="#000000" points="263.3687,608.8359,262.1563,599.403,256.8433,601.9171,263.3687,608.8359" style="stroke:#000000;stroke-width:1;"/><text fill="#000000" font-family="sans-serif" font-size="13" lengthAdjust="spacing" textLength="65.0317" x="270.23" y="608.8169">schedules</text><text fill="#000000" font-family="sans-serif" font-size="13" lengthAdjust="spacing" textLength="8.271" x="237.4723" y="585.6826">1</text><text fill="#000000" font-family="sans-serif" font-size="13" lengthAdjust="spacing" textLength="23.0356" x="259.6443" y="649.8801">0..*</text></g><!--link Appointment to Doctor--><g class="link" data-entity-1="Appointment" data-entity-2="Doctor" data-source-line="81" data-uid="lnk15" id="link_Appointment_Doctor"><path codeLine="81" d="M360.12,642.51 C354.68,626.66 348.07,610.28 340.23,595.75 C334.82,585.7 328.39,575.65 321.55,566" fill="none" id="Appointment-Doctor" style="stroke:#181818;stroke-width:1;"/><polygon fill="#000000" points="350.9792,599.8516,352.4266,609.2514,357.6752,606.6055,350.9792,599.8516" style="stroke:#000000;stroke-width:1;"/><text fill="#000000" font-family="sans-serif" font-size="13" lengthAdjust="spacing" textLength="79.6504" x="362.23" y="608.8169">booked with</text><text fill="#000000" font-family="sans-serif" font-size="13" lengthAdjust="spacing" textLength="8.271" x="349.8583" y="631.6464">1</text><text fill="#000000" font-family="sans-serif" font-size="13" lengthAdjust="spacing" textLength="8.271" x="319.1212" y="585.7601">1</text></g><!--link Patient to Appointment--><g class="link" data-entity-1="Patient" data-entity-2="Appointment" data-source-line="80" data-uid="lnk14" id="link_Patient_Appointment"><path codeLine="80" d="M427.73,865.34 C419.74,840.83 410.81,813.45 402.81,788.93" fill="none" id="Patient-Appointment" style="stroke:#181818;stroke-width:1;"/><polygon fill="#000000" points="421.6797,822.3428,421.6901,831.8534,427.2783,830.0309,421.6797,822.3428" style="stroke:#000000;stroke-width:1;"/><text fill="#000000" font-family="sans-serif" font-size="13" lengthAdjust="spacing" textLength="22.9785" x="432.23" y="831.5969">has</text><text fill="#000000" font-family="sans-serif" font-size="13" lengthAdjust="spacing" textLength="8.271" x="417.036" y="854.4813">1</text><text fill="#000000" font-family="sans-serif" font-size="13" lengthAdjust="spacing" textLength="23.0356" x="380.9629" y="808.7035">0..*</text></g><!--link Appointment to Patient--><g class="link" data-entity-1="Appointment" data-entity-2="Patient" data-source-line="82" data-uid="lnk16" id="link_Appointment_Patient"><path codeLine="82" d="M367.02,788.88 C366.71,804.56 368.26,820.85 373.23,835.53 C376.7,845.76 381.65,855.77 387.4,865.28" fill="none" id="Appointment-Patient" style="stroke:#181818;stroke-width:1;"/><polygon fill="#000000" points="379.5187,831.9275,380.027,822.4305,374.3478,823.9455,379.5187,831.9275" style="stroke:#000000;stroke-width:1;"/><text fill="#000000" font-family="sans-serif" font-size="13" lengthAdjust="spacing" textLength="17.875" x="387.23" y="831.5969">for</text><text fill="#000000" font-family="sans-serif" font-size="13" lengthAdjust="spacing" textLength="8.271" x="357.4877" y="808.6487">1</text><text fill="#000000" font-family="sans-serif" font-size="13" lengthAdjust="spacing" textLength="8.271" x="372.736" y="854.4154">1</text></g><!--link Patient to MedicalRecord--><g class="link" data-entity-1="Patient" data-entity-2="MedicalRecord" data-source-line="83" data-uid="lnk17" id="link_Patient_MedicalRecord"><path codeLine="83" d="M382.8,1011.71 C359.58,1036.23 333.66,1063.62 310.46,1088.12" fill="none" id="Patient-MedicalRecord" style="stroke:#181818;stroke-width:1;"/><polygon fill="#000000" points="354.7925,1053.5073,363.1452,1048.9595,358.8768,1044.9184,354.7925,1053.5073" style="stroke:#000000;stroke-width:1;"/><text fill="#000000" font-family="sans-serif" font-size="13" lengthAdjust="spacing" textLength="22.9785" x="367.23" y="1054.3769">has</text><text fill="#000000" font-family="sans-serif" font-size="13" lengthAdjust="spacing" textLength="8.271" x="367.9091" y="1031.4835">1</text><text fill="#000000" font-family="sans-serif" font-size="13" lengthAdjust="spacing" textLength="23.0356" x="293.0458" y="1077.2613">0..*</text></g><!--link Patient to Bill--><g class="link" data-entity-1="Patient" data-entity-2="Bill" data-source-line="84" data-uid="lnk18" id="link_Patient_Bill"><path codeLine="84" d="M519.99,1011.71 C543.32,1036.23 569.37,1063.62 592.68,1088.12" fill="none" id="Patient-Bill" style="stroke:#181818;stroke-width:1;"/><polygon fill="#000000" points="570.6763,1053.499,566.5712,1044.92,562.3126,1048.9713,570.6763,1053.499" style="stroke:#000000;stroke-width:1;"/><text fill="#000000" font-family="sans-serif" font-size="13" lengthAdjust="spacing" textLength="22.9785" x="576.23" y="1054.3769">has</text><text fill="#000000" font-family="sans-serif" font-size="13" lengthAdjust="spacing" textLength="8.271" x="518.175" y="1031.4835">1</text><text fill="#000000" font-family="sans-serif" font-size="13" lengthAdjust="spacing" textLength="23.0356" x="561.802" y="1077.2613">0..*</text></g><!--link Department to Room--><g class="link" data-entity-1="Department" data-entity-2="Room" data-source-line="85" data-uid="lnk19" id="link_Department_Room"><path codeLine="85" d="M624.23,343.31 C624.23,370.09 624.23,401.14 624.23,427.9" fill="none" id="Department-Room" style="stroke:#181818;stroke-width:1;"/><polygon fill="#000000" points="629.23,386.5264,632.1689,377.4813,626.2911,377.4813,629.23,386.5264" style="stroke:#000000;stroke-width:1;"/><text fill="#000000" font-family="sans-serif" font-size="13" lengthAdjust="spacing" textLength="55.0278" x="638.23" y="386.0269">contains</text><text fill="#000000" font-family="sans-serif" font-size="13" lengthAdjust="spacing" textLength="8.271" x="615.831" y="362.8694">1</text><text fill="#000000" font-family="sans-serif" font-size="13" lengthAdjust="spacing" textLength="23.0356" x="599.9741" y="417.0497">1..*</text></g><!--link Room to Patient--><g class="link" data-entity-1="Room" data-entity-2="Patient" data-source-line="86" data-uid="lnk20" id="link_Room_Patient"><path codeLine="86" d="M599.26,557.88 C567.45,639.45 512.61,780.05 479.35,865.32" fill="none" id="Room-Patient" style="stroke:#181818;stroke-width:1;"/><polygon fill="#000000" points="568.4132,720.3646,574.4379,713.0057,568.9618,710.8699,568.4132,720.3646" style="stroke:#000000;stroke-width:1;"/><text fill="#000000" font-family="sans-serif" font-size="13" lengthAdjust="spacing" textLength="57.8652" x="579.23" y="720.2069">assigned</text><text fill="#000000" font-family="sans-serif" font-size="13" lengthAdjust="spacing" textLength="23.0356" x="572.2731" y="577.8869">0..*</text><text fill="#000000" font-family="sans-serif" font-size="13" lengthAdjust="spacing" textLength="24.8066" x="456.9762" y="854.4593">0..1</text></g><!--link Room to Nurse--><g class="link" data-entity-1="Room" data-entity-2="Nurse" data-source-line="87" data-uid="lnk21" id="link_Room_Nurse"><path codeLine="87" d="M664.04,558.01 C683.79,589.84 707.43,627.93 726.45,658.58" fill="none" id="Room-Nurse" style="stroke:#181818;stroke-width:1;"/><polygon fill="#000000" points="703.8664,608.5648,701.5943,599.3297,696.5999,602.429,703.8664,608.5648" style="stroke:#000000;stroke-width:1;"/><text fill="#000000" font-family="sans-serif" font-size="13" lengthAdjust="spacing" textLength="65.3174" x="710.23" y="608.8169">staffed by</text><text fill="#000000" font-family="sans-serif" font-size="13" lengthAdjust="spacing" textLength="24.8066" x="642.9495" y="577.5766">0..1</text><text fill="#000000" font-family="sans-serif" font-size="13" lengthAdjust="spacing" textLength="24.8066" x="696.7969" y="647.7875">0..1</text></g><!--link Nurse to Department--><g class="link" data-entity-1="Nurse" data-entity-2="Department" data-source-line="88" data-uid="lnk22" id="link_Nurse_Department"><path codeLine="88" d="M778.99,658.75 C795.25,597.18 811.88,496.74 776.23,419.96 C762.68,390.77 740.02,364.79 716.29,343.34" fill="none" id="Nurse-Department" style="stroke:#181818;stroke-width:1;"/><polygon fill="#000000" points="801.2551,488.0224,800.1362,497.4669,805.9012,496.3208,801.2551,488.0224" style="stroke:#000000;stroke-width:1;"/><text fill="#000000" font-family="sans-serif" font-size="13" lengthAdjust="spacing" textLength="54.2153" x="811.23" y="497.4269">works in</text><text fill="#000000" font-family="sans-serif" font-size="13" lengthAdjust="spacing" textLength="8.271" x="772.6826" y="647.9782">1</text><text fill="#000000" font-family="sans-serif" font-size="13" lengthAdjust="spacing" textLength="8.271" x="717.3847" y="362.9025">1</text></g><!--SRC=[jLJBRjim4BpxAnO-AMqSD5SV0hJr8Jaq3TBym9fSMuGbaY2f64RHVoz5wa7HLfrBVR2erN1tPhXBLg6ryAYi5Wuh-Bq0_rl1BsU4t8F4cgOHvDoGjTCWKz8XSyzDlIKJFds6ToLuYzwGHkDgaguOby27vKsADrIhTxg-vSzYmGBnvFjLwcE2fqrEKZ6dJ14VmCFZ4h5Ps6gqiEmM2Sc8lqumu3foGzHgOW8hTyeuVzLQ2HbjIjQ0uteYWQ5aL7rurmekUZ-gUa4dFkIxZi1SrtdJ39zgue9XzIYizsEYkyO3_KVXWxWKaGbCDWoIDkW8kF-RGft8lR0ENTDFpwIFkbZlQcVQoEXLgJgdOdmijxMDlPrqNtUhL4KeGTYVZ3LQ49-qaRLYBxkQHLOx6m2Vnb8FJQnwReobwrqWMrXEDkch60ygMmbZ_X-n6Lw9ASFF70ZHFErCnt61Uwcio6ulPmX73ftUHhV76OiMlGGwRleKjp06t_e4DzSEyPkepkxOhOyDJ7ULGj-JjMe6IovrJbxWZ7XRgEYISIwSK1AhxoMQFKsELHl5_7N-WgSm6767Zc_XZ8ThRNc_XDNAF-xkFYsJks4T1rb82m-BvCh8yA77rr1YWCN6xo5V0YGPkJLOLX9lAchHlTX_m6FQT6Y7ycDjFme7ud0Khfm7TyNMiFC4vsfFMhAlVXdQ7iGWUywTjkidFeOnw39qkL9kSMozbWHvdoB3JAxRdjdjF6nxyiWufwaloHaUbJbO418U_W80]--></g></svg>