<svg xmlns="http://www.w3.org/2000/svg" xmlns:xlink="http://www.w3.org/1999/xlink" contentStyleType="text/css" data-diagram-type="CLASS" height="746px" preserveAspectRatio="none" style="width:628px;height:746px;background:#FFFFFF;" version="1.1" viewBox="0 0 628 746" width="628px" zoomAndPan="magnify"><defs/><g><!--class School--><g class="entity" data-entity="School" data-source-line="1" data-uid="ent0002" id="entity_School"><rect fill="#F1F1F1" height="145.7813" rx="2.5" ry="2.5" style="stroke:#181818;stroke-width:0.5;" width="278.2256" x="293.35" y="7"/><ellipse cx="404.974" cy="23" fill="#ADD1B2" rx="11" ry="11" style="stroke:#181818;stroke-width:1;"/><path d="M407.9428,28.6406 Q407.3646,28.9375 406.724,29.0781 Q406.0834,29.2344 405.3803,29.2344 Q402.8803,29.2344 401.5521,27.5938 Q400.2396,25.9375 400.2396,22.8125 Q400.2396,19.6875 401.5521,18.0313 Q402.8803,16.375 405.3803,16.375 Q406.0834,16.375 406.724,16.5313 Q407.3803,16.6875 407.9428,16.9844 L407.9428,19.7031 Q407.3178,19.125 406.724,18.8594 Q406.1303,18.5781 405.5053,18.5781 Q404.1615,18.5781 403.474,19.6563 Q402.7865,20.7188 402.7865,22.8125 Q402.7865,24.9063 403.474,25.9844 Q404.1615,27.0469 405.5053,27.0469 Q406.1303,27.0469 406.724,26.7813 Q407.3178,26.5 407.9428,25.9219 L407.9428,28.6406 Z " fill="#000000"/><text fill="#000000" font-family="sans-serif" font-size="14" lengthAdjust="spacing" textLength="46.4775" x="425.474" y="27.8467">School</text><line style="stroke:#181818;stroke-width:0.5;" x1="294.35" x2="570.5756" y1="39" y2="39"/><rect fill="none" height="6" style="stroke:#C82930;stroke-width:1;" width="6" x="301.35" y="49.6484"/><text fill="#000000" font-family="sans-serif" font-size="14" lengthAdjust="spacing" textLength="90.6514" x="313.35" y="55.9951">name: String</text><rect fill="none" height="6" style="stroke:#C82930;stroke-width:1;" width="6" x="301.35" y="65.9453"/><text fill="#000000" font-family="sans-serif" font-size="14" lengthAdjust="spacing" textLength="106.2578" x="313.35" y="72.292">address: String</text><rect fill="none" height="6" style="stroke:#C82930;stroke-width:1;" width="6" x="301.35" y="82.2422"/><text fill="#000000" font-family="sans-serif" font-size="14" lengthAdjust="spacing" textLength="156.3994" x="313.35" y="88.5889">establishedDate: Date</text><line style="stroke:#181818;stroke-width:0.5;" x1="294.35" x2="570.5756" y1="95.8906" y2="95.8906"/><ellipse cx="304.35" cy="109.5391" fill="#84BE84" rx="3" ry="3" style="stroke:#038048;stroke-width:1;"/><text fill="#000000" font-family="sans-serif" font-size="14" lengthAdjust="spacing" textLength="248.9785" x="313.35" y="112.8857">addStudent(student: Student): void</text><ellipse cx="304.35" cy="125.8359" fill="#84BE84" rx="3" ry="3" style="stroke:#038048;stroke-width:1;"/><text fill="#000000" font-family="sans-serif" font-size="14" lengthAdjust="spacing" textLength="252.2256" x="313.35" y="129.1826">addTeacher(teacher: Teacher): void</text><ellipse cx="304.35" cy="142.1328" fill="#84BE84" rx="3" ry="3" style="stroke:#038048;stroke-width:1;"/><text fill="#000000" font-family="sans-serif" font-size="14" lengthAdjust="spacing" textLength="229.79" x="313.35" y="145.4795">addCourse(course: Course): void</text></g><!--class Student--><g class="entity" data-entity="Student" data-source-line="10" data-uid="ent0003" id="entity_Student"><rect fill="#F1F1F1" height="129.4844" rx="2.5" ry="2.5" style="stroke:#181818;stroke-width:0.5;" width="244.9346" x="7" y="213.78"/><ellipse cx="97.6616" cy="229.78" fill="#ADD1B2" rx="11" ry="11" style="stroke:#181818;stroke-width:1;"/><path d="M100.6304,235.4206 Q100.0522,235.7175 99.4116,235.8581 Q98.771,236.0144 98.0679,236.0144 Q95.5679,236.0144 94.2397,234.3738 Q92.9272,232.7175 92.9272,229.5925 Q92.9272,226.4675 94.2397,224.8113 Q95.5679,223.155 98.0679,223.155 Q98.771,223.155 99.4116,223.3113 Q100.0679,223.4675 100.6304,223.7644 L100.6304,226.4831 Q100.0054,225.905 99.4116,225.6394 Q98.8179,225.3581 98.1929,225.3581 Q96.8491,225.3581 96.1616,226.4363 Q95.4741,227.4988 95.4741,229.5925 Q95.4741,231.6863 96.1616,232.7644 Q96.8491,233.8269 98.1929,233.8269 Q98.8179,233.8269 99.4116,233.5613 Q100.0054,233.28 100.6304,232.7019 L100.6304,235.4206 Z " fill="#000000"/><text fill="#000000" font-family="sans-serif" font-size="14" lengthAdjust="spacing" textLength="55.1113" x="118.1616" y="234.6267">Student</text><line style="stroke:#181818;stroke-width:0.5;" x1="8" x2="250.9346" y1="245.78" y2="245.78"/><rect fill="none" height="6" style="stroke:#C82930;stroke-width:1;" width="6" x="15" y="256.4284"/><text fill="#000000" font-family="sans-serif" font-size="14" lengthAdjust="spacing" textLength="40.1953" x="27" y="262.7751">id: int</text><rect fill="none" height="6" style="stroke:#C82930;stroke-width:1;" width="6" x="15" y="272.7253"/><text fill="#000000" font-family="sans-serif" font-size="14" lengthAdjust="spacing" textLength="90.6514" x="27" y="279.072">name: String</text><rect fill="none" height="6" style="stroke:#C82930;stroke-width:1;" width="6" x="15" y="289.0222"/><text fill="#000000" font-family="sans-serif" font-size="14" lengthAdjust="spacing" textLength="108.9854" x="27" y="295.3689">birthDate: Date</text><line style="stroke:#181818;stroke-width:0.5;" x1="8" x2="250.9346" y1="302.6706" y2="302.6706"/><ellipse cx="18" cy="316.3191" fill="#84BE84" rx="3" ry="3" style="stroke:#038048;stroke-width:1;"/><text fill="#000000" font-family="sans-serif" font-size="14" lengthAdjust="spacing" textLength="194.1475" x="27" y="319.6657">enroll(course: Course): void</text><ellipse cx="18" cy="332.6159" fill="#84BE84" rx="3" ry="3" style="stroke:#038048;stroke-width:1;"/><text fill="#000000" font-family="sans-serif" font-size="14" lengthAdjust="spacing" textLength="218.9346" x="27" y="335.9626">withdraw(course: Course): void</text></g><!--class Teacher--><g class="entity" data-entity="Teacher" data-source-line="18" data-uid="ent0004" id="entity_Teacher"><rect fill="#F1F1F1" height="129.4844" rx="2.5" ry="2.5" style="stroke:#181818;stroke-width:0.5;" width="292" x="286.47" y="213.78"/><ellipse cx="399.8782" cy="229.78" fill="#ADD1B2" rx="11" ry="11" style="stroke:#181818;stroke-width:1;"/><path d="M402.847,235.4206 Q402.2688,235.7175 401.6282,235.8581 Q400.9876,236.0144 400.2845,236.0144 Q397.7845,236.0144 396.4563,234.3738 Q395.1438,232.7175 395.1438,229.5925 Q395.1438,226.4675 396.4563,224.8113 Q397.7845,223.155 400.2845,223.155 Q400.9876,223.155 401.6282,223.3113 Q402.2845,223.4675 402.847,223.7644 L402.847,226.4831 Q402.222,225.905 401.6282,225.6394 Q401.0345,225.3581 400.4095,225.3581 Q399.0657,225.3581 398.3782,226.4363 Q397.6907,227.4988 397.6907,229.5925 Q397.6907,231.6863 398.3782,232.7644 Q399.0657,233.8269 400.4095,233.8269 Q401.0345,233.8269 401.6282,233.5613 Q402.222,233.28 402.847,232.7019 L402.847,235.4206 Z " fill="#000000"/><text fill="#000000" font-family="sans-serif" font-size="14" lengthAdjust="spacing" textLength="56.6836" x="420.3782" y="234.6267">Teacher</text><line style="stroke:#181818;stroke-width:0.5;" x1="287.47" x2="577.47" y1="245.78" y2="245.78"/><rect fill="none" height="6" style="stroke:#C82930;stroke-width:1;" width="6" x="294.47" y="256.4284"/><text fill="#000000" font-family="sans-serif" font-size="14" lengthAdjust="spacing" textLength="40.1953" x="306.47" y="262.7751">id: int</text><rect fill="none" height="6" style="stroke:#C82930;stroke-width:1;" width="6" x="294.47" y="272.7253"/><text fill="#000000" font-family="sans-serif" font-size="14" lengthAdjust="spacing" textLength="90.6514" x="306.47" y="279.072">name: String</text><rect fill="none" height="6" style="stroke:#C82930;stroke-width:1;" width="6" x="294.47" y="289.0222"/><text fill="#000000" font-family="sans-serif" font-size="14" lengthAdjust="spacing" textLength="103.2227" x="306.47" y="295.3689">hireDate: Date</text><line style="stroke:#181818;stroke-width:0.5;" x1="287.47" x2="577.47" y1="302.6706" y2="302.6706"/><ellipse cx="297.47" cy="316.3191" fill="#84BE84" rx="3" ry="3" style="stroke:#038048;stroke-width:1;"/><text fill="#000000" font-family="sans-serif" font-size="14" lengthAdjust="spacing" textLength="248.2539" x="306.47" y="319.6657">assignCourse(course: Course): void</text><ellipse cx="297.47" cy="332.6159" fill="#84BE84" rx="3" ry="3" style="stroke:#038048;stroke-width:1;"/><text fill="#000000" font-family="sans-serif" font-size="14" lengthAdjust="spacing" textLength="266" x="306.47" y="335.9626">unassignCourse(course: Course): void</text></g><!--class Course--><g class="entity" data-entity="Course" data-source-line="26" data-uid="ent0005" id="entity_Course"><rect fill="#F1F1F1" height="145.7813" rx="2.5" ry="2.5" style="stroke:#181818;stroke-width:0.5;" width="324.2725" x="270.33" y="420.27"/><ellipse cx="403.7778" cy="436.27" fill="#ADD1B2" rx="11" ry="11" style="stroke:#181818;stroke-width:1;"/><path d="M406.7465,441.9106 Q406.1684,442.2075 405.5278,442.3481 Q404.8871,442.5044 404.184,442.5044 Q401.684,442.5044 400.3559,440.8638 Q399.0434,439.2075 399.0434,436.0825 Q399.0434,432.9575 400.3559,431.3013 Q401.684,429.645 404.184,429.645 Q404.8871,429.645 405.5278,429.8013 Q406.184,429.9575 406.7465,430.2544 L406.7465,432.9731 Q406.1215,432.395 405.5278,432.1294 Q404.934,431.8481 404.309,431.8481 Q402.9653,431.8481 402.2778,432.9263 Q401.5903,433.9888 401.5903,436.0825 Q401.5903,438.1763 402.2778,439.2544 Q402.9653,440.3169 404.309,440.3169 Q404.934,440.3169 405.5278,440.0513 Q406.1215,439.77 406.7465,439.1919 L406.7465,441.9106 Z " fill="#000000"/><text fill="#000000" font-family="sans-serif" font-size="14" lengthAdjust="spacing" textLength="48.877" x="424.2778" y="441.1167">Course</text><line style="stroke:#181818;stroke-width:0.5;" x1="271.33" x2="593.6025" y1="452.27" y2="452.27"/><rect fill="none" height="6" style="stroke:#C82930;stroke-width:1;" width="6" x="278.33" y="462.9184"/><text fill="#000000" font-family="sans-serif" font-size="14" lengthAdjust="spacing" textLength="87.2334" x="290.33" y="469.2651">courseId: int</text><rect fill="none" height="6" style="stroke:#C82930;stroke-width:1;" width="6" x="278.33" y="479.2153"/><text fill="#000000" font-family="sans-serif" font-size="14" lengthAdjust="spacing" textLength="139.0498" x="290.33" y="485.562">courseName: String</text><rect fill="none" height="6" style="stroke:#C82930;stroke-width:1;" width="6" x="278.33" y="495.5122"/><text fill="#000000" font-family="sans-serif" font-size="14" lengthAdjust="spacing" textLength="128.7891" x="290.33" y="501.8589">description: String</text><line style="stroke:#181818;stroke-width:0.5;" x1="271.33" x2="593.6025" y1="509.1606" y2="509.1606"/><ellipse cx="281.33" cy="522.8091" fill="#84BE84" rx="3" ry="3" style="stroke:#038048;stroke-width:1;"/><text fill="#000000" font-family="sans-serif" font-size="14" lengthAdjust="spacing" textLength="298.2725" x="290.33" y="526.1557">setClassroom(classroom: Classroom): void</text><ellipse cx="281.33" cy="539.1059" fill="#84BE84" rx="3" ry="3" style="stroke:#038048;stroke-width:1;"/><text fill="#000000" font-family="sans-serif" font-size="14" lengthAdjust="spacing" textLength="248.9785" x="290.33" y="542.4526">addStudent(student: Student): void</text><ellipse cx="281.33" cy="555.4028" fill="#84BE84" rx="3" ry="3" style="stroke:#038048;stroke-width:1;"/><text fill="#000000" font-family="sans-serif" font-size="14" lengthAdjust="spacing" textLength="276.0967" x="290.33" y="558.7495">removeStudent(student: Student): void</text></g><!--class Classroom--><g class="entity" data-entity="Classroom" data-source-line="35" data-uid="ent0006" id="entity_Classroom"><rect fill="#F1F1F1" height="96.8906" rx="2.5" ry="2.5" style="stroke:#181818;stroke-width:0.5;" width="169.7119" x="347.61" y="643.05"/><ellipse cx="391.57" cy="659.05" fill="#ADD1B2" rx="11" ry="11" style="stroke:#181818;stroke-width:1;"/><path d="M394.5387,664.6906 Q393.9606,664.9875 393.32,665.1281 Q392.6793,665.2844 391.9762,665.2844 Q389.4762,665.2844 388.1481,663.6438 Q386.8356,661.9875 386.8356,658.8625 Q386.8356,655.7375 388.1481,654.0813 Q389.4762,652.425 391.9762,652.425 Q392.6793,652.425 393.32,652.5813 Q393.9762,652.7375 394.5387,653.0344 L394.5387,655.7531 Q393.9137,655.175 393.32,654.9094 Q392.7262,654.6281 392.1012,654.6281 Q390.7575,654.6281 390.07,655.7063 Q389.3825,656.7688 389.3825,658.8625 Q389.3825,660.9563 390.07,662.0344 Q390.7575,663.0969 392.1012,663.0969 Q392.7262,663.0969 393.32,662.8313 Q393.9137,662.55 394.5387,661.9719 L394.5387,664.6906 Z " fill="#000000"/><text fill="#000000" font-family="sans-serif" font-size="14" lengthAdjust="spacing" textLength="73.3564" x="412.0055" y="663.8967">Classroom</text><line style="stroke:#181818;stroke-width:0.5;" x1="348.61" x2="516.3219" y1="675.05" y2="675.05"/><rect fill="none" height="6" style="stroke:#C82930;stroke-width:1;" width="6" x="355.61" y="685.6984"/><text fill="#000000" font-family="sans-serif" font-size="14" lengthAdjust="spacing" textLength="143.7119" x="367.61" y="692.0451">roomNumber: String</text><rect fill="none" height="6" style="stroke:#C82930;stroke-width:1;" width="6" x="355.61" y="701.9953"/><text fill="#000000" font-family="sans-serif" font-size="14" lengthAdjust="spacing" textLength="86.5225" x="367.61" y="708.342">capacity: int</text><line style="stroke:#181818;stroke-width:0.5;" x1="348.61" x2="516.3219" y1="715.6438" y2="715.6438"/><ellipse cx="358.61" cy="729.2922" fill="#84BE84" rx="3" ry="3" style="stroke:#038048;stroke-width:1;"/><text fill="#000000" font-family="sans-serif" font-size="14" lengthAdjust="spacing" textLength="122.5137" x="367.61" y="732.6389">getCapacity(): int</text></g><!--reverse link School to Student--><g class="link" data-entity-1="School" data-entity-2="Student" data-source-line="41" data-uid="lnk7" id="link_School_Student"><path codeLine="41" d="M310.8656,159.8051 C280.4956,179.5251 257.88,194.19 228.26,213.41" fill="none" id="School-backto-Student" style="stroke:#181818;stroke-width:1;"/><polygon fill="#181818" points="320.93,153.27,313.7194,153.1827,310.8656,159.8051,318.0761,159.8924,320.93,153.27" style="stroke:#181818;stroke-width:1;"/><text fill="#000000" font-family="sans-serif" font-size="13" lengthAdjust="spacing" textLength="8.271" x="302.2918" y="172.7991">1</text><text fill="#000000" font-family="sans-serif" font-size="13" lengthAdjust="spacing" textLength="23.0356" x="214.8096" y="202.5422">0..*</text></g><!--reverse link School to Teacher--><g class="link" data-entity-1="School" data-entity-2="Teacher" data-source-line="42" data-uid="lnk8" id="link_School_Teacher"><path codeLine="42" d="M432.47,165.27 C432.47,184.99 432.47,194.19 432.47,213.41" fill="none" id="School-backto-Teacher" style="stroke:#181818;stroke-width:1;"/><polygon fill="#181818" points="432.47,153.27,428.47,159.27,432.47,165.27,436.47,159.27,432.47,153.27" style="stroke:#181818;stroke-width:1;"/><text fill="#000000" font-family="sans-serif" font-size="13" lengthAdjust="spacing" textLength="8.271" x="424.1144" y="172.7991">1</text><text fill="#000000" font-family="sans-serif" font-size="13" lengthAdjust="spacing" textLength="23.0356" x="408.2141" y="202.5422">0..*</text></g><!--reverse link School to Course--><g class="link" data-entity-1="School" data-entity-2="Course" data-source-line="43" data-uid="lnk9" id="link_School_Course"><path codeLine="43" d="M558.1934,161.1885 C577.2834,178.5685 585.51,190.79 596.47,213.78 C621.23,265.73 619.77,290.65 596.47,343.27 C583.54,372.45 561.76,398.37 538.22,420.06" fill="none" id="School-backto-Course" style="stroke:#181818;stroke-width:1;"/><polygon fill="#181818" points="549.32,153.11,551.0638,160.1071,558.1934,161.1885,556.4495,154.1915,549.32,153.11" style="stroke:#181818;stroke-width:1;"/><text fill="#000000" font-family="sans-serif" font-size="13" lengthAdjust="spacing" textLength="8.271" x="552.0896" y="172.8768">1</text><text fill="#000000" font-family="sans-serif" font-size="13" lengthAdjust="spacing" textLength="23.0356" x="524.4999" y="409.1993">0..*</text></g><!--link Student to Course--><g class="link" data-entity-1="Student" data-entity-2="Course" data-source-line="45" data-uid="lnk10" id="link_Student_Course"><path codeLine="45" d="M220.79,343.61 C255.03,367.64 294.17,395.1 329.4,419.83" fill="none" id="Student-Course" style="stroke:#181818;stroke-width:1;"/><polygon fill="#000000" points="290.5627,384.7086,284.8471,377.1071,281.4707,381.9184,290.5627,384.7086" style="stroke:#000000;stroke-width:1;"/><text fill="#000000" font-family="sans-serif" font-size="13" lengthAdjust="spacing" textLength="43.5322" x="295.47" y="386.3369">enrolls</text><text fill="#000000" font-family="sans-serif" font-size="13" lengthAdjust="spacing" textLength="23.0356" x="206.0236" y="363.1694">0..*</text><text fill="#000000" font-family="sans-serif" font-size="13" lengthAdjust="spacing" textLength="23.0356" x="295.4821" y="409.1991">0..*</text></g><!--link Teacher to Course--><g class="link" data-entity-1="Teacher" data-entity-2="Course" data-source-line="46" data-uid="lnk11" id="link_Teacher_Course"><path codeLine="46" d="M432.47,343.61 C432.47,367.7 432.47,395.24 432.47,420.02" fill="none" id="Teacher-Course" style="stroke:#181818;stroke-width:1;"/><polygon fill="#000000" points="437.47,386.8364,440.4089,377.7913,434.5311,377.7913,437.47,386.8364" style="stroke:#000000;stroke-width:1;"/><text fill="#000000" font-family="sans-serif" font-size="13" lengthAdjust="spacing" textLength="51.2192" x="446.47" y="386.3369">teaches</text><text fill="#000000" font-family="sans-serif" font-size="13" lengthAdjust="spacing" textLength="8.271" x="424.0715" y="363.1694">1</text><text fill="#000000" font-family="sans-serif" font-size="13" lengthAdjust="spacing" textLength="6.5" x="426.1997" y="409.1554">*</text></g><!--link Course to Classroom--><g class="link" data-entity-1="Course" data-entity-2="Classroom" data-source-line="47" data-uid="lnk12" id="link_Course_Classroom"><path codeLine="47" d="M432.47,566.43 C432.47,591.91 432.47,619.89 432.47,642.82" fill="none" id="Course-Classroom" style="stroke:#181818;stroke-width:1;"/><polygon fill="#000000" points="437.47,609.6164,440.4089,600.5713,434.5311,600.5713,437.47,609.6164" style="stroke:#000000;stroke-width:1;"/><text fill="#000000" font-family="sans-serif" font-size="13" lengthAdjust="spacing" textLength="58.6016" x="446.47" y="609.1169">is held in</text><text fill="#000000" font-family="sans-serif" font-size="13" lengthAdjust="spacing" textLength="8.271" x="424.102" y="586.2016">1</text><text fill="#000000" font-family="sans-serif" font-size="13" lengthAdjust="spacing" textLength="8.271" x="423.9271" y="631.9966">1</text></g><!--SRC=[ZLEnRiCW4Dtz5ITFJY97xUeXIxfaoPB-085JGB8Xud2Ygkg_5mBOJImtyU23Tu_ZFJXuouZWmAKnBNmNuByQDEkmWOEpIfyIn8ImIFI08ZbsR1L951_C-JNXVykjmeg3wmLgLr6COV5ji6ZWOfGOYP_8k4HRkHWRIC24k3Mz9QpuBJGGfvdrKnGysedR37wKQ41fD-_kgAoJ4mUehMdRcSqYvQgS59PTdobAVbvN99N5wP4IgPF-zmmYiTSlK0Tn4HwqHVRkJc74zbET0ebRTNRAwBlC2WZTDfItndGLpoCl8Wydb_jQkrZip0MVSKTpURl1NvZi- -uO-kpE2sTdnfNx6esluEHT9BXQn8GldTvB-Lx2igwXV5klbsMMC9DDBJ2JZNVWAwVMJV0Z0PhKbGIR8ZTLA1M8Vrdn9GLMWZB9X_58l242YQtmnc3p2m00]--></g></svg>