<svg xmlns="http://www.w3.org/2000/svg" xmlns:xlink="http://www.w3.org/1999/xlink" contentStyleType="text/css" data-diagram-type="CLASS" height="1230px" preserveAspectRatio="none" style="width:1449px;height:1230px;background:#FFFFFF;" version="1.1" viewBox="0 0 1449 1230" width="1449px" zoomAndPan="magnify"><defs/><g><!--class Student--><g class="entity" data-entity="Student" data-source-line="3" data-uid="ent0002" id="entity_Student"><rect fill="#F1F1F1" height="210.9688" rx="2.5" ry="2.5" style="stroke:#181818;stroke-width:0.5;" width="188.6475" x="479.1" y="286.82"/><ellipse cx="541.6181" cy="302.82" fill="#ADD1B2" rx="11" ry="11" style="stroke:#181818;stroke-width:1;"/><path d="M544.5868,308.4606 Q544.0087,308.7575 543.3681,308.8981 Q542.7274,309.0544 542.0243,309.0544 Q539.5243,309.0544 538.1962,307.4138 Q536.8837,305.7575 536.8837,302.6325 Q536.8837,299.5075 538.1962,297.8513 Q539.5243,296.195 542.0243,296.195 Q542.7274,296.195 543.3681,296.3513 Q544.0243,296.5075 544.5868,296.8044 L544.5868,299.5231 Q543.9618,298.945 543.3681,298.6794 Q542.7743,298.3981 542.1493,298.3981 Q540.8056,298.3981 540.1181,299.4763 Q539.4306,300.5388 539.4306,302.6325 Q539.4306,304.7263 540.1181,305.8044 Q540.8056,306.8669 542.1493,306.8669 Q542.7743,306.8669 543.3681,306.6013 Q543.9618,306.32 544.5868,305.7419 L544.5868,308.4606 Z " fill="#000000"/><text fill="#000000" font-family="sans-serif" font-size="14" lengthAdjust="spacing" textLength="55.1113" x="562.1181" y="307.6667">Student</text><line style="stroke:#181818;stroke-width:0.5;" x1="480.1" x2="666.7475" y1="318.82" y2="318.82"/><rect fill="none" height="6" style="stroke:#C82930;stroke-width:1;" width="6" x="487.1" y="329.4684"/><text fill="#000000" font-family="sans-serif" font-size="14" lengthAdjust="spacing" textLength="93.9531" x="499.1" y="335.8151">studentId: int</text><rect fill="none" height="6" style="stroke:#C82930;stroke-width:1;" width="6" x="487.1" y="345.7653"/><text fill="#000000" font-family="sans-serif" font-size="14" lengthAdjust="spacing" textLength="90.6514" x="499.1" y="352.112">name: String</text><rect fill="none" height="6" style="stroke:#C82930;stroke-width:1;" width="6" x="487.1" y="362.0622"/><text fill="#000000" font-family="sans-serif" font-size="14" lengthAdjust="spacing" textLength="123.7578" x="499.1" y="368.4089">dateOfBirth: Date</text><rect fill="none" height="6" style="stroke:#C82930;stroke-width:1;" width="6" x="487.1" y="378.3591"/><text fill="#000000" font-family="sans-serif" font-size="14" lengthAdjust="spacing" textLength="106.2578" x="499.1" y="384.7057">address: String</text><rect fill="none" height="6" style="stroke:#C82930;stroke-width:1;" width="6" x="487.1" y="394.6559"/><text fill="#000000" font-family="sans-serif" font-size="14" lengthAdjust="spacing" textLength="159.5781" x="499.1" y="401.0026">contactNumber: String</text><rect fill="none" height="6" style="stroke:#C82930;stroke-width:1;" width="6" x="487.1" y="410.9528"/><text fill="#000000" font-family="sans-serif" font-size="14" lengthAdjust="spacing" textLength="133.1777" x="499.1" y="417.2995">enrolledDate: Date</text><line style="stroke:#181818;stroke-width:0.5;" x1="480.1" x2="666.7475" y1="424.6013" y2="424.6013"/><ellipse cx="490.1" cy="438.2497" fill="#84BE84" rx="3" ry="3" style="stroke:#038048;stroke-width:1;"/><text fill="#000000" font-family="sans-serif" font-size="14" lengthAdjust="spacing" textLength="89.3047" x="499.1" y="441.5964">enroll(): void</text><ellipse cx="490.1" cy="454.5466" fill="#84BE84" rx="3" ry="3" style="stroke:#038048;stroke-width:1;"/><text fill="#000000" font-family="sans-serif" font-size="14" lengthAdjust="spacing" textLength="99.0459" x="499.1" y="457.8932">update(): void</text><ellipse cx="490.1" cy="470.8434" fill="#84BE84" rx="3" ry="3" style="stroke:#038048;stroke-width:1;"/><text fill="#000000" font-family="sans-serif" font-size="14" lengthAdjust="spacing" textLength="162.6475" x="499.1" y="474.1901">viewAttendance(): void</text><ellipse cx="490.1" cy="487.1403" fill="#84BE84" rx="3" ry="3" style="stroke:#038048;stroke-width:1;"/><text fill="#000000" font-family="sans-serif" font-size="14" lengthAdjust="spacing" textLength="131.9336" x="499.1" y="490.487">viewGrades(): void</text></g><!--class Teacher--><g class="entity" data-entity="Teacher" data-source-line="16" data-uid="ent0003" id="entity_Teacher"><rect fill="#F1F1F1" height="227.2656" rx="2.5" ry="2.5" style="stroke:#181818;stroke-width:0.5;" width="224.7686" x="963.04" y="278.67"/><ellipse cx="1042.8325" cy="294.67" fill="#ADD1B2" rx="11" ry="11" style="stroke:#181818;stroke-width:1;"/><path d="M1045.8012,300.3106 Q1045.2231,300.6075 1044.5825,300.7481 Q1043.9419,300.9044 1043.2387,300.9044 Q1040.7387,300.9044 1039.4106,299.2638 Q1038.0981,297.6075 1038.0981,294.4825 Q1038.0981,291.3575 1039.4106,289.7013 Q1040.7387,288.045 1043.2387,288.045 Q1043.9419,288.045 1044.5825,288.2013 Q1045.2387,288.3575 1045.8012,288.6544 L1045.8012,291.3731 Q1045.1762,290.795 1044.5825,290.5294 Q1043.9887,290.2481 1043.3637,290.2481 Q1042.02,290.2481 1041.3325,291.3263 Q1040.645,292.3888 1040.645,294.4825 Q1040.645,296.5763 1041.3325,297.6544 Q1042.02,298.7169 1043.3637,298.7169 Q1043.9887,298.7169 1044.5825,298.4513 Q1045.1762,298.17 1045.8012,297.5919 L1045.8012,300.3106 Z " fill="#000000"/><text fill="#000000" font-family="sans-serif" font-size="14" lengthAdjust="spacing" textLength="56.6836" x="1063.3325" y="299.5167">Teacher</text><line style="stroke:#181818;stroke-width:0.5;" x1="964.04" x2="1186.8086" y1="310.67" y2="310.67"/><rect fill="none" height="6" style="stroke:#C82930;stroke-width:1;" width="6" x="971.04" y="321.3184"/><text fill="#000000" font-family="sans-serif" font-size="14" lengthAdjust="spacing" textLength="94.0557" x="983.04" y="327.6651">teacherId: int</text><rect fill="none" height="6" style="stroke:#C82930;stroke-width:1;" width="6" x="971.04" y="337.6153"/><text fill="#000000" font-family="sans-serif" font-size="14" lengthAdjust="spacing" textLength="90.6514" x="983.04" y="343.962">name: String</text><rect fill="none" height="6" style="stroke:#C82930;stroke-width:1;" width="6" x="971.04" y="353.9122"/><text fill="#000000" font-family="sans-serif" font-size="14" lengthAdjust="spacing" textLength="123.7578" x="983.04" y="360.2589">dateOfBirth: Date</text><rect fill="none" height="6" style="stroke:#C82930;stroke-width:1;" width="6" x="971.04" y="370.2091"/><text fill="#000000" font-family="sans-serif" font-size="14" lengthAdjust="spacing" textLength="106.2578" x="983.04" y="376.5557">address: String</text><rect fill="none" height="6" style="stroke:#C82930;stroke-width:1;" width="6" x="971.04" y="386.5059"/><text fill="#000000" font-family="sans-serif" font-size="14" lengthAdjust="spacing" textLength="159.5781" x="983.04" y="392.8526">contactNumber: String</text><rect fill="none" height="6" style="stroke:#C82930;stroke-width:1;" width="6" x="971.04" y="402.8028"/><text fill="#000000" font-family="sans-serif" font-size="14" lengthAdjust="spacing" textLength="103.2227" x="983.04" y="409.1495">hireDate: Date</text><rect fill="none" height="6" style="stroke:#C82930;stroke-width:1;" width="6" x="971.04" y="419.0997"/><text fill="#000000" font-family="sans-serif" font-size="14" lengthAdjust="spacing" textLength="198.7686" x="983.04" y="425.4464">subjectSpecialization: String</text><line style="stroke:#181818;stroke-width:0.5;" x1="964.04" x2="1186.8086" y1="432.7481" y2="432.7481"/><ellipse cx="974.04" cy="446.3966" fill="#84BE84" rx="3" ry="3" style="stroke:#038048;stroke-width:1;"/><text fill="#000000" font-family="sans-serif" font-size="14" lengthAdjust="spacing" textLength="131.3662" x="983.04" y="449.7432">assignClass(): void</text><ellipse cx="974.04" cy="462.6934" fill="#84BE84" rx="3" ry="3" style="stroke:#038048;stroke-width:1;"/><text fill="#000000" font-family="sans-serif" font-size="14" lengthAdjust="spacing" textLength="99.0459" x="983.04" y="466.0401">update(): void</text><ellipse cx="974.04" cy="478.9903" fill="#84BE84" rx="3" ry="3" style="stroke:#038048;stroke-width:1;"/><text fill="#000000" font-family="sans-serif" font-size="14" lengthAdjust="spacing" textLength="161.1982" x="983.04" y="482.337">takeAttendance(): void</text><ellipse cx="974.04" cy="495.2872" fill="#84BE84" rx="3" ry="3" style="stroke:#038048;stroke-width:1;"/><text fill="#000000" font-family="sans-serif" font-size="14" lengthAdjust="spacing" textLength="137.04" x="983.04" y="498.6339">enterGrades(): void</text></g><!--class Class--><g class="entity" data-entity="Class" data-source-line="30" data-uid="ent0004" id="entity_Class"><rect fill="#F1F1F1" height="162.0781" rx="2.5" ry="2.5" style="stroke:#181818;stroke-width:0.5;" width="239.4111" x="302.72" y="838.31"/><ellipse cx="399.7596" cy="854.31" fill="#ADD1B2" rx="11" ry="11" style="stroke:#181818;stroke-width:1;"/><path d="M402.7283,859.9506 Q402.1502,860.2475 401.5096,860.3881 Q400.8689,860.5444 400.1658,860.5444 Q397.6658,860.5444 396.3377,858.9038 Q395.0252,857.2475 395.0252,854.1225 Q395.0252,850.9975 396.3377,849.3413 Q397.6658,847.685 400.1658,847.685 Q400.8689,847.685 401.5096,847.8413 Q402.1658,847.9975 402.7283,848.2944 L402.7283,851.0131 Q402.1033,850.435 401.5096,850.1694 Q400.9158,849.8881 400.2908,849.8881 Q398.9471,849.8881 398.2596,850.9663 Q397.5721,852.0288 397.5721,854.1225 Q397.5721,856.2163 398.2596,857.2944 Q398.9471,858.3569 400.2908,858.3569 Q400.9158,858.3569 401.5096,858.0913 Q402.1033,857.81 402.7283,857.2319 L402.7283,859.9506 Z " fill="#000000"/><text fill="#000000" font-family="sans-serif" font-size="14" lengthAdjust="spacing" textLength="36.832" x="420.2596" y="859.1567">Class</text><line style="stroke:#181818;stroke-width:0.5;" x1="303.72" x2="541.1311" y1="870.31" y2="870.31"/><rect fill="none" height="6" style="stroke:#C82930;stroke-width:1;" width="6" x="310.72" y="880.9584"/><text fill="#000000" font-family="sans-serif" font-size="14" lengthAdjust="spacing" textLength="75.1885" x="322.72" y="887.3051">classId: int</text><rect fill="none" height="6" style="stroke:#C82930;stroke-width:1;" width="6" x="310.72" y="897.2553"/><text fill="#000000" font-family="sans-serif" font-size="14" lengthAdjust="spacing" textLength="127.0049" x="322.72" y="903.602">className: String</text><rect fill="none" height="6" style="stroke:#C82930;stroke-width:1;" width="6" x="310.72" y="913.5522"/><text fill="#000000" font-family="sans-serif" font-size="14" lengthAdjust="spacing" textLength="143.7119" x="322.72" y="919.8989">roomNumber: String</text><rect fill="none" height="6" style="stroke:#C82930;stroke-width:1;" width="6" x="310.72" y="929.8491"/><text fill="#000000" font-family="sans-serif" font-size="14" lengthAdjust="spacing" textLength="172.5869" x="322.72" y="936.1957">classSchedule: Schedule</text><line style="stroke:#181818;stroke-width:0.5;" x1="303.72" x2="541.1311" y1="943.4975" y2="943.4975"/><ellipse cx="313.72" cy="957.1459" fill="#84BE84" rx="3" ry="3" style="stroke:#038048;stroke-width:1;"/><text fill="#000000" font-family="sans-serif" font-size="14" lengthAdjust="spacing" textLength="186.293" x="322.72" y="960.4926">addStudent(Student): void</text><ellipse cx="313.72" cy="973.4428" fill="#84BE84" rx="3" ry="3" style="stroke:#038048;stroke-width:1;"/><text fill="#000000" font-family="sans-serif" font-size="14" lengthAdjust="spacing" textLength="213.4111" x="322.72" y="976.7895">removeStudent(Student): void</text><ellipse cx="313.72" cy="989.7397" fill="#84BE84" rx="3" ry="3" style="stroke:#038048;stroke-width:1;"/><text fill="#000000" font-family="sans-serif" font-size="14" lengthAdjust="spacing" textLength="199.7803" x="322.72" y="993.0864">setSchedule(Schedule): void</text></g><!--class Subject--><g class="entity" data-entity="Subject" data-source-line="40" data-uid="ent0005" id="entity_Subject"><rect fill="#F1F1F1" height="145.7813" rx="2.5" ry="2.5" style="stroke:#181818;stroke-width:0.5;" width="215.4375" x="967.7" y="1077.39"/><ellipse cx="1045.0008" cy="1093.39" fill="#ADD1B2" rx="11" ry="11" style="stroke:#181818;stroke-width:1;"/><path d="M1047.9695,1099.0306 Q1047.3914,1099.3275 1046.7508,1099.4681 Q1046.1102,1099.6244 1045.407,1099.6244 Q1042.907,1099.6244 1041.5789,1097.9838 Q1040.2664,1096.3275 1040.2664,1093.2025 Q1040.2664,1090.0775 1041.5789,1088.4213 Q1042.907,1086.765 1045.407,1086.765 Q1046.1102,1086.765 1046.7508,1086.9213 Q1047.407,1087.0775 1047.9695,1087.3744 L1047.9695,1090.0931 Q1047.3445,1089.515 1046.7508,1089.2494 Q1046.157,1088.9681 1045.532,1088.9681 Q1044.1883,1088.9681 1043.5008,1090.0463 Q1042.8133,1091.1088 1042.8133,1093.2025 Q1042.8133,1095.2963 1043.5008,1096.3744 Q1044.1883,1097.4369 1045.532,1097.4369 Q1046.157,1097.4369 1046.7508,1097.1713 Q1047.3445,1096.89 1047.9695,1096.3119 L1047.9695,1099.0306 Z " fill="#000000"/><text fill="#000000" font-family="sans-serif" font-size="14" lengthAdjust="spacing" textLength="52.3359" x="1065.5008" y="1098.2367">Subject</text><line style="stroke:#181818;stroke-width:0.5;" x1="968.7" x2="1182.1375" y1="1109.39" y2="1109.39"/><rect fill="none" height="6" style="stroke:#C82930;stroke-width:1;" width="6" x="975.7" y="1120.0384"/><text fill="#000000" font-family="sans-serif" font-size="14" lengthAdjust="spacing" textLength="91.1777" x="987.7" y="1126.3851">subjectId: int</text><rect fill="none" height="6" style="stroke:#C82930;stroke-width:1;" width="6" x="975.7" y="1136.3353"/><text fill="#000000" font-family="sans-serif" font-size="14" lengthAdjust="spacing" textLength="142.9941" x="987.7" y="1142.682">subjectName: String</text><rect fill="none" height="6" style="stroke:#C82930;stroke-width:1;" width="6" x="975.7" y="1152.6322"/><text fill="#000000" font-family="sans-serif" font-size="14" lengthAdjust="spacing" textLength="128.7891" x="987.7" y="1158.9789">description: String</text><rect fill="none" height="6" style="stroke:#C82930;stroke-width:1;" width="6" x="975.7" y="1168.9291"/><text fill="#000000" font-family="sans-serif" font-size="14" lengthAdjust="spacing" textLength="75.0449" x="987.7" y="1175.2757">credits: int</text><line style="stroke:#181818;stroke-width:0.5;" x1="968.7" x2="1182.1375" y1="1182.5775" y2="1182.5775"/><ellipse cx="978.7" cy="1196.2259" fill="#84BE84" rx="3" ry="3" style="stroke:#038048;stroke-width:1;"/><text fill="#000000" font-family="sans-serif" font-size="14" lengthAdjust="spacing" textLength="189.4375" x="987.7" y="1199.5726">addTeacher(Teacher): void</text><ellipse cx="978.7" cy="1212.5228" fill="#84BE84" rx="3" ry="3" style="stroke:#038048;stroke-width:1;"/><text fill="#000000" font-family="sans-serif" font-size="14" lengthAdjust="spacing" textLength="99.0459" x="987.7" y="1215.8695">update(): void</text></g><!--class Parent--><g class="entity" data-entity="Parent" data-source-line="49" data-uid="ent0006" id="entity_Parent"><rect fill="#F1F1F1" height="194.6719" rx="2.5" ry="2.5" style="stroke:#181818;stroke-width:0.5;" width="188.6475" x="739.1" y="294.97"/><ellipse cx="806.2973" cy="310.97" fill="#ADD1B2" rx="11" ry="11" style="stroke:#181818;stroke-width:1;"/><path d="M809.266,316.6106 Q808.6879,316.9075 808.0473,317.0481 Q807.4066,317.2044 806.7035,317.2044 Q804.2035,317.2044 802.8754,315.5638 Q801.5629,313.9075 801.5629,310.7825 Q801.5629,307.6575 802.8754,306.0013 Q804.2035,304.345 806.7035,304.345 Q807.4066,304.345 808.0473,304.5013 Q808.7035,304.6575 809.266,304.9544 L809.266,307.6731 Q808.641,307.095 808.0473,306.8294 Q807.4535,306.5481 806.8285,306.5481 Q805.4848,306.5481 804.7973,307.6263 Q804.1098,308.6888 804.1098,310.7825 Q804.1098,312.8763 804.7973,313.9544 Q805.4848,315.0169 806.8285,315.0169 Q807.4535,315.0169 808.0473,314.7513 Q808.641,314.47 809.266,313.8919 L809.266,316.6106 Z " fill="#000000"/><text fill="#000000" font-family="sans-serif" font-size="14" lengthAdjust="spacing" textLength="45.7529" x="826.7973" y="315.8167">Parent</text><line style="stroke:#181818;stroke-width:0.5;" x1="740.1" x2="926.7475" y1="326.97" y2="326.97"/><rect fill="none" height="6" style="stroke:#C82930;stroke-width:1;" width="6" x="747.1" y="337.6184"/><text fill="#000000" font-family="sans-serif" font-size="14" lengthAdjust="spacing" textLength="86.6318" x="759.1" y="343.9651">parentId: int</text><rect fill="none" height="6" style="stroke:#C82930;stroke-width:1;" width="6" x="747.1" y="353.9153"/><text fill="#000000" font-family="sans-serif" font-size="14" lengthAdjust="spacing" textLength="90.6514" x="759.1" y="360.262">name: String</text><rect fill="none" height="6" style="stroke:#C82930;stroke-width:1;" width="6" x="747.1" y="370.2122"/><text fill="#000000" font-family="sans-serif" font-size="14" lengthAdjust="spacing" textLength="123.7578" x="759.1" y="376.5589">dateOfBirth: Date</text><rect fill="none" height="6" style="stroke:#C82930;stroke-width:1;" width="6" x="747.1" y="386.5091"/><text fill="#000000" font-family="sans-serif" font-size="14" lengthAdjust="spacing" textLength="106.2578" x="759.1" y="392.8557">address: String</text><rect fill="none" height="6" style="stroke:#C82930;stroke-width:1;" width="6" x="747.1" y="402.8059"/><text fill="#000000" font-family="sans-serif" font-size="14" lengthAdjust="spacing" textLength="159.5781" x="759.1" y="409.1526">contactNumber: String</text><rect fill="none" height="6" style="stroke:#C82930;stroke-width:1;" width="6" x="747.1" y="419.1028"/><text fill="#000000" font-family="sans-serif" font-size="14" lengthAdjust="spacing" textLength="117.7969" x="759.1" y="425.4495">student: Student</text><line style="stroke:#181818;stroke-width:0.5;" x1="740.1" x2="926.7475" y1="432.7513" y2="432.7513"/><ellipse cx="750.1" cy="446.3997" fill="#84BE84" rx="3" ry="3" style="stroke:#038048;stroke-width:1;"/><text fill="#000000" font-family="sans-serif" font-size="14" lengthAdjust="spacing" textLength="162.6475" x="759.1" y="449.7464">viewAttendance(): void</text><ellipse cx="750.1" cy="462.6966" fill="#84BE84" rx="3" ry="3" style="stroke:#038048;stroke-width:1;"/><text fill="#000000" font-family="sans-serif" font-size="14" lengthAdjust="spacing" textLength="131.9336" x="759.1" y="466.0432">viewGrades(): void</text><ellipse cx="750.1" cy="478.9934" fill="#84BE84" rx="3" ry="3" style="stroke:#038048;stroke-width:1;"/><text fill="#000000" font-family="sans-serif" font-size="14" lengthAdjust="spacing" textLength="158.792" x="759.1" y="482.3401">contactTeacher(): void</text></g><!--class Attendance--><g class="entity" data-entity="Attendance" data-source-line="61" data-uid="ent0007" id="entity_Attendance"><rect fill="#F1F1F1" height="178.375" rx="2.5" ry="2.5" style="stroke:#181818;stroke-width:0.5;" width="261.6484" x="456.6" y="582.94"/><ellipse cx="542.8285" cy="598.94" fill="#ADD1B2" rx="11" ry="11" style="stroke:#181818;stroke-width:1;"/><path d="M545.7973,604.5806 Q545.2191,604.8775 544.5785,605.0181 Q543.9379,605.1744 543.2348,605.1744 Q540.7348,605.1744 539.4066,603.5338 Q538.0941,601.8775 538.0941,598.7525 Q538.0941,595.6275 539.4066,593.9713 Q540.7348,592.315 543.2348,592.315 Q543.9379,592.315 544.5785,592.4713 Q545.2348,592.6275 545.7973,592.9244 L545.7973,595.6431 Q545.1723,595.065 544.5785,594.7994 Q543.9848,594.5181 543.3598,594.5181 Q542.016,594.5181 541.3285,595.5963 Q540.641,596.6588 540.641,598.7525 Q540.641,600.8463 541.3285,601.9244 Q542.016,602.9869 543.3598,602.9869 Q543.9848,602.9869 544.5785,602.7213 Q545.1723,602.44 545.7973,601.8619 L545.7973,604.5806 Z " fill="#000000"/><text fill="#000000" font-family="sans-serif" font-size="14" lengthAdjust="spacing" textLength="80.6914" x="563.3285" y="603.7867">Attendance</text><line style="stroke:#181818;stroke-width:0.5;" x1="457.6" x2="717.2484" y1="614.94" y2="614.94"/><rect fill="none" height="6" style="stroke:#C82930;stroke-width:1;" width="6" x="464.6" y="625.5884"/><text fill="#000000" font-family="sans-serif" font-size="14" lengthAdjust="spacing" textLength="120.1279" x="476.6" y="631.9351">attendanceId: int</text><rect fill="none" height="6" style="stroke:#C82930;stroke-width:1;" width="6" x="464.6" y="641.8853"/><text fill="#000000" font-family="sans-serif" font-size="14" lengthAdjust="spacing" textLength="117.7969" x="476.6" y="648.232">student: Student</text><rect fill="none" height="6" style="stroke:#C82930;stroke-width:1;" width="6" x="464.6" y="658.1822"/><text fill="#000000" font-family="sans-serif" font-size="14" lengthAdjust="spacing" textLength="80.7529" x="476.6" y="664.5289">class: Class</text><rect fill="none" height="6" style="stroke:#C82930;stroke-width:1;" width="6" x="464.6" y="674.4791"/><text fill="#000000" font-family="sans-serif" font-size="14" lengthAdjust="spacing" textLength="74.1973" x="476.6" y="680.8257">date: Date</text><rect fill="none" height="6" style="stroke:#C82930;stroke-width:1;" width="6" x="464.6" y="690.7759"/><text fill="#000000" font-family="sans-serif" font-size="14" lengthAdjust="spacing" textLength="93.9668" x="476.6" y="697.1226">status: String</text><line style="stroke:#181818;stroke-width:0.5;" x1="457.6" x2="717.2484" y1="704.4244" y2="704.4244"/><ellipse cx="467.6" cy="718.0728" fill="#84BE84" rx="3" ry="3" style="stroke:#038048;stroke-width:1;"/><text fill="#000000" font-family="sans-serif" font-size="14" lengthAdjust="spacing" textLength="175.6836" x="476.6" y="721.4195">recordAttendance(): void</text><ellipse cx="467.6" cy="734.3697" fill="#84BE84" rx="3" ry="3" style="stroke:#038048;stroke-width:1;"/><text fill="#000000" font-family="sans-serif" font-size="14" lengthAdjust="spacing" textLength="235.6484" x="476.6" y="737.7164">viewAttendanceByStudent(): void</text><ellipse cx="467.6" cy="750.6666" fill="#84BE84" rx="3" ry="3" style="stroke:#038048;stroke-width:1;"/><text fill="#000000" font-family="sans-serif" font-size="14" lengthAdjust="spacing" textLength="217.3691" x="476.6" y="754.0132">viewAttendanceByClass(): void</text></g><!--class Grade--><g class="entity" data-entity="Grade" data-source-line="72" data-uid="ent0008" id="entity_Grade"><rect fill="#F1F1F1" height="178.375" rx="2.5" ry="2.5" style="stroke:#181818;stroke-width:0.5;" width="230.9346" x="959.95" y="582.94"/><ellipse cx="1049.8255" cy="598.94" fill="#ADD1B2" rx="11" ry="11" style="stroke:#181818;stroke-width:1;"/><path d="M1052.7942,604.5806 Q1052.2161,604.8775 1051.5755,605.0181 Q1050.9349,605.1744 1050.2317,605.1744 Q1047.7317,605.1744 1046.4036,603.5338 Q1045.0911,601.8775 1045.0911,598.7525 Q1045.0911,595.6275 1046.4036,593.9713 Q1047.7317,592.315 1050.2317,592.315 Q1050.9349,592.315 1051.5755,592.4713 Q1052.2317,592.6275 1052.7942,592.9244 L1052.7942,595.6431 Q1052.1692,595.065 1051.5755,594.7994 Q1050.9817,594.5181 1050.3567,594.5181 Q1049.013,594.5181 1048.3255,595.5963 Q1047.638,596.6588 1047.638,598.7525 Q1047.638,600.8463 1048.3255,601.9244 Q1049.013,602.9869 1050.3567,602.9869 Q1050.9817,602.9869 1051.5755,602.7213 Q1052.1692,602.44 1052.7942,601.8619 L1052.7942,604.5806 Z " fill="#000000"/><text fill="#000000" font-family="sans-serif" font-size="14" lengthAdjust="spacing" textLength="42.6836" x="1070.3255" y="603.7867">Grade</text><line style="stroke:#181818;stroke-width:0.5;" x1="960.95" x2="1189.8846" y1="614.94" y2="614.94"/><rect fill="none" height="6" style="stroke:#C82930;stroke-width:1;" width="6" x="967.95" y="625.5884"/><text fill="#000000" font-family="sans-serif" font-size="14" lengthAdjust="spacing" textLength="81.1563" x="979.95" y="631.9351">gradeId: int</text><rect fill="none" height="6" style="stroke:#C82930;stroke-width:1;" width="6" x="967.95" y="641.8853"/><text fill="#000000" font-family="sans-serif" font-size="14" lengthAdjust="spacing" textLength="117.7969" x="979.95" y="648.232">student: Student</text><rect fill="none" height="6" style="stroke:#C82930;stroke-width:1;" width="6" x="967.95" y="658.1822"/><text fill="#000000" font-family="sans-serif" font-size="14" lengthAdjust="spacing" textLength="112.2461" x="979.95" y="664.5289">subject: Subject</text><rect fill="none" height="6" style="stroke:#C82930;stroke-width:1;" width="6" x="967.95" y="674.4791"/><text fill="#000000" font-family="sans-serif" font-size="14" lengthAdjust="spacing" textLength="87.6299" x="979.95" y="680.8257">exam: Exam</text><rect fill="none" height="6" style="stroke:#C82930;stroke-width:1;" width="6" x="967.95" y="690.7759"/><text fill="#000000" font-family="sans-serif" font-size="14" lengthAdjust="spacing" textLength="91.6699" x="979.95" y="697.1226">grade: String</text><line style="stroke:#181818;stroke-width:0.5;" x1="960.95" x2="1189.8846" y1="704.4244" y2="704.4244"/><ellipse cx="970.95" cy="718.0728" fill="#84BE84" rx="3" ry="3" style="stroke:#038048;stroke-width:1;"/><text fill="#000000" font-family="sans-serif" font-size="14" lengthAdjust="spacing" textLength="129.7461" x="979.95" y="721.4195">enterGrade(): void</text><ellipse cx="970.95" cy="734.3697" fill="#84BE84" rx="3" ry="3" style="stroke:#038048;stroke-width:1;"/><text fill="#000000" font-family="sans-serif" font-size="14" lengthAdjust="spacing" textLength="141.7295" x="979.95" y="737.7164">updateGrade(): void</text><ellipse cx="970.95" cy="750.6666" fill="#84BE84" rx="3" ry="3" style="stroke:#038048;stroke-width:1;"/><text fill="#000000" font-family="sans-serif" font-size="14" lengthAdjust="spacing" textLength="204.9346" x="979.95" y="754.0132">viewGradesByStudent(): void</text></g><!--class Administrator--><g class="entity" data-entity="Administrator" data-source-line="83" data-uid="ent0009" id="entity_Administrator"><rect fill="#F1F1F1" height="194.6719" rx="2.5" ry="2.5" style="stroke:#181818;stroke-width:0.5;" width="274.8623" x="749.99" y="7"/><ellipse cx="835.3298" cy="23" fill="#ADD1B2" rx="11" ry="11" style="stroke:#181818;stroke-width:1;"/><path d="M838.2986,28.6406 Q837.7205,28.9375 837.0798,29.0781 Q836.4392,29.2344 835.7361,29.2344 Q833.2361,29.2344 831.908,27.5938 Q830.5955,25.9375 830.5955,22.8125 Q830.5955,19.6875 831.908,18.0313 Q833.2361,16.375 835.7361,16.375 Q836.4392,16.375 837.0798,16.5313 Q837.7361,16.6875 838.2986,16.9844 L838.2986,19.7031 Q837.6736,19.125 837.0798,18.8594 Q836.4861,18.5781 835.8611,18.5781 Q834.5173,18.5781 833.8298,19.6563 Q833.1423,20.7188 833.1423,22.8125 Q833.1423,24.9063 833.8298,25.9844 Q834.5173,27.0469 835.8611,27.0469 Q836.4861,27.0469 837.0798,26.7813 Q837.6736,26.5 838.2986,25.9219 L838.2986,28.6406 Z " fill="#000000"/><text fill="#000000" font-family="sans-serif" font-size="14" lengthAdjust="spacing" textLength="95.6826" x="855.8298" y="27.8467">Administrator</text><line style="stroke:#181818;stroke-width:0.5;" x1="750.99" x2="1023.8523" y1="39" y2="39"/><rect fill="none" height="6" style="stroke:#C82930;stroke-width:1;" width="6" x="757.99" y="49.6484"/><text fill="#000000" font-family="sans-serif" font-size="14" lengthAdjust="spacing" textLength="84.3008" x="769.99" y="55.9951">adminId: int</text><rect fill="none" height="6" style="stroke:#C82930;stroke-width:1;" width="6" x="757.99" y="65.9453"/><text fill="#000000" font-family="sans-serif" font-size="14" lengthAdjust="spacing" textLength="90.6514" x="769.99" y="72.292">name: String</text><rect fill="none" height="6" style="stroke:#C82930;stroke-width:1;" width="6" x="757.99" y="82.2422"/><text fill="#000000" font-family="sans-serif" font-size="14" lengthAdjust="spacing" textLength="159.5781" x="769.99" y="88.5889">contactNumber: String</text><line style="stroke:#181818;stroke-width:0.5;" x1="750.99" x2="1023.8523" y1="95.8906" y2="95.8906"/><ellipse cx="760.99" cy="109.5391" fill="#84BE84" rx="3" ry="3" style="stroke:#038048;stroke-width:1;"/><text fill="#000000" font-family="sans-serif" font-size="14" lengthAdjust="spacing" textLength="131.1816" x="769.99" y="112.8857">addStudent(): void</text><ellipse cx="760.99" cy="125.8359" fill="#84BE84" rx="3" ry="3" style="stroke:#038048;stroke-width:1;"/><text fill="#000000" font-family="sans-serif" font-size="14" lengthAdjust="spacing" textLength="132.7539" x="769.99" y="129.1826">addTeacher(): void</text><ellipse cx="760.99" cy="142.1328" fill="#84BE84" rx="3" ry="3" style="stroke:#038048;stroke-width:1;"/><text fill="#000000" font-family="sans-serif" font-size="14" lengthAdjust="spacing" textLength="112.9023" x="769.99" y="145.4795">addClass(): void</text><ellipse cx="760.99" cy="158.4297" fill="#84BE84" rx="3" ry="3" style="stroke:#038048;stroke-width:1;"/><text fill="#000000" font-family="sans-serif" font-size="14" lengthAdjust="spacing" textLength="128.4063" x="769.99" y="161.7764">addSubject(): void</text><ellipse cx="760.99" cy="174.7266" fill="#84BE84" rx="3" ry="3" style="stroke:#038048;stroke-width:1;"/><text fill="#000000" font-family="sans-serif" font-size="14" lengthAdjust="spacing" textLength="167.4736" x="769.99" y="178.0732">generateReports(): void</text><ellipse cx="760.99" cy="191.0234" fill="#84BE84" rx="3" ry="3" style="stroke:#038048;stroke-width:1;"/><text fill="#000000" font-family="sans-serif" font-size="14" lengthAdjust="spacing" textLength="248.8623" x="769.99" y="194.3701">manageAdministrativeTasks(): void</text></g><!--link Student to Parent--><g class="link" data-entity-1="Student" data-entity-2="Parent" data-source-line="97" data-uid="lnk10" id="link_Student_Parent"><path codeLine="97" d="M668.02,392.3 C691.11,392.3 715.81,392.3 738.89,392.3" fill="none" id="Student-Parent" style="stroke:#181818;stroke-width:1;"/><polygon fill="#000000" points="694.92,380.8664,685.8749,377.9275,685.8749,383.8053,694.92,380.8664" style="stroke:#000000;stroke-width:1;"/><text fill="#000000" font-family="sans-serif" font-size="13" lengthAdjust="spacing" textLength="22.9785" x="698.92" y="385.3669">has</text><text fill="#000000" font-family="sans-serif" font-size="13" lengthAdjust="spacing" textLength="8.271" x="675.8877" y="388.7742">1</text><text fill="#000000" font-family="sans-serif" font-size="13" lengthAdjust="spacing" textLength="8.271" x="722.7414" y="388.7508">1</text></g><!--link Student to Class--><g class="link" data-entity-1="Student" data-entity-2="Class" data-source-line="98" data-uid="lnk11" id="link_Student_Class"><path codeLine="98" d="M478.65,452.4 C435.5,485.02 388.91,529.74 365.42,582.94 C329.16,665.07 356.05,767.91 383.89,837.92" fill="none" id="Student-Class" style="stroke:#181818;stroke-width:1;"/><polygon fill="#000000" points="369.2265,677.0419,374.2395,668.9597,368.5316,667.5567,369.2265,677.0419" style="stroke:#000000;stroke-width:1;"/><text fill="#000000" font-family="sans-serif" font-size="13" lengthAdjust="spacing" textLength="59.5156" x="379.42" y="676.6869">enrolls in</text><text fill="#000000" font-family="sans-serif" font-size="13" lengthAdjust="spacing" textLength="8.271" x="462.7898" y="453.6634">1</text><text fill="#000000" font-family="sans-serif" font-size="13" lengthAdjust="spacing" textLength="23.0356" x="356.5916" y="827.3503">1..*</text></g><!--link Class to Student--><g class="link" data-entity-1="Class" data-entity-2="Student" data-source-line="109" data-uid="lnk20" id="link_Class_Student"><path codeLine="109" d="M321.57,838.15 C300.37,815.76 280.96,789.7 269.42,761.31 C239.56,687.87 230.96,652.26 269.42,582.94 C313.71,503.11 407.12,452.49 478.78,423.82" fill="none" id="Class-Student" style="stroke:#181818;stroke-width:1;"/><polygon fill="#000000" points="276.1938,667.5116,270.2372,674.9258,275.7328,677.011,276.1938,667.5116" style="stroke:#000000;stroke-width:1;"/><text fill="#000000" font-family="sans-serif" font-size="13" lengthAdjust="spacing" textLength="55.0278" x="283.42" y="676.6869">contains</text><text fill="#000000" font-family="sans-serif" font-size="13" lengthAdjust="spacing" textLength="8.271" x="304.2434" y="827.323">1</text><text fill="#000000" font-family="sans-serif" font-size="13" lengthAdjust="spacing" textLength="23.0356" x="447.9864" y="422.6554">1..*</text></g><!--link Student to Subject--><g class="link" data-entity-1="Student" data-entity-2="Subject" data-source-line="99" data-uid="lnk12" id="link_Student_Subject"><path codeLine="99" d="M667.87,462.27 C693.49,483.93 719.81,509.22 740.42,535.94 C808.39,624.03 797.16,663.08 849.42,761.31 C909.01,873.31 984.18,999.71 1031.03,1076.93" fill="none" id="Student-Subject" style="stroke:#181818;stroke-width:1;"/><polygon fill="#000000" points="880.9634,804.1812,878.8926,794.8988,873.8321,797.8887,880.9634,804.1812" style="stroke:#000000;stroke-width:1;"/><text fill="#000000" font-family="sans-serif" font-size="13" lengthAdjust="spacing" textLength="35.3628" x="887.42" y="804.3769">takes</text><text fill="#000000" font-family="sans-serif" font-size="13" lengthAdjust="spacing" textLength="8.271" x="675.7257" y="464.3199">1</text><text fill="#000000" font-family="sans-serif" font-size="13" lengthAdjust="spacing" textLength="23.0356" x="1002.7048" y="1066.2971">1..*</text></g><!--link Student to Attendance--><g class="link" data-entity-1="Student" data-entity-2="Attendance" data-source-line="100" data-uid="lnk13" id="link_Student_Attendance"><path codeLine="100" d="M578.69,497.94 C580.1,525.78 581.6,555.58 582.95,582.47" fill="none" id="Student-Attendance" style="stroke:#181818;stroke-width:1;"/><polygon fill="#000000" points="585.6717,549.5001,588.1516,540.3185,582.2812,540.6144,585.6717,549.5001" style="stroke:#000000;stroke-width:1;"/><text fill="#000000" font-family="sans-serif" font-size="13" lengthAdjust="spacing" textLength="22.9785" x="594.42" y="549.0069">has</text><text fill="#000000" font-family="sans-serif" font-size="13" lengthAdjust="spacing" textLength="8.271" x="570.7886" y="517.9664">1</text><text fill="#000000" font-family="sans-serif" font-size="13" lengthAdjust="spacing" textLength="23.0356" x="558.6785" y="571.7999">1..*</text></g><!--link Student to Grade--><g class="link" data-entity-1="Student" data-entity-2="Grade" data-source-line="101" data-uid="lnk14" id="link_Student_Grade"><path codeLine="101" d="M668.09,471.93 C685.25,484.24 703.42,496.12 721.42,505.94 C809.42,553.95 843.25,539.15 933.42,582.94 C942.04,587.12 950.79,591.69 959.5,596.48" fill="none" id="Student-Grade" style="stroke:#181818;stroke-width:1;"/><polygon fill="#000000" points="862.0177,546.4715,854.8554,540.2142,852.5454,545.6191,862.0177,546.4715" style="stroke:#000000;stroke-width:1;"/><text fill="#000000" font-family="sans-serif" font-size="13" lengthAdjust="spacing" textLength="54.5645" x="866.42" y="549.0069">receives</text><text fill="#000000" font-family="sans-serif" font-size="13" lengthAdjust="spacing" textLength="8.271" x="675.6545" y="490.6725">1</text><text fill="#000000" font-family="sans-serif" font-size="13" lengthAdjust="spacing" textLength="23.0356" x="928.7366" y="588.4841">1..*</text></g><!--link Teacher to Class--><g class="link" data-entity-1="Teacher" data-entity-2="Class" data-source-line="103" data-uid="lnk15" id="link_Teacher_Class"><path codeLine="103" d="M962.64,490.05 C924.6,524.86 888.66,560.94 876.42,582.94 C826.69,672.36 899.63,733.87 829.42,808.31 C790.28,849.81 647.91,881.57 542.53,900.06" fill="none" id="Teacher-Class" style="stroke:#181818;stroke-width:1;"/><polygon fill="#000000" points="877.8417,675.6787,886.3676,671.4644,882.2622,667.2578,877.8417,675.6787" style="stroke:#000000;stroke-width:1;"/><text fill="#000000" font-family="sans-serif" font-size="13" lengthAdjust="spacing" textLength="51.2192" x="890.42" y="676.6869">teaches</text><text fill="#000000" font-family="sans-serif" font-size="13" lengthAdjust="spacing" textLength="8.271" x="946.8027" y="493.1848">1</text><text fill="#000000" font-family="sans-serif" font-size="13" lengthAdjust="spacing" textLength="23.0356" x="550.1394" y="895.582">1..*</text></g><!--link Teacher to Subject--><g class="link" data-entity-1="Teacher" data-entity-2="Subject" data-source-line="104" data-uid="lnk16" id="link_Teacher_Subject"><path codeLine="104" d="M1171.1,506.42 C1186.46,530.32 1200.04,556.38 1208.42,582.94 C1263.54,757.5 1173.94,968.77 1116.91,1077.27" fill="none" id="Teacher-Subject" style="stroke:#181818;stroke-width:1;"/><polygon fill="#000000" points="1220.9475,804.854,1224.728,796.1272,1218.8765,795.5717,1220.9475,804.854" style="stroke:#000000;stroke-width:1;"/><text fill="#000000" font-family="sans-serif" font-size="13" lengthAdjust="spacing" textLength="86.5503" x="1230.42" y="804.3769">specializes in</text><text fill="#000000" font-family="sans-serif" font-size="13" lengthAdjust="spacing" textLength="8.271" x="1168.6947" y="525.902">1</text><text fill="#000000" font-family="sans-serif" font-size="13" lengthAdjust="spacing" textLength="23.0356" x="1096.864" y="1066.4182">1..*</text></g><!--link Teacher to Attendance--><g class="link" data-entity-1="Teacher" data-entity-2="Attendance" data-source-line="105" data-uid="lnk17" id="link_Teacher_Attendance"><path codeLine="105" d="M962.74,497.02 C957.05,500.29 951.27,503.29 945.42,505.94 C856.33,546.29 815.39,493.19 727.42,535.94 C703.72,547.45 681.46,564.5 661.97,582.64" fill="none" id="Teacher-Attendance" style="stroke:#181818;stroke-width:1;"/><polygon fill="#000000" points="727.6111,545.8754,737.1152,546.2255,735.5059,540.5723,727.6111,545.8754" style="stroke:#000000;stroke-width:1;"/><text fill="#000000" font-family="sans-serif" font-size="13" lengthAdjust="spacing" textLength="35.3628" x="741.42" y="549.0069">takes</text><text fill="#000000" font-family="sans-serif" font-size="13" lengthAdjust="spacing" textLength="8.271" x="946.9094" y="516.6309">1</text><text fill="#000000" font-family="sans-serif" font-size="13" lengthAdjust="spacing" textLength="23.0356" x="643.9954" y="571.9835">0..*</text></g><!--link Teacher to Grade--><g class="link" data-entity-1="Teacher" data-entity-2="Grade" data-source-line="106" data-uid="lnk18" id="link_Teacher_Grade"><path codeLine="106" d="M1075.42,506.3 C1075.42,531.69 1075.42,558.28 1075.42,582.5" fill="none" id="Teacher-Grade" style="stroke:#181818;stroke-width:1;"/><polygon fill="#000000" points="1080.42,549.5064,1083.3589,540.4613,1077.4811,540.4613,1080.42,549.5064" style="stroke:#000000;stroke-width:1;"/><text fill="#000000" font-family="sans-serif" font-size="13" lengthAdjust="spacing" textLength="41.4502" x="1089.42" y="549.0069">enters</text><text fill="#000000" font-family="sans-serif" font-size="13" lengthAdjust="spacing" textLength="8.271" x="1067.1722" y="526.1546">1</text><text fill="#000000" font-family="sans-serif" font-size="13" lengthAdjust="spacing" textLength="23.0356" x="1051.5052" y="571.8323">0..*</text></g><!--link Class to Subject--><g class="link" data-entity-1="Class" data-entity-2="Subject" data-source-line="108" data-uid="lnk19" id="link_Class_Subject"><path codeLine="108" d="M542.56,982.28 C588.92,1004.68 642.89,1028.97 693.42,1047.39 C783.87,1080.35 889.86,1107.78 967.23,1125.84" fill="none" id="Class-Subject" style="stroke:#181818;stroke-width:1;"/><polygon fill="#000000" points="703.1567,1040.5576,695.5291,1034.8768,693.6468,1040.4451,703.1567,1040.5576" style="stroke:#000000;stroke-width:1;"/><text fill="#000000" font-family="sans-serif" font-size="13" lengthAdjust="spacing" textLength="37.2227" x="707.42" y="1043.4569">offers</text><text fill="#000000" font-family="sans-serif" font-size="13" lengthAdjust="spacing" textLength="8.271" x="550.1327" y="982.7288">1</text><text fill="#000000" font-family="sans-serif" font-size="13" lengthAdjust="spacing" textLength="23.0356" x="936.5636" y="1120.865">1..*</text></g><!--link Attendance to Class--><g class="link" data-entity-1="Attendance" data-entity-2="Class" data-source-line="111" data-uid="lnk21" id="link_Attendance_Class"><path codeLine="111" d="M527.85,761.66 C511.05,786.62 492.87,813.64 476.42,838.1" fill="none" id="Attendance-Class" style="stroke:#181818;stroke-width:1;"/><polygon fill="#000000" points="506.6289,804.0248,514.1165,798.1608,509.2397,794.8797,506.6289,804.0248" style="stroke:#000000;stroke-width:1;"/><text fill="#000000" font-family="sans-serif" font-size="13" lengthAdjust="spacing" textLength="68.2627" x="518.42" y="804.3769">belongs to</text><text fill="#000000" font-family="sans-serif" font-size="13" lengthAdjust="spacing" textLength="8.271" x="514.7947" y="781.4645">1</text><text fill="#000000" font-family="sans-serif" font-size="13" lengthAdjust="spacing" textLength="8.271" x="472.8847" y="827.2686">1</text></g><!--link Grade to Subject--><g class="link" data-entity-1="Grade" data-entity-2="Subject" data-source-line="113" data-uid="lnk22" id="link_Grade_Subject"><path codeLine="113" d="M1075.42,761.57 C1075.42,852.61 1075.42,992.74 1075.42,1077.25" fill="none" id="Grade-Subject" style="stroke:#181818;stroke-width:1;"/><polygon fill="#000000" points="1080.42,924.4164,1083.3589,915.3713,1077.4811,915.3713,1080.42,924.4164" style="stroke:#000000;stroke-width:1;"/><text fill="#000000" font-family="sans-serif" font-size="13" lengthAdjust="spacing" textLength="32.3921" x="1089.42" y="923.9169">is for</text><text fill="#000000" font-family="sans-serif" font-size="13" lengthAdjust="spacing" textLength="8.271" x="1067.1123" y="781.3673">1</text><text fill="#000000" font-family="sans-serif" font-size="13" lengthAdjust="spacing" textLength="8.271" x="1067.0397" y="1066.3962">1</text></g><!--link Administrator to Student--><g class="link" data-entity-1="Administrator" data-entity-2="Student" data-source-line="115" data-uid="lnk23" id="link_Administrator_Student"><path codeLine="115" d="M781.11,202.15 C744.46,235.53 703.68,272.67 668.03,305.14" fill="none" id="Administrator-Student" style="stroke:#181818;stroke-width:1;"/><polygon fill="#000000" points="740.7234,243.6032,749.3896,239.6854,745.4317,235.3398,740.7234,243.6032" style="stroke:#000000;stroke-width:1;"/><text fill="#000000" font-family="sans-serif" font-size="13" lengthAdjust="spacing" textLength="59.8584" x="753.42" y="244.7369">manages</text><text fill="#000000" font-family="sans-serif" font-size="13" lengthAdjust="spacing" textLength="6.5" x="675.8279" y="294.6686">*</text></g><!--link Administrator to Teacher--><g class="link" data-entity-1="Administrator" data-entity-2="Teacher" data-source-line="116" data-uid="lnk24" id="link_Administrator_Teacher"><path codeLine="116" d="M951.07,202.15 C967.15,226.62 984.57,253.1 1001.13,278.29" fill="none" id="Administrator-Teacher" style="stroke:#181818;stroke-width:1;"/><polygon fill="#000000" points="989.1669,244.4143,986.6535,235.2419,981.742,238.471,989.1669,244.4143" style="stroke:#000000;stroke-width:1;"/><text fill="#000000" font-family="sans-serif" font-size="13" lengthAdjust="spacing" textLength="59.8584" x="995.42" y="244.7369">manages</text><text fill="#000000" font-family="sans-serif" font-size="13" lengthAdjust="spacing" textLength="6.5" x="990.1944" y="267.5767">*</text></g><!--link Administrator to Class--><g class="link" data-entity-1="Administrator" data-entity-2="Class" data-source-line="117" data-uid="lnk25" id="link_Administrator_Class"><path codeLine="117" d="M749.76,140.79 C579.1,193.59 299.48,311.66 207.42,535.94 C185.77,588.68 6,262.95 235.42,761.31 C250.22,793.47 275.26,821.35 302.29,844.33" fill="none" id="Administrator-Class" style="stroke:#181818;stroke-width:1;"/><polygon fill="#000000" points="209.7366,548.7254,217.0707,542.6704,212.111,539.516,209.7366,548.7254" style="stroke:#000000;stroke-width:1;"/><text fill="#000000" font-family="sans-serif" font-size="13" lengthAdjust="spacing" textLength="59.8584" x="221.42" y="549.0069">manages</text><text fill="#000000" font-family="sans-serif" font-size="13" lengthAdjust="spacing" textLength="6.5" x="288.0336" y="835.8571">*</text></g><!--link Administrator to Subject--><g class="link" data-entity-1="Administrator" data-entity-2="Subject" data-source-line="118" data-uid="lnk26" id="link_Administrator_Subject"><path codeLine="118" d="M1025.29,127.16 C1167.11,158.39 1367.42,230.89 1367.42,391.3 C1367.42,391.3 1367.42,391.3 1367.42,920.35 C1367.42,1017.3 1266.5,1079.38 1183.32,1114.08" fill="none" id="Administrator-Subject" style="stroke:#181818;stroke-width:1;"/><polygon fill="#000000" points="1373.2106,677.1235,1374.6824,667.7275,1368.8785,668.6569,1373.2106,677.1235" style="stroke:#000000;stroke-width:1;"/><text fill="#000000" font-family="sans-serif" font-size="13" lengthAdjust="spacing" textLength="59.8584" x="1381.42" y="676.6869">manages</text><text fill="#000000" font-family="sans-serif" font-size="13" lengthAdjust="spacing" textLength="6.5" x="1191.1353" y="1108.0789">*</text></g><!--SRC=[lLPBRzGm4Bxlhx1wwK951LSVa6YB40SAOli7lF5iOfhOaJrPA8Z_Zfz9dCTknQ4zxAvdFe_dcsSloHqSX0HIrCmOCEIWD15DgpGoYGGa2XHMB2J12iYkg9IgoHScMGcDrPBTaq5eDXj_d-omuqxwPqFitnjYmlapfzO2Hg5a3L0BrKAMKSGPmjV3ZT1OKN9d3r7EEDTWp0HTA8cimFkksOEUw41gLTV0dP6HgQkesBwYvAW4ZyAkTIzFX4S1FpyWWkHC5alAJvfnCBtYRsB_0AoeGFViCPnVa7qbD4oOsoHq-nzGuAw5Gh1Q_6OebCmkNX7hlYZbhQFnd10XUuJL4Dc4WrwBaN-YZv2NvV7neljvaBHIpI9dVy4M9l2kTfVYhqICyrYKs_YTEwkXKKSu2J60oUWs_PZnseKW3vKVpZctA5nWPsDLQD7ECcFfQU02pM36SugbjetV9rFM-_YDwN5pjlxuWjKPfm5DO-8_-oqeuaCf43EoWyMUCEj5axGi-HKBYuQA7SKYxoras9b9CsaebEOdAGtAcwTKVATHUM_sD7riUeQbEpsBN2n5cWetZSzVhA7ae_qSMvpm6nfySLOiQOOqplaEAUEDaCAWPgY6ASgSz6oLhjTTDWDohqQDD5CipK9dA8HheYX1WlKQleFRdDDhZL-N8tRY20_CF6Rfl4oRM4Fj9xIfH6i8QvGi_UxbNitJfjviqhAzU7TX0-0-OuDJKZ53tkS0XxY-VdqH9p2D2z6lzZLe6chK3_nrawDUE_rsg5RgEWHi41nmaxRcifTXXphWCcvmqQJz1f7JzCBRkQ-9rZ8qUUlhtViQl5hpG1qE0RS8Ym6XeLI5z0P7tlJmWVmUQfjzGr0vR71d11jU5k4VDsSmwo47pDuEfUYUNWIcE9m59W_Fm0OFU-0_]--></g></svg>