<svg xmlns="http://www.w3.org/2000/svg" xmlns:xlink="http://www.w3.org/1999/xlink" contentStyleType="text/css" data-diagram-type="CLASS" height="366px" preserveAspectRatio="none" style="width:733px;height:366px;background:#FFFFFF;" version="1.1" viewBox="0 0 733 366" width="733px" zoomAndPan="magnify"><defs/><g><!--class Employee--><g class="entity" data-entity="Employee" data-source-line="1" data-uid="ent0002" id="entity_Employee"><rect fill="#F1F1F1" height="129.4844" rx="2.5" ry="2.5" style="stroke:#181818;stroke-width:0.5;" width="227.4756" x="132" y="15.15"/><ellipse cx="206.8193" cy="31.15" fill="#ADD1B2" rx="11" ry="11" style="stroke:#181818;stroke-width:1;"/><path d="M209.7881,36.7906 Q209.21,37.0875 208.5693,37.2281 Q207.9287,37.3844 207.2256,37.3844 Q204.7256,37.3844 203.3975,35.7437 Q202.085,34.0875 202.085,30.9625 Q202.085,27.8375 203.3975,26.1812 Q204.7256,24.525 207.2256,24.525 Q207.9287,24.525 208.5693,24.6812 Q209.2256,24.8375 209.7881,25.1344 L209.7881,27.8531 Q209.1631,27.275 208.5693,27.0094 Q207.9756,26.7281 207.3506,26.7281 Q206.0068,26.7281 205.3193,27.8062 Q204.6318,28.8687 204.6318,30.9625 Q204.6318,33.0562 205.3193,34.1344 Q206.0068,35.1969 207.3506,35.1969 Q207.9756,35.1969 208.5693,34.9312 Q209.1631,34.65 209.7881,34.0719 L209.7881,36.7906 Z " fill="#000000"/><text fill="#000000" font-family="sans-serif" font-size="14" lengthAdjust="spacing" textLength="69.3369" x="227.3193" y="35.9967">Employee</text><line style="stroke:#181818;stroke-width:0.5;" x1="133" x2="358.4756" y1="47.15" y2="47.15"/><rect fill="none" height="6" style="stroke:#C82930;stroke-width:1;" width="6" x="140" y="57.7984"/><text fill="#000000" font-family="sans-serif" font-size="14" lengthAdjust="spacing" textLength="109.5391" x="152" y="64.1451">employeeId: int</text><rect fill="none" height="6" style="stroke:#C82930;stroke-width:1;" width="6" x="140" y="74.0953"/><text fill="#000000" font-family="sans-serif" font-size="14" lengthAdjust="spacing" textLength="89.0586" x="152" y="80.442">name: string</text><rect fill="none" height="6" style="stroke:#C82930;stroke-width:1;" width="6" x="140" y="90.3922"/><text fill="#000000" font-family="sans-serif" font-size="14" lengthAdjust="spacing" textLength="87.9648" x="152" y="96.7389">email: string</text><line style="stroke:#181818;stroke-width:0.5;" x1="133" x2="358.4756" y1="104.0406" y2="104.0406"/><ellipse cx="143" cy="117.6891" fill="#84BE84" rx="3" ry="3" style="stroke:#038048;stroke-width:1;"/><text fill="#000000" font-family="sans-serif" font-size="14" lengthAdjust="spacing" textLength="124.5713" x="152" y="121.0357">getName(): string</text><ellipse cx="143" cy="133.9859" fill="#84BE84" rx="3" ry="3" style="stroke:#038048;stroke-width:1;"/><text fill="#000000" font-family="sans-serif" font-size="14" lengthAdjust="spacing" textLength="201.4756" x="152" y="137.3326">setName(name: string): void</text></g><!--class Department--><g class="entity" data-entity="Department" data-source-line="9" data-uid="ent0003" id="entity_Department"><rect fill="#F1F1F1" height="113.1875" rx="2.5" ry="2.5" style="stroke:#181818;stroke-width:0.5;" width="227.4756" x="7" y="237.93"/><ellipse cx="74.1289" cy="253.93" fill="#ADD1B2" rx="11" ry="11" style="stroke:#181818;stroke-width:1;"/><path d="M77.0977,259.5706 Q76.5195,259.8675 75.8789,260.0081 Q75.2383,260.1644 74.5352,260.1644 Q72.0352,260.1644 70.707,258.5237 Q69.3945,256.8675 69.3945,253.7425 Q69.3945,250.6175 70.707,248.9612 Q72.0352,247.305 74.5352,247.305 Q75.2383,247.305 75.8789,247.4612 Q76.5352,247.6175 77.0977,247.9144 L77.0977,250.6331 Q76.4727,250.055 75.8789,249.7894 Q75.2852,249.5081 74.6602,249.5081 Q73.3164,249.5081 72.6289,250.5862 Q71.9414,251.6487 71.9414,253.7425 Q71.9414,255.8362 72.6289,256.9144 Q73.3164,257.9769 74.6602,257.9769 Q75.2852,257.9769 75.8789,257.7112 Q76.4727,257.43 77.0977,256.8519 L77.0977,259.5706 Z " fill="#000000"/><text fill="#000000" font-family="sans-serif" font-size="14" lengthAdjust="spacing" textLength="84.7178" x="94.6289" y="258.7767">Department</text><line style="stroke:#181818;stroke-width:0.5;" x1="8" x2="233.4756" y1="269.93" y2="269.93"/><rect fill="none" height="6" style="stroke:#C82930;stroke-width:1;" width="6" x="15" y="280.5784"/><text fill="#000000" font-family="sans-serif" font-size="14" lengthAdjust="spacing" textLength="123.2588" x="27" y="286.9251">departmentId: int</text><rect fill="none" height="6" style="stroke:#C82930;stroke-width:1;" width="6" x="15" y="296.8753"/><text fill="#000000" font-family="sans-serif" font-size="14" lengthAdjust="spacing" textLength="89.0586" x="27" y="303.222">name: string</text><line style="stroke:#181818;stroke-width:0.5;" x1="8" x2="233.4756" y1="310.5237" y2="310.5237"/><ellipse cx="18" cy="324.1722" fill="#84BE84" rx="3" ry="3" style="stroke:#038048;stroke-width:1;"/><text fill="#000000" font-family="sans-serif" font-size="14" lengthAdjust="spacing" textLength="124.5713" x="27" y="327.5189">getName(): string</text><ellipse cx="18" cy="340.4691" fill="#84BE84" rx="3" ry="3" style="stroke:#038048;stroke-width:1;"/><text fill="#000000" font-family="sans-serif" font-size="14" lengthAdjust="spacing" textLength="201.4756" x="27" y="343.8157">setName(name: string): void</text></g><!--class Job--><g class="entity" data-entity="Job" data-source-line="16" data-uid="ent0004" id="entity_Job"><rect fill="#F1F1F1" height="129.4844" rx="2.5" ry="2.5" style="stroke:#181818;stroke-width:0.5;" width="204.2744" x="269.6" y="229.79"/><ellipse cx="356.6967" cy="245.79" fill="#ADD1B2" rx="11" ry="11" style="stroke:#181818;stroke-width:1;"/><path d="M359.6654,251.4306 Q359.0873,251.7275 358.4467,251.8681 Q357.8061,252.0244 357.1029,252.0244 Q354.6029,252.0244 353.2748,250.3838 Q351.9623,248.7275 351.9623,245.6025 Q351.9623,242.4775 353.2748,240.8213 Q354.6029,239.165 357.1029,239.165 Q357.8061,239.165 358.4467,239.3213 Q359.1029,239.4775 359.6654,239.7744 L359.6654,242.4931 Q359.0404,241.915 358.4467,241.6494 Q357.8529,241.3681 357.2279,241.3681 Q355.8842,241.3681 355.1967,242.4463 Q354.5092,243.5088 354.5092,245.6025 Q354.5092,247.6963 355.1967,248.7744 Q355.8842,249.8369 357.2279,249.8369 Q357.8529,249.8369 358.4467,249.5713 Q359.0404,249.29 359.6654,248.7119 L359.6654,251.4306 Z " fill="#000000"/><text fill="#000000" font-family="sans-serif" font-size="14" lengthAdjust="spacing" textLength="21.5811" x="377.1967" y="250.6367">Job</text><line style="stroke:#181818;stroke-width:0.5;" x1="270.6" x2="472.8744" y1="261.79" y2="261.79"/><rect fill="none" height="6" style="stroke:#C82930;stroke-width:1;" width="6" x="277.6" y="272.4384"/><text fill="#000000" font-family="sans-serif" font-size="14" lengthAdjust="spacing" textLength="61.7764" x="289.6" y="278.7851">jobId: int</text><rect fill="none" height="6" style="stroke:#C82930;stroke-width:1;" width="6" x="277.6" y="288.7353"/><text fill="#000000" font-family="sans-serif" font-size="14" lengthAdjust="spacing" textLength="76.7266" x="289.6" y="295.082">title: string</text><rect fill="none" height="6" style="stroke:#C82930;stroke-width:1;" width="6" x="277.6" y="305.0322"/><text fill="#000000" font-family="sans-serif" font-size="14" lengthAdjust="spacing" textLength="127.1963" x="289.6" y="311.3789">description: string</text><line style="stroke:#181818;stroke-width:0.5;" x1="270.6" x2="472.8744" y1="318.6806" y2="318.6806"/><ellipse cx="280.6" cy="332.3291" fill="#84BE84" rx="3" ry="3" style="stroke:#038048;stroke-width:1;"/><text fill="#000000" font-family="sans-serif" font-size="14" lengthAdjust="spacing" textLength="113.7021" x="289.6" y="335.6757">getTitle(): string</text><ellipse cx="280.6" cy="348.6259" fill="#84BE84" rx="3" ry="3" style="stroke:#038048;stroke-width:1;"/><text fill="#000000" font-family="sans-serif" font-size="14" lengthAdjust="spacing" textLength="178.2744" x="289.6" y="351.9726">setTitle(title: string): void</text></g><!--class Salary--><g class="entity" data-entity="Salary" data-source-line="24" data-uid="ent0005" id="entity_Salary"><rect fill="#F1F1F1" height="145.7813" rx="2.5" ry="2.5" style="stroke:#181818;stroke-width:0.5;" width="263.0293" x="463.22" y="7"/><ellipse cx="568.4969" cy="23" fill="#ADD1B2" rx="11" ry="11" style="stroke:#181818;stroke-width:1;"/><path d="M571.4656,28.6406 Q570.8875,28.9375 570.2469,29.0781 Q569.6062,29.2344 568.9031,29.2344 Q566.4031,29.2344 565.075,27.5938 Q563.7625,25.9375 563.7625,22.8125 Q563.7625,19.6875 565.075,18.0313 Q566.4031,16.375 568.9031,16.375 Q569.6062,16.375 570.2469,16.5313 Q570.9031,16.6875 571.4656,16.9844 L571.4656,19.7031 Q570.8406,19.125 570.2469,18.8594 Q569.6531,18.5781 569.0281,18.5781 Q567.6844,18.5781 566.9969,19.6563 Q566.3094,20.7188 566.3094,22.8125 Q566.3094,24.9063 566.9969,25.9844 Q567.6844,27.0469 569.0281,27.0469 Q569.6531,27.0469 570.2469,26.7813 Q570.8406,26.5 571.4656,25.9219 L571.4656,28.6406 Z " fill="#000000"/><text fill="#000000" font-family="sans-serif" font-size="14" lengthAdjust="spacing" textLength="43.9756" x="588.9969" y="27.8467">Salary</text><line style="stroke:#181818;stroke-width:0.5;" x1="464.22" x2="725.2493" y1="39" y2="39"/><rect fill="none" height="6" style="stroke:#C82930;stroke-width:1;" width="6" x="471.22" y="49.6484"/><text fill="#000000" font-family="sans-serif" font-size="14" lengthAdjust="spacing" textLength="82.8174" x="483.22" y="55.9951">salaryId: int</text><rect fill="none" height="6" style="stroke:#C82930;stroke-width:1;" width="6" x="471.22" y="65.9453"/><text fill="#000000" font-family="sans-serif" font-size="14" lengthAdjust="spacing" textLength="109.5391" x="483.22" y="72.292">employeeId: int</text><rect fill="none" height="6" style="stroke:#C82930;stroke-width:1;" width="6" x="471.22" y="82.2422"/><text fill="#000000" font-family="sans-serif" font-size="14" lengthAdjust="spacing" textLength="110.8994" x="483.22" y="88.5889">amount: double</text><rect fill="none" height="6" style="stroke:#C82930;stroke-width:1;" width="6" x="471.22" y="98.5391"/><text fill="#000000" font-family="sans-serif" font-size="14" lengthAdjust="spacing" textLength="136.5615" x="483.22" y="104.8857">paymentDate: date</text><line style="stroke:#181818;stroke-width:0.5;" x1="464.22" x2="725.2493" y1="112.1875" y2="112.1875"/><ellipse cx="474.22" cy="125.8359" fill="#84BE84" rx="3" ry="3" style="stroke:#038048;stroke-width:1;"/><text fill="#000000" font-family="sans-serif" font-size="14" lengthAdjust="spacing" textLength="145.8105" x="483.22" y="129.1826">getAmount(): double</text><ellipse cx="474.22" cy="142.1328" fill="#84BE84" rx="3" ry="3" style="stroke:#038048;stroke-width:1;"/><text fill="#000000" font-family="sans-serif" font-size="14" lengthAdjust="spacing" textLength="237.0293" x="483.22" y="145.4795">setAmount(amount: double): void</text></g><!--link Employee to Department--><g class="link" data-entity-1="Employee" data-entity-2="Department" data-source-line="33" data-uid="lnk6" id="link_Employee_Department"><path codeLine="33" d="M208.06,144.98 C190.74,174.45 170.38,209.09 153.67,237.5" fill="none" id="Employee-Department" style="stroke:#181818;stroke-width:1;"/><polygon fill="#000000" points="186.2061,195.6668,193.3236,189.3587,188.2564,186.3798,186.2061,195.6668" style="stroke:#000000;stroke-width:1;"/><text fill="#000000" font-family="sans-serif" font-size="13" lengthAdjust="spacing" textLength="68.2627" x="197.74" y="195.8569">belongs to</text></g><!--link Employee to Job--><g class="link" data-entity-1="Employee" data-entity-2="Job" data-source-line="34" data-uid="lnk7" id="link_Employee_Job"><path codeLine="34" d="M283.71,144.98 C299.58,171.76 317.98,202.81 333.84,229.57" fill="none" id="Employee-Job" style="stroke:#181818;stroke-width:1;"/><polygon fill="#000000" points="319.2891,195.6578,317.206,186.3782,312.1494,189.3748,319.2891,195.6578" style="stroke:#000000;stroke-width:1;"/><text fill="#000000" font-family="sans-serif" font-size="13" lengthAdjust="spacing" textLength="57.1035" x="325.74" y="195.8569">works as</text></g><!--link Employee to Salary--><g class="link" data-entity-1="Employee" data-entity-2="Salary" data-source-line="35" data-uid="lnk8" id="link_Employee_Salary"><path codeLine="35" d="M359.53,79.89 C392.55,79.89 428.88,79.89 462.91,79.89" fill="none" id="Employee-Salary" style="stroke:#181818;stroke-width:1;"/><polygon fill="#000000" points="386.85,68.4564,377.8049,65.5175,377.8049,71.3953,386.85,68.4564" style="stroke:#000000;stroke-width:1;"/><text fill="#000000" font-family="sans-serif" font-size="13" lengthAdjust="spacing" textLength="54.5645" x="390.85" y="72.9569">receives</text></g><!--SRC=[fPB1RiCW38RlUGeVLqrv0GwJ9dM7xR3BzW9Ei58wWYDmMqLJttqaepGqbNOO1oH-_zYV3Qt54E2b7ooFHF1TGLmrK19UjGBZ9AaEUr8Gn1lNPICQMsYFq96yH-V3vaOFIL-cYPuZ6rsTgwgTKROqe9UUd6GOdQK_SFvP-esRN7FFJLbCZDZRvZM5rfj13Birn-TquHx8Rw38jqBvG8j-p3HXFfP0zvy8UpuuKQ3vq5XAue3ZDBqjIgoeutwbV9xz4-RYneoP8cN21MZ-CxNcawkN3wUW8Skk2o0CJoldD6S59_PV0J0K1c-wdTINzXLuQiaSAPf-0000]--></g></svg>