<svg xmlns="http://www.w3.org/2000/svg" xmlns:xlink="http://www.w3.org/1999/xlink" contentStyleType="text/css" data-diagram-type="CLASS" height="1176px" preserveAspectRatio="none" style="width:1611px;height:1176px;background:#FFFFFF;" version="1.1" viewBox="0 0 1611 1176" width="1611px" zoomAndPan="magnify"><defs/><g><!--class Employee--><g class="entity" data-entity="Employee" data-source-line="1" data-uid="ent0002" id="entity_Employee"><rect fill="#F1F1F1" height="390.2344" rx="2.5" ry="2.5" style="stroke:#181818;stroke-width:0.5;" width="358.541" x="578.62" y="7"/><ellipse cx="718.9721" cy="23" fill="#ADD1B2" rx="11" ry="11" style="stroke:#181818;stroke-width:1;"/><path d="M721.9408,28.6406 Q721.3627,28.9375 720.7221,29.0781 Q720.0814,29.2344 719.3783,29.2344 Q716.8783,29.2344 715.5502,27.5938 Q714.2377,25.9375 714.2377,22.8125 Q714.2377,19.6875 715.5502,18.0313 Q716.8783,16.375 719.3783,16.375 Q720.0814,16.375 720.7221,16.5313 Q721.3783,16.6875 721.9408,16.9844 L721.9408,19.7031 Q721.3158,19.125 720.7221,18.8594 Q720.1283,18.5781 719.5033,18.5781 Q718.1596,18.5781 717.4721,19.6563 Q716.7846,20.7188 716.7846,22.8125 Q716.7846,24.9063 717.4721,25.9844 Q718.1596,27.0469 719.5033,27.0469 Q720.1283,27.0469 720.7221,26.7813 Q721.3158,26.5 721.9408,25.9219 L721.9408,28.6406 Z " fill="#000000"/><text fill="#000000" font-family="sans-serif" font-size="14" lengthAdjust="spacing" textLength="69.3369" x="739.4721" y="27.8467">Employee</text><line style="stroke:#181818;stroke-width:0.5;" x1="579.62" x2="936.161" y1="39" y2="39"/><rect fill="none" height="6" style="stroke:#C82930;stroke-width:1;" width="6" x="586.62" y="49.6484"/><text fill="#000000" font-family="sans-serif" font-size="14" lengthAdjust="spacing" textLength="133.0684" x="598.62" y="55.9951">employeeId: String</text><rect fill="none" height="6" style="stroke:#C82930;stroke-width:1;" width="6" x="586.62" y="65.9453"/><text fill="#000000" font-family="sans-serif" font-size="14" lengthAdjust="spacing" textLength="90.6514" x="598.62" y="72.292">name: String</text><rect fill="none" height="6" style="stroke:#C82930;stroke-width:1;" width="6" x="586.62" y="82.2422"/><text fill="#000000" font-family="sans-serif" font-size="14" lengthAdjust="spacing" textLength="106.2578" x="598.62" y="88.5889">address: String</text><rect fill="none" height="6" style="stroke:#C82930;stroke-width:1;" width="6" x="586.62" y="98.5391"/><text fill="#000000" font-family="sans-serif" font-size="14" lengthAdjust="spacing" textLength="94.7598" x="598.62" y="104.8857">phone: String</text><rect fill="none" height="6" style="stroke:#C82930;stroke-width:1;" width="6" x="586.62" y="114.8359"/><text fill="#000000" font-family="sans-serif" font-size="14" lengthAdjust="spacing" textLength="89.5576" x="598.62" y="121.1826">email: String</text><rect fill="none" height="6" style="stroke:#C82930;stroke-width:1;" width="6" x="586.62" y="131.1328"/><text fill="#000000" font-family="sans-serif" font-size="14" lengthAdjust="spacing" textLength="119.6289" x="598.62" y="137.4795">position: Position</text><rect fill="none" height="6" style="stroke:#C82930;stroke-width:1;" width="6" x="586.62" y="147.4297"/><text fill="#000000" font-family="sans-serif" font-size="14" lengthAdjust="spacing" textLength="176.709" x="598.62" y="153.7764">department: Department</text><rect fill="none" height="6" style="stroke:#C82930;stroke-width:1;" width="6" x="586.62" y="163.7266"/><text fill="#000000" font-family="sans-serif" font-size="14" lengthAdjust="spacing" textLength="103.2227" x="598.62" y="170.0732">hireDate: Date</text><line style="stroke:#181818;stroke-width:0.5;" x1="579.62" x2="936.161" y1="177.375" y2="177.375"/><ellipse cx="589.62" cy="191.0234" fill="#84BE84" rx="3" ry="3" style="stroke:#038048;stroke-width:1;"/><text fill="#000000" font-family="sans-serif" font-size="14" lengthAdjust="spacing" textLength="167.2139" x="598.62" y="194.3701">getEmployeeId(): String</text><ellipse cx="589.62" cy="207.3203" fill="#84BE84" rx="3" ry="3" style="stroke:#038048;stroke-width:1;"/><text fill="#000000" font-family="sans-serif" font-size="14" lengthAdjust="spacing" textLength="126.1641" x="598.62" y="210.667">getName(): String</text><ellipse cx="589.62" cy="223.6172" fill="#84BE84" rx="3" ry="3" style="stroke:#038048;stroke-width:1;"/><text fill="#000000" font-family="sans-serif" font-size="14" lengthAdjust="spacing" textLength="141.1689" x="598.62" y="226.9639">getAddress(): String</text><ellipse cx="589.62" cy="239.9141" fill="#84BE84" rx="3" ry="3" style="stroke:#038048;stroke-width:1;"/><text fill="#000000" font-family="sans-serif" font-size="14" lengthAdjust="spacing" textLength="128.2285" x="598.62" y="243.2607">getPhone(): String</text><ellipse cx="589.62" cy="256.2109" fill="#84BE84" rx="3" ry="3" style="stroke:#038048;stroke-width:1;"/><text fill="#000000" font-family="sans-serif" font-size="14" lengthAdjust="spacing" textLength="123.7031" x="598.62" y="259.5576">getEmail(): String</text><ellipse cx="589.62" cy="272.5078" fill="#84BE84" rx="3" ry="3" style="stroke:#038048;stroke-width:1;"/><text fill="#000000" font-family="sans-serif" font-size="14" lengthAdjust="spacing" textLength="153.0977" x="598.62" y="275.8545">getPosition(): Position</text><ellipse cx="589.62" cy="288.8047" fill="#84BE84" rx="3" ry="3" style="stroke:#038048;stroke-width:1;"/><text fill="#000000" font-family="sans-serif" font-size="14" lengthAdjust="spacing" textLength="212.5156" x="598.62" y="292.1514">getDepartment(): Department</text><ellipse cx="589.62" cy="305.1016" fill="#84BE84" rx="3" ry="3" style="stroke:#038048;stroke-width:1;"/><text fill="#000000" font-family="sans-serif" font-size="14" lengthAdjust="spacing" textLength="138.79" x="598.62" y="308.4482">getHireDate(): Date</text><ellipse cx="589.62" cy="321.3984" fill="#84BE84" rx="3" ry="3" style="stroke:#038048;stroke-width:1;"/><text fill="#000000" font-family="sans-serif" font-size="14" lengthAdjust="spacing" textLength="233.6797" x="598.62" y="324.7451">setAddress(address: String): void</text><ellipse cx="589.62" cy="337.6953" fill="#84BE84" rx="3" ry="3" style="stroke:#038048;stroke-width:1;"/><text fill="#000000" font-family="sans-serif" font-size="14" lengthAdjust="spacing" textLength="209.2412" x="598.62" y="341.042">setPhone(phone: String): void</text><ellipse cx="589.62" cy="353.9922" fill="#84BE84" rx="3" ry="3" style="stroke:#038048;stroke-width:1;"/><text fill="#000000" font-family="sans-serif" font-size="14" lengthAdjust="spacing" textLength="199.5137" x="598.62" y="357.3389">setEmail(email: String): void</text><ellipse cx="589.62" cy="370.2891" fill="#84BE84" rx="3" ry="3" style="stroke:#038048;stroke-width:1;"/><text fill="#000000" font-family="sans-serif" font-size="14" lengthAdjust="spacing" textLength="245.752" x="598.62" y="373.6357">setPosition(position: Position): void</text><ellipse cx="589.62" cy="386.5859" fill="#84BE84" rx="3" ry="3" style="stroke:#038048;stroke-width:1;"/><text fill="#000000" font-family="sans-serif" font-size="14" lengthAdjust="spacing" textLength="332.541" x="598.62" y="389.9326">setDepartment(department: Department): void</text></g><!--class Department--><g class="entity" data-entity="Department" data-source-line="26" data-uid="ent0003" id="entity_Department"><rect fill="#F1F1F1" height="178.375" rx="2.5" ry="2.5" style="stroke:#181818;stroke-width:0.5;" width="313.7861" x="7" y="555.72"/><ellipse cx="117.2842" cy="571.72" fill="#ADD1B2" rx="11" ry="11" style="stroke:#181818;stroke-width:1;"/><path d="M120.2529,577.3606 Q119.6748,577.6575 119.0342,577.7981 Q118.3936,577.9544 117.6904,577.9544 Q115.1904,577.9544 113.8623,576.3138 Q112.5498,574.6575 112.5498,571.5325 Q112.5498,568.4075 113.8623,566.7513 Q115.1904,565.095 117.6904,565.095 Q118.3936,565.095 119.0342,565.2513 Q119.6904,565.4075 120.2529,565.7044 L120.2529,568.4231 Q119.6279,567.845 119.0342,567.5794 Q118.4404,567.2981 117.8154,567.2981 Q116.4717,567.2981 115.7842,568.3763 Q115.0967,569.4388 115.0967,571.5325 Q115.0967,573.6263 115.7842,574.7044 Q116.4717,575.7669 117.8154,575.7669 Q118.4404,575.7669 119.0342,575.5013 Q119.6279,575.22 120.2529,574.6419 L120.2529,577.3606 Z " fill="#000000"/><text fill="#000000" font-family="sans-serif" font-size="14" lengthAdjust="spacing" textLength="84.7178" x="137.7842" y="576.5667">Department</text><line style="stroke:#181818;stroke-width:0.5;" x1="8" x2="319.7861" y1="587.72" y2="587.72"/><rect fill="none" height="6" style="stroke:#C82930;stroke-width:1;" width="6" x="15" y="598.3684"/><text fill="#000000" font-family="sans-serif" font-size="14" lengthAdjust="spacing" textLength="146.7881" x="27" y="604.7151">departmentId: String</text><rect fill="none" height="6" style="stroke:#C82930;stroke-width:1;" width="6" x="15" y="614.6653"/><text fill="#000000" font-family="sans-serif" font-size="14" lengthAdjust="spacing" textLength="175.0752" x="27" y="621.012">departmentName: String</text><rect fill="none" height="6" style="stroke:#C82930;stroke-width:1;" width="6" x="15" y="630.9622"/><text fill="#000000" font-family="sans-serif" font-size="14" lengthAdjust="spacing" textLength="141.4287" x="27" y="637.3089">manager: Employee</text><line style="stroke:#181818;stroke-width:0.5;" x1="8" x2="319.7861" y1="644.6106" y2="644.6106"/><ellipse cx="18" cy="658.2591" fill="#84BE84" rx="3" ry="3" style="stroke:#038048;stroke-width:1;"/><text fill="#000000" font-family="sans-serif" font-size="14" lengthAdjust="spacing" textLength="182.5947" x="27" y="661.6057">getDepartmentId(): String</text><ellipse cx="18" cy="674.5559" fill="#84BE84" rx="3" ry="3" style="stroke:#038048;stroke-width:1;"/><text fill="#000000" font-family="sans-serif" font-size="14" lengthAdjust="spacing" textLength="210.8818" x="27" y="677.9026">getDepartmentName(): String</text><ellipse cx="18" cy="690.8528" fill="#84BE84" rx="3" ry="3" style="stroke:#038048;stroke-width:1;"/><text fill="#000000" font-family="sans-serif" font-size="14" lengthAdjust="spacing" textLength="173.7832" x="27" y="694.1995">getManager(): Employee</text><ellipse cx="18" cy="707.1497" fill="#84BE84" rx="3" ry="3" style="stroke:#038048;stroke-width:1;"/><text fill="#000000" font-family="sans-serif" font-size="14" lengthAdjust="spacing" textLength="287.7861" x="27" y="710.4964">setDepartmentName(name: String): void</text><ellipse cx="18" cy="723.4466" fill="#84BE84" rx="3" ry="3" style="stroke:#038048;stroke-width:1;"/><text fill="#000000" font-family="sans-serif" font-size="14" lengthAdjust="spacing" textLength="273.9092" x="27" y="726.7932">setManager(manager: Employee): void</text></g><!--class Position--><g class="entity" data-entity="Position" data-source-line="38" data-uid="ent0004" id="entity_Position"><rect fill="#F1F1F1" height="178.375" rx="2.5" ry="2.5" style="stroke:#181818;stroke-width:0.5;" width="305.6377" x="356.07" y="555.72"/><ellipse cx="477.1345" cy="571.72" fill="#ADD1B2" rx="11" ry="11" style="stroke:#181818;stroke-width:1;"/><path d="M480.1032,577.3606 Q479.5251,577.6575 478.8845,577.7981 Q478.2438,577.9544 477.5407,577.9544 Q475.0407,577.9544 473.7126,576.3138 Q472.4001,574.6575 472.4001,571.5325 Q472.4001,568.4075 473.7126,566.7513 Q475.0407,565.095 477.5407,565.095 Q478.2438,565.095 478.8845,565.2513 Q479.5407,565.4075 480.1032,565.7044 L480.1032,568.4231 Q479.4782,567.845 478.8845,567.5794 Q478.2907,567.2981 477.6657,567.2981 Q476.322,567.2981 475.6345,568.3763 Q474.947,569.4388 474.947,571.5325 Q474.947,573.6263 475.6345,574.7044 Q476.322,575.7669 477.6657,575.7669 Q478.2907,575.7669 478.8845,575.5013 Q479.4782,575.22 480.1032,574.6419 L480.1032,577.3606 Z " fill="#000000"/><text fill="#000000" font-family="sans-serif" font-size="14" lengthAdjust="spacing" textLength="55.0088" x="497.6345" y="576.5667">Position</text><line style="stroke:#181818;stroke-width:0.5;" x1="357.07" x2="660.7077" y1="587.72" y2="587.72"/><rect fill="none" height="6" style="stroke:#C82930;stroke-width:1;" width="6" x="364.07" y="598.3684"/><text fill="#000000" font-family="sans-serif" font-size="14" lengthAdjust="spacing" textLength="119.417" x="376.07" y="604.7151">positionId: String</text><rect fill="none" height="6" style="stroke:#C82930;stroke-width:1;" width="6" x="364.07" y="614.6653"/><text fill="#000000" font-family="sans-serif" font-size="14" lengthAdjust="spacing" textLength="78.3193" x="376.07" y="621.012">title: String</text><rect fill="none" height="6" style="stroke:#C82930;stroke-width:1;" width="6" x="364.07" y="630.9622"/><text fill="#000000" font-family="sans-serif" font-size="14" lengthAdjust="spacing" textLength="128.7891" x="376.07" y="637.3089">description: String</text><line style="stroke:#181818;stroke-width:0.5;" x1="357.07" x2="660.7077" y1="644.6106" y2="644.6106"/><ellipse cx="367.07" cy="658.2591" fill="#84BE84" rx="3" ry="3" style="stroke:#038048;stroke-width:1;"/><text fill="#000000" font-family="sans-serif" font-size="14" lengthAdjust="spacing" textLength="152.8857" x="376.07" y="661.6057">getPositionId(): String</text><ellipse cx="367.07" cy="674.5559" fill="#84BE84" rx="3" ry="3" style="stroke:#038048;stroke-width:1;"/><text fill="#000000" font-family="sans-serif" font-size="14" lengthAdjust="spacing" textLength="115.2949" x="376.07" y="677.9026">getTitle(): String</text><ellipse cx="367.07" cy="690.8528" fill="#84BE84" rx="3" ry="3" style="stroke:#038048;stroke-width:1;"/><text fill="#000000" font-family="sans-serif" font-size="14" lengthAdjust="spacing" textLength="164.5957" x="376.07" y="694.1995">getDescription(): String</text><ellipse cx="367.07" cy="707.1497" fill="#84BE84" rx="3" ry="3" style="stroke:#038048;stroke-width:1;"/><text fill="#000000" font-family="sans-serif" font-size="14" lengthAdjust="spacing" textLength="179.8672" x="376.07" y="710.4964">setTitle(title: String): void</text><ellipse cx="367.07" cy="723.4466" fill="#84BE84" rx="3" ry="3" style="stroke:#038048;stroke-width:1;"/><text fill="#000000" font-family="sans-serif" font-size="14" lengthAdjust="spacing" textLength="279.6377" x="376.07" y="726.7932">setDescription(description: String): void</text></g><!--class Payroll--><g class="entity" data-entity="Payroll" data-source-line="49" data-uid="ent0005" id="entity_Payroll"><rect fill="#F1F1F1" height="341.3438" rx="2.5" ry="2.5" style="stroke:#181818;stroke-width:0.5;" width="288.8691" x="696.46" y="474.23"/><ellipse cx="812.941" cy="490.23" fill="#ADD1B2" rx="11" ry="11" style="stroke:#181818;stroke-width:1;"/><path d="M815.9097,495.8706 Q815.3316,496.1675 814.691,496.3081 Q814.0503,496.4644 813.3472,496.4644 Q810.8472,496.4644 809.5191,494.8238 Q808.2066,493.1675 808.2066,490.0425 Q808.2066,486.9175 809.5191,485.2613 Q810.8472,483.605 813.3472,483.605 Q814.0503,483.605 814.691,483.7613 Q815.3472,483.9175 815.9097,484.2144 L815.9097,486.9331 Q815.2847,486.355 814.691,486.0894 Q814.0972,485.8081 813.4722,485.8081 Q812.1285,485.8081 811.441,486.8863 Q810.7535,487.9488 810.7535,490.0425 Q810.7535,492.1363 811.441,493.2144 Q812.1285,494.2769 813.4722,494.2769 Q814.0972,494.2769 814.691,494.0113 Q815.2847,493.73 815.9097,493.1519 L815.9097,495.8706 Z " fill="#000000"/><text fill="#000000" font-family="sans-serif" font-size="14" lengthAdjust="spacing" textLength="47.4072" x="833.441" y="495.0767">Payroll</text><line style="stroke:#181818;stroke-width:0.5;" x1="697.46" x2="984.3291" y1="506.23" y2="506.23"/><rect fill="none" height="6" style="stroke:#C82930;stroke-width:1;" width="6" x="704.46" y="516.8784"/><text fill="#000000" font-family="sans-serif" font-size="14" lengthAdjust="spacing" textLength="111.8154" x="716.46" y="523.2251">payrollId: String</text><rect fill="none" height="6" style="stroke:#C82930;stroke-width:1;" width="6" x="704.46" y="533.1753"/><text fill="#000000" font-family="sans-serif" font-size="14" lengthAdjust="spacing" textLength="147.6084" x="716.46" y="539.522">employee: Employee</text><rect fill="none" height="6" style="stroke:#C82930;stroke-width:1;" width="6" x="704.46" y="549.4722"/><text fill="#000000" font-family="sans-serif" font-size="14" lengthAdjust="spacing" textLength="146.7334" x="716.46" y="555.8189">payPeriodStart: Date</text><rect fill="none" height="6" style="stroke:#C82930;stroke-width:1;" width="6" x="704.46" y="565.7691"/><text fill="#000000" font-family="sans-serif" font-size="14" lengthAdjust="spacing" textLength="139.1387" x="716.46" y="572.1157">payPeriodEnd: Date</text><rect fill="none" height="6" style="stroke:#C82930;stroke-width:1;" width="6" x="704.46" y="582.0659"/><text fill="#000000" font-family="sans-serif" font-size="14" lengthAdjust="spacing" textLength="140.5469" x="716.46" y="588.4126">grossSalary: Double</text><rect fill="none" height="6" style="stroke:#C82930;stroke-width:1;" width="6" x="704.46" y="598.3628"/><text fill="#000000" font-family="sans-serif" font-size="14" lengthAdjust="spacing" textLength="135.8438" x="716.46" y="604.7095">deductions: Double</text><rect fill="none" height="6" style="stroke:#C82930;stroke-width:1;" width="6" x="704.46" y="614.6597"/><text fill="#000000" font-family="sans-serif" font-size="14" lengthAdjust="spacing" textLength="125.7266" x="716.46" y="621.0064">netSalary: Double</text><line style="stroke:#181818;stroke-width:0.5;" x1="697.46" x2="984.3291" y1="628.3081" y2="628.3081"/><ellipse cx="707.46" cy="641.9566" fill="#84BE84" rx="3" ry="3" style="stroke:#038048;stroke-width:1;"/><text fill="#000000" font-family="sans-serif" font-size="14" lengthAdjust="spacing" textLength="145.2842" x="716.46" y="645.3032">getPayrollId(): String</text><ellipse cx="707.46" cy="658.2534" fill="#84BE84" rx="3" ry="3" style="stroke:#038048;stroke-width:1;"/><text fill="#000000" font-family="sans-serif" font-size="14" lengthAdjust="spacing" textLength="181.7539" x="716.46" y="661.6001">getEmployee(): Employee</text><ellipse cx="707.46" cy="674.5503" fill="#84BE84" rx="3" ry="3" style="stroke:#038048;stroke-width:1;"/><text fill="#000000" font-family="sans-serif" font-size="14" lengthAdjust="spacing" textLength="180.2021" x="716.46" y="677.897">getPayPeriodStart(): Date</text><ellipse cx="707.46" cy="690.8472" fill="#84BE84" rx="3" ry="3" style="stroke:#038048;stroke-width:1;"/><text fill="#000000" font-family="sans-serif" font-size="14" lengthAdjust="spacing" textLength="172.6074" x="716.46" y="694.1939">getPayPeriodEnd(): Date</text><ellipse cx="707.46" cy="707.1441" fill="#84BE84" rx="3" ry="3" style="stroke:#038048;stroke-width:1;"/><text fill="#000000" font-family="sans-serif" font-size="14" lengthAdjust="spacing" textLength="176.4219" x="716.46" y="710.4907">getGrossSalary(): Double</text><ellipse cx="707.46" cy="723.4409" fill="#84BE84" rx="3" ry="3" style="stroke:#038048;stroke-width:1;"/><text fill="#000000" font-family="sans-serif" font-size="14" lengthAdjust="spacing" textLength="171.6504" x="716.46" y="726.7876">getDeductions(): Double</text><ellipse cx="707.46" cy="739.7378" fill="#84BE84" rx="3" ry="3" style="stroke:#038048;stroke-width:1;"/><text fill="#000000" font-family="sans-serif" font-size="14" lengthAdjust="spacing" textLength="161.2393" x="716.46" y="743.0845">getNetSalary(): Double</text><ellipse cx="707.46" cy="756.0347" fill="#84BE84" rx="3" ry="3" style="stroke:#038048;stroke-width:1;"/><text fill="#000000" font-family="sans-serif" font-size="14" lengthAdjust="spacing" textLength="250.0107" x="716.46" y="759.3814">setPayPeriodStart(start: Date): void</text><ellipse cx="707.46" cy="772.3316" fill="#84BE84" rx="3" ry="3" style="stroke:#038048;stroke-width:1;"/><text fill="#000000" font-family="sans-serif" font-size="14" lengthAdjust="spacing" textLength="236.1816" x="716.46" y="775.6782">setPayPeriodEnd(end: Date): void</text><ellipse cx="707.46" cy="788.6284" fill="#84BE84" rx="3" ry="3" style="stroke:#038048;stroke-width:1;"/><text fill="#000000" font-family="sans-serif" font-size="14" lengthAdjust="spacing" textLength="256.0059" x="716.46" y="791.9751">setGrossSalary(salary: Double): void</text><ellipse cx="707.46" cy="804.9253" fill="#84BE84" rx="3" ry="3" style="stroke:#038048;stroke-width:1;"/><text fill="#000000" font-family="sans-serif" font-size="14" lengthAdjust="spacing" textLength="262.8691" x="716.46" y="808.272">setDeductions(amount: Double): void</text></g><!--class PerformanceReview--><g class="entity" data-entity="PerformanceReview" data-source-line="71" data-uid="ent0006" id="entity_PerformanceReview"><rect fill="#F1F1F1" height="308.75" rx="2.5" ry="2.5" style="stroke:#181818;stroke-width:0.5;" width="309.6709" x="1020.06" y="490.53"/><ellipse cx="1100.6249" cy="506.53" fill="#ADD1B2" rx="11" ry="11" style="stroke:#181818;stroke-width:1;"/><path d="M1103.5937,512.1706 Q1103.0156,512.4675 1102.3749,512.6081 Q1101.7343,512.7644 1101.0312,512.7644 Q1098.5312,512.7644 1097.2031,511.1238 Q1095.8906,509.4675 1095.8906,506.3425 Q1095.8906,503.2175 1097.2031,501.5613 Q1098.5312,499.905 1101.0312,499.905 Q1101.7343,499.905 1102.3749,500.0613 Q1103.0312,500.2175 1103.5937,500.5144 L1103.5937,503.2331 Q1102.9687,502.655 1102.3749,502.3894 Q1101.7812,502.1081 1101.1562,502.1081 Q1099.8124,502.1081 1099.1249,503.1863 Q1098.4374,504.2488 1098.4374,506.3425 Q1098.4374,508.4363 1099.1249,509.5144 Q1099.8124,510.5769 1101.1562,510.5769 Q1101.7812,510.5769 1102.3749,510.3113 Q1102.9687,510.03 1103.5937,509.4519 L1103.5937,512.1706 Z " fill="#000000"/><text fill="#000000" font-family="sans-serif" font-size="14" lengthAdjust="spacing" textLength="140.041" x="1121.1249" y="511.3767">PerformanceReview</text><line style="stroke:#181818;stroke-width:0.5;" x1="1021.06" x2="1328.7309" y1="522.53" y2="522.53"/><rect fill="none" height="6" style="stroke:#C82930;stroke-width:1;" width="6" x="1028.06" y="533.1784"/><text fill="#000000" font-family="sans-serif" font-size="14" lengthAdjust="spacing" textLength="110.5713" x="1040.06" y="539.5251">reviewId: String</text><rect fill="none" height="6" style="stroke:#C82930;stroke-width:1;" width="6" x="1028.06" y="549.4753"/><text fill="#000000" font-family="sans-serif" font-size="14" lengthAdjust="spacing" textLength="147.6084" x="1040.06" y="555.822">employee: Employee</text><rect fill="none" height="6" style="stroke:#C82930;stroke-width:1;" width="6" x="1028.06" y="565.7722"/><text fill="#000000" font-family="sans-serif" font-size="14" lengthAdjust="spacing" textLength="122.6982" x="1040.06" y="572.1189">reviewDate: Date</text><rect fill="none" height="6" style="stroke:#C82930;stroke-width:1;" width="6" x="1028.06" y="582.0691"/><text fill="#000000" font-family="sans-serif" font-size="14" lengthAdjust="spacing" textLength="139.4805" x="1040.06" y="588.4157">reviewer: Employee</text><rect fill="none" height="6" style="stroke:#C82930;stroke-width:1;" width="6" x="1028.06" y="598.3659"/><text fill="#000000" font-family="sans-serif" font-size="14" lengthAdjust="spacing" textLength="97.4531" x="1040.06" y="604.7126">score: Integer</text><rect fill="none" height="6" style="stroke:#C82930;stroke-width:1;" width="6" x="1028.06" y="614.6628"/><text fill="#000000" font-family="sans-serif" font-size="14" lengthAdjust="spacing" textLength="124.7559" x="1040.06" y="621.0095">comments: String</text><line style="stroke:#181818;stroke-width:0.5;" x1="1021.06" x2="1328.7309" y1="628.3113" y2="628.3113"/><ellipse cx="1031.06" cy="641.9597" fill="#84BE84" rx="3" ry="3" style="stroke:#038048;stroke-width:1;"/><text fill="#000000" font-family="sans-serif" font-size="14" lengthAdjust="spacing" textLength="148.4561" x="1040.06" y="645.3064">getReviewId(): String</text><ellipse cx="1031.06" cy="658.2566" fill="#84BE84" rx="3" ry="3" style="stroke:#038048;stroke-width:1;"/><text fill="#000000" font-family="sans-serif" font-size="14" lengthAdjust="spacing" textLength="181.7539" x="1040.06" y="661.6032">getEmployee(): Employee</text><ellipse cx="1031.06" cy="674.5534" fill="#84BE84" rx="3" ry="3" style="stroke:#038048;stroke-width:1;"/><text fill="#000000" font-family="sans-serif" font-size="14" lengthAdjust="spacing" textLength="160.583" x="1040.06" y="677.9001">getReviewDate(): Date</text><ellipse cx="1031.06" cy="690.8503" fill="#84BE84" rx="3" ry="3" style="stroke:#038048;stroke-width:1;"/><text fill="#000000" font-family="sans-serif" font-size="14" lengthAdjust="spacing" textLength="177.3652" x="1040.06" y="694.197">getReviewer(): Employee</text><ellipse cx="1031.06" cy="707.1472" fill="#84BE84" rx="3" ry="3" style="stroke:#038048;stroke-width:1;"/><text fill="#000000" font-family="sans-serif" font-size="14" lengthAdjust="spacing" textLength="132.959" x="1040.06" y="710.4939">getScore(): Integer</text><ellipse cx="1031.06" cy="723.4441" fill="#84BE84" rx="3" ry="3" style="stroke:#038048;stroke-width:1;"/><text fill="#000000" font-family="sans-serif" font-size="14" lengthAdjust="spacing" textLength="160.7471" x="1040.06" y="726.7907">getComments(): String</text><ellipse cx="1031.06" cy="739.7409" fill="#84BE84" rx="3" ry="3" style="stroke:#038048;stroke-width:1;"/><text fill="#000000" font-family="sans-serif" font-size="14" lengthAdjust="spacing" textLength="229.3525" x="1040.06" y="743.0876">setReviewDate(date: Date): void</text><ellipse cx="1031.06" cy="756.0378" fill="#84BE84" rx="3" ry="3" style="stroke:#038048;stroke-width:1;"/><text fill="#000000" font-family="sans-serif" font-size="14" lengthAdjust="spacing" textLength="283.6709" x="1040.06" y="759.3845">setReviewer(employee: Employee): void</text><ellipse cx="1031.06" cy="772.3347" fill="#84BE84" rx="3" ry="3" style="stroke:#038048;stroke-width:1;"/><text fill="#000000" font-family="sans-serif" font-size="14" lengthAdjust="spacing" textLength="208.0859" x="1040.06" y="775.6814">setScore(score: Integer): void</text><ellipse cx="1031.06" cy="788.6316" fill="#84BE84" rx="3" ry="3" style="stroke:#038048;stroke-width:1;"/><text fill="#000000" font-family="sans-serif" font-size="14" lengthAdjust="spacing" textLength="271.7559" x="1040.06" y="791.9782">setComments(comments: String): void</text></g><!--class Benefit--><g class="entity" data-entity="Benefit" data-source-line="91" data-uid="ent0007" id="entity_Benefit"><rect fill="#F1F1F1" height="259.8594" rx="2.5" ry="2.5" style="stroke:#181818;stroke-width:0.5;" width="240.0127" x="1364.89" y="514.98"/><ellipse cx="1455.6405" cy="530.98" fill="#ADD1B2" rx="11" ry="11" style="stroke:#181818;stroke-width:1;"/><path d="M1458.6092,536.6206 Q1458.0311,536.9175 1457.3905,537.0581 Q1456.7499,537.2144 1456.0467,537.2144 Q1453.5467,537.2144 1452.2186,535.5738 Q1450.9061,533.9175 1450.9061,530.7925 Q1450.9061,527.6675 1452.2186,526.0113 Q1453.5467,524.355 1456.0467,524.355 Q1456.7499,524.355 1457.3905,524.5113 Q1458.0467,524.6675 1458.6092,524.9644 L1458.6092,527.6831 Q1457.9842,527.105 1457.3905,526.8394 Q1456.7967,526.5581 1456.1717,526.5581 Q1454.828,526.5581 1454.1405,527.6363 Q1453.453,528.6988 1453.453,530.7925 Q1453.453,532.8863 1454.1405,533.9644 Q1454.828,535.0269 1456.1717,535.0269 Q1456.7967,535.0269 1457.3905,534.7613 Q1457.9842,534.48 1458.6092,533.9019 L1458.6092,536.6206 Z " fill="#000000"/><text fill="#000000" font-family="sans-serif" font-size="14" lengthAdjust="spacing" textLength="50.0117" x="1476.1405" y="535.8267">Benefit</text><line style="stroke:#181818;stroke-width:0.5;" x1="1365.89" x2="1603.9027" y1="546.98" y2="546.98"/><rect fill="none" height="6" style="stroke:#C82930;stroke-width:1;" width="6" x="1372.89" y="557.6284"/><text fill="#000000" font-family="sans-serif" font-size="14" lengthAdjust="spacing" textLength="113.2578" x="1384.89" y="563.9751">benefitId: String</text><rect fill="none" height="6" style="stroke:#C82930;stroke-width:1;" width="6" x="1372.89" y="573.9253"/><text fill="#000000" font-family="sans-serif" font-size="14" lengthAdjust="spacing" textLength="147.6084" x="1384.89" y="580.272">employee: Employee</text><rect fill="none" height="6" style="stroke:#C82930;stroke-width:1;" width="6" x="1372.89" y="590.2222"/><text fill="#000000" font-family="sans-serif" font-size="14" lengthAdjust="spacing" textLength="82.2227" x="1384.89" y="596.5689">type: String</text><rect fill="none" height="6" style="stroke:#C82930;stroke-width:1;" width="6" x="1372.89" y="606.5191"/><text fill="#000000" font-family="sans-serif" font-size="14" lengthAdjust="spacing" textLength="108.6982" x="1384.89" y="612.8657">startDate: Date</text><rect fill="none" height="6" style="stroke:#C82930;stroke-width:1;" width="6" x="1372.89" y="622.8159"/><text fill="#000000" font-family="sans-serif" font-size="14" lengthAdjust="spacing" textLength="102.4639" x="1384.89" y="629.1626">endDate: Date</text><line style="stroke:#181818;stroke-width:0.5;" x1="1365.89" x2="1603.9027" y1="636.4644" y2="636.4644"/><ellipse cx="1375.89" cy="650.1128" fill="#84BE84" rx="3" ry="3" style="stroke:#038048;stroke-width:1;"/><text fill="#000000" font-family="sans-serif" font-size="14" lengthAdjust="spacing" textLength="147.8887" x="1384.89" y="653.4595">getBenefitId(): String</text><ellipse cx="1375.89" cy="666.4097" fill="#84BE84" rx="3" ry="3" style="stroke:#038048;stroke-width:1;"/><text fill="#000000" font-family="sans-serif" font-size="14" lengthAdjust="spacing" textLength="181.7539" x="1384.89" y="669.7564">getEmployee(): Employee</text><ellipse cx="1375.89" cy="682.7066" fill="#84BE84" rx="3" ry="3" style="stroke:#038048;stroke-width:1;"/><text fill="#000000" font-family="sans-serif" font-size="14" lengthAdjust="spacing" textLength="119.1982" x="1384.89" y="686.0532">getType(): String</text><ellipse cx="1375.89" cy="699.0034" fill="#84BE84" rx="3" ry="3" style="stroke:#038048;stroke-width:1;"/><text fill="#000000" font-family="sans-serif" font-size="14" lengthAdjust="spacing" textLength="144.2041" x="1384.89" y="702.3501">getStartDate(): Date</text><ellipse cx="1375.89" cy="715.3003" fill="#84BE84" rx="3" ry="3" style="stroke:#038048;stroke-width:1;"/><text fill="#000000" font-family="sans-serif" font-size="14" lengthAdjust="spacing" textLength="136.6094" x="1384.89" y="718.647">getEndDate(): Date</text><ellipse cx="1375.89" cy="731.5972" fill="#84BE84" rx="3" ry="3" style="stroke:#038048;stroke-width:1;"/><text fill="#000000" font-family="sans-serif" font-size="14" lengthAdjust="spacing" textLength="187.6738" x="1384.89" y="734.9439">setType(type: String): void</text><ellipse cx="1375.89" cy="747.8941" fill="#84BE84" rx="3" ry="3" style="stroke:#038048;stroke-width:1;"/><text fill="#000000" font-family="sans-serif" font-size="14" lengthAdjust="spacing" textLength="214.0127" x="1384.89" y="751.2407">setStartDate(start: Date): void</text><ellipse cx="1375.89" cy="764.1909" fill="#84BE84" rx="3" ry="3" style="stroke:#038048;stroke-width:1;"/><text fill="#000000" font-family="sans-serif" font-size="14" lengthAdjust="spacing" textLength="200.1836" x="1384.89" y="767.5376">setEndDate(end: Date): void</text></g><!--class Recruitment--><g class="entity" data-entity="Recruitment" data-source-line="108" data-uid="ent0008" id="entity_Recruitment"><rect fill="#F1F1F1" height="292.4531" rx="2.5" ry="2.5" style="stroke:#181818;stroke-width:0.5;" width="240.0127" x="215.89" y="876.58"/><ellipse cx="288.3168" cy="892.58" fill="#ADD1B2" rx="11" ry="11" style="stroke:#181818;stroke-width:1;"/><path d="M291.2855,898.2206 Q290.7074,898.5175 290.0668,898.6581 Q289.4261,898.8144 288.723,898.8144 Q286.223,898.8144 284.8949,897.1737 Q283.5824,895.5175 283.5824,892.3925 Q283.5824,889.2675 284.8949,887.6112 Q286.223,885.955 288.723,885.955 Q289.4261,885.955 290.0668,886.1112 Q290.723,886.2675 291.2855,886.5644 L291.2855,889.2831 Q290.6605,888.705 290.0668,888.4394 Q289.473,888.1581 288.848,888.1581 Q287.5043,888.1581 286.8168,889.2362 Q286.1293,890.2987 286.1293,892.3925 Q286.1293,894.4862 286.8168,895.5644 Q287.5043,896.6269 288.848,896.6269 Q289.473,896.6269 290.0668,896.3612 Q290.6605,896.08 291.2855,895.5019 L291.2855,898.2206 Z " fill="#000000"/><text fill="#000000" font-family="sans-serif" font-size="14" lengthAdjust="spacing" textLength="86.6592" x="308.8168" y="897.4267">Recruitment</text><line style="stroke:#181818;stroke-width:0.5;" x1="216.89" x2="454.9027" y1="908.58" y2="908.58"/><rect fill="none" height="6" style="stroke:#C82930;stroke-width:1;" width="6" x="223.89" y="919.2284"/><text fill="#000000" font-family="sans-serif" font-size="14" lengthAdjust="spacing" textLength="146.6514" x="235.89" y="925.5751">recruitmentId: String</text><rect fill="none" height="6" style="stroke:#C82930;stroke-width:1;" width="6" x="223.89" y="935.5253"/><text fill="#000000" font-family="sans-serif" font-size="14" lengthAdjust="spacing" textLength="119.6289" x="235.89" y="941.872">position: Position</text><rect fill="none" height="6" style="stroke:#C82930;stroke-width:1;" width="6" x="223.89" y="951.8222"/><text fill="#000000" font-family="sans-serif" font-size="14" lengthAdjust="spacing" textLength="176.709" x="235.89" y="958.1689">department: Department</text><rect fill="none" height="6" style="stroke:#C82930;stroke-width:1;" width="6" x="223.89" y="968.1191"/><text fill="#000000" font-family="sans-serif" font-size="14" lengthAdjust="spacing" textLength="93.9668" x="235.89" y="974.4657">status: String</text><rect fill="none" height="6" style="stroke:#C82930;stroke-width:1;" width="6" x="223.89" y="984.4159"/><text fill="#000000" font-family="sans-serif" font-size="14" lengthAdjust="spacing" textLength="108.6982" x="235.89" y="990.7626">startDate: Date</text><rect fill="none" height="6" style="stroke:#C82930;stroke-width:1;" width="6" x="223.89" y="1000.7128"/><text fill="#000000" font-family="sans-serif" font-size="14" lengthAdjust="spacing" textLength="102.4639" x="235.89" y="1007.0595">endDate: Date</text><line style="stroke:#181818;stroke-width:0.5;" x1="216.89" x2="454.9027" y1="1014.3612" y2="1014.3612"/><ellipse cx="226.89" cy="1028.0097" fill="#84BE84" rx="3" ry="3" style="stroke:#038048;stroke-width:1;"/><text fill="#000000" font-family="sans-serif" font-size="14" lengthAdjust="spacing" textLength="184.5361" x="235.89" y="1031.3564">getRecruitmentId(): String</text><ellipse cx="226.89" cy="1044.3066" fill="#84BE84" rx="3" ry="3" style="stroke:#038048;stroke-width:1;"/><text fill="#000000" font-family="sans-serif" font-size="14" lengthAdjust="spacing" textLength="153.0977" x="235.89" y="1047.6532">getPosition(): Position</text><ellipse cx="226.89" cy="1060.6034" fill="#84BE84" rx="3" ry="3" style="stroke:#038048;stroke-width:1;"/><text fill="#000000" font-family="sans-serif" font-size="14" lengthAdjust="spacing" textLength="212.5156" x="235.89" y="1063.9501">getDepartment(): Department</text><ellipse cx="226.89" cy="1076.9003" fill="#84BE84" rx="3" ry="3" style="stroke:#038048;stroke-width:1;"/><text fill="#000000" font-family="sans-serif" font-size="14" lengthAdjust="spacing" textLength="129.4727" x="235.89" y="1080.247">getStatus(): String</text><ellipse cx="226.89" cy="1093.1972" fill="#84BE84" rx="3" ry="3" style="stroke:#038048;stroke-width:1;"/><text fill="#000000" font-family="sans-serif" font-size="14" lengthAdjust="spacing" textLength="144.2041" x="235.89" y="1096.5439">getStartDate(): Date</text><ellipse cx="226.89" cy="1109.4941" fill="#84BE84" rx="3" ry="3" style="stroke:#038048;stroke-width:1;"/><text fill="#000000" font-family="sans-serif" font-size="14" lengthAdjust="spacing" textLength="136.6094" x="235.89" y="1112.8407">getEndDate(): Date</text><ellipse cx="226.89" cy="1125.7909" fill="#84BE84" rx="3" ry="3" style="stroke:#038048;stroke-width:1;"/><text fill="#000000" font-family="sans-serif" font-size="14" lengthAdjust="spacing" textLength="209.6924" x="235.89" y="1129.1376">setStatus(status: String): void</text><ellipse cx="226.89" cy="1142.0878" fill="#84BE84" rx="3" ry="3" style="stroke:#038048;stroke-width:1;"/><text fill="#000000" font-family="sans-serif" font-size="14" lengthAdjust="spacing" textLength="214.0127" x="235.89" y="1145.4345">setStartDate(start: Date): void</text><ellipse cx="226.89" cy="1158.3847" fill="#84BE84" rx="3" ry="3" style="stroke:#038048;stroke-width:1;"/><text fill="#000000" font-family="sans-serif" font-size="14" lengthAdjust="spacing" textLength="200.1836" x="235.89" y="1161.7314">setEndDate(end: Date): void</text></g><!--link Employee to Department--><g class="link" data-entity-1="Employee" data-entity-2="Department" data-source-line="127" data-uid="lnk9" id="link_Employee_Department"><path codeLine="127" d="M578.29,306.13 C501.59,353.41 412.88,412.62 338.89,474.23 C308.81,499.28 277.62,528.38 250.05,555.33" fill="none" id="Employee-Department" style="stroke:#181818;stroke-width:1;"/></g><!--link Employee to Department--><g class="link" data-entity-1="Employee" data-entity-2="Department" data-source-line="134" data-uid="lnk16" id="link_Employee_Department"><path codeLine="134" d="M578.45,337.23 C525.26,374.17 465.94,412.72 408.89,444.23 C379.27,460.6 367.07,455.47 338.89,474.23 C304.55,497.1 270.98,527.16 242.58,555.62" fill="none" id="Employee-Department-1" style="stroke:#181818;stroke-width:1;"/><polygon fill="#000000" points="439.6982,438.522,448.8833,436.0552,445.6792,431.1275,439.6982,438.522" style="stroke:#000000;stroke-width:1;"/><text fill="#000000" font-family="sans-serif" font-size="13" lengthAdjust="spacing" textLength="58.4302" x="452.89" y="440.2969">manager</text><text fill="#000000" font-family="sans-serif" font-size="13" lengthAdjust="spacing" textLength="8.271" x="562.144" y="340.0824">1</text><text fill="#000000" font-family="sans-serif" font-size="13" lengthAdjust="spacing" textLength="24.8066" x="224.1359" y="544.6772">0..1</text></g><!--reverse link Employee to Position--><g class="link" data-entity-1="Employee" data-entity-2="Position" data-source-line="128" data-uid="lnk10" id="link_Employee_Position"><path codeLine="128" d="M642.2286,407.8586 C611.0686,463.0286 584.56,509.95 558.86,555.45" fill="none" id="Employee-backto-Position" style="stroke:#181818;stroke-width:1;"/><polygon fill="#181818" points="648.13,397.41,641.6964,400.6672,642.2286,407.8586,648.6622,404.6014,648.13,397.41" style="stroke:#181818;stroke-width:1;"/><text fill="#000000" font-family="sans-serif" font-size="13" lengthAdjust="spacing" textLength="8.271" x="635.6915" y="417.4011">1</text><text fill="#000000" font-family="sans-serif" font-size="13" lengthAdjust="spacing" textLength="8.271" x="554.5341" y="544.7959">1</text></g><!--link Employee to Payroll--><g class="link" data-entity-1="Employee" data-entity-2="Payroll" data-source-line="129" data-uid="lnk11" id="link_Employee_Payroll"><path codeLine="129" d="M794.48,397.41 C799.28,422.92 804.17,448.89 808.89,473.95" fill="none" id="Employee-Payroll" style="stroke:#181818;stroke-width:1;"/><text fill="#000000" font-family="sans-serif" font-size="13" lengthAdjust="spacing" textLength="8.271" x="787.7583" y="417.4011">1</text><text fill="#000000" font-family="sans-serif" font-size="13" lengthAdjust="spacing" textLength="23.0356" x="783.9195" y="462.9338">1..*</text></g><!--link Employee to PerformanceReview--><g class="link" data-entity-1="Employee" data-entity-2="PerformanceReview" data-source-line="130" data-uid="lnk12" id="link_Employee_PerformanceReview"><path codeLine="130" d="M937.46,392.93 C968.23,425.46 999.86,458.89 1029.6,490.32" fill="none" id="Employee-PerformanceReview" style="stroke:#181818;stroke-width:1;"/><text fill="#000000" font-family="sans-serif" font-size="13" lengthAdjust="spacing" textLength="8.271" x="945.2101" y="397.7332">1</text><text fill="#000000" font-family="sans-serif" font-size="13" lengthAdjust="spacing" textLength="23.0356" x="999.0061" y="479.5391">1..*</text></g><!--link Employee to Benefit--><g class="link" data-entity-1="Employee" data-entity-2="Benefit" data-source-line="131" data-uid="lnk13" id="link_Employee_Benefit"><path codeLine="131" d="M937.38,261.27 C1060.52,306.78 1223.36,378.42 1346.89,474.23 C1362.19,486.1 1376.88,499.97 1390.58,514.58" fill="none" id="Employee-Benefit" style="stroke:#181818;stroke-width:1;"/><text fill="#000000" font-family="sans-serif" font-size="13" lengthAdjust="spacing" textLength="8.271" x="945.1267" y="260.5188">1</text><text fill="#000000" font-family="sans-serif" font-size="13" lengthAdjust="spacing" textLength="23.0356" x="1361.7941" y="504.113">1..*</text></g><!--link Department to Recruitment--><g class="link" data-entity-1="Department" data-entity-2="Recruitment" data-source-line="132" data-uid="lnk14" id="link_Department_Recruitment"><path codeLine="132" d="M204.44,734.51 C223.75,776.73 247.37,828.33 269.22,876.09" fill="none" id="Department-Recruitment" style="stroke:#181818;stroke-width:1;"/></g><!--link Position to Recruitment--><g class="link" data-entity-1="Position" data-entity-2="Recruitment" data-source-line="133" data-uid="lnk15" id="link_Position_Recruitment"><path codeLine="133" d="M468.11,734.51 C448.68,776.73 424.94,828.33 402.95,876.09" fill="none" id="Position-Recruitment" style="stroke:#181818;stroke-width:1;"/></g><!--SRC=[jLV9Rjim4BtxAuYSsWGssgiF1PhQQ7EeOKZv0KMQE0GaqI3f54RHVo_tRUWYQHiVR6dUSFZcpN1nFtP2aErq7DaPWFnS4FLP4d26ks5DMidfV730t4rGcBfXu214OJq-iRdqXAcZO-d719MKpMkoTqyE6E3OSJd1BDTa4vuT-4GvR3gf9j3VncY-RiW1v3QGV_S-cysWEvL1pVxPfb63zZgN6h3L2LL7k5mqbkLbq9YEnelaZCStbv_1VOOtH4IQXUhAxvdH8VfPpbaLa8-bdrK5n_6Pu48XtoIlUlNyY5-BHMyQBqAXzU98r7mHsk4sdBgvEm1VXsOkkcAJnAsLR9C5htbyjpDeA9kZoDqCJzS9qia7GfIHFbxge8wl0j96KZa2qalqd1vjrIwrQ5sDUnskBbE8YM3XnsLaAcqIGrGeOX6wCsVZ63MmxqW2lsaLvJ43zi0f6rgfQfIig0JQpaC673WJekt6Zf-LdPqUHWYg3gTU4nO5C8Ei34WKzxphMucbNEakEpJ9eDWLKbobWT6lCHS3HdAkf3wX6hhpMI5G85uYweitafGYUBMHMyfLP6fM-YZmxYPsCbjDvXax2FWZusgvzT30CuKVePUuUNrvArd_ukZnPhJxB8de6LUkTxC4jTATiMUJtYZo8pCgtZXEhs-J9h33JT0uYlMHhUQfePIfGRuuihNLdimt14bGdSBCM5NaQtdagY6dGAaK4XN-5cPufF5mUR3lBw-tF1_BNTKqEUe0rT4NBoItVjRNL_HUpLyRrNeIkD1RomHV7KoiD26iVeZwfvNi9q2BECZUGCzFD3_NURGX-V_k4gWuofFuv-eqAR6tkCorXkV_ggABbYV_1fKC_mcMopIhOBxwU4Mk5QP_WoePQi3LwlhAd-0NuN9xlkJe5j8YkJOgC2dW8boO2ZiA-66rKa-RfB_SROny-Wq0]--></g></svg>