<svg xmlns="http://www.w3.org/2000/svg" xmlns:xlink="http://www.w3.org/1999/xlink" contentStyleType="text/css" data-diagram-type="CLASS" height="974px" preserveAspectRatio="none" style="width:759px;height:974px;background:#FFFFFF;" version="1.1" viewBox="0 0 759 974" width="759px" zoomAndPan="magnify"><defs/><g><!--class School--><g class="entity" data-entity="School" data-source-line="1" data-uid="ent0002" id="entity_School"><rect fill="#F1F1F1" height="227.2656" rx="2.5" ry="2.5" style="stroke:#181818;stroke-width:0.5;" width="347.1045" x="141.4" y="7"/><ellipse cx="287.4635" cy="23" fill="#ADD1B2" rx="11" ry="11" style="stroke:#181818;stroke-width:1;"/><path d="M290.4322,28.6406 Q289.8541,28.9375 289.2135,29.0781 Q288.5729,29.2344 287.8697,29.2344 Q285.3697,29.2344 284.0416,27.5938 Q282.7291,25.9375 282.7291,22.8125 Q282.7291,19.6875 284.0416,18.0313 Q285.3697,16.375 287.8697,16.375 Q288.5729,16.375 289.2135,16.5313 Q289.8697,16.6875 290.4322,16.9844 L290.4322,19.7031 Q289.8072,19.125 289.2135,18.8594 Q288.6197,18.5781 287.9947,18.5781 Q286.651,18.5781 285.9635,19.6563 Q285.276,20.7188 285.276,22.8125 Q285.276,24.9063 285.9635,25.9844 Q286.651,27.0469 287.9947,27.0469 Q288.6197,27.0469 289.2135,26.7813 Q289.8072,26.5 290.4322,25.9219 L290.4322,28.6406 Z " fill="#000000"/><text fill="#000000" font-family="sans-serif" font-size="14" lengthAdjust="spacing" textLength="46.4775" x="307.9635" y="27.8467">School</text><line style="stroke:#181818;stroke-width:0.5;" x1="142.4" x2="487.5045" y1="39" y2="39"/><rect fill="none" height="6" style="stroke:#C82930;stroke-width:1;" width="6" x="149.4" y="49.6484"/><text fill="#000000" font-family="sans-serif" font-size="14" lengthAdjust="spacing" textLength="85.9346" x="161.4" y="55.9951">String name</text><rect fill="none" height="6" style="stroke:#C82930;stroke-width:1;" width="6" x="149.4" y="65.9453"/><text fill="#000000" font-family="sans-serif" font-size="14" lengthAdjust="spacing" textLength="101.541" x="161.4" y="72.292">String address</text><rect fill="none" height="6" style="stroke:#C82930;stroke-width:1;" width="6" x="149.4" y="82.2422"/><text fill="#000000" font-family="sans-serif" font-size="14" lengthAdjust="spacing" textLength="227.2197" x="161.4" y="88.5889">List&lt;Department&gt; departments</text><rect fill="none" height="6" style="stroke:#C82930;stroke-width:1;" width="6" x="149.4" y="98.5391"/><text fill="#000000" font-family="sans-serif" font-size="14" lengthAdjust="spacing" textLength="168.3076" x="161.4" y="104.8857">List&lt;Student&gt; students</text><rect fill="none" height="6" style="stroke:#C82930;stroke-width:1;" width="6" x="149.4" y="114.8359"/><text fill="#000000" font-family="sans-serif" font-size="14" lengthAdjust="spacing" textLength="116.416" x="161.4" y="121.1826">List&lt;Staff&gt; staff</text><line style="stroke:#181818;stroke-width:0.5;" x1="142.4" x2="487.5045" y1="128.4844" y2="128.4844"/><ellipse cx="152.4" cy="142.1328" fill="#84BE84" rx="3" ry="3" style="stroke:#038048;stroke-width:1;"/><text fill="#000000" font-family="sans-serif" font-size="14" lengthAdjust="spacing" textLength="293.9863" x="161.4" y="145.4795">addDepartment(Department department)</text><ellipse cx="152.4" cy="158.4297" fill="#84BE84" rx="3" ry="3" style="stroke:#038048;stroke-width:1;"/><text fill="#000000" font-family="sans-serif" font-size="14" lengthAdjust="spacing" textLength="321.1045" x="161.4" y="161.7764">removeDepartment(Department department)</text><ellipse cx="152.4" cy="174.7266" fill="#84BE84" rx="3" ry="3" style="stroke:#038048;stroke-width:1;"/><text fill="#000000" font-family="sans-serif" font-size="14" lengthAdjust="spacing" textLength="205.4678" x="161.4" y="178.0732">addStudent(Student student)</text><ellipse cx="152.4" cy="191.0234" fill="#84BE84" rx="3" ry="3" style="stroke:#038048;stroke-width:1;"/><text fill="#000000" font-family="sans-serif" font-size="14" lengthAdjust="spacing" textLength="232.5859" x="161.4" y="194.3701">removeStudent(Student student)</text><ellipse cx="152.4" cy="207.3203" fill="#84BE84" rx="3" ry="3" style="stroke:#038048;stroke-width:1;"/><text fill="#000000" font-family="sans-serif" font-size="14" lengthAdjust="spacing" textLength="138.5713" x="161.4" y="210.667">addStaff(Staff staff)</text><ellipse cx="152.4" cy="223.6172" fill="#84BE84" rx="3" ry="3" style="stroke:#038048;stroke-width:1;"/><text fill="#000000" font-family="sans-serif" font-size="14" lengthAdjust="spacing" textLength="165.6895" x="161.4" y="226.9639">removeStaff(Staff staff)</text></g><!--class Department--><g class="entity" data-entity="Department" data-source-line="15" data-uid="ent0003" id="entity_Department"><rect fill="#F1F1F1" height="178.375" rx="2.5" ry="2.5" style="stroke:#181818;stroke-width:0.5;" width="301.9053" x="7" y="311.27"/><ellipse cx="111.3438" cy="327.27" fill="#ADD1B2" rx="11" ry="11" style="stroke:#181818;stroke-width:1;"/><path d="M114.3125,332.9106 Q113.7344,333.2075 113.0938,333.3481 Q112.4531,333.5044 111.75,333.5044 Q109.25,333.5044 107.9219,331.8638 Q106.6094,330.2075 106.6094,327.0825 Q106.6094,323.9575 107.9219,322.3013 Q109.25,320.645 111.75,320.645 Q112.4531,320.645 113.0938,320.8013 Q113.75,320.9575 114.3125,321.2544 L114.3125,323.9731 Q113.6875,323.395 113.0938,323.1294 Q112.5,322.8481 111.875,322.8481 Q110.5313,322.8481 109.8438,323.9263 Q109.1563,324.9888 109.1563,327.0825 Q109.1563,329.1763 109.8438,330.2544 Q110.5313,331.3169 111.875,331.3169 Q112.5,331.3169 113.0938,331.0513 Q113.6875,330.77 114.3125,330.1919 L114.3125,332.9106 Z " fill="#000000"/><text fill="#000000" font-family="sans-serif" font-size="14" lengthAdjust="spacing" textLength="84.7178" x="131.8438" y="332.1167">Department</text><line style="stroke:#181818;stroke-width:0.5;" x1="8" x2="307.9053" y1="343.27" y2="343.27"/><rect fill="none" height="6" style="stroke:#C82930;stroke-width:1;" width="6" x="15" y="353.9184"/><text fill="#000000" font-family="sans-serif" font-size="14" lengthAdjust="spacing" textLength="85.9346" x="27" y="360.2651">String name</text><rect fill="none" height="6" style="stroke:#C82930;stroke-width:1;" width="6" x="15" y="370.2153"/><text fill="#000000" font-family="sans-serif" font-size="14" lengthAdjust="spacing" textLength="155.3535" x="27" y="376.562">List&lt;Course&gt; courses</text><rect fill="none" height="6" style="stroke:#C82930;stroke-width:1;" width="6" x="15" y="386.5122"/><text fill="#000000" font-family="sans-serif" font-size="14" lengthAdjust="spacing" textLength="150.9922" x="27" y="392.8589">List&lt;Faculty&gt; faculty</text><rect fill="none" height="6" style="stroke:#C82930;stroke-width:1;" width="6" x="15" y="402.8091"/><text fill="#000000" font-family="sans-serif" font-size="14" lengthAdjust="spacing" textLength="95.8125" x="27" y="409.1557">School school</text><line style="stroke:#181818;stroke-width:0.5;" x1="8" x2="307.9053" y1="416.4575" y2="416.4575"/><ellipse cx="18" cy="430.1059" fill="#84BE84" rx="3" ry="3" style="stroke:#038048;stroke-width:1;"/><text fill="#000000" font-family="sans-serif" font-size="14" lengthAdjust="spacing" textLength="186.2793" x="27" y="433.4526">addCourse(Course course)</text><ellipse cx="18" cy="446.4028" fill="#84BE84" rx="3" ry="3" style="stroke:#038048;stroke-width:1;"/><text fill="#000000" font-family="sans-serif" font-size="14" lengthAdjust="spacing" textLength="213.3975" x="27" y="449.7495">removeCourse(Course course)</text><ellipse cx="18" cy="462.6997" fill="#84BE84" rx="3" ry="3" style="stroke:#038048;stroke-width:1;"/><text fill="#000000" font-family="sans-serif" font-size="14" lengthAdjust="spacing" textLength="248.7871" x="27" y="466.0464">addFaculty(Faculty facultyMember)</text><ellipse cx="18" cy="478.9966" fill="#84BE84" rx="3" ry="3" style="stroke:#038048;stroke-width:1;"/><text fill="#000000" font-family="sans-serif" font-size="14" lengthAdjust="spacing" textLength="275.9053" x="27" y="482.3432">removeFaculty(Faculty facultyMember)</text></g><!--class Course--><g class="entity" data-entity="Course" data-source-line="26" data-uid="ent0004" id="entity_Course"><rect fill="#F1F1F1" height="194.6719" rx="2.5" ry="2.5" style="stroke:#181818;stroke-width:0.5;" width="267.6982" x="374.1" y="566.64"/><ellipse cx="479.2606" cy="582.64" fill="#ADD1B2" rx="11" ry="11" style="stroke:#181818;stroke-width:1;"/><path d="M482.2294,588.2806 Q481.6513,588.5775 481.0106,588.7181 Q480.37,588.8744 479.6669,588.8744 Q477.1669,588.8744 475.8388,587.2337 Q474.5263,585.5775 474.5263,582.4525 Q474.5263,579.3275 475.8388,577.6712 Q477.1669,576.015 479.6669,576.015 Q480.37,576.015 481.0106,576.1712 Q481.6669,576.3275 482.2294,576.6244 L482.2294,579.3431 Q481.6044,578.765 481.0106,578.4994 Q480.4169,578.2181 479.7919,578.2181 Q478.4481,578.2181 477.7606,579.2962 Q477.0731,580.3587 477.0731,582.4525 Q477.0731,584.5462 477.7606,585.6244 Q478.4481,586.6869 479.7919,586.6869 Q480.4169,586.6869 481.0106,586.4212 Q481.6044,586.14 482.2294,585.5619 L482.2294,588.2806 Z " fill="#000000"/><text fill="#000000" font-family="sans-serif" font-size="14" lengthAdjust="spacing" textLength="48.877" x="499.7606" y="587.4867">Course</text><line style="stroke:#181818;stroke-width:0.5;" x1="375.1" x2="640.7982" y1="598.64" y2="598.64"/><rect fill="none" height="6" style="stroke:#C82930;stroke-width:1;" width="6" x="382.1" y="609.2884"/><text fill="#000000" font-family="sans-serif" font-size="14" lengthAdjust="spacing" textLength="106.0459" x="394.1" y="615.6351">String courseId</text><rect fill="none" height="6" style="stroke:#C82930;stroke-width:1;" width="6" x="382.1" y="625.5853"/><text fill="#000000" font-family="sans-serif" font-size="14" lengthAdjust="spacing" textLength="134.333" x="394.1" y="631.932">String courseName</text><rect fill="none" height="6" style="stroke:#C82930;stroke-width:1;" width="6" x="382.1" y="641.8822"/><text fill="#000000" font-family="sans-serif" font-size="14" lengthAdjust="spacing" textLength="104.0498" x="394.1" y="648.2289">int creditHours</text><rect fill="none" height="6" style="stroke:#C82930;stroke-width:1;" width="6" x="382.1" y="658.1791"/><text fill="#000000" font-family="sans-serif" font-size="14" lengthAdjust="spacing" textLength="171.9922" x="394.1" y="664.5257">Department department</text><rect fill="none" height="6" style="stroke:#C82930;stroke-width:1;" width="6" x="382.1" y="674.4759"/><text fill="#000000" font-family="sans-serif" font-size="14" lengthAdjust="spacing" textLength="241.6982" x="394.1" y="680.8226">List&lt;Student&gt; registeredStudents</text><rect fill="none" height="6" style="stroke:#C82930;stroke-width:1;" width="6" x="382.1" y="690.7728"/><text fill="#000000" font-family="sans-serif" font-size="14" lengthAdjust="spacing" textLength="122.999" x="394.1" y="697.1195">Faculty instructor</text><line style="stroke:#181818;stroke-width:0.5;" x1="375.1" x2="640.7982" y1="704.4212" y2="704.4212"/><ellipse cx="385.1" cy="718.0697" fill="#84BE84" rx="3" ry="3" style="stroke:#038048;stroke-width:1;"/><text fill="#000000" font-family="sans-serif" font-size="14" lengthAdjust="spacing" textLength="233.4131" x="394.1" y="721.4164">registerStudent(Student student)</text><ellipse cx="385.1" cy="734.3666" fill="#84BE84" rx="3" ry="3" style="stroke:#038048;stroke-width:1;"/><text fill="#000000" font-family="sans-serif" font-size="14" lengthAdjust="spacing" textLength="211.21" x="394.1" y="737.7132">dropStudent(Student student)</text><ellipse cx="385.1" cy="750.6634" fill="#84BE84" rx="3" ry="3" style="stroke:#038048;stroke-width:1;"/><text fill="#000000" font-family="sans-serif" font-size="14" lengthAdjust="spacing" textLength="203.3008" x="394.1" y="754.0101">setInstructor(Faculty faculty)</text></g><!--class Person--><g class="entity" data-entity="Person" data-source-line="38" data-uid="ent0005" id="entity_Person"><rect fill="#F1F1F1" height="145.7813" rx="2.5" ry="2.5" style="stroke:#181818;stroke-width:0.5;" width="185.5576" x="530.17" y="47.75"/><ellipse cx="594.9268" cy="63.75" fill="#ADD1B2" rx="11" ry="11" style="stroke:#181818;stroke-width:1;"/><path d="M597.8956,69.3906 Q597.3175,69.6875 596.6768,69.8281 Q596.0362,69.9844 595.3331,69.9844 Q592.8331,69.9844 591.505,68.3438 Q590.1925,66.6875 590.1925,63.5625 Q590.1925,60.4375 591.505,58.7813 Q592.8331,57.125 595.3331,57.125 Q596.0362,57.125 596.6768,57.2813 Q597.3331,57.4375 597.8956,57.7344 L597.8956,60.4531 Q597.2706,59.875 596.6768,59.6094 Q596.0831,59.3281 595.4581,59.3281 Q594.1143,59.3281 593.4268,60.4063 Q592.7393,61.4688 592.7393,63.5625 Q592.7393,65.6563 593.4268,66.7344 Q594.1143,67.7969 595.4581,67.7969 Q596.0831,67.7969 596.6768,67.5313 Q597.2706,67.25 597.8956,66.6719 L597.8956,69.3906 Z " fill="#000000"/><text fill="#000000" font-family="sans-serif" font-size="14" lengthAdjust="spacing" textLength="47.5439" x="615.4268" y="68.5967">Person</text><line style="stroke:#181818;stroke-width:0.5;" x1="531.17" x2="714.7276" y1="79.75" y2="79.75"/><rect fill="none" height="6" style="stroke:#C82930;stroke-width:1;" width="6" x="538.17" y="90.3984"/><text fill="#000000" font-family="sans-serif" font-size="14" lengthAdjust="spacing" textLength="59.0078" x="550.17" y="96.7451">String id</text><rect fill="none" height="6" style="stroke:#C82930;stroke-width:1;" width="6" x="538.17" y="106.6953"/><text fill="#000000" font-family="sans-serif" font-size="14" lengthAdjust="spacing" textLength="85.9346" x="550.17" y="113.042">String name</text><rect fill="none" height="6" style="stroke:#C82930;stroke-width:1;" width="6" x="538.17" y="122.9922"/><text fill="#000000" font-family="sans-serif" font-size="14" lengthAdjust="spacing" textLength="119.041" x="550.17" y="129.3389">Date dateOfBirth</text><rect fill="none" height="6" style="stroke:#C82930;stroke-width:1;" width="6" x="538.17" y="139.2891"/><text fill="#000000" font-family="sans-serif" font-size="14" lengthAdjust="spacing" textLength="101.541" x="550.17" y="145.6357">String address</text><line style="stroke:#181818;stroke-width:0.5;" x1="531.17" x2="714.7276" y1="152.9375" y2="152.9375"/><ellipse cx="541.17" cy="166.5859" fill="#84BE84" rx="3" ry="3" style="stroke:#038048;stroke-width:1;"/><text fill="#000000" font-family="sans-serif" font-size="14" lengthAdjust="spacing" textLength="126.1641" x="550.17" y="169.9326">getName(): String</text><ellipse cx="541.17" cy="182.8828" fill="#84BE84" rx="3" ry="3" style="stroke:#038048;stroke-width:1;"/><text fill="#000000" font-family="sans-serif" font-size="14" lengthAdjust="spacing" textLength="159.5576" x="550.17" y="186.2295">setName(String name)</text></g><!--class Student--><g class="entity" data-entity="Student" data-source-line="47" data-uid="ent0006" id="entity_Student"><rect fill="#F1F1F1" height="113.1875" rx="2.5" ry="2.5" style="stroke:#181818;stroke-width:0.5;" width="181.3535" x="501.28" y="343.86"/><ellipse cx="560.1511" cy="359.86" fill="#ADD1B2" rx="11" ry="11" style="stroke:#181818;stroke-width:1;"/><path d="M563.1198,365.5006 Q562.5417,365.7975 561.9011,365.9381 Q561.2605,366.0944 560.5573,366.0944 Q558.0573,366.0944 556.7292,364.4537 Q555.4167,362.7975 555.4167,359.6725 Q555.4167,356.5475 556.7292,354.8912 Q558.0573,353.235 560.5573,353.235 Q561.2605,353.235 561.9011,353.3912 Q562.5573,353.5475 563.1198,353.8444 L563.1198,356.5631 Q562.4948,355.985 561.9011,355.7194 Q561.3073,355.4381 560.6823,355.4381 Q559.3386,355.4381 558.6511,356.5162 Q557.9636,357.5787 557.9636,359.6725 Q557.9636,361.7662 558.6511,362.8444 Q559.3386,363.9069 560.6823,363.9069 Q561.3073,363.9069 561.9011,363.6412 Q562.4948,363.36 563.1198,362.7819 L563.1198,365.5006 Z " fill="#000000"/><text fill="#000000" font-family="sans-serif" font-size="14" lengthAdjust="spacing" textLength="55.1113" x="580.6511" y="364.7067">Student</text><line style="stroke:#181818;stroke-width:0.5;" x1="502.28" x2="681.6335" y1="375.86" y2="375.86"/><rect fill="none" height="6" style="stroke:#C82930;stroke-width:1;" width="6" x="509.28" y="386.5084"/><text fill="#000000" font-family="sans-serif" font-size="14" lengthAdjust="spacing" textLength="112.7656" x="521.28" y="392.8551">String studentId</text><rect fill="none" height="6" style="stroke:#C82930;stroke-width:1;" width="6" x="509.28" y="402.8053"/><text fill="#000000" font-family="sans-serif" font-size="14" lengthAdjust="spacing" textLength="86.6592" x="521.28" y="409.152">String major</text><rect fill="none" height="6" style="stroke:#C82930;stroke-width:1;" width="6" x="509.28" y="419.1022"/><text fill="#000000" font-family="sans-serif" font-size="14" lengthAdjust="spacing" textLength="155.3535" x="521.28" y="425.4489">List&lt;Course&gt; courses</text><rect fill="none" height="6" style="stroke:#C82930;stroke-width:1;" width="6" x="509.28" y="435.3991"/><text fill="#000000" font-family="sans-serif" font-size="14" lengthAdjust="spacing" textLength="95.8125" x="521.28" y="441.7457">School school</text><line style="stroke:#181818;stroke-width:0.5;" x1="502.28" x2="681.6335" y1="449.0475" y2="449.0475"/></g><!--class Staff--><g class="entity" data-entity="Staff" data-source-line="54" data-uid="ent0007" id="entity_Staff"><rect fill="#F1F1F1" height="96.8906" rx="2.5" ry="2.5" style="stroke:#181818;stroke-width:0.5;" width="121.8125" x="344.05" y="352.01"/><ellipse cx="384.7" cy="368.01" fill="#ADD1B2" rx="11" ry="11" style="stroke:#181818;stroke-width:1;"/><path d="M387.6688,373.6506 Q387.0906,373.9475 386.45,374.0881 Q385.8094,374.2444 385.1063,374.2444 Q382.6063,374.2444 381.2781,372.6038 Q379.9656,370.9475 379.9656,367.8225 Q379.9656,364.6975 381.2781,363.0413 Q382.6063,361.385 385.1063,361.385 Q385.8094,361.385 386.45,361.5413 Q387.1063,361.6975 387.6688,361.9944 L387.6688,364.7131 Q387.0438,364.135 386.45,363.8694 Q385.8563,363.5881 385.2313,363.5881 Q383.8875,363.5881 383.2,364.6663 Q382.5125,365.7288 382.5125,367.8225 Q382.5125,369.9163 383.2,370.9944 Q383.8875,372.0569 385.2313,372.0569 Q385.8563,372.0569 386.45,371.7913 Q387.0438,371.51 387.6688,370.9319 L387.6688,373.6506 Z " fill="#000000"/><text fill="#000000" font-family="sans-serif" font-size="14" lengthAdjust="spacing" textLength="32.8125" x="404.4" y="372.8567">Staff</text><line style="stroke:#181818;stroke-width:0.5;" x1="345.05" x2="464.8625" y1="384.01" y2="384.01"/><rect fill="none" height="6" style="stroke:#C82930;stroke-width:1;" width="6" x="352.05" y="394.6584"/><text fill="#000000" font-family="sans-serif" font-size="14" lengthAdjust="spacing" textLength="90.4668" x="364.05" y="401.0051">String staffId</text><rect fill="none" height="6" style="stroke:#C82930;stroke-width:1;" width="6" x="352.05" y="410.9553"/><text fill="#000000" font-family="sans-serif" font-size="14" lengthAdjust="spacing" textLength="73.0557" x="364.05" y="417.302">String role</text><rect fill="none" height="6" style="stroke:#C82930;stroke-width:1;" width="6" x="352.05" y="427.2522"/><text fill="#000000" font-family="sans-serif" font-size="14" lengthAdjust="spacing" textLength="95.8125" x="364.05" y="433.5989">School school</text><line style="stroke:#181818;stroke-width:0.5;" x1="345.05" x2="464.8625" y1="440.9006" y2="440.9006"/></g><!--class Faculty--><g class="entity" data-entity="Faculty" data-source-line="60" data-uid="ent0008" id="entity_Faculty"><rect fill="#F1F1F1" height="129.4844" rx="2.5" ry="2.5" style="stroke:#181818;stroke-width:0.5;" width="248.4893" x="383.71" y="838.32"/><ellipse cx="478.2715" cy="854.32" fill="#ADD1B2" rx="11" ry="11" style="stroke:#181818;stroke-width:1;"/><path d="M481.2403,859.9606 Q480.6621,860.2575 480.0215,860.3981 Q479.3809,860.5544 478.6778,860.5544 Q476.1778,860.5544 474.8496,858.9137 Q473.5371,857.2575 473.5371,854.1325 Q473.5371,851.0075 474.8496,849.3512 Q476.1778,847.695 478.6778,847.695 Q479.3809,847.695 480.0215,847.8512 Q480.6778,848.0075 481.2403,848.3044 L481.2403,851.0231 Q480.6153,850.445 480.0215,850.1794 Q479.4278,849.8981 478.8028,849.8981 Q477.459,849.8981 476.7715,850.9762 Q476.084,852.0387 476.084,854.1325 Q476.084,856.2262 476.7715,857.3044 Q477.459,858.3669 478.8028,858.3669 Q479.4278,858.3669 480.0215,858.1012 Q480.6153,857.82 481.2403,857.2419 L481.2403,859.9606 Z " fill="#000000"/><text fill="#000000" font-family="sans-serif" font-size="14" lengthAdjust="spacing" textLength="50.8662" x="498.7715" y="859.1667">Faculty</text><line style="stroke:#181818;stroke-width:0.5;" x1="384.71" x2="631.1993" y1="870.32" y2="870.32"/><rect fill="none" height="6" style="stroke:#C82930;stroke-width:1;" width="6" x="391.71" y="880.9684"/><text fill="#000000" font-family="sans-serif" font-size="14" lengthAdjust="spacing" textLength="106.9893" x="403.71" y="887.3151">String facultyId</text><rect fill="none" height="6" style="stroke:#C82930;stroke-width:1;" width="6" x="391.71" y="897.2653"/><text fill="#000000" font-family="sans-serif" font-size="14" lengthAdjust="spacing" textLength="129.0557" x="403.71" y="903.612">String department</text><rect fill="none" height="6" style="stroke:#C82930;stroke-width:1;" width="6" x="391.71" y="913.5622"/><text fill="#000000" font-family="sans-serif" font-size="14" lengthAdjust="spacing" textLength="218.333" x="403.71" y="919.9089">List&lt;Course&gt; teachingCourses</text><line style="stroke:#181818;stroke-width:0.5;" x1="384.71" x2="631.1993" y1="927.2106" y2="927.2106"/><ellipse cx="394.71" cy="940.8591" fill="#84BE84" rx="3" ry="3" style="stroke:#038048;stroke-width:1;"/><text fill="#000000" font-family="sans-serif" font-size="14" lengthAdjust="spacing" textLength="204.7432" x="403.71" y="944.2057">assignCourse(Course course)</text><ellipse cx="394.71" cy="957.1559" fill="#84BE84" rx="3" ry="3" style="stroke:#038048;stroke-width:1;"/><text fill="#000000" font-family="sans-serif" font-size="14" lengthAdjust="spacing" textLength="222.4893" x="403.71" y="960.5026">unassignCourse(Course course)</text></g><!--reverse link School to Department--><g class="link" data-entity-1="School" data-entity-2="Department" data-source-line="68" data-uid="lnk9" id="link_School_Department"><path codeLine="68" d="M242.7838,245.166 C237.0638,255.126 237.38,254.66 231.95,264.27 C223.47,279.3 214.56,295.33 205.99,310.92" fill="none" id="School-backto-Department" style="stroke:#181818;stroke-width:1;"/><polygon fill="#181818" points="248.76,234.76,242.3032,237.971,242.7838,245.166,249.2406,241.9551,248.76,234.76" style="stroke:#181818;stroke-width:1;"/><text fill="#000000" font-family="sans-serif" font-size="13" lengthAdjust="spacing" textLength="55.0278" x="232.95" y="277.3369">contains</text><text fill="#000000" font-family="sans-serif" font-size="13" lengthAdjust="spacing" textLength="8.271" x="236.4909" y="254.2426">1</text><text fill="#000000" font-family="sans-serif" font-size="13" lengthAdjust="spacing" textLength="6.5" x="203.5988" y="300.2595">*</text></g><!--reverse link School to Student--><g class="link" data-entity-1="School" data-entity-2="Student" data-source-line="69" data-uid="lnk10" id="link_School_Student"><path codeLine="69" d="M436.0928,243.1377 C473.5328,280.6877 505.12,312.37 536.31,343.65" fill="none" id="School-backto-Student" style="stroke:#181818;stroke-width:1;"/><polygon fill="#181818" points="427.62,234.64,429.0238,241.7131,436.0928,243.1377,434.689,236.0646,427.62,234.64" style="stroke:#181818;stroke-width:1;"/><text fill="#000000" font-family="sans-serif" font-size="13" lengthAdjust="spacing" textLength="55.0278" x="470.95" y="277.3369">contains</text><text fill="#000000" font-family="sans-serif" font-size="13" lengthAdjust="spacing" textLength="8.271" x="426.5902" y="254.4952">1</text><text fill="#000000" font-family="sans-serif" font-size="13" lengthAdjust="spacing" textLength="6.5" x="523.1929" y="332.888">*</text></g><!--reverse link School to Staff--><g class="link" data-entity-1="School" data-entity-2="Staff" data-source-line="70" data-uid="lnk11" id="link_School_Staff"><path codeLine="70" d="M359.9934,246.0542 C363.4034,256.0242 362.84,254.63 365.95,264.27 C375.25,293.09 384.69,325.71 391.96,351.69" fill="none" id="School-backto-Staff" style="stroke:#181818;stroke-width:1;"/><polygon fill="#181818" points="356.11,234.7,354.267,241.6716,359.9934,246.0542,361.8365,239.0826,356.11,234.7" style="stroke:#181818;stroke-width:1;"/><text fill="#000000" font-family="sans-serif" font-size="13" lengthAdjust="spacing" textLength="55.0278" x="371.95" y="277.3369">contains</text><text fill="#000000" font-family="sans-serif" font-size="13" lengthAdjust="spacing" textLength="8.271" x="350.3826" y="254.1789">1</text><text fill="#000000" font-family="sans-serif" font-size="13" lengthAdjust="spacing" textLength="6.5" x="383.7457" y="340.8539">*</text></g><!--reverse link School to Staff--><g class="link" data-entity-1="School" data-entity-2="Staff" data-source-line="71" data-uid="lnk12" id="link_School_Staff"><path codeLine="71" d="M292.8901,246.5762 C293.2901,262.5662 295.4,266.56 300.95,281.27 C301.81,283.55 333.94,319.91 362.26,351.7" fill="none" id="School-backto-Staff-1" style="stroke:#181818;stroke-width:1;"/><polygon fill="#181818" points="292.59,234.58,288.7413,240.6782,292.8901,246.5762,296.7388,240.4781,292.59,234.58" style="stroke:#181818;stroke-width:1;"/><text fill="#000000" font-family="sans-serif" font-size="13" lengthAdjust="spacing" textLength="55.0278" x="301.95" y="277.3369">contains</text><text fill="#000000" font-family="sans-serif" font-size="13" lengthAdjust="spacing" textLength="8.271" x="282.9098" y="254.4314">1</text><text fill="#000000" font-family="sans-serif" font-size="13" lengthAdjust="spacing" textLength="6.5" x="349.8691" y="340.8653">*</text></g><!--reverse link Department to Course--><g class="link" data-entity-1="Department" data-entity-2="Course" data-source-line="72" data-uid="lnk13" id="link_Department_Course"><path codeLine="72" d="M286.0633,497.1822 C318.8833,521.7022 345.06,541.26 378.47,566.23" fill="none" id="Department-backto-Course" style="stroke:#181818;stroke-width:1;"/><polygon fill="#181818" points="276.45,490,278.8626,496.7955,286.0633,497.1822,283.6507,490.3866,276.45,490" style="stroke:#181818;stroke-width:1;"/><text fill="#000000" font-family="sans-serif" font-size="13" lengthAdjust="spacing" textLength="37.2227" x="333.95" y="532.7069">offers</text><text fill="#000000" font-family="sans-serif" font-size="13" lengthAdjust="spacing" textLength="8.271" x="277.5848" y="509.8053">1</text><text fill="#000000" font-family="sans-serif" font-size="13" lengthAdjust="spacing" textLength="6.5" x="362.7594" y="555.5728">*</text></g><!--reverse link Department to Faculty--><g class="link" data-entity-1="Department" data-entity-2="Faculty" data-source-line="73" data-uid="lnk14" id="link_Department_Faculty"><path codeLine="73" d="M180.4813,501.5929 C201.0213,579.4429 236.49,680.94 300.95,761.32 C324.74,790.98 356.45,816.81 387.89,837.96" fill="none" id="Department-backto-Faculty" style="stroke:#181818;stroke-width:1;"/><polygon fill="#181818" points="177.42,489.99,175.083,496.8119,180.4813,501.5929,182.8183,494.771,177.42,489.99" style="stroke:#181818;stroke-width:1;"/><text fill="#000000" font-family="sans-serif" font-size="13" lengthAdjust="spacing" textLength="54.9453" x="301.95" y="668.5469">employs</text><text fill="#000000" font-family="sans-serif" font-size="13" lengthAdjust="spacing" textLength="8.271" x="170.6634" y="509.7945">1</text><text fill="#000000" font-family="sans-serif" font-size="13" lengthAdjust="spacing" textLength="6.5" x="369.2247" y="827.5466">*</text></g><!--link Student to Course--><g class="link" data-entity-1="Student" data-entity-2="Course" data-source-line="74" data-uid="lnk15" id="link_Student_Course"><path codeLine="74" d="M574.04,457.24 C563.84,488.97 550.8,529.59 538.99,566.34" fill="none" id="Student-Course" style="stroke:#181818;stroke-width:1;"/><text fill="#000000" font-family="sans-serif" font-size="13" lengthAdjust="spacing" textLength="68.9927" x="552.95" y="532.7069">enrolled in</text><text fill="#000000" font-family="sans-serif" font-size="13" lengthAdjust="spacing" textLength="8.271" x="563.3854" y="477.1499">1</text><text fill="#000000" font-family="sans-serif" font-size="13" lengthAdjust="spacing" textLength="6.5" x="535.0676" y="555.6909">*</text></g><!--link Course to Faculty--><g class="link" data-entity-1="Course" data-entity-2="Faculty" data-source-line="75" data-uid="lnk16" id="link_Course_Faculty"><path codeLine="75" d="M507.95,761.75 C507.95,787.49 507.95,814.64 507.95,838.13" fill="none" id="Course-Faculty" style="stroke:#181818;stroke-width:1;"/><text fill="#000000" font-family="sans-serif" font-size="13" lengthAdjust="spacing" textLength="62.9688" x="508.95" y="804.3869">taught by</text><text fill="#000000" font-family="sans-serif" font-size="13" lengthAdjust="spacing" textLength="8.271" x="499.6783" y="781.2236">1</text><text fill="#000000" font-family="sans-serif" font-size="13" lengthAdjust="spacing" textLength="8.271" x="499.5268" y="827.2819">1</text></g><!--reverse link Person to Student--><g class="link" data-entity-1="Person" data-entity-2="Student" data-source-line="76" data-uid="lnk17" id="link_Person_Student"><path codeLine="76" d="M612.8943,211.789 C607.6743,258.579 602.97,300.69 598.17,343.78" fill="none" id="Person-backto-Student" style="stroke:#181818;stroke-width:1;"/><polygon fill="none" points="614.89,193.9,606.9313,211.1238,618.8573,212.4543,614.89,193.9" style="stroke:#181818;stroke-width:1;"/></g><!--reverse link Person to Staff--><g class="link" data-entity-1="Person" data-entity-2="Staff" data-source-line="77" data-uid="lnk18" id="link_Person_Staff"><path codeLine="77" d="M602.6202,211.1266 C593.2102,241.3566 583.55,257.67 559.95,281.27 C534.28,306.95 513.76,290.52 483.95,311.27 C467.93,322.43 452.92,337.45 440.37,351.93" fill="none" id="Person-backto-Staff" style="stroke:#181818;stroke-width:1;"/><polygon fill="none" points="607.97,193.94,596.8913,209.3433,608.349,212.9099,607.97,193.94" style="stroke:#181818;stroke-width:1;"/></g><!--reverse link Person to Faculty--><g class="link" data-entity-1="Person" data-entity-2="Faculty" data-source-line="78" data-uid="lnk19" id="link_Person_Faculty"><path codeLine="78" d="M667.4049,210.2928 C683.0749,244.8428 692.09,270.99 699.95,311.27 C738.45,508.39 752.62,583.64 658.95,761.32 C643.74,790.16 620.27,816.29 596.32,837.98" fill="none" id="Person-backto-Faculty" style="stroke:#181818;stroke-width:1;"/><polygon fill="none" points="659.97,193.9,661.9406,212.7711,672.8691,207.8145,659.97,193.9" style="stroke:#181818;stroke-width:1;"/></g><!--SRC=[bLLDZvim4BtpAwoSs5rns6kqog6xghfIlwJy0YyU21NOaJrKYjh-zmvc78oNGCk1CUENDy_FCqhPIkV4iJmPqufVcQ2d44UqZQw5bXtCCr8f2yvnydFZyEa5pj9Y1neFGbtNCyWHU-NttRX8DcLL3LiKVFvXg3AnvjCouhzZg8NE_8H_HHCnQyav1abplWsGfo6vkN-FqbE2Tzj_igpqNaSAR_ljhNaslNLm4AMFCzS-oh9lyN8GrRW8HECzEXycjIDHFWQccmjUGn01byivXgfVe7i3EsVQW5vju5A91MFbLxMK_JhPqv1vfGNLuATXYxEBTx_OY1Pg-WPYECvRCgXkj4FRbsZizN3ZBpPQGrbpte0umDShUsfJPD1tiCxerA16tUoP5uaW5Bs-LHyQYwVRe_iWQi31plnkp_kJE9-Fs2D9uKI99ZvWUckT_C7shVRpl6UZMiFmlAj4oRIEDIsiSmMJ4pRsFELRxfqW7a6M9u8zHuUW6N6kgVNQ5FLw3KDIMVlkSIVkYqBixdTnG-y9gb5INou1myLieGPB_nCJQOXnh7ylJ5LHezw21UVt0hfpQovKawKEg9GBDDrb2uh6B-DaW3t6N2Zx-eJYxPBna3pzBefWGf8R_bRY3BFy1G00]--></g></svg>