<svg xmlns="http://www.w3.org/2000/svg" xmlns:xlink="http://www.w3.org/1999/xlink" contentStyleType="text/css" data-diagram-type="CLASS" height="730px" preserveAspectRatio="none" style="width:580px;height:730px;background:#FFFFFF;" version="1.1" viewBox="0 0 580 730" width="580px" zoomAndPan="magnify"><defs/><g><!--class School--><g class="entity" data-entity="School" data-source-line="1" data-uid="ent0002" id="entity_School"><rect fill="#F1F1F1" height="145.7813" rx="2.5" ry="2.5" style="stroke:#181818;stroke-width:0.5;" width="230.3125" x="203.24" y="7"/><ellipse cx="290.9075" cy="23" fill="#ADD1B2" rx="11" ry="11" style="stroke:#181818;stroke-width:1;"/><path d="M293.8762,28.6406 Q293.2981,28.9375 292.6575,29.0781 Q292.0169,29.2344 291.3137,29.2344 Q288.8137,29.2344 287.4856,27.5938 Q286.1731,25.9375 286.1731,22.8125 Q286.1731,19.6875 287.4856,18.0313 Q288.8137,16.375 291.3137,16.375 Q292.0169,16.375 292.6575,16.5313 Q293.3137,16.6875 293.8762,16.9844 L293.8762,19.7031 Q293.2512,19.125 292.6575,18.8594 Q292.0637,18.5781 291.4387,18.5781 Q290.095,18.5781 289.4075,19.6563 Q288.72,20.7188 288.72,22.8125 Q288.72,24.9063 289.4075,25.9844 Q290.095,27.0469 291.4387,27.0469 Q292.0637,27.0469 292.6575,26.7813 Q293.2512,26.5 293.8762,25.9219 L293.8762,28.6406 Z " fill="#000000"/><text fill="#000000" font-family="sans-serif" font-size="14" lengthAdjust="spacing" textLength="46.4775" x="311.4075" y="27.8467">School</text><line style="stroke:#181818;stroke-width:0.5;" x1="204.24" x2="432.5525" y1="39" y2="39"/><rect fill="none" height="6" style="stroke:#C82930;stroke-width:1;" width="6" x="211.24" y="49.6484"/><text fill="#000000" font-family="sans-serif" font-size="14" lengthAdjust="spacing" textLength="85.9346" x="223.24" y="55.9951">String name</text><rect fill="none" height="6" style="stroke:#C82930;stroke-width:1;" width="6" x="211.24" y="65.9453"/><text fill="#000000" font-family="sans-serif" font-size="14" lengthAdjust="spacing" textLength="101.541" x="223.24" y="72.292">String address</text><rect fill="none" height="6" style="stroke:#C82930;stroke-width:1;" width="6" x="211.24" y="82.2422"/><text fill="#000000" font-family="sans-serif" font-size="14" lengthAdjust="spacing" textLength="168.3076" x="223.24" y="88.5889">List&lt;Student&gt; students</text><rect fill="none" height="6" style="stroke:#C82930;stroke-width:1;" width="6" x="211.24" y="98.5391"/><text fill="#000000" font-family="sans-serif" font-size="14" lengthAdjust="spacing" textLength="169.9824" x="223.24" y="104.8857">List&lt;Teacher&gt; teachers</text><rect fill="none" height="6" style="stroke:#C82930;stroke-width:1;" width="6" x="211.24" y="114.8359"/><text fill="#000000" font-family="sans-serif" font-size="14" lengthAdjust="spacing" textLength="155.3535" x="223.24" y="121.1826">List&lt;Course&gt; courses</text><rect fill="none" height="6" style="stroke:#C82930;stroke-width:1;" width="6" x="211.24" y="131.1328"/><text fill="#000000" font-family="sans-serif" font-size="14" lengthAdjust="spacing" textLength="204.3125" x="223.24" y="137.4795">List&lt;Classroom&gt; classrooms</text><line style="stroke:#181818;stroke-width:0.5;" x1="204.24" x2="432.5525" y1="144.7813" y2="144.7813"/></g><!--class Student--><g class="entity" data-entity="Student" data-source-line="9" data-uid="ent0003" id="entity_Student"><rect fill="#F1F1F1" height="113.1875" rx="2.5" ry="2.5" style="stroke:#181818;stroke-width:0.5;" width="181.3535" x="107.72" y="229.78"/><ellipse cx="166.5911" cy="245.78" fill="#ADD1B2" rx="11" ry="11" style="stroke:#181818;stroke-width:1;"/><path d="M169.5598,251.4206 Q168.9817,251.7175 168.3411,251.8581 Q167.7005,252.0144 166.9973,252.0144 Q164.4973,252.0144 163.1692,250.3738 Q161.8567,248.7175 161.8567,245.5925 Q161.8567,242.4675 163.1692,240.8113 Q164.4973,239.155 166.9973,239.155 Q167.7005,239.155 168.3411,239.3113 Q168.9973,239.4675 169.5598,239.7644 L169.5598,242.4831 Q168.9348,241.905 168.3411,241.6394 Q167.7473,241.3581 167.1223,241.3581 Q165.7786,241.3581 165.0911,242.4363 Q164.4036,243.4988 164.4036,245.5925 Q164.4036,247.6863 165.0911,248.7644 Q165.7786,249.8269 167.1223,249.8269 Q167.7473,249.8269 168.3411,249.5613 Q168.9348,249.28 169.5598,248.7019 L169.5598,251.4206 Z " fill="#000000"/><text fill="#000000" font-family="sans-serif" font-size="14" lengthAdjust="spacing" textLength="55.1113" x="187.0911" y="250.6267">Student</text><line style="stroke:#181818;stroke-width:0.5;" x1="108.72" x2="288.0735" y1="261.78" y2="261.78"/><rect fill="none" height="6" style="stroke:#C82930;stroke-width:1;" width="6" x="115.72" y="272.4284"/><text fill="#000000" font-family="sans-serif" font-size="14" lengthAdjust="spacing" textLength="85.9346" x="127.72" y="278.7751">String name</text><rect fill="none" height="6" style="stroke:#C82930;stroke-width:1;" width="6" x="115.72" y="288.7253"/><text fill="#000000" font-family="sans-serif" font-size="14" lengthAdjust="spacing" textLength="112.7656" x="127.72" y="295.072">String studentId</text><rect fill="none" height="6" style="stroke:#C82930;stroke-width:1;" width="6" x="115.72" y="305.0222"/><text fill="#000000" font-family="sans-serif" font-size="14" lengthAdjust="spacing" textLength="155.3535" x="127.72" y="311.3689">List&lt;Course&gt; courses</text><rect fill="none" height="6" style="stroke:#C82930;stroke-width:1;" width="6" x="115.72" y="321.3191"/><text fill="#000000" font-family="sans-serif" font-size="14" lengthAdjust="spacing" textLength="143.083" x="127.72" y="327.6657">List&lt;Grade&gt; grades</text><line style="stroke:#181818;stroke-width:0.5;" x1="108.72" x2="288.0735" y1="334.9675" y2="334.9675"/></g><!--class Teacher--><g class="entity" data-entity="Teacher" data-source-line="15" data-uid="ent0004" id="entity_Teacher"><rect fill="#F1F1F1" height="96.8906" rx="2.5" ry="2.5" style="stroke:#181818;stroke-width:0.5;" width="181.3535" x="149.72" y="626.45"/><ellipse cx="207.805" cy="642.45" fill="#ADD1B2" rx="11" ry="11" style="stroke:#181818;stroke-width:1;"/><path d="M210.7737,648.0906 Q210.1956,648.3875 209.555,648.5281 Q208.9143,648.6844 208.2112,648.6844 Q205.7112,648.6844 204.3831,647.0438 Q203.0706,645.3875 203.0706,642.2625 Q203.0706,639.1375 204.3831,637.4813 Q205.7112,635.825 208.2112,635.825 Q208.9143,635.825 209.555,635.9813 Q210.2112,636.1375 210.7737,636.4344 L210.7737,639.1531 Q210.1487,638.575 209.555,638.3094 Q208.9612,638.0281 208.3362,638.0281 Q206.9925,638.0281 206.305,639.1063 Q205.6175,640.1688 205.6175,642.2625 Q205.6175,644.3563 206.305,645.4344 Q206.9925,646.4969 208.3362,646.4969 Q208.9612,646.4969 209.555,646.2313 Q210.1487,645.95 210.7737,645.3719 L210.7737,648.0906 Z " fill="#000000"/><text fill="#000000" font-family="sans-serif" font-size="14" lengthAdjust="spacing" textLength="56.6836" x="228.305" y="647.2967">Teacher</text><line style="stroke:#181818;stroke-width:0.5;" x1="150.72" x2="330.0735" y1="658.45" y2="658.45"/><rect fill="none" height="6" style="stroke:#C82930;stroke-width:1;" width="6" x="157.72" y="669.0984"/><text fill="#000000" font-family="sans-serif" font-size="14" lengthAdjust="spacing" textLength="85.9346" x="169.72" y="675.4451">String name</text><rect fill="none" height="6" style="stroke:#C82930;stroke-width:1;" width="6" x="157.72" y="685.3953"/><text fill="#000000" font-family="sans-serif" font-size="14" lengthAdjust="spacing" textLength="112.8682" x="169.72" y="691.742">String teacherId</text><rect fill="none" height="6" style="stroke:#C82930;stroke-width:1;" width="6" x="157.72" y="701.6922"/><text fill="#000000" font-family="sans-serif" font-size="14" lengthAdjust="spacing" textLength="155.3535" x="169.72" y="708.0389">List&lt;Course&gt; courses</text><line style="stroke:#181818;stroke-width:0.5;" x1="150.72" x2="330.0735" y1="715.3406" y2="715.3406"/></g><!--class Course--><g class="entity" data-entity="Course" data-source-line="20" data-uid="ent0005" id="entity_Course"><rect fill="#F1F1F1" height="129.4844" rx="2.5" ry="2.5" style="stroke:#181818;stroke-width:0.5;" width="194.3076" x="262.24" y="419.97"/><ellipse cx="330.7053" cy="435.97" fill="#ADD1B2" rx="11" ry="11" style="stroke:#181818;stroke-width:1;"/><path d="M333.6741,441.6106 Q333.096,441.9075 332.4553,442.0481 Q331.8147,442.2044 331.1116,442.2044 Q328.6116,442.2044 327.2835,440.5638 Q325.971,438.9075 325.971,435.7825 Q325.971,432.6575 327.2835,431.0013 Q328.6116,429.345 331.1116,429.345 Q331.8147,429.345 332.4553,429.5013 Q333.1116,429.6575 333.6741,429.9544 L333.6741,432.6731 Q333.0491,432.095 332.4553,431.8294 Q331.8616,431.5481 331.2366,431.5481 Q329.8928,431.5481 329.2053,432.6263 Q328.5178,433.6888 328.5178,435.7825 Q328.5178,437.8763 329.2053,438.9544 Q329.8928,440.0169 331.2366,440.0169 Q331.8616,440.0169 332.4553,439.7513 Q333.0491,439.47 333.6741,438.8919 L333.6741,441.6106 Z " fill="#000000"/><text fill="#000000" font-family="sans-serif" font-size="14" lengthAdjust="spacing" textLength="48.877" x="351.2053" y="440.8167">Course</text><line style="stroke:#181818;stroke-width:0.5;" x1="263.24" x2="455.5476" y1="451.97" y2="451.97"/><rect fill="none" height="6" style="stroke:#C82930;stroke-width:1;" width="6" x="270.24" y="462.6184"/><text fill="#000000" font-family="sans-serif" font-size="14" lengthAdjust="spacing" textLength="106.0459" x="282.24" y="468.9651">String courseId</text><rect fill="none" height="6" style="stroke:#C82930;stroke-width:1;" width="6" x="270.24" y="478.9153"/><text fill="#000000" font-family="sans-serif" font-size="14" lengthAdjust="spacing" textLength="134.333" x="282.24" y="485.262">String courseName</text><rect fill="none" height="6" style="stroke:#C82930;stroke-width:1;" width="6" x="270.24" y="495.2122"/><text fill="#000000" font-family="sans-serif" font-size="14" lengthAdjust="spacing" textLength="168.3076" x="282.24" y="501.5589">List&lt;Student&gt; students</text><rect fill="none" height="6" style="stroke:#C82930;stroke-width:1;" width="6" x="270.24" y="511.5091"/><text fill="#000000" font-family="sans-serif" font-size="14" lengthAdjust="spacing" textLength="114.7549" x="282.24" y="517.8557">Teacher teacher</text><rect fill="none" height="6" style="stroke:#C82930;stroke-width:1;" width="6" x="270.24" y="527.8059"/><text fill="#000000" font-family="sans-serif" font-size="14" lengthAdjust="spacing" textLength="149.085" x="282.24" y="534.1526">Classroom classroom</text><line style="stroke:#181818;stroke-width:0.5;" x1="263.24" x2="455.5476" y1="541.4544" y2="541.4544"/></g><!--class Classroom--><g class="entity" data-entity="Classroom" data-source-line="27" data-uid="ent0006" id="entity_Classroom"><rect fill="#F1F1F1" height="96.8906" rx="2.5" ry="2.5" style="stroke:#181818;stroke-width:0.5;" width="181.3535" x="391.72" y="626.45"/><ellipse cx="441.4685" cy="642.45" fill="#ADD1B2" rx="11" ry="11" style="stroke:#181818;stroke-width:1;"/><path d="M444.4373,648.0906 Q443.8592,648.3875 443.2185,648.5281 Q442.5779,648.6844 441.8748,648.6844 Q439.3748,648.6844 438.0467,647.0438 Q436.7342,645.3875 436.7342,642.2625 Q436.7342,639.1375 438.0467,637.4813 Q439.3748,635.825 441.8748,635.825 Q442.5779,635.825 443.2185,635.9813 Q443.8748,636.1375 444.4373,636.4344 L444.4373,639.1531 Q443.8123,638.575 443.2185,638.3094 Q442.6248,638.0281 441.9998,638.0281 Q440.656,638.0281 439.9685,639.1063 Q439.281,640.1688 439.281,642.2625 Q439.281,644.3563 439.9685,645.4344 Q440.656,646.4969 441.9998,646.4969 Q442.6248,646.4969 443.2185,646.2313 Q443.8123,645.95 444.4373,645.3719 L444.4373,648.0906 Z " fill="#000000"/><text fill="#000000" font-family="sans-serif" font-size="14" lengthAdjust="spacing" textLength="73.3564" x="461.9685" y="647.2967">Classroom</text><line style="stroke:#181818;stroke-width:0.5;" x1="392.72" x2="572.0735" y1="658.45" y2="658.45"/><rect fill="none" height="6" style="stroke:#C82930;stroke-width:1;" width="6" x="399.72" y="669.0984"/><text fill="#000000" font-family="sans-serif" font-size="14" lengthAdjust="spacing" textLength="95.7715" x="411.72" y="675.4451">String roomId</text><rect fill="none" height="6" style="stroke:#C82930;stroke-width:1;" width="6" x="399.72" y="685.3953"/><text fill="#000000" font-family="sans-serif" font-size="14" lengthAdjust="spacing" textLength="101.7803" x="411.72" y="691.742">String location</text><rect fill="none" height="6" style="stroke:#C82930;stroke-width:1;" width="6" x="399.72" y="701.6922"/><text fill="#000000" font-family="sans-serif" font-size="14" lengthAdjust="spacing" textLength="155.3535" x="411.72" y="708.0389">List&lt;Course&gt; courses</text><line style="stroke:#181818;stroke-width:0.5;" x1="392.72" x2="572.0735" y1="715.3406" y2="715.3406"/></g><!--class Grade--><g class="entity" data-entity="Grade" data-source-line="32" data-uid="ent0007" id="entity_Grade"><rect fill="#F1F1F1" height="96.8906" rx="2.5" ry="2.5" style="stroke:#181818;stroke-width:0.5;" width="139.0801" x="87.86" y="436.26"/><ellipse cx="131.8384" cy="452.26" fill="#ADD1B2" rx="11" ry="11" style="stroke:#181818;stroke-width:1;"/><path d="M134.8072,457.9006 Q134.229,458.1975 133.5884,458.3381 Q132.9478,458.4944 132.2447,458.4944 Q129.7447,458.4944 128.4165,456.8538 Q127.104,455.1975 127.104,452.0725 Q127.104,448.9475 128.4165,447.2913 Q129.7447,445.635 132.2447,445.635 Q132.9478,445.635 133.5884,445.7913 Q134.2447,445.9475 134.8072,446.2444 L134.8072,448.9631 Q134.1822,448.385 133.5884,448.1194 Q132.9947,447.8381 132.3697,447.8381 Q131.0259,447.8381 130.3384,448.9163 Q129.6509,449.9788 129.6509,452.0725 Q129.6509,454.1663 130.3384,455.2444 Q131.0259,456.3069 132.3697,456.3069 Q132.9947,456.3069 133.5884,456.0413 Q134.1822,455.76 134.8072,455.1819 L134.8072,457.9006 Z " fill="#000000"/><text fill="#000000" font-family="sans-serif" font-size="14" lengthAdjust="spacing" textLength="42.6836" x="152.2781" y="457.1067">Grade</text><line style="stroke:#181818;stroke-width:0.5;" x1="88.86" x2="225.9401" y1="468.26" y2="468.26"/><rect fill="none" height="6" style="stroke:#C82930;stroke-width:1;" width="6" x="95.86" y="478.9084"/><text fill="#000000" font-family="sans-serif" font-size="14" lengthAdjust="spacing" textLength="113.0801" x="107.86" y="485.2551">Student student</text><rect fill="none" height="6" style="stroke:#C82930;stroke-width:1;" width="6" x="95.86" y="495.2053"/><text fill="#000000" font-family="sans-serif" font-size="14" lengthAdjust="spacing" textLength="100.126" x="107.86" y="501.552">Course course</text><rect fill="none" height="6" style="stroke:#C82930;stroke-width:1;" width="6" x="95.86" y="511.5022"/><text fill="#000000" font-family="sans-serif" font-size="14" lengthAdjust="spacing" textLength="90.0908" x="107.86" y="517.8489">double score</text><line style="stroke:#181818;stroke-width:0.5;" x1="88.86" x2="225.9401" y1="525.1506" y2="525.1506"/></g><!--link School to Student--><g class="link" data-entity-1="School" data-entity-2="Student" data-source-line="37" data-uid="lnk8" id="link_School_Student"><path codeLine="37" d="M275.92,153.27 C261.22,178.31 244.99,205.98 231.19,229.5" fill="none" id="School-Student" style="stroke:#181818;stroke-width:1;"/><text fill="#000000" font-family="sans-serif" font-size="13" lengthAdjust="spacing" textLength="55.0278" x="259.4" y="195.8469">contains</text><text fill="#000000" font-family="sans-serif" font-size="13" lengthAdjust="spacing" textLength="8.271" x="263.648" y="172.7991">1</text><text fill="#000000" font-family="sans-serif" font-size="13" lengthAdjust="spacing" textLength="6.5" x="228.8515" y="218.7294">*</text></g><!--link School to Teacher--><g class="link" data-entity-1="School" data-entity-2="Teacher" data-source-line="38" data-uid="lnk9" id="link_School_Teacher"><path codeLine="38" d="M202.81,129.96 C160.52,153.83 116.65,186.82 90.4,229.78 C16.17,351.25 6,422.5 70.4,549.45 C87.52,583.21 118.59,610.01 149.52,629.97" fill="none" id="School-Teacher" style="stroke:#181818;stroke-width:1;"/><text fill="#000000" font-family="sans-serif" font-size="13" lengthAdjust="spacing" textLength="55.0278" x="31.4" y="386.0369">contains</text><text fill="#000000" font-family="sans-serif" font-size="13" lengthAdjust="spacing" textLength="8.271" x="186.7844" y="129.8915">1</text><text fill="#000000" font-family="sans-serif" font-size="13" lengthAdjust="spacing" textLength="6.5" x="135.1814" y="622.3737">*</text></g><!--link School to Course--><g class="link" data-entity-1="School" data-entity-2="Course" data-source-line="39" data-uid="lnk10" id="link_School_Course"><path codeLine="39" d="M325.73,152.9 C333.44,228.71 345.48,346.94 352.88,419.62" fill="none" id="School-Course" style="stroke:#181818;stroke-width:1;"/><text fill="#000000" font-family="sans-serif" font-size="13" lengthAdjust="spacing" textLength="55.0278" x="345.4" y="290.9369">contains</text><text fill="#000000" font-family="sans-serif" font-size="13" lengthAdjust="spacing" textLength="8.271" x="318.0715" y="172.8986">1</text><text fill="#000000" font-family="sans-serif" font-size="13" lengthAdjust="spacing" textLength="6.5" x="345.8668" y="408.7544">*</text></g><!--link School to Classroom--><g class="link" data-entity-1="School" data-entity-2="Classroom" data-source-line="40" data-uid="lnk11" id="link_School_Classroom"><path codeLine="40" d="M366.83,152.95 C381.65,176.79 397.23,203.86 409.4,229.78 C447.36,310.64 458.37,332.09 474.4,419.97 C487.34,490.91 487.01,574.81 485.09,626.18" fill="none" id="School-Classroom" style="stroke:#181818;stroke-width:1;"/><text fill="#000000" font-family="sans-serif" font-size="13" lengthAdjust="spacing" textLength="55.0278" x="468.4" y="386.0369">contains</text><text fill="#000000" font-family="sans-serif" font-size="13" lengthAdjust="spacing" textLength="8.271" x="363.2173" y="172.9535">1</text><text fill="#000000" font-family="sans-serif" font-size="13" lengthAdjust="spacing" textLength="6.5" x="479.082" y="615.351">*</text></g><!--link Student to Course--><g class="link" data-entity-1="Student" data-entity-2="Course" data-source-line="41" data-uid="lnk12" id="link_Student_Course"><path codeLine="41" d="M236.93,343.42 C248.01,358.79 260.36,375.27 272.4,389.97 C280.42,399.75 289.18,409.83 297.96,419.58" fill="none" id="Student-Course" style="stroke:#181818;stroke-width:1;"/><text fill="#000000" font-family="sans-serif" font-size="13" lengthAdjust="spacing" textLength="59.5156" x="273.4" y="386.0369">enrolls in</text><text fill="#000000" font-family="sans-serif" font-size="13" lengthAdjust="spacing" textLength="8.271" x="232.9386" y="362.9577">1</text><text fill="#000000" font-family="sans-serif" font-size="13" lengthAdjust="spacing" textLength="6.5" x="284.9399" y="408.71">*</text></g><!--link Student to Grade--><g class="link" data-entity-1="Student" data-entity-2="Grade" data-source-line="42" data-uid="lnk13" id="link_Student_Grade"><path codeLine="42" d="M186.7,343.37 C180.6,372.61 173.2,408.02 167.37,435.95" fill="none" id="Student-Grade" style="stroke:#181818;stroke-width:1;"/><text fill="#000000" font-family="sans-serif" font-size="13" lengthAdjust="spacing" textLength="22.9785" x="181.4" y="386.0369">has</text><text fill="#000000" font-family="sans-serif" font-size="13" lengthAdjust="spacing" textLength="8.271" x="176.9007" y="362.902">1</text><text fill="#000000" font-family="sans-serif" font-size="13" lengthAdjust="spacing" textLength="6.5" x="162.3853" y="425.1153">*</text></g><!--link Teacher to Course--><g class="link" data-entity-1="Teacher" data-entity-2="Course" data-source-line="43" data-uid="lnk14" id="link_Teacher_Course"><path codeLine="43" d="M296.63,626.13 C305.38,616.91 313.72,606.86 320.4,596.45 C329.47,582.29 336.75,565.76 342.45,549.85" fill="none" id="Teacher-Course" style="stroke:#181818;stroke-width:1;"/><text fill="#000000" font-family="sans-serif" font-size="13" lengthAdjust="spacing" textLength="51.2192" x="330.4" y="592.5169">teaches</text><text fill="#000000" font-family="sans-serif" font-size="13" lengthAdjust="spacing" textLength="8.271" x="295.9944" y="615.2939">1</text><text fill="#000000" font-family="sans-serif" font-size="13" lengthAdjust="spacing" textLength="6.5" x="334.4191" y="569.4145">*</text></g><!--link Course to Teacher--><g class="link" data-entity-1="Course" data-entity-2="Teacher" data-source-line="45" data-uid="lnk16" id="link_Course_Teacher"><path codeLine="45" d="M262,542.4 C250.49,553.21 240.38,565.56 233.4,579.45 C226.24,593.7 225.51,610.71 227.37,626.34" fill="none" id="Course-Teacher" style="stroke:#181818;stroke-width:1;"/><text fill="#000000" font-family="sans-serif" font-size="13" lengthAdjust="spacing" textLength="77.4858" x="234.4" y="592.5169">is taught by</text><text fill="#000000" font-family="sans-serif" font-size="13" lengthAdjust="spacing" textLength="8.271" x="245.931" y="543.4715">1</text><text fill="#000000" font-family="sans-serif" font-size="13" lengthAdjust="spacing" textLength="8.271" x="216.9947" y="615.5335">1</text></g><!--link Course to Classroom--><g class="link" data-entity-1="Course" data-entity-2="Classroom" data-source-line="44" data-uid="lnk15" id="link_Course_Classroom"><path codeLine="44" d="M401.38,549.94 C417.67,574.86 435.99,602.89 451.09,625.99" fill="none" id="Course-Classroom" style="stroke:#181818;stroke-width:1;"/><text fill="#000000" font-family="sans-serif" font-size="13" lengthAdjust="spacing" textLength="29.7832" x="428.4" y="592.5169">uses</text><text fill="#000000" font-family="sans-serif" font-size="13" lengthAdjust="spacing" textLength="8.271" x="397.3113" y="569.5138">1</text><text fill="#000000" font-family="sans-serif" font-size="13" lengthAdjust="spacing" textLength="8.271" x="438.3639" y="615.4864">1</text></g><!--SRC=[ZPB1QiGW48RlUOeXnq8EUrsMN7eeXT9B-WAkIYAu2euUIkcxR-AeCH1iJqx- -PtvPWpN314clbYhuQS3663oJfaP37l8-fi9uIHYb3uK-jlaWv36Zu0KLAaloVWYtGYUWYhrQeD3EGAFPvtOI9orZpMNG-n-Eqw4rAEDc43UnJ_QlJacLdtUZhrD0c-tIKErskHwf1_BaIVTFcYVkL5ZlvamGKIjh6xVt4vGSWU8JJaYQCkPLzRyFLHSNIb7xv8O2OU6fcjH4JRSjGJaricrJFhT-aiFmm3zIr_ANDTRnZDbyCIKHs-QKlEsf-oajYM4irhIEAirWZ9dDjh75HQ6NMOygq9FXbqIikLo10fuQjc7LmYUXNdnSFz-0W00]--></g></svg>