<svg xmlns="http://www.w3.org/2000/svg" xmlns:xlink="http://www.w3.org/1999/xlink" contentStyleType="text/css" data-diagram-type="CLASS" height="1176px" preserveAspectRatio="none" style="width:516px;height:1176px;background:#FFFFFF;" version="1.1" viewBox="0 0 516 1176" width="516px" zoomAndPan="magnify"><defs/><g><!--class School--><g class="entity" data-entity="School" data-source-line="1" data-uid="ent0002" id="entity_School"><rect fill="#F1F1F1" height="96.8906" rx="2.5" ry="2.5" style="stroke:#181818;stroke-width:0.5;" width="381.1816" x="127.91" y="7"/><ellipse cx="291.0121" cy="23" fill="#ADD1B2" rx="11" ry="11" style="stroke:#181818;stroke-width:1;"/><path d="M293.9808,28.6406 Q293.4027,28.9375 292.7621,29.0781 Q292.1214,29.2344 291.4183,29.2344 Q288.9183,29.2344 287.5902,27.5938 Q286.2777,25.9375 286.2777,22.8125 Q286.2777,19.6875 287.5902,18.0313 Q288.9183,16.375 291.4183,16.375 Q292.1214,16.375 292.7621,16.5313 Q293.4183,16.6875 293.9808,16.9844 L293.9808,19.7031 Q293.3558,19.125 292.7621,18.8594 Q292.1683,18.5781 291.5433,18.5781 Q290.1996,18.5781 289.5121,19.6563 Q288.8246,20.7188 288.8246,22.8125 Q288.8246,24.9063 289.5121,25.9844 Q290.1996,27.0469 291.5433,27.0469 Q292.1683,27.0469 292.7621,26.7813 Q293.3558,26.5 293.9808,25.9219 L293.9808,28.6406 Z " fill="#000000"/><text fill="#000000" font-family="sans-serif" font-size="14" lengthAdjust="spacing" textLength="46.4775" x="311.5121" y="27.8467">School</text><line style="stroke:#181818;stroke-width:0.5;" x1="128.91" x2="508.0916" y1="39" y2="39"/><rect fill="none" height="6" style="stroke:#C82930;stroke-width:1;" width="6" x="135.91" y="49.6484"/><text fill="#000000" font-family="sans-serif" font-size="14" lengthAdjust="spacing" textLength="85.9346" x="147.91" y="55.9951">String name</text><line style="stroke:#181818;stroke-width:0.5;" x1="128.91" x2="508.0916" y1="63.2969" y2="63.2969"/><ellipse cx="138.91" cy="76.9453" fill="#84BE84" rx="3" ry="3" style="stroke:#038048;stroke-width:1;"/><text fill="#000000" font-family="sans-serif" font-size="14" lengthAdjust="spacing" textLength="328.0635" x="147.91" y="80.292">void addDepartment(Department department)</text><ellipse cx="138.91" cy="93.2422" fill="#84BE84" rx="3" ry="3" style="stroke:#038048;stroke-width:1;"/><text fill="#000000" font-family="sans-serif" font-size="14" lengthAdjust="spacing" textLength="355.1816" x="147.91" y="96.5889">void removeDepartment(Department department)</text></g><!--class Department--><g class="entity" data-entity="Department" data-source-line="7" data-uid="ent0003" id="entity_Department"><rect fill="#F1F1F1" height="162.0781" rx="2.5" ry="2.5" style="stroke:#181818;stroke-width:0.5;" width="273.4746" x="181.76" y="164.89"/><ellipse cx="271.8884" cy="180.89" fill="#ADD1B2" rx="11" ry="11" style="stroke:#181818;stroke-width:1;"/><path d="M274.8572,186.5306 Q274.279,186.8275 273.6384,186.9681 Q272.9978,187.1244 272.2947,187.1244 Q269.7947,187.1244 268.4665,185.4838 Q267.154,183.8275 267.154,180.7025 Q267.154,177.5775 268.4665,175.9213 Q269.7947,174.265 272.2947,174.265 Q272.9978,174.265 273.6384,174.4213 Q274.2947,174.5775 274.8572,174.8744 L274.8572,177.5931 Q274.2322,177.015 273.6384,176.7494 Q273.0447,176.4681 272.4197,176.4681 Q271.0759,176.4681 270.3884,177.5463 Q269.7009,178.6088 269.7009,180.7025 Q269.7009,182.7963 270.3884,183.8744 Q271.0759,184.9369 272.4197,184.9369 Q273.0447,184.9369 273.6384,184.6713 Q274.2322,184.39 274.8572,183.8119 L274.8572,186.5306 Z " fill="#000000"/><text fill="#000000" font-family="sans-serif" font-size="14" lengthAdjust="spacing" textLength="84.7178" x="292.3884" y="185.7367">Department</text><line style="stroke:#181818;stroke-width:0.5;" x1="182.76" x2="454.2346" y1="196.89" y2="196.89"/><rect fill="none" height="6" style="stroke:#C82930;stroke-width:1;" width="6" x="189.76" y="207.5384"/><text fill="#000000" font-family="sans-serif" font-size="14" lengthAdjust="spacing" textLength="85.9346" x="201.76" y="213.8851">String name</text><rect fill="none" height="6" style="stroke:#C82930;stroke-width:1;" width="6" x="189.76" y="223.8353"/><text fill="#000000" font-family="sans-serif" font-size="14" lengthAdjust="spacing" textLength="140.2871" x="201.76" y="230.182">List&lt;Teacher&gt; staff</text><rect fill="none" height="6" style="stroke:#C82930;stroke-width:1;" width="6" x="189.76" y="240.1322"/><text fill="#000000" font-family="sans-serif" font-size="14" lengthAdjust="spacing" textLength="155.3535" x="201.76" y="246.4789">List&lt;Course&gt; courses</text><line style="stroke:#181818;stroke-width:0.5;" x1="182.76" x2="454.2346" y1="253.7806" y2="253.7806"/><ellipse cx="192.76" cy="267.4291" fill="#84BE84" rx="3" ry="3" style="stroke:#038048;stroke-width:1;"/><text fill="#000000" font-family="sans-serif" font-size="14" lengthAdjust="spacing" textLength="218.9209" x="201.76" y="270.7757">void addStaff(Teacher teacher)</text><ellipse cx="192.76" cy="283.7259" fill="#84BE84" rx="3" ry="3" style="stroke:#038048;stroke-width:1;"/><text fill="#000000" font-family="sans-serif" font-size="14" lengthAdjust="spacing" textLength="246.0391" x="201.76" y="287.0726">void removeStaff(Teacher teacher)</text><ellipse cx="192.76" cy="300.0228" fill="#84BE84" rx="3" ry="3" style="stroke:#038048;stroke-width:1;"/><text fill="#000000" font-family="sans-serif" font-size="14" lengthAdjust="spacing" textLength="220.3564" x="201.76" y="303.3695">void addCourse(Course course)</text><ellipse cx="192.76" cy="316.3197" fill="#84BE84" rx="3" ry="3" style="stroke:#038048;stroke-width:1;"/><text fill="#000000" font-family="sans-serif" font-size="14" lengthAdjust="spacing" textLength="247.4746" x="201.76" y="319.6664">void removeCourse(Course course)</text></g><!--class Teacher--><g class="entity" data-entity="Teacher" data-source-line="17" data-uid="ent0004" id="entity_Teacher"><rect fill="#F1F1F1" height="129.4844" rx="2.5" ry="2.5" style="stroke:#181818;stroke-width:0.5;" width="259.2559" x="88.87" y="403.97"/><ellipse cx="185.9061" cy="419.97" fill="#ADD1B2" rx="11" ry="11" style="stroke:#181818;stroke-width:1;"/><path d="M188.8749,425.6106 Q188.2968,425.9075 187.6561,426.0481 Q187.0155,426.2044 186.3124,426.2044 Q183.8124,426.2044 182.4843,424.5637 Q181.1718,422.9075 181.1718,419.7825 Q181.1718,416.6575 182.4843,415.0012 Q183.8124,413.345 186.3124,413.345 Q187.0155,413.345 187.6561,413.5012 Q188.3124,413.6575 188.8749,413.9544 L188.8749,416.6731 Q188.2499,416.095 187.6561,415.8294 Q187.0624,415.5481 186.4374,415.5481 Q185.0936,415.5481 184.4061,416.6262 Q183.7186,417.6887 183.7186,419.7825 Q183.7186,421.8762 184.4061,422.9544 Q185.0936,424.0169 186.4374,424.0169 Q187.0624,424.0169 187.6561,423.7512 Q188.2499,423.47 188.8749,422.8919 L188.8749,425.6106 Z " fill="#000000"/><text fill="#000000" font-family="sans-serif" font-size="14" lengthAdjust="spacing" textLength="56.6836" x="206.4061" y="424.8167">Teacher</text><line style="stroke:#181818;stroke-width:0.5;" x1="89.87" x2="347.1259" y1="435.97" y2="435.97"/><rect fill="none" height="6" style="stroke:#C82930;stroke-width:1;" width="6" x="96.87" y="446.6184"/><text fill="#000000" font-family="sans-serif" font-size="14" lengthAdjust="spacing" textLength="85.9346" x="108.87" y="452.9651">String name</text><rect fill="none" height="6" style="stroke:#C82930;stroke-width:1;" width="6" x="96.87" y="462.9153"/><text fill="#000000" font-family="sans-serif" font-size="14" lengthAdjust="spacing" textLength="128.3516" x="108.87" y="469.262">String employeeId</text><rect fill="none" height="6" style="stroke:#C82930;stroke-width:1;" width="6" x="96.87" y="479.2122"/><text fill="#000000" font-family="sans-serif" font-size="14" lengthAdjust="spacing" textLength="171.9922" x="108.87" y="485.5589">Department department</text><rect fill="none" height="6" style="stroke:#C82930;stroke-width:1;" width="6" x="96.87" y="495.5091"/><text fill="#000000" font-family="sans-serif" font-size="14" lengthAdjust="spacing" textLength="204.6064" x="108.87" y="501.8557">List&lt;Course&gt; coursesTaught</text><line style="stroke:#181818;stroke-width:0.5;" x1="89.87" x2="347.1259" y1="509.1575" y2="509.1575"/><ellipse cx="99.87" cy="522.8059" fill="#84BE84" rx="3" ry="3" style="stroke:#038048;stroke-width:1;"/><text fill="#000000" font-family="sans-serif" font-size="14" lengthAdjust="spacing" textLength="233.2559" x="108.87" y="526.1526">void teachCourse(Course course)</text></g><!--class Student--><g class="entity" data-entity="Student" data-source-line="25" data-uid="ent0005" id="entity_Student"><rect fill="#F1F1F1" height="113.1875" rx="2.5" ry="2.5" style="stroke:#181818;stroke-width:0.5;" width="272.5928" x="182.2" y="1056.61"/><ellipse cx="286.6907" cy="1072.61" fill="#ADD1B2" rx="11" ry="11" style="stroke:#181818;stroke-width:1;"/><path d="M289.6595,1078.2506 Q289.0813,1078.5475 288.4407,1078.6881 Q287.8001,1078.8444 287.097,1078.8444 Q284.597,1078.8444 283.2688,1077.2038 Q281.9563,1075.5475 281.9563,1072.4225 Q281.9563,1069.2975 283.2688,1067.6413 Q284.597,1065.985 287.097,1065.985 Q287.8001,1065.985 288.4407,1066.1413 Q289.097,1066.2975 289.6595,1066.5944 L289.6595,1069.3131 Q289.0345,1068.735 288.4407,1068.4694 Q287.847,1068.1881 287.222,1068.1881 Q285.8782,1068.1881 285.1907,1069.2663 Q284.5032,1070.3288 284.5032,1072.4225 Q284.5032,1074.5163 285.1907,1075.5944 Q285.8782,1076.6569 287.222,1076.6569 Q287.847,1076.6569 288.4407,1076.3913 Q289.0345,1076.11 289.6595,1075.5319 L289.6595,1078.2506 Z " fill="#000000"/><text fill="#000000" font-family="sans-serif" font-size="14" lengthAdjust="spacing" textLength="55.1113" x="307.1907" y="1077.4567">Student</text><line style="stroke:#181818;stroke-width:0.5;" x1="183.2" x2="453.7928" y1="1088.61" y2="1088.61"/><rect fill="none" height="6" style="stroke:#C82930;stroke-width:1;" width="6" x="190.2" y="1099.2584"/><text fill="#000000" font-family="sans-serif" font-size="14" lengthAdjust="spacing" textLength="85.9346" x="202.2" y="1105.6051">String name</text><rect fill="none" height="6" style="stroke:#C82930;stroke-width:1;" width="6" x="190.2" y="1115.5553"/><text fill="#000000" font-family="sans-serif" font-size="14" lengthAdjust="spacing" textLength="112.7656" x="202.2" y="1121.902">String studentId</text><rect fill="none" height="6" style="stroke:#C82930;stroke-width:1;" width="6" x="190.2" y="1131.8522"/><text fill="#000000" font-family="sans-serif" font-size="14" lengthAdjust="spacing" textLength="212.3105" x="202.2" y="1138.1989">List&lt;Enrollment&gt; enrollments</text><line style="stroke:#181818;stroke-width:0.5;" x1="183.2" x2="453.7928" y1="1145.5006" y2="1145.5006"/><ellipse cx="193.2" cy="1159.1491" fill="#84BE84" rx="3" ry="3" style="stroke:#038048;stroke-width:1;"/><text fill="#000000" font-family="sans-serif" font-size="14" lengthAdjust="spacing" textLength="246.5928" x="202.2" y="1162.4957">void enrollInCourse(Course course)</text></g><!--class Course--><g class="entity" data-entity="Course" data-source-line="32" data-uid="ent0006" id="entity_Course"><rect fill="#F1F1F1" height="210.9688" rx="2.5" ry="2.5" style="stroke:#181818;stroke-width:0.5;" width="292.6631" x="172.17" y="610.46"/><ellipse cx="289.8131" cy="626.46" fill="#ADD1B2" rx="11" ry="11" style="stroke:#181818;stroke-width:1;"/><path d="M292.7818,632.1006 Q292.2037,632.3975 291.5631,632.5381 Q290.9224,632.6944 290.2193,632.6944 Q287.7193,632.6944 286.3912,631.0537 Q285.0787,629.3975 285.0787,626.2725 Q285.0787,623.1475 286.3912,621.4912 Q287.7193,619.835 290.2193,619.835 Q290.9224,619.835 291.5631,619.9912 Q292.2193,620.1475 292.7818,620.4444 L292.7818,623.1631 Q292.1568,622.585 291.5631,622.3194 Q290.9693,622.0381 290.3443,622.0381 Q289.0006,622.0381 288.3131,623.1162 Q287.6256,624.1787 287.6256,626.2725 Q287.6256,628.3662 288.3131,629.4444 Q289.0006,630.5069 290.3443,630.5069 Q290.9693,630.5069 291.5631,630.2412 Q292.1568,629.96 292.7818,629.3819 L292.7818,632.1006 Z " fill="#000000"/><text fill="#000000" font-family="sans-serif" font-size="14" lengthAdjust="spacing" textLength="48.877" x="310.3131" y="631.3067">Course</text><line style="stroke:#181818;stroke-width:0.5;" x1="173.17" x2="463.8331" y1="642.46" y2="642.46"/><rect fill="none" height="6" style="stroke:#C82930;stroke-width:1;" width="6" x="180.17" y="653.1084"/><text fill="#000000" font-family="sans-serif" font-size="14" lengthAdjust="spacing" textLength="128.8711" x="192.17" y="659.4551">String courseCode</text><rect fill="none" height="6" style="stroke:#C82930;stroke-width:1;" width="6" x="180.17" y="669.4053"/><text fill="#000000" font-family="sans-serif" font-size="14" lengthAdjust="spacing" textLength="85.9346" x="192.17" y="675.752">String name</text><rect fill="none" height="6" style="stroke:#C82930;stroke-width:1;" width="6" x="180.17" y="685.7022"/><text fill="#000000" font-family="sans-serif" font-size="14" lengthAdjust="spacing" textLength="128.8164" x="192.17" y="692.0489">Teacher instructor</text><rect fill="none" height="6" style="stroke:#C82930;stroke-width:1;" width="6" x="180.17" y="701.9991"/><text fill="#000000" font-family="sans-serif" font-size="14" lengthAdjust="spacing" textLength="149.085" x="192.17" y="708.3457">Classroom classroom</text><rect fill="none" height="6" style="stroke:#C82930;stroke-width:1;" width="6" x="180.17" y="718.2959"/><text fill="#000000" font-family="sans-serif" font-size="14" lengthAdjust="spacing" textLength="171.9922" x="192.17" y="724.6426">Department department</text><rect fill="none" height="6" style="stroke:#C82930;stroke-width:1;" width="6" x="180.17" y="734.5928"/><text fill="#000000" font-family="sans-serif" font-size="14" lengthAdjust="spacing" textLength="212.3105" x="192.17" y="740.9395">List&lt;Enrollment&gt; enrollments</text><rect fill="none" height="6" style="stroke:#C82930;stroke-width:1;" width="6" x="180.17" y="750.8897"/><text fill="#000000" font-family="sans-serif" font-size="14" lengthAdjust="spacing" textLength="129.6367" x="192.17" y="757.2364">int maxEnrollment</text><line style="stroke:#181818;stroke-width:0.5;" x1="173.17" x2="463.8331" y1="764.5381" y2="764.5381"/><ellipse cx="183.17" cy="778.1866" fill="#84BE84" rx="3" ry="3" style="stroke:#038048;stroke-width:1;"/><text fill="#000000" font-family="sans-serif" font-size="14" lengthAdjust="spacing" textLength="239.5449" x="192.17" y="781.5332">void addStudent(Student student)</text><ellipse cx="183.17" cy="794.4834" fill="#84BE84" rx="3" ry="3" style="stroke:#038048;stroke-width:1;"/><text fill="#000000" font-family="sans-serif" font-size="14" lengthAdjust="spacing" textLength="266.6631" x="192.17" y="797.8301">void removeStudent(Student student)</text><ellipse cx="183.17" cy="810.7803" fill="#84BE84" rx="3" ry="3" style="stroke:#038048;stroke-width:1;"/><text fill="#000000" font-family="sans-serif" font-size="14" lengthAdjust="spacing" textLength="249.0742" x="192.17" y="814.127">void setInstructor(Teacher teacher)</text></g><!--class Classroom--><g class="entity" data-entity="Classroom" data-source-line="45" data-uid="ent0007" id="entity_Classroom"><rect fill="#F1F1F1" height="80.5938" rx="2.5" ry="2.5" style="stroke:#181818;stroke-width:0.5;" width="164.9951" x="7" y="898.72"/><ellipse cx="48.8374" cy="914.72" fill="#ADD1B2" rx="11" ry="11" style="stroke:#181818;stroke-width:1;"/><path d="M51.8062,920.3606 Q51.228,920.6575 50.5874,920.7981 Q49.9468,920.9544 49.2437,920.9544 Q46.7437,920.9544 45.4155,919.3138 Q44.103,917.6575 44.103,914.5325 Q44.103,911.4075 45.4155,909.7513 Q46.7437,908.095 49.2437,908.095 Q49.9468,908.095 50.5874,908.2513 Q51.2437,908.4075 51.8062,908.7044 L51.8062,911.4231 Q51.1812,910.845 50.5874,910.5794 Q49.9937,910.2981 49.3687,910.2981 Q48.0249,910.2981 47.3374,911.3763 Q46.6499,912.4388 46.6499,914.5325 Q46.6499,916.6263 47.3374,917.7044 Q48.0249,918.7669 49.3687,918.7669 Q49.9937,918.7669 50.5874,918.5013 Q51.1812,918.22 51.8062,917.6419 L51.8062,920.3606 Z " fill="#000000"/><text fill="#000000" font-family="sans-serif" font-size="14" lengthAdjust="spacing" textLength="73.3564" x="68.8013" y="919.5667">Classroom</text><line style="stroke:#181818;stroke-width:0.5;" x1="8" x2="170.9951" y1="930.72" y2="930.72"/><rect fill="none" height="6" style="stroke:#C82930;stroke-width:1;" width="6" x="15" y="941.3684"/><text fill="#000000" font-family="sans-serif" font-size="14" lengthAdjust="spacing" textLength="138.9951" x="27" y="947.7151">String roomNumber</text><rect fill="none" height="6" style="stroke:#C82930;stroke-width:1;" width="6" x="15" y="957.6653"/><text fill="#000000" font-family="sans-serif" font-size="14" lengthAdjust="spacing" textLength="81.8057" x="27" y="964.012">int capacity</text><line style="stroke:#181818;stroke-width:0.5;" x1="8" x2="170.9951" y1="971.3138" y2="971.3138"/></g><!--class Enrollment--><g class="entity" data-entity="Enrollment" data-source-line="50" data-uid="ent0008" id="entity_Enrollment"><rect fill="#F1F1F1" height="113.1875" rx="2.5" ry="2.5" style="stroke:#181818;stroke-width:0.5;" width="222.0342" x="207.48" y="882.42"/><ellipse cx="276.0308" cy="898.42" fill="#ADD1B2" rx="11" ry="11" style="stroke:#181818;stroke-width:1;"/><path d="M278.9995,904.0606 Q278.4214,904.3575 277.7808,904.4981 Q277.1402,904.6544 276.437,904.6544 Q273.937,904.6544 272.6089,903.0138 Q271.2964,901.3575 271.2964,898.2325 Q271.2964,895.1075 272.6089,893.4513 Q273.937,891.795 276.437,891.795 Q277.1402,891.795 277.7808,891.9513 Q278.437,892.1075 278.9995,892.4044 L278.9995,895.1231 Q278.3745,894.545 277.7808,894.2794 Q277.187,893.9981 276.562,893.9981 Q275.2183,893.9981 274.5308,895.0763 Q273.8433,896.1388 273.8433,898.2325 Q273.8433,900.3263 274.5308,901.4044 Q275.2183,902.4669 276.562,902.4669 Q277.187,902.4669 277.7808,902.2013 Q278.3745,901.92 278.9995,901.3419 L278.9995,904.0606 Z " fill="#000000"/><text fill="#000000" font-family="sans-serif" font-size="14" lengthAdjust="spacing" textLength="76.4326" x="296.5308" y="903.2667">Enrollment</text><line style="stroke:#181818;stroke-width:0.5;" x1="208.48" x2="428.5142" y1="914.42" y2="914.42"/><rect fill="none" height="6" style="stroke:#C82930;stroke-width:1;" width="6" x="215.48" y="925.0684"/><text fill="#000000" font-family="sans-serif" font-size="14" lengthAdjust="spacing" textLength="113.0801" x="227.48" y="931.4151">Student student</text><rect fill="none" height="6" style="stroke:#C82930;stroke-width:1;" width="6" x="215.48" y="941.3653"/><text fill="#000000" font-family="sans-serif" font-size="14" lengthAdjust="spacing" textLength="100.126" x="227.48" y="947.712">Course course</text><rect fill="none" height="6" style="stroke:#C82930;stroke-width:1;" width="6" x="215.48" y="957.6622"/><text fill="#000000" font-family="sans-serif" font-size="14" lengthAdjust="spacing" textLength="86.9531" x="227.48" y="964.0089">String grade</text><line style="stroke:#181818;stroke-width:0.5;" x1="208.48" x2="428.5142" y1="971.3106" y2="971.3106"/><ellipse cx="218.48" cy="984.9591" fill="#84BE84" rx="3" ry="3" style="stroke:#038048;stroke-width:1;"/><text fill="#000000" font-family="sans-serif" font-size="14" lengthAdjust="spacing" textLength="196.0342" x="227.48" y="988.3057">void setGrade(String grade)</text></g><!--link School to Department--><g class="link" data-entity-1="School" data-entity-2="Department" data-source-line="57" data-uid="lnk9" id="link_School_Department"><path codeLine="57" d="M318.5,104.01 C318.5,122.44 318.5,144.06 318.5,164.75" fill="none" id="School-Department" style="stroke:#181818;stroke-width:1;"/><text fill="#000000" font-family="sans-serif" font-size="13" lengthAdjust="spacing" textLength="18.9033" x="299.7389" y="153.9248">1 *</text></g><!--link Department to Teacher--><g class="link" data-entity-1="Department" data-entity-2="Teacher" data-source-line="58" data-uid="lnk10" id="link_Department_Teacher"><path codeLine="58" d="M282.11,327.26 C270.72,352.42 258.31,379.82 247.5,403.69" fill="none" id="Department-Teacher" style="stroke:#181818;stroke-width:1;"/><text fill="#000000" font-family="sans-serif" font-size="13" lengthAdjust="spacing" textLength="28.9897" x="269.5" y="370.0369">staff</text><text fill="#000000" font-family="sans-serif" font-size="13" lengthAdjust="spacing" textLength="8.271" x="270.6509" y="346.9665">1</text><text fill="#000000" font-family="sans-serif" font-size="13" lengthAdjust="spacing" textLength="23.0356" x="226.4162" y="392.832">1..*</text></g><!--link Department to Course--><g class="link" data-entity-1="Department" data-entity-2="Course" data-source-line="59" data-uid="lnk11" id="link_Department_Course"><path codeLine="59" d="M347.47,327.42 C354.88,351.7 361.79,378.63 365.5,403.97 C373.84,460.91 372.77,476.37 365.5,533.46 C362.29,558.64 356.67,585.32 350.41,610.26" fill="none" id="Department-Course" style="stroke:#181818;stroke-width:1;"/><text fill="#000000" font-family="sans-serif" font-size="13" lengthAdjust="spacing" textLength="50.229" x="372.5" y="473.2769">courses</text><text fill="#000000" font-family="sans-serif" font-size="13" lengthAdjust="spacing" textLength="8.271" x="341.6277" y="347.1403">1</text><text fill="#000000" font-family="sans-serif" font-size="13" lengthAdjust="spacing" textLength="23.0356" x="328.8462" y="599.3733">0..*</text></g><!--link Teacher to Course--><g class="link" data-entity-1="Teacher" data-entity-2="Course" data-source-line="60" data-uid="lnk12" id="link_Teacher_Course"><path codeLine="60" d="M244.64,533.82 C254.19,557.24 265.25,584.37 275.87,610.4" fill="none" id="Teacher-Course" style="stroke:#181818;stroke-width:1;"/><text fill="#000000" font-family="sans-serif" font-size="13" lengthAdjust="spacing" textLength="51.2192" x="264.5" y="576.5269">teaches</text><text fill="#000000" font-family="sans-serif" font-size="13" lengthAdjust="spacing" textLength="8.271" x="238.9374" y="553.3814">1</text><text fill="#000000" font-family="sans-serif" font-size="13" lengthAdjust="spacing" textLength="23.0356" x="249.0651" y="599.5231">0..*</text></g><!--link Course to Classroom--><g class="link" data-entity-1="Course" data-entity-2="Classroom" data-source-line="61" data-uid="lnk13" id="link_Course_Classroom"><path codeLine="61" d="M210.03,821.65 C181.71,849 152.89,876.82 130.54,898.4" fill="none" id="Course-Classroom" style="stroke:#181818;stroke-width:1;"/><text fill="#000000" font-family="sans-serif" font-size="13" lengthAdjust="spacing" textLength="8.271" x="194.4824" y="841.3274">1</text><text fill="#000000" font-family="sans-serif" font-size="13" lengthAdjust="spacing" textLength="8.271" x="128.6976" y="887.5085">1</text></g><!--link Student to Enrollment--><g class="link" data-entity-1="Student" data-entity-2="Enrollment" data-source-line="62" data-uid="lnk14" id="link_Student_Enrollment"><path codeLine="62" d="M331.23,1056.29 C332.25,1036.94 332.25,1015.27 331.23,995.92" fill="none" id="Student-Enrollment" style="stroke:#181818;stroke-width:1;"/><text fill="#000000" font-family="sans-serif" font-size="13" lengthAdjust="spacing" textLength="8.271" x="324.3109" y="1045.5146">1</text><text fill="#000000" font-family="sans-serif" font-size="13" lengthAdjust="spacing" textLength="23.0356" x="308.3824" y="1015.8445">0..*</text></g><!--link Enrollment to Student--><g class="link" data-entity-1="Enrollment" data-entity-2="Student" data-source-line="64" data-uid="lnk16" id="link_Enrollment_Student"><path codeLine="64" d="M306.47,995.92 C305.51,1015.27 305.51,1036.94 306.47,1056.29" fill="none" id="Enrollment-Student" style="stroke:#181818;stroke-width:1;"/><text fill="#000000" font-family="sans-serif" font-size="13" lengthAdjust="spacing" textLength="8.271" x="296.5332" y="1015.8445">1</text><text fill="#000000" font-family="sans-serif" font-size="13" lengthAdjust="spacing" textLength="8.271" x="296.5333" y="1045.5146">1</text></g><!--link Course to Enrollment--><g class="link" data-entity-1="Course" data-entity-2="Enrollment" data-source-line="63" data-uid="lnk15" id="link_Course_Enrollment"><path codeLine="63" d="M305.76,821.65 C305.65,842.52 306.14,863.67 307.25,882.11" fill="none" id="Course-Enrollment" style="stroke:#181818;stroke-width:1;"/><text fill="#000000" font-family="sans-serif" font-size="13" lengthAdjust="spacing" textLength="8.271" x="296.6443" y="841.3274">1</text><text fill="#000000" font-family="sans-serif" font-size="13" lengthAdjust="spacing" textLength="23.0356" x="281.4799" y="871.3358">0..*</text></g><!--link Enrollment to Course--><g class="link" data-entity-1="Enrollment" data-entity-2="Course" data-source-line="65" data-uid="lnk17" id="link_Enrollment_Course"><path codeLine="65" d="M330.41,882.11 C331.58,863.67 332.1,842.52 331.98,821.65" fill="none" id="Enrollment-Course" style="stroke:#181818;stroke-width:1;"/><text fill="#000000" font-family="sans-serif" font-size="13" lengthAdjust="spacing" textLength="8.271" x="323.3909" y="871.3358">1</text><text fill="#000000" font-family="sans-serif" font-size="13" lengthAdjust="spacing" textLength="8.271" x="324.6259" y="841.3274">1</text></g><!--SRC=[ZLJBReCm4Bpp5IjEj1LHSusgNDAgYbJrGdx0jJS94c1acwXHrNyl-8KX4Ch5rkpixkoi1Is8b93HC-S5_4JGVYbaIkJL2IfIeaQUuC9p1eInLwo9K2LMAkclmFpr8UGBBFa5brD-euXg6K5yJaeA7xbKBmSaz8nY2rAHup6Cx7WZ96w1wbEEz6STFR7PeCmv8NgPrnOphH9ps8OJjQPfVcZNP7vYYs1P5_oAk6SMdxJpZXS7qfpEAXIe1rlGbwc6tT-8HQGXUdbQmbibU55qmhQ0_ZvOYu7trO8EYuza6DgECvoLvmpEAwb4GnKNDh3hwWhEIw3kzbzdxusLjfqKbEIx9zsyGkrKugorpas-msMcHBNtezs-sTv0F-x8mmxxRCel585-Icf2StNjy_jnWW83MSxNS8F3LYT168x4ltTO4XAqQFjFIbE8r_0O1pk9WlN4wzXGLgkMuuRVsF_21F5P4wt4ZVzDkCmPcd5JHXRmNUFUrSYPCImHF89HyaqyC3XeOClEH4tDFm00]--></g></svg>