<svg xmlns="http://www.w3.org/2000/svg" xmlns:xlink="http://www.w3.org/1999/xlink" contentStyleType="text/css" data-diagram-type="CLASS" height="969px" preserveAspectRatio="none" style="width:1057px;height:969px;background:#FFFFFF;" version="1.1" viewBox="0 0 1057 969" width="1057px" zoomAndPan="magnify"><defs/><g><!--class School--><g class="entity" data-entity="School" data-source-line="1" data-uid="ent0002" id="entity_School"><rect fill="#F1F1F1" height="113.1875" rx="2.5" ry="2.5" style="stroke:#181818;stroke-width:0.5;" width="390.6152" x="515.77" y="7"/><ellipse cx="683.5888" cy="23" fill="#ADD1B2" rx="11" ry="11" style="stroke:#181818;stroke-width:1;"/><path d="M686.5576,28.6406 Q685.9795,28.9375 685.3388,29.0781 Q684.6982,29.2344 683.9951,29.2344 Q681.4951,29.2344 680.167,27.5938 Q678.8545,25.9375 678.8545,22.8125 Q678.8545,19.6875 680.167,18.0313 Q681.4951,16.375 683.9951,16.375 Q684.6982,16.375 685.3388,16.5313 Q685.9951,16.6875 686.5576,16.9844 L686.5576,19.7031 Q685.9326,19.125 685.3388,18.8594 Q684.7451,18.5781 684.1201,18.5781 Q682.7763,18.5781 682.0888,19.6563 Q681.4013,20.7188 681.4013,22.8125 Q681.4013,24.9063 682.0888,25.9844 Q682.7763,27.0469 684.1201,27.0469 Q684.7451,27.0469 685.3388,26.7813 Q685.9326,26.5 686.5576,25.9219 L686.5576,28.6406 Z " fill="#000000"/><text fill="#000000" font-family="sans-serif" font-size="14" lengthAdjust="spacing" textLength="46.4775" x="704.0888" y="27.8467">School</text><line style="stroke:#181818;stroke-width:0.5;" x1="516.77" x2="905.3852" y1="39" y2="39"/><rect fill="none" height="6" style="stroke:#C82930;stroke-width:1;" width="6" x="523.77" y="49.6484"/><text fill="#000000" font-family="sans-serif" font-size="14" lengthAdjust="spacing" textLength="90.6514" x="535.77" y="55.9951">name: String</text><rect fill="none" height="6" style="stroke:#C82930;stroke-width:1;" width="6" x="523.77" y="65.9453"/><text fill="#000000" font-family="sans-serif" font-size="14" lengthAdjust="spacing" textLength="106.2578" x="535.77" y="72.292">address: String</text><line style="stroke:#181818;stroke-width:0.5;" x1="516.77" x2="905.3852" y1="79.5938" y2="79.5938"/><ellipse cx="526.77" cy="93.2422" fill="#84BE84" rx="3" ry="3" style="stroke:#038048;stroke-width:1;"/><text fill="#000000" font-family="sans-serif" font-size="14" lengthAdjust="spacing" textLength="337.4971" x="535.77" y="96.5889">addDepartment(department: Department): void</text><ellipse cx="526.77" cy="109.5391" fill="#84BE84" rx="3" ry="3" style="stroke:#038048;stroke-width:1;"/><text fill="#000000" font-family="sans-serif" font-size="14" lengthAdjust="spacing" textLength="364.6152" x="535.77" y="112.8857">removeDepartment(department: Department): void</text></g><!--class Department--><g class="entity" data-entity="Department" data-source-line="8" data-uid="ent0003" id="entity_Department"><rect fill="#F1F1F1" height="145.7813" rx="2.5" ry="2.5" style="stroke:#181818;stroke-width:0.5;" width="305.3438" x="558.4" y="197.19"/><ellipse cx="664.463" cy="213.19" fill="#ADD1B2" rx="11" ry="11" style="stroke:#181818;stroke-width:1;"/><path d="M667.4317,218.8306 Q666.8536,219.1275 666.213,219.2681 Q665.5724,219.4244 664.8692,219.4244 Q662.3692,219.4244 661.0411,217.7837 Q659.7286,216.1275 659.7286,213.0025 Q659.7286,209.8775 661.0411,208.2212 Q662.3692,206.565 664.8692,206.565 Q665.5724,206.565 666.213,206.7212 Q666.8692,206.8775 667.4317,207.1744 L667.4317,209.8931 Q666.8067,209.315 666.213,209.0494 Q665.6192,208.7681 664.9942,208.7681 Q663.6505,208.7681 662.963,209.8462 Q662.2755,210.9087 662.2755,213.0025 Q662.2755,215.0962 662.963,216.1744 Q663.6505,217.2369 664.9942,217.2369 Q665.6192,217.2369 666.213,216.9712 Q666.8067,216.69 667.4317,216.1119 L667.4317,218.8306 Z " fill="#000000"/><text fill="#000000" font-family="sans-serif" font-size="14" lengthAdjust="spacing" textLength="84.7178" x="684.963" y="218.0367">Department</text><line style="stroke:#181818;stroke-width:0.5;" x1="559.4" x2="862.7438" y1="229.19" y2="229.19"/><rect fill="none" height="6" style="stroke:#C82930;stroke-width:1;" width="6" x="566.4" y="239.8384"/><text fill="#000000" font-family="sans-serif" font-size="14" lengthAdjust="spacing" textLength="90.6514" x="578.4" y="246.1851">name: String</text><rect fill="none" height="6" style="stroke:#C82930;stroke-width:1;" width="6" x="566.4" y="256.1353"/><text fill="#000000" font-family="sans-serif" font-size="14" lengthAdjust="spacing" textLength="100.8027" x="578.4" y="262.482">head: Teacher</text><line style="stroke:#181818;stroke-width:0.5;" x1="559.4" x2="862.7438" y1="269.7837" y2="269.7837"/><ellipse cx="569.4" cy="283.4322" fill="#84BE84" rx="3" ry="3" style="stroke:#038048;stroke-width:1;"/><text fill="#000000" font-family="sans-serif" font-size="14" lengthAdjust="spacing" textLength="229.79" x="578.4" y="286.7789">addCourse(course: Course): void</text><ellipse cx="569.4" cy="299.7291" fill="#84BE84" rx="3" ry="3" style="stroke:#038048;stroke-width:1;"/><text fill="#000000" font-family="sans-serif" font-size="14" lengthAdjust="spacing" textLength="256.9082" x="578.4" y="303.0757">removeCourse(course: Course): void</text><ellipse cx="569.4" cy="316.0259" fill="#84BE84" rx="3" ry="3" style="stroke:#038048;stroke-width:1;"/><text fill="#000000" font-family="sans-serif" font-size="14" lengthAdjust="spacing" textLength="252.2256" x="578.4" y="319.3726">addTeacher(teacher: Teacher): void</text><ellipse cx="569.4" cy="332.3228" fill="#84BE84" rx="3" ry="3" style="stroke:#038048;stroke-width:1;"/><text fill="#000000" font-family="sans-serif" font-size="14" lengthAdjust="spacing" textLength="279.3438" x="578.4" y="335.6695">removeTeacher(teacher: Teacher): void</text></g><!--class Course--><g class="entity" data-entity="Course" data-source-line="17" data-uid="ent0004" id="entity_Course"><rect fill="#F1F1F1" height="145.7813" rx="2.5" ry="2.5" style="stroke:#181818;stroke-width:0.5;" width="302.0967" x="196.03" y="419.97"/><ellipse cx="318.3899" cy="435.97" fill="#ADD1B2" rx="11" ry="11" style="stroke:#181818;stroke-width:1;"/><path d="M321.3586,441.6106 Q320.7805,441.9075 320.1399,442.0481 Q319.4992,442.2044 318.7961,442.2044 Q316.2961,442.2044 314.968,440.5637 Q313.6555,438.9075 313.6555,435.7825 Q313.6555,432.6575 314.968,431.0012 Q316.2961,429.345 318.7961,429.345 Q319.4992,429.345 320.1399,429.5012 Q320.7961,429.6575 321.3586,429.9544 L321.3586,432.6731 Q320.7336,432.095 320.1399,431.8294 Q319.5461,431.5481 318.9211,431.5481 Q317.5774,431.5481 316.8899,432.6262 Q316.2024,433.6887 316.2024,435.7825 Q316.2024,437.8762 316.8899,438.9544 Q317.5774,440.0169 318.9211,440.0169 Q319.5461,440.0169 320.1399,439.7512 Q320.7336,439.47 321.3586,438.8919 L321.3586,441.6106 Z " fill="#000000"/><text fill="#000000" font-family="sans-serif" font-size="14" lengthAdjust="spacing" textLength="48.877" x="338.8899" y="440.8167">Course</text><line style="stroke:#181818;stroke-width:0.5;" x1="197.03" x2="497.1267" y1="451.97" y2="451.97"/><rect fill="none" height="6" style="stroke:#C82930;stroke-width:1;" width="6" x="204.03" y="462.6184"/><text fill="#000000" font-family="sans-serif" font-size="14" lengthAdjust="spacing" textLength="90.6514" x="216.03" y="468.9651">name: String</text><rect fill="none" height="6" style="stroke:#C82930;stroke-width:1;" width="6" x="204.03" y="478.9153"/><text fill="#000000" font-family="sans-serif" font-size="14" lengthAdjust="spacing" textLength="84.7109" x="216.03" y="485.262">code: String</text><rect fill="none" height="6" style="stroke:#C82930;stroke-width:1;" width="6" x="204.03" y="495.2122"/><text fill="#000000" font-family="sans-serif" font-size="14" lengthAdjust="spacing" textLength="75.0449" x="216.03" y="501.5589">credits: int</text><line style="stroke:#181818;stroke-width:0.5;" x1="197.03" x2="497.1267" y1="508.8606" y2="508.8606"/><ellipse cx="207.03" cy="522.5091" fill="#84BE84" rx="3" ry="3" style="stroke:#038048;stroke-width:1;"/><text fill="#000000" font-family="sans-serif" font-size="14" lengthAdjust="spacing" textLength="248.9785" x="216.03" y="525.8557">addStudent(student: Student): void</text><ellipse cx="207.03" cy="538.8059" fill="#84BE84" rx="3" ry="3" style="stroke:#038048;stroke-width:1;"/><text fill="#000000" font-family="sans-serif" font-size="14" lengthAdjust="spacing" textLength="276.0967" x="216.03" y="542.1526">removeStudent(student: Student): void</text><ellipse cx="207.03" cy="555.1028" fill="#84BE84" rx="3" ry="3" style="stroke:#038048;stroke-width:1;"/><text fill="#000000" font-family="sans-serif" font-size="14" lengthAdjust="spacing" textLength="247.2695" x="216.03" y="558.4495">setTeacher(teacher: Teacher): void</text></g><!--class Teacher--><g class="entity" data-entity="Teacher" data-source-line="26" data-uid="ent0005" id="entity_Teacher"><rect fill="#F1F1F1" height="96.8906" rx="2.5" ry="2.5" style="stroke:#181818;stroke-width:0.5;" width="202.709" x="609.72" y="444.41"/><ellipse cx="678.4827" cy="460.41" fill="#ADD1B2" rx="11" ry="11" style="stroke:#181818;stroke-width:1;"/><path d="M681.4514,466.0506 Q680.8733,466.3475 680.2327,466.4881 Q679.5921,466.6444 678.8889,466.6444 Q676.3889,466.6444 675.0608,465.0037 Q673.7483,463.3475 673.7483,460.2225 Q673.7483,457.0975 675.0608,455.4412 Q676.3889,453.785 678.8889,453.785 Q679.5921,453.785 680.2327,453.9412 Q680.8889,454.0975 681.4514,454.3944 L681.4514,457.1131 Q680.8264,456.535 680.2327,456.2694 Q679.6389,455.9881 679.0139,455.9881 Q677.6702,455.9881 676.9827,457.0662 Q676.2952,458.1287 676.2952,460.2225 Q676.2952,462.3162 676.9827,463.3944 Q677.6702,464.4569 679.0139,464.4569 Q679.6389,464.4569 680.2327,464.1912 Q680.8264,463.91 681.4514,463.3319 L681.4514,466.0506 Z " fill="#000000"/><text fill="#000000" font-family="sans-serif" font-size="14" lengthAdjust="spacing" textLength="56.6836" x="698.9827" y="465.2567">Teacher</text><line style="stroke:#181818;stroke-width:0.5;" x1="610.72" x2="811.429" y1="476.41" y2="476.41"/><rect fill="none" height="6" style="stroke:#C82930;stroke-width:1;" width="6" x="617.72" y="487.0584"/><text fill="#000000" font-family="sans-serif" font-size="14" lengthAdjust="spacing" textLength="90.6514" x="629.72" y="493.4051">name: String</text><rect fill="none" height="6" style="stroke:#C82930;stroke-width:1;" width="6" x="617.72" y="503.3553"/><text fill="#000000" font-family="sans-serif" font-size="14" lengthAdjust="spacing" textLength="133.0684" x="629.72" y="509.702">employeeId: String</text><rect fill="none" height="6" style="stroke:#C82930;stroke-width:1;" width="6" x="617.72" y="519.6522"/><text fill="#000000" font-family="sans-serif" font-size="14" lengthAdjust="spacing" textLength="176.709" x="629.72" y="525.9989">department: Department</text><line style="stroke:#181818;stroke-width:0.5;" x1="610.72" x2="811.429" y1="533.3006" y2="533.3006"/></g><!--class Student--><g class="entity" data-entity="Student" data-source-line="32" data-uid="ent0006" id="entity_Student"><rect fill="#F1F1F1" height="129.4844" rx="2.5" ry="2.5" style="stroke:#181818;stroke-width:0.5;" width="220.1475" x="7" y="642.75"/><ellipse cx="85.2681" cy="658.75" fill="#ADD1B2" rx="11" ry="11" style="stroke:#181818;stroke-width:1;"/><path d="M88.2368,664.3906 Q87.6587,664.6875 87.0181,664.8281 Q86.3774,664.9844 85.6743,664.9844 Q83.1743,664.9844 81.8462,663.3437 Q80.5337,661.6875 80.5337,658.5625 Q80.5337,655.4375 81.8462,653.7812 Q83.1743,652.125 85.6743,652.125 Q86.3774,652.125 87.0181,652.2812 Q87.6743,652.4375 88.2368,652.7344 L88.2368,655.4531 Q87.6118,654.875 87.0181,654.6094 Q86.4243,654.3281 85.7993,654.3281 Q84.4556,654.3281 83.7681,655.4062 Q83.0806,656.4687 83.0806,658.5625 Q83.0806,660.6562 83.7681,661.7344 Q84.4556,662.7969 85.7993,662.7969 Q86.4243,662.7969 87.0181,662.5312 Q87.6118,662.25 88.2368,661.6719 L88.2368,664.3906 Z " fill="#000000"/><text fill="#000000" font-family="sans-serif" font-size="14" lengthAdjust="spacing" textLength="55.1113" x="105.7681" y="663.5967">Student</text><line style="stroke:#181818;stroke-width:0.5;" x1="8" x2="226.1475" y1="674.75" y2="674.75"/><rect fill="none" height="6" style="stroke:#C82930;stroke-width:1;" width="6" x="15" y="685.3984"/><text fill="#000000" font-family="sans-serif" font-size="14" lengthAdjust="spacing" textLength="90.6514" x="27" y="691.7451">name: String</text><rect fill="none" height="6" style="stroke:#C82930;stroke-width:1;" width="6" x="15" y="701.6953"/><text fill="#000000" font-family="sans-serif" font-size="14" lengthAdjust="spacing" textLength="117.4824" x="27" y="708.042">studentId: String</text><rect fill="none" height="6" style="stroke:#C82930;stroke-width:1;" width="6" x="15" y="717.9922"/><text fill="#000000" font-family="sans-serif" font-size="14" lengthAdjust="spacing" textLength="182.2256" x="27" y="724.3389">enrolledCourses: Course[]</text><line style="stroke:#181818;stroke-width:0.5;" x1="8" x2="226.1475" y1="731.6406" y2="731.6406"/><ellipse cx="18" cy="745.2891" fill="#84BE84" rx="3" ry="3" style="stroke:#038048;stroke-width:1;"/><text fill="#000000" font-family="sans-serif" font-size="14" lengthAdjust="spacing" textLength="194.1475" x="27" y="748.6357">enroll(course: Course): void</text><ellipse cx="18" cy="761.5859" fill="#84BE84" rx="3" ry="3" style="stroke:#038048;stroke-width:1;"/><text fill="#000000" font-family="sans-serif" font-size="14" lengthAdjust="spacing" textLength="186.6553" x="27" y="764.9326">drop(course: Course): void</text></g><!--class Classroom--><g class="entity" data-entity="Classroom" data-source-line="40" data-uid="ent0007" id="entity_Classroom"><rect fill="#F1F1F1" height="96.8906" rx="2.5" ry="2.5" style="stroke:#181818;stroke-width:0.5;" width="169.7119" x="262.22" y="659.04"/><ellipse cx="306.18" cy="675.04" fill="#ADD1B2" rx="11" ry="11" style="stroke:#181818;stroke-width:1;"/><path d="M309.1487,680.6806 Q308.5706,680.9775 307.93,681.1181 Q307.2893,681.2744 306.5862,681.2744 Q304.0862,681.2744 302.7581,679.6338 Q301.4456,677.9775 301.4456,674.8525 Q301.4456,671.7275 302.7581,670.0713 Q304.0862,668.415 306.5862,668.415 Q307.2893,668.415 307.93,668.5713 Q308.5862,668.7275 309.1487,669.0244 L309.1487,671.7431 Q308.5237,671.165 307.93,670.8994 Q307.3362,670.6181 306.7112,670.6181 Q305.3675,670.6181 304.68,671.6963 Q303.9925,672.7588 303.9925,674.8525 Q303.9925,676.9463 304.68,678.0244 Q305.3675,679.0869 306.7112,679.0869 Q307.3362,679.0869 307.93,678.8213 Q308.5237,678.54 309.1487,677.9619 L309.1487,680.6806 Z " fill="#000000"/><text fill="#000000" font-family="sans-serif" font-size="14" lengthAdjust="spacing" textLength="73.3564" x="326.6155" y="679.8867">Classroom</text><line style="stroke:#181818;stroke-width:0.5;" x1="263.22" x2="430.9319" y1="691.04" y2="691.04"/><rect fill="none" height="6" style="stroke:#C82930;stroke-width:1;" width="6" x="270.22" y="701.6884"/><text fill="#000000" font-family="sans-serif" font-size="14" lengthAdjust="spacing" textLength="143.7119" x="282.22" y="708.0351">roomNumber: String</text><rect fill="none" height="6" style="stroke:#C82930;stroke-width:1;" width="6" x="270.22" y="717.9853"/><text fill="#000000" font-family="sans-serif" font-size="14" lengthAdjust="spacing" textLength="86.5225" x="282.22" y="724.332">capacity: int</text><rect fill="none" height="6" style="stroke:#C82930;stroke-width:1;" width="6" x="270.22" y="734.2822"/><text fill="#000000" font-family="sans-serif" font-size="14" lengthAdjust="spacing" textLength="106.4971" x="282.22" y="740.6289">location: String</text><line style="stroke:#181818;stroke-width:0.5;" x1="263.22" x2="430.9319" y1="747.9306" y2="747.9306"/></g><!--class Enrollment--><g class="entity" data-entity="Enrollment" data-source-line="46" data-uid="ent0008" id="entity_Enrollment"><rect fill="#F1F1F1" height="113.1875" rx="2.5" ry="2.5" style="stroke:#181818;stroke-width:0.5;" width="178.291" x="220.93" y="849.23"/><ellipse cx="267.6092" cy="865.23" fill="#ADD1B2" rx="11" ry="11" style="stroke:#181818;stroke-width:1;"/><path d="M270.5779,870.8706 Q269.9998,871.1675 269.3592,871.3081 Q268.7186,871.4644 268.0154,871.4644 Q265.5154,871.4644 264.1873,869.8237 Q262.8748,868.1675 262.8748,865.0425 Q262.8748,861.9175 264.1873,860.2612 Q265.5154,858.605 268.0154,858.605 Q268.7186,858.605 269.3592,858.7612 Q270.0154,858.9175 270.5779,859.2144 L270.5779,861.9331 Q269.9529,861.355 269.3592,861.0894 Q268.7654,860.8081 268.1404,860.8081 Q266.7967,860.8081 266.1092,861.8862 Q265.4217,862.9487 265.4217,865.0425 Q265.4217,867.1362 266.1092,868.2144 Q266.7967,869.2769 268.1404,869.2769 Q268.7654,869.2769 269.3592,869.0112 Q269.9529,868.73 270.5779,868.1519 L270.5779,870.8706 Z " fill="#000000"/><text fill="#000000" font-family="sans-serif" font-size="14" lengthAdjust="spacing" textLength="76.4326" x="288.1092" y="870.0767">Enrollment</text><line style="stroke:#181818;stroke-width:0.5;" x1="221.93" x2="398.221" y1="881.23" y2="881.23"/><rect fill="none" height="6" style="stroke:#C82930;stroke-width:1;" width="6" x="228.93" y="891.8784"/><text fill="#000000" font-family="sans-serif" font-size="14" lengthAdjust="spacing" textLength="117.7969" x="240.93" y="898.2251">student: Student</text><rect fill="none" height="6" style="stroke:#C82930;stroke-width:1;" width="6" x="228.93" y="908.1753"/><text fill="#000000" font-family="sans-serif" font-size="14" lengthAdjust="spacing" textLength="104.8428" x="240.93" y="914.522">course: Course</text><rect fill="none" height="6" style="stroke:#C82930;stroke-width:1;" width="6" x="228.93" y="924.4722"/><text fill="#000000" font-family="sans-serif" font-size="14" lengthAdjust="spacing" textLength="152.291" x="240.93" y="930.8189">enrollmentDate: Date</text><rect fill="none" height="6" style="stroke:#C82930;stroke-width:1;" width="6" x="228.93" y="940.7691"/><text fill="#000000" font-family="sans-serif" font-size="14" lengthAdjust="spacing" textLength="91.6699" x="240.93" y="947.1157">grade: String</text><line style="stroke:#181818;stroke-width:0.5;" x1="221.93" x2="398.221" y1="954.4175" y2="954.4175"/></g><!--class AdministrativeStaff--><g class="entity" data-entity="AdministrativeStaff" data-source-line="53" data-uid="ent0009" id="entity_AdministrativeStaff"><rect fill="#F1F1F1" height="96.8906" rx="2.5" ry="2.5" style="stroke:#181818;stroke-width:0.5;" width="202.709" x="847.72" y="444.41"/><ellipse cx="878.8062" cy="460.41" fill="#ADD1B2" rx="11" ry="11" style="stroke:#181818;stroke-width:1;"/><path d="M881.7749,466.0506 Q881.1968,466.3475 880.5562,466.4881 Q879.9156,466.6444 879.2124,466.6444 Q876.7124,466.6444 875.3843,465.0037 Q874.0718,463.3475 874.0718,460.2225 Q874.0718,457.0975 875.3843,455.4412 Q876.7124,453.785 879.2124,453.785 Q879.9156,453.785 880.5562,453.9412 Q881.2124,454.0975 881.7749,454.3944 L881.7749,457.1131 Q881.1499,456.535 880.5562,456.2694 Q879.9624,455.9881 879.3374,455.9881 Q877.9937,455.9881 877.3062,457.0662 Q876.6187,458.1287 876.6187,460.2225 Q876.6187,462.3162 877.3062,463.3944 Q877.9937,464.4569 879.3374,464.4569 Q879.9624,464.4569 880.5562,464.1912 Q881.1499,463.91 881.7749,463.3319 L881.7749,466.0506 Z " fill="#000000"/><text fill="#000000" font-family="sans-serif" font-size="14" lengthAdjust="spacing" textLength="134.9619" x="896.3809" y="465.2567">AdministrativeStaff</text><line style="stroke:#181818;stroke-width:0.5;" x1="848.72" x2="1049.429" y1="476.41" y2="476.41"/><rect fill="none" height="6" style="stroke:#C82930;stroke-width:1;" width="6" x="855.72" y="487.0584"/><text fill="#000000" font-family="sans-serif" font-size="14" lengthAdjust="spacing" textLength="90.6514" x="867.72" y="493.4051">name: String</text><rect fill="none" height="6" style="stroke:#C82930;stroke-width:1;" width="6" x="855.72" y="503.3553"/><text fill="#000000" font-family="sans-serif" font-size="14" lengthAdjust="spacing" textLength="133.0684" x="867.72" y="509.702">employeeId: String</text><rect fill="none" height="6" style="stroke:#C82930;stroke-width:1;" width="6" x="855.72" y="519.6522"/><text fill="#000000" font-family="sans-serif" font-size="14" lengthAdjust="spacing" textLength="176.709" x="867.72" y="525.9989">department: Department</text><line style="stroke:#181818;stroke-width:0.5;" x1="848.72" x2="1049.429" y1="533.3006" y2="533.3006"/></g><!--link School to Department--><g class="link" data-entity-1="School" data-entity-2="Department" data-source-line="59" data-uid="lnk10" id="link_School_Department"><path codeLine="59" d="M711.07,120.47 C711.07,144 711.07,171.69 711.07,196.75" fill="none" id="School-Department" style="stroke:#181818;stroke-width:1;"/><polygon fill="#000000" points="716.07,163.7564,719.0089,154.7113,713.1311,154.7113,716.07,163.7564" style="stroke:#000000;stroke-width:1;"/><text fill="#000000" font-family="sans-serif" font-size="13" lengthAdjust="spacing" textLength="22.9785" x="725.07" y="163.2569">has</text><text fill="#000000" font-family="sans-serif" font-size="13" lengthAdjust="spacing" textLength="8.271" x="702.5981" y="140.3908">1</text><text fill="#000000" font-family="sans-serif" font-size="13" lengthAdjust="spacing" textLength="6.5" x="704.8077" y="186.1191">*</text></g><!--link Department to Course--><g class="link" data-entity-1="Department" data-entity-2="Course" data-source-line="60" data-uid="lnk11" id="link_Department_Course"><path codeLine="60" d="M591.89,343.37 C551.56,367.83 506.54,395.13 466.22,419.59" fill="none" id="Department-Course" style="stroke:#181818;stroke-width:1;"/><polygon fill="#000000" points="540.7949,384.1293,550.0527,381.9516,547.0046,376.9258,540.7949,384.1293" style="stroke:#000000;stroke-width:1;"/><text fill="#000000" font-family="sans-serif" font-size="13" lengthAdjust="spacing" textLength="37.2227" x="554.07" y="386.0369">offers</text><text fill="#000000" font-family="sans-serif" font-size="13" lengthAdjust="spacing" textLength="8.271" x="572.1621" y="363.1435">1</text><text fill="#000000" font-family="sans-serif" font-size="13" lengthAdjust="spacing" textLength="23.0356" x="453.4813" y="408.9648">1..*</text></g><!--link Department to Teacher--><g class="link" data-entity-1="Department" data-entity-2="Teacher" data-source-line="61" data-uid="lnk12" id="link_Department_Teacher"><path codeLine="61" d="M711.07,343.37 C711.07,376.44 711.07,414.72 711.07,444.13" fill="none" id="Department-Teacher" style="stroke:#181818;stroke-width:1;"/><polygon fill="#000000" points="716.07,386.5364,719.0089,377.4913,713.1311,377.4913,716.07,386.5364" style="stroke:#000000;stroke-width:1;"/><text fill="#000000" font-family="sans-serif" font-size="13" lengthAdjust="spacing" textLength="54.9453" x="725.07" y="386.0369">employs</text><text fill="#000000" font-family="sans-serif" font-size="13" lengthAdjust="spacing" textLength="8.271" x="702.7015" y="363.1435">1</text><text fill="#000000" font-family="sans-serif" font-size="13" lengthAdjust="spacing" textLength="23.0356" x="686.4547" y="433.2995">1..*</text></g><!--link Course to Student--><g class="link" data-entity-1="Course" data-entity-2="Student" data-source-line="62" data-uid="lnk13" id="link_Course_Student"><path codeLine="62" d="M268.89,566.14 C242.06,590.94 212.24,618.51 186.19,642.6" fill="none" id="Course-Student" style="stroke:#181818;stroke-width:1;"/><polygon fill="#000000" points="233.3987,607.7107,242.0353,603.7283,238.045,599.4124,233.3987,607.7107" style="stroke:#000000;stroke-width:1;"/><text fill="#000000" font-family="sans-serif" font-size="13" lengthAdjust="spacing" textLength="80.1201" x="246.07" y="608.8169">has enrolled</text><text fill="#000000" font-family="sans-serif" font-size="13" lengthAdjust="spacing" textLength="8.271" x="253.0693" y="585.9125">1</text><text fill="#000000" font-family="sans-serif" font-size="13" lengthAdjust="spacing" textLength="23.0356" x="169.4937" y="631.7563">1..*</text></g><!--link Course to Teacher--><g class="link" data-entity-1="Course" data-entity-2="Teacher" data-source-line="63" data-uid="lnk14" id="link_Course_Teacher"><path codeLine="63" d="M498.54,492.86 C535.92,492.86 575.07,492.86 609.44,492.86" fill="none" id="Course-Teacher" style="stroke:#181818;stroke-width:1;"/><polygon fill="#000000" points="525.42,481.4264,516.3749,478.4875,516.3749,484.3653,525.42,481.4264" style="stroke:#000000;stroke-width:1;"/><text fill="#000000" font-family="sans-serif" font-size="13" lengthAdjust="spacing" textLength="62.9688" x="529.42" y="485.9269">taught by</text><text fill="#000000" font-family="sans-serif" font-size="13" lengthAdjust="spacing" textLength="8.271" x="506.0767" y="489.5668">1</text><text fill="#000000" font-family="sans-serif" font-size="13" lengthAdjust="spacing" textLength="8.271" x="593.3627" y="489.3581">1</text></g><!--link Course to Classroom--><g class="link" data-entity-1="Course" data-entity-2="Classroom" data-source-line="64" data-uid="lnk15" id="link_Course_Classroom"><path codeLine="64" d="M347.07,566.14 C347.07,596.72 347.07,631.5 347.07,658.79" fill="none" id="Course-Classroom" style="stroke:#181818;stroke-width:1;"/><polygon fill="#000000" points="352.07,609.3164,355.0089,600.2713,349.1311,600.2713,352.07,609.3164" style="stroke:#000000;stroke-width:1;"/><text fill="#000000" font-family="sans-serif" font-size="13" lengthAdjust="spacing" textLength="29.7832" x="361.07" y="608.8169">uses</text><text fill="#000000" font-family="sans-serif" font-size="13" lengthAdjust="spacing" textLength="8.271" x="338.7009" y="585.9125">1</text><text fill="#000000" font-family="sans-serif" font-size="13" lengthAdjust="spacing" textLength="8.271" x="338.5257" y="647.9638">1</text></g><!--link Student to Enrollment--><g class="link" data-entity-1="Student" data-entity-2="Enrollment" data-source-line="65" data-uid="lnk16" id="link_Student_Enrollment"><path codeLine="65" d="M180,772.51 C204.2,797.13 231.62,825.02 255.02,848.82" fill="none" id="Student-Enrollment" style="stroke:#181818;stroke-width:1;"/><polygon fill="#000000" points="234.5753,814.3619,230.33,805.8515,226.1384,809.9722,234.5753,814.3619" style="stroke:#000000;stroke-width:1;"/><text fill="#000000" font-family="sans-serif" font-size="13" lengthAdjust="spacing" textLength="34.9375" x="240.07" y="815.2969">"has"</text><text fill="#000000" font-family="sans-serif" font-size="13" lengthAdjust="spacing" textLength="8.271" x="178.4599" y="792.5158">1</text><text fill="#000000" font-family="sans-serif" font-size="13" lengthAdjust="spacing" textLength="6.5" x="241.975" y="838.0336">*</text></g><!--link Course to Enrollment--><g class="link" data-entity-1="Course" data-entity-2="Enrollment" data-source-line="66" data-uid="lnk17" id="link_Course_Enrollment"><path codeLine="66" d="M409.33,566.12 C425.48,589.12 440.69,615.66 449.07,642.75 C466.1,697.72 471.72,719.33 449.07,772.23 C436.41,801.82 413.54,827.94 389.96,849.01" fill="none" id="Course-Enrollment" style="stroke:#181818;stroke-width:1;"/><polygon fill="#000000" points="468.7284,712.5447,472.2784,703.7215,466.4143,703.32,468.7284,712.5447" style="stroke:#000000;stroke-width:1;"/><text fill="#000000" font-family="sans-serif" font-size="13" lengthAdjust="spacing" textLength="65.5332" x="478.07" y="712.0569">"involves"</text><text fill="#000000" font-family="sans-serif" font-size="13" lengthAdjust="spacing" textLength="8.271" x="406.895" y="585.8906">1</text><text fill="#000000" font-family="sans-serif" font-size="13" lengthAdjust="spacing" textLength="6.5" x="393.3608" y="838.2467">*</text></g><!--link Department to AdministrativeStaff--><g class="link" data-entity-1="Department" data-entity-2="AdministrativeStaff" data-source-line="67" data-uid="lnk18" id="link_Department_AdministrativeStaff"><path codeLine="67" d="M789,343.37 C824.66,376.44 865.92,414.72 897.62,444.13" fill="none" id="Department-AdministrativeStaff" style="stroke:#181818;stroke-width:1;"/><polygon fill="#000000" points="846.7357,384.9368,842.1031,376.6308,838.1057,380.94,846.7357,384.9368" style="stroke:#000000;stroke-width:1;"/><text fill="#000000" font-family="sans-serif" font-size="13" lengthAdjust="spacing" textLength="71.8174" x="852.07" y="386.0369">"manages"</text><text fill="#000000" font-family="sans-serif" font-size="13" lengthAdjust="spacing" textLength="23.0356" x="772.3331" y="363.1435">0..*</text><text fill="#000000" font-family="sans-serif" font-size="13" lengthAdjust="spacing" textLength="23.0356" x="865.7695" y="433.2995">1..*</text></g><!--SRC=[hLInReCm4DtvYXDJsegeMJrKgfeENRgaMzN1nGTO0XlP1Ycg-k-rmM08b6Pe1XlEx-xUuvsJbbHhEAM5b2LyHM1_2GXQ8O6JKLpaFaGPKwZrB7hdeaUigJ8L2hDZuoE14BuXq4hEV8R2IhPuTT9t5AKTmt2qnR90oWYy8KqBL87ZasoKnbtQRGJwrpLULm1jELz_P_fzRBXMyI_iAB3ljIKkbMmHKiYuiQvmOGA_ascO-xIwtrrEzx36xpgiHdEr41_VKe9LNSepuWkxE5WVXb3RazkgxOKiIgDGiYpHpu8Up7t_0A-n1snwpvIiVm447zsgfAn6akxbjQa-tKURkqThcd9p3lObKCgK6Yx521qBFtVyPZVWqhHnKAOCP_fT-f4QU-XMVvGhEfciiU4ZgxZWsYXBo0qApR9_DjN_xSI76984ujjuUiq955J3GpG93S33Vc-n_iOGa5c6QXCwp2JnB1tOfy-1mu3rpOUPkK1tQoXfQ9CN1ZxFAqNZoJmGQEpWMT3GPA9xOYw1sFQEbyKMC2vQMRROOQVIxpifGTIQaJQzeeBcNVOF]--></g></svg>