<svg xmlns="http://www.w3.org/2000/svg" xmlns:xlink="http://www.w3.org/1999/xlink" contentStyleType="text/css" data-diagram-type="CLASS" height="750px" preserveAspectRatio="none" style="width:1157px;height:750px;background:#FFFFFF;" version="1.1" viewBox="0 0 1157 750" width="1157px" zoomAndPan="magnify"><defs/><g><!--class Patient--><g class="entity" data-entity="Patient" data-source-line="1" data-uid="ent0002" id="entity_Patient"><rect fill="#F1F1F1" height="194.6719" rx="2.5" ry="2.5" style="stroke:#181818;stroke-width:0.5;" width="307.9141" x="125.91" y="261.67"/><ellipse cx="250.929" cy="277.67" fill="#ADD1B2" rx="11" ry="11" style="stroke:#181818;stroke-width:1;"/><path d="M253.8978,283.3106 Q253.3197,283.6075 252.679,283.7481 Q252.0384,283.9044 251.3353,283.9044 Q248.8353,283.9044 247.5072,282.2638 Q246.1947,280.6075 246.1947,277.4825 Q246.1947,274.3575 247.5072,272.7013 Q248.8353,271.045 251.3353,271.045 Q252.0384,271.045 252.679,271.2013 Q253.3353,271.3575 253.8978,271.6544 L253.8978,274.3731 Q253.2728,273.795 252.679,273.5294 Q252.0853,273.2481 251.4603,273.2481 Q250.1165,273.2481 249.429,274.3263 Q248.7415,275.3888 248.7415,277.4825 Q248.7415,279.5763 249.429,280.6544 Q250.1165,281.7169 251.4603,281.7169 Q252.0853,281.7169 252.679,281.4513 Q253.2728,281.17 253.8978,280.5919 L253.8978,283.3106 Z " fill="#000000"/><text fill="#000000" font-family="sans-serif" font-size="14" lengthAdjust="spacing" textLength="49.376" x="271.429" y="282.5167">Patient</text><line style="stroke:#181818;stroke-width:0.5;" x1="126.91" x2="432.8241" y1="293.67" y2="293.67"/><rect fill="none" height="6" style="stroke:#C82930;stroke-width:1;" width="6" x="133.91" y="304.3184"/><text fill="#000000" font-family="sans-serif" font-size="14" lengthAdjust="spacing" textLength="115.6777" x="145.91" y="310.6651">patientID: String</text><rect fill="none" height="6" style="stroke:#C82930;stroke-width:1;" width="6" x="133.91" y="320.6153"/><text fill="#000000" font-family="sans-serif" font-size="14" lengthAdjust="spacing" textLength="90.6514" x="145.91" y="326.962">name: String</text><rect fill="none" height="6" style="stroke:#C82930;stroke-width:1;" width="6" x="133.91" y="336.9122"/><text fill="#000000" font-family="sans-serif" font-size="14" lengthAdjust="spacing" textLength="123.7578" x="145.91" y="343.2589">dateOfBirth: Date</text><rect fill="none" height="6" style="stroke:#C82930;stroke-width:1;" width="6" x="133.91" y="353.2091"/><text fill="#000000" font-family="sans-serif" font-size="14" lengthAdjust="spacing" textLength="129.835" x="145.91" y="359.5557">contactInfo: String</text><line style="stroke:#181818;stroke-width:0.5;" x1="126.91" x2="432.8241" y1="366.8575" y2="366.8575"/><ellipse cx="136.91" cy="380.5059" fill="#84BE84" rx="3" ry="3" style="stroke:#038048;stroke-width:1;"/><text fill="#000000" font-family="sans-serif" font-size="14" lengthAdjust="spacing" textLength="149.1465" x="145.91" y="383.8526">getPatientID(): String</text><ellipse cx="136.91" cy="396.8028" fill="#84BE84" rx="3" ry="3" style="stroke:#038048;stroke-width:1;"/><text fill="#000000" font-family="sans-serif" font-size="14" lengthAdjust="spacing" textLength="126.1641" x="145.91" y="400.1495">getName(): String</text><ellipse cx="136.91" cy="413.0997" fill="#84BE84" rx="3" ry="3" style="stroke:#038048;stroke-width:1;"/><text fill="#000000" font-family="sans-serif" font-size="14" lengthAdjust="spacing" textLength="159.5645" x="145.91" y="416.4464">getDateOfBirth(): Date</text><ellipse cx="136.91" cy="429.3966" fill="#84BE84" rx="3" ry="3" style="stroke:#038048;stroke-width:1;"/><text fill="#000000" font-family="sans-serif" font-size="14" lengthAdjust="spacing" textLength="165.8262" x="145.91" y="432.7432">getContactInfo(): String</text><ellipse cx="136.91" cy="445.6934" fill="#84BE84" rx="3" ry="3" style="stroke:#038048;stroke-width:1;"/><text fill="#000000" font-family="sans-serif" font-size="14" lengthAdjust="spacing" textLength="281.9141" x="145.91" y="449.0401">setContactInfo(contactInfo: String): void</text></g><!--class Doctor--><g class="entity" data-entity="Doctor" data-source-line="13" data-uid="ent0003" id="entity_Doctor"><rect fill="#F1F1F1" height="194.6719" rx="2.5" ry="2.5" style="stroke:#181818;stroke-width:0.5;" width="307.9141" x="495.91" y="261.67"/><ellipse cx="622.1903" cy="277.67" fill="#ADD1B2" rx="11" ry="11" style="stroke:#181818;stroke-width:1;"/><path d="M625.159,283.3106 Q624.5809,283.6075 623.9403,283.7481 Q623.2996,283.9044 622.5965,283.9044 Q620.0965,283.9044 618.7684,282.2638 Q617.4559,280.6075 617.4559,277.4825 Q617.4559,274.3575 618.7684,272.7013 Q620.0965,271.045 622.5965,271.045 Q623.2996,271.045 623.9403,271.2013 Q624.5965,271.3575 625.159,271.6544 L625.159,274.3731 Q624.534,273.795 623.9403,273.5294 Q623.3465,273.2481 622.7215,273.2481 Q621.3778,273.2481 620.6903,274.3263 Q620.0028,275.3888 620.0028,277.4825 Q620.0028,279.5763 620.6903,280.6544 Q621.3778,281.7169 622.7215,281.7169 Q623.3465,281.7169 623.9403,281.4513 Q624.534,281.17 625.159,280.5919 L625.159,283.3106 Z " fill="#000000"/><text fill="#000000" font-family="sans-serif" font-size="14" lengthAdjust="spacing" textLength="46.8535" x="642.6903" y="282.5167">Doctor</text><line style="stroke:#181818;stroke-width:0.5;" x1="496.91" x2="802.8241" y1="293.67" y2="293.67"/><rect fill="none" height="6" style="stroke:#C82930;stroke-width:1;" width="6" x="503.91" y="304.3184"/><text fill="#000000" font-family="sans-serif" font-size="14" lengthAdjust="spacing" textLength="110.8174" x="515.91" y="310.6651">doctorID: String</text><rect fill="none" height="6" style="stroke:#C82930;stroke-width:1;" width="6" x="503.91" y="320.6153"/><text fill="#000000" font-family="sans-serif" font-size="14" lengthAdjust="spacing" textLength="90.6514" x="515.91" y="326.962">name: String</text><rect fill="none" height="6" style="stroke:#C82930;stroke-width:1;" width="6" x="503.91" y="336.9122"/><text fill="#000000" font-family="sans-serif" font-size="14" lengthAdjust="spacing" textLength="146.4326" x="515.91" y="343.2589">specialization: String</text><rect fill="none" height="6" style="stroke:#C82930;stroke-width:1;" width="6" x="503.91" y="353.2091"/><text fill="#000000" font-family="sans-serif" font-size="14" lengthAdjust="spacing" textLength="129.835" x="515.91" y="359.5557">contactInfo: String</text><line style="stroke:#181818;stroke-width:0.5;" x1="496.91" x2="802.8241" y1="366.8575" y2="366.8575"/><ellipse cx="506.91" cy="380.5059" fill="#84BE84" rx="3" ry="3" style="stroke:#038048;stroke-width:1;"/><text fill="#000000" font-family="sans-serif" font-size="14" lengthAdjust="spacing" textLength="146.624" x="515.91" y="383.8526">getDoctorID(): String</text><ellipse cx="506.91" cy="396.8028" fill="#84BE84" rx="3" ry="3" style="stroke:#038048;stroke-width:1;"/><text fill="#000000" font-family="sans-serif" font-size="14" lengthAdjust="spacing" textLength="126.1641" x="515.91" y="400.1495">getName(): String</text><ellipse cx="506.91" cy="413.0997" fill="#84BE84" rx="3" ry="3" style="stroke:#038048;stroke-width:1;"/><text fill="#000000" font-family="sans-serif" font-size="14" lengthAdjust="spacing" textLength="181.9385" x="515.91" y="416.4464">getSpecialization(): String</text><ellipse cx="506.91" cy="429.3966" fill="#84BE84" rx="3" ry="3" style="stroke:#038048;stroke-width:1;"/><text fill="#000000" font-family="sans-serif" font-size="14" lengthAdjust="spacing" textLength="165.8262" x="515.91" y="432.7432">getContactInfo(): String</text><ellipse cx="506.91" cy="445.6934" fill="#84BE84" rx="3" ry="3" style="stroke:#038048;stroke-width:1;"/><text fill="#000000" font-family="sans-serif" font-size="14" lengthAdjust="spacing" textLength="281.9141" x="515.91" y="449.0401">setContactInfo(contactInfo: String): void</text></g><!--class Appointment--><g class="entity" data-entity="Appointment" data-source-line="25" data-uid="ent0004" id="entity_Appointment"><rect fill="#F1F1F1" height="227.2656" rx="2.5" ry="2.5" style="stroke:#181818;stroke-width:0.5;" width="439.7246" x="7" y="516.34"/><ellipse cx="177.2217" cy="532.34" fill="#ADD1B2" rx="11" ry="11" style="stroke:#181818;stroke-width:1;"/><path d="M180.1904,537.9806 Q179.6123,538.2775 178.9717,538.4181 Q178.3311,538.5744 177.6279,538.5744 Q175.1279,538.5744 173.7998,536.9338 Q172.4873,535.2775 172.4873,532.1525 Q172.4873,529.0275 173.7998,527.3713 Q175.1279,525.715 177.6279,525.715 Q178.3311,525.715 178.9717,525.8713 Q179.6279,526.0275 180.1904,526.3244 L180.1904,529.0431 Q179.5654,528.465 178.9717,528.1994 Q178.3779,527.9181 177.7529,527.9181 Q176.4092,527.9181 175.7217,528.9963 Q175.0342,530.0588 175.0342,532.1525 Q175.0342,534.2463 175.7217,535.3244 Q176.4092,536.3869 177.7529,536.3869 Q178.3779,536.3869 178.9717,536.1213 Q179.5654,535.84 180.1904,535.2619 L180.1904,537.9806 Z " fill="#000000"/><text fill="#000000" font-family="sans-serif" font-size="14" lengthAdjust="spacing" textLength="90.7813" x="197.7217" y="537.1867">Appointment</text><line style="stroke:#181818;stroke-width:0.5;" x1="8" x2="445.7246" y1="548.34" y2="548.34"/><rect fill="none" height="6" style="stroke:#C82930;stroke-width:1;" width="6" x="15" y="558.9884"/><text fill="#000000" font-family="sans-serif" font-size="14" lengthAdjust="spacing" textLength="155.6406" x="27" y="565.3351">appointmentID: String</text><rect fill="none" height="6" style="stroke:#C82930;stroke-width:1;" width="6" x="15" y="575.2853"/><text fill="#000000" font-family="sans-serif" font-size="14" lengthAdjust="spacing" textLength="143.582" x="27" y="581.632">dateTime: DateTime</text><rect fill="none" height="6" style="stroke:#C82930;stroke-width:1;" width="6" x="15" y="591.5822"/><text fill="#000000" font-family="sans-serif" font-size="14" lengthAdjust="spacing" textLength="89.7832" x="27" y="597.9289">notes: String</text><line style="stroke:#181818;stroke-width:0.5;" x1="8" x2="445.7246" y1="605.2306" y2="605.2306"/><rect fill="#F24D5C" height="6" style="stroke:#C82930;stroke-width:1;" width="6" x="15" y="615.8791"/><text fill="#000000" font-family="sans-serif" font-size="14" lengthAdjust="spacing" textLength="413.7246" x="27" y="622.2257">status: String (e.g., "scheduled", "completed", "cancelled")</text><ellipse cx="18" cy="635.1759" fill="#84BE84" rx="3" ry="3" style="stroke:#038048;stroke-width:1;"/><text fill="#000000" font-family="sans-serif" font-size="14" lengthAdjust="spacing" textLength="190.5518" x="27" y="638.5226">getAppointmentID(): String</text><ellipse cx="18" cy="651.4728" fill="#84BE84" rx="3" ry="3" style="stroke:#038048;stroke-width:1;"/><text fill="#000000" font-family="sans-serif" font-size="14" lengthAdjust="spacing" textLength="179.3887" x="27" y="654.8195">getDateTime(): DateTime</text><ellipse cx="18" cy="667.7697" fill="#84BE84" rx="3" ry="3" style="stroke:#038048;stroke-width:1;"/><text fill="#000000" font-family="sans-serif" font-size="14" lengthAdjust="spacing" textLength="129.4727" x="27" y="671.1164">getStatus(): String</text><ellipse cx="18" cy="684.0666" fill="#84BE84" rx="3" ry="3" style="stroke:#038048;stroke-width:1;"/><text fill="#000000" font-family="sans-serif" font-size="14" lengthAdjust="spacing" textLength="125.2959" x="27" y="687.4132">getNotes(): String</text><ellipse cx="18" cy="700.3634" fill="#84BE84" rx="3" ry="3" style="stroke:#038048;stroke-width:1;"/><text fill="#000000" font-family="sans-serif" font-size="14" lengthAdjust="spacing" textLength="282.8506" x="27" y="703.7101">setDateTime(dateTime: DateTime): void</text><ellipse cx="18" cy="716.6603" fill="#84BE84" rx="3" ry="3" style="stroke:#038048;stroke-width:1;"/><text fill="#000000" font-family="sans-serif" font-size="14" lengthAdjust="spacing" textLength="209.6924" x="27" y="720.007">setStatus(status: String): void</text><ellipse cx="18" cy="732.9572" fill="#84BE84" rx="3" ry="3" style="stroke:#038048;stroke-width:1;"/><text fill="#000000" font-family="sans-serif" font-size="14" lengthAdjust="spacing" textLength="201.332" x="27" y="736.3039">setNotes(notes: String): void</text></g><!--class Clinic--><g class="entity" data-entity="Clinic" data-source-line="39" data-uid="ent0005" id="entity_Clinic"><rect fill="#F1F1F1" height="194.6719" rx="2.5" ry="2.5" style="stroke:#181818;stroke-width:0.5;" width="347.7197" x="648" y="7"/><ellipse cx="798.6025" cy="23" fill="#ADD1B2" rx="11" ry="11" style="stroke:#181818;stroke-width:1;"/><path d="M801.5713,28.6406 Q800.9932,28.9375 800.3525,29.0781 Q799.7119,29.2344 799.0088,29.2344 Q796.5088,29.2344 795.1807,27.5938 Q793.8682,25.9375 793.8682,22.8125 Q793.8682,19.6875 795.1807,18.0313 Q796.5088,16.375 799.0088,16.375 Q799.7119,16.375 800.3525,16.5313 Q801.0088,16.6875 801.5713,16.9844 L801.5713,19.7031 Q800.9463,19.125 800.3525,18.8594 Q799.7588,18.5781 799.1338,18.5781 Q797.79,18.5781 797.1025,19.6563 Q796.415,20.7188 796.415,22.8125 Q796.415,24.9063 797.1025,25.9844 Q797.79,27.0469 799.1338,27.0469 Q799.7588,27.0469 800.3525,26.7813 Q800.9463,26.5 801.5713,25.9219 L801.5713,28.6406 Z " fill="#000000"/><text fill="#000000" font-family="sans-serif" font-size="14" lengthAdjust="spacing" textLength="38.0146" x="819.1025" y="27.8467">Clinic</text><line style="stroke:#181818;stroke-width:0.5;" x1="649" x2="994.7197" y1="39" y2="39"/><rect fill="none" height="6" style="stroke:#C82930;stroke-width:1;" width="6" x="656" y="49.6484"/><text fill="#000000" font-family="sans-serif" font-size="14" lengthAdjust="spacing" textLength="101.7939" x="668" y="55.9951">clinicID: String</text><rect fill="none" height="6" style="stroke:#C82930;stroke-width:1;" width="6" x="656" y="65.9453"/><text fill="#000000" font-family="sans-serif" font-size="14" lengthAdjust="spacing" textLength="90.6514" x="668" y="72.292">name: String</text><rect fill="none" height="6" style="stroke:#C82930;stroke-width:1;" width="6" x="656" y="82.2422"/><text fill="#000000" font-family="sans-serif" font-size="14" lengthAdjust="spacing" textLength="106.2578" x="668" y="88.5889">address: String</text><rect fill="none" height="6" style="stroke:#C82930;stroke-width:1;" width="6" x="656" y="98.5391"/><text fill="#000000" font-family="sans-serif" font-size="14" lengthAdjust="spacing" textLength="150.999" x="668" y="104.8857">phoneNumber: String</text><line style="stroke:#181818;stroke-width:0.5;" x1="649" x2="994.7197" y1="112.1875" y2="112.1875"/><ellipse cx="659" cy="125.8359" fill="#84BE84" rx="3" ry="3" style="stroke:#038048;stroke-width:1;"/><text fill="#000000" font-family="sans-serif" font-size="14" lengthAdjust="spacing" textLength="137.7852" x="668" y="129.1826">getClinicID(): String</text><ellipse cx="659" cy="142.1328" fill="#84BE84" rx="3" ry="3" style="stroke:#038048;stroke-width:1;"/><text fill="#000000" font-family="sans-serif" font-size="14" lengthAdjust="spacing" textLength="126.1641" x="668" y="145.4795">getName(): String</text><ellipse cx="659" cy="158.4297" fill="#84BE84" rx="3" ry="3" style="stroke:#038048;stroke-width:1;"/><text fill="#000000" font-family="sans-serif" font-size="14" lengthAdjust="spacing" textLength="141.1689" x="668" y="161.7764">getAddress(): String</text><ellipse cx="659" cy="174.7266" fill="#84BE84" rx="3" ry="3" style="stroke:#038048;stroke-width:1;"/><text fill="#000000" font-family="sans-serif" font-size="14" lengthAdjust="spacing" textLength="184.4678" x="668" y="178.0732">getPhoneNumber(): String</text><ellipse cx="659" cy="191.0234" fill="#84BE84" rx="3" ry="3" style="stroke:#038048;stroke-width:1;"/><text fill="#000000" font-family="sans-serif" font-size="14" lengthAdjust="spacing" textLength="321.7197" x="668" y="194.3701">setPhoneNumber(phoneNumber: String): void</text></g><!--class MedicalRecord--><g class="entity" data-entity="MedicalRecord" data-source-line="51" data-uid="ent0006" id="entity_MedicalRecord"><rect fill="#F1F1F1" height="227.2656" rx="2.5" ry="2.5" style="stroke:#181818;stroke-width:0.5;" width="389.2754" x="482.22" y="516.34"/><ellipse cx="621.1673" cy="532.34" fill="#ADD1B2" rx="11" ry="11" style="stroke:#181818;stroke-width:1;"/><path d="M624.136,537.9806 Q623.5579,538.2775 622.9173,538.4181 Q622.2766,538.5744 621.5735,538.5744 Q619.0735,538.5744 617.7454,536.9338 Q616.4329,535.2775 616.4329,532.1525 Q616.4329,529.0275 617.7454,527.3713 Q619.0735,525.715 621.5735,525.715 Q622.2766,525.715 622.9173,525.8713 Q623.5735,526.0275 624.136,526.3244 L624.136,529.0431 Q623.511,528.465 622.9173,528.1994 Q622.3235,527.9181 621.6985,527.9181 Q620.3548,527.9181 619.6673,528.9963 Q618.9798,530.0588 618.9798,532.1525 Q618.9798,534.2463 619.6673,535.3244 Q620.3548,536.3869 621.6985,536.3869 Q622.3235,536.3869 622.9173,536.1213 Q623.511,535.84 624.136,535.2619 L624.136,537.9806 Z " fill="#000000"/><text fill="#000000" font-family="sans-serif" font-size="14" lengthAdjust="spacing" textLength="102.8809" x="641.6673" y="537.1867">MedicalRecord</text><line style="stroke:#181818;stroke-width:0.5;" x1="483.22" x2="870.4954" y1="548.34" y2="548.34"/><rect fill="none" height="6" style="stroke:#C82930;stroke-width:1;" width="6" x="490.22" y="558.9884"/><text fill="#000000" font-family="sans-serif" font-size="14" lengthAdjust="spacing" textLength="111.1318" x="502.22" y="565.3351">recordID: String</text><rect fill="none" height="6" style="stroke:#C82930;stroke-width:1;" width="6" x="490.22" y="575.2853"/><text fill="#000000" font-family="sans-serif" font-size="14" lengthAdjust="spacing" textLength="143.582" x="502.22" y="581.632">dateTime: DateTime</text><rect fill="none" height="6" style="stroke:#C82930;stroke-width:1;" width="6" x="490.22" y="591.5822"/><text fill="#000000" font-family="sans-serif" font-size="14" lengthAdjust="spacing" textLength="117.1064" x="502.22" y="597.9289">diagnosis: String</text><rect fill="none" height="6" style="stroke:#C82930;stroke-width:1;" width="6" x="490.22" y="607.8791"/><text fill="#000000" font-family="sans-serif" font-size="14" lengthAdjust="spacing" textLength="170.0234" x="502.22" y="614.2257">treatmentDetails: String</text><line style="stroke:#181818;stroke-width:0.5;" x1="483.22" x2="870.4954" y1="621.5275" y2="621.5275"/><ellipse cx="493.22" cy="635.1759" fill="#84BE84" rx="3" ry="3" style="stroke:#038048;stroke-width:1;"/><text fill="#000000" font-family="sans-serif" font-size="14" lengthAdjust="spacing" textLength="149.0166" x="502.22" y="638.5226">getRecordID(): String</text><ellipse cx="493.22" cy="651.4728" fill="#84BE84" rx="3" ry="3" style="stroke:#038048;stroke-width:1;"/><text fill="#000000" font-family="sans-serif" font-size="14" lengthAdjust="spacing" textLength="179.3887" x="502.22" y="654.8195">getDateTime(): DateTime</text><ellipse cx="493.22" cy="667.7697" fill="#84BE84" rx="3" ry="3" style="stroke:#038048;stroke-width:1;"/><text fill="#000000" font-family="sans-serif" font-size="14" lengthAdjust="spacing" textLength="152.9131" x="502.22" y="671.1164">getDiagnosis(): String</text><ellipse cx="493.22" cy="684.0666" fill="#84BE84" rx="3" ry="3" style="stroke:#038048;stroke-width:1;"/><text fill="#000000" font-family="sans-serif" font-size="14" lengthAdjust="spacing" textLength="206.999" x="502.22" y="687.4132">getTreatmentDetails(): String</text><ellipse cx="493.22" cy="700.3634" fill="#84BE84" rx="3" ry="3" style="stroke:#038048;stroke-width:1;"/><text fill="#000000" font-family="sans-serif" font-size="14" lengthAdjust="spacing" textLength="282.8506" x="502.22" y="703.7101">setDateTime(dateTime: DateTime): void</text><ellipse cx="493.22" cy="716.6603" fill="#84BE84" rx="3" ry="3" style="stroke:#038048;stroke-width:1;"/><text fill="#000000" font-family="sans-serif" font-size="14" lengthAdjust="spacing" textLength="256.2725" x="502.22" y="720.007">setDiagnosis(diagnosis: String): void</text><ellipse cx="493.22" cy="732.9572" fill="#84BE84" rx="3" ry="3" style="stroke:#038048;stroke-width:1;"/><text fill="#000000" font-family="sans-serif" font-size="14" lengthAdjust="spacing" textLength="363.2754" x="502.22" y="736.3039">setTreatmentDetails(treatmentDetails: String): void</text></g><!--class Staff--><g class="entity" data-entity="Staff" data-source-line="65" data-uid="ent0007" id="entity_Staff"><rect fill="#F1F1F1" height="194.6719" rx="2.5" ry="2.5" style="stroke:#181818;stroke-width:0.5;" width="311.5713" x="839.08" y="261.67"/><ellipse cx="974.2094" cy="277.67" fill="#ADD1B2" rx="11" ry="11" style="stroke:#181818;stroke-width:1;"/><path d="M977.1781,283.3106 Q976.6,283.6075 975.9594,283.7481 Q975.3188,283.9044 974.6156,283.9044 Q972.1156,283.9044 970.7875,282.2638 Q969.475,280.6075 969.475,277.4825 Q969.475,274.3575 970.7875,272.7013 Q972.1156,271.045 974.6156,271.045 Q975.3188,271.045 975.9594,271.2013 Q976.6156,271.3575 977.1781,271.6544 L977.1781,274.3731 Q976.5531,273.795 975.9594,273.5294 Q975.3656,273.2481 974.7406,273.2481 Q973.3969,273.2481 972.7094,274.3263 Q972.0219,275.3888 972.0219,277.4825 Q972.0219,279.5763 972.7094,280.6544 Q973.3969,281.7169 974.7406,281.7169 Q975.3656,281.7169 975.9594,281.4513 Q976.5531,281.17 977.1781,280.5919 L977.1781,283.3106 Z " fill="#000000"/><text fill="#000000" font-family="sans-serif" font-size="14" lengthAdjust="spacing" textLength="32.8125" x="994.7094" y="282.5167">Staff</text><line style="stroke:#181818;stroke-width:0.5;" x1="840.08" x2="1149.6513" y1="293.67" y2="293.67"/><rect fill="none" height="6" style="stroke:#C82930;stroke-width:1;" width="6" x="847.08" y="304.3184"/><text fill="#000000" font-family="sans-serif" font-size="14" lengthAdjust="spacing" textLength="97.0771" x="859.08" y="310.6651">staffID: String</text><rect fill="none" height="6" style="stroke:#C82930;stroke-width:1;" width="6" x="847.08" y="320.6153"/><text fill="#000000" font-family="sans-serif" font-size="14" lengthAdjust="spacing" textLength="90.6514" x="859.08" y="326.962">name: String</text><rect fill="none" height="6" style="stroke:#C82930;stroke-width:1;" width="6" x="847.08" y="336.9122"/><text fill="#000000" font-family="sans-serif" font-size="14" lengthAdjust="spacing" textLength="129.835" x="859.08" y="343.2589">contactInfo: String</text><line style="stroke:#181818;stroke-width:0.5;" x1="840.08" x2="1149.6513" y1="350.5606" y2="350.5606"/><rect fill="#F24D5C" height="6" style="stroke:#C82930;stroke-width:1;" width="6" x="847.08" y="361.2091"/><text fill="#000000" font-family="sans-serif" font-size="14" lengthAdjust="spacing" textLength="285.5713" x="859.08" y="367.5557">role: String (e.g., "receptionist", "nurse")</text><ellipse cx="850.08" cy="380.5059" fill="#84BE84" rx="3" ry="3" style="stroke:#038048;stroke-width:1;"/><text fill="#000000" font-family="sans-serif" font-size="14" lengthAdjust="spacing" textLength="132.583" x="859.08" y="383.8526">getStaffID(): String</text><ellipse cx="850.08" cy="396.8028" fill="#84BE84" rx="3" ry="3" style="stroke:#038048;stroke-width:1;"/><text fill="#000000" font-family="sans-serif" font-size="14" lengthAdjust="spacing" textLength="126.1641" x="859.08" y="400.1495">getName(): String</text><ellipse cx="850.08" cy="413.0997" fill="#84BE84" rx="3" ry="3" style="stroke:#038048;stroke-width:1;"/><text fill="#000000" font-family="sans-serif" font-size="14" lengthAdjust="spacing" textLength="115.6572" x="859.08" y="416.4464">getRole(): String</text><ellipse cx="850.08" cy="429.3966" fill="#84BE84" rx="3" ry="3" style="stroke:#038048;stroke-width:1;"/><text fill="#000000" font-family="sans-serif" font-size="14" lengthAdjust="spacing" textLength="165.8262" x="859.08" y="432.7432">getContactInfo(): String</text><ellipse cx="850.08" cy="445.6934" fill="#84BE84" rx="3" ry="3" style="stroke:#038048;stroke-width:1;"/><text fill="#000000" font-family="sans-serif" font-size="14" lengthAdjust="spacing" textLength="281.9141" x="859.08" y="449.0401">setContactInfo(contactInfo: String): void</text></g><!--link Patient to Appointment--><g class="link" data-entity-1="Patient" data-entity-2="Appointment" data-source-line="77" data-uid="lnk8" id="link_Patient_Appointment"><path codeLine="77" d="M260.8,456.73 C257,476.01 252.98,496.41 249.09,516.18" fill="none" id="Patient-Appointment" style="stroke:#181818;stroke-width:1;"/><text fill="#000000" font-family="sans-serif" font-size="13" lengthAdjust="spacing" textLength="8.271" x="251.116" y="476.5292">1</text><text fill="#000000" font-family="sans-serif" font-size="13" lengthAdjust="spacing" textLength="23.0356" x="226.812" y="505.102">0..*</text></g><!--link Doctor to Appointment--><g class="link" data-entity-1="Doctor" data-entity-2="Appointment" data-source-line="78" data-uid="lnk9" id="link_Doctor_Appointment"><path codeLine="78" d="M497.75,456.73 C467.55,475.93 435.59,496.25 404.62,515.95" fill="none" id="Doctor-Appointment" style="stroke:#181818;stroke-width:1;"/><text fill="#000000" font-family="sans-serif" font-size="13" lengthAdjust="spacing" textLength="8.271" x="479.7574" y="475.5421">1</text><text fill="#000000" font-family="sans-serif" font-size="13" lengthAdjust="spacing" textLength="23.0356" x="392.272" y="505.2361">0..*</text></g><!--link Patient to MedicalRecord--><g class="link" data-entity-1="Patient" data-entity-2="MedicalRecord" data-source-line="79" data-uid="lnk10" id="link_Patient_MedicalRecord"><path codeLine="79" d="M422.63,456.73 C450.97,475.93 480.96,496.25 510.03,515.95" fill="none" id="Patient-MedicalRecord" style="stroke:#181818;stroke-width:1;"/><text fill="#000000" font-family="sans-serif" font-size="13" lengthAdjust="spacing" textLength="8.271" x="424.8304" y="476.5292">1</text><text fill="#000000" font-family="sans-serif" font-size="13" lengthAdjust="spacing" textLength="23.0356" x="475.607" y="505.2361">0..*</text></g><!--link Doctor to MedicalRecord--><g class="link" data-entity-1="Doctor" data-entity-2="MedicalRecord" data-source-line="80" data-uid="lnk11" id="link_Doctor_MedicalRecord"><path codeLine="80" d="M659.57,456.73 C661.51,476.01 663.56,496.41 665.54,516.18" fill="none" id="Doctor-MedicalRecord" style="stroke:#181818;stroke-width:1;"/><text fill="#000000" font-family="sans-serif" font-size="13" lengthAdjust="spacing" textLength="8.271" x="651.9988" y="476.5292">1</text><text fill="#000000" font-family="sans-serif" font-size="13" lengthAdjust="spacing" textLength="23.0356" x="641.0081" y="505.102">0..*</text></g><!--link Clinic to Doctor--><g class="link" data-entity-1="Clinic" data-entity-2="Doctor" data-source-line="81" data-uid="lnk12" id="link_Clinic_Doctor"><path codeLine="81" d="M756.1,201.94 C742.82,221.45 728.86,241.95 715.59,261.46" fill="none" id="Clinic-Doctor" style="stroke:#181818;stroke-width:1;"/><text fill="#000000" font-family="sans-serif" font-size="13" lengthAdjust="spacing" textLength="8.271" x="742.987" y="221.7304">1</text><text fill="#000000" font-family="sans-serif" font-size="13" lengthAdjust="spacing" textLength="23.0356" x="696.7428" y="250.4894">0..*</text></g><!--link Clinic to Staff--><g class="link" data-entity-1="Clinic" data-entity-2="Staff" data-source-line="82" data-uid="lnk13" id="link_Clinic_Staff"><path codeLine="82" d="M888.01,201.94 C901.36,221.45 915.4,241.95 928.75,261.46" fill="none" id="Clinic-Staff" style="stroke:#181818;stroke-width:1;"/><text fill="#000000" font-family="sans-serif" font-size="13" lengthAdjust="spacing" textLength="8.271" x="884.5841" y="221.7304">1</text><text fill="#000000" font-family="sans-serif" font-size="13" lengthAdjust="spacing" textLength="23.0356" x="899.8089" y="250.4894">0..*</text></g><!--SRC=[jLLDKy8m4BttLsHw0XL6hzoGNZY83F07Oh90PaBIIHOFElvtcpIrf2c2ezww7zctx_KrPP9QIvOK1IWaxnaX8rBMqRoOa3KQeNO-g-W1eWId2C_RHs5mFo555VWiqmefmxdQwfFkMx83N3Pp1yDkQL4DJxD5Y-2A0SENPYrCvvoDYptxLFslMl3i8ykOfrzeXje4zjm7byZR4fYWKhnLdBIAIjyeK8JPrmgmZb3I-f-gC2rBBHGUMYFGDjFHmxtxZN2Q5E6fLWKf7ctJIGOmtetlI6xP7lXH0i-hWEb3AG53G1K3wIh3McUDOBiifwThzBl4RT1O96nJ2-WNwf7RuQIIVOrA-JLoXSumE2RSwQb18ag9w3Cfb611R-Q3IzQZd1kmDigLUwrWSJoyW4ay4ePUwxbfFJujB5kCLBdJOiyo2Uydu89HkGAc3G_qZG-kSneNTAUq5R4CQ81wdnI0LCZ4IQk0y3CJ5GrMUcpJ0VoDfLgOX5odCq4znpkHlRBjTXlajkxvajcCbf1ypzMBWjBTICAY-uhLqLW8N_0tjz-w1hpMYAiA-j-klEQFbp_aP3GY-VruV9EVNe5P-2cSR-WV4HcxVqZS4cw0kAK-rr_pCdu2]--></g></svg>