<svg xmlns="http://www.w3.org/2000/svg" xmlns:xlink="http://www.w3.org/1999/xlink" contentStyleType="text/css" data-diagram-type="CLASS" height="523px" preserveAspectRatio="none" style="width:1075px;height:523px;background:#FFFFFF;" version="1.1" viewBox="0 0 1075 523" width="1075px" zoomAndPan="magnify"><defs/><g><!--class School--><g class="entity" data-entity="School" data-source-line="1" data-uid="ent0002" id="entity_School"><rect fill="#F1F1F1" height="129.4844" rx="2.5" ry="2.5" style="stroke:#181818;stroke-width:0.5;" width="363.4971" x="560.06" y="7"/><ellipse cx="714.3198" cy="23" fill="#ADD1B2" rx="11" ry="11" style="stroke:#181818;stroke-width:1;"/><path d="M717.2885,28.6406 Q716.7104,28.9375 716.0698,29.0781 Q715.4291,29.2344 714.726,29.2344 Q712.226,29.2344 710.8979,27.5938 Q709.5854,25.9375 709.5854,22.8125 Q709.5854,19.6875 710.8979,18.0313 Q712.226,16.375 714.726,16.375 Q715.4291,16.375 716.0698,16.5313 Q716.726,16.6875 717.2885,16.9844 L717.2885,19.7031 Q716.6635,19.125 716.0698,18.8594 Q715.476,18.5781 714.851,18.5781 Q713.5073,18.5781 712.8198,19.6563 Q712.1323,20.7188 712.1323,22.8125 Q712.1323,24.9063 712.8198,25.9844 Q713.5073,27.0469 714.851,27.0469 Q715.476,27.0469 716.0698,26.7813 Q716.6635,26.5 717.2885,25.9219 L717.2885,28.6406 Z " fill="#000000"/><text fill="#000000" font-family="sans-serif" font-size="14" lengthAdjust="spacing" textLength="46.4775" x="734.8198" y="27.8467">School</text><line style="stroke:#181818;stroke-width:0.5;" x1="561.06" x2="922.5571" y1="39" y2="39"/><rect fill="none" height="6" style="stroke:#C82930;stroke-width:1;" width="6" x="568.06" y="49.6484"/><text fill="#000000" font-family="sans-serif" font-size="14" lengthAdjust="spacing" textLength="90.6514" x="580.06" y="55.9951">name: String</text><rect fill="none" height="6" style="stroke:#C82930;stroke-width:1;" width="6" x="568.06" y="65.9453"/><text fill="#000000" font-family="sans-serif" font-size="14" lengthAdjust="spacing" textLength="106.2578" x="580.06" y="72.292">address: String</text><line style="stroke:#181818;stroke-width:0.5;" x1="561.06" x2="922.5571" y1="79.5938" y2="79.5938"/><ellipse cx="571.06" cy="93.2422" fill="#84BE84" rx="3" ry="3" style="stroke:#038048;stroke-width:1;"/><text fill="#000000" font-family="sans-serif" font-size="14" lengthAdjust="spacing" textLength="337.4971" x="580.06" y="96.5889">addDepartment(department: Department): void</text><ellipse cx="571.06" cy="109.5391" fill="#84BE84" rx="3" ry="3" style="stroke:#038048;stroke-width:1;"/><text fill="#000000" font-family="sans-serif" font-size="14" lengthAdjust="spacing" textLength="248.9785" x="580.06" y="112.8857">addStudent(student: Student): void</text><ellipse cx="571.06" cy="125.8359" fill="#84BE84" rx="3" ry="3" style="stroke:#038048;stroke-width:1;"/><text fill="#000000" font-family="sans-serif" font-size="14" lengthAdjust="spacing" textLength="252.2256" x="580.06" y="129.1826">addTeacher(teacher: Teacher): void</text></g><!--class Department--><g class="entity" data-entity="Department" data-source-line="8" data-uid="ent0003" id="entity_Department"><rect fill="#F1F1F1" height="96.8906" rx="2.5" ry="2.5" style="stroke:#181818;stroke-width:0.5;" width="278.2256" x="790.69" y="221.63"/><ellipse cx="883.1939" cy="237.63" fill="#ADD1B2" rx="11" ry="11" style="stroke:#181818;stroke-width:1;"/><path d="M886.1627,243.2706 Q885.5845,243.5675 884.9439,243.7081 Q884.3033,243.8644 883.6002,243.8644 Q881.1002,243.8644 879.772,242.2238 Q878.4595,240.5675 878.4595,237.4425 Q878.4595,234.3175 879.772,232.6613 Q881.1002,231.005 883.6002,231.005 Q884.3033,231.005 884.9439,231.1613 Q885.6002,231.3175 886.1627,231.6144 L886.1627,234.3331 Q885.5377,233.755 884.9439,233.4894 Q884.3502,233.2081 883.7252,233.2081 Q882.3814,233.2081 881.6939,234.2863 Q881.0064,235.3488 881.0064,237.4425 Q881.0064,239.5363 881.6939,240.6144 Q882.3814,241.6769 883.7252,241.6769 Q884.3502,241.6769 884.9439,241.4113 Q885.5377,241.13 886.1627,240.5519 L886.1627,243.2706 Z " fill="#000000"/><text fill="#000000" font-family="sans-serif" font-size="14" lengthAdjust="spacing" textLength="84.7178" x="903.6939" y="242.4767">Department</text><line style="stroke:#181818;stroke-width:0.5;" x1="791.69" x2="1067.9156" y1="253.63" y2="253.63"/><rect fill="none" height="6" style="stroke:#C82930;stroke-width:1;" width="6" x="798.69" y="264.2784"/><text fill="#000000" font-family="sans-serif" font-size="14" lengthAdjust="spacing" textLength="90.6514" x="810.69" y="270.6251">name: String</text><line style="stroke:#181818;stroke-width:0.5;" x1="791.69" x2="1067.9156" y1="277.9269" y2="277.9269"/><ellipse cx="801.69" cy="291.5753" fill="#84BE84" rx="3" ry="3" style="stroke:#038048;stroke-width:1;"/><text fill="#000000" font-family="sans-serif" font-size="14" lengthAdjust="spacing" textLength="229.79" x="810.69" y="294.922">addCourse(course: Course): void</text><ellipse cx="801.69" cy="307.8722" fill="#84BE84" rx="3" ry="3" style="stroke:#038048;stroke-width:1;"/><text fill="#000000" font-family="sans-serif" font-size="14" lengthAdjust="spacing" textLength="252.2256" x="810.69" y="311.2189">addTeacher(teacher: Teacher): void</text></g><!--class Student--><g class="entity" data-entity="Student" data-source-line="9" data-uid="ent0005" id="entity_Student"><rect fill="#F1F1F1" height="96.8906" rx="2.5" ry="2.5" style="stroke:#181818;stroke-width:0.5;" width="328.832" x="211.39" y="411.82"/><ellipse cx="344.0004" cy="427.82" fill="#ADD1B2" rx="11" ry="11" style="stroke:#181818;stroke-width:1;"/><path d="M346.9691,433.4606 Q346.391,433.7575 345.7504,433.8981 Q345.1097,434.0544 344.4066,434.0544 Q341.9066,434.0544 340.5785,432.4138 Q339.266,430.7575 339.266,427.6325 Q339.266,424.5075 340.5785,422.8513 Q341.9066,421.195 344.4066,421.195 Q345.1097,421.195 345.7504,421.3513 Q346.4066,421.5075 346.9691,421.8044 L346.9691,424.5231 Q346.3441,423.945 345.7504,423.6794 Q345.1566,423.3981 344.5316,423.3981 Q343.1879,423.3981 342.5004,424.4763 Q341.8129,425.5388 341.8129,427.6325 Q341.8129,429.7263 342.5004,430.8044 Q343.1879,431.8669 344.5316,431.8669 Q345.1566,431.8669 345.7504,431.6013 Q346.3441,431.32 346.9691,430.7419 L346.9691,433.4606 Z " fill="#000000"/><text fill="#000000" font-family="sans-serif" font-size="14" lengthAdjust="spacing" textLength="55.1113" x="364.5004" y="432.6667">Student</text><line style="stroke:#181818;stroke-width:0.5;" x1="212.39" x2="539.222" y1="443.82" y2="443.82"/><rect fill="none" height="6" style="stroke:#C82930;stroke-width:1;" width="6" x="219.39" y="454.4684"/><text fill="#000000" font-family="sans-serif" font-size="14" lengthAdjust="spacing" textLength="90.6514" x="231.39" y="460.8151">name: String</text><rect fill="none" height="6" style="stroke:#C82930;stroke-width:1;" width="6" x="219.39" y="470.7653"/><text fill="#000000" font-family="sans-serif" font-size="14" lengthAdjust="spacing" textLength="160.0703" x="231.39" y="477.112">courses: List&lt;Course&gt;</text><line style="stroke:#181818;stroke-width:0.5;" x1="212.39" x2="539.222" y1="484.4138" y2="484.4138"/><ellipse cx="222.39" cy="498.0622" fill="#84BE84" rx="3" ry="3" style="stroke:#038048;stroke-width:1;"/><text fill="#000000" font-family="sans-serif" font-size="14" lengthAdjust="spacing" textLength="302.832" x="231.39" y="501.4089">enrollInCourse(course: Course): Enrollment</text></g><!--class Teacher--><g class="entity" data-entity="Teacher" data-source-line="10" data-uid="ent0007" id="entity_Teacher"><rect fill="#F1F1F1" height="113.1875" rx="2.5" ry="2.5" style="stroke:#181818;stroke-width:0.5;" width="268.6895" x="575.46" y="403.67"/><ellipse cx="677.2129" cy="419.67" fill="#ADD1B2" rx="11" ry="11" style="stroke:#181818;stroke-width:1;"/><path d="M680.1817,425.3106 Q679.6036,425.6075 678.9629,425.7481 Q678.3223,425.9044 677.6192,425.9044 Q675.1192,425.9044 673.7911,424.2638 Q672.4786,422.6075 672.4786,419.4825 Q672.4786,416.3575 673.7911,414.7013 Q675.1192,413.045 677.6192,413.045 Q678.3223,413.045 678.9629,413.2013 Q679.6192,413.3575 680.1817,413.6544 L680.1817,416.3731 Q679.5567,415.795 678.9629,415.5294 Q678.3692,415.2481 677.7442,415.2481 Q676.4004,415.2481 675.7129,416.3263 Q675.0254,417.3888 675.0254,419.4825 Q675.0254,421.5763 675.7129,422.6544 Q676.4004,423.7169 677.7442,423.7169 Q678.3692,423.7169 678.9629,423.4513 Q679.5567,423.17 680.1817,422.5919 L680.1817,425.3106 Z " fill="#000000"/><text fill="#000000" font-family="sans-serif" font-size="14" lengthAdjust="spacing" textLength="56.6836" x="697.7129" y="424.5167">Teacher</text><line style="stroke:#181818;stroke-width:0.5;" x1="576.46" x2="843.1495" y1="435.67" y2="435.67"/><rect fill="none" height="6" style="stroke:#C82930;stroke-width:1;" width="6" x="583.46" y="446.3184"/><text fill="#000000" font-family="sans-serif" font-size="14" lengthAdjust="spacing" textLength="90.6514" x="595.46" y="452.6651">name: String</text><rect fill="none" height="6" style="stroke:#C82930;stroke-width:1;" width="6" x="583.46" y="462.6153"/><text fill="#000000" font-family="sans-serif" font-size="14" lengthAdjust="spacing" textLength="176.709" x="595.46" y="468.962">department: Department</text><rect fill="none" height="6" style="stroke:#C82930;stroke-width:1;" width="6" x="583.46" y="478.9122"/><text fill="#000000" font-family="sans-serif" font-size="14" lengthAdjust="spacing" textLength="160.0703" x="595.46" y="485.2589">courses: List&lt;Course&gt;</text><line style="stroke:#181818;stroke-width:0.5;" x1="576.46" x2="843.1495" y1="492.5606" y2="492.5606"/><ellipse cx="586.46" cy="506.2091" fill="#84BE84" rx="3" ry="3" style="stroke:#038048;stroke-width:1;"/><text fill="#000000" font-family="sans-serif" font-size="14" lengthAdjust="spacing" textLength="242.6895" x="595.46" y="509.5557">teachCourse(course: Course): void</text></g><!--class Course--><g class="entity" data-entity="Course" data-source-line="17" data-uid="ent0009" id="entity_Course"><rect fill="#F1F1F1" height="113.1875" rx="2.5" ry="2.5" style="stroke:#181818;stroke-width:0.5;" width="288.2129" x="327.7" y="213.48"/><ellipse cx="443.118" cy="229.48" fill="#ADD1B2" rx="11" ry="11" style="stroke:#181818;stroke-width:1;"/><path d="M446.0867,235.1206 Q445.5086,235.4175 444.868,235.5581 Q444.2273,235.7144 443.5242,235.7144 Q441.0242,235.7144 439.6961,234.0738 Q438.3836,232.4175 438.3836,229.2925 Q438.3836,226.1675 439.6961,224.5113 Q441.0242,222.855 443.5242,222.855 Q444.2273,222.855 444.868,223.0113 Q445.5242,223.1675 446.0867,223.4644 L446.0867,226.1831 Q445.4617,225.605 444.868,225.3394 Q444.2742,225.0581 443.6492,225.0581 Q442.3055,225.0581 441.618,226.1363 Q440.9305,227.1988 440.9305,229.2925 Q440.9305,231.3863 441.618,232.4644 Q442.3055,233.5269 443.6492,233.5269 Q444.2742,233.5269 444.868,233.2613 Q445.4617,232.98 446.0867,232.4019 L446.0867,235.1206 Z " fill="#000000"/><text fill="#000000" font-family="sans-serif" font-size="14" lengthAdjust="spacing" textLength="48.877" x="463.618" y="234.3267">Course</text><line style="stroke:#181818;stroke-width:0.5;" x1="328.7" x2="614.9129" y1="245.48" y2="245.48"/><rect fill="none" height="6" style="stroke:#C82930;stroke-width:1;" width="6" x="335.7" y="256.1284"/><text fill="#000000" font-family="sans-serif" font-size="14" lengthAdjust="spacing" textLength="90.6514" x="347.7" y="262.4751">name: String</text><rect fill="none" height="6" style="stroke:#C82930;stroke-width:1;" width="6" x="335.7" y="272.4253"/><text fill="#000000" font-family="sans-serif" font-size="14" lengthAdjust="spacing" textLength="176.709" x="347.7" y="278.772">department: Department</text><rect fill="none" height="6" style="stroke:#C82930;stroke-width:1;" width="6" x="335.7" y="288.7222"/><text fill="#000000" font-family="sans-serif" font-size="14" lengthAdjust="spacing" textLength="119.4717" x="347.7" y="295.0689">teacher: Teacher</text><line style="stroke:#181818;stroke-width:0.5;" x1="328.7" x2="614.9129" y1="302.3706" y2="302.3706"/><ellipse cx="338.7" cy="316.0191" fill="#84BE84" rx="3" ry="3" style="stroke:#038048;stroke-width:1;"/><text fill="#000000" font-family="sans-serif" font-size="14" lengthAdjust="spacing" textLength="262.2129" x="347.7" y="319.3657">enrollStudent(student: Student): void</text></g><!--class Enrollment--><g class="entity" data-entity="Enrollment" data-source-line="28" data-uid="ent0014" id="entity_Enrollment"><rect fill="#F1F1F1" height="113.1875" rx="2.5" ry="2.5" style="stroke:#181818;stroke-width:0.5;" width="145.6084" x="7" y="403.67"/><ellipse cx="38.7291" cy="419.67" fill="#ADD1B2" rx="11" ry="11" style="stroke:#181818;stroke-width:1;"/><path d="M41.6979,425.3106 Q41.1197,425.6075 40.4791,425.7481 Q39.8385,425.9044 39.1354,425.9044 Q36.6354,425.9044 35.3072,424.2638 Q33.9947,422.6075 33.9947,419.4825 Q33.9947,416.3575 35.3072,414.7013 Q36.6354,413.045 39.1354,413.045 Q39.8385,413.045 40.4791,413.2013 Q41.1354,413.3575 41.6979,413.6544 L41.6979,416.3731 Q41.0729,415.795 40.4791,415.5294 Q39.8854,415.2481 39.2604,415.2481 Q37.9166,415.2481 37.2291,416.3263 Q36.5416,417.3888 36.5416,419.4825 Q36.5416,421.5763 37.2291,422.6544 Q37.9166,423.7169 39.2604,423.7169 Q39.8854,423.7169 40.4791,423.4513 Q41.0729,423.17 41.6979,422.5919 L41.6979,425.3106 Z " fill="#000000"/><text fill="#000000" font-family="sans-serif" font-size="14" lengthAdjust="spacing" textLength="76.4326" x="56.4467" y="424.5167">Enrollment</text><line style="stroke:#181818;stroke-width:0.5;" x1="8" x2="151.6084" y1="435.67" y2="435.67"/><rect fill="none" height="6" style="stroke:#C82930;stroke-width:1;" width="6" x="15" y="446.3184"/><text fill="#000000" font-family="sans-serif" font-size="14" lengthAdjust="spacing" textLength="117.7969" x="27" y="452.6651">student: Student</text><rect fill="none" height="6" style="stroke:#C82930;stroke-width:1;" width="6" x="15" y="462.6153"/><text fill="#000000" font-family="sans-serif" font-size="14" lengthAdjust="spacing" textLength="104.8428" x="27" y="468.962">course: Course</text><rect fill="none" height="6" style="stroke:#C82930;stroke-width:1;" width="6" x="15" y="478.9122"/><text fill="#000000" font-family="sans-serif" font-size="14" lengthAdjust="spacing" textLength="119.6084" x="27" y="485.2589">enrolledOn: Date</text><rect fill="none" height="6" style="stroke:#C82930;stroke-width:1;" width="6" x="15" y="495.2091"/><text fill="#000000" font-family="sans-serif" font-size="14" lengthAdjust="spacing" textLength="91.6699" x="27" y="501.5557">grade: String</text><line style="stroke:#181818;stroke-width:0.5;" x1="8" x2="151.6084" y1="508.8575" y2="508.8575"/></g><!--reverse link School to Department--><g class="link" data-entity-1="School" data-entity-2="Department" data-source-line="8" data-uid="lnk4" id="link_School_Department"><path codeLine="8" d="M811.3991,145.4275 C837.7591,172.9575 859.74,195.91 884.09,221.33" fill="none" id="School-backto-Department" style="stroke:#181818;stroke-width:1;"/><polygon fill="none" points="803.1,136.76,804.3604,143.8601,811.3991,145.4275,810.1387,138.3274,803.1,136.76" style="stroke:#181818;stroke-width:1;"/><text fill="#000000" font-family="sans-serif" font-size="13" lengthAdjust="spacing" textLength="83.6812" x="847.8" y="179.5469">departments</text><text fill="#000000" font-family="sans-serif" font-size="13" lengthAdjust="spacing" textLength="8.271" x="801.3811" y="156.7658">1</text><text fill="#000000" font-family="sans-serif" font-size="13" lengthAdjust="spacing" textLength="6.5" x="871.2749" y="210.4967">*</text></g><!--reverse link School to Student--><g class="link" data-entity-1="School" data-entity-2="Student" data-source-line="9" data-uid="lnk6" id="link_School_Student"><path codeLine="9" d="M547.8766,103.9594 C424.7166,127.6794 289.65,163.24 251.8,213.48 C208.96,270.36 220.08,311.51 254.8,373.67 C262.9,388.16 274.59,400.78 287.56,411.56" fill="none" id="School-backto-Student" style="stroke:#181818;stroke-width:1;"/><polygon fill="none" points="559.66,101.69,553.0118,98.8969,547.8766,103.9594,554.5248,106.7525,559.66,101.69" style="stroke:#181818;stroke-width:1;"/><text fill="#000000" font-family="sans-serif" font-size="13" lengthAdjust="spacing" textLength="56.4688" x="252.8" y="274.6469">students</text><text fill="#000000" font-family="sans-serif" font-size="13" lengthAdjust="spacing" textLength="8.271" x="543.8126" y="99.7067">1</text><text fill="#000000" font-family="sans-serif" font-size="13" lengthAdjust="spacing" textLength="6.5" x="268.7637" y="400.7324">*</text></g><!--reverse link School to Teacher--><g class="link" data-entity-1="School" data-entity-2="Teacher" data-source-line="10" data-uid="lnk8" id="link_School_Teacher"><path codeLine="10" d="M726.6886,148.5633 C720.1186,181.8833 715.64,205.54 714.8,213.48 C707.96,278.42 707.51,353.53 708.26,403.46" fill="none" id="School-backto-Teacher" style="stroke:#181818;stroke-width:1;"/><polygon fill="none" points="729.01,136.79,723.9248,141.9028,726.6886,148.5633,731.7737,143.4505,729.01,136.79" style="stroke:#181818;stroke-width:1;"/><text fill="#000000" font-family="sans-serif" font-size="13" lengthAdjust="spacing" textLength="56.564" x="715.8" y="274.6469">teachers</text><text fill="#000000" font-family="sans-serif" font-size="13" lengthAdjust="spacing" textLength="8.271" x="719.2916" y="156.3452">1</text><text fill="#000000" font-family="sans-serif" font-size="13" lengthAdjust="spacing" textLength="6.5" x="701.7366" y="392.698">*</text></g><!--reverse link Department to Course--><g class="link" data-entity-1="Department" data-entity-2="Course" data-source-line="17" data-uid="lnk10" id="link_Department_Course"><path codeLine="17" d="M843.428,215.6489 C793.088,188.9589 735.62,169.35 673.3,182.33 C642.11,188.83 609.83,200.42 580.49,213.1" fill="none" id="Department-backto-Course" style="stroke:#181818;stroke-width:1;"/><polygon fill="none" points="854.03,221.27,850.6027,214.9254,843.428,215.6489,846.8553,221.9934,854.03,221.27" style="stroke:#181818;stroke-width:1;"/><text fill="#000000" font-family="sans-serif" font-size="13" lengthAdjust="spacing" textLength="50.229" x="670.8" y="179.5469">courses</text><text fill="#000000" font-family="sans-serif" font-size="13" lengthAdjust="spacing" textLength="8.271" x="834.831" y="210.4283">1</text><text fill="#000000" font-family="sans-serif" font-size="13" lengthAdjust="spacing" textLength="6.5" x="587.4007" y="202.3172">*</text></g><!--reverse link Course to Department--><g class="link" data-entity-1="Course" data-entity-2="Department" data-source-line="26" data-uid="lnk12" id="link_Course_Department"><path codeLine="26" d="M591.5053,208.3395 C620.8453,195.6595 642.11,188.83 673.3,182.33 C735.62,169.35 803.69,194.58 854.03,221.27" fill="none" id="Course-backto-Department" style="stroke:#181818;stroke-width:1;"/><polygon fill="none" points="580.49,213.1,587.5845,214.3915,591.5053,208.3395,584.4108,207.048,580.49,213.1" style="stroke:#181818;stroke-width:1;"/><text fill="#000000" font-family="sans-serif" font-size="13" lengthAdjust="spacing" textLength="43.3228" x="674.3" y="179.5469">part of</text><text fill="#000000" font-family="sans-serif" font-size="13" lengthAdjust="spacing" textLength="8.271" x="594.2398" y="202.3172">1</text><text fill="#000000" font-family="sans-serif" font-size="13" lengthAdjust="spacing" textLength="8.271" x="843.956" y="210.4283">1</text></g><!--reverse link Department to Teacher--><g class="link" data-entity-1="Department" data-entity-2="Teacher" data-source-line="18" data-uid="lnk11" id="link_Department_Teacher"><path codeLine="18" d="M864.8816,326.611 C834.8416,352.311 806.73,376.36 775.32,403.23" fill="none" id="Department-backto-Teacher" style="stroke:#181818;stroke-width:1;"/><polygon fill="none" points="874,318.81,866.8405,319.671,864.8816,326.611,872.0412,325.75,874,318.81" style="stroke:#181818;stroke-width:1;"/><text fill="#000000" font-family="sans-serif" font-size="13" lengthAdjust="spacing" textLength="56.564" x="826.8" y="369.7369">teachers</text><text fill="#000000" font-family="sans-serif" font-size="13" lengthAdjust="spacing" textLength="8.271" x="857.9822" y="338.4424">1</text><text fill="#000000" font-family="sans-serif" font-size="13" lengthAdjust="spacing" textLength="6.5" x="776.9695" y="392.4399">*</text></g><!--reverse link Course to Teacher--><g class="link" data-entity-1="Course" data-entity-2="Teacher" data-source-line="27" data-uid="lnk13" id="link_Course_Teacher"><path codeLine="27" d="M499.0343,337.5937 C507.5143,354.1737 513.08,360.68 526.8,373.67 C541.07,387.18 557.85,398.87 575.36,408.9" fill="none" id="Course-backto-Teacher" style="stroke:#181818;stroke-width:1;"/><polygon fill="none" points="493.57,326.91,492.7409,334.0733,499.0343,337.5937,499.8634,330.4304,493.57,326.91" style="stroke:#181818;stroke-width:1;"/><text fill="#000000" font-family="sans-serif" font-size="13" lengthAdjust="spacing" textLength="62.9688" x="527.8" y="369.7369">taught by</text><text fill="#000000" font-family="sans-serif" font-size="13" lengthAdjust="spacing" textLength="8.271" x="487.7514" y="346.826">1</text><text fill="#000000" font-family="sans-serif" font-size="13" lengthAdjust="spacing" textLength="8.271" x="559.364" y="402.5677">1</text></g><!--link Teacher to Course--><g class="link" data-entity-1="Teacher" data-entity-2="Course" data-source-line="37" data-uid="lnk17" id="link_Teacher_Course"><path codeLine="37" d="M649.81,403.29 C632.43,387.75 613.18,371.18 594.8,356.67 C582.25,346.76 568.62,336.67 555.17,327.06" fill="none" id="Teacher-Course" style="stroke:#181818;stroke-width:1;"/><text fill="#000000" font-family="sans-serif" font-size="13" lengthAdjust="spacing" textLength="51.2192" x="615.8" y="369.7369">teaches</text><text fill="#000000" font-family="sans-serif" font-size="13" lengthAdjust="spacing" textLength="8.271" x="634.0272" y="392.5072">1</text><text fill="#000000" font-family="sans-serif" font-size="13" lengthAdjust="spacing" textLength="6.5" x="558.4909" y="346.5908">*</text></g><!--reverse link Course to Enrollment--><g class="link" data-entity-1="Course" data-entity-2="Enrollment" data-source-line="28" data-uid="lnk15" id="link_Course_Enrollment"><path codeLine="28" d="M315.811,314.8845 C264.311,330.4145 224.85,343.99 201.8,356.67 C178.89,369.28 156.27,386.56 136.85,403.35" fill="none" id="Course-backto-Enrollment" style="stroke:#181818;stroke-width:1;"/><polygon fill="none" points="327.3,311.42,320.4007,309.3226,315.811,314.8845,322.7104,316.9819,327.3,311.42" style="stroke:#181818;stroke-width:1;"/><text fill="#000000" font-family="sans-serif" font-size="13" lengthAdjust="spacing" textLength="22.9785" x="202.8" y="369.7369">has</text><text fill="#000000" font-family="sans-serif" font-size="13" lengthAdjust="spacing" textLength="8.271" x="311.6496" y="310.2355">1</text><text fill="#000000" font-family="sans-serif" font-size="13" lengthAdjust="spacing" textLength="6.5" x="137.4673" y="392.5746">*</text></g><!--reverse link Enrollment to Course--><g class="link" data-entity-1="Enrollment" data-entity-2="Course" data-source-line="54" data-uid="lnk21" id="link_Enrollment_Course"><path codeLine="54" d="M163.8314,418.1816 C177.3814,411.5916 180.61,410.03 193.8,403.67 C246.18,378.41 304.23,350.68 353.67,327.14" fill="none" id="Enrollment-backto-Course" style="stroke:#181818;stroke-width:1;"/><polygon fill="none" points="153.04,423.43,160.1852,424.403,163.8314,418.1816,156.6863,417.2087,153.04,423.43" style="stroke:#181818;stroke-width:1;"/><text fill="#000000" font-family="sans-serif" font-size="13" lengthAdjust="spacing" textLength="11.8511" x="286.8" y="369.7369">in</text><text fill="#000000" font-family="sans-serif" font-size="13" lengthAdjust="spacing" textLength="8.271" x="160.6562" y="416.1393">1</text><text fill="#000000" font-family="sans-serif" font-size="13" lengthAdjust="spacing" textLength="8.271" x="331.5636" y="346.68">1</text></g><!--reverse link Course to Student--><g class="link" data-entity-1="Course" data-entity-2="Student" data-source-line="29" data-uid="lnk16" id="link_Course_Student"><path codeLine="29" d="M437.8061,337.719 C424.0961,364.589 413.3,385.77 400.18,411.48" fill="none" id="Course-backto-Student" style="stroke:#181818;stroke-width:1;"/><polygon fill="none" points="443.26,327.03,436.97,330.5565,437.8061,337.719,444.0961,334.1925,443.26,327.03" style="stroke:#181818;stroke-width:1;"/><text fill="#000000" font-family="sans-serif" font-size="13" lengthAdjust="spacing" textLength="56.4688" x="427.8" y="369.7369">students</text><text fill="#000000" font-family="sans-serif" font-size="13" lengthAdjust="spacing" textLength="8.271" x="431.5125" y="346.5573">1</text><text fill="#000000" font-family="sans-serif" font-size="13" lengthAdjust="spacing" textLength="6.5" x="397.2209" y="400.6411">*</text></g><!--reverse link Student to Course--><g class="link" data-entity-1="Student" data-entity-2="Course" data-source-line="44" data-uid="lnk18" id="link_Student_Course"><path codeLine="44" d="M340.9832,400.4654 C333.5932,382.6454 334.7,373.7 343.8,356.67 C349.73,345.59 357.79,335.69 367,326.92" fill="none" id="Student-backto-Course" style="stroke:#181818;stroke-width:1;"/><polygon fill="none" points="345.58,411.55,346.9765,404.4754,340.9832,400.4654,339.5867,407.54,345.58,411.55" style="stroke:#181818;stroke-width:1;"/><text fill="#000000" font-family="sans-serif" font-size="13" lengthAdjust="spacing" textLength="68.9927" x="344.8" y="369.7369">enrolled in</text><text fill="#000000" font-family="sans-serif" font-size="13" lengthAdjust="spacing" textLength="8.271" x="332.786" y="400.721">1</text><text fill="#000000" font-family="sans-serif" font-size="13" lengthAdjust="spacing" textLength="6.5" x="347.8916" y="346.8372">*</text></g><!--reverse link Student to Enrollment--><g class="link" data-entity-1="Student" data-entity-2="Enrollment" data-source-line="45" data-uid="lnk19" id="link_Student_Enrollment"><path codeLine="45" d="M199.03,460.27 C178.73,460.27 170.86,460.27 152.97,460.27" fill="none" id="Student-backto-Enrollment" style="stroke:#181818;stroke-width:1;"/><polygon fill="none" points="211.03,460.27,205.03,456.27,199.03,460.27,205.03,464.27,211.03,460.27" style="stroke:#181818;stroke-width:1;"/><text fill="#000000" font-family="sans-serif" font-size="13" lengthAdjust="spacing" textLength="22.9785" x="171" y="453.3369">has</text><text fill="#000000" font-family="sans-serif" font-size="13" lengthAdjust="spacing" textLength="8.271" x="194.8615" y="456.9771">1</text><text fill="#000000" font-family="sans-serif" font-size="13" lengthAdjust="spacing" textLength="6.5" x="160.4922" y="456.6058">*</text></g><!--reverse link Enrollment to Student--><g class="link" data-entity-1="Enrollment" data-entity-2="Student" data-source-line="53" data-uid="lnk20" id="link_Enrollment_Student"><path codeLine="53" d="M164.7758,479.5286 C171.3558,480.6286 166.11,479.59 172.5,480.27 C185.02,481.6 197.97,482.18 211.01,482.19" fill="none" id="Enrollment-backto-Student" style="stroke:#181818;stroke-width:1;"/><polygon fill="none" points="152.94,477.55,158.1983,482.4846,164.7758,479.5286,159.5174,474.5941,152.94,477.55" style="stroke:#181818;stroke-width:1;"/><text fill="#000000" font-family="sans-serif" font-size="13" lengthAdjust="spacing" textLength="17.875" x="173.5" y="476.3369">for</text><text fill="#000000" font-family="sans-serif" font-size="13" lengthAdjust="spacing" textLength="8.271" x="160.5464" y="475.5868">1</text><text fill="#000000" font-family="sans-serif" font-size="13" lengthAdjust="spacing" textLength="8.271" x="195.3676" y="479.9135">1</text></g><!--SRC=[dLFDJeGm4BxtAIQSKCF1QsEyg0SJ4m_u0fLsWOHjJLjCZE7TXNOAXIsOB9TsXs_d-vcXwfWnK5QDKXty4XYV0YGx2mgbrQsiiSGuryAOLVLkgZwBBwRjMKYRy_bAOIdVKFXMBL_-KTgUJt3Zpwcbkrm0FmIh6g5pwqyAM0Z0WQ3kx3u3LHIGtMOHCL1O59aK5eb786f9ef1rHA4GGqZbOekuTgDpJfvKhut8AtTGy3-ly1iHnWfzlr6W9p1xk7qdsE5W0TB3nPTRnUX9IAswxhzv3mJPlLHthAOuNK6T4h384ElhniBdpnhbVRyu7TYjOIQ5IUm2PXD8hWq7XqBXhJNsmLC_Oa8kkCFj64ZWdzHk1-w3dwK64mTIZzJuURtAFK5BZjEtXrp9HVIT18TM9e4N4q43KJrusAxDoaSGXyL0-ox7EJ0RohLcVCbX815Bj4pB1foKti7C1blv1m00]--></g></svg>