<svg xmlns="http://www.w3.org/2000/svg" xmlns:xlink="http://www.w3.org/1999/xlink" contentStyleType="text/css" data-diagram-type="CLASS" height="670px" preserveAspectRatio="none" style="width:824px;height:670px;background:#FFFFFF;" version="1.1" viewBox="0 0 824 670" width="824px" zoomAndPan="magnify"><defs/><g><!--class TransportationCompany--><g class="entity" data-entity="TransportationCompany" data-source-line="1" data-uid="ent0002" id="entity_TransportationCompany"><rect fill="#F1F1F1" height="145.7813" rx="2.5" ry="2.5" style="stroke:#181818;stroke-width:0.5;" width="201.75" x="360.68" y="7"/><ellipse cx="375.68" cy="23" fill="#ADD1B2" rx="11" ry="11" style="stroke:#181818;stroke-width:1;"/><path d="M378.6488,28.6406 Q378.0706,28.9375 377.43,29.0781 Q376.7894,29.2344 376.0863,29.2344 Q373.5863,29.2344 372.2581,27.5938 Q370.9456,25.9375 370.9456,22.8125 Q370.9456,19.6875 372.2581,18.0313 Q373.5863,16.375 376.0863,16.375 Q376.7894,16.375 377.43,16.5313 Q378.0863,16.6875 378.6488,16.9844 L378.6488,19.7031 Q378.0238,19.125 377.43,18.8594 Q376.8363,18.5781 376.2113,18.5781 Q374.8675,18.5781 374.18,19.6563 Q373.4925,20.7188 373.4925,22.8125 Q373.4925,24.9063 374.18,25.9844 Q374.8675,27.0469 376.2113,27.0469 Q376.8363,27.0469 377.43,26.7813 Q378.0238,26.5 378.6488,25.9219 L378.6488,28.6406 Z " fill="#000000"/><text fill="#000000" font-family="sans-serif" font-size="14" lengthAdjust="spacing" textLength="169.75" x="389.68" y="27.8467">TransportationCompany</text><line style="stroke:#181818;stroke-width:0.5;" x1="361.68" x2="561.43" y1="39" y2="39"/><rect fill="none" height="6" style="stroke:#C82930;stroke-width:1;" width="6" x="368.68" y="49.6484"/><text fill="#000000" font-family="sans-serif" font-size="14" lengthAdjust="spacing" textLength="90.6514" x="380.68" y="55.9951">name: String</text><rect fill="none" height="6" style="stroke:#C82930;stroke-width:1;" width="6" x="368.68" y="65.9453"/><text fill="#000000" font-family="sans-serif" font-size="14" lengthAdjust="spacing" textLength="106.2578" x="380.68" y="72.292">address: String</text><rect fill="none" height="6" style="stroke:#C82930;stroke-width:1;" width="6" x="368.68" y="82.2422"/><text fill="#000000" font-family="sans-serif" font-size="14" lengthAdjust="spacing" textLength="129.835" x="380.68" y="88.5889">contactInfo: String</text><line style="stroke:#181818;stroke-width:0.5;" x1="361.68" x2="561.43" y1="95.8906" y2="95.8906"/><ellipse cx="371.68" cy="109.5391" fill="#84BE84" rx="3" ry="3" style="stroke:#038048;stroke-width:1;"/><text fill="#000000" font-family="sans-serif" font-size="14" lengthAdjust="spacing" textLength="126.1641" x="380.68" y="112.8857">getName(): String</text><ellipse cx="371.68" cy="125.8359" fill="#84BE84" rx="3" ry="3" style="stroke:#038048;stroke-width:1;"/><text fill="#000000" font-family="sans-serif" font-size="14" lengthAdjust="spacing" textLength="141.1689" x="380.68" y="129.1826">getAddress(): String</text><ellipse cx="371.68" cy="142.1328" fill="#84BE84" rx="3" ry="3" style="stroke:#038048;stroke-width:1;"/><text fill="#000000" font-family="sans-serif" font-size="14" lengthAdjust="spacing" textLength="165.8262" x="380.68" y="145.4795">getContactInfo(): String</text></g><!--class Employee--><g class="entity" data-entity="Employee" data-source-line="10" data-uid="ent0003" id="entity_Employee"><rect fill="#F1F1F1" height="178.375" rx="2.5" ry="2.5" style="stroke:#181818;stroke-width:0.5;" width="195.1074" x="7" y="229.78"/><ellipse cx="65.6353" cy="245.78" fill="#ADD1B2" rx="11" ry="11" style="stroke:#181818;stroke-width:1;"/><path d="M68.604,251.4206 Q68.0259,251.7175 67.3853,251.8581 Q66.7446,252.0144 66.0415,252.0144 Q63.5415,252.0144 62.2134,250.3737 Q60.9009,248.7175 60.9009,245.5925 Q60.9009,242.4675 62.2134,240.8112 Q63.5415,239.155 66.0415,239.155 Q66.7446,239.155 67.3853,239.3112 Q68.0415,239.4675 68.604,239.7644 L68.604,242.4831 Q67.979,241.905 67.3853,241.6394 Q66.7915,241.3581 66.1665,241.3581 Q64.8228,241.3581 64.1353,242.4362 Q63.4478,243.4987 63.4478,245.5925 Q63.4478,247.6862 64.1353,248.7644 Q64.8228,249.8269 66.1665,249.8269 Q66.7915,249.8269 67.3853,249.5612 Q67.979,249.28 68.604,248.7019 L68.604,251.4206 Z " fill="#000000"/><text fill="#000000" font-family="sans-serif" font-size="14" lengthAdjust="spacing" textLength="69.3369" x="86.1353" y="250.6267">Employee</text><line style="stroke:#181818;stroke-width:0.5;" x1="8" x2="201.1074" y1="261.78" y2="261.78"/><rect fill="none" height="6" style="stroke:#C82930;stroke-width:1;" width="6" x="15" y="272.4284"/><text fill="#000000" font-family="sans-serif" font-size="14" lengthAdjust="spacing" textLength="134.9619" x="27" y="278.7751">employeeID: String</text><rect fill="none" height="6" style="stroke:#C82930;stroke-width:1;" width="6" x="15" y="288.7253"/><text fill="#000000" font-family="sans-serif" font-size="14" lengthAdjust="spacing" textLength="90.6514" x="27" y="295.072">name: String</text><rect fill="none" height="6" style="stroke:#C82930;stroke-width:1;" width="6" x="15" y="305.0222"/><text fill="#000000" font-family="sans-serif" font-size="14" lengthAdjust="spacing" textLength="77.7725" x="27" y="311.3689">role: String</text><rect fill="none" height="6" style="stroke:#C82930;stroke-width:1;" width="6" x="15" y="321.3191"/><text fill="#000000" font-family="sans-serif" font-size="14" lengthAdjust="spacing" textLength="129.835" x="27" y="327.6657">contactInfo: String</text><line style="stroke:#181818;stroke-width:0.5;" x1="8" x2="201.1074" y1="334.9675" y2="334.9675"/><ellipse cx="18" cy="348.6159" fill="#84BE84" rx="3" ry="3" style="stroke:#038048;stroke-width:1;"/><text fill="#000000" font-family="sans-serif" font-size="14" lengthAdjust="spacing" textLength="169.1074" x="27" y="351.9626">getEmployeeID(): String</text><ellipse cx="18" cy="364.9128" fill="#84BE84" rx="3" ry="3" style="stroke:#038048;stroke-width:1;"/><text fill="#000000" font-family="sans-serif" font-size="14" lengthAdjust="spacing" textLength="126.1641" x="27" y="368.2595">getName(): String</text><ellipse cx="18" cy="381.2097" fill="#84BE84" rx="3" ry="3" style="stroke:#038048;stroke-width:1;"/><text fill="#000000" font-family="sans-serif" font-size="14" lengthAdjust="spacing" textLength="115.6572" x="27" y="384.5564">getRole(): String</text><ellipse cx="18" cy="397.5066" fill="#84BE84" rx="3" ry="3" style="stroke:#038048;stroke-width:1;"/><text fill="#000000" font-family="sans-serif" font-size="14" lengthAdjust="spacing" textLength="165.8262" x="27" y="400.8532">getContactInfo(): String</text></g><!--class Customer--><g class="entity" data-entity="Customer" data-source-line="21" data-uid="ent0004" id="entity_Customer"><rect fill="#F1F1F1" height="178.375" rx="2.5" ry="2.5" style="stroke:#181818;stroke-width:0.5;" width="193.7744" x="236.67" y="229.78"/><ellipse cx="295.3053" cy="245.78" fill="#ADD1B2" rx="11" ry="11" style="stroke:#181818;stroke-width:1;"/><path d="M298.274,251.4206 Q297.6959,251.7175 297.0553,251.8581 Q296.4146,252.0144 295.7115,252.0144 Q293.2115,252.0144 291.8834,250.3737 Q290.5709,248.7175 290.5709,245.5925 Q290.5709,242.4675 291.8834,240.8112 Q293.2115,239.155 295.7115,239.155 Q296.4146,239.155 297.0553,239.3112 Q297.7115,239.4675 298.274,239.7644 L298.274,242.4831 Q297.649,241.905 297.0553,241.6394 Q296.4615,241.3581 295.8365,241.3581 Q294.4928,241.3581 293.8053,242.4362 Q293.1178,243.4987 293.1178,245.5925 Q293.1178,247.6862 293.8053,248.7644 Q294.4928,249.8269 295.8365,249.8269 Q296.4615,249.8269 297.0553,249.5612 Q297.649,249.28 298.274,248.7019 L298.274,251.4206 Z " fill="#000000"/><text fill="#000000" font-family="sans-serif" font-size="14" lengthAdjust="spacing" textLength="68.0039" x="315.8053" y="250.6267">Customer</text><line style="stroke:#181818;stroke-width:0.5;" x1="237.67" x2="429.4444" y1="261.78" y2="261.78"/><rect fill="none" height="6" style="stroke:#C82930;stroke-width:1;" width="6" x="244.67" y="272.4284"/><text fill="#000000" font-family="sans-serif" font-size="14" lengthAdjust="spacing" textLength="131.7832" x="256.67" y="278.7751">customerID: String</text><rect fill="none" height="6" style="stroke:#C82930;stroke-width:1;" width="6" x="244.67" y="288.7253"/><text fill="#000000" font-family="sans-serif" font-size="14" lengthAdjust="spacing" textLength="90.6514" x="256.67" y="295.072">name: String</text><rect fill="none" height="6" style="stroke:#C82930;stroke-width:1;" width="6" x="244.67" y="305.0222"/><text fill="#000000" font-family="sans-serif" font-size="14" lengthAdjust="spacing" textLength="106.2578" x="256.67" y="311.3689">address: String</text><rect fill="none" height="6" style="stroke:#C82930;stroke-width:1;" width="6" x="244.67" y="321.3191"/><text fill="#000000" font-family="sans-serif" font-size="14" lengthAdjust="spacing" textLength="129.835" x="256.67" y="327.6657">contactInfo: String</text><line style="stroke:#181818;stroke-width:0.5;" x1="237.67" x2="429.4444" y1="334.9675" y2="334.9675"/><ellipse cx="247.67" cy="348.6159" fill="#84BE84" rx="3" ry="3" style="stroke:#038048;stroke-width:1;"/><text fill="#000000" font-family="sans-serif" font-size="14" lengthAdjust="spacing" textLength="167.7744" x="256.67" y="351.9626">getCustomerID(): String</text><ellipse cx="247.67" cy="364.9128" fill="#84BE84" rx="3" ry="3" style="stroke:#038048;stroke-width:1;"/><text fill="#000000" font-family="sans-serif" font-size="14" lengthAdjust="spacing" textLength="126.1641" x="256.67" y="368.2595">getName(): String</text><ellipse cx="247.67" cy="381.2097" fill="#84BE84" rx="3" ry="3" style="stroke:#038048;stroke-width:1;"/><text fill="#000000" font-family="sans-serif" font-size="14" lengthAdjust="spacing" textLength="141.1689" x="256.67" y="384.5564">getAddress(): String</text><ellipse cx="247.67" cy="397.5066" fill="#84BE84" rx="3" ry="3" style="stroke:#038048;stroke-width:1;"/><text fill="#000000" font-family="sans-serif" font-size="14" lengthAdjust="spacing" textLength="165.8262" x="256.67" y="400.8532">getContactInfo(): String</text></g><!--class Vehicle--><g class="entity" data-entity="Vehicle" data-source-line="32" data-uid="ent0005" id="entity_Vehicle"><rect fill="#F1F1F1" height="178.375" rx="2.5" ry="2.5" style="stroke:#181818;stroke-width:0.5;" width="250.2666" x="465.42" y="229.78"/><ellipse cx="560.7266" cy="245.78" fill="#ADD1B2" rx="11" ry="11" style="stroke:#181818;stroke-width:1;"/><path d="M563.6954,251.4206 Q563.1173,251.7175 562.4766,251.8581 Q561.836,252.0144 561.1329,252.0144 Q558.6329,252.0144 557.3048,250.3737 Q555.9923,248.7175 555.9923,245.5925 Q555.9923,242.4675 557.3048,240.8112 Q558.6329,239.155 561.1329,239.155 Q561.836,239.155 562.4766,239.3112 Q563.1329,239.4675 563.6954,239.7644 L563.6954,242.4831 Q563.0704,241.905 562.4766,241.6394 Q561.8829,241.3581 561.2579,241.3581 Q559.9141,241.3581 559.2266,242.4362 Q558.5391,243.4987 558.5391,245.5925 Q558.5391,247.6862 559.2266,248.7644 Q559.9141,249.8269 561.2579,249.8269 Q561.8829,249.8269 562.4766,249.5612 Q563.0704,249.28 563.6954,248.7019 L563.6954,251.4206 Z " fill="#000000"/><text fill="#000000" font-family="sans-serif" font-size="14" lengthAdjust="spacing" textLength="51.1533" x="581.2266" y="250.6267">Vehicle</text><line style="stroke:#181818;stroke-width:0.5;" x1="466.42" x2="714.6866" y1="261.78" y2="261.78"/><rect fill="none" height="6" style="stroke:#C82930;stroke-width:1;" width="6" x="473.42" y="272.4284"/><text fill="#000000" font-family="sans-serif" font-size="14" lengthAdjust="spacing" textLength="115.7188" x="485.42" y="278.7751">vehicleID: String</text><rect fill="none" height="6" style="stroke:#C82930;stroke-width:1;" width="6" x="473.42" y="288.7253"/><text fill="#000000" font-family="sans-serif" font-size="14" lengthAdjust="spacing" textLength="82.2227" x="485.42" y="295.072">type: String</text><rect fill="none" height="6" style="stroke:#C82930;stroke-width:1;" width="6" x="473.42" y="305.0222"/><text fill="#000000" font-family="sans-serif" font-size="14" lengthAdjust="spacing" textLength="86.5225" x="485.42" y="311.3689">capacity: int</text><rect fill="none" height="6" style="stroke:#C82930;stroke-width:1;" width="6" x="473.42" y="321.3191"/><text fill="#000000" font-family="sans-serif" font-size="14" lengthAdjust="spacing" textLength="191.9121" x="485.42" y="327.6657">maintenanceRecord: String</text><line style="stroke:#181818;stroke-width:0.5;" x1="466.42" x2="714.6866" y1="334.9675" y2="334.9675"/><ellipse cx="476.42" cy="348.6159" fill="#84BE84" rx="3" ry="3" style="stroke:#038048;stroke-width:1;"/><text fill="#000000" font-family="sans-serif" font-size="14" lengthAdjust="spacing" textLength="150.9238" x="485.42" y="351.9626">getVehicleID(): String</text><ellipse cx="476.42" cy="364.9128" fill="#84BE84" rx="3" ry="3" style="stroke:#038048;stroke-width:1;"/><text fill="#000000" font-family="sans-serif" font-size="14" lengthAdjust="spacing" textLength="119.1982" x="485.42" y="368.2595">getType(): String</text><ellipse cx="476.42" cy="381.2097" fill="#84BE84" rx="3" ry="3" style="stroke:#038048;stroke-width:1;"/><text fill="#000000" font-family="sans-serif" font-size="14" lengthAdjust="spacing" textLength="122.5137" x="485.42" y="384.5564">getCapacity(): int</text><ellipse cx="476.42" cy="397.5066" fill="#84BE84" rx="3" ry="3" style="stroke:#038048;stroke-width:1;"/><text fill="#000000" font-family="sans-serif" font-size="14" lengthAdjust="spacing" textLength="224.2666" x="485.42" y="400.8532">getMaintenanceRecord(): String</text></g><!--class Route--><g class="entity" data-entity="Route" data-source-line="43" data-uid="ent0006" id="entity_Route"><rect fill="#F1F1F1" height="178.375" rx="2.5" ry="2.5" style="stroke:#181818;stroke-width:0.5;" width="191.1973" x="494.96" y="485.15"/><ellipse cx="565.6744" cy="501.15" fill="#ADD1B2" rx="11" ry="11" style="stroke:#181818;stroke-width:1;"/><path d="M568.6431,506.7906 Q568.065,507.0875 567.4244,507.2281 Q566.7837,507.3844 566.0806,507.3844 Q563.5806,507.3844 562.2525,505.7438 Q560.94,504.0875 560.94,500.9625 Q560.94,497.8375 562.2525,496.1813 Q563.5806,494.525 566.0806,494.525 Q566.7837,494.525 567.4244,494.6813 Q568.0806,494.8375 568.6431,495.1344 L568.6431,497.8531 Q568.0181,497.275 567.4244,497.0094 Q566.8306,496.7281 566.2056,496.7281 Q564.8619,496.7281 564.1744,497.8063 Q563.4869,498.8688 563.4869,500.9625 Q563.4869,503.0563 564.1744,504.1344 Q564.8619,505.1969 566.2056,505.1969 Q566.8306,505.1969 567.4244,504.9313 Q568.0181,504.65 568.6431,504.0719 L568.6431,506.7906 Z " fill="#000000"/><text fill="#000000" font-family="sans-serif" font-size="14" lengthAdjust="spacing" textLength="41.2686" x="586.1744" y="505.9967">Route</text><line style="stroke:#181818;stroke-width:0.5;" x1="495.96" x2="685.1573" y1="517.15" y2="517.15"/><rect fill="none" height="6" style="stroke:#C82930;stroke-width:1;" width="6" x="502.96" y="527.7984"/><text fill="#000000" font-family="sans-serif" font-size="14" lengthAdjust="spacing" textLength="103.1543" x="514.96" y="534.1451">routeID: String</text><rect fill="none" height="6" style="stroke:#C82930;stroke-width:1;" width="6" x="502.96" y="544.0953"/><text fill="#000000" font-family="sans-serif" font-size="14" lengthAdjust="spacing" textLength="90.8086" x="514.96" y="550.442">origin: String</text><rect fill="none" height="6" style="stroke:#C82930;stroke-width:1;" width="6" x="502.96" y="560.3922"/><text fill="#000000" font-family="sans-serif" font-size="14" lengthAdjust="spacing" textLength="129.3906" x="514.96" y="566.7389">destination: String</text><rect fill="none" height="6" style="stroke:#C82930;stroke-width:1;" width="6" x="502.96" y="576.6891"/><text fill="#000000" font-family="sans-serif" font-size="14" lengthAdjust="spacing" textLength="116.2041" x="514.96" y="583.0357">distance: double</text><line style="stroke:#181818;stroke-width:0.5;" x1="495.96" x2="685.1573" y1="590.3375" y2="590.3375"/><ellipse cx="505.96" cy="603.9859" fill="#84BE84" rx="3" ry="3" style="stroke:#038048;stroke-width:1;"/><text fill="#000000" font-family="sans-serif" font-size="14" lengthAdjust="spacing" textLength="141.0391" x="514.96" y="607.3326">getRouteID(): String</text><ellipse cx="505.96" cy="620.2828" fill="#84BE84" rx="3" ry="3" style="stroke:#038048;stroke-width:1;"/><text fill="#000000" font-family="sans-serif" font-size="14" lengthAdjust="spacing" textLength="127.1758" x="514.96" y="623.6295">getOrigin(): String</text><ellipse cx="505.96" cy="636.5797" fill="#84BE84" rx="3" ry="3" style="stroke:#038048;stroke-width:1;"/><text fill="#000000" font-family="sans-serif" font-size="14" lengthAdjust="spacing" textLength="165.1973" x="514.96" y="639.9264">getDestination(): String</text><ellipse cx="505.96" cy="652.8766" fill="#84BE84" rx="3" ry="3" style="stroke:#038048;stroke-width:1;"/><text fill="#000000" font-family="sans-serif" font-size="14" lengthAdjust="spacing" textLength="152.0107" x="514.96" y="656.2232">getDistance(): double</text></g><!--link TransportationCompany to Employee--><g class="link" data-entity-1="TransportationCompany" data-entity-2="Employee" data-source-line="54" data-uid="lnk7" id="link_TransportationCompany_Employee"><path codeLine="54" d="M360.29,140.02 C316.37,166.47 264.76,198.66 219.55,229.78 C213.96,233.63 208.26,237.65 202.55,241.76" fill="none" id="TransportationCompany-Employee" style="stroke:#181818;stroke-width:1;"/><text fill="#000000" font-family="sans-serif" font-size="13" lengthAdjust="spacing" textLength="54.9453" x="285.55" y="195.8469">employs</text><text fill="#000000" font-family="sans-serif" font-size="13" lengthAdjust="spacing" textLength="8.271" x="344.5696" y="140.9567">1</text><text fill="#000000" font-family="sans-serif" font-size="13" lengthAdjust="spacing" textLength="6.5" x="209.9853" y="232.6111">*</text></g><!--link TransportationCompany to Vehicle--><g class="link" data-entity-1="TransportationCompany" data-entity-2="Vehicle" data-source-line="55" data-uid="lnk8" id="link_TransportationCompany_Vehicle"><path codeLine="55" d="M500.78,152.99 C513.9,177.1 528.68,204.26 542.4,229.47" fill="none" id="TransportationCompany-Vehicle" style="stroke:#181818;stroke-width:1;"/><text fill="#000000" font-family="sans-serif" font-size="13" lengthAdjust="spacing" textLength="33.5981" x="526.55" y="195.8469">owns</text><text fill="#000000" font-family="sans-serif" font-size="13" lengthAdjust="spacing" textLength="8.271" x="496.1503" y="172.7454">1</text><text fill="#000000" font-family="sans-serif" font-size="13" lengthAdjust="spacing" textLength="6.5" x="532.3436" y="218.8127">*</text></g><!--link TransportationCompany to Customer--><g class="link" data-entity-1="TransportationCompany" data-entity-2="Customer" data-source-line="56" data-uid="lnk9" id="link_TransportationCompany_Customer"><path codeLine="56" d="M422.63,152.99 C409.61,177.1 394.95,204.26 381.33,229.47" fill="none" id="TransportationCompany-Customer" style="stroke:#181818;stroke-width:1;"/><text fill="#000000" font-family="sans-serif" font-size="13" lengthAdjust="spacing" textLength="22.9785" x="405.55" y="195.8469">has</text><text fill="#000000" font-family="sans-serif" font-size="13" lengthAdjust="spacing" textLength="8.271" x="410.5516" y="172.7454">1</text><text fill="#000000" font-family="sans-serif" font-size="13" lengthAdjust="spacing" textLength="6.5" x="378.9178" y="218.8127">*</text></g><!--link TransportationCompany to Route--><g class="link" data-entity-1="TransportationCompany" data-entity-2="Route" data-source-line="57" data-uid="lnk10" id="link_TransportationCompany_Route"><path codeLine="57" d="M562.6,107.7 C623.7,129.69 696.71,167.61 733.55,229.78 C773.97,297.98 761.24,333.87 733.55,408.15 C723.15,436.06 705.69,462.38 686.46,485.47" fill="none" id="TransportationCompany-Route" style="stroke:#181818;stroke-width:1;"/><text fill="#000000" font-family="sans-serif" font-size="13" lengthAdjust="spacing" textLength="57.3828" x="759.55" y="323.5369">operates</text><text fill="#000000" font-family="sans-serif" font-size="13" lengthAdjust="spacing" textLength="8.271" x="570.3242" y="106.2632">1</text><text fill="#000000" font-family="sans-serif" font-size="13" lengthAdjust="spacing" textLength="6.5" x="688.7563" y="473.9601">*</text></g><!--link Vehicle to Route--><g class="link" data-entity-1="Vehicle" data-entity-2="Route" data-source-line="58" data-uid="lnk11" id="link_Vehicle_Route"><path codeLine="58" d="M590.55,408.59 C590.55,433.27 590.55,460.09 590.55,484.77" fill="none" id="Vehicle-Route" style="stroke:#181818;stroke-width:1;"/><text fill="#000000" font-family="sans-serif" font-size="13" lengthAdjust="spacing" textLength="75.0483" x="591.55" y="451.2169">assigned to</text><text fill="#000000" font-family="sans-serif" font-size="13" lengthAdjust="spacing" textLength="8.271" x="582.2539" y="428.0979">1</text><text fill="#000000" font-family="sans-serif" font-size="13" lengthAdjust="spacing" textLength="6.5" x="584.3302" y="474.1071">*</text></g><!--link Employee to Route--><g class="link" data-entity-1="Employee" data-entity-2="Route" data-source-line="59" data-uid="lnk12" id="link_Employee_Route"><path codeLine="59" d="M202.3,397.3 C208.05,401.1 213.82,404.75 219.55,408.15 C308.63,461.13 417.74,507.74 494.5,537.82" fill="none" id="Employee-Route" style="stroke:#181818;stroke-width:1;"/><text fill="#000000" font-family="sans-serif" font-size="13" lengthAdjust="spacing" textLength="75.0483" x="297.55" y="451.2169">assigned to</text><text fill="#000000" font-family="sans-serif" font-size="13" lengthAdjust="spacing" textLength="8.271" x="210.1003" y="399.7951">1</text><text fill="#000000" font-family="sans-serif" font-size="13" lengthAdjust="spacing" textLength="6.5" x="480.3174" y="531.2472">*</text></g><!--SRC=[dLGzRuCm4Dtv5HPJFyJGbQqY6JAabT8ekskkn1BS8VlI2bNzxpN4G0fkcuG9ltUyTq_dGvNIMh4r4crDXYLhmeogMc8ZFYFXdaIWh20LBsmq5XwIUMx0sWcg25agNk4R_M3kHG7yv5HkRkVuur4gH6MZtWdz5KMgwtfPrIKr04EZu87LOj9O886X4YvfVpbeXphzBTp6kLoHB3jOfWhCa4nvu9naLymc6-Gl2NVzv7QmrweS1_T-FC_ISLFFXYHhgJGtgT387gkaUmUKg603Yam-RsZNEuIwtJgRO0hlrNAzMqUifuQXa1iwy1ZHjATPG3Awq3W1Sx2iiLl5AQCjjwQfoEdmMiBfHUlaGocUEuyGinYDWhHtQpdlvyA5_nNnGooIHCHtyRYMgLz8-_yt_OL81NtW6VN3WgHYBy-eFyx2gTTW98EDUiD0ZPkTBX1omHGDMVwk-mO0]--></g></svg>