<svg xmlns="http://www.w3.org/2000/svg" xmlns:xlink="http://www.w3.org/1999/xlink" contentStyleType="text/css" data-diagram-type="CLASS" height="1958px" preserveAspectRatio="none" style="width:582px;height:1958px;background:#FFFFFF;" version="1.1" viewBox="0 0 582 1958" width="582px" zoomAndPan="magnify"><defs/><g><!--class School--><g class="entity" data-entity="School" data-source-line="1" data-uid="ent0002" id="entity_School"><rect fill="#F1F1F1" height="194.6719" rx="2.5" ry="2.5" style="stroke:#181818;stroke-width:0.5;" width="238.502" x="236.02" y="7"/><ellipse cx="327.7822" cy="23" fill="#ADD1B2" rx="11" ry="11" style="stroke:#181818;stroke-width:1;"/><path d="M330.751,28.6406 Q330.1728,28.9375 329.5322,29.0781 Q328.8916,29.2344 328.1885,29.2344 Q325.6885,29.2344 324.3603,27.5938 Q323.0478,25.9375 323.0478,22.8125 Q323.0478,19.6875 324.3603,18.0313 Q325.6885,16.375 328.1885,16.375 Q328.8916,16.375 329.5322,16.5313 Q330.1885,16.6875 330.751,16.9844 L330.751,19.7031 Q330.126,19.125 329.5322,18.8594 Q328.9385,18.5781 328.3135,18.5781 Q326.9697,18.5781 326.2822,19.6563 Q325.5947,20.7188 325.5947,22.8125 Q325.5947,24.9063 326.2822,25.9844 Q326.9697,27.0469 328.3135,27.0469 Q328.9385,27.0469 329.5322,26.7813 Q330.126,26.5 330.751,25.9219 L330.751,28.6406 Z " fill="#000000"/><text fill="#000000" font-family="sans-serif" font-size="14" lengthAdjust="spacing" textLength="46.4775" x="348.2822" y="27.8467">School</text><line style="stroke:#181818;stroke-width:0.5;" x1="237.02" x2="473.522" y1="39" y2="39"/><rect fill="none" height="6" style="stroke:#C82930;stroke-width:1;" width="6" x="244.02" y="49.6484"/><text fill="#000000" font-family="sans-serif" font-size="14" lengthAdjust="spacing" textLength="90.6514" x="256.02" y="55.9951">name: String</text><rect fill="none" height="6" style="stroke:#C82930;stroke-width:1;" width="6" x="244.02" y="65.9453"/><text fill="#000000" font-family="sans-serif" font-size="14" lengthAdjust="spacing" textLength="106.2578" x="256.02" y="72.292">address: String</text><rect fill="none" height="6" style="stroke:#C82930;stroke-width:1;" width="6" x="244.02" y="82.2422"/><text fill="#000000" font-family="sans-serif" font-size="14" lengthAdjust="spacing" textLength="150.999" x="256.02" y="88.5889">phoneNumber: String</text><line style="stroke:#181818;stroke-width:0.5;" x1="237.02" x2="473.522" y1="95.8906" y2="95.8906"/><ellipse cx="247.02" cy="109.5391" fill="#84BE84" rx="3" ry="3" style="stroke:#038048;stroke-width:1;"/><text fill="#000000" font-family="sans-serif" font-size="14" lengthAdjust="spacing" textLength="126.1641" x="256.02" y="112.8857">getName(): String</text><ellipse cx="247.02" cy="125.8359" fill="#84BE84" rx="3" ry="3" style="stroke:#038048;stroke-width:1;"/><text fill="#000000" font-family="sans-serif" font-size="14" lengthAdjust="spacing" textLength="154.1982" x="256.02" y="129.1826">setName(String): void</text><ellipse cx="247.02" cy="142.1328" fill="#84BE84" rx="3" ry="3" style="stroke:#038048;stroke-width:1;"/><text fill="#000000" font-family="sans-serif" font-size="14" lengthAdjust="spacing" textLength="141.1689" x="256.02" y="145.4795">getAddress(): String</text><ellipse cx="247.02" cy="158.4297" fill="#84BE84" rx="3" ry="3" style="stroke:#038048;stroke-width:1;"/><text fill="#000000" font-family="sans-serif" font-size="14" lengthAdjust="spacing" textLength="169.2031" x="256.02" y="161.7764">setAddress(String): void</text><ellipse cx="247.02" cy="174.7266" fill="#84BE84" rx="3" ry="3" style="stroke:#038048;stroke-width:1;"/><text fill="#000000" font-family="sans-serif" font-size="14" lengthAdjust="spacing" textLength="184.4678" x="256.02" y="178.0732">getPhoneNumber(): String</text><ellipse cx="247.02" cy="191.0234" fill="#84BE84" rx="3" ry="3" style="stroke:#038048;stroke-width:1;"/><text fill="#000000" font-family="sans-serif" font-size="14" lengthAdjust="spacing" textLength="212.502" x="256.02" y="194.3701">setPhoneNumber(String): void</text></g><!--class Department--><g class="entity" data-entity="Department" data-source-line="13" data-uid="ent0003" id="entity_Department"><rect fill="#F1F1F1" height="145.7813" rx="2.5" ry="2.5" style="stroke:#181818;stroke-width:0.5;" width="190.4043" x="260.07" y="278.68"/><ellipse cx="308.6633" cy="294.68" fill="#ADD1B2" rx="11" ry="11" style="stroke:#181818;stroke-width:1;"/><path d="M311.632,300.3206 Q311.0539,300.6175 310.4133,300.7581 Q309.7726,300.9144 309.0695,300.9144 Q306.5695,300.9144 305.2414,299.2738 Q303.9289,297.6175 303.9289,294.4925 Q303.9289,291.3675 305.2414,289.7113 Q306.5695,288.055 309.0695,288.055 Q309.7726,288.055 310.4133,288.2113 Q311.0695,288.3675 311.632,288.6644 L311.632,291.3831 Q311.007,290.805 310.4133,290.5394 Q309.8195,290.2581 309.1945,290.2581 Q307.8508,290.2581 307.1633,291.3363 Q306.4758,292.3988 306.4758,294.4925 Q306.4758,296.5863 307.1633,297.6644 Q307.8508,298.7269 309.1945,298.7269 Q309.8195,298.7269 310.4133,298.4613 Q311.007,298.18 311.632,297.6019 L311.632,300.3206 Z " fill="#000000"/><text fill="#000000" font-family="sans-serif" font-size="14" lengthAdjust="spacing" textLength="84.7178" x="329.1633" y="299.5267">Department</text><line style="stroke:#181818;stroke-width:0.5;" x1="261.07" x2="449.4743" y1="310.68" y2="310.68"/><rect fill="none" height="6" style="stroke:#C82930;stroke-width:1;" width="6" x="268.07" y="321.3284"/><text fill="#000000" font-family="sans-serif" font-size="14" lengthAdjust="spacing" textLength="90.6514" x="280.07" y="327.6751">name: String</text><rect fill="none" height="6" style="stroke:#C82930;stroke-width:1;" width="6" x="268.07" y="337.6253"/><text fill="#000000" font-family="sans-serif" font-size="14" lengthAdjust="spacing" textLength="100.8027" x="280.07" y="343.972">head: Teacher</text><line style="stroke:#181818;stroke-width:0.5;" x1="261.07" x2="449.4743" y1="351.2738" y2="351.2738"/><ellipse cx="271.07" cy="364.9222" fill="#84BE84" rx="3" ry="3" style="stroke:#038048;stroke-width:1;"/><text fill="#000000" font-family="sans-serif" font-size="14" lengthAdjust="spacing" textLength="126.1641" x="280.07" y="368.2689">getName(): String</text><ellipse cx="271.07" cy="381.2191" fill="#84BE84" rx="3" ry="3" style="stroke:#038048;stroke-width:1;"/><text fill="#000000" font-family="sans-serif" font-size="14" lengthAdjust="spacing" textLength="154.1982" x="280.07" y="384.5657">setName(String): void</text><ellipse cx="271.07" cy="397.5159" fill="#84BE84" rx="3" ry="3" style="stroke:#038048;stroke-width:1;"/><text fill="#000000" font-family="sans-serif" font-size="14" lengthAdjust="spacing" textLength="136.3701" x="280.07" y="400.8626">getHead(): Teacher</text><ellipse cx="271.07" cy="413.8128" fill="#84BE84" rx="3" ry="3" style="stroke:#038048;stroke-width:1;"/><text fill="#000000" font-family="sans-serif" font-size="14" lengthAdjust="spacing" textLength="164.4043" x="280.07" y="417.1595">setHead(Teacher): void</text></g><!--class Course--><g class="entity" data-entity="Course" data-source-line="22" data-uid="ent0004" id="entity_Course"><rect fill="#F1F1F1" height="292.4531" rx="2.5" ry="2.5" style="stroke:#181818;stroke-width:0.5;" width="266.5498" x="7" y="534.05"/><ellipse cx="111.5864" cy="550.05" fill="#ADD1B2" rx="11" ry="11" style="stroke:#181818;stroke-width:1;"/><path d="M114.5552,555.6906 Q113.9771,555.9875 113.3364,556.1281 Q112.6958,556.2844 111.9927,556.2844 Q109.4927,556.2844 108.1646,554.6438 Q106.8521,552.9875 106.8521,549.8625 Q106.8521,546.7375 108.1646,545.0813 Q109.4927,543.425 111.9927,543.425 Q112.6958,543.425 113.3364,543.5813 Q113.9927,543.7375 114.5552,544.0344 L114.5552,546.7531 Q113.9302,546.175 113.3364,545.9094 Q112.7427,545.6281 112.1177,545.6281 Q110.7739,545.6281 110.0864,546.7063 Q109.3989,547.7688 109.3989,549.8625 Q109.3989,551.9563 110.0864,553.0344 Q110.7739,554.0969 112.1177,554.0969 Q112.7427,554.0969 113.3364,553.8313 Q113.9302,553.55 114.5552,552.9719 L114.5552,555.6906 Z " fill="#000000"/><text fill="#000000" font-family="sans-serif" font-size="14" lengthAdjust="spacing" textLength="48.877" x="132.0864" y="554.8967">Course</text><line style="stroke:#181818;stroke-width:0.5;" x1="8" x2="272.5498" y1="566.05" y2="566.05"/><rect fill="none" height="6" style="stroke:#C82930;stroke-width:1;" width="6" x="15" y="576.6984"/><text fill="#000000" font-family="sans-serif" font-size="14" lengthAdjust="spacing" textLength="112.6563" x="27" y="583.0451">courseID: String</text><rect fill="none" height="6" style="stroke:#C82930;stroke-width:1;" width="6" x="15" y="592.9953"/><text fill="#000000" font-family="sans-serif" font-size="14" lengthAdjust="spacing" textLength="78.3193" x="27" y="599.342">title: String</text><rect fill="none" height="6" style="stroke:#C82930;stroke-width:1;" width="6" x="15" y="609.2922"/><text fill="#000000" font-family="sans-serif" font-size="14" lengthAdjust="spacing" textLength="128.7891" x="27" y="615.6389">description: String</text><rect fill="none" height="6" style="stroke:#C82930;stroke-width:1;" width="6" x="15" y="625.5891"/><text fill="#000000" font-family="sans-serif" font-size="14" lengthAdjust="spacing" textLength="108.7666" x="27" y="631.9357">creditHours: int</text><rect fill="none" height="6" style="stroke:#C82930;stroke-width:1;" width="6" x="15" y="641.8859"/><text fill="#000000" font-family="sans-serif" font-size="14" lengthAdjust="spacing" textLength="176.709" x="27" y="648.2326">department: Department</text><line style="stroke:#181818;stroke-width:0.5;" x1="8" x2="272.5498" y1="655.5344" y2="655.5344"/><ellipse cx="18" cy="669.1828" fill="#84BE84" rx="3" ry="3" style="stroke:#038048;stroke-width:1;"/><text fill="#000000" font-family="sans-serif" font-size="14" lengthAdjust="spacing" textLength="148.6475" x="27" y="672.5295">getCourseID(): String</text><ellipse cx="18" cy="685.4797" fill="#84BE84" rx="3" ry="3" style="stroke:#038048;stroke-width:1;"/><text fill="#000000" font-family="sans-serif" font-size="14" lengthAdjust="spacing" textLength="176.6816" x="27" y="688.8264">setCourseID(String): void</text><ellipse cx="18" cy="701.7766" fill="#84BE84" rx="3" ry="3" style="stroke:#038048;stroke-width:1;"/><text fill="#000000" font-family="sans-serif" font-size="14" lengthAdjust="spacing" textLength="115.2949" x="27" y="705.1232">getTitle(): String</text><ellipse cx="18" cy="718.0734" fill="#84BE84" rx="3" ry="3" style="stroke:#038048;stroke-width:1;"/><text fill="#000000" font-family="sans-serif" font-size="14" lengthAdjust="spacing" textLength="143.3291" x="27" y="721.4201">setTitle(String): void</text><ellipse cx="18" cy="734.3703" fill="#84BE84" rx="3" ry="3" style="stroke:#038048;stroke-width:1;"/><text fill="#000000" font-family="sans-serif" font-size="14" lengthAdjust="spacing" textLength="164.5957" x="27" y="737.717">getDescription(): String</text><ellipse cx="18" cy="750.6672" fill="#84BE84" rx="3" ry="3" style="stroke:#038048;stroke-width:1;"/><text fill="#000000" font-family="sans-serif" font-size="14" lengthAdjust="spacing" textLength="192.6299" x="27" y="754.0139">setDescription(String): void</text><ellipse cx="18" cy="766.9641" fill="#84BE84" rx="3" ry="3" style="stroke:#038048;stroke-width:1;"/><text fill="#000000" font-family="sans-serif" font-size="14" lengthAdjust="spacing" textLength="144.7578" x="27" y="770.3107">getCreditHours(): int</text><ellipse cx="18" cy="783.2609" fill="#84BE84" rx="3" ry="3" style="stroke:#038048;stroke-width:1;"/><text fill="#000000" font-family="sans-serif" font-size="14" lengthAdjust="spacing" textLength="172.792" x="27" y="786.6076">setCreditHours(int): void</text><ellipse cx="18" cy="799.5578" fill="#84BE84" rx="3" ry="3" style="stroke:#038048;stroke-width:1;"/><text fill="#000000" font-family="sans-serif" font-size="14" lengthAdjust="spacing" textLength="212.5156" x="27" y="802.9045">getDepartment(): Department</text><ellipse cx="18" cy="815.8547" fill="#84BE84" rx="3" ry="3" style="stroke:#038048;stroke-width:1;"/><text fill="#000000" font-family="sans-serif" font-size="14" lengthAdjust="spacing" textLength="240.5498" x="27" y="819.2014">setDepartment(Department): void</text></g><!--class Class--><g class="entity" data-entity="Class" data-source-line="40" data-uid="ent0005" id="entity_Class"><rect fill="#F1F1F1" height="357.6406" rx="2.5" ry="2.5" style="stroke:#181818;stroke-width:0.5;" width="291.8496" x="144.35" y="936.1"/><ellipse cx="267.6088" cy="952.1" fill="#ADD1B2" rx="11" ry="11" style="stroke:#181818;stroke-width:1;"/><path d="M270.5775,957.7406 Q269.9994,958.0375 269.3588,958.1781 Q268.7182,958.3344 268.015,958.3344 Q265.515,958.3344 264.1869,956.6938 Q262.8744,955.0375 262.8744,951.9125 Q262.8744,948.7875 264.1869,947.1313 Q265.515,945.475 268.015,945.475 Q268.7182,945.475 269.3588,945.6313 Q270.015,945.7875 270.5775,946.0844 L270.5775,948.8031 Q269.9525,948.225 269.3588,947.9594 Q268.765,947.6781 268.14,947.6781 Q266.7963,947.6781 266.1088,948.7563 Q265.4213,949.8188 265.4213,951.9125 Q265.4213,954.0063 266.1088,955.0844 Q266.7963,956.1469 268.14,956.1469 Q268.765,956.1469 269.3588,955.8813 Q269.9525,955.6 270.5775,955.0219 L270.5775,957.7406 Z " fill="#000000"/><text fill="#000000" font-family="sans-serif" font-size="14" lengthAdjust="spacing" textLength="36.832" x="288.1088" y="956.9467">Class</text><line style="stroke:#181818;stroke-width:0.5;" x1="145.35" x2="435.1996" y1="968.1" y2="968.1"/><rect fill="none" height="6" style="stroke:#C82930;stroke-width:1;" width="6" x="152.35" y="978.7484"/><text fill="#000000" font-family="sans-serif" font-size="14" lengthAdjust="spacing" textLength="100.6113" x="164.35" y="985.0951">classID: String</text><rect fill="none" height="6" style="stroke:#C82930;stroke-width:1;" width="6" x="152.35" y="995.0453"/><text fill="#000000" font-family="sans-serif" font-size="14" lengthAdjust="spacing" textLength="104.8428" x="164.35" y="1001.392">course: Course</text><rect fill="none" height="6" style="stroke:#C82930;stroke-width:1;" width="6" x="152.35" y="1011.3422"/><text fill="#000000" font-family="sans-serif" font-size="14" lengthAdjust="spacing" textLength="119.4717" x="164.35" y="1017.6889">teacher: Teacher</text><rect fill="none" height="6" style="stroke:#C82930;stroke-width:1;" width="6" x="152.35" y="1027.6391"/><text fill="#000000" font-family="sans-serif" font-size="14" lengthAdjust="spacing" textLength="113.6885" x="164.35" y="1033.9857">schedule: String</text><rect fill="none" height="6" style="stroke:#C82930;stroke-width:1;" width="6" x="152.35" y="1043.9359"/><text fill="#000000" font-family="sans-serif" font-size="14" lengthAdjust="spacing" textLength="87.4727" x="164.35" y="1050.2826">room: String</text><rect fill="none" height="6" style="stroke:#C82930;stroke-width:1;" width="6" x="152.35" y="1060.2328"/><text fill="#000000" font-family="sans-serif" font-size="14" lengthAdjust="spacing" textLength="231.7041" x="164.35" y="1066.5795">enrolledStudents: List&lt;Student&gt;</text><line style="stroke:#181818;stroke-width:0.5;" x1="145.35" x2="435.1996" y1="1073.8813" y2="1073.8813"/><ellipse cx="155.35" cy="1087.5297" fill="#84BE84" rx="3" ry="3" style="stroke:#038048;stroke-width:1;"/><text fill="#000000" font-family="sans-serif" font-size="14" lengthAdjust="spacing" textLength="136.6025" x="164.35" y="1090.8764">getClassID(): String</text><ellipse cx="155.35" cy="1103.8266" fill="#84BE84" rx="3" ry="3" style="stroke:#038048;stroke-width:1;"/><text fill="#000000" font-family="sans-serif" font-size="14" lengthAdjust="spacing" textLength="164.6367" x="164.35" y="1107.1732">setClassID(String): void</text><ellipse cx="155.35" cy="1120.1234" fill="#84BE84" rx="3" ry="3" style="stroke:#038048;stroke-width:1;"/><text fill="#000000" font-family="sans-serif" font-size="14" lengthAdjust="spacing" textLength="140.834" x="164.35" y="1123.4701">getCourse(): Course</text><ellipse cx="155.35" cy="1136.4203" fill="#84BE84" rx="3" ry="3" style="stroke:#038048;stroke-width:1;"/><text fill="#000000" font-family="sans-serif" font-size="14" lengthAdjust="spacing" textLength="168.8682" x="164.35" y="1139.767">setCourse(Course): void</text><ellipse cx="155.35" cy="1152.7172" fill="#84BE84" rx="3" ry="3" style="stroke:#038048;stroke-width:1;"/><text fill="#000000" font-family="sans-serif" font-size="14" lengthAdjust="spacing" textLength="156.4473" x="164.35" y="1156.0639">getTeacher(): Teacher</text><ellipse cx="155.35" cy="1169.0141" fill="#84BE84" rx="3" ry="3" style="stroke:#038048;stroke-width:1;"/><text fill="#000000" font-family="sans-serif" font-size="14" lengthAdjust="spacing" textLength="184.4814" x="164.35" y="1172.3607">setTeacher(Teacher): void</text><ellipse cx="155.35" cy="1185.3109" fill="#84BE84" rx="3" ry="3" style="stroke:#038048;stroke-width:1;"/><text fill="#000000" font-family="sans-serif" font-size="14" lengthAdjust="spacing" textLength="149.1943" x="164.35" y="1188.6576">getSchedule(): String</text><ellipse cx="155.35" cy="1201.6078" fill="#84BE84" rx="3" ry="3" style="stroke:#038048;stroke-width:1;"/><text fill="#000000" font-family="sans-serif" font-size="14" lengthAdjust="spacing" textLength="177.2285" x="164.35" y="1204.9545">setSchedule(String): void</text><ellipse cx="155.35" cy="1217.9047" fill="#84BE84" rx="3" ry="3" style="stroke:#038048;stroke-width:1;"/><text fill="#000000" font-family="sans-serif" font-size="14" lengthAdjust="spacing" textLength="125.3574" x="164.35" y="1221.2514">getRoom(): String</text><ellipse cx="155.35" cy="1234.2016" fill="#84BE84" rx="3" ry="3" style="stroke:#038048;stroke-width:1;"/><text fill="#000000" font-family="sans-serif" font-size="14" lengthAdjust="spacing" textLength="153.3916" x="164.35" y="1237.5482">setRoom(String): void</text><ellipse cx="155.35" cy="1250.4984" fill="#84BE84" rx="3" ry="3" style="stroke:#038048;stroke-width:1;"/><text fill="#000000" font-family="sans-serif" font-size="14" lengthAdjust="spacing" textLength="186.293" x="164.35" y="1253.8451">addStudent(Student): void</text><ellipse cx="155.35" cy="1266.7953" fill="#84BE84" rx="3" ry="3" style="stroke:#038048;stroke-width:1;"/><text fill="#000000" font-family="sans-serif" font-size="14" lengthAdjust="spacing" textLength="213.4111" x="164.35" y="1270.142">removeStudent(Student): void</text><ellipse cx="155.35" cy="1283.0922" fill="#84BE84" rx="3" ry="3" style="stroke:#038048;stroke-width:1;"/><text fill="#000000" font-family="sans-serif" font-size="14" lengthAdjust="spacing" textLength="265.8496" x="164.35" y="1286.4389">getEnrolledStudents(): List&lt;Student&gt;</text></g><!--class Teacher--><g class="entity" data-entity="Teacher" data-source-line="62" data-uid="ent0006" id="entity_Teacher"><rect fill="#F1F1F1" height="357.6406" rx="2.5" ry="2.5" style="stroke:#181818;stroke-width:0.5;" width="266.5498" x="309" y="501.46"/><ellipse cx="409.6831" cy="517.46" fill="#ADD1B2" rx="11" ry="11" style="stroke:#181818;stroke-width:1;"/><path d="M412.6519,523.1006 Q412.0737,523.3975 411.4331,523.5381 Q410.7925,523.6944 410.0894,523.6944 Q407.5894,523.6944 406.2612,522.0538 Q404.9487,520.3975 404.9487,517.2725 Q404.9487,514.1475 406.2612,512.4913 Q407.5894,510.835 410.0894,510.835 Q410.7925,510.835 411.4331,510.9913 Q412.0894,511.1475 412.6519,511.4444 L412.6519,514.1631 Q412.0269,513.585 411.4331,513.3194 Q410.8394,513.0381 410.2144,513.0381 Q408.8706,513.0381 408.1831,514.1163 Q407.4956,515.1788 407.4956,517.2725 Q407.4956,519.3663 408.1831,520.4444 Q408.8706,521.5069 410.2144,521.5069 Q410.8394,521.5069 411.4331,521.2413 Q412.0269,520.96 412.6519,520.3819 L412.6519,523.1006 Z " fill="#000000"/><text fill="#000000" font-family="sans-serif" font-size="14" lengthAdjust="spacing" textLength="56.6836" x="430.1831" y="522.3067">Teacher</text><line style="stroke:#181818;stroke-width:0.5;" x1="310" x2="574.5498" y1="533.46" y2="533.46"/><rect fill="none" height="6" style="stroke:#C82930;stroke-width:1;" width="6" x="317" y="544.1084"/><text fill="#000000" font-family="sans-serif" font-size="14" lengthAdjust="spacing" textLength="119.4785" x="329" y="550.4551">teacherID: String</text><rect fill="none" height="6" style="stroke:#C82930;stroke-width:1;" width="6" x="317" y="560.4053"/><text fill="#000000" font-family="sans-serif" font-size="14" lengthAdjust="spacing" textLength="90.6514" x="329" y="566.752">name: String</text><rect fill="none" height="6" style="stroke:#C82930;stroke-width:1;" width="6" x="317" y="576.7022"/><text fill="#000000" font-family="sans-serif" font-size="14" lengthAdjust="spacing" textLength="150.999" x="329" y="583.0489">phoneNumber: String</text><rect fill="none" height="6" style="stroke:#C82930;stroke-width:1;" width="6" x="317" y="592.9991"/><text fill="#000000" font-family="sans-serif" font-size="14" lengthAdjust="spacing" textLength="89.5576" x="329" y="599.3457">email: String</text><rect fill="none" height="6" style="stroke:#C82930;stroke-width:1;" width="6" x="317" y="609.2959"/><text fill="#000000" font-family="sans-serif" font-size="14" lengthAdjust="spacing" textLength="176.709" x="329" y="615.6426">department: Department</text><rect fill="none" height="6" style="stroke:#C82930;stroke-width:1;" width="6" x="317" y="625.5928"/><text fill="#000000" font-family="sans-serif" font-size="14" lengthAdjust="spacing" textLength="193.8467" x="329" y="631.9395">classesTaught: List&lt;Class&gt;</text><line style="stroke:#181818;stroke-width:0.5;" x1="310" x2="574.5498" y1="639.2413" y2="639.2413"/><ellipse cx="320" cy="652.8897" fill="#84BE84" rx="3" ry="3" style="stroke:#038048;stroke-width:1;"/><text fill="#000000" font-family="sans-serif" font-size="14" lengthAdjust="spacing" textLength="156.4541" x="329" y="656.2364">getTeacherID(): String</text><ellipse cx="320" cy="669.1866" fill="#84BE84" rx="3" ry="3" style="stroke:#038048;stroke-width:1;"/><text fill="#000000" font-family="sans-serif" font-size="14" lengthAdjust="spacing" textLength="184.4883" x="329" y="672.5332">setTeacherID(String): void</text><ellipse cx="320" cy="685.4834" fill="#84BE84" rx="3" ry="3" style="stroke:#038048;stroke-width:1;"/><text fill="#000000" font-family="sans-serif" font-size="14" lengthAdjust="spacing" textLength="126.1641" x="329" y="688.8301">getName(): String</text><ellipse cx="320" cy="701.7803" fill="#84BE84" rx="3" ry="3" style="stroke:#038048;stroke-width:1;"/><text fill="#000000" font-family="sans-serif" font-size="14" lengthAdjust="spacing" textLength="154.1982" x="329" y="705.127">setName(String): void</text><ellipse cx="320" cy="718.0772" fill="#84BE84" rx="3" ry="3" style="stroke:#038048;stroke-width:1;"/><text fill="#000000" font-family="sans-serif" font-size="14" lengthAdjust="spacing" textLength="184.4678" x="329" y="721.4239">getPhoneNumber(): String</text><ellipse cx="320" cy="734.3741" fill="#84BE84" rx="3" ry="3" style="stroke:#038048;stroke-width:1;"/><text fill="#000000" font-family="sans-serif" font-size="14" lengthAdjust="spacing" textLength="212.502" x="329" y="737.7207">setPhoneNumber(String): void</text><ellipse cx="320" cy="750.6709" fill="#84BE84" rx="3" ry="3" style="stroke:#038048;stroke-width:1;"/><text fill="#000000" font-family="sans-serif" font-size="14" lengthAdjust="spacing" textLength="123.7031" x="329" y="754.0176">getEmail(): String</text><ellipse cx="320" cy="766.9678" fill="#84BE84" rx="3" ry="3" style="stroke:#038048;stroke-width:1;"/><text fill="#000000" font-family="sans-serif" font-size="14" lengthAdjust="spacing" textLength="151.7373" x="329" y="770.3145">setEmail(String): void</text><ellipse cx="320" cy="783.2647" fill="#84BE84" rx="3" ry="3" style="stroke:#038048;stroke-width:1;"/><text fill="#000000" font-family="sans-serif" font-size="14" lengthAdjust="spacing" textLength="212.5156" x="329" y="786.6114">getDepartment(): Department</text><ellipse cx="320" cy="799.5616" fill="#84BE84" rx="3" ry="3" style="stroke:#038048;stroke-width:1;"/><text fill="#000000" font-family="sans-serif" font-size="14" lengthAdjust="spacing" textLength="240.5498" x="329" y="802.9082">setDepartment(Department): void</text><ellipse cx="320" cy="815.8584" fill="#84BE84" rx="3" ry="3" style="stroke:#038048;stroke-width:1;"/><text fill="#000000" font-family="sans-serif" font-size="14" lengthAdjust="spacing" textLength="198.9873" x="329" y="819.2051">addClassTaught(Class): void</text><ellipse cx="320" cy="832.1553" fill="#84BE84" rx="3" ry="3" style="stroke:#038048;stroke-width:1;"/><text fill="#000000" font-family="sans-serif" font-size="14" lengthAdjust="spacing" textLength="226.1055" x="329" y="835.502">removeClassTaught(Class): void</text><ellipse cx="320" cy="848.4522" fill="#84BE84" rx="3" ry="3" style="stroke:#038048;stroke-width:1;"/><text fill="#000000" font-family="sans-serif" font-size="14" lengthAdjust="spacing" textLength="229.8379" x="329" y="851.7989">getClassesTaught(): List&lt;Class&gt;</text></g><!--class Student--><g class="entity" data-entity="Student" data-source-line="84" data-uid="ent0007" id="entity_Student"><rect fill="#F1F1F1" height="308.75" rx="2.5" ry="2.5" style="stroke:#181818;stroke-width:0.5;" width="282.0537" x="149.25" y="1642.41"/><ellipse cx="258.4712" cy="1658.41" fill="#ADD1B2" rx="11" ry="11" style="stroke:#181818;stroke-width:1;"/><path d="M261.4399,1664.0506 Q260.8618,1664.3475 260.2212,1664.4881 Q259.5806,1664.6444 258.8774,1664.6444 Q256.3774,1664.6444 255.0493,1663.0038 Q253.7368,1661.3475 253.7368,1658.2225 Q253.7368,1655.0975 255.0493,1653.4413 Q256.3774,1651.785 258.8774,1651.785 Q259.5806,1651.785 260.2212,1651.9413 Q260.8774,1652.0975 261.4399,1652.3944 L261.4399,1655.1131 Q260.8149,1654.535 260.2212,1654.2694 Q259.6274,1653.9881 259.0024,1653.9881 Q257.6587,1653.9881 256.9712,1655.0663 Q256.2837,1656.1288 256.2837,1658.2225 Q256.2837,1660.3163 256.9712,1661.3944 Q257.6587,1662.4569 259.0024,1662.4569 Q259.6274,1662.4569 260.2212,1662.1913 Q260.8149,1661.91 261.4399,1661.3319 L261.4399,1664.0506 Z " fill="#000000"/><text fill="#000000" font-family="sans-serif" font-size="14" lengthAdjust="spacing" textLength="55.1113" x="278.9712" y="1663.2567">Student</text><line style="stroke:#181818;stroke-width:0.5;" x1="150.25" x2="430.3037" y1="1674.41" y2="1674.41"/><rect fill="none" height="6" style="stroke:#C82930;stroke-width:1;" width="6" x="157.25" y="1685.0584"/><text fill="#000000" font-family="sans-serif" font-size="14" lengthAdjust="spacing" textLength="119.376" x="169.25" y="1691.4051">studentID: String</text><rect fill="none" height="6" style="stroke:#C82930;stroke-width:1;" width="6" x="157.25" y="1701.3553"/><text fill="#000000" font-family="sans-serif" font-size="14" lengthAdjust="spacing" textLength="90.6514" x="169.25" y="1707.702">name: String</text><rect fill="none" height="6" style="stroke:#C82930;stroke-width:1;" width="6" x="157.25" y="1717.6522"/><text fill="#000000" font-family="sans-serif" font-size="14" lengthAdjust="spacing" textLength="150.999" x="169.25" y="1723.9989">phoneNumber: String</text><rect fill="none" height="6" style="stroke:#C82930;stroke-width:1;" width="6" x="157.25" y="1733.9491"/><text fill="#000000" font-family="sans-serif" font-size="14" lengthAdjust="spacing" textLength="89.5576" x="169.25" y="1740.2957">email: String</text><rect fill="none" height="6" style="stroke:#C82930;stroke-width:1;" width="6" x="157.25" y="1750.2459"/><text fill="#000000" font-family="sans-serif" font-size="14" lengthAdjust="spacing" textLength="243.3594" x="169.25" y="1756.5926">enrolledClasses: List&lt;Enrollment&gt;</text><line style="stroke:#181818;stroke-width:0.5;" x1="150.25" x2="430.3037" y1="1763.8944" y2="1763.8944"/><ellipse cx="160.25" cy="1777.5428" fill="#84BE84" rx="3" ry="3" style="stroke:#038048;stroke-width:1;"/><text fill="#000000" font-family="sans-serif" font-size="14" lengthAdjust="spacing" textLength="154.8818" x="169.25" y="1780.8895">getStudentID(): String</text><ellipse cx="160.25" cy="1793.8397" fill="#84BE84" rx="3" ry="3" style="stroke:#038048;stroke-width:1;"/><text fill="#000000" font-family="sans-serif" font-size="14" lengthAdjust="spacing" textLength="182.916" x="169.25" y="1797.1864">setStudentID(String): void</text><ellipse cx="160.25" cy="1810.1366" fill="#84BE84" rx="3" ry="3" style="stroke:#038048;stroke-width:1;"/><text fill="#000000" font-family="sans-serif" font-size="14" lengthAdjust="spacing" textLength="126.1641" x="169.25" y="1813.4832">getName(): String</text><ellipse cx="160.25" cy="1826.4334" fill="#84BE84" rx="3" ry="3" style="stroke:#038048;stroke-width:1;"/><text fill="#000000" font-family="sans-serif" font-size="14" lengthAdjust="spacing" textLength="154.1982" x="169.25" y="1829.7801">setName(String): void</text><ellipse cx="160.25" cy="1842.7303" fill="#84BE84" rx="3" ry="3" style="stroke:#038048;stroke-width:1;"/><text fill="#000000" font-family="sans-serif" font-size="14" lengthAdjust="spacing" textLength="184.4678" x="169.25" y="1846.077">getPhoneNumber(): String</text><ellipse cx="160.25" cy="1859.0272" fill="#84BE84" rx="3" ry="3" style="stroke:#038048;stroke-width:1;"/><text fill="#000000" font-family="sans-serif" font-size="14" lengthAdjust="spacing" textLength="212.502" x="169.25" y="1862.3739">setPhoneNumber(String): void</text><ellipse cx="160.25" cy="1875.3241" fill="#84BE84" rx="3" ry="3" style="stroke:#038048;stroke-width:1;"/><text fill="#000000" font-family="sans-serif" font-size="14" lengthAdjust="spacing" textLength="123.7031" x="169.25" y="1878.6707">getEmail(): String</text><ellipse cx="160.25" cy="1891.6209" fill="#84BE84" rx="3" ry="3" style="stroke:#038048;stroke-width:1;"/><text fill="#000000" font-family="sans-serif" font-size="14" lengthAdjust="spacing" textLength="151.7373" x="169.25" y="1894.9676">setEmail(String): void</text><ellipse cx="160.25" cy="1907.9178" fill="#84BE84" rx="3" ry="3" style="stroke:#038048;stroke-width:1;"/><text fill="#000000" font-family="sans-serif" font-size="14" lengthAdjust="spacing" textLength="228.9355" x="169.25" y="1911.2645">addEnrollment(Enrollment): void</text><ellipse cx="160.25" cy="1924.2147" fill="#84BE84" rx="3" ry="3" style="stroke:#038048;stroke-width:1;"/><text fill="#000000" font-family="sans-serif" font-size="14" lengthAdjust="spacing" textLength="256.0537" x="169.25" y="1927.5614">removeEnrollment(Enrollment): void</text><ellipse cx="160.25" cy="1940.5116" fill="#84BE84" rx="3" ry="3" style="stroke:#038048;stroke-width:1;"/><text fill="#000000" font-family="sans-serif" font-size="14" lengthAdjust="spacing" textLength="251.1729" x="169.25" y="1943.8582">getEnrollments(): List&lt;Enrollment&gt;</text></g><!--class Enrollment--><g class="entity" data-entity="Enrollment" data-source-line="103" data-uid="ent0008" id="entity_Enrollment"><rect fill="#F1F1F1" height="194.6719" rx="2.5" ry="2.5" style="stroke:#181818;stroke-width:0.5;" width="228.0977" x="176.23" y="1370.74"/><ellipse cx="247.8125" cy="1386.74" fill="#ADD1B2" rx="11" ry="11" style="stroke:#181818;stroke-width:1;"/><path d="M250.7813,1392.3806 Q250.2031,1392.6775 249.5625,1392.8181 Q248.9219,1392.9744 248.2188,1392.9744 Q245.7188,1392.9744 244.3906,1391.3338 Q243.0781,1389.6775 243.0781,1386.5525 Q243.0781,1383.4275 244.3906,1381.7713 Q245.7188,1380.115 248.2188,1380.115 Q248.9219,1380.115 249.5625,1380.2713 Q250.2188,1380.4275 250.7813,1380.7244 L250.7813,1383.4431 Q250.1563,1382.865 249.5625,1382.5994 Q248.9688,1382.3181 248.3438,1382.3181 Q247,1382.3181 246.3125,1383.3963 Q245.625,1384.4588 245.625,1386.5525 Q245.625,1388.6463 246.3125,1389.7244 Q247,1390.7869 248.3438,1390.7869 Q248.9688,1390.7869 249.5625,1390.5213 Q250.1563,1390.24 250.7813,1389.6619 L250.7813,1392.3806 Z " fill="#000000"/><text fill="#000000" font-family="sans-serif" font-size="14" lengthAdjust="spacing" textLength="76.4326" x="268.3125" y="1391.5867">Enrollment</text><line style="stroke:#181818;stroke-width:0.5;" x1="177.23" x2="403.3277" y1="1402.74" y2="1402.74"/><rect fill="none" height="6" style="stroke:#C82930;stroke-width:1;" width="6" x="184.23" y="1413.3884"/><text fill="#000000" font-family="sans-serif" font-size="14" lengthAdjust="spacing" textLength="117.7969" x="196.23" y="1419.7351">student: Student</text><rect fill="none" height="6" style="stroke:#C82930;stroke-width:1;" width="6" x="184.23" y="1429.6853"/><text fill="#000000" font-family="sans-serif" font-size="14" lengthAdjust="spacing" textLength="138.0723" x="196.23" y="1436.032">classEnrolled: Class</text><rect fill="none" height="6" style="stroke:#C82930;stroke-width:1;" width="6" x="184.23" y="1445.9822"/><text fill="#000000" font-family="sans-serif" font-size="14" lengthAdjust="spacing" textLength="91.6699" x="196.23" y="1452.3289">grade: String</text><line style="stroke:#181818;stroke-width:0.5;" x1="177.23" x2="403.3277" y1="1459.6306" y2="1459.6306"/><ellipse cx="187.23" cy="1473.2791" fill="#84BE84" rx="3" ry="3" style="stroke:#038048;stroke-width:1;"/><text fill="#000000" font-family="sans-serif" font-size="14" lengthAdjust="spacing" textLength="153.3027" x="196.23" y="1476.6257">getStudent(): Student</text><ellipse cx="187.23" cy="1489.5759" fill="#84BE84" rx="3" ry="3" style="stroke:#038048;stroke-width:1;"/><text fill="#000000" font-family="sans-serif" font-size="14" lengthAdjust="spacing" textLength="181.3369" x="196.23" y="1492.9226">setStudent(Student): void</text><ellipse cx="187.23" cy="1505.8728" fill="#84BE84" rx="3" ry="3" style="stroke:#038048;stroke-width:1;"/><text fill="#000000" font-family="sans-serif" font-size="14" lengthAdjust="spacing" textLength="174.0635" x="196.23" y="1509.2195">getClassEnrolled(): Class</text><ellipse cx="187.23" cy="1522.1697" fill="#84BE84" rx="3" ry="3" style="stroke:#038048;stroke-width:1;"/><text fill="#000000" font-family="sans-serif" font-size="14" lengthAdjust="spacing" textLength="202.0977" x="196.23" y="1525.5164">setClassEnrolled(Class): void</text><ellipse cx="187.23" cy="1538.4666" fill="#84BE84" rx="3" ry="3" style="stroke:#038048;stroke-width:1;"/><text fill="#000000" font-family="sans-serif" font-size="14" lengthAdjust="spacing" textLength="127.5449" x="196.23" y="1541.8132">getGrade(): String</text><ellipse cx="187.23" cy="1554.7634" fill="#84BE84" rx="3" ry="3" style="stroke:#038048;stroke-width:1;"/><text fill="#000000" font-family="sans-serif" font-size="14" lengthAdjust="spacing" textLength="155.5791" x="196.23" y="1558.1101">setGrade(String): void</text></g><!--reverse link School to Department--><g class="link" data-entity-1="School" data-entity-2="Department" data-source-line="115" data-uid="lnk9" id="link_School_Department"><path codeLine="115" d="M355.27,213.91 C355.27,239.37 355.27,254.41 355.27,278.35" fill="none" id="School-backto-Department" style="stroke:#181818;stroke-width:1;"/><polygon fill="#181818" points="355.27,201.91,351.27,207.91,355.27,213.91,359.27,207.91,355.27,201.91" style="stroke:#181818;stroke-width:1;"/><polygon fill="#000000" points="360.27,245.2464,363.2089,236.2013,357.3311,236.2013,360.27,245.2464" style="stroke:#000000;stroke-width:1;"/><text fill="#000000" font-family="sans-serif" font-size="13" lengthAdjust="spacing" textLength="22.9785" x="369.27" y="244.7469">has</text><text fill="#000000" font-family="sans-serif" font-size="13" lengthAdjust="spacing" textLength="8.271" x="346.9861" y="221.6981">1</text><text fill="#000000" font-family="sans-serif" font-size="13" lengthAdjust="spacing" textLength="6.5" x="349.0077" y="267.7295">*</text></g><!--link Department to Teacher--><g class="link" data-entity-1="Department" data-entity-2="Teacher" data-source-line="116" data-uid="lnk10" id="link_Department_Teacher"><path codeLine="116" d="M348.18,424.71 C348.12,440.25 349.17,456.5 352.27,471.46 C354.31,481.27 356.83,491.2 359.72,501.11" fill="none" id="Department-Teacher" style="stroke:#181818;stroke-width:1;"/><polygon fill="#000000" points="358.0168,467.9703,359.5718,458.5878,353.7599,459.4656,358.0168,467.9703" style="stroke:#000000;stroke-width:1;"/><text fill="#000000" font-family="sans-serif" font-size="13" lengthAdjust="spacing" textLength="32.4556" x="366.27" y="467.5269">head</text><text fill="#000000" font-family="sans-serif" font-size="13" lengthAdjust="spacing" textLength="8.271" x="339.1357" y="444.4692">1</text><text fill="#000000" font-family="sans-serif" font-size="13" lengthAdjust="spacing" textLength="8.271" x="348.0742" y="490.3045">1</text></g><!--reverse link Department to Teacher--><g class="link" data-entity-1="Department" data-entity-2="Teacher" data-source-line="118" data-uid="lnk12" id="link_Department_Teacher"><path codeLine="118" d="M396.8649,435.8477 C401.0249,445.6577 400.18,444.67 403.27,454.46 C408.02,469.47 412.23,485.24 415.96,501.18" fill="none" id="Department-backto-Teacher" style="stroke:#181818;stroke-width:1;"/><polygon fill="#181818" points="392.18,424.8,390.8399,431.8855,396.8649,435.8477,398.205,428.7622,392.18,424.8" style="stroke:#181818;stroke-width:1;"/><polygon fill="#000000" points="412.6727,467.8256,412.9561,458.3193,407.3143,459.9682,412.6727,467.8256" style="stroke:#000000;stroke-width:1;"/><text fill="#000000" font-family="sans-serif" font-size="13" lengthAdjust="spacing" textLength="54.9453" x="420.27" y="467.5269">employs</text><text fill="#000000" font-family="sans-serif" font-size="13" lengthAdjust="spacing" textLength="8.271" x="387.3294" y="444.5677">1</text><text fill="#000000" font-family="sans-serif" font-size="13" lengthAdjust="spacing" textLength="23.0356" x="391.3654" y="490.3775">1..*</text></g><!--reverse link Department to Course--><g class="link" data-entity-1="Department" data-entity-2="Course" data-source-line="117" data-uid="lnk11" id="link_Department_Course"><path codeLine="117" d="M301.232,434.6933 C280.082,466.8233 260.97,495.87 236.1,533.66" fill="none" id="Department-backto-Course" style="stroke:#181818;stroke-width:1;"/><polygon fill="#181818" points="307.83,424.67,301.1899,427.4823,301.232,434.6933,307.8721,431.881,307.83,424.67" style="stroke:#181818;stroke-width:1;"/><polygon fill="#000000" points="288.5213,467.2031,295.9488,461.2631,291.0388,458.0318,288.5213,467.2031" style="stroke:#000000;stroke-width:1;"/><text fill="#000000" font-family="sans-serif" font-size="13" lengthAdjust="spacing" textLength="37.2227" x="300.27" y="467.5269">offers</text><text fill="#000000" font-family="sans-serif" font-size="13" lengthAdjust="spacing" textLength="8.271" x="294.9398" y="444.4254">1</text><text fill="#000000" font-family="sans-serif" font-size="13" lengthAdjust="spacing" textLength="6.5" x="234.8992" y="522.7837">*</text></g><!--link Teacher to Class--><g class="link" data-entity-1="Teacher" data-entity-2="Class" data-source-line="119" data-uid="lnk13" id="link_Teacher_Class"><path codeLine="119" d="M379.68,859.43 C370.85,884.59 361.76,910.45 352.92,935.61" fill="none" id="Teacher-Class" style="stroke:#181818;stroke-width:1;"/><polygon fill="#000000" points="369.6129,902.3838,375.3835,894.824,369.8378,892.8759,369.6129,902.3838" style="stroke:#000000;stroke-width:1;"/><text fill="#000000" font-family="sans-serif" font-size="13" lengthAdjust="spacing" textLength="51.2192" x="380.27" y="902.1669">teaches</text><text fill="#000000" font-family="sans-serif" font-size="13" lengthAdjust="spacing" textLength="8.271" x="368.8762" y="879.374">1</text><text fill="#000000" font-family="sans-serif" font-size="13" lengthAdjust="spacing" textLength="23.0356" x="332.0784" y="924.7986">0..*</text></g><!--link Course to Class--><g class="link" data-entity-1="Course" data-entity-2="Class" data-source-line="120" data-uid="lnk14" id="link_Course_Class"><path codeLine="120" d="M190.74,826.85 C202.87,861.81 215.95,899.56 228.53,935.82" fill="none" id="Course-Class" style="stroke:#181818;stroke-width:1;"/><polygon fill="#000000" points="221.9082,902.3904,221.7213,892.8817,216.1679,894.8076,221.9082,902.3904" style="stroke:#000000;stroke-width:1;"/><text fill="#000000" font-family="sans-serif" font-size="13" lengthAdjust="spacing" textLength="22.9785" x="229.27" y="902.1669">has</text><text fill="#000000" font-family="sans-serif" font-size="13" lengthAdjust="spacing" textLength="8.271" x="184.9972" y="846.383">1</text><text fill="#000000" font-family="sans-serif" font-size="13" lengthAdjust="spacing" textLength="23.0356" x="202.4407" y="925.0175">0..*</text></g><!--link Student to Enrollment--><g class="link" data-entity-1="Student" data-entity-2="Enrollment" data-source-line="121" data-uid="lnk15" id="link_Student_Enrollment"><path codeLine="121" d="M304.93,1642.11 C305.26,1626.34 305.11,1610.56 304.27,1595.41 C303.75,1585.83 302.99,1575.85 302.11,1565.89" fill="none" id="Student-Enrollment" style="stroke:#181818;stroke-width:1;"/><polygon fill="#000000" points="310.0851,1598.9798,307.4826,1608.1274,313.3565,1607.9101,310.0851,1598.9798" style="stroke:#000000;stroke-width:1;"/><text fill="#000000" font-family="sans-serif" font-size="13" lengthAdjust="spacing" textLength="22.9785" x="319.27" y="1608.4769">has</text><text fill="#000000" font-family="sans-serif" font-size="13" lengthAdjust="spacing" textLength="8.271" x="297.4526" y="1631.3248">1</text><text fill="#000000" font-family="sans-serif" font-size="13" lengthAdjust="spacing" textLength="6.5" x="296.7485" y="1585.3665">*</text></g><!--link Enrollment to Student--><g class="link" data-entity-1="Enrollment" data-entity-2="Student" data-source-line="123" data-uid="lnk17" id="link_Enrollment_Student"><path codeLine="123" d="M239.16,1565.82 C235.56,1575.62 232.49,1585.58 230.27,1595.41 C226.84,1610.64 226.25,1626.41 227.65,1642.11" fill="none" id="Enrollment-Student" style="stroke:#181818;stroke-width:1;"/><polygon fill="#000000" points="234.5241,1608.9205,238.7795,1600.415,232.9674,1599.5381,234.5241,1608.9205" style="stroke:#000000;stroke-width:1;"/><text fill="#000000" font-family="sans-serif" font-size="13" lengthAdjust="spacing" textLength="51.0796" x="244.27" y="1608.4769">belongs</text><text fill="#000000" font-family="sans-serif" font-size="13" lengthAdjust="spacing" textLength="8.271" x="227.1222" y="1585.6206">1</text><text fill="#000000" font-family="sans-serif" font-size="13" lengthAdjust="spacing" textLength="8.271" x="216.4293" y="1631.3248">1</text></g><!--link Class to Enrollment--><g class="link" data-entity-1="Class" data-entity-2="Enrollment" data-source-line="122" data-uid="lnk16" id="link_Class_Enrollment"><path codeLine="122" d="M246.62,1294.04 C246.14,1309.81 246.87,1325.55 249.27,1340.74 C250.82,1350.53 253.01,1360.6 255.57,1370.57" fill="none" id="Class-Enrollment" style="stroke:#181818;stroke-width:1;"/><polygon fill="#000000" points="254.8508,1337.2726,256.7192,1327.9473,250.8811,1328.6301,254.8508,1337.2726" style="stroke:#000000;stroke-width:1;"/><text fill="#000000" font-family="sans-serif" font-size="13" lengthAdjust="spacing" textLength="22.9785" x="263.27" y="1336.8069">has</text><text fill="#000000" font-family="sans-serif" font-size="13" lengthAdjust="spacing" textLength="8.271" x="236.6153" y="1313.9827">1</text><text fill="#000000" font-family="sans-serif" font-size="13" lengthAdjust="spacing" textLength="6.5" x="246.7021" y="1359.6025">*</text></g><!--link Enrollment to Class--><g class="link" data-entity-1="Enrollment" data-entity-2="Class" data-source-line="124" data-uid="lnk18" id="link_Enrollment_Class"><path codeLine="124" d="M290.27,1370.42 C290.27,1346.62 290.27,1320.38 290.27,1294.07" fill="none" id="Enrollment-Class" style="stroke:#181818;stroke-width:1;"/><polygon fill="#000000" points="295.27,1327.3064,292.3311,1336.3515,298.2089,1336.3515,295.27,1327.3064" style="stroke:#000000;stroke-width:1;"/><text fill="#000000" font-family="sans-serif" font-size="13" lengthAdjust="spacing" textLength="17.875" x="304.27" y="1336.8069">for</text><text fill="#000000" font-family="sans-serif" font-size="13" lengthAdjust="spacing" textLength="8.271" x="281.9856" y="1359.7694">1</text><text fill="#000000" font-family="sans-serif" font-size="13" lengthAdjust="spacing" textLength="8.271" x="282.1068" y="1314.014">1</text></g><!--SRC=[rLPDYzim4BtdLuYSiYbPkbTH0YKftK9PIfC_uBKdiS6sWgGibDB_NiaQVLbIMdPxwHuszhoPqMZUqrXrNmb13dNBM4z-BeZwsv2n6e2IW-JTU4PJrJGSX9XPBoqRuUawF0EFa7Va3F99PLdTpUm2xSQeq1VMDJxcerac5sQXGkGtNqekEeJZ3ByMYtfgmXuk5PS3ZF9M8rge6agEKDKjyBTjzb6bqZ5nCe40MfCoT-pA1RWIw-drotvMfknaFo-z0L7pxY8xDiwGcaFJoKUTYf9kb2x0TeG6tV4RsE7QkOqxhB3veoum5sY0GjJURo4N6yA533k_LPsXS_iHCQQ0pEgs1peqwOY8FFnZIk7qtp6etn823QyKwRQi6at4ajaGePwRQy8tPsoOcM3ahE-XESXheofJR7_jXFo0hzkWJQQeBBC8bHey5Qm3Wz83IQpCJoe8iwNiWR3Ox4ous0Cs85UkmmhrVbTToiLDzboC6eNOhnN-nZY7WRt0JHUrxASP4xg4c0id5zor4mog895CPbgL1hHImb1rVJ8WYkSTPGhYM5tFhSHQ9obi4mxpkl5WWOdNpD1NZtrFX6v4BjO0nK7qfb7Wb3HrqFHqDJtdjFG79tjSBJbEIaYF4n9Aomb9cFT_BoGxPh0iBCT8VeW7pS7Ma3sx3lpV9QEezjjV-SSStN_Xw0R84CsEiCEETM-S4q-j8i8ZRWSJDPyfXCwyQY2zuzafTnUd2iahJi1TkDhqlN3h-U-Cm_Ew_wpBoZ5XWEIcXnVTvSEIh3SRibmlmsiV9Mqbo7OHcBIdTbG_TWpJwGwOkjc4U46ZX9rEm4N1yU7-VXtcXE7Iin_QszhiqkydJtDde3ZyjH-katSp6x47tleeXq0Dril4tFO9J45BR7vAdg5duxdiQUiwCKwslm40]--></g></svg>