<svg xmlns="http://www.w3.org/2000/svg" xmlns:xlink="http://www.w3.org/1999/xlink" contentStyleType="text/css" data-diagram-type="SEQUENCE" height="573px" preserveAspectRatio="none" style="width:658px;height:573px;background:#FFFFFF;" version="1.1" viewBox="0 0 658 573" width="658px" zoomAndPan="magnify"><defs/><g><g><title>Patient</title><rect fill="#FFFFFF" height="87.3984" style="stroke:#181818;stroke-width:1;" width="10" x="27.688" y="112.4297"/></g><g><title>Patient</title><rect fill="#FFFFFF" height="246.0625" style="stroke:#181818;stroke-width:1;" width="10" x="27.688" y="228.9609"/></g><g><title>Hospital Management System</title><rect fill="#FFFFFF" height="87.3984" style="stroke:#181818;stroke-width:1;" width="10" x="217.834" y="112.4297"/></g><g><title>Hospital Management System</title><rect fill="#FFFFFF" height="29.1328" style="stroke:#181818;stroke-width:1;" width="10" x="217.834" y="258.0938"/></g><g><title>Hospital Management System</title><rect fill="#FFFFFF" height="29.1328" style="stroke:#181818;stroke-width:1;" width="10" x="217.834" y="374.625"/></g><g><title>Receptionist</title><rect fill="#FFFFFF" height="29.1328" style="stroke:#181818;stroke-width:1;" width="10" x="424.5981" y="141.5625"/></g><g><title>Receptionist</title><rect fill="#FFFFFF" height="87.3984" style="stroke:#181818;stroke-width:1;" width="10" x="424.5981" y="228.9609"/></g><g><title>Doctor</title><rect fill="#FFFFFF" height="129.5313" style="stroke:#181818;stroke-width:1;" width="10" x="515.5391" y="345.4922"/></g><g><title>Patient</title><rect fill="#000000" fill-opacity="0.00000" height="411.7266" width="8" x="28.688" y="81.2969"/><line style="stroke:#181818;stroke-width:0.5;stroke-dasharray:5.0,5.0;" x1="32" x2="32" y1="81.2969" y2="493.0234"/></g><g><title>Hospital Management System</title><rect fill="#000000" fill-opacity="0.00000" height="411.7266" width="8" x="218.834" y="81.2969"/><line style="stroke:#181818;stroke-width:0.5;stroke-dasharray:5.0,5.0;" x1="222.6084" x2="222.6084" y1="81.2969" y2="493.0234"/></g><g><title>Receptionist</title><rect fill="#000000" fill-opacity="0.00000" height="411.7266" width="8" x="425.5981" y="81.2969"/><line style="stroke:#181818;stroke-width:0.5;stroke-dasharray:5.0,5.0;" x1="429.084" x2="429.084" y1="81.2969" y2="493.0234"/></g><g><title>Doctor</title><rect fill="#000000" fill-opacity="0.00000" height="411.7266" width="8" x="516.5391" y="81.2969"/><line style="stroke:#181818;stroke-width:0.5;stroke-dasharray:5.0,5.0;" x1="520.1123" x2="520.1123" y1="81.2969" y2="493.0234"/></g><g class="participant participant-head" data-participant="patient"><text fill="#000000" font-family="sans-serif" font-size="14" lengthAdjust="spacing" textLength="49.376" x="5" y="77.9951">Patient</text><ellipse cx="32.688" cy="13.5" fill="#E2E2F0" rx="8" ry="8" style="stroke:#181818;stroke-width:0.5;"/><path d="M32.688,21.5 L32.688,48.5 M19.688,29.5 L45.688,29.5 M32.688,48.5 L19.688,63.5 M32.688,48.5 L45.688,63.5" fill="none" style="stroke:#181818;stroke-width:0.5;"/></g><g class="participant participant-tail" data-participant="patient"><text fill="#000000" font-family="sans-serif" font-size="14" lengthAdjust="spacing" textLength="49.376" x="5" y="505.0186">Patient</text><ellipse cx="32.688" cy="516.8203" fill="#E2E2F0" rx="8" ry="8" style="stroke:#181818;stroke-width:0.5;"/><path d="M32.688,524.8203 L32.688,551.8203 M19.688,532.8203 L45.688,532.8203 M32.688,551.8203 L19.688,566.8203 M32.688,551.8203 L45.688,566.8203" fill="none" style="stroke:#181818;stroke-width:0.5;"/></g><g class="participant participant-head" data-participant="hms"><rect fill="#E2E2F0" height="30.2969" rx="2.5" ry="2.5" style="stroke:#181818;stroke-width:0.5;" width="224.4512" x="110.6084" y="50"/><text fill="#000000" font-family="sans-serif" font-size="14" lengthAdjust="spacing" textLength="210.4512" x="117.6084" y="69.9951">Hospital Management System</text></g><g class="participant participant-tail" data-participant="hms"><rect fill="#E2E2F0" height="30.2969" rx="2.5" ry="2.5" style="stroke:#181818;stroke-width:0.5;" width="224.4512" x="110.6084" y="492.0234"/><text fill="#000000" font-family="sans-serif" font-size="14" lengthAdjust="spacing" textLength="210.4512" x="117.6084" y="512.0186">Hospital Management System</text></g><g class="participant participant-head" data-participant="receptionist"><rect fill="#E2E2F0" height="30.2969" rx="2.5" ry="2.5" style="stroke:#181818;stroke-width:0.5;" width="101.0283" x="379.084" y="50"/><text fill="#000000" font-family="sans-serif" font-size="14" lengthAdjust="spacing" textLength="87.0283" x="386.084" y="69.9951">Receptionist</text></g><g class="participant participant-tail" data-participant="receptionist"><rect fill="#E2E2F0" height="30.2969" rx="2.5" ry="2.5" style="stroke:#181818;stroke-width:0.5;" width="101.0283" x="379.084" y="492.0234"/><text fill="#000000" font-family="sans-serif" font-size="14" lengthAdjust="spacing" textLength="87.0283" x="386.084" y="512.0186">Receptionist</text></g><g class="participant participant-head" data-participant="doctor"><rect fill="#E2E2F0" height="30.2969" rx="2.5" ry="2.5" style="stroke:#181818;stroke-width:0.5;" width="60.8535" x="490.1123" y="50"/><text fill="#000000" font-family="sans-serif" font-size="14" lengthAdjust="spacing" textLength="46.8535" x="497.1123" y="69.9951">Doctor</text></g><g class="participant participant-tail" data-participant="doctor"><rect fill="#E2E2F0" height="30.2969" rx="2.5" ry="2.5" style="stroke:#181818;stroke-width:0.5;" width="60.8535" x="490.1123" y="492.0234"/><text fill="#000000" font-family="sans-serif" font-size="14" lengthAdjust="spacing" textLength="46.8535" x="497.1123" y="512.0186">Doctor</text></g><g><title>Patient</title><rect fill="#FFFFFF" height="87.3984" style="stroke:#181818;stroke-width:1;" width="10" x="27.688" y="112.4297"/></g><g><title>Patient</title><rect fill="#FFFFFF" height="246.0625" style="stroke:#181818;stroke-width:1;" width="10" x="27.688" y="228.9609"/></g><g><title>Hospital Management System</title><rect fill="#FFFFFF" height="87.3984" style="stroke:#181818;stroke-width:1;" width="10" x="217.834" y="112.4297"/></g><g><title>Hospital Management System</title><rect fill="#FFFFFF" height="29.1328" style="stroke:#181818;stroke-width:1;" width="10" x="217.834" y="258.0938"/></g><g><title>Hospital Management System</title><rect fill="#FFFFFF" height="29.1328" style="stroke:#181818;stroke-width:1;" width="10" x="217.834" y="374.625"/></g><g><title>Receptionist</title><rect fill="#FFFFFF" height="29.1328" style="stroke:#181818;stroke-width:1;" width="10" x="424.5981" y="141.5625"/></g><g><title>Receptionist</title><rect fill="#FFFFFF" height="87.3984" style="stroke:#181818;stroke-width:1;" width="10" x="424.5981" y="228.9609"/></g><g><title>Doctor</title><rect fill="#FFFFFF" height="129.5313" style="stroke:#181818;stroke-width:1;" width="10" x="515.5391" y="345.4922"/></g><g class="message" data-participant-1="patient" data-participant-2="hms"><polygon fill="#181818" points="205.834,108.4297,215.834,112.4297,205.834,116.4297,209.834,112.4297" style="stroke:#181818;stroke-width:1;"/><line style="stroke:#181818;stroke-width:1;" x1="37.688" x2="211.834" y1="112.4297" y2="112.4297"/><text fill="#000000" font-family="sans-serif" font-size="13" lengthAdjust="spacing" textLength="123.1382" x="44.688" y="107.3638">Make Appointment</text></g><g class="message" data-participant-1="hms" data-participant-2="receptionist"><polygon fill="#181818" points="412.5981,137.5625,422.5981,141.5625,412.5981,145.5625,416.5981,141.5625" style="stroke:#181818;stroke-width:1;"/><line style="stroke:#181818;stroke-width:1;" x1="227.834" x2="418.5981" y1="141.5625" y2="141.5625"/><text fill="#000000" font-family="sans-serif" font-size="13" lengthAdjust="spacing" textLength="139.896" x="234.834" y="136.4966">Confirm Appointment</text></g><g class="message" data-participant-1="receptionist" data-participant-2="hms"><polygon fill="#181818" points="238.834,166.6953,228.834,170.6953,238.834,174.6953,234.834,170.6953" style="stroke:#181818;stroke-width:1;"/><line style="stroke:#181818;stroke-width:1;stroke-dasharray:2.0,2.0;" x1="232.834" x2="428.5981" y1="170.6953" y2="170.6953"/><text fill="#000000" font-family="sans-serif" font-size="13" lengthAdjust="spacing" textLength="172.7642" x="244.834" y="165.6294">Appointment Confirmation</text></g><g class="message" data-participant-1="hms" data-participant-2="patient"><polygon fill="#181818" points="43.688,195.8281,33.688,199.8281,43.688,203.8281,39.688,199.8281" style="stroke:#181818;stroke-width:1;"/><line style="stroke:#181818;stroke-width:1;stroke-dasharray:2.0,2.0;" x1="37.688" x2="221.834" y1="199.8281" y2="199.8281"/><text fill="#000000" font-family="sans-serif" font-size="13" lengthAdjust="spacing" textLength="156.146" x="49.688" y="194.7622">Appointment Confirmed</text></g><g class="message" data-participant-1="patient" data-participant-2="receptionist"><polygon fill="#181818" points="412.5981,224.9609,422.5981,228.9609,412.5981,232.9609,416.5981,228.9609" style="stroke:#181818;stroke-width:1;"/><line style="stroke:#181818;stroke-width:1;" x1="37.688" x2="418.5981" y1="228.9609" y2="228.9609"/><text fill="#000000" font-family="sans-serif" font-size="13" lengthAdjust="spacing" textLength="113.2549" x="44.688" y="223.895">Arrive at Hospital</text></g><g class="message" data-participant-1="receptionist" data-participant-2="hms"><polygon fill="#181818" points="238.834,254.0938,228.834,258.0938,238.834,262.0938,234.834,258.0938" style="stroke:#181818;stroke-width:1;"/><line style="stroke:#181818;stroke-width:1;" x1="232.834" x2="423.5981" y1="258.0938" y2="258.0938"/><text fill="#000000" font-family="sans-serif" font-size="13" lengthAdjust="spacing" textLength="106.7358" x="244.834" y="253.0278">Check-In Patient</text></g><g class="message" data-participant-1="hms" data-participant-2="receptionist"><polygon fill="#181818" points="412.5981,283.2266,422.5981,287.2266,412.5981,291.2266,416.5981,287.2266" style="stroke:#181818;stroke-width:1;"/><line style="stroke:#181818;stroke-width:1;stroke-dasharray:2.0,2.0;" x1="222.834" x2="418.5981" y1="287.2266" y2="287.2266"/><text fill="#000000" font-family="sans-serif" font-size="13" lengthAdjust="spacing" textLength="122.4272" x="229.834" y="282.1606">Patient Checked In</text></g><g class="message" data-participant-1="receptionist" data-participant-2="patient"><polygon fill="#181818" points="48.688,312.3594,38.688,316.3594,48.688,320.3594,44.688,316.3594" style="stroke:#181818;stroke-width:1;"/><line style="stroke:#181818;stroke-width:1;stroke-dasharray:2.0,2.0;" x1="42.688" x2="428.5981" y1="316.3594" y2="316.3594"/><text fill="#000000" font-family="sans-serif" font-size="13" lengthAdjust="spacing" textLength="122.9795" x="54.688" y="311.2935">Check In Complete</text></g><g class="message" data-participant-1="patient" data-participant-2="doctor"><polygon fill="#181818" points="503.5391,341.4922,513.5391,345.4922,503.5391,349.4922,507.5391,345.4922" style="stroke:#181818;stroke-width:1;"/><line style="stroke:#181818;stroke-width:1;" x1="37.688" x2="509.5391" y1="345.4922" y2="345.4922"/><text fill="#000000" font-family="sans-serif" font-size="13" lengthAdjust="spacing" textLength="75.626" x="44.688" y="340.4263">Visit Doctor</text></g><g class="message" data-participant-1="doctor" data-participant-2="hms"><polygon fill="#181818" points="238.834,370.625,228.834,374.625,238.834,378.625,234.834,374.625" style="stroke:#181818;stroke-width:1;"/><line style="stroke:#181818;stroke-width:1;" x1="232.834" x2="514.5391" y1="374.625" y2="374.625"/><text fill="#000000" font-family="sans-serif" font-size="13" lengthAdjust="spacing" textLength="161.3892" x="244.834" y="369.5591">Retrieve Patient Records</text></g><g class="message" data-participant-1="hms" data-participant-2="doctor"><polygon fill="#181818" points="503.5391,399.7578,513.5391,403.7578,503.5391,407.7578,507.5391,403.7578" style="stroke:#181818;stroke-width:1;"/><line style="stroke:#181818;stroke-width:1;stroke-dasharray:2.0,2.0;" x1="222.834" x2="509.5391" y1="403.7578" y2="403.7578"/><text fill="#000000" font-family="sans-serif" font-size="13" lengthAdjust="spacing" textLength="102.4829" x="229.834" y="398.6919">Patient Records</text></g><g class="message" data-participant-1="doctor" data-participant-2="doctor"><line style="stroke:#181818;stroke-width:1;" x1="525.5391" x2="567.5391" y1="432.8906" y2="432.8906"/><line style="stroke:#181818;stroke-width:1;" x1="567.5391" x2="567.5391" y1="432.8906" y2="445.8906"/><line style="stroke:#181818;stroke-width:1;" x1="526.5391" x2="567.5391" y1="445.8906" y2="445.8906"/><polygon fill="#181818" points="536.5391,441.8906,526.5391,445.8906,536.5391,449.8906,532.5391,445.8906" style="stroke:#181818;stroke-width:1;"/><text fill="#000000" font-family="sans-serif" font-size="13" lengthAdjust="spacing" textLength="119.0439" x="532.5391" y="427.8247">Perform Diagnosis</text></g><g class="message" data-participant-1="doctor" data-participant-2="patient"><polygon fill="#181818" points="43.688,471.0234,33.688,475.0234,43.688,479.0234,39.688,475.0234" style="stroke:#181818;stroke-width:1;"/><line style="stroke:#181818;stroke-width:1;stroke-dasharray:2.0,2.0;" x1="37.688" x2="519.5391" y1="475.0234" y2="475.0234"/><text fill="#000000" font-family="sans-serif" font-size="13" lengthAdjust="spacing" textLength="130.0381" x="49.688" y="469.9575">Provide Prescription</text></g><!--SRC=[VLBBRiCW4BpxAr3k_e4UAaN9eJbKYb8fznLiabLYGB2orBylO8Fnexa1cjcT6GOa6oVEm8IQ1NXXXsDZmJ59iX2UTr_6Ms9uYM_GSCSkOdz-FMEtYvn7v-Vu2qgqJ4QJvuHmrSCSUZHHGGAfT6oQKO9eF-DayH6sFb7ihJMaEUvkG3Brm5ZKbeSe9P82jzuPXXoClf7hjkVCzCs8RL5H4VCmYAX6uVQSf2FGiv_D4QXgVfHVNREzEfA5hRrprAC05lcJtgJpncPsUNYWVBOddJkn4UrQHEvF8gCI9xqqjSfq2YMH0YKaqjaNCluRQ1t3K9P0lv8d5aED9h5ZbqPKSNT1TeGXhwmuDDKuvRTTbXrBzFB7ofQ9WUvcGjkE17TjF4sWcVUpCpsf8CUXbuxiia_PngeIVm00]--></g></svg>