<svg xmlns="http://www.w3.org/2000/svg" xmlns:xlink="http://www.w3.org/1999/xlink" contentStyleType="text/css" data-diagram-type="CLASS" height="556px" preserveAspectRatio="none" style="width:495px;height:556px;background:#FFFFFF;" version="1.1" viewBox="0 0 495 556" width="495px" zoomAndPan="magnify"><defs/><g><!--class Patient--><g class="entity" data-entity="Patient" data-source-line="1" data-uid="ent0002" id="entity_Patient"><rect fill="#F1F1F1" height="129.4844" rx="2.5" ry="2.5" style="stroke:#181818;stroke-width:0.5;" width="450.6689" x="37.6" y="7"/><ellipse cx="233.9965" cy="23" fill="#ADD1B2" rx="11" ry="11" style="stroke:#181818;stroke-width:1;"/><path d="M236.9652,28.6406 Q236.3871,28.9375 235.7465,29.0781 Q235.1059,29.2344 234.4027,29.2344 Q231.9027,29.2344 230.5746,27.5938 Q229.2621,25.9375 229.2621,22.8125 Q229.2621,19.6875 230.5746,18.0313 Q231.9027,16.375 234.4027,16.375 Q235.1059,16.375 235.7465,16.5313 Q236.4027,16.6875 236.9652,16.9844 L236.9652,19.7031 Q236.3402,19.125 235.7465,18.8594 Q235.1527,18.5781 234.5277,18.5781 Q233.184,18.5781 232.4965,19.6563 Q231.809,20.7188 231.809,22.8125 Q231.809,24.9063 232.4965,25.9844 Q233.184,27.0469 234.5277,27.0469 Q235.1527,27.0469 235.7465,26.7813 Q236.3402,26.5 236.9652,25.9219 L236.9652,28.6406 Z " fill="#000000"/><text fill="#000000" font-family="sans-serif" font-size="14" lengthAdjust="spacing" textLength="49.376" x="254.4965" y="27.8467">Patient</text><line style="stroke:#181818;stroke-width:0.5;" x1="38.6" x2="487.2689" y1="39" y2="39"/><rect fill="none" height="6" style="stroke:#C82930;stroke-width:1;" width="6" x="45.6" y="49.6484"/><text fill="#000000" font-family="sans-serif" font-size="14" lengthAdjust="spacing" textLength="113.7842" x="57.6" y="55.9951">patientId: String</text><rect fill="none" height="6" style="stroke:#C82930;stroke-width:1;" width="6" x="45.6" y="65.9453"/><text fill="#000000" font-family="sans-serif" font-size="14" lengthAdjust="spacing" textLength="90.6514" x="57.6" y="72.292">name: String</text><rect fill="none" height="6" style="stroke:#C82930;stroke-width:1;" width="6" x="45.6" y="82.2422"/><text fill="#000000" font-family="sans-serif" font-size="14" lengthAdjust="spacing" textLength="123.7578" x="57.6" y="88.5889">dateOfBirth: Date</text><rect fill="none" height="6" style="stroke:#C82930;stroke-width:1;" width="6" x="45.6" y="98.5391"/><text fill="#000000" font-family="sans-serif" font-size="14" lengthAdjust="spacing" textLength="129.835" x="57.6" y="104.8857">contactInfo: String</text><line style="stroke:#181818;stroke-width:0.5;" x1="38.6" x2="487.2689" y1="112.1875" y2="112.1875"/><ellipse cx="48.6" cy="125.8359" fill="#84BE84" rx="3" ry="3" style="stroke:#038048;stroke-width:1;"/><text fill="#000000" font-family="sans-serif" font-size="14" lengthAdjust="spacing" textLength="424.6689" x="57.6" y="129.1826">makeAppointment(date: Date, doctor: Doctor): Appointment</text></g><!--class Doctor--><g class="entity" data-entity="Doctor" data-source-line="9" data-uid="ent0003" id="entity_Doctor"><rect fill="#F1F1F1" height="129.4844" rx="2.5" ry="2.5" style="stroke:#181818;stroke-width:0.5;" width="305.8701" x="7" y="419.97"/><ellipse cx="132.2583" cy="435.97" fill="#ADD1B2" rx="11" ry="11" style="stroke:#181818;stroke-width:1;"/><path d="M135.2271,441.6106 Q134.6489,441.9075 134.0083,442.0481 Q133.3677,442.2044 132.6646,442.2044 Q130.1646,442.2044 128.8364,440.5638 Q127.5239,438.9075 127.5239,435.7825 Q127.5239,432.6575 128.8364,431.0013 Q130.1646,429.345 132.6646,429.345 Q133.3677,429.345 134.0083,429.5013 Q134.6646,429.6575 135.2271,429.9544 L135.2271,432.6731 Q134.6021,432.095 134.0083,431.8294 Q133.4146,431.5481 132.7896,431.5481 Q131.4458,431.5481 130.7583,432.6263 Q130.0708,433.6888 130.0708,435.7825 Q130.0708,437.8763 130.7583,438.9544 Q131.4458,440.0169 132.7896,440.0169 Q133.4146,440.0169 134.0083,439.7513 Q134.6021,439.47 135.2271,438.8919 L135.2271,441.6106 Z " fill="#000000"/><text fill="#000000" font-family="sans-serif" font-size="14" lengthAdjust="spacing" textLength="46.8535" x="152.7583" y="440.8167">Doctor</text><line style="stroke:#181818;stroke-width:0.5;" x1="8" x2="311.8701" y1="451.97" y2="451.97"/><rect fill="none" height="6" style="stroke:#C82930;stroke-width:1;" width="6" x="15" y="462.6184"/><text fill="#000000" font-family="sans-serif" font-size="14" lengthAdjust="spacing" textLength="108.9238" x="27" y="468.9651">doctorId: String</text><rect fill="none" height="6" style="stroke:#C82930;stroke-width:1;" width="6" x="15" y="478.9153"/><text fill="#000000" font-family="sans-serif" font-size="14" lengthAdjust="spacing" textLength="90.6514" x="27" y="485.262">name: String</text><rect fill="none" height="6" style="stroke:#C82930;stroke-width:1;" width="6" x="15" y="495.2122"/><text fill="#000000" font-family="sans-serif" font-size="14" lengthAdjust="spacing" textLength="146.4326" x="27" y="501.5589">specialization: String</text><rect fill="none" height="6" style="stroke:#C82930;stroke-width:1;" width="6" x="15" y="511.5091"/><text fill="#000000" font-family="sans-serif" font-size="14" lengthAdjust="spacing" textLength="129.835" x="27" y="517.8557">contactInfo: String</text><line style="stroke:#181818;stroke-width:0.5;" x1="8" x2="311.8701" y1="525.1575" y2="525.1575"/><ellipse cx="18" cy="538.8059" fill="#84BE84" rx="3" ry="3" style="stroke:#038048;stroke-width:1;"/><text fill="#000000" font-family="sans-serif" font-size="14" lengthAdjust="spacing" textLength="279.8701" x="27" y="542.1526">getAppointments(): List&lt;Appointment&gt;</text></g><!--class Appointment--><g class="entity" data-entity="Appointment" data-source-line="17" data-uid="ent0004" id="entity_Appointment"><rect fill="#F1F1F1" height="129.4844" rx="2.5" ry="2.5" style="stroke:#181818;stroke-width:0.5;" width="179.7471" x="70.06" y="213.48"/><ellipse cx="110.6946" cy="229.48" fill="#ADD1B2" rx="11" ry="11" style="stroke:#181818;stroke-width:1;"/><path d="M113.6634,235.1206 Q113.0852,235.4175 112.4446,235.5581 Q111.804,235.7144 111.1009,235.7144 Q108.6009,235.7144 107.2727,234.0738 Q105.9602,232.4175 105.9602,229.2925 Q105.9602,226.1675 107.2727,224.5113 Q108.6009,222.855 111.1009,222.855 Q111.804,222.855 112.4446,223.0113 Q113.1009,223.1675 113.6634,223.4644 L113.6634,226.1831 Q113.0384,225.605 112.4446,225.3394 Q111.8509,225.0581 111.2259,225.0581 Q109.8821,225.0581 109.1946,226.1363 Q108.5071,227.1988 108.5071,229.2925 Q108.5071,231.3863 109.1946,232.4644 Q109.8821,233.5269 111.2259,233.5269 Q111.8509,233.5269 112.4446,233.2613 Q113.0384,232.98 113.6634,232.4019 L113.6634,235.1206 Z " fill="#000000"/><text fill="#000000" font-family="sans-serif" font-size="14" lengthAdjust="spacing" textLength="90.7813" x="130.3912" y="234.3267">Appointment</text><line style="stroke:#181818;stroke-width:0.5;" x1="71.06" x2="248.8071" y1="245.48" y2="245.48"/><rect fill="none" height="6" style="stroke:#C82930;stroke-width:1;" width="6" x="78.06" y="256.1284"/><text fill="#000000" font-family="sans-serif" font-size="14" lengthAdjust="spacing" textLength="153.7471" x="90.06" y="262.4751">appointmentId: String</text><rect fill="none" height="6" style="stroke:#C82930;stroke-width:1;" width="6" x="78.06" y="272.4253"/><text fill="#000000" font-family="sans-serif" font-size="14" lengthAdjust="spacing" textLength="108.3633" x="90.06" y="278.772">patient: Patient</text><rect fill="none" height="6" style="stroke:#C82930;stroke-width:1;" width="6" x="78.06" y="288.7222"/><text fill="#000000" font-family="sans-serif" font-size="14" lengthAdjust="spacing" textLength="100.9805" x="90.06" y="295.0689">doctor: Doctor</text><rect fill="none" height="6" style="stroke:#C82930;stroke-width:1;" width="6" x="78.06" y="305.0191"/><text fill="#000000" font-family="sans-serif" font-size="14" lengthAdjust="spacing" textLength="74.1973" x="90.06" y="311.3657">date: Date</text><rect fill="none" height="6" style="stroke:#C82930;stroke-width:1;" width="6" x="78.06" y="321.3159"/><text fill="#000000" font-family="sans-serif" font-size="14" lengthAdjust="spacing" textLength="75.4893" x="90.06" y="327.6626">time: Time</text><line style="stroke:#181818;stroke-width:0.5;" x1="71.06" x2="248.8071" y1="334.9644" y2="334.9644"/></g><!--class MedicalRecord--><g class="entity" data-entity="MedicalRecord" data-source-line="25" data-uid="ent0005" id="entity_MedicalRecord"><rect fill="#F1F1F1" height="129.4844" rx="2.5" ry="2.5" style="stroke:#181818;stroke-width:0.5;" width="160.5449" x="284.66" y="213.48"/><ellipse cx="311.2088" cy="229.48" fill="#ADD1B2" rx="11" ry="11" style="stroke:#181818;stroke-width:1;"/><path d="M314.1776,235.1206 Q313.5995,235.4175 312.9588,235.5581 Q312.3182,235.7144 311.6151,235.7144 Q309.1151,235.7144 307.787,234.0738 Q306.4745,232.4175 306.4745,229.2925 Q306.4745,226.1675 307.787,224.5113 Q309.1151,222.855 311.6151,222.855 Q312.3182,222.855 312.9588,223.0113 Q313.6151,223.1675 314.1776,223.4644 L314.1776,226.1831 Q313.5526,225.605 312.9588,225.3394 Q312.3651,225.0581 311.7401,225.0581 Q310.3963,225.0581 309.7088,226.1363 Q309.0213,227.1988 309.0213,229.2925 Q309.0213,231.3863 309.7088,232.4644 Q310.3963,233.5269 311.7401,233.5269 Q312.3651,233.5269 312.9588,233.2613 Q313.5526,232.98 314.1776,232.4019 L314.1776,235.1206 Z " fill="#000000"/><text fill="#000000" font-family="sans-serif" font-size="14" lengthAdjust="spacing" textLength="102.8809" x="327.7752" y="234.3267">MedicalRecord</text><line style="stroke:#181818;stroke-width:0.5;" x1="285.66" x2="444.2049" y1="245.48" y2="245.48"/><rect fill="none" height="6" style="stroke:#C82930;stroke-width:1;" width="6" x="292.66" y="256.1284"/><text fill="#000000" font-family="sans-serif" font-size="14" lengthAdjust="spacing" textLength="109.2383" x="304.66" y="262.4751">recordId: String</text><rect fill="none" height="6" style="stroke:#C82930;stroke-width:1;" width="6" x="292.66" y="272.4253"/><text fill="#000000" font-family="sans-serif" font-size="14" lengthAdjust="spacing" textLength="108.3633" x="304.66" y="278.772">patient: Patient</text><rect fill="none" height="6" style="stroke:#C82930;stroke-width:1;" width="6" x="292.66" y="288.7222"/><text fill="#000000" font-family="sans-serif" font-size="14" lengthAdjust="spacing" textLength="117.1064" x="304.66" y="295.0689">diagnosis: String</text><rect fill="none" height="6" style="stroke:#C82930;stroke-width:1;" width="6" x="292.66" y="305.0191"/><text fill="#000000" font-family="sans-serif" font-size="14" lengthAdjust="spacing" textLength="121.4883" x="304.66" y="311.3657">treatment: String</text><rect fill="none" height="6" style="stroke:#C82930;stroke-width:1;" width="6" x="292.66" y="321.3159"/><text fill="#000000" font-family="sans-serif" font-size="14" lengthAdjust="spacing" textLength="134.5449" x="304.66" y="327.6626">prescription: String</text><line style="stroke:#181818;stroke-width:0.5;" x1="285.66" x2="444.2049" y1="334.9644" y2="334.9644"/></g><!--link Patient to Appointment--><g class="link" data-entity-1="Patient" data-entity-2="Appointment" data-source-line="33" data-uid="lnk6" id="link_Patient_Appointment"><path codeLine="33" d="M176.07,136.83 C168.39,145.92 161.73,155.84 156.94,166.48 C150.46,180.86 148.44,197.39 148.68,213.22" fill="none" id="Patient-Appointment" style="stroke:#181818;stroke-width:1;"/><polygon fill="#000000" points="160.2524,179.753,166.0717,172.2306,160.5388,170.2468,160.2524,179.753" style="stroke:#000000;stroke-width:1;"/><text fill="#000000" font-family="sans-serif" font-size="13" lengthAdjust="spacing" textLength="65.0317" x="170.94" y="179.5469">schedules</text><text fill="#000000" font-family="sans-serif" font-size="13" lengthAdjust="spacing" textLength="8.271" x="158.7136" y="156.3894">1</text><text fill="#000000" font-family="sans-serif" font-size="13" lengthAdjust="spacing" textLength="6.5" x="141.1484" y="202.3642">*</text></g><!--link Appointment to Patient--><g class="link" data-entity-1="Appointment" data-entity-2="Patient" data-source-line="37" data-uid="lnk10" id="link_Appointment_Patient"><path codeLine="37" d="M222.52,213.19 C229.53,203.74 235.93,193.72 240.94,183.48 C247.95,169.13 251.5031,158.5653 254.7631,142.8253" fill="none" id="Appointment-to-Patient" style="stroke:#181818;stroke-width:1;"/><polygon fill="#181818" points="255.98,136.95,250.2378,144.9517,254.9659,141.8461,258.0716,146.5742,255.98,136.95" style="stroke:#181818;stroke-width:1;"/></g><!--link Doctor to Appointment--><g class="link" data-entity-1="Doctor" data-entity-2="Appointment" data-source-line="34" data-uid="lnk7" id="link_Doctor_Appointment"><path codeLine="34" d="M159.94,419.8 C159.94,395.46 159.94,367.72 159.94,343.36" fill="none" id="Doctor-Appointment" style="stroke:#181818;stroke-width:1;"/><polygon fill="#000000" points="164.94,376.5364,162.0011,385.5815,167.8789,385.5815,164.94,376.5364" style="stroke:#000000;stroke-width:1;"/><text fill="#000000" font-family="sans-serif" font-size="13" lengthAdjust="spacing" textLength="49.4229" x="173.94" y="386.0369">attends</text><text fill="#000000" font-family="sans-serif" font-size="13" lengthAdjust="spacing" textLength="8.271" x="151.5179" y="408.9541">1</text><text fill="#000000" font-family="sans-serif" font-size="13" lengthAdjust="spacing" textLength="6.5" x="153.6571" y="362.9245">*</text></g><!--link Appointment to Doctor--><g class="link" data-entity-1="Appointment" data-entity-2="Doctor" data-source-line="36" data-uid="lnk9" id="link_Appointment_Doctor"><path codeLine="36" d="M154.52,343.23 C153.86,353.18 153.29,363.34 152.94,372.97 C152.37,388.08 152.465,398.3399 153.345,413.6199" fill="none" id="Appointment-to-Doctor" style="stroke:#181818;stroke-width:1;"/><polygon fill="#181818" points="153.69,419.61,157.1659,410.3949,153.4025,414.6183,149.1791,410.8549,153.69,419.61" style="stroke:#181818;stroke-width:1;"/></g><!--link Patient to MedicalRecord--><g class="link" data-entity-1="Patient" data-entity-2="MedicalRecord" data-source-line="35" data-uid="lnk8" id="link_Patient_MedicalRecord"><path codeLine="35" d="M294.93,136.88 C307.08,161.24 320.91,188.97 333.06,213.31" fill="none" id="Patient-MedicalRecord" style="stroke:#181818;stroke-width:1;"/><polygon fill="#000000" points="324.1721,179.5205,322.764,170.1148,317.5044,172.7388,324.1721,179.5205" style="stroke:#000000;stroke-width:1;"/><text fill="#000000" font-family="sans-serif" font-size="13" lengthAdjust="spacing" textLength="22.9785" x="330.94" y="179.5469">has</text><text fill="#000000" font-family="sans-serif" font-size="13" lengthAdjust="spacing" textLength="8.271" x="289.831" y="156.4445">1</text><text fill="#000000" font-family="sans-serif" font-size="13" lengthAdjust="spacing" textLength="8.271" x="321.1513" y="202.4641">1</text></g><!--SRC=[ZP9DIyGm48Rl_HL3J-j73rw351Gl2ugY_e4XcUs6RPEIZ1V5_sxwdKGMjeU4UJCpUUPDPOlUmnko9iFmKq3uAkYdUAy4VB3JffbrWnrbaaAcryEZTdmKy1I2MPVMC4hUcuDDAcwWmnCzzBtLXhjmoMxeC9NUWhAIhGlHk5y9Y1ABtwAG8-vqkj9EHPV0-fwanbP_X_cioGxF4pV44OVV1QvdxVa-4kkDBb9NHDoqVvopsM9vXMIgnOh8xSHcriEGds7T05v8QOdjEqdhr8hWnl3YspKsndhjitHsXECOUHj7NZhT9xu6ekNFAkzAg2eehyl47m5U7abzjUIXBkPtFPkBp6JKa9ct3LiwjO0Z3ebnWwgg5pTpUUxt1m00]--></g></svg>