<svg xmlns="http://www.w3.org/2000/svg" xmlns:xlink="http://www.w3.org/1999/xlink" contentStyleType="text/css" data-diagram-type="CLASS" height="795px" preserveAspectRatio="none" style="width:795px;height:795px;background:#FFFFFF;" version="1.1" viewBox="0 0 795 795" width="795px" zoomAndPan="magnify"><defs/><g><!--class School--><g class="entity" data-entity="School" data-source-line="1" data-uid="ent0002" id="entity_School"><rect fill="#F1F1F1" height="145.7813" rx="2.5" ry="2.5" style="stroke:#181818;stroke-width:0.5;" width="347.1045" x="206.04" y="7"/><ellipse cx="352.1035" cy="23" fill="#ADD1B2" rx="11" ry="11" style="stroke:#181818;stroke-width:1;"/><path d="M355.0722,28.6406 Q354.4941,28.9375 353.8535,29.0781 Q353.2129,29.2344 352.5097,29.2344 Q350.0097,29.2344 348.6816,27.5938 Q347.3691,25.9375 347.3691,22.8125 Q347.3691,19.6875 348.6816,18.0313 Q350.0097,16.375 352.5097,16.375 Q353.2129,16.375 353.8535,16.5313 Q354.5097,16.6875 355.0722,16.9844 L355.0722,19.7031 Q354.4472,19.125 353.8535,18.8594 Q353.2597,18.5781 352.6347,18.5781 Q351.291,18.5781 350.6035,19.6563 Q349.916,20.7188 349.916,22.8125 Q349.916,24.9063 350.6035,25.9844 Q351.291,27.0469 352.6347,27.0469 Q353.2597,27.0469 353.8535,26.7813 Q354.4472,26.5 355.0722,25.9219 L355.0722,28.6406 Z " fill="#000000"/><text fill="#000000" font-family="sans-serif" font-size="14" lengthAdjust="spacing" textLength="46.4775" x="372.6035" y="27.8467">School</text><line style="stroke:#181818;stroke-width:0.5;" x1="207.04" x2="552.1445" y1="39" y2="39"/><rect fill="none" height="6" style="stroke:#C82930;stroke-width:1;" width="6" x="214.04" y="49.6484"/><text fill="#000000" font-family="sans-serif" font-size="14" lengthAdjust="spacing" textLength="85.9346" x="226.04" y="55.9951">String name</text><rect fill="none" height="6" style="stroke:#C82930;stroke-width:1;" width="6" x="214.04" y="65.9453"/><text fill="#000000" font-family="sans-serif" font-size="14" lengthAdjust="spacing" textLength="101.541" x="226.04" y="72.292">String address</text><rect fill="none" height="6" style="stroke:#C82930;stroke-width:1;" width="6" x="214.04" y="82.2422"/><text fill="#000000" font-family="sans-serif" font-size="14" lengthAdjust="spacing" textLength="146.2822" x="226.04" y="88.5889">String phoneNumber</text><line style="stroke:#181818;stroke-width:0.5;" x1="207.04" x2="552.1445" y1="95.8906" y2="95.8906"/><ellipse cx="217.04" cy="109.5391" fill="#84BE84" rx="3" ry="3" style="stroke:#038048;stroke-width:1;"/><text fill="#000000" font-family="sans-serif" font-size="14" lengthAdjust="spacing" textLength="160.1045" x="226.04" y="112.8857">manageDepartments()</text><ellipse cx="217.04" cy="125.8359" fill="#84BE84" rx="3" ry="3" style="stroke:#038048;stroke-width:1;"/><text fill="#000000" font-family="sans-serif" font-size="14" lengthAdjust="spacing" textLength="293.9863" x="226.04" y="129.1826">addDepartment(Department department)</text><ellipse cx="217.04" cy="142.1328" fill="#84BE84" rx="3" ry="3" style="stroke:#038048;stroke-width:1;"/><text fill="#000000" font-family="sans-serif" font-size="14" lengthAdjust="spacing" textLength="321.1045" x="226.04" y="145.4795">removeDepartment(Department department)</text></g><!--class Department--><g class="entity" data-entity="Department" data-source-line="10" data-uid="ent0003" id="entity_Department"><rect fill="#F1F1F1" height="129.4844" rx="2.5" ry="2.5" style="stroke:#181818;stroke-width:0.5;" width="239.3975" x="259.89" y="229.78"/><ellipse cx="332.9798" cy="245.78" fill="#ADD1B2" rx="11" ry="11" style="stroke:#181818;stroke-width:1;"/><path d="M335.9486,251.4206 Q335.3705,251.7175 334.7298,251.8581 Q334.0892,252.0144 333.3861,252.0144 Q330.8861,252.0144 329.558,250.3737 Q328.2455,248.7175 328.2455,245.5925 Q328.2455,242.4675 329.558,240.8112 Q330.8861,239.155 333.3861,239.155 Q334.0892,239.155 334.7298,239.3112 Q335.3861,239.4675 335.9486,239.7644 L335.9486,242.4831 Q335.3236,241.905 334.7298,241.6394 Q334.1361,241.3581 333.5111,241.3581 Q332.1673,241.3581 331.4798,242.4362 Q330.7923,243.4987 330.7923,245.5925 Q330.7923,247.6862 331.4798,248.7644 Q332.1673,249.8269 333.5111,249.8269 Q334.1361,249.8269 334.7298,249.5612 Q335.3236,249.28 335.9486,248.7019 L335.9486,251.4206 Z " fill="#000000"/><text fill="#000000" font-family="sans-serif" font-size="14" lengthAdjust="spacing" textLength="84.7178" x="353.4798" y="250.6267">Department</text><line style="stroke:#181818;stroke-width:0.5;" x1="260.89" x2="498.2875" y1="261.78" y2="261.78"/><rect fill="none" height="6" style="stroke:#C82930;stroke-width:1;" width="6" x="267.89" y="272.4284"/><text fill="#000000" font-family="sans-serif" font-size="14" lengthAdjust="spacing" textLength="85.9346" x="279.89" y="278.7751">String name</text><rect fill="none" height="6" style="stroke:#C82930;stroke-width:1;" width="6" x="267.89" y="288.7253"/><text fill="#000000" font-family="sans-serif" font-size="14" lengthAdjust="spacing" textLength="181.8496" x="279.89" y="295.072">String headOfDepartment</text><line style="stroke:#181818;stroke-width:0.5;" x1="260.89" x2="498.2875" y1="302.3738" y2="302.3738"/><ellipse cx="270.89" cy="316.0222" fill="#84BE84" rx="3" ry="3" style="stroke:#038048;stroke-width:1;"/><text fill="#000000" font-family="sans-serif" font-size="14" lengthAdjust="spacing" textLength="99.8867" x="279.89" y="319.3689">offerCourses()</text><ellipse cx="270.89" cy="332.3191" fill="#84BE84" rx="3" ry="3" style="stroke:#038048;stroke-width:1;"/><text fill="#000000" font-family="sans-serif" font-size="14" lengthAdjust="spacing" textLength="186.2793" x="279.89" y="335.6657">addCourse(Course course)</text><ellipse cx="270.89" cy="348.6159" fill="#84BE84" rx="3" ry="3" style="stroke:#038048;stroke-width:1;"/><text fill="#000000" font-family="sans-serif" font-size="14" lengthAdjust="spacing" textLength="213.3975" x="279.89" y="351.9626">removeCourse(Course course)</text></g><!--class Course--><g class="entity" data-entity="Course" data-source-line="18" data-uid="ent0004" id="entity_Course"><rect fill="#F1F1F1" height="145.7813" rx="2.5" ry="2.5" style="stroke:#181818;stroke-width:0.5;" width="258.5859" x="250.3" y="436.26"/><ellipse cx="350.9045" cy="452.26" fill="#ADD1B2" rx="11" ry="11" style="stroke:#181818;stroke-width:1;"/><path d="M353.8732,457.9006 Q353.2951,458.1975 352.6545,458.3381 Q352.0139,458.4944 351.3107,458.4944 Q348.8107,458.4944 347.4826,456.8538 Q346.1701,455.1975 346.1701,452.0725 Q346.1701,448.9475 347.4826,447.2913 Q348.8107,445.635 351.3107,445.635 Q352.0139,445.635 352.6545,445.7913 Q353.3107,445.9475 353.8732,446.2444 L353.8732,448.9631 Q353.2482,448.385 352.6545,448.1194 Q352.0607,447.8381 351.4357,447.8381 Q350.092,447.8381 349.4045,448.9163 Q348.717,449.9788 348.717,452.0725 Q348.717,454.1663 349.4045,455.2444 Q350.092,456.3069 351.4357,456.3069 Q352.0607,456.3069 352.6545,456.0413 Q353.2482,455.76 353.8732,455.1819 L353.8732,457.9006 Z " fill="#000000"/><text fill="#000000" font-family="sans-serif" font-size="14" lengthAdjust="spacing" textLength="48.877" x="371.4045" y="457.1067">Course</text><line style="stroke:#181818;stroke-width:0.5;" x1="251.3" x2="507.8859" y1="468.26" y2="468.26"/><rect fill="none" height="6" style="stroke:#C82930;stroke-width:1;" width="6" x="258.3" y="478.9084"/><text fill="#000000" font-family="sans-serif" font-size="14" lengthAdjust="spacing" textLength="134.333" x="270.3" y="485.2551">String courseName</text><rect fill="none" height="6" style="stroke:#C82930;stroke-width:1;" width="6" x="258.3" y="495.2053"/><text fill="#000000" font-family="sans-serif" font-size="14" lengthAdjust="spacing" textLength="128.8711" x="270.3" y="501.552">String courseCode</text><line style="stroke:#181818;stroke-width:0.5;" x1="251.3" x2="507.8859" y1="508.8538" y2="508.8538"/><ellipse cx="261.3" cy="522.5022" fill="#84BE84" rx="3" ry="3" style="stroke:#038048;stroke-width:1;"/><text fill="#000000" font-family="sans-serif" font-size="14" lengthAdjust="spacing" textLength="90.5967" x="270.3" y="525.8489">getTeacher()</text><ellipse cx="261.3" cy="538.7991" fill="#84BE84" rx="3" ry="3" style="stroke:#038048;stroke-width:1;"/><text fill="#000000" font-family="sans-serif" font-size="14" lengthAdjust="spacing" textLength="203.7588" x="270.3" y="542.1457">setTeacher(Teacher teacher)</text><ellipse cx="261.3" cy="555.0959" fill="#84BE84" rx="3" ry="3" style="stroke:#038048;stroke-width:1;"/><text fill="#000000" font-family="sans-serif" font-size="14" lengthAdjust="spacing" textLength="205.4678" x="270.3" y="558.4426">addStudent(Student student)</text><ellipse cx="261.3" cy="571.3928" fill="#84BE84" rx="3" ry="3" style="stroke:#038048;stroke-width:1;"/><text fill="#000000" font-family="sans-serif" font-size="14" lengthAdjust="spacing" textLength="232.5859" x="270.3" y="574.7395">removeStudent(Student student)</text></g><!--class Teacher--><g class="entity" data-entity="Teacher" data-source-line="27" data-uid="ent0005" id="entity_Teacher"><rect fill="#F1F1F1" height="113.1875" rx="2.5" ry="2.5" style="stroke:#181818;stroke-width:0.5;" width="225.1787" x="7" y="667.19"/><ellipse cx="86.9976" cy="683.19" fill="#ADD1B2" rx="11" ry="11" style="stroke:#181818;stroke-width:1;"/><path d="M89.9663,688.8306 Q89.3882,689.1275 88.7476,689.2681 Q88.1069,689.4244 87.4038,689.4244 Q84.9038,689.4244 83.5757,687.7837 Q82.2632,686.1275 82.2632,683.0025 Q82.2632,679.8775 83.5757,678.2212 Q84.9038,676.565 87.4038,676.565 Q88.1069,676.565 88.7476,676.7212 Q89.4038,676.8775 89.9663,677.1744 L89.9663,679.8931 Q89.3413,679.315 88.7476,679.0494 Q88.1538,678.7681 87.5288,678.7681 Q86.1851,678.7681 85.4976,679.8462 Q84.8101,680.9087 84.8101,683.0025 Q84.8101,685.0962 85.4976,686.1744 Q86.1851,687.2369 87.5288,687.2369 Q88.1538,687.2369 88.7476,686.9712 Q89.3413,686.69 89.9663,686.1119 L89.9663,688.8306 Z " fill="#000000"/><text fill="#000000" font-family="sans-serif" font-size="14" lengthAdjust="spacing" textLength="56.6836" x="107.4976" y="688.0367">Teacher</text><line style="stroke:#181818;stroke-width:0.5;" x1="8" x2="231.1787" y1="699.19" y2="699.19"/><rect fill="none" height="6" style="stroke:#C82930;stroke-width:1;" width="6" x="15" y="709.8384"/><text fill="#000000" font-family="sans-serif" font-size="14" lengthAdjust="spacing" textLength="85.9346" x="27" y="716.1851">String name</text><rect fill="none" height="6" style="stroke:#C82930;stroke-width:1;" width="6" x="15" y="726.1353"/><text fill="#000000" font-family="sans-serif" font-size="14" lengthAdjust="spacing" textLength="128.3516" x="27" y="732.482">String employeeId</text><rect fill="none" height="6" style="stroke:#C82930;stroke-width:1;" width="6" x="15" y="742.4322"/><text fill="#000000" font-family="sans-serif" font-size="14" lengthAdjust="spacing" textLength="84.8408" x="27" y="748.7789">String email</text><line style="stroke:#181818;stroke-width:0.5;" x1="8" x2="231.1787" y1="756.0806" y2="756.0806"/><ellipse cx="18" cy="769.7291" fill="#84BE84" rx="3" ry="3" style="stroke:#038048;stroke-width:1;"/><text fill="#000000" font-family="sans-serif" font-size="14" lengthAdjust="spacing" textLength="199.1787" x="27" y="773.0757">teachCourse(Course course)</text></g><!--class Student--><g class="entity" data-entity="Student" data-source-line="34" data-uid="ent0006" id="entity_Student"><rect fill="#F1F1F1" height="129.4844" rx="2.5" ry="2.5" style="stroke:#181818;stroke-width:0.5;" width="225.5137" x="266.83" y="659.05"/><ellipse cx="347.7812" cy="675.05" fill="#ADD1B2" rx="11" ry="11" style="stroke:#181818;stroke-width:1;"/><path d="M350.7499,680.6906 Q350.1718,680.9875 349.5312,681.1281 Q348.8905,681.2844 348.1874,681.2844 Q345.6874,681.2844 344.3593,679.6438 Q343.0468,677.9875 343.0468,674.8625 Q343.0468,671.7375 344.3593,670.0813 Q345.6874,668.425 348.1874,668.425 Q348.8905,668.425 349.5312,668.5813 Q350.1874,668.7375 350.7499,669.0344 L350.7499,671.7531 Q350.1249,671.175 349.5312,670.9094 Q348.9374,670.6281 348.3124,670.6281 Q346.9687,670.6281 346.2812,671.7063 Q345.5937,672.7688 345.5937,674.8625 Q345.5937,676.9563 346.2812,678.0344 Q346.9687,679.0969 348.3124,679.0969 Q348.9374,679.0969 349.5312,678.8313 Q350.1249,678.55 350.7499,677.9719 L350.7499,680.6906 Z " fill="#000000"/><text fill="#000000" font-family="sans-serif" font-size="14" lengthAdjust="spacing" textLength="55.1113" x="368.2812" y="679.8967">Student</text><line style="stroke:#181818;stroke-width:0.5;" x1="267.83" x2="491.3437" y1="691.05" y2="691.05"/><rect fill="none" height="6" style="stroke:#C82930;stroke-width:1;" width="6" x="274.83" y="701.6984"/><text fill="#000000" font-family="sans-serif" font-size="14" lengthAdjust="spacing" textLength="85.9346" x="286.83" y="708.0451">String name</text><rect fill="none" height="6" style="stroke:#C82930;stroke-width:1;" width="6" x="274.83" y="717.9953"/><text fill="#000000" font-family="sans-serif" font-size="14" lengthAdjust="spacing" textLength="112.7656" x="286.83" y="724.342">String studentId</text><rect fill="none" height="6" style="stroke:#C82930;stroke-width:1;" width="6" x="274.83" y="734.2922"/><text fill="#000000" font-family="sans-serif" font-size="14" lengthAdjust="spacing" textLength="84.8408" x="286.83" y="740.6389">String email</text><line style="stroke:#181818;stroke-width:0.5;" x1="267.83" x2="491.3437" y1="747.9406" y2="747.9406"/><ellipse cx="277.83" cy="761.5891" fill="#84BE84" rx="3" ry="3" style="stroke:#038048;stroke-width:1;"/><text fill="#000000" font-family="sans-serif" font-size="14" lengthAdjust="spacing" textLength="199.5137" x="286.83" y="764.9357">enrollCourse(Course course)</text><ellipse cx="277.83" cy="777.8859" fill="#84BE84" rx="3" ry="3" style="stroke:#038048;stroke-width:1;"/><text fill="#000000" font-family="sans-serif" font-size="14" lengthAdjust="spacing" textLength="192.0215" x="286.83" y="781.2326">dropCourse(Course course)</text></g><!--class Classroom--><g class="entity" data-entity="Classroom" data-source-line="42" data-uid="ent0007" id="entity_Classroom"><rect fill="#F1F1F1" height="113.1875" rx="2.5" ry="2.5" style="stroke:#181818;stroke-width:0.5;" width="261.2314" x="526.97" y="667.19"/><ellipse cx="616.6575" cy="683.19" fill="#ADD1B2" rx="11" ry="11" style="stroke:#181818;stroke-width:1;"/><path d="M619.6263,688.8306 Q619.0481,689.1275 618.4075,689.2681 Q617.7669,689.4244 617.0638,689.4244 Q614.5638,689.4244 613.2356,687.7837 Q611.9231,686.1275 611.9231,683.0025 Q611.9231,679.8775 613.2356,678.2212 Q614.5638,676.565 617.0638,676.565 Q617.7669,676.565 618.4075,676.7212 Q619.0638,676.8775 619.6263,677.1744 L619.6263,679.8931 Q619.0013,679.315 618.4075,679.0494 Q617.8138,678.7681 617.1888,678.7681 Q615.845,678.7681 615.1575,679.8462 Q614.47,680.9087 614.47,683.0025 Q614.47,685.0962 615.1575,686.1744 Q615.845,687.2369 617.1888,687.2369 Q617.8138,687.2369 618.4075,686.9712 Q619.0013,686.69 619.6263,686.1119 L619.6263,688.8306 Z " fill="#000000"/><text fill="#000000" font-family="sans-serif" font-size="14" lengthAdjust="spacing" textLength="73.3564" x="637.1575" y="688.0367">Classroom</text><line style="stroke:#181818;stroke-width:0.5;" x1="527.97" x2="787.2014" y1="699.19" y2="699.19"/><rect fill="none" height="6" style="stroke:#C82930;stroke-width:1;" width="6" x="534.97" y="709.8384"/><text fill="#000000" font-family="sans-serif" font-size="14" lengthAdjust="spacing" textLength="138.9951" x="546.97" y="716.1851">String roomNumber</text><rect fill="none" height="6" style="stroke:#C82930;stroke-width:1;" width="6" x="534.97" y="726.1353"/><text fill="#000000" font-family="sans-serif" font-size="14" lengthAdjust="spacing" textLength="81.8057" x="546.97" y="732.482">int capacity</text><rect fill="none" height="6" style="stroke:#C82930;stroke-width:1;" width="6" x="534.97" y="742.4322"/><text fill="#000000" font-family="sans-serif" font-size="14" lengthAdjust="spacing" textLength="96.8721" x="546.97" y="748.7789">boolean isLab</text><line style="stroke:#181818;stroke-width:0.5;" x1="527.97" x2="787.2014" y1="756.0806" y2="756.0806"/><ellipse cx="537.97" cy="769.7291" fill="#84BE84" rx="3" ry="3" style="stroke:#038048;stroke-width:1;"/><text fill="#000000" font-family="sans-serif" font-size="14" lengthAdjust="spacing" textLength="235.2314" x="546.97" y="773.0757">reserveForCourse(Course course)</text></g><!--reverse link School to Department--><g class="link" data-entity-1="School" data-entity-2="Department" data-source-line="49" data-uid="lnk8" id="link_School_Department"><path codeLine="49" d="M379.59,165.17 C379.59,189.98 379.59,205.54 379.59,229.63" fill="none" id="School-backto-Department" style="stroke:#181818;stroke-width:1;"/><polygon fill="#181818" points="379.59,153.17,375.59,159.17,379.59,165.17,383.59,159.17,379.59,153.17" style="stroke:#181818;stroke-width:1;"/><text fill="#000000" font-family="sans-serif" font-size="13" lengthAdjust="spacing" textLength="33.8711" x="380.59" y="195.8469">has&gt;</text><text fill="#000000" font-family="sans-serif" font-size="13" lengthAdjust="spacing" textLength="8.271" x="371.2215" y="172.9425">1</text><text fill="#000000" font-family="sans-serif" font-size="13" lengthAdjust="spacing" textLength="23.0356" x="355.3343" y="218.7863">1..*</text></g><!--reverse link Department to Course--><g class="link" data-entity-1="Department" data-entity-2="Course" data-source-line="50" data-uid="lnk9" id="link_Department_Course"><path codeLine="50" d="M379.59,371.61 C379.59,395.7 379.59,411.24 379.59,436.01" fill="none" id="Department-backto-Course" style="stroke:#181818;stroke-width:1;"/><polygon fill="#181818" points="379.59,359.61,375.59,365.61,379.59,371.61,383.59,365.61,379.59,359.61" style="stroke:#181818;stroke-width:1;"/><text fill="#000000" font-family="sans-serif" font-size="13" lengthAdjust="spacing" textLength="48.1152" x="380.59" y="402.3269">offers&gt;</text><text fill="#000000" font-family="sans-serif" font-size="13" lengthAdjust="spacing" textLength="8.271" x="371.1916" y="379.1694">1</text><text fill="#000000" font-family="sans-serif" font-size="13" lengthAdjust="spacing" textLength="23.0356" x="355.4594" y="425.1454">1..*</text></g><!--link Course to Teacher--><g class="link" data-entity-1="Course" data-entity-2="Teacher" data-source-line="51" data-uid="lnk10" id="link_Course_Teacher"><path codeLine="51" d="M291.2,582.44 C257.49,610.01 219.6,640.99 188.02,666.82" fill="none" id="Course-Teacher" style="stroke:#181818;stroke-width:1;"/><text fill="#000000" font-family="sans-serif" font-size="13" lengthAdjust="spacing" textLength="73.8613" x="250.59" y="625.1169">taught by&gt;</text><text fill="#000000" font-family="sans-serif" font-size="13" lengthAdjust="spacing" textLength="8.271" x="274.4067" y="602.2135">1</text><text fill="#000000" font-family="sans-serif" font-size="13" lengthAdjust="spacing" textLength="8.271" x="187.889" y="656.0385">1</text></g><!--link Course to Student--><g class="link" data-entity-1="Course" data-entity-2="Student" data-source-line="52" data-uid="lnk11" id="link_Course_Student"><path codeLine="52" d="M379.59,582.44 C379.59,607.24 379.59,634.8 379.59,658.89" fill="none" id="Course-Student" style="stroke:#181818;stroke-width:1;"/><text fill="#000000" font-family="sans-serif" font-size="13" lengthAdjust="spacing" textLength="67.7993" x="380.59" y="625.1169">taken by&gt;</text><text fill="#000000" font-family="sans-serif" font-size="13" lengthAdjust="spacing" textLength="8.271" x="371.2214" y="602.2135">1</text><text fill="#000000" font-family="sans-serif" font-size="13" lengthAdjust="spacing" textLength="6.5" x="373.2896" y="648.0452">*</text></g><!--link Course to Classroom--><g class="link" data-entity-1="Course" data-entity-2="Classroom" data-source-line="53" data-uid="lnk12" id="link_Course_Classroom"><path codeLine="53" d="M474.1,582.44 C510.14,610.01 550.65,640.99 584.42,666.82" fill="none" id="Course-Classroom" style="stroke:#181818;stroke-width:1;"/><text fill="#000000" font-family="sans-serif" font-size="13" lengthAdjust="spacing" textLength="40.6758" x="527.59" y="625.1169">uses&gt;</text><text fill="#000000" font-family="sans-serif" font-size="13" lengthAdjust="spacing" textLength="8.271" x="474.7394" y="602.2135">1</text><text fill="#000000" font-family="sans-serif" font-size="13" lengthAdjust="spacing" textLength="8.271" x="567.0319" y="656.0385">1</text></g><!--SRC=[XLFBRiCW4BpxArO-fQaSgLSVSabLgLAL7j8VMCF6jch00XmfglhlnGO_azG-UD0mCCCki0gDWHChbAhW9mBt9N2okfGvI1GqPv1pJSRCoRfGaewDo4Xt4yyWK69EhrIZjeAaDPkdCECs6EdDE0G-37kf9g4kjAx-ZIBM7M8oltgGWf1_diSLmLETpwGFgj66PfazjV40h8DvplkA8LlW5xcyx7YJplC7nIbuv6I_25b1UaXbHYeWM8-Jt2VRyBPq0S5ud4T_A1hIzmQhPILHL-fAzCwNF9PLCErIhfIhZx9g6BB-vqTIgwhwhuDSgtgjV-rVAoMMaLfkSlSJA5riXZMoqbu3bRctHIYXD1-O3QKtf2_qflH3v_0euvSOjadYSBVRnjDRdaA1PXzDc8Ksx9dwU-saWMXbdIeUMfk2nIOlB6JN6vdRgMz8A_icUK_bOAnI2erxGli_]--></g></svg>