<svg xmlns="http://www.w3.org/2000/svg" xmlns:xlink="http://www.w3.org/1999/xlink" contentStyleType="text/css" data-diagram-type="CLASS" height="540px" preserveAspectRatio="none" style="width:1039px;height:540px;background:#FFFFFF;" version="1.1" viewBox="0 0 1039 540" width="1039px" zoomAndPan="magnify"><defs/><g><!--class Company--><g class="entity" data-entity="Company" data-source-line="1" data-uid="ent0002" id="entity_Company"><rect fill="#F1F1F1" height="96.8906" rx="2.5" ry="2.5" style="stroke:#181818;stroke-width:0.5;" width="155.835" x="154.22" y="15.15"/><ellipse cx="194.9746" cy="31.15" fill="#ADD1B2" rx="11" ry="11" style="stroke:#181818;stroke-width:1;"/><path d="M197.9433,36.7906 Q197.3652,37.0875 196.7246,37.2281 Q196.084,37.3844 195.3808,37.3844 Q192.8808,37.3844 191.5527,35.7437 Q190.2402,34.0875 190.2402,30.9625 Q190.2402,27.8375 191.5527,26.1812 Q192.8808,24.525 195.3808,24.525 Q196.084,24.525 196.7246,24.6812 Q197.3808,24.8375 197.9433,25.1344 L197.9433,27.8531 Q197.3183,27.275 196.7246,27.0094 Q196.1308,26.7281 195.5058,26.7281 Q194.1621,26.7281 193.4746,27.8062 Q192.7871,28.8687 192.7871,30.9625 Q192.7871,33.0562 193.4746,34.1344 Q194.1621,35.1969 195.5058,35.1969 Q196.1308,35.1969 196.7246,34.9312 Q197.3183,34.65 197.9433,34.0719 L197.9433,36.7906 Z " fill="#000000"/><text fill="#000000" font-family="sans-serif" font-size="14" lengthAdjust="spacing" textLength="66.6025" x="214.6978" y="35.9967">Company</text><line style="stroke:#181818;stroke-width:0.5;" x1="155.22" x2="309.055" y1="47.15" y2="47.15"/><rect fill="none" height="6" style="stroke:#C82930;stroke-width:1;" width="6" x="162.22" y="57.7984"/><text fill="#000000" font-family="sans-serif" font-size="14" lengthAdjust="spacing" textLength="90.6514" x="174.22" y="64.1451">name: String</text><rect fill="none" height="6" style="stroke:#C82930;stroke-width:1;" width="6" x="162.22" y="74.0953"/><text fill="#000000" font-family="sans-serif" font-size="14" lengthAdjust="spacing" textLength="106.2578" x="174.22" y="80.442">address: String</text><rect fill="none" height="6" style="stroke:#C82930;stroke-width:1;" width="6" x="162.22" y="90.3922"/><text fill="#000000" font-family="sans-serif" font-size="14" lengthAdjust="spacing" textLength="129.835" x="174.22" y="96.7389">contactInfo: String</text><line style="stroke:#181818;stroke-width:0.5;" x1="155.22" x2="309.055" y1="104.0406" y2="104.0406"/></g><!--class Vehicle--><g class="entity" data-entity="Vehicle" data-source-line="7" data-uid="ent0003" id="entity_Vehicle"><rect fill="#F1F1F1" height="145.7813" rx="2.5" ry="2.5" style="stroke:#181818;stroke-width:0.5;" width="214.2686" x="7" y="197.19"/><ellipse cx="84.3076" cy="213.19" fill="#ADD1B2" rx="11" ry="11" style="stroke:#181818;stroke-width:1;"/><path d="M87.2764,218.8306 Q86.6982,219.1275 86.0576,219.2681 Q85.417,219.4244 84.7139,219.4244 Q82.2139,219.4244 80.8857,217.7837 Q79.5732,216.1275 79.5732,213.0025 Q79.5732,209.8775 80.8857,208.2212 Q82.2139,206.565 84.7139,206.565 Q85.417,206.565 86.0576,206.7212 Q86.7139,206.8775 87.2764,207.1744 L87.2764,209.8931 Q86.6514,209.315 86.0576,209.0494 Q85.4639,208.7681 84.8389,208.7681 Q83.4951,208.7681 82.8076,209.8462 Q82.1201,210.9087 82.1201,213.0025 Q82.1201,215.0962 82.8076,216.1744 Q83.4951,217.2369 84.8389,217.2369 Q85.4639,217.2369 86.0576,216.9712 Q86.6514,216.69 87.2764,216.1119 L87.2764,218.8306 Z " fill="#000000"/><text fill="#000000" font-family="sans-serif" font-size="14" lengthAdjust="spacing" textLength="51.1533" x="104.8076" y="218.0367">Vehicle</text><line style="stroke:#181818;stroke-width:0.5;" x1="8" x2="220.2686" y1="229.19" y2="229.19"/><rect fill="none" height="6" style="stroke:#C82930;stroke-width:1;" width="6" x="15" y="239.8384"/><text fill="#000000" font-family="sans-serif" font-size="14" lengthAdjust="spacing" textLength="113.8252" x="27" y="246.1851">vehicleId: String</text><rect fill="none" height="6" style="stroke:#C82930;stroke-width:1;" width="6" x="15" y="256.1353"/><text fill="#000000" font-family="sans-serif" font-size="14" lengthAdjust="spacing" textLength="89.8857" x="27" y="262.482">make: String</text><rect fill="none" height="6" style="stroke:#C82930;stroke-width:1;" width="6" x="15" y="272.4322"/><text fill="#000000" font-family="sans-serif" font-size="14" lengthAdjust="spacing" textLength="94.541" x="27" y="278.7789">model: String</text><rect fill="none" height="6" style="stroke:#C82930;stroke-width:1;" width="6" x="15" y="288.7291"/><text fill="#000000" font-family="sans-serif" font-size="14" lengthAdjust="spacing" textLength="90.7607" x="27" y="295.0757">year: Integer</text><rect fill="none" height="6" style="stroke:#C82930;stroke-width:1;" width="6" x="15" y="305.0259"/><text fill="#000000" font-family="sans-serif" font-size="14" lengthAdjust="spacing" textLength="188.2686" x="27" y="311.3726">registrationNumber: String</text><rect fill="none" height="6" style="stroke:#C82930;stroke-width:1;" width="6" x="15" y="321.3228"/><text fill="#000000" font-family="sans-serif" font-size="14" lengthAdjust="spacing" textLength="93.9668" x="27" y="327.6695">status: String</text><line style="stroke:#181818;stroke-width:0.5;" x1="8" x2="220.2686" y1="334.9712" y2="334.9712"/></g><!--class Driver--><g class="entity" data-entity="Driver" data-source-line="16" data-uid="ent0004" id="entity_Driver"><rect fill="#F1F1F1" height="113.1875" rx="2.5" ry="2.5" style="stroke:#181818;stroke-width:0.5;" width="185.5781" x="256.35" y="213.49"/><ellipse cx="323.349" cy="229.49" fill="#ADD1B2" rx="11" ry="11" style="stroke:#181818;stroke-width:1;"/><path d="M326.3178,235.1306 Q325.7396,235.4275 325.099,235.5681 Q324.4584,235.7244 323.7553,235.7244 Q321.2553,235.7244 319.9271,234.0837 Q318.6146,232.4275 318.6146,229.3025 Q318.6146,226.1775 319.9271,224.5212 Q321.2553,222.865 323.7553,222.865 Q324.4584,222.865 325.099,223.0212 Q325.7553,223.1775 326.3178,223.4744 L326.3178,226.1931 Q325.6928,225.615 325.099,225.3494 Q324.5053,225.0681 323.8803,225.0681 Q322.5365,225.0681 321.849,226.1462 Q321.1615,227.2087 321.1615,229.3025 Q321.1615,231.3962 321.849,232.4744 Q322.5365,233.5369 323.8803,233.5369 Q324.5053,233.5369 325.099,233.2712 Q325.6928,232.99 326.3178,232.4119 L326.3178,235.1306 Z " fill="#000000"/><text fill="#000000" font-family="sans-serif" font-size="14" lengthAdjust="spacing" textLength="43.0801" x="343.849" y="234.3367">Driver</text><line style="stroke:#181818;stroke-width:0.5;" x1="257.35" x2="440.9281" y1="245.49" y2="245.49"/><rect fill="none" height="6" style="stroke:#C82930;stroke-width:1;" width="6" x="264.35" y="256.1384"/><text fill="#000000" font-family="sans-serif" font-size="14" lengthAdjust="spacing" textLength="105.1504" x="276.35" y="262.4851">driverId: String</text><rect fill="none" height="6" style="stroke:#C82930;stroke-width:1;" width="6" x="264.35" y="272.4353"/><text fill="#000000" font-family="sans-serif" font-size="14" lengthAdjust="spacing" textLength="90.6514" x="276.35" y="278.782">name: String</text><rect fill="none" height="6" style="stroke:#C82930;stroke-width:1;" width="6" x="264.35" y="288.7322"/><text fill="#000000" font-family="sans-serif" font-size="14" lengthAdjust="spacing" textLength="156.0576" x="276.35" y="295.0789">licenseNumber: String</text><rect fill="none" height="6" style="stroke:#C82930;stroke-width:1;" width="6" x="264.35" y="305.0291"/><text fill="#000000" font-family="sans-serif" font-size="14" lengthAdjust="spacing" textLength="159.5781" x="276.35" y="311.3757">contactNumber: String</text><line style="stroke:#181818;stroke-width:0.5;" x1="257.35" x2="440.9281" y1="318.6775" y2="318.6775"/></g><!--class Route--><g class="entity" data-entity="Route" data-source-line="23" data-uid="ent0005" id="entity_Route"><rect fill="#F1F1F1" height="113.1875" rx="2.5" ry="2.5" style="stroke:#181818;stroke-width:0.5;" width="155.3906" x="476.44" y="213.49"/><ellipse cx="529.251" cy="229.49" fill="#ADD1B2" rx="11" ry="11" style="stroke:#181818;stroke-width:1;"/><path d="M532.2198,235.1306 Q531.6417,235.4275 531.001,235.5681 Q530.3604,235.7244 529.6573,235.7244 Q527.1573,235.7244 525.8292,234.0837 Q524.5167,232.4275 524.5167,229.3025 Q524.5167,226.1775 525.8292,224.5212 Q527.1573,222.865 529.6573,222.865 Q530.3604,222.865 531.001,223.0212 Q531.6573,223.1775 532.2198,223.4744 L532.2198,226.1931 Q531.5948,225.615 531.001,225.3494 Q530.4073,225.0681 529.7823,225.0681 Q528.4385,225.0681 527.751,226.1462 Q527.0635,227.2087 527.0635,229.3025 Q527.0635,231.3962 527.751,232.4744 Q528.4385,233.5369 529.7823,233.5369 Q530.4073,233.5369 531.001,233.2712 Q531.5948,232.99 532.2198,232.4119 L532.2198,235.1306 Z " fill="#000000"/><text fill="#000000" font-family="sans-serif" font-size="14" lengthAdjust="spacing" textLength="41.2686" x="549.751" y="234.3367">Route</text><line style="stroke:#181818;stroke-width:0.5;" x1="477.44" x2="630.8306" y1="245.49" y2="245.49"/><rect fill="none" height="6" style="stroke:#C82930;stroke-width:1;" width="6" x="484.44" y="256.1384"/><text fill="#000000" font-family="sans-serif" font-size="14" lengthAdjust="spacing" textLength="101.2607" x="496.44" y="262.4851">routeId: String</text><rect fill="none" height="6" style="stroke:#C82930;stroke-width:1;" width="6" x="484.44" y="272.4353"/><text fill="#000000" font-family="sans-serif" font-size="14" lengthAdjust="spacing" textLength="90.8086" x="496.44" y="278.782">origin: String</text><rect fill="none" height="6" style="stroke:#C82930;stroke-width:1;" width="6" x="484.44" y="288.7322"/><text fill="#000000" font-family="sans-serif" font-size="14" lengthAdjust="spacing" textLength="129.3906" x="496.44" y="295.0789">destination: String</text><rect fill="none" height="6" style="stroke:#C82930;stroke-width:1;" width="6" x="484.44" y="305.0291"/><text fill="#000000" font-family="sans-serif" font-size="14" lengthAdjust="spacing" textLength="103.0654" x="496.44" y="311.3757">distance: Float</text><line style="stroke:#181818;stroke-width:0.5;" x1="477.44" x2="630.8306" y1="318.6775" y2="318.6775"/></g><!--class Trip--><g class="entity" data-entity="Trip" data-source-line="30" data-uid="ent0006" id="entity_Trip"><rect fill="#F1F1F1" height="96.8906" rx="2.5" ry="2.5" style="stroke:#181818;stroke-width:0.5;" width="172.7744" x="467.75" y="428.12"/><ellipse cx="536.3452" cy="444.12" fill="#ADD1B2" rx="11" ry="11" style="stroke:#181818;stroke-width:1;"/><path d="M539.314,449.7606 Q538.7358,450.0575 538.0952,450.1981 Q537.4546,450.3544 536.7515,450.3544 Q534.2515,450.3544 532.9233,448.7137 Q531.6108,447.0575 531.6108,443.9325 Q531.6108,440.8075 532.9233,439.1512 Q534.2515,437.495 536.7515,437.495 Q537.4546,437.495 538.0952,437.6512 Q538.7515,437.8075 539.314,438.1044 L539.314,440.8231 Q538.689,440.245 538.0952,439.9794 Q537.5015,439.6981 536.8765,439.6981 Q535.5327,439.6981 534.8452,440.7762 Q534.1577,441.8387 534.1577,443.9325 Q534.1577,446.0262 534.8452,447.1044 Q535.5327,448.1669 536.8765,448.1669 Q537.5015,448.1669 538.0952,447.9012 Q538.689,447.62 539.314,447.0419 L539.314,449.7606 Z " fill="#000000"/><text fill="#000000" font-family="sans-serif" font-size="14" lengthAdjust="spacing" textLength="27.084" x="556.8452" y="448.9667">Trip</text><line style="stroke:#181818;stroke-width:0.5;" x1="468.75" x2="639.5244" y1="460.12" y2="460.12"/><rect fill="none" height="6" style="stroke:#C82930;stroke-width:1;" width="6" x="475.75" y="470.7684"/><text fill="#000000" font-family="sans-serif" font-size="14" lengthAdjust="spacing" textLength="87.9854" x="487.75" y="477.1151">tripId: String</text><rect fill="none" height="6" style="stroke:#C82930;stroke-width:1;" width="6" x="475.75" y="487.0653"/><text fill="#000000" font-family="sans-serif" font-size="14" lengthAdjust="spacing" textLength="146.7744" x="487.75" y="493.412">departureTime: Date</text><rect fill="none" height="6" style="stroke:#C82930;stroke-width:1;" width="6" x="475.75" y="503.3622"/><text fill="#000000" font-family="sans-serif" font-size="14" lengthAdjust="spacing" textLength="122.0557" x="487.75" y="509.7089">arrivalTime: Date</text><line style="stroke:#181818;stroke-width:0.5;" x1="468.75" x2="639.5244" y1="517.0106" y2="517.0106"/></g><!--class Customer--><g class="entity" data-entity="Customer" data-source-line="36" data-uid="ent0007" id="entity_Customer"><rect fill="#F1F1F1" height="113.1875" rx="2.5" ry="2.5" style="stroke:#181818;stroke-width:0.5;" width="185.5781" x="653.35" y="7"/><ellipse cx="707.8871" cy="23" fill="#ADD1B2" rx="11" ry="11" style="stroke:#181818;stroke-width:1;"/><path d="M710.8559,28.6406 Q710.2777,28.9375 709.6371,29.0781 Q708.9965,29.2344 708.2934,29.2344 Q705.7934,29.2344 704.4652,27.5938 Q703.1527,25.9375 703.1527,22.8125 Q703.1527,19.6875 704.4652,18.0313 Q705.7934,16.375 708.2934,16.375 Q708.9965,16.375 709.6371,16.5313 Q710.2934,16.6875 710.8559,16.9844 L710.8559,19.7031 Q710.2309,19.125 709.6371,18.8594 Q709.0434,18.5781 708.4184,18.5781 Q707.0746,18.5781 706.3871,19.6563 Q705.6996,20.7188 705.6996,22.8125 Q705.6996,24.9063 706.3871,25.9844 Q707.0746,27.0469 708.4184,27.0469 Q709.0434,27.0469 709.6371,26.7813 Q710.2309,26.5 710.8559,25.9219 L710.8559,28.6406 Z " fill="#000000"/><text fill="#000000" font-family="sans-serif" font-size="14" lengthAdjust="spacing" textLength="68.0039" x="728.3871" y="27.8467">Customer</text><line style="stroke:#181818;stroke-width:0.5;" x1="654.35" x2="837.9281" y1="39" y2="39"/><rect fill="none" height="6" style="stroke:#C82930;stroke-width:1;" width="6" x="661.35" y="49.6484"/><text fill="#000000" font-family="sans-serif" font-size="14" lengthAdjust="spacing" textLength="129.8896" x="673.35" y="55.9951">customerId: String</text><rect fill="none" height="6" style="stroke:#C82930;stroke-width:1;" width="6" x="661.35" y="65.9453"/><text fill="#000000" font-family="sans-serif" font-size="14" lengthAdjust="spacing" textLength="90.6514" x="673.35" y="72.292">name: String</text><rect fill="none" height="6" style="stroke:#C82930;stroke-width:1;" width="6" x="661.35" y="82.2422"/><text fill="#000000" font-family="sans-serif" font-size="14" lengthAdjust="spacing" textLength="106.2578" x="673.35" y="88.5889">address: String</text><rect fill="none" height="6" style="stroke:#C82930;stroke-width:1;" width="6" x="661.35" y="98.5391"/><text fill="#000000" font-family="sans-serif" font-size="14" lengthAdjust="spacing" textLength="159.5781" x="673.35" y="104.8857">contactNumber: String</text><line style="stroke:#181818;stroke-width:0.5;" x1="654.35" x2="837.9281" y1="112.1875" y2="112.1875"/></g><!--class Booking--><g class="entity" data-entity="Booking" data-source-line="43" data-uid="ent0008" id="entity_Booking"><rect fill="#F1F1F1" height="96.8906" rx="2.5" ry="2.5" style="stroke:#181818;stroke-width:0.5;" width="157.8652" x="667.2" y="221.64"/><ellipse cx="713.6365" cy="237.64" fill="#ADD1B2" rx="11" ry="11" style="stroke:#181818;stroke-width:1;"/><path d="M716.6053,243.2806 Q716.0271,243.5775 715.3865,243.7181 Q714.7459,243.8744 714.0428,243.8744 Q711.5428,243.8744 710.2146,242.2338 Q708.9021,240.5775 708.9021,237.4525 Q708.9021,234.3275 710.2146,232.6713 Q711.5428,231.015 714.0428,231.015 Q714.7459,231.015 715.3865,231.1713 Q716.0428,231.3275 716.6053,231.6244 L716.6053,234.3431 Q715.9803,233.765 715.3865,233.4994 Q714.7928,233.2181 714.1678,233.2181 Q712.824,233.2181 712.1365,234.2963 Q711.449,235.3588 711.449,237.4525 Q711.449,239.5463 712.1365,240.6244 Q712.824,241.6869 714.1678,241.6869 Q714.7928,241.6869 715.3865,241.4213 Q715.9803,241.14 716.6053,240.5619 L716.6053,243.2806 Z " fill="#000000"/><text fill="#000000" font-family="sans-serif" font-size="14" lengthAdjust="spacing" textLength="56.4922" x="734.1365" y="242.4867">Booking</text><line style="stroke:#181818;stroke-width:0.5;" x1="668.2" x2="824.0652" y1="253.64" y2="253.64"/><rect fill="none" height="6" style="stroke:#C82930;stroke-width:1;" width="6" x="675.2" y="264.2884"/><text fill="#000000" font-family="sans-serif" font-size="14" lengthAdjust="spacing" textLength="119.7383" x="687.2" y="270.6351">bookingId: String</text><rect fill="none" height="6" style="stroke:#C82930;stroke-width:1;" width="6" x="675.2" y="280.5853"/><text fill="#000000" font-family="sans-serif" font-size="14" lengthAdjust="spacing" textLength="131.8652" x="687.2" y="286.932">bookingDate: Date</text><rect fill="none" height="6" style="stroke:#C82930;stroke-width:1;" width="6" x="675.2" y="296.8822"/><text fill="#000000" font-family="sans-serif" font-size="14" lengthAdjust="spacing" textLength="93.9668" x="687.2" y="303.2289">status: String</text><line style="stroke:#181818;stroke-width:0.5;" x1="668.2" x2="824.0652" y1="310.5306" y2="310.5306"/></g><!--class Schedule--><g class="entity" data-entity="Schedule" data-source-line="49" data-uid="ent0009" id="entity_Schedule"><rect fill="#F1F1F1" height="80.5938" rx="2.5" ry="2.5" style="stroke:#181818;stroke-width:0.5;" width="173.0752" x="859.6" y="229.78"/><ellipse cx="909.7211" cy="245.78" fill="#ADD1B2" rx="11" ry="11" style="stroke:#181818;stroke-width:1;"/><path d="M912.6898,251.4206 Q912.1117,251.7175 911.4711,251.8581 Q910.8305,252.0144 910.1273,252.0144 Q907.6273,252.0144 906.2992,250.3737 Q904.9867,248.7175 904.9867,245.5925 Q904.9867,242.4675 906.2992,240.8112 Q907.6273,239.155 910.1273,239.155 Q910.8305,239.155 911.4711,239.3112 Q912.1273,239.4675 912.6898,239.7644 L912.6898,242.4831 Q912.0648,241.905 911.4711,241.6394 Q910.8773,241.3581 910.2523,241.3581 Q908.9086,241.3581 908.2211,242.4362 Q907.5336,243.4987 907.5336,245.5925 Q907.5336,247.6862 908.2211,248.7644 Q908.9086,249.8269 910.2523,249.8269 Q910.8773,249.8269 911.4711,249.5612 Q912.0648,249.28 912.6898,248.7019 L912.6898,251.4206 Z " fill="#000000"/><text fill="#000000" font-family="sans-serif" font-size="14" lengthAdjust="spacing" textLength="64.333" x="930.2211" y="250.6267">Schedule</text><line style="stroke:#181818;stroke-width:0.5;" x1="860.6" x2="1031.6752" y1="261.78" y2="261.78"/><rect fill="none" height="6" style="stroke:#C82930;stroke-width:1;" width="6" x="867.6" y="272.4284"/><text fill="#000000" font-family="sans-serif" font-size="14" lengthAdjust="spacing" textLength="126.7041" x="879.6" y="278.7751">scheduleId: String</text><rect fill="none" height="6" style="stroke:#C82930;stroke-width:1;" width="6" x="867.6" y="288.7253"/><text fill="#000000" font-family="sans-serif" font-size="14" lengthAdjust="spacing" textLength="147.0752" x="879.6" y="295.072">weekStartDate: Date</text><line style="stroke:#181818;stroke-width:0.5;" x1="860.6" x2="1031.6752" y1="302.3738" y2="302.3738"/></g><!--class MaintenanceRecord--><g class="entity" data-entity="MaintenanceRecord" data-source-line="54" data-uid="ent0010" id="entity_MaintenanceRecord"><rect fill="#F1F1F1" height="113.1875" rx="2.5" ry="2.5" style="stroke:#181818;stroke-width:0.5;" width="193.8086" x="17.23" y="419.97"/><ellipse cx="42.3115" cy="435.97" fill="#ADD1B2" rx="11" ry="11" style="stroke:#181818;stroke-width:1;"/><path d="M45.2802,441.6106 Q44.7021,441.9075 44.0615,442.0481 Q43.4209,442.2044 42.7177,442.2044 Q40.2177,442.2044 38.8896,440.5637 Q37.5771,438.9075 37.5771,435.7825 Q37.5771,432.6575 38.8896,431.0012 Q40.2177,429.345 42.7177,429.345 Q43.4209,429.345 44.0615,429.5012 Q44.7177,429.6575 45.2802,429.9544 L45.2802,432.6731 Q44.6552,432.095 44.0615,431.8294 Q43.4677,431.5481 42.8427,431.5481 Q41.499,431.5481 40.8115,432.6262 Q40.124,433.6887 40.124,435.7825 Q40.124,437.8762 40.8115,438.9544 Q41.499,440.0169 42.8427,440.0169 Q43.4677,440.0169 44.0615,439.7512 Q44.6552,439.47 45.2802,438.8919 L45.2802,441.6106 Z " fill="#000000"/><text fill="#000000" font-family="sans-serif" font-size="14" lengthAdjust="spacing" textLength="139.4053" x="58.5518" y="440.8167">MaintenanceRecord</text><line style="stroke:#181818;stroke-width:0.5;" x1="18.23" x2="210.0386" y1="451.97" y2="451.97"/><rect fill="none" height="6" style="stroke:#C82930;stroke-width:1;" width="6" x="25.23" y="462.6184"/><text fill="#000000" font-family="sans-serif" font-size="14" lengthAdjust="spacing" textLength="109.2383" x="37.23" y="468.9651">recordId: String</text><rect fill="none" height="6" style="stroke:#C82930;stroke-width:1;" width="6" x="25.23" y="478.9153"/><text fill="#000000" font-family="sans-serif" font-size="14" lengthAdjust="spacing" textLength="167.8086" x="37.23" y="485.262">maintenanceDate: Date</text><rect fill="none" height="6" style="stroke:#C82930;stroke-width:1;" width="6" x="25.23" y="495.2122"/><text fill="#000000" font-family="sans-serif" font-size="14" lengthAdjust="spacing" textLength="128.7891" x="37.23" y="501.5589">description: String</text><rect fill="none" height="6" style="stroke:#C82930;stroke-width:1;" width="6" x="25.23" y="511.5091"/><text fill="#000000" font-family="sans-serif" font-size="14" lengthAdjust="spacing" textLength="72.7891" x="37.23" y="517.8557">cost: Float</text><line style="stroke:#181818;stroke-width:0.5;" x1="18.23" x2="210.0386" y1="525.1575" y2="525.1575"/></g><!--reverse link Company to Vehicle--><g class="link" data-entity-1="Company" data-entity-2="Vehicle" data-source-line="61" data-uid="lnk11" id="link_Company_Vehicle"><path codeLine="61" d="M198.4714,122.9331 C183.9614,148.0731 171.89,169 155.73,197" fill="none" id="Company-backto-Vehicle" style="stroke:#181818;stroke-width:1;"/><polygon fill="#181818" points="204.47,112.54,198.0063,115.737,198.4714,122.9331,204.9351,119.7361,204.47,112.54" style="stroke:#181818;stroke-width:1;"/><text fill="#000000" font-family="sans-serif" font-size="13" lengthAdjust="spacing" textLength="33.5981" x="182.13" y="163.2569">owns</text><text fill="#000000" font-family="sans-serif" font-size="13" lengthAdjust="spacing" textLength="8.271" x="192.2329" y="132.2006">1</text><text fill="#000000" font-family="sans-serif" font-size="13" lengthAdjust="spacing" textLength="6.5" x="153.5539" y="186.1413">*</text></g><!--reverse link Company to Driver--><g class="link" data-entity-1="Company" data-entity-2="Driver" data-source-line="62" data-uid="lnk12" id="link_Company_Driver"><path codeLine="62" d="M265.5289,122.9559 C282.7489,153.0559 299.07,181.59 317.11,213.11" fill="none" id="Company-backto-Driver" style="stroke:#181818;stroke-width:1;"/><polygon fill="#181818" points="259.57,112.54,259.0775,119.7343,265.5289,122.9559,266.0214,115.7617,259.57,112.54" style="stroke:#181818;stroke-width:1;"/><text fill="#000000" font-family="sans-serif" font-size="13" lengthAdjust="spacing" textLength="54.9453" x="292.13" y="163.2569">employs</text><text fill="#000000" font-family="sans-serif" font-size="13" lengthAdjust="spacing" textLength="8.271" x="254.737" y="132.2006">1</text><text fill="#000000" font-family="sans-serif" font-size="13" lengthAdjust="spacing" textLength="6.5" x="306.8713" y="202.3272">*</text></g><!--reverse link Vehicle to MaintenanceRecord--><g class="link" data-entity-1="Vehicle" data-entity-2="MaintenanceRecord" data-source-line="63" data-uid="lnk13" id="link_Vehicle_MaintenanceRecord"><path codeLine="63" d="M114.13,355.46 C114.13,380.51 114.13,396.18 114.13,419.69" fill="none" id="Vehicle-backto-MaintenanceRecord" style="stroke:#181818;stroke-width:1;"/><polygon fill="#181818" points="114.13,343.46,110.13,349.46,114.13,355.46,118.13,349.46,114.13,343.46" style="stroke:#181818;stroke-width:1;"/><text fill="#000000" font-family="sans-serif" font-size="13" lengthAdjust="spacing" textLength="22.9785" x="115.13" y="386.0369">has</text><text fill="#000000" font-family="sans-serif" font-size="13" lengthAdjust="spacing" textLength="8.271" x="105.7733" y="362.9891">1</text><text fill="#000000" font-family="sans-serif" font-size="13" lengthAdjust="spacing" textLength="6.5" x="107.7943" y="408.9194">*</text></g><!--link Driver to Trip--><g class="link" data-entity-1="Driver" data-entity-2="Trip" data-source-line="64" data-uid="lnk14" id="link_Driver_Trip"><path codeLine="64" d="M405.15,326.96 C436.8,358.53 475.96,397.59 506.18,427.74" fill="none" id="Driver-Trip" style="stroke:#181818;stroke-width:1;"/><text fill="#000000" font-family="sans-serif" font-size="13" lengthAdjust="spacing" textLength="39.6729" x="465.13" y="386.0369">drives</text><text fill="#000000" font-family="sans-serif" font-size="13" lengthAdjust="spacing" textLength="8.271" x="403.5053" y="346.8808">1</text><text fill="#000000" font-family="sans-serif" font-size="13" lengthAdjust="spacing" textLength="23.0356" x="474.8213" y="416.8955">0..*</text></g><!--link Vehicle to Trip--><g class="link" data-entity-1="Vehicle" data-entity-2="Trip" data-source-line="65" data-uid="lnk15" id="link_Vehicle_Trip"><path codeLine="65" d="M221.75,334.08 C227.59,337.15 233.41,340.14 239.13,342.97 C314.63,380.39 403.29,417.09 467.28,442.36" fill="none" id="Vehicle-Trip" style="stroke:#181818;stroke-width:1;"/><text fill="#000000" font-family="sans-serif" font-size="13" lengthAdjust="spacing" textLength="29.7832" x="334.13" y="386.0369">uses</text><text fill="#000000" font-family="sans-serif" font-size="13" lengthAdjust="spacing" textLength="8.271" x="229.2583" y="334.9474">1</text><text fill="#000000" font-family="sans-serif" font-size="13" lengthAdjust="spacing" textLength="23.0356" x="436.7509" y="436.2389">0..*</text></g><!--link Route to Trip--><g class="link" data-entity-1="Route" data-entity-2="Trip" data-source-line="66" data-uid="lnk16" id="link_Route_Trip"><path codeLine="66" d="M554.13,326.96 C554.13,358.53 554.13,397.59 554.13,427.74" fill="none" id="Route-Trip" style="stroke:#181818;stroke-width:1;"/><text fill="#000000" font-family="sans-serif" font-size="13" lengthAdjust="spacing" textLength="45.1128" x="555.13" y="386.0369">follows</text><text fill="#000000" font-family="sans-serif" font-size="13" lengthAdjust="spacing" textLength="8.271" x="545.6584" y="346.8808">1</text><text fill="#000000" font-family="sans-serif" font-size="13" lengthAdjust="spacing" textLength="23.0356" x="529.5143" y="416.8955">0..*</text></g><!--link Customer to Booking--><g class="link" data-entity-1="Customer" data-entity-2="Booking" data-source-line="67" data-uid="lnk17" id="link_Customer_Booking"><path codeLine="67" d="M746.13,120.47 C746.13,152.05 746.13,191.1 746.13,221.25" fill="none" id="Customer-Booking" style="stroke:#181818;stroke-width:1;"/><text fill="#000000" font-family="sans-serif" font-size="13" lengthAdjust="spacing" textLength="42.9292" x="747.13" y="163.2569">makes</text><text fill="#000000" font-family="sans-serif" font-size="13" lengthAdjust="spacing" textLength="8.271" x="737.6579" y="140.3908">1</text><text fill="#000000" font-family="sans-serif" font-size="13" lengthAdjust="spacing" textLength="23.0356" x="721.515" y="210.4041">0..*</text></g><!--link Booking to Trip--><g class="link" data-entity-1="Booking" data-entity-2="Trip" data-source-line="68" data-uid="lnk18" id="link_Booking_Trip"><path codeLine="68" d="M701.12,319.02 C670.31,351.84 629.62,395.17 598.87,427.92" fill="none" id="Booking-Trip" style="stroke:#181818;stroke-width:1;"/><text fill="#000000" font-family="sans-serif" font-size="13" lengthAdjust="spacing" textLength="69.418" x="651.13" y="386.0369">references</text><text fill="#000000" font-family="sans-serif" font-size="13" lengthAdjust="spacing" textLength="8.271" x="686.5521" y="338.6792">1</text><text fill="#000000" font-family="sans-serif" font-size="13" lengthAdjust="spacing" textLength="8.271" x="596.6171" y="417.1008">1</text></g><!--link Schedule to Trip--><g class="link" data-entity-1="Schedule" data-entity-2="Trip" data-source-line="69" data-uid="lnk19" id="link_Schedule_Trip"><path codeLine="69" d="M892.5,310.78 C876.65,321.79 859.01,333.35 842.13,342.97 C776.74,380.25 699.03,415.54 640.82,440.33" fill="none" id="Schedule-Trip" style="stroke:#181818;stroke-width:1;"/><text fill="#000000" font-family="sans-serif" font-size="13" lengthAdjust="spacing" textLength="53.8726" x="781.13" y="386.0369">includes</text><text fill="#000000" font-family="sans-serif" font-size="13" lengthAdjust="spacing" textLength="8.271" x="875.3356" y="330.5399">1</text><text fill="#000000" font-family="sans-serif" font-size="13" lengthAdjust="spacing" textLength="6.5" x="648.5486" y="433.6441">*</text></g><!--SRC=[XLCzJyCm4DtpAwoEI4MmPWI4r046YjYDVMsjEhxepg6g4FyT9x5Dd1JOSY_FzzvzAIkPnJqshNHdyLa9iHPEDb2BhIVZzWCWjIPWBZ25palbDsw76V-gAZNaUuE3KHPYleynskWYGIEFfKg36co1d45IBJREmnveG0ZsXZr9Rz0zTyqxKF60lVGTB_qyaFa0YdRq4CpSB6gsHe5Zk20IAv_zoLelsFbKEVNVCoKaipUkW3ImDsuegiH3hTAfOEpHelG_6gzasYWHsErCGKChoNS4hwOlwa5w6CT8eN9f9sXEUD-nnoQtICNmloRziHY_jUSEyHY0AFG-HZETYFOM9_P_6-vM7K1tUTiuXhES9u3ZreU-JBBc54_IX2LpVQzVG27fDByXM2nk9iySXZcgC8x571ModymmNTlgTYMkrcknkbhbYwa5dXnVfCGbhWKqhSKpL-dDbBIif1O7oLLyt5DxvitrTI0FQrIF1r6cMt0w3ennjI_-tw6rU0h6qoALh3JrUZXxhbASMBSv4S4E289zhl9W4-j7pZXbkz3kRm00]--></g></svg>