<svg xmlns="http://www.w3.org/2000/svg" xmlns:xlink="http://www.w3.org/1999/xlink" contentStyleType="text/css" data-diagram-type="CLASS" height="1127px" preserveAspectRatio="none" style="width:572px;height:1127px;background:#FFFFFF;" version="1.1" viewBox="0 0 572 1127" width="572px" zoomAndPan="magnify"><defs/><g><!--class School--><g class="entity" data-entity="School" data-source-line="1" data-uid="ent0002" id="entity_School"><rect fill="#F1F1F1" height="113.1875" rx="2.5" ry="2.5" style="stroke:#181818;stroke-width:0.5;" width="354.0635" x="211.6" y="7"/><ellipse cx="361.143" cy="23" fill="#ADD1B2" rx="11" ry="11" style="stroke:#181818;stroke-width:1;"/><path d="M364.1117,28.6406 Q363.5336,28.9375 362.893,29.0781 Q362.2523,29.2344 361.5492,29.2344 Q359.0492,29.2344 357.7211,27.5938 Q356.4086,25.9375 356.4086,22.8125 Q356.4086,19.6875 357.7211,18.0313 Q359.0492,16.375 361.5492,16.375 Q362.2523,16.375 362.893,16.5313 Q363.5492,16.6875 364.1117,16.9844 L364.1117,19.7031 Q363.4867,19.125 362.893,18.8594 Q362.2992,18.5781 361.6742,18.5781 Q360.3305,18.5781 359.643,19.6563 Q358.9555,20.7188 358.9555,22.8125 Q358.9555,24.9063 359.643,25.9844 Q360.3305,27.0469 361.6742,27.0469 Q362.2992,27.0469 362.893,26.7813 Q363.4867,26.5 364.1117,25.9219 L364.1117,28.6406 Z " fill="#000000"/><text fill="#000000" font-family="sans-serif" font-size="14" lengthAdjust="spacing" textLength="46.4775" x="381.643" y="27.8467">School</text><line style="stroke:#181818;stroke-width:0.5;" x1="212.6" x2="564.6635" y1="39" y2="39"/><rect fill="none" height="6" style="stroke:#C82930;stroke-width:1;" width="6" x="219.6" y="49.6484"/><text fill="#000000" font-family="sans-serif" font-size="14" lengthAdjust="spacing" textLength="85.9346" x="231.6" y="55.9951">String name</text><rect fill="none" height="6" style="stroke:#C82930;stroke-width:1;" width="6" x="219.6" y="65.9453"/><text fill="#000000" font-family="sans-serif" font-size="14" lengthAdjust="spacing" textLength="101.541" x="231.6" y="72.292">String address</text><line style="stroke:#181818;stroke-width:0.5;" x1="212.6" x2="564.6635" y1="79.5938" y2="79.5938"/><ellipse cx="222.6" cy="93.2422" fill="#84BE84" rx="3" ry="3" style="stroke:#038048;stroke-width:1;"/><text fill="#000000" font-family="sans-serif" font-size="14" lengthAdjust="spacing" textLength="328.0635" x="231.6" y="96.5889">void addDepartment(Department department)</text><ellipse cx="222.6" cy="109.5391" fill="#84BE84" rx="3" ry="3" style="stroke:#038048;stroke-width:1;"/><text fill="#000000" font-family="sans-serif" font-size="14" lengthAdjust="spacing" textLength="239.5449" x="231.6" y="112.8857">void addStudent(Student student)</text></g><!--class Department--><g class="entity" data-entity="Department" data-source-line="8" data-uid="ent0003" id="entity_Department"><rect fill="#F1F1F1" height="113.1875" rx="2.5" ry="2.5" style="stroke:#181818;stroke-width:0.5;" width="268.792" x="161.23" y="197.19"/><ellipse cx="249.0171" cy="213.19" fill="#ADD1B2" rx="11" ry="11" style="stroke:#181818;stroke-width:1;"/><path d="M251.9859,218.8306 Q251.4077,219.1275 250.7671,219.2681 Q250.1265,219.4244 249.4234,219.4244 Q246.9234,219.4244 245.5952,217.7837 Q244.2827,216.1275 244.2827,213.0025 Q244.2827,209.8775 245.5952,208.2212 Q246.9234,206.565 249.4234,206.565 Q250.1265,206.565 250.7671,206.7212 Q251.4234,206.8775 251.9859,207.1744 L251.9859,209.8931 Q251.3609,209.315 250.7671,209.0494 Q250.1734,208.7681 249.5484,208.7681 Q248.2046,208.7681 247.5171,209.8462 Q246.8296,210.9087 246.8296,213.0025 Q246.8296,215.0962 247.5171,216.1744 Q248.2046,217.2369 249.5484,217.2369 Q250.1734,217.2369 250.7671,216.9712 Q251.3609,216.69 251.9859,216.1119 L251.9859,218.8306 Z " fill="#000000"/><text fill="#000000" font-family="sans-serif" font-size="14" lengthAdjust="spacing" textLength="84.7178" x="269.5171" y="218.0367">Department</text><line style="stroke:#181818;stroke-width:0.5;" x1="162.23" x2="429.022" y1="229.19" y2="229.19"/><rect fill="none" height="6" style="stroke:#C82930;stroke-width:1;" width="6" x="169.23" y="239.8384"/><text fill="#000000" font-family="sans-serif" font-size="14" lengthAdjust="spacing" textLength="85.9346" x="181.23" y="246.1851">String name</text><rect fill="none" height="6" style="stroke:#C82930;stroke-width:1;" width="6" x="169.23" y="256.1353"/><text fill="#000000" font-family="sans-serif" font-size="14" lengthAdjust="spacing" textLength="95.8125" x="181.23" y="262.482">School school</text><line style="stroke:#181818;stroke-width:0.5;" x1="162.23" x2="429.022" y1="269.7837" y2="269.7837"/><ellipse cx="172.23" cy="283.4322" fill="#84BE84" rx="3" ry="3" style="stroke:#038048;stroke-width:1;"/><text fill="#000000" font-family="sans-serif" font-size="14" lengthAdjust="spacing" textLength="242.792" x="181.23" y="286.7789">void addTeacher(Teacher teacher)</text><ellipse cx="172.23" cy="299.7291" fill="#84BE84" rx="3" ry="3" style="stroke:#038048;stroke-width:1;"/><text fill="#000000" font-family="sans-serif" font-size="14" lengthAdjust="spacing" textLength="220.3564" x="181.23" y="303.0757">void addCourse(Course course)</text></g><!--class Teacher--><g class="entity" data-entity="Teacher" data-source-line="15" data-uid="ent0004" id="entity_Teacher"><rect fill="#F1F1F1" height="129.4844" rx="2.5" ry="2.5" style="stroke:#181818;stroke-width:0.5;" width="259.2559" x="7" y="387.38"/><ellipse cx="104.0361" cy="403.38" fill="#ADD1B2" rx="11" ry="11" style="stroke:#181818;stroke-width:1;"/><path d="M107.0049,409.0206 Q106.4268,409.3175 105.7861,409.4581 Q105.1455,409.6144 104.4424,409.6144 Q101.9424,409.6144 100.6143,407.9738 Q99.3018,406.3175 99.3018,403.1925 Q99.3018,400.0675 100.6143,398.4113 Q101.9424,396.755 104.4424,396.755 Q105.1455,396.755 105.7861,396.9113 Q106.4424,397.0675 107.0049,397.3644 L107.0049,400.0831 Q106.3799,399.505 105.7861,399.2394 Q105.1924,398.9581 104.5674,398.9581 Q103.2236,398.9581 102.5361,400.0363 Q101.8486,401.0988 101.8486,403.1925 Q101.8486,405.2863 102.5361,406.3644 Q103.2236,407.4269 104.5674,407.4269 Q105.1924,407.4269 105.7861,407.1613 Q106.3799,406.88 107.0049,406.3019 L107.0049,409.0206 Z " fill="#000000"/><text fill="#000000" font-family="sans-serif" font-size="14" lengthAdjust="spacing" textLength="56.6836" x="124.5361" y="408.2267">Teacher</text><line style="stroke:#181818;stroke-width:0.5;" x1="8" x2="265.2559" y1="419.38" y2="419.38"/><rect fill="none" height="6" style="stroke:#C82930;stroke-width:1;" width="6" x="15" y="430.0284"/><text fill="#000000" font-family="sans-serif" font-size="14" lengthAdjust="spacing" textLength="114.8916" x="27" y="436.3751">String firstName</text><rect fill="none" height="6" style="stroke:#C82930;stroke-width:1;" width="6" x="15" y="446.3253"/><text fill="#000000" font-family="sans-serif" font-size="14" lengthAdjust="spacing" textLength="112.7861" x="27" y="452.672">String lastName</text><rect fill="none" height="6" style="stroke:#C82930;stroke-width:1;" width="6" x="15" y="462.6222"/><text fill="#000000" font-family="sans-serif" font-size="14" lengthAdjust="spacing" textLength="130.2451" x="27" y="468.9689">String employeeID</text><rect fill="none" height="6" style="stroke:#C82930;stroke-width:1;" width="6" x="15" y="478.9191"/><text fill="#000000" font-family="sans-serif" font-size="14" lengthAdjust="spacing" textLength="171.9922" x="27" y="485.2657">Department department</text><line style="stroke:#181818;stroke-width:0.5;" x1="8" x2="265.2559" y1="492.5675" y2="492.5675"/><ellipse cx="18" cy="506.2159" fill="#84BE84" rx="3" ry="3" style="stroke:#038048;stroke-width:1;"/><text fill="#000000" font-family="sans-serif" font-size="14" lengthAdjust="spacing" textLength="233.2559" x="27" y="509.5626">void teachCourse(Course course)</text></g><!--class Student--><g class="entity" data-entity="Student" data-source-line="23" data-uid="ent0005" id="entity_Student"><rect fill="#F1F1F1" height="129.4844" rx="2.5" ry="2.5" style="stroke:#181818;stroke-width:0.5;" width="272.5928" x="286.33" y="990.54"/><ellipse cx="390.8207" cy="1006.54" fill="#ADD1B2" rx="11" ry="11" style="stroke:#181818;stroke-width:1;"/><path d="M393.7895,1012.1806 Q393.2113,1012.4775 392.5707,1012.6181 Q391.9301,1012.7744 391.227,1012.7744 Q388.727,1012.7744 387.3988,1011.1338 Q386.0863,1009.4775 386.0863,1006.3525 Q386.0863,1003.2275 387.3988,1001.5713 Q388.727,999.915 391.227,999.915 Q391.9301,999.915 392.5707,1000.0713 Q393.227,1000.2275 393.7895,1000.5244 L393.7895,1003.2431 Q393.1645,1002.665 392.5707,1002.3994 Q391.977,1002.1181 391.352,1002.1181 Q390.0082,1002.1181 389.3207,1003.1963 Q388.6332,1004.2588 388.6332,1006.3525 Q388.6332,1008.4463 389.3207,1009.5244 Q390.0082,1010.5869 391.352,1010.5869 Q391.977,1010.5869 392.5707,1010.3213 Q393.1645,1010.04 393.7895,1009.4619 L393.7895,1012.1806 Z " fill="#000000"/><text fill="#000000" font-family="sans-serif" font-size="14" lengthAdjust="spacing" textLength="55.1113" x="411.3207" y="1011.3867">Student</text><line style="stroke:#181818;stroke-width:0.5;" x1="287.33" x2="557.9228" y1="1022.54" y2="1022.54"/><rect fill="none" height="6" style="stroke:#C82930;stroke-width:1;" width="6" x="294.33" y="1033.1884"/><text fill="#000000" font-family="sans-serif" font-size="14" lengthAdjust="spacing" textLength="114.8916" x="306.33" y="1039.5351">String firstName</text><rect fill="none" height="6" style="stroke:#C82930;stroke-width:1;" width="6" x="294.33" y="1049.4853"/><text fill="#000000" font-family="sans-serif" font-size="14" lengthAdjust="spacing" textLength="112.7861" x="306.33" y="1055.832">String lastName</text><rect fill="none" height="6" style="stroke:#C82930;stroke-width:1;" width="6" x="294.33" y="1065.7822"/><text fill="#000000" font-family="sans-serif" font-size="14" lengthAdjust="spacing" textLength="114.6592" x="306.33" y="1072.1289">String studentID</text><rect fill="none" height="6" style="stroke:#C82930;stroke-width:1;" width="6" x="294.33" y="1082.0791"/><text fill="#000000" font-family="sans-serif" font-size="14" lengthAdjust="spacing" textLength="95.8125" x="306.33" y="1088.4257">School school</text><line style="stroke:#181818;stroke-width:0.5;" x1="287.33" x2="557.9228" y1="1095.7275" y2="1095.7275"/><ellipse cx="297.33" cy="1109.3759" fill="#84BE84" rx="3" ry="3" style="stroke:#038048;stroke-width:1;"/><text fill="#000000" font-family="sans-serif" font-size="14" lengthAdjust="spacing" textLength="246.5928" x="306.33" y="1112.7226">void enrollInCourse(Course course)</text></g><!--class Course--><g class="entity" data-entity="Course" data-source-line="31" data-uid="ent0006" id="entity_Course"><rect fill="#F1F1F1" height="129.4844" rx="2.5" ry="2.5" style="stroke:#181818;stroke-width:0.5;" width="338.2588" x="70.5" y="593.86"/><ellipse cx="210.9409" cy="609.86" fill="#ADD1B2" rx="11" ry="11" style="stroke:#181818;stroke-width:1;"/><path d="M213.9097,615.5006 Q213.3315,615.7975 212.6909,615.9381 Q212.0503,616.0944 211.3472,616.0944 Q208.8472,616.0944 207.519,614.4538 Q206.2065,612.7975 206.2065,609.6725 Q206.2065,606.5475 207.519,604.8913 Q208.8472,603.235 211.3472,603.235 Q212.0503,603.235 212.6909,603.3913 Q213.3472,603.5475 213.9097,603.8444 L213.9097,606.5631 Q213.2847,605.985 212.6909,605.7194 Q212.0972,605.4381 211.4722,605.4381 Q210.1284,605.4381 209.4409,606.5163 Q208.7534,607.5788 208.7534,609.6725 Q208.7534,611.7663 209.4409,612.8444 Q210.1284,613.9069 211.4722,613.9069 Q212.0972,613.9069 212.6909,613.6413 Q213.2847,613.36 213.9097,612.7819 L213.9097,615.5006 Z " fill="#000000"/><text fill="#000000" font-family="sans-serif" font-size="14" lengthAdjust="spacing" textLength="48.877" x="231.4409" y="614.7067">Course</text><line style="stroke:#181818;stroke-width:0.5;" x1="71.5" x2="407.7588" y1="625.86" y2="625.86"/><rect fill="none" height="6" style="stroke:#C82930;stroke-width:1;" width="6" x="78.5" y="636.5084"/><text fill="#000000" font-family="sans-serif" font-size="14" lengthAdjust="spacing" textLength="107.9395" x="90.5" y="642.8551">String courseID</text><rect fill="none" height="6" style="stroke:#C82930;stroke-width:1;" width="6" x="78.5" y="652.8053"/><text fill="#000000" font-family="sans-serif" font-size="14" lengthAdjust="spacing" textLength="134.333" x="90.5" y="659.152">String courseName</text><rect fill="none" height="6" style="stroke:#C82930;stroke-width:1;" width="6" x="78.5" y="669.1022"/><text fill="#000000" font-family="sans-serif" font-size="14" lengthAdjust="spacing" textLength="171.9922" x="90.5" y="675.4489">Department department</text><rect fill="none" height="6" style="stroke:#C82930;stroke-width:1;" width="6" x="78.5" y="685.3991"/><text fill="#000000" font-family="sans-serif" font-size="14" lengthAdjust="spacing" textLength="149.085" x="90.5" y="691.7457">Classroom classroom</text><line style="stroke:#181818;stroke-width:0.5;" x1="71.5" x2="407.7588" y1="699.0475" y2="699.0475"/><ellipse cx="81.5" cy="712.6959" fill="#84BE84" rx="3" ry="3" style="stroke:#038048;stroke-width:1;"/><text fill="#000000" font-family="sans-serif" font-size="14" lengthAdjust="spacing" textLength="312.2588" x="90.5" y="716.0426">void assignClassroom(Classroom classroom)</text></g><!--class Classroom--><g class="entity" data-entity="Classroom" data-source-line="39" data-uid="ent0007" id="entity_Classroom"><rect fill="#F1F1F1" height="80.5938" rx="2.5" ry="2.5" style="stroke:#181818;stroke-width:0.5;" width="123.665" x="66.8" y="816.64"/><ellipse cx="90.0389" cy="832.64" fill="#ADD1B2" rx="11" ry="11" style="stroke:#181818;stroke-width:1;"/><path d="M93.0076,838.2806 Q92.4295,838.5775 91.7889,838.7181 Q91.1482,838.8744 90.4451,838.8744 Q87.9451,838.8744 86.617,837.2338 Q85.3045,835.5775 85.3045,832.4525 Q85.3045,829.3275 86.617,827.6713 Q87.9451,826.015 90.4451,826.015 Q91.1482,826.015 91.7889,826.1713 Q92.4451,826.3275 93.0076,826.6244 L93.0076,829.3431 Q92.3826,828.765 91.7889,828.4994 Q91.1951,828.2181 90.5701,828.2181 Q89.2264,828.2181 88.5389,829.2963 Q87.8514,830.3588 87.8514,832.4525 Q87.8514,834.5463 88.5389,835.6244 Q89.2264,836.6869 90.5701,836.6869 Q91.1951,836.6869 91.7889,836.4213 Q92.3826,836.14 93.0076,835.5619 L93.0076,838.2806 Z " fill="#000000"/><text fill="#000000" font-family="sans-serif" font-size="14" lengthAdjust="spacing" textLength="73.3564" x="105.8697" y="837.4867">Classroom</text><line style="stroke:#181818;stroke-width:0.5;" x1="67.8" x2="189.465" y1="848.64" y2="848.64"/><rect fill="none" height="6" style="stroke:#C82930;stroke-width:1;" width="6" x="74.8" y="859.2884"/><text fill="#000000" font-family="sans-serif" font-size="14" lengthAdjust="spacing" textLength="97.665" x="86.8" y="865.6351">String roomID</text><rect fill="none" height="6" style="stroke:#C82930;stroke-width:1;" width="6" x="74.8" y="875.5853"/><text fill="#000000" font-family="sans-serif" font-size="14" lengthAdjust="spacing" textLength="81.8057" x="86.8" y="881.932">int capacity</text><line style="stroke:#181818;stroke-width:0.5;" x1="67.8" x2="189.465" y1="889.2338" y2="889.2338"/></g><!--class Enrollment--><g class="entity" data-entity="Enrollment" data-source-line="44" data-uid="ent0008" id="entity_Enrollment"><rect fill="#F1F1F1" height="113.1875" rx="2.5" ry="2.5" style="stroke:#181818;stroke-width:0.5;" width="181.8936" x="225.68" y="800.35"/><ellipse cx="274.1605" cy="816.35" fill="#ADD1B2" rx="11" ry="11" style="stroke:#181818;stroke-width:1;"/><path d="M277.1292,821.9906 Q276.5511,822.2875 275.9105,822.4281 Q275.2698,822.5844 274.5667,822.5844 Q272.0667,822.5844 270.7386,820.9437 Q269.4261,819.2875 269.4261,816.1625 Q269.4261,813.0375 270.7386,811.3812 Q272.0667,809.725 274.5667,809.725 Q275.2698,809.725 275.9105,809.8812 Q276.5667,810.0375 277.1292,810.3344 L277.1292,813.0531 Q276.5042,812.475 275.9105,812.2094 Q275.3167,811.9281 274.6917,811.9281 Q273.348,811.9281 272.6605,813.0062 Q271.973,814.0687 271.973,816.1625 Q271.973,818.2562 272.6605,819.3344 Q273.348,820.3969 274.6917,820.3969 Q275.3167,820.3969 275.9105,820.1312 Q276.5042,819.85 277.1292,819.2719 L277.1292,821.9906 Z " fill="#000000"/><text fill="#000000" font-family="sans-serif" font-size="14" lengthAdjust="spacing" textLength="76.4326" x="294.6605" y="821.1967">Enrollment</text><line style="stroke:#181818;stroke-width:0.5;" x1="226.68" x2="406.5736" y1="832.35" y2="832.35"/><rect fill="none" height="6" style="stroke:#C82930;stroke-width:1;" width="6" x="233.68" y="842.9984"/><text fill="#000000" font-family="sans-serif" font-size="14" lengthAdjust="spacing" textLength="137.3408" x="245.68" y="849.3451">String enrollmentID</text><rect fill="none" height="6" style="stroke:#C82930;stroke-width:1;" width="6" x="233.68" y="859.2953"/><text fill="#000000" font-family="sans-serif" font-size="14" lengthAdjust="spacing" textLength="113.0801" x="245.68" y="865.642">Student student</text><rect fill="none" height="6" style="stroke:#C82930;stroke-width:1;" width="6" x="233.68" y="875.5922"/><text fill="#000000" font-family="sans-serif" font-size="14" lengthAdjust="spacing" textLength="100.126" x="245.68" y="881.9389">Course course</text><rect fill="none" height="6" style="stroke:#C82930;stroke-width:1;" width="6" x="233.68" y="891.8891"/><text fill="#000000" font-family="sans-serif" font-size="14" lengthAdjust="spacing" textLength="155.8936" x="245.68" y="898.2357">String enrollmentDate</text><line style="stroke:#181818;stroke-width:0.5;" x1="226.68" x2="406.5736" y1="905.5375" y2="905.5375"/></g><!--link School to Department--><g class="link" data-entity-1="School" data-entity-2="Department" data-source-line="51" data-uid="lnk9" id="link_School_Department"><path codeLine="51" d="M360.98,120.55 C349.09,144.6 335.23,172.66 323.33,196.72" fill="none" id="School-Department" style="stroke:#181818;stroke-width:1;"/><polygon fill="#000000" points="347.4144,163.2387,354.0571,156.4324,348.7878,153.8278,347.4144,163.2387" style="stroke:#000000;stroke-width:1;"/><text fill="#000000" font-family="sans-serif" font-size="13" lengthAdjust="spacing" textLength="55.0278" x="358.63" y="163.2569">contains</text><text fill="#000000" font-family="sans-serif" font-size="13" lengthAdjust="spacing" textLength="8.271" x="349.3359" y="140.0773">1</text><text fill="#000000" font-family="sans-serif" font-size="13" lengthAdjust="spacing" textLength="6.5" x="320.3713" y="185.9263">*</text></g><!--link School to Student--><g class="link" data-entity-1="School" data-entity-2="Student" data-source-line="52" data-uid="lnk10" id="link_School_Student"><path codeLine="52" d="M433.43,120.35 C457.64,156.05 482.63,204.58 482.63,252.79 C482.63,252.79 482.63,252.79 482.63,857.94 C482.63,903.56 467.63,952.65 452.63,990.33" fill="none" id="School-Student" style="stroke:#181818;stroke-width:1;"/><polygon fill="#000000" points="487.7403,560.4252,490.479,551.3175,484.6025,551.4472,487.7403,560.4252" style="stroke:#000000;stroke-width:1;"/><text fill="#000000" font-family="sans-serif" font-size="13" lengthAdjust="spacing" textLength="22.9785" x="496.63" y="559.9269">has</text><text fill="#000000" font-family="sans-serif" font-size="13" lengthAdjust="spacing" textLength="8.271" x="430.4188" y="140.2562">1</text><text fill="#000000" font-family="sans-serif" font-size="13" lengthAdjust="spacing" textLength="6.5" x="449.6109" y="979.4797">*</text></g><!--link Department to Teacher--><g class="link" data-entity-1="Department" data-entity-2="Teacher" data-source-line="53" data-uid="lnk11" id="link_Department_Teacher"><path codeLine="53" d="M250.28,310.78 C231,334.59 208.42,362.47 188.49,387.09" fill="none" id="Department-Teacher" style="stroke:#181818;stroke-width:1;"/><polygon fill="#000000" points="228.4835,352.8323,236.4596,347.6521,231.8915,343.9532,228.4835,352.8323" style="stroke:#000000;stroke-width:1;"/><text fill="#000000" font-family="sans-serif" font-size="13" lengthAdjust="spacing" textLength="54.9453" x="240.63" y="353.4469">employs</text><text fill="#000000" font-family="sans-serif" font-size="13" lengthAdjust="spacing" textLength="8.271" x="236.59" y="330.312">1</text><text fill="#000000" font-family="sans-serif" font-size="13" lengthAdjust="spacing" textLength="6.5" x="187.8616" y="376.2309">*</text></g><!--link Department to Course--><g class="link" data-entity-1="Department" data-entity-2="Course" data-source-line="54" data-uid="lnk12" id="link_Department_Course"><path codeLine="54" d="M302.83,310.67 C304.01,325.82 304.57,342.22 303.63,357.38 C299.17,428.68 298.79,447.05 283.63,516.86 C278.11,542.26 270.05,569.64 262.34,593.44" fill="none" id="Department-Course" style="stroke:#181818;stroke-width:1;"/><polygon fill="#000000" points="306.9213,457.1359,311.1126,448.5987,305.2941,447.7656,306.9213,457.1359" style="stroke:#000000;stroke-width:1;"/><text fill="#000000" font-family="sans-serif" font-size="13" lengthAdjust="spacing" textLength="37.2227" x="316.63" y="456.6869">offers</text><text fill="#000000" font-family="sans-serif" font-size="13" lengthAdjust="spacing" textLength="8.271" x="295.237" y="330.5921">1</text><text fill="#000000" font-family="sans-serif" font-size="13" lengthAdjust="spacing" textLength="6.5" x="258.3984" y="583.0205">*</text></g><!--link Teacher to Course--><g class="link" data-entity-1="Teacher" data-entity-2="Course" data-source-line="55" data-uid="lnk13" id="link_Teacher_Course"><path codeLine="55" d="M168.94,517.26 C181.21,541.62 195.17,569.35 207.44,593.69" fill="none" id="Teacher-Course" style="stroke:#181818;stroke-width:1;"/><polygon fill="#000000" points="198.8794,559.8919,197.4349,550.4916,192.1855,553.1359,198.8794,559.8919" style="stroke:#000000;stroke-width:1;"/><text fill="#000000" font-family="sans-serif" font-size="13" lengthAdjust="spacing" textLength="51.2192" x="205.63" y="559.9269">teaches</text><text fill="#000000" font-family="sans-serif" font-size="13" lengthAdjust="spacing" textLength="8.271" x="163.8737" y="536.8245">1</text><text fill="#000000" font-family="sans-serif" font-size="13" lengthAdjust="spacing" textLength="6.5" x="197.6185" y="582.8441">*</text></g><!--link Course to Classroom--><g class="link" data-entity-1="Course" data-entity-2="Classroom" data-source-line="56" data-uid="lnk14" id="link_Course_Classroom"><path codeLine="56" d="M198.21,723.68 C192.16,733.52 186.13,743.64 180.63,753.35 C169.01,773.85 157.06,797.25 147.54,816.52" fill="none" id="Course-Classroom" style="stroke:#181818;stroke-width:1;"/><polygon fill="#000000" points="183.2346,766.3053,190.1476,759.7737,184.9882,756.9578,183.2346,766.3053" style="stroke:#000000;stroke-width:1;"/><text fill="#000000" font-family="sans-serif" font-size="13" lengthAdjust="spacing" textLength="29.7832" x="194.63" y="766.4169">uses</text><text fill="#000000" font-family="sans-serif" font-size="13" lengthAdjust="spacing" textLength="8.271" x="185.5401" y="743.2383">1</text><text fill="#000000" font-family="sans-serif" font-size="13" lengthAdjust="spacing" textLength="23.0356" x="125.7698" y="805.6617">1..*</text></g><!--link Course to Enrollment--><g class="link" data-entity-1="Course" data-entity-2="Enrollment" data-source-line="57" data-uid="lnk15" id="link_Course_Enrollment"><path codeLine="57" d="M229.32,723.79 C229.11,739.45 230.91,755.86 236.63,770.35 C240.81,780.94 246.99,791 254.09,800.24" fill="none" id="Course-Enrollment" style="stroke:#181818;stroke-width:1;"/><polygon fill="#000000" points="243.1711,766.673,243.179,757.1624,237.5874,758.9741,243.1711,766.673" style="stroke:#000000;stroke-width:1;"/><text fill="#000000" font-family="sans-serif" font-size="13" lengthAdjust="spacing" textLength="22.9785" x="250.63" y="766.4169">has</text><text fill="#000000" font-family="sans-serif" font-size="13" lengthAdjust="spacing" textLength="8.271" x="219.8583" y="743.3597">1</text><text fill="#000000" font-family="sans-serif" font-size="13" lengthAdjust="spacing" textLength="6.5" x="239.7251" y="789.0893">*</text></g><!--link Enrollment to Course--><g class="link" data-entity-1="Enrollment" data-entity-2="Course" data-source-line="59" data-uid="lnk17" id="link_Enrollment_Course"><path codeLine="59" d="M295.6,799.95 C289.84,784.8 283.55,768.42 277.63,753.35 C273.87,743.79 269.85,733.7 265.88,723.83" fill="none" id="Enrollment-Course" style="stroke:#181818;stroke-width:1;"/><polygon fill="#000000" points="287.8115,757.2588,288.3635,766.7534,293.8388,764.6156,287.8115,757.2588" style="stroke:#000000;stroke-width:1;"/><text fill="#000000" font-family="sans-serif" font-size="13" lengthAdjust="spacing" textLength="59.5156" x="298.63" y="766.4169">enrolls in</text><text fill="#000000" font-family="sans-serif" font-size="13" lengthAdjust="spacing" textLength="8.271" x="284.5664" y="789.1648">1</text><text fill="#000000" font-family="sans-serif" font-size="13" lengthAdjust="spacing" textLength="8.271" x="260.1886" y="743.4038">1</text></g><!--link Student to Enrollment--><g class="link" data-entity-1="Student" data-entity-2="Enrollment" data-source-line="58" data-uid="lnk16" id="link_Student_Enrollment"><path codeLine="58" d="M404,990.08 C398.38,974.42 391.56,958.01 383.63,943.54 C378.1,933.44 371.39,923.3 364.4,913.7" fill="none" id="Student-Enrollment" style="stroke:#181818;stroke-width:1;"/><polygon fill="#000000" points="393.3286,947.6675,394.8828,957.0503,400.101,954.3448,393.3286,947.6675" style="stroke:#000000;stroke-width:1;"/><text fill="#000000" font-family="sans-serif" font-size="13" lengthAdjust="spacing" textLength="22.9785" x="404.63" y="956.6069">has</text><text fill="#000000" font-family="sans-serif" font-size="13" lengthAdjust="spacing" textLength="8.271" x="393.6806" y="979.6563">1</text><text fill="#000000" font-family="sans-serif" font-size="13" lengthAdjust="spacing" textLength="6.5" x="363.8872" y="933.6062">*</text></g><!--link Enrollment to Student--><g class="link" data-entity-1="Enrollment" data-entity-2="Student" data-source-line="60" data-uid="lnk18" id="link_Enrollment_Student"><path codeLine="60" d="M285.8,913.85 C281.15,929.47 280.08,946.1 287.63,960.54 C293.31,971.41 300.9,981.27 309.59,990.16" fill="none" id="Enrollment-Student" style="stroke:#181818;stroke-width:1;"/><polygon fill="#000000" points="294.1181,956.8798,294.2318,947.3699,288.6203,949.1193,294.1181,956.8798" style="stroke:#000000;stroke-width:1;"/><text fill="#000000" font-family="sans-serif" font-size="13" lengthAdjust="spacing" textLength="73.0869" x="301.63" y="956.6069">enrolled by</text><text fill="#000000" font-family="sans-serif" font-size="13" lengthAdjust="spacing" textLength="8.271" x="273.572" y="933.7745">1</text><text fill="#000000" font-family="sans-serif" font-size="13" lengthAdjust="spacing" textLength="8.271" x="288.804" y="979.2911">1</text></g><!--SRC=[fPE_Ri8m4CRtFCKfKsWL9DOCBD21fGjz0TSvm59YHxQfXAg-U-FuJuuqWQ4iPttvplVpPyCRPWmS-KMf1hupw7yb7AqMyWoIjNYliBhMQCmWliAN4hMJzjWnRLkKjXYNKAVbQk8_scljpA62yNML_MGP7tZ8DW-OFBGPocJ41p9-GLs42jRNASbENRN1mXVWGo4OiNl2S1BQsFS_uVGjCogsNQDkY8Tzq6SZebm3wnEo6Dr_o4Bi2MmnJvHQDSr1Fc4A-WJ9syOXL2LCowcKi7FRQwLQu75rTu_6YBDCfcB6JYdJrmceqnAcw3auwnWNzZRslWr1p3rBJ5_8IUzUTpmB3MzfZpspwAQ66yatEPGbv2yvZQdgDv6M2MbWE-ECuokuCESWdSGLNtWLtkcoCu1Ne4udrCuNU-TC_l_cN46AfirwxNpf4YgucZbVRo9fnqF4Gprs4IcD9Mm-PzFVyQ9t3C-RiORF6sn_0G00]--></g></svg>