<svg xmlns="http://www.w3.org/2000/svg" xmlns:xlink="http://www.w3.org/1999/xlink" contentStyleType="text/css" data-diagram-type="CLASS" height="921px" preserveAspectRatio="none" style="width:764px;height:921px;background:#FFFFFF;" version="1.1" viewBox="0 0 764 921" width="764px" zoomAndPan="magnify"><defs/><g><!--class School--><g class="entity" data-entity="School" data-source-line="1" data-uid="ent0002" id="entity_School"><rect fill="#F1F1F1" height="162.0781" rx="2.5" ry="2.5" style="stroke:#181818;stroke-width:0.5;" width="147.9941" x="380.34" y="7"/><ellipse cx="426.8483" cy="23" fill="#ADD1B2" rx="11" ry="11" style="stroke:#181818;stroke-width:1;"/><path d="M429.8171,28.6406 Q429.2389,28.9375 428.5983,29.0781 Q427.9577,29.2344 427.2546,29.2344 Q424.7546,29.2344 423.4264,27.5938 Q422.1139,25.9375 422.1139,22.8125 Q422.1139,19.6875 423.4264,18.0313 Q424.7546,16.375 427.2546,16.375 Q427.9577,16.375 428.5983,16.5313 Q429.2546,16.6875 429.8171,16.9844 L429.8171,19.7031 Q429.1921,19.125 428.5983,18.8594 Q428.0046,18.5781 427.3796,18.5781 Q426.0358,18.5781 425.3483,19.6563 Q424.6608,20.7188 424.6608,22.8125 Q424.6608,24.9063 425.3483,25.9844 Q426.0358,27.0469 427.3796,27.0469 Q428.0046,27.0469 428.5983,26.7813 Q429.1921,26.5 429.8171,25.9219 L429.8171,28.6406 Z " fill="#000000"/><text fill="#000000" font-family="sans-serif" font-size="14" lengthAdjust="spacing" textLength="46.4775" x="447.3483" y="27.8467">School</text><line style="stroke:#181818;stroke-width:0.5;" x1="381.34" x2="527.3341" y1="39" y2="39"/><rect fill="none" height="6" style="stroke:#C82930;stroke-width:1;" width="6" x="388.34" y="49.6484"/><text fill="#000000" font-family="sans-serif" font-size="14" lengthAdjust="spacing" textLength="85.9346" x="400.34" y="55.9951">String name</text><rect fill="none" height="6" style="stroke:#C82930;stroke-width:1;" width="6" x="388.34" y="65.9453"/><text fill="#000000" font-family="sans-serif" font-size="14" lengthAdjust="spacing" textLength="101.541" x="400.34" y="72.292">String address</text><line style="stroke:#181818;stroke-width:0.5;" x1="381.34" x2="527.3341" y1="79.5938" y2="79.5938"/><ellipse cx="391.34" cy="93.2422" fill="#84BE84" rx="3" ry="3" style="stroke:#038048;stroke-width:1;"/><text fill="#000000" font-family="sans-serif" font-size="14" lengthAdjust="spacing" textLength="121.9941" x="400.34" y="96.5889">addDepartment()</text><ellipse cx="391.34" cy="109.5391" fill="#84BE84" rx="3" ry="3" style="stroke:#038048;stroke-width:1;"/><text fill="#000000" font-family="sans-serif" font-size="14" lengthAdjust="spacing" textLength="86.1533" x="400.34" y="112.8857">addCourse()</text><ellipse cx="391.34" cy="125.8359" fill="#84BE84" rx="3" ry="3" style="stroke:#038048;stroke-width:1;"/><text fill="#000000" font-family="sans-serif" font-size="14" lengthAdjust="spacing" textLength="92.3877" x="400.34" y="129.1826">addStudent()</text><ellipse cx="391.34" cy="142.1328" fill="#84BE84" rx="3" ry="3" style="stroke:#038048;stroke-width:1;"/><text fill="#000000" font-family="sans-serif" font-size="14" lengthAdjust="spacing" textLength="93.96" x="400.34" y="145.4795">addTeacher()</text><ellipse cx="391.34" cy="158.4297" fill="#84BE84" rx="3" ry="3" style="stroke:#038048;stroke-width:1;"/><text fill="#000000" font-family="sans-serif" font-size="14" lengthAdjust="spacing" textLength="110.6328" x="400.34" y="161.7764">addClassroom()</text></g><!--class Department--><g class="entity" data-entity="Department" data-source-line="11" data-uid="ent0003" id="entity_Department"><rect fill="#F1F1F1" height="96.8906" rx="2.5" ry="2.5" style="stroke:#181818;stroke-width:0.5;" width="181.3535" x="363.66" y="230.08"/><ellipse cx="407.7461" cy="246.08" fill="#ADD1B2" rx="11" ry="11" style="stroke:#181818;stroke-width:1;"/><path d="M410.7148,251.7206 Q410.1367,252.0175 409.4961,252.1581 Q408.8555,252.3144 408.1523,252.3144 Q405.6523,252.3144 404.3242,250.6737 Q403.0117,249.0175 403.0117,245.8925 Q403.0117,242.7675 404.3242,241.1112 Q405.6523,239.455 408.1523,239.455 Q408.8555,239.455 409.4961,239.6112 Q410.1523,239.7675 410.7148,240.0644 L410.7148,242.7831 Q410.0898,242.205 409.4961,241.9394 Q408.9023,241.6581 408.2773,241.6581 Q406.9336,241.6581 406.2461,242.7362 Q405.5586,243.7987 405.5586,245.8925 Q405.5586,247.9862 406.2461,249.0644 Q406.9336,250.1269 408.2773,250.1269 Q408.9023,250.1269 409.4961,249.8612 Q410.0898,249.58 410.7148,249.0019 L410.7148,251.7206 Z " fill="#000000"/><text fill="#000000" font-family="sans-serif" font-size="14" lengthAdjust="spacing" textLength="84.7178" x="428.2097" y="250.9267">Department</text><line style="stroke:#181818;stroke-width:0.5;" x1="364.66" x2="544.0135" y1="262.08" y2="262.08"/><rect fill="none" height="6" style="stroke:#C82930;stroke-width:1;" width="6" x="371.66" y="272.7284"/><text fill="#000000" font-family="sans-serif" font-size="14" lengthAdjust="spacing" textLength="85.9346" x="383.66" y="279.0751">String name</text><rect fill="none" height="6" style="stroke:#C82930;stroke-width:1;" width="6" x="371.66" y="289.0253"/><text fill="#000000" font-family="sans-serif" font-size="14" lengthAdjust="spacing" textLength="155.3535" x="383.66" y="295.372">List&lt;Course&gt; courses</text><line style="stroke:#181818;stroke-width:0.5;" x1="364.66" x2="544.0135" y1="302.6737" y2="302.6737"/><ellipse cx="374.66" cy="316.3222" fill="#84BE84" rx="3" ry="3" style="stroke:#038048;stroke-width:1;"/><text fill="#000000" font-family="sans-serif" font-size="14" lengthAdjust="spacing" textLength="86.1533" x="383.66" y="319.6689">addCourse()</text></g><!--class Course--><g class="entity" data-entity="Course" data-source-line="17" data-uid="ent0004" id="entity_Course"><rect fill="#F1F1F1" height="162.0781" rx="2.5" ry="2.5" style="stroke:#181818;stroke-width:0.5;" width="175.085" x="366.79" y="387.97"/><ellipse cx="425.644" cy="403.97" fill="#ADD1B2" rx="11" ry="11" style="stroke:#181818;stroke-width:1;"/><path d="M428.6128,409.6106 Q428.0346,409.9075 427.394,410.0481 Q426.7534,410.2044 426.0503,410.2044 Q423.5503,410.2044 422.2221,408.5637 Q420.9096,406.9075 420.9096,403.7825 Q420.9096,400.6575 422.2221,399.0012 Q423.5503,397.345 426.0503,397.345 Q426.7534,397.345 427.394,397.5012 Q428.0503,397.6575 428.6128,397.9544 L428.6128,400.6731 Q427.9878,400.095 427.394,399.8294 Q426.8003,399.5481 426.1753,399.5481 Q424.8315,399.5481 424.144,400.6262 Q423.4565,401.6887 423.4565,403.7825 Q423.4565,405.8762 424.144,406.9544 Q424.8315,408.0169 426.1753,408.0169 Q426.8003,408.0169 427.394,407.7512 Q427.9878,407.47 428.6128,406.8919 L428.6128,409.6106 Z " fill="#000000"/><text fill="#000000" font-family="sans-serif" font-size="14" lengthAdjust="spacing" textLength="48.877" x="446.144" y="408.8167">Course</text><line style="stroke:#181818;stroke-width:0.5;" x1="367.79" x2="540.875" y1="419.97" y2="419.97"/><rect fill="none" height="6" style="stroke:#C82930;stroke-width:1;" width="6" x="374.79" y="430.6184"/><text fill="#000000" font-family="sans-serif" font-size="14" lengthAdjust="spacing" textLength="128.8711" x="386.79" y="436.9651">String courseCode</text><rect fill="none" height="6" style="stroke:#C82930;stroke-width:1;" width="6" x="374.79" y="446.9153"/><text fill="#000000" font-family="sans-serif" font-size="14" lengthAdjust="spacing" textLength="134.333" x="386.79" y="453.262">String courseName</text><rect fill="none" height="6" style="stroke:#C82930;stroke-width:1;" width="6" x="374.79" y="463.2122"/><text fill="#000000" font-family="sans-serif" font-size="14" lengthAdjust="spacing" textLength="114.7549" x="386.79" y="469.5589">Teacher teacher</text><rect fill="none" height="6" style="stroke:#C82930;stroke-width:1;" width="6" x="374.79" y="479.5091"/><text fill="#000000" font-family="sans-serif" font-size="14" lengthAdjust="spacing" textLength="149.085" x="386.79" y="485.8557">Classroom classroom</text><line style="stroke:#181818;stroke-width:0.5;" x1="367.79" x2="540.875" y1="493.1575" y2="493.1575"/><ellipse cx="377.79" cy="506.8059" fill="#84BE84" rx="3" ry="3" style="stroke:#038048;stroke-width:1;"/><text fill="#000000" font-family="sans-serif" font-size="14" lengthAdjust="spacing" textLength="105.6221" x="386.79" y="510.1526">enrollStudent()</text><ellipse cx="377.79" cy="523.1028" fill="#84BE84" rx="3" ry="3" style="stroke:#038048;stroke-width:1;"/><text fill="#000000" font-family="sans-serif" font-size="14" lengthAdjust="spacing" textLength="112.4238" x="386.79" y="526.4495">assignTeacher()</text><ellipse cx="377.79" cy="539.3997" fill="#84BE84" rx="3" ry="3" style="stroke:#038048;stroke-width:1;"/><text fill="#000000" font-family="sans-serif" font-size="14" lengthAdjust="spacing" textLength="129.0967" x="386.79" y="542.7464">assignClassroom()</text></g><!--class Student--><g class="entity" data-entity="Student" data-source-line="27" data-uid="ent0005" id="entity_Student"><rect fill="#F1F1F1" height="113.1875" rx="2.5" ry="2.5" style="stroke:#181818;stroke-width:0.5;" width="238.6729" x="7" y="627.04"/><ellipse cx="94.5308" cy="643.04" fill="#ADD1B2" rx="11" ry="11" style="stroke:#181818;stroke-width:1;"/><path d="M97.4995,648.6806 Q96.9214,648.9775 96.2808,649.1181 Q95.6401,649.2744 94.937,649.2744 Q92.437,649.2744 91.1089,647.6338 Q89.7964,645.9775 89.7964,642.8525 Q89.7964,639.7275 91.1089,638.0713 Q92.437,636.415 94.937,636.415 Q95.6401,636.415 96.2808,636.5713 Q96.937,636.7275 97.4995,637.0244 L97.4995,639.7431 Q96.8745,639.165 96.2808,638.8994 Q95.687,638.6181 95.062,638.6181 Q93.7183,638.6181 93.0308,639.6963 Q92.3433,640.7588 92.3433,642.8525 Q92.3433,644.9463 93.0308,646.0244 Q93.7183,647.0869 95.062,647.0869 Q95.687,647.0869 96.2808,646.8213 Q96.8745,646.54 97.4995,645.9619 L97.4995,648.6806 Z " fill="#000000"/><text fill="#000000" font-family="sans-serif" font-size="14" lengthAdjust="spacing" textLength="55.1113" x="115.0308" y="647.8867">Student</text><line style="stroke:#181818;stroke-width:0.5;" x1="8" x2="244.6729" y1="659.04" y2="659.04"/><rect fill="none" height="6" style="stroke:#C82930;stroke-width:1;" width="6" x="15" y="669.6884"/><text fill="#000000" font-family="sans-serif" font-size="14" lengthAdjust="spacing" textLength="114.6592" x="27" y="676.0351">String studentID</text><rect fill="none" height="6" style="stroke:#C82930;stroke-width:1;" width="6" x="15" y="685.9853"/><text fill="#000000" font-family="sans-serif" font-size="14" lengthAdjust="spacing" textLength="85.9346" x="27" y="692.332">String name</text><rect fill="none" height="6" style="stroke:#C82930;stroke-width:1;" width="6" x="15" y="702.2822"/><text fill="#000000" font-family="sans-serif" font-size="14" lengthAdjust="spacing" textLength="212.6729" x="27" y="708.6289">List&lt;Course&gt; coursesEnrolled</text><line style="stroke:#181818;stroke-width:0.5;" x1="8" x2="244.6729" y1="715.9306" y2="715.9306"/><ellipse cx="18" cy="729.5791" fill="#84BE84" rx="3" ry="3" style="stroke:#038048;stroke-width:1;"/><text fill="#000000" font-family="sans-serif" font-size="14" lengthAdjust="spacing" textLength="99.3877" x="27" y="732.9257">enrollCourse()</text></g><!--class Teacher--><g class="entity" data-entity="Teacher" data-source-line="34" data-uid="ent0006" id="entity_Teacher"><rect fill="#F1F1F1" height="113.1875" rx="2.5" ry="2.5" style="stroke:#181818;stroke-width:0.5;" width="230.6064" x="281.03" y="627.04"/><ellipse cx="363.7414" cy="643.04" fill="#ADD1B2" rx="11" ry="11" style="stroke:#181818;stroke-width:1;"/><path d="M366.7102,648.6806 Q366.1321,648.9775 365.4914,649.1181 Q364.8508,649.2744 364.1477,649.2744 Q361.6477,649.2744 360.3196,647.6338 Q359.0071,645.9775 359.0071,642.8525 Q359.0071,639.7275 360.3196,638.0713 Q361.6477,636.415 364.1477,636.415 Q364.8508,636.415 365.4914,636.5713 Q366.1477,636.7275 366.7102,637.0244 L366.7102,639.7431 Q366.0852,639.165 365.4914,638.8994 Q364.8977,638.6181 364.2727,638.6181 Q362.9289,638.6181 362.2414,639.6963 Q361.5539,640.7588 361.5539,642.8525 Q361.5539,644.9463 362.2414,646.0244 Q362.9289,647.0869 364.2727,647.0869 Q364.8977,647.0869 365.4914,646.8213 Q366.0852,646.54 366.7102,645.9619 L366.7102,648.6806 Z " fill="#000000"/><text fill="#000000" font-family="sans-serif" font-size="14" lengthAdjust="spacing" textLength="56.6836" x="384.2414" y="647.8867">Teacher</text><line style="stroke:#181818;stroke-width:0.5;" x1="282.03" x2="510.6364" y1="659.04" y2="659.04"/><rect fill="none" height="6" style="stroke:#C82930;stroke-width:1;" width="6" x="289.03" y="669.6884"/><text fill="#000000" font-family="sans-serif" font-size="14" lengthAdjust="spacing" textLength="114.7617" x="301.03" y="676.0351">String teacherID</text><rect fill="none" height="6" style="stroke:#C82930;stroke-width:1;" width="6" x="289.03" y="685.9853"/><text fill="#000000" font-family="sans-serif" font-size="14" lengthAdjust="spacing" textLength="85.9346" x="301.03" y="692.332">String name</text><rect fill="none" height="6" style="stroke:#C82930;stroke-width:1;" width="6" x="289.03" y="702.2822"/><text fill="#000000" font-family="sans-serif" font-size="14" lengthAdjust="spacing" textLength="204.6064" x="301.03" y="708.6289">List&lt;Course&gt; coursesTaught</text><line style="stroke:#181818;stroke-width:0.5;" x1="282.03" x2="510.6364" y1="715.9306" y2="715.9306"/><ellipse cx="292.03" cy="729.5791" fill="#84BE84" rx="3" ry="3" style="stroke:#038048;stroke-width:1;"/><text fill="#000000" font-family="sans-serif" font-size="14" lengthAdjust="spacing" textLength="104.6172" x="301.03" y="732.9257">assignCourse()</text></g><!--class Classroom--><g class="entity" data-entity="Classroom" data-source-line="41" data-uid="ent0007" id="entity_Classroom"><rect fill="#F1F1F1" height="80.5938" rx="2.5" ry="2.5" style="stroke:#181818;stroke-width:0.5;" width="164.9951" x="546.84" y="643.34"/><ellipse cx="588.6774" cy="659.34" fill="#ADD1B2" rx="11" ry="11" style="stroke:#181818;stroke-width:1;"/><path d="M591.6462,664.9806 Q591.068,665.2775 590.4274,665.4181 Q589.7868,665.5744 589.0837,665.5744 Q586.5837,665.5744 585.2555,663.9338 Q583.943,662.2775 583.943,659.1525 Q583.943,656.0275 585.2555,654.3713 Q586.5837,652.715 589.0837,652.715 Q589.7868,652.715 590.4274,652.8713 Q591.0837,653.0275 591.6462,653.3244 L591.6462,656.0431 Q591.0212,655.465 590.4274,655.1994 Q589.8337,654.9181 589.2087,654.9181 Q587.8649,654.9181 587.1774,655.9963 Q586.4899,657.0588 586.4899,659.1525 Q586.4899,661.2463 587.1774,662.3244 Q587.8649,663.3869 589.2087,663.3869 Q589.8337,663.3869 590.4274,663.1213 Q591.0212,662.84 591.6462,662.2619 L591.6462,664.9806 Z " fill="#000000"/><text fill="#000000" font-family="sans-serif" font-size="14" lengthAdjust="spacing" textLength="73.3564" x="608.6413" y="664.1867">Classroom</text><line style="stroke:#181818;stroke-width:0.5;" x1="547.84" x2="710.8351" y1="675.34" y2="675.34"/><rect fill="none" height="6" style="stroke:#C82930;stroke-width:1;" width="6" x="554.84" y="685.9884"/><text fill="#000000" font-family="sans-serif" font-size="14" lengthAdjust="spacing" textLength="138.9951" x="566.84" y="692.3351">String roomNumber</text><rect fill="none" height="6" style="stroke:#C82930;stroke-width:1;" width="6" x="554.84" y="702.2853"/><text fill="#000000" font-family="sans-serif" font-size="14" lengthAdjust="spacing" textLength="81.8057" x="566.84" y="708.632">int capacity</text><line style="stroke:#181818;stroke-width:0.5;" x1="547.84" x2="710.8351" y1="715.9338" y2="715.9338"/></g><!--class Enrollment--><g class="entity" data-entity="Enrollment" data-source-line="46" data-uid="ent0008" id="entity_Enrollment"><rect fill="#F1F1F1" height="113.1875" rx="2.5" ry="2.5" style="stroke:#181818;stroke-width:0.5;" width="173.5742" x="358.55" y="801.23"/><ellipse cx="402.8708" cy="817.23" fill="#ADD1B2" rx="11" ry="11" style="stroke:#181818;stroke-width:1;"/><path d="M405.8396,822.8706 Q405.2614,823.1675 404.6208,823.3081 Q403.9802,823.4644 403.2771,823.4644 Q400.7771,823.4644 399.4489,821.8237 Q398.1364,820.1675 398.1364,817.0425 Q398.1364,813.9175 399.4489,812.2612 Q400.7771,810.605 403.2771,810.605 Q403.9802,810.605 404.6208,810.7612 Q405.2771,810.9175 405.8396,811.2144 L405.8396,813.9331 Q405.2146,813.355 404.6208,813.0894 Q404.0271,812.8081 403.4021,812.8081 Q402.0583,812.8081 401.3708,813.8862 Q400.6833,814.9487 400.6833,817.0425 Q400.6833,819.1362 401.3708,820.2144 Q402.0583,821.2769 403.4021,821.2769 Q404.0271,821.2769 404.6208,821.0112 Q405.2146,820.73 405.8396,820.1519 L405.8396,822.8706 Z " fill="#000000"/><text fill="#000000" font-family="sans-serif" font-size="14" lengthAdjust="spacing" textLength="76.4326" x="423.3708" y="822.0767">Enrollment</text><line style="stroke:#181818;stroke-width:0.5;" x1="359.55" x2="531.1242" y1="833.23" y2="833.23"/><rect fill="none" height="6" style="stroke:#C82930;stroke-width:1;" width="6" x="366.55" y="843.8784"/><text fill="#000000" font-family="sans-serif" font-size="14" lengthAdjust="spacing" textLength="137.3408" x="378.55" y="850.2251">String enrollmentID</text><rect fill="none" height="6" style="stroke:#C82930;stroke-width:1;" width="6" x="366.55" y="860.1753"/><text fill="#000000" font-family="sans-serif" font-size="14" lengthAdjust="spacing" textLength="113.0801" x="378.55" y="866.522">Student student</text><rect fill="none" height="6" style="stroke:#C82930;stroke-width:1;" width="6" x="366.55" y="876.4722"/><text fill="#000000" font-family="sans-serif" font-size="14" lengthAdjust="spacing" textLength="100.126" x="378.55" y="882.8189">Course course</text><rect fill="none" height="6" style="stroke:#C82930;stroke-width:1;" width="6" x="366.55" y="892.7691"/><text fill="#000000" font-family="sans-serif" font-size="14" lengthAdjust="spacing" textLength="147.5742" x="378.55" y="899.1157">Date enrollmentDate</text><line style="stroke:#181818;stroke-width:0.5;" x1="359.55" x2="531.1242" y1="906.4175" y2="906.4175"/></g><!--link School to Department--><g class="link" data-entity-1="School" data-entity-2="Department" data-source-line="53" data-uid="lnk9" id="link_School_Department"><path codeLine="53" d="M454.34,169.52 C454.34,190.03 454.34,205.43 454.34,223.72" fill="none" id="School-to-Department" style="stroke:#181818;stroke-width:1;"/><polygon fill="#181818" points="454.34,229.72,458.34,220.72,454.34,224.72,450.34,220.72,454.34,229.72" style="stroke:#181818;stroke-width:1;"/><text fill="#000000" font-family="sans-serif" font-size="13" lengthAdjust="spacing" textLength="8.271" x="446.0081" y="189.2394">1</text><text fill="#000000" font-family="sans-serif" font-size="13" lengthAdjust="spacing" textLength="23.0356" x="429.7258" y="218.8783">1..*</text></g><!--link Department to Course--><g class="link" data-entity-1="Department" data-entity-2="Course" data-source-line="54" data-uid="lnk10" id="link_Department_Course"><path codeLine="54" d="M454.34,327.08 C454.34,345.51 454.34,361.13 454.34,381.82" fill="none" id="Department-to-Course" style="stroke:#181818;stroke-width:1;"/><polygon fill="#181818" points="454.34,387.82,458.34,378.82,454.34,382.82,450.34,378.82,454.34,387.82" style="stroke:#181818;stroke-width:1;"/><text fill="#000000" font-family="sans-serif" font-size="13" lengthAdjust="spacing" textLength="8.271" x="445.797" y="347.0389">1</text><text fill="#000000" font-family="sans-serif" font-size="13" lengthAdjust="spacing" textLength="23.0356" x="430.318" y="376.9939">0..*</text></g><!--link Course to Teacher--><g class="link" data-entity-1="Course" data-entity-2="Teacher" data-source-line="55" data-uid="lnk11" id="link_Course_Teacher"><path codeLine="55" d="M426.92,550.54 C423.87,560.43 420.93,570.44 418.34,580.04 C414.28,595.08 411.7266,605.6531 408.4666,620.8731" fill="none" id="Course-to-Teacher" style="stroke:#181818;stroke-width:1;"/><polygon fill="#181818" points="407.21,626.74,413.0063,618.7774,408.2572,621.8509,405.1837,617.1018,407.21,626.74" style="stroke:#181818;stroke-width:1;"/><text fill="#000000" font-family="sans-serif" font-size="13" lengthAdjust="spacing" textLength="8.271" x="416.3299" y="569.9853">1</text><text fill="#000000" font-family="sans-serif" font-size="13" lengthAdjust="spacing" textLength="8.271" x="400.0646" y="615.967">1</text></g><!--link Teacher to Course--><g class="link" data-entity-1="Teacher" data-entity-2="Course" data-source-line="60" data-uid="lnk16" id="link_Teacher_Course"><path codeLine="60" d="M411.62,626.62 C417.98,603.3 423.9013,581.5886 430.8313,556.1786" fill="none" id="Teacher-to-Course" style="stroke:#181818;stroke-width:1;"/><polygon fill="#181818" points="432.41,550.39,426.1829,558.0204,431.0944,555.2138,433.901,560.1253,432.41,550.39" style="stroke:#181818;stroke-width:1;"/><text fill="#000000" font-family="sans-serif" font-size="13" lengthAdjust="spacing" textLength="95.9639" x="425.34" y="593.1069">coursesTaught</text><text fill="#000000" font-family="sans-serif" font-size="13" lengthAdjust="spacing" textLength="8.271" x="413.9871" y="615.8324">1</text><text fill="#000000" font-family="sans-serif" font-size="13" lengthAdjust="spacing" textLength="23.0356" x="431.5158" y="570.1008">0..*</text></g><!--link Course to Classroom--><g class="link" data-entity-1="Course" data-entity-2="Classroom" data-source-line="56" data-uid="lnk12" id="link_Course_Classroom"><path codeLine="56" d="M520.5,550.39 C546.53,582.03 571.437,612.2974 592.837,638.2974" fill="none" id="Course-to-Classroom" style="stroke:#181818;stroke-width:1;"/><polygon fill="#181818" points="596.65,642.93,594.0189,633.4391,593.4725,639.0695,587.8421,638.5231,596.65,642.93" style="stroke:#181818;stroke-width:1;"/><text fill="#000000" font-family="sans-serif" font-size="13" lengthAdjust="spacing" textLength="8.271" x="517.8542" y="570.1008">1</text><text fill="#000000" font-family="sans-serif" font-size="13" lengthAdjust="spacing" textLength="8.271" x="582.8245" y="632.3245">1</text></g><!--link Student to Enrollment--><g class="link" data-entity-1="Student" data-entity-2="Enrollment" data-source-line="57" data-uid="lnk13" id="link_Student_Enrollment"><path codeLine="57" d="M229.91,740.54 C271.39,762.93 313.3599,785.5903 353.0299,807.0003" fill="none" id="Student-to-Enrollment" style="stroke:#181818;stroke-width:1;"/><polygon fill="#181818" points="358.31,809.85,352.2897,802.0554,353.9099,807.4753,348.4901,809.0955,358.31,809.85" style="stroke:#181818;stroke-width:1;"/><text fill="#000000" font-family="sans-serif" font-size="13" lengthAdjust="spacing" textLength="8.271" x="234.062" y="760.4645">1</text><text fill="#000000" font-family="sans-serif" font-size="13" lengthAdjust="spacing" textLength="23.0356" x="327.46" y="802.5016">0..*</text></g><!--link Enrollment to Course--><g class="link" data-entity-1="Enrollment" data-entity-2="Course" data-source-line="58" data-uid="lnk14" id="link_Enrollment_Course"><path codeLine="58" d="M532.56,846.74 C598.84,834 685.78,805.2 729.34,740.23 C757.35,698.45 754.59,670.55 729.34,627.04 C689.38,558.22 612.345,519.0251 548.015,496.2151" fill="none" id="Enrollment-to-Course" style="stroke:#181818;stroke-width:1;"/><polygon fill="#181818" points="542.36,494.21,549.5058,500.9877,547.0725,495.881,552.1793,493.4477,542.36,494.21" style="stroke:#181818;stroke-width:1;"/><text fill="#000000" font-family="sans-serif" font-size="13" lengthAdjust="spacing" textLength="8.271" x="540.1256" y="842.2734">1</text><text fill="#000000" font-family="sans-serif" font-size="13" lengthAdjust="spacing" textLength="8.271" x="549.9922" y="492.7483">1</text></g><!--link Course to Student--><g class="link" data-entity-1="Course" data-entity-2="Student" data-source-line="59" data-uid="lnk15" id="link_Course_Student"><path codeLine="59" d="M366.44,526.99 C318.81,557.86 265.205,592.6168 217.805,623.3368" fill="none" id="Course-to-Student" style="stroke:#181818;stroke-width:1;"/><polygon fill="#181818" points="212.77,626.6,222.498,625.0619,216.9659,623.8807,218.1471,618.3485,212.77,626.6" style="stroke:#181818;stroke-width:1;"/><text fill="#000000" font-family="sans-serif" font-size="13" lengthAdjust="spacing" textLength="110.957" x="282.34" y="593.1069">enrolledStudents</text><text fill="#000000" font-family="sans-serif" font-size="13" lengthAdjust="spacing" textLength="23.0356" x="335.8316" y="527.9269">0..*</text><text fill="#000000" font-family="sans-serif" font-size="13" lengthAdjust="spacing" textLength="23.0356" x="198.9047" y="615.8099">0..*</text></g><!--SRC=[bLExReGm4Epz5PQhFCGfQQFeckEAID4rt0yuPWL8W4-sAQ8e_nxyVe0Y7Otnu9sP7Izif5BYXlMSZ_W7uVMfSAF4C7TufXFa26rR0L8Qy5dlQhXHeIQOrSDZH4zy4H9If55BMnow0cKzYAnEcn6SJoluYn0ptgB4F_u-1wdUhUmHCxFA7J-1r28beIqyyHRsy4kKSzwnigj3WttC_9lp0BFWuxW9GSgXcpSv67Gt2aTGsfOM_gZlYkTiF46RMTmcvLijD5tdTsfUwTBrAczqUpSXna9JOvTb-Wg13siMZDue6zHthBUDxGqCX2-9Rnkfoz3Vf1qFwzfXDLMGCEYjrdI_3dabkAgEwteuF95aQ54ol-7GYpbaLP0JYmp4XxxtAQI3lFM2DRQFaYGoYbpNbYKCdlWD4t13uY19a9-7tLvqINRLv0y0]--></g></svg>