<svg xmlns="http://www.w3.org/2000/svg" xmlns:xlink="http://www.w3.org/1999/xlink" contentStyleType="text/css" data-diagram-type="DESCRIPTION" height="356px" preserveAspectRatio="none" style="width:720px;height:356px;background:#FFFFFF;" version="1.1" viewBox="0 0 720 356" width="720px" zoomAndPan="magnify"><defs/><g><!--cluster Hospital Management System--><g class="cluster" data-entity="Hospital Management System" data-source-line="1" data-uid="ent0002" id="cluster_Hospital Management System"><path d="M8.5,6 L246.0439,6 A3.75,3.75 0 0 1 248.5439,8.5 L255.5439,28.2969 L710.5,28.2969 A2.5,2.5 0 0 1 713,30.7969 L713,347.39 A2.5,2.5 0 0 1 710.5,349.89 L8.5,349.89 A2.5,2.5 0 0 1 6,347.39 L6,8.5 A2.5,2.5 0 0 1 8.5,6" fill="none" style="stroke:#000000;stroke-width:1.5;"/><line style="stroke:#000000;stroke-width:1.5;" x1="6" x2="255.5439" y1="28.2969" y2="28.2969"/><text fill="#000000" font-family="sans-serif" font-size="14" font-weight="bold" lengthAdjust="spacing" textLength="236.5439" x="10" y="20.9951">Hospital Management System</text></g><!--entity Patient--><g class="entity" data-entity="Patient" data-source-line="2" data-uid="ent0003" id="entity_Patient"><rect fill="#F1F1F1" height="46.2969" rx="2.5" ry="2.5" style="stroke:#181818;stroke-width:0.5;" width="271.7793" x="327.11" y="41"/><rect fill="#F1F1F1" height="10" style="stroke:#181818;stroke-width:0.5;" width="15" x="578.8893" y="46"/><rect fill="#F1F1F1" height="2" style="stroke:#181818;stroke-width:0.5;" width="4" x="576.8893" y="48"/><rect fill="#F1F1F1" height="2" style="stroke:#181818;stroke-width:0.5;" width="4" x="576.8893" y="52"/><text fill="#000000" font-family="sans-serif" font-size="14" lengthAdjust="spacing" textLength="231.7793" x="342.11" y="73.9951">Patient Management Component</text></g><!--entity Doctor--><g class="entity" data-entity="Doctor" data-source-line="3" data-uid="ent0004" id="entity_Doctor"><rect fill="#F1F1F1" height="46.2969" rx="2.5" ry="2.5" style="stroke:#181818;stroke-width:0.5;" width="269.2568" x="22.37" y="41"/><rect fill="#F1F1F1" height="10" style="stroke:#181818;stroke-width:0.5;" width="15" x="271.6268" y="46"/><rect fill="#F1F1F1" height="2" style="stroke:#181818;stroke-width:0.5;" width="4" x="269.6268" y="48"/><rect fill="#F1F1F1" height="2" style="stroke:#181818;stroke-width:0.5;" width="4" x="269.6268" y="52"/><text fill="#000000" font-family="sans-serif" font-size="14" lengthAdjust="spacing" textLength="229.2568" x="37.37" y="73.9951">Doctor Management Component</text></g><!--entity Appointment--><g class="entity" data-entity="Appointment" data-source-line="4" data-uid="ent0005" id="entity_Appointment"><rect fill="#F1F1F1" height="46.2969" rx="2.5" ry="2.5" style="stroke:#181818;stroke-width:0.5;" width="298.3301" x="296.83" y="164.3"/><rect fill="#F1F1F1" height="10" style="stroke:#181818;stroke-width:0.5;" width="15" x="575.1601" y="169.3"/><rect fill="#F1F1F1" height="2" style="stroke:#181818;stroke-width:0.5;" width="4" x="573.1601" y="171.3"/><rect fill="#F1F1F1" height="2" style="stroke:#181818;stroke-width:0.5;" width="4" x="573.1601" y="175.3"/><text fill="#000000" font-family="sans-serif" font-size="14" lengthAdjust="spacing" textLength="258.3301" x="311.83" y="197.2951">Appointment Scheduling Component</text></g><!--entity Billing--><g class="entity" data-entity="Billing" data-source-line="5" data-uid="ent0006" id="entity_Billing"><rect fill="#F1F1F1" height="46.2969" rx="2.5" ry="2.5" style="stroke:#181818;stroke-width:0.5;" width="168.6523" x="486.67" y="287.59"/><rect fill="#F1F1F1" height="10" style="stroke:#181818;stroke-width:0.5;" width="15" x="635.3223" y="292.59"/><rect fill="#F1F1F1" height="2" style="stroke:#181818;stroke-width:0.5;" width="4" x="633.3223" y="294.59"/><rect fill="#F1F1F1" height="2" style="stroke:#181818;stroke-width:0.5;" width="4" x="633.3223" y="298.59"/><text fill="#000000" font-family="sans-serif" font-size="14" lengthAdjust="spacing" textLength="128.6523" x="501.67" y="320.5851">Billing Component</text></g><!--entity MedicalRecords--><g class="entity" data-entity="MedicalRecords" data-source-line="6" data-uid="ent0007" id="entity_MedicalRecords"><rect fill="#F1F1F1" height="46.2969" rx="2.5" ry="2.5" style="stroke:#181818;stroke-width:0.5;" width="240.3545" x="21.82" y="164.3"/><rect fill="#F1F1F1" height="10" style="stroke:#181818;stroke-width:0.5;" width="15" x="242.1745" y="169.3"/><rect fill="#F1F1F1" height="2" style="stroke:#181818;stroke-width:0.5;" width="4" x="240.1745" y="171.3"/><rect fill="#F1F1F1" height="2" style="stroke:#181818;stroke-width:0.5;" width="4" x="240.1745" y="175.3"/><text fill="#000000" font-family="sans-serif" font-size="14" lengthAdjust="spacing" textLength="200.3545" x="36.82" y="197.2951">Medical Records Component</text></g><!--link Patient to Appointment--><g class="link" data-entity-1="Patient" data-entity-2="Appointment" data-source-line="9" data-uid="lnk8" id="link_Patient_Appointment"><path d="M459.84,87.68 C456.79,109.47 453.0236,136.3482 449.9736,158.0882" fill="none" id="Patient-to-Appointment" style="stroke:#181818;stroke-width:1;"/><polygon fill="#181818" points="449.14,164.03,454.3516,155.673,449.8347,159.0785,446.4292,154.5615,449.14,164.03" style="stroke:#181818;stroke-width:1;"/><text fill="#000000" font-family="sans-serif" font-size="13" lengthAdjust="spacing" textLength="65.0317" x="456" y="130.3669">schedules</text></g><!--link Doctor to Appointment--><g class="link" data-entity-1="Doctor" data-entity-2="Appointment" data-source-line="10" data-uid="lnk9" id="link_Doctor_Appointment"><path d="M185.28,87.74 C205.19,102.72 233.01,121.84 260,134.3 C286.04,146.31 309.6529,154.4899 337.2529,162.2299" fill="none" id="Doctor-to-Appointment" style="stroke:#181818;stroke-width:1;"/><polygon fill="#181818" points="343.03,163.85,335.4444,157.5684,338.2157,162.4999,333.2842,165.2713,343.03,163.85" style="stroke:#181818;stroke-width:1;"/><text fill="#000000" font-family="sans-serif" font-size="13" lengthAdjust="spacing" textLength="51.0796" x="261" y="130.3669">handles</text></g><!--link Appointment to Billing--><g class="link" data-entity-1="Appointment" data-entity-2="Billing" data-source-line="11" data-uid="lnk10" id="link_Appointment_Billing"><path d="M469.22,210.98 C491.67,232.76 521.1935,261.4122 543.6035,283.1522" fill="none" id="Appointment-to-Billing" style="stroke:#181818;stroke-width:1;"/><polygon fill="#181818" points="547.91,287.33,544.2354,278.1923,544.3212,283.8485,538.665,283.9344,547.91,287.33" style="stroke:#181818;stroke-width:1;"/><text fill="#000000" font-family="sans-serif" font-size="13" lengthAdjust="spacing" textLength="65.6665" x="516" y="253.6569">generates</text></g><!--link Patient to Billing--><g class="link" data-entity-1="Patient" data-entity-2="Billing" data-source-line="12" data-uid="lnk11" id="link_Patient_Billing"><path d="M522.66,87.77 C555.7,103.74 593.85,128.69 613,164.3 C634.72,204.69 610.6396,252.592 590.9796,282.192" fill="none" id="Patient-to-Billing" style="stroke:#181818;stroke-width:1;"/><polygon fill="#181818" points="587.66,287.19,595.9714,281.9061,590.4264,283.025,589.3074,277.4799,587.66,287.19" style="stroke:#181818;stroke-width:1;"/><text fill="#000000" font-family="sans-serif" font-size="13" lengthAdjust="spacing" textLength="30.6846" x="621" y="192.0069">pays</text></g><!--link Patient to MedicalRecords--><g class="link" data-entity-1="Patient" data-entity-2="MedicalRecords" data-source-line="13" data-uid="lnk12" id="link_Patient_MedicalRecords"><path d="M420,87.65 C391.31,102.12 352.49,120.7 317,134.3 C288.29,145.3 261.9713,153.7745 233.1913,162.1445" fill="none" id="Patient-to-MedicalRecords" style="stroke:#181818;stroke-width:1;"/><polygon fill="#181818" points="227.43,163.82,237.189,165.1476,232.2311,162.4237,234.9549,157.4658,227.43,163.82" style="stroke:#181818;stroke-width:1;"/><text fill="#000000" font-family="sans-serif" font-size="13" lengthAdjust="spacing" textLength="52.5776" x="354" y="130.3669">updates</text></g><!--link Doctor to MedicalRecords--><g class="link" data-entity-1="Doctor" data-entity-2="MedicalRecords" data-source-line="14" data-uid="lnk13" id="link_Doctor_MedicalRecords"><path d="M154.21,87.68 C151.52,109.47 148.1968,136.3354 145.5068,158.0754" fill="none" id="Doctor-to-MedicalRecords" style="stroke:#181818;stroke-width:1;"/><polygon fill="#181818" points="144.77,164.03,149.8449,155.5893,145.384,159.0678,141.9055,154.6069,144.77,164.03" style="stroke:#181818;stroke-width:1;"/><text fill="#000000" font-family="sans-serif" font-size="13" lengthAdjust="spacing" textLength="58.5762" x="152" y="130.3669">accesses</text></g><!--SRC=[TS-z2iCW40VmtQSuikS5EXJwCNG9b7Oi6Guz4ccY4iqGIj-zLYt4D76Ikv_U_mpo9pO4nKLR8nrsKA7oXPwKW_ja7VK5l1ZuyxYYaz_oJ9nqRxJojnhGGW9HdpLtUjZ6iH_jmHWjbOj3UKjYxAHg5WzcABuwocw5fMea5Gd9_L8tudeGTa5JDpNPcx7VZZMKvJxBLSCE2XkpaIrOscy3jgX4P5ads1Gmk8OK3UY2p4VFbS7f7-JXWnkDI7zbuLOaSaxMUle1]--></g></svg>