<svg xmlns="http://www.w3.org/2000/svg" xmlns:xlink="http://www.w3.org/1999/xlink" contentStyleType="text/css" data-diagram-type="CLASS" height="762px" preserveAspectRatio="none" style="width:746px;height:762px;background:#FFFFFF;" version="1.1" viewBox="0 0 746 762" width="746px" zoomAndPan="magnify"><defs/><g><!--class Vehicle--><g class="entity" data-entity="Vehicle" data-source-line="1" data-uid="ent0002" id="entity_Vehicle"><rect fill="#F1F1F1" height="129.4844" rx="2.5" ry="2.5" style="stroke:#181818;stroke-width:0.5;" width="168.7617" x="405.44" y="229.78"/><ellipse cx="459.9942" cy="245.78" fill="#ADD1B2" rx="11" ry="11" style="stroke:#181818;stroke-width:1;"/><path d="M462.9629,251.4206 Q462.3848,251.7175 461.7442,251.8581 Q461.1036,252.0144 460.4004,252.0144 Q457.9004,252.0144 456.5723,250.3738 Q455.2598,248.7175 455.2598,245.5925 Q455.2598,242.4675 456.5723,240.8113 Q457.9004,239.155 460.4004,239.155 Q461.1036,239.155 461.7442,239.3113 Q462.4004,239.4675 462.9629,239.7644 L462.9629,242.4831 Q462.3379,241.905 461.7442,241.6394 Q461.1504,241.3581 460.5254,241.3581 Q459.1817,241.3581 458.4942,242.4363 Q457.8067,243.4988 457.8067,245.5925 Q457.8067,247.6863 458.4942,248.7644 Q459.1817,249.8269 460.5254,249.8269 Q461.1504,249.8269 461.7442,249.5613 Q462.3379,249.28 462.9629,248.7019 L462.9629,251.4206 Z " fill="#000000"/><text fill="#000000" font-family="sans-serif" font-size="14" lengthAdjust="spacing" textLength="51.1533" x="480.4942" y="250.6267">Vehicle</text><line style="stroke:#181818;stroke-width:0.5;" x1="406.44" x2="573.2017" y1="261.78" y2="261.78"/><rect fill="none" height="6" style="stroke:#C82930;stroke-width:1;" width="6" x="413.44" y="272.4284"/><text fill="#000000" font-family="sans-serif" font-size="14" lengthAdjust="spacing" textLength="40.1953" x="425.44" y="278.7751">id: int</text><rect fill="none" height="6" style="stroke:#C82930;stroke-width:1;" width="6" x="413.44" y="288.7253"/><text fill="#000000" font-family="sans-serif" font-size="14" lengthAdjust="spacing" textLength="80.6299" x="425.44" y="295.072">type: string</text><rect fill="none" height="6" style="stroke:#C82930;stroke-width:1;" width="6" x="413.44" y="305.0222"/><text fill="#000000" font-family="sans-serif" font-size="14" lengthAdjust="spacing" textLength="86.5225" x="425.44" y="311.3689">capacity: int</text><rect fill="none" height="6" style="stroke:#C82930;stroke-width:1;" width="6" x="413.44" y="321.3191"/><text fill="#000000" font-family="sans-serif" font-size="14" lengthAdjust="spacing" textLength="142.7617" x="425.44" y="327.6657">currentRoute: Route</text><line style="stroke:#181818;stroke-width:0.5;" x1="406.44" x2="573.2017" y1="334.9675" y2="334.9675"/><ellipse cx="416.44" cy="348.6159" fill="#84BE84" rx="3" ry="3" style="stroke:#038048;stroke-width:1;"/><text fill="#000000" font-family="sans-serif" font-size="14" lengthAdjust="spacing" textLength="85.1484" x="425.44" y="351.9626">drive(): void</text></g><!--class Passenger--><g class="entity" data-entity="Passenger" data-source-line="9" data-uid="ent0003" id="entity_Passenger"><rect fill="#F1F1F1" height="113.1875" rx="2.5" ry="2.5" style="stroke:#181818;stroke-width:0.5;" width="363.6475" x="7" y="237.93"/><ellipse cx="148.3979" cy="253.93" fill="#ADD1B2" rx="11" ry="11" style="stroke:#181818;stroke-width:1;"/><path d="M151.3667,259.5706 Q150.7886,259.8675 150.1479,260.0081 Q149.5073,260.1644 148.8042,260.1644 Q146.3042,260.1644 144.9761,258.5238 Q143.6636,256.8675 143.6636,253.7425 Q143.6636,250.6175 144.9761,248.9613 Q146.3042,247.305 148.8042,247.305 Q149.5073,247.305 150.1479,247.4613 Q150.8042,247.6175 151.3667,247.9144 L151.3667,250.6331 Q150.7417,250.055 150.1479,249.7894 Q149.5542,249.5081 148.9292,249.5081 Q147.5854,249.5081 146.8979,250.5863 Q146.2104,251.6488 146.2104,253.7425 Q146.2104,255.8363 146.8979,256.9144 Q147.5854,257.9769 148.9292,257.9769 Q149.5542,257.9769 150.1479,257.7113 Q150.7417,257.43 151.3667,256.8519 L151.3667,259.5706 Z " fill="#000000"/><text fill="#000000" font-family="sans-serif" font-size="14" lengthAdjust="spacing" textLength="72.3516" x="168.8979" y="258.7767">Passenger</text><line style="stroke:#181818;stroke-width:0.5;" x1="8" x2="369.6475" y1="269.93" y2="269.93"/><rect fill="none" height="6" style="stroke:#C82930;stroke-width:1;" width="6" x="15" y="280.5784"/><text fill="#000000" font-family="sans-serif" font-size="14" lengthAdjust="spacing" textLength="40.1953" x="27" y="286.9251">id: int</text><rect fill="none" height="6" style="stroke:#C82930;stroke-width:1;" width="6" x="15" y="296.8753"/><text fill="#000000" font-family="sans-serif" font-size="14" lengthAdjust="spacing" textLength="89.0586" x="27" y="303.222">name: string</text><rect fill="none" height="6" style="stroke:#C82930;stroke-width:1;" width="6" x="15" y="313.1722"/><text fill="#000000" font-family="sans-serif" font-size="14" lengthAdjust="spacing" textLength="90.8018" x="27" y="319.5189">ticket: Ticket</text><line style="stroke:#181818;stroke-width:0.5;" x1="8" x2="369.6475" y1="326.8206" y2="326.8206"/><ellipse cx="18" cy="340.4691" fill="#84BE84" rx="3" ry="3" style="stroke:#038048;stroke-width:1;"/><text fill="#000000" font-family="sans-serif" font-size="14" lengthAdjust="spacing" textLength="337.6475" x="27" y="343.8157">buyTicket(route: Route, vehicle: Vehicle): Ticket</text></g><!--class Route--><g class="entity" data-entity="Route" data-source-line="16" data-uid="ent0004" id="entity_Route"><rect fill="#F1F1F1" height="129.4844" rx="2.5" ry="2.5" style="stroke:#181818;stroke-width:0.5;" width="241.0176" x="453.31" y="436.27"/><ellipse cx="548.9345" cy="452.27" fill="#ADD1B2" rx="11" ry="11" style="stroke:#181818;stroke-width:1;"/><path d="M551.9033,457.9106 Q551.3251,458.2075 550.6845,458.3481 Q550.0439,458.5044 549.3408,458.5044 Q546.8408,458.5044 545.5126,456.8638 Q544.2001,455.2075 544.2001,452.0825 Q544.2001,448.9575 545.5126,447.3013 Q546.8408,445.645 549.3408,445.645 Q550.0439,445.645 550.6845,445.8013 Q551.3408,445.9575 551.9033,446.2544 L551.9033,448.9731 Q551.2783,448.395 550.6845,448.1294 Q550.0908,447.8481 549.4658,447.8481 Q548.122,447.8481 547.4345,448.9263 Q546.747,449.9888 546.747,452.0825 Q546.747,454.1763 547.4345,455.2544 Q548.122,456.3169 549.4658,456.3169 Q550.0908,456.3169 550.6845,456.0513 Q551.2783,455.77 551.9033,455.1919 L551.9033,457.9106 Z " fill="#000000"/><text fill="#000000" font-family="sans-serif" font-size="14" lengthAdjust="spacing" textLength="41.2686" x="569.4345" y="457.1167">Route</text><line style="stroke:#181818;stroke-width:0.5;" x1="454.31" x2="693.3276" y1="468.27" y2="468.27"/><rect fill="none" height="6" style="stroke:#C82930;stroke-width:1;" width="6" x="461.31" y="478.9184"/><text fill="#000000" font-family="sans-serif" font-size="14" lengthAdjust="spacing" textLength="40.1953" x="473.31" y="485.2651">id: int</text><rect fill="none" height="6" style="stroke:#C82930;stroke-width:1;" width="6" x="461.31" y="495.2153"/><text fill="#000000" font-family="sans-serif" font-size="14" lengthAdjust="spacing" textLength="98.7998" x="473.31" y="501.562">origin: Station</text><rect fill="none" height="6" style="stroke:#C82930;stroke-width:1;" width="6" x="461.31" y="511.5122"/><text fill="#000000" font-family="sans-serif" font-size="14" lengthAdjust="spacing" textLength="137.3818" x="473.31" y="517.8589">destination: Station</text><rect fill="none" height="6" style="stroke:#C82930;stroke-width:1;" width="6" x="461.31" y="527.8091"/><text fill="#000000" font-family="sans-serif" font-size="14" lengthAdjust="spacing" textLength="144.4023" x="473.31" y="534.1557">stops: List&lt;Station&gt;</text><line style="stroke:#181818;stroke-width:0.5;" x1="454.31" x2="693.3276" y1="541.4575" y2="541.4575"/><ellipse cx="464.31" cy="555.1059" fill="#84BE84" rx="3" ry="3" style="stroke:#038048;stroke-width:1;"/><text fill="#000000" font-family="sans-serif" font-size="14" lengthAdjust="spacing" textLength="215.0176" x="473.31" y="558.4526">addStop(station: Station): void</text></g><!--class Station--><g class="entity" data-entity="Station" data-source-line="24" data-uid="ent0005" id="entity_Station"><rect fill="#F1F1F1" height="113.1875" rx="2.5" ry="2.5" style="stroke:#181818;stroke-width:0.5;" width="280.5977" x="433.52" y="642.75"/><ellipse cx="544.6826" cy="658.75" fill="#ADD1B2" rx="11" ry="11" style="stroke:#181818;stroke-width:1;"/><path d="M547.6513,664.3906 Q547.0732,664.6875 546.4326,664.8281 Q545.792,664.9844 545.0888,664.9844 Q542.5888,664.9844 541.2607,663.3438 Q539.9482,661.6875 539.9482,658.5625 Q539.9482,655.4375 541.2607,653.7813 Q542.5888,652.125 545.0888,652.125 Q545.792,652.125 546.4326,652.2813 Q547.0888,652.4375 547.6513,652.7344 L547.6513,655.4531 Q547.0263,654.875 546.4326,654.6094 Q545.8388,654.3281 545.2138,654.3281 Q543.8701,654.3281 543.1826,655.4063 Q542.4951,656.4688 542.4951,658.5625 Q542.4951,660.6563 543.1826,661.7344 Q543.8701,662.7969 545.2138,662.7969 Q545.8388,662.7969 546.4326,662.5313 Q547.0263,662.25 547.6513,661.6719 L547.6513,664.3906 Z " fill="#000000"/><text fill="#000000" font-family="sans-serif" font-size="14" lengthAdjust="spacing" textLength="49.7725" x="565.1826" y="663.5967">Station</text><line style="stroke:#181818;stroke-width:0.5;" x1="434.52" x2="713.1177" y1="674.75" y2="674.75"/><rect fill="none" height="6" style="stroke:#C82930;stroke-width:1;" width="6" x="441.52" y="685.3984"/><text fill="#000000" font-family="sans-serif" font-size="14" lengthAdjust="spacing" textLength="40.1953" x="453.52" y="691.7451">id: int</text><rect fill="none" height="6" style="stroke:#C82930;stroke-width:1;" width="6" x="441.52" y="701.6953"/><text fill="#000000" font-family="sans-serif" font-size="14" lengthAdjust="spacing" textLength="104.9043" x="453.52" y="708.042">location: string</text><rect fill="none" height="6" style="stroke:#C82930;stroke-width:1;" width="6" x="441.52" y="717.9922"/><text fill="#000000" font-family="sans-serif" font-size="14" lengthAdjust="spacing" textLength="254.5977" x="453.52" y="724.3389">routesPassingThrough: List&lt;Route&gt;</text><line style="stroke:#181818;stroke-width:0.5;" x1="434.52" x2="713.1177" y1="731.6406" y2="731.6406"/><ellipse cx="444.52" cy="745.2891" fill="#84BE84" rx="3" ry="3" style="stroke:#038048;stroke-width:1;"/><text fill="#000000" font-family="sans-serif" font-size="14" lengthAdjust="spacing" textLength="205.0713" x="453.52" y="748.6357">addRoute(route: Route): void</text></g><!--class Ticket--><g class="entity" data-entity="Ticket" data-source-line="31" data-uid="ent0006" id="entity_Ticket"><rect fill="#F1F1F1" height="145.7813" rx="2.5" ry="2.5" style="stroke:#181818;stroke-width:0.5;" width="150.9609" x="322.34" y="7"/><ellipse cx="372.3962" cy="23" fill="#ADD1B2" rx="11" ry="11" style="stroke:#181818;stroke-width:1;"/><path d="M375.3649,28.6406 Q374.7868,28.9375 374.1462,29.0781 Q373.5055,29.2344 372.8024,29.2344 Q370.3024,29.2344 368.9743,27.5938 Q367.6618,25.9375 367.6618,22.8125 Q367.6618,19.6875 368.9743,18.0313 Q370.3024,16.375 372.8024,16.375 Q373.5055,16.375 374.1462,16.5313 Q374.8024,16.6875 375.3649,16.9844 L375.3649,19.7031 Q374.7399,19.125 374.1462,18.8594 Q373.5524,18.5781 372.9274,18.5781 Q371.5837,18.5781 370.8962,19.6563 Q370.2087,20.7188 370.2087,22.8125 Q370.2087,24.9063 370.8962,25.9844 Q371.5837,27.0469 372.9274,27.0469 Q373.5524,27.0469 374.1462,26.7813 Q374.7399,26.5 375.3649,25.9219 L375.3649,28.6406 Z " fill="#000000"/><text fill="#000000" font-family="sans-serif" font-size="14" lengthAdjust="spacing" textLength="42.3486" x="392.8962" y="27.8467">Ticket</text><line style="stroke:#181818;stroke-width:0.5;" x1="323.34" x2="472.3009" y1="39" y2="39"/><rect fill="none" height="6" style="stroke:#C82930;stroke-width:1;" width="6" x="330.34" y="49.6484"/><text fill="#000000" font-family="sans-serif" font-size="14" lengthAdjust="spacing" textLength="40.1953" x="342.34" y="55.9951">id: int</text><rect fill="none" height="6" style="stroke:#C82930;stroke-width:1;" width="6" x="330.34" y="65.9453"/><text fill="#000000" font-family="sans-serif" font-size="14" lengthAdjust="spacing" textLength="113.2305" x="342.34" y="72.292">passengerId: int</text><rect fill="none" height="6" style="stroke:#C82930;stroke-width:1;" width="6" x="330.34" y="82.2422"/><text fill="#000000" font-family="sans-serif" font-size="14" lengthAdjust="spacing" textLength="77.7314" x="342.34" y="88.5889">routeId: int</text><rect fill="none" height="6" style="stroke:#C82930;stroke-width:1;" width="6" x="330.34" y="98.5391"/><text fill="#000000" font-family="sans-serif" font-size="14" lengthAdjust="spacing" textLength="90.2959" x="342.34" y="104.8857">vehicleId: int</text><rect fill="none" height="6" style="stroke:#C82930;stroke-width:1;" width="6" x="330.34" y="114.8359"/><text fill="#000000" font-family="sans-serif" font-size="14" lengthAdjust="spacing" textLength="114.3037" x="342.34" y="121.1826">ticketPrice: float</text><line style="stroke:#181818;stroke-width:0.5;" x1="323.34" x2="472.3009" y1="128.4844" y2="128.4844"/><ellipse cx="333.34" cy="142.1328" fill="#84BE84" rx="3" ry="3" style="stroke:#038048;stroke-width:1;"/><text fill="#000000" font-family="sans-serif" font-size="14" lengthAdjust="spacing" textLength="124.9609" x="342.34" y="145.4795">printTicket(): void</text></g><!--link Vehicle to Route--><g class="link" data-entity-1="Vehicle" data-entity-2="Route" data-source-line="40" data-uid="lnk7" id="link_Vehicle_Route"><path codeLine="40" d="M502.64,359.51 C506.67,375.1 511.71,391.52 517.82,406.27 C521.93,416.16 526.95,426.26 532.28,435.98" fill="none" id="Vehicle-Route" style="stroke:#181818;stroke-width:1;"/><polygon fill="#000000" points="524.627,402.4985,524.0984,393.0026,518.6178,395.1269,524.627,402.4985" style="stroke:#000000;stroke-width:1;"/><text fill="#000000" font-family="sans-serif" font-size="13" lengthAdjust="spacing" textLength="85.7314" x="531.82" y="402.3369">currentRoute</text><text fill="#000000" font-family="sans-serif" font-size="13" lengthAdjust="spacing" textLength="8.271" x="495.6194" y="379.5125">1</text><text fill="#000000" font-family="sans-serif" font-size="13" lengthAdjust="spacing" textLength="8.271" x="519.314" y="425.1209">1</text></g><!--link Passenger to Ticket--><g class="link" data-entity-1="Passenger" data-entity-2="Ticket" data-source-line="41" data-uid="lnk8" id="link_Passenger_Ticket"><path codeLine="41" d="M249.12,237.64 C262.04,225.33 275.51,212.24 287.82,199.78 C302.55,184.88 318.02,168.59 332.56,152.97" fill="none" id="Passenger-Ticket" style="stroke:#181818;stroke-width:1;"/><polygon fill="#000000" points="312.3296,187.7851,303.8874,192.1647,308.074,196.2904,312.3296,187.7851" style="stroke:#000000;stroke-width:1;"/><text fill="#000000" font-family="sans-serif" font-size="13" lengthAdjust="spacing" textLength="22.9785" x="317.82" y="195.8469">has</text><text fill="#000000" font-family="sans-serif" font-size="13" lengthAdjust="spacing" textLength="8.271" x="247.9976" y="226.8682">1</text><text fill="#000000" font-family="sans-serif" font-size="13" lengthAdjust="spacing" textLength="23.0356" x="302.2455" y="172.7234">1..*</text></g><!--link Ticket to Passenger--><g class="link" data-entity-1="Ticket" data-entity-2="Passenger" data-source-line="42" data-uid="lnk9" id="link_Ticket_Passenger"><path codeLine="42" d="M322.21,101 C279.86,116.32 230.04,141.91 201.82,182.78 C190.94,198.56 186.53,218.69 185.21,237.46" fill="none" id="Ticket-Passenger" style="stroke:#181818;stroke-width:1;"/><polygon fill="#000000" points="203.2775,194.875,211.76,190.574,207.6119,186.4095,203.2775,194.875" style="stroke:#000000;stroke-width:1;"/><text fill="#000000" font-family="sans-serif" font-size="13" lengthAdjust="spacing" textLength="63.6543" x="215.82" y="195.8469">issued for</text><text fill="#000000" font-family="sans-serif" font-size="13" lengthAdjust="spacing" textLength="8.271" x="306.0141" y="99.4772">1</text><text fill="#000000" font-family="sans-serif" font-size="13" lengthAdjust="spacing" textLength="8.271" x="176.2986" y="226.6663">1</text></g><!--link Ticket to Route--><g class="link" data-entity-1="Ticket" data-entity-2="Route" data-source-line="43" data-uid="lnk10" id="link_Ticket_Route"><path codeLine="43" d="M473.48,120.61 C514.87,146.26 563.37,183.48 591.82,229.78 C633.48,297.57 640.47,328.92 621.82,406.27 C619.42,416.22 615.78,426.31 611.54,435.99" fill="none" id="Ticket-Route" style="stroke:#181818;stroke-width:1;"/><polygon fill="#000000" points="637.8251,299.1768,636.8901,289.7123,631.5056,292.0694,637.8251,299.1768" style="stroke:#000000;stroke-width:1;"/><text fill="#000000" font-family="sans-serif" font-size="13" lengthAdjust="spacing" textLength="17.875" x="644.82" y="299.0969">for</text><text fill="#000000" font-family="sans-serif" font-size="13" lengthAdjust="spacing" textLength="8.271" x="481.3348" y="120.9535">1</text><text fill="#000000" font-family="sans-serif" font-size="13" lengthAdjust="spacing" textLength="8.271" x="607.2431" y="425.132">1</text></g><!--link Ticket to Vehicle--><g class="link" data-entity-1="Ticket" data-entity-2="Vehicle" data-source-line="44" data-uid="lnk11" id="link_Ticket_Vehicle"><path codeLine="44" d="M429.1,153.18 C439.83,177.98 451.76,205.54 462.18,229.63" fill="none" id="Ticket-Vehicle" style="stroke:#181818;stroke-width:1;"/><polygon fill="#000000" points="453.8056,195.9352,452.9109,186.4669,447.5164,188.8011,453.8056,195.9352" style="stroke:#000000;stroke-width:1;"/><text fill="#000000" font-family="sans-serif" font-size="13" lengthAdjust="spacing" textLength="17.875" x="460.82" y="195.8469">for</text><text fill="#000000" font-family="sans-serif" font-size="13" lengthAdjust="spacing" textLength="8.271" x="423.713" y="172.9535">1</text><text fill="#000000" font-family="sans-serif" font-size="13" lengthAdjust="spacing" textLength="8.271" x="450.7341" y="218.7863">1</text></g><!--link Route to Station--><g class="link" data-entity-1="Route" data-entity-2="Station" data-source-line="45" data-uid="lnk12" id="link_Route_Station"><path codeLine="45" d="M531.05,566.17 C525.45,581.16 522.85,597.28 526.82,612.75 C529.39,622.77 533.41,632.87 538.03,642.45" fill="none" id="Route-Station" style="stroke:#181818;stroke-width:1;"/><polygon fill="#000000" points="532.2756,609.2956,534.3781,600.0203,528.5247,600.556,532.2756,609.2956" style="stroke:#000000;stroke-width:1;"/><text fill="#000000" font-family="sans-serif" font-size="13" lengthAdjust="spacing" textLength="34.8486" x="540.82" y="608.8169">stops</text><text fill="#000000" font-family="sans-serif" font-size="13" lengthAdjust="spacing" textLength="8.271" x="518.2409" y="585.7366">1</text><text fill="#000000" font-family="sans-serif" font-size="13" lengthAdjust="spacing" textLength="23.0356" x="509.2688" y="631.677">1..*</text></g><!--link Station to Route--><g class="link" data-entity-1="Station" data-entity-2="Route" data-source-line="46" data-uid="lnk13" id="link_Station_Route"><path codeLine="46" d="M578.29,642.66 C578.93,632.71 579.48,622.43 579.82,612.75 C580.35,597.65 579.99,581.39 579.24,566.11" fill="none" id="Station-Route" style="stroke:#181818;stroke-width:1;"/><polygon fill="#000000" points="584.882,599.3168,581.8311,608.3247,587.7085,608.3976,584.882,599.3168" style="stroke:#000000;stroke-width:1;"/><text fill="#000000" font-family="sans-serif" font-size="13" lengthAdjust="spacing" textLength="145.0693" x="593.82" y="608.8169">routesPassingThrough</text><text fill="#000000" font-family="sans-serif" font-size="13" lengthAdjust="spacing" textLength="8.271" x="570.3677" y="631.5119">1</text><text fill="#000000" font-family="sans-serif" font-size="13" lengthAdjust="spacing" textLength="6.5" x="573.5155" y="585.6704">*</text></g><!--SRC=[TLBBQiCm4BpxAvQSahG9z2fAxeKUGXDoLoN5NkfAHbe7Gkc_LvLNhfNKFbXeTbOp-r2j305Efa7L6lYg87uRG2q0BV6DhfqH4CYZhHbIifCAwJgbgTvxO-dDzHJfwKYH1z0UBsQv4d1ngAllgb99THz_njR6p-XQ-NchIwW-30auffEVV- -lmttf9zgFS1cg4hcyrPWtMaZC6NddiKOhu42Iq5b6jGc4DY6teK2k2m9UCT0pHtPiKMfzYD5be3BphYUCprXgdUByeYkfxF3RpeWTctYj6_QH2fouIFUYJtSMXXxDEEZop5uAE3rOGjpz4Xpcj_UeelovTJBFi8lb44znuYWlvk9f0PjDEdY_fji6k-flbqRgThjUS3426XaYYqkRl3RcHPSXz4R3sVb_cQmx5pxbPHi8Ww_Iou76uSL5YQGyx4nRZoh_JHHsFm00]--></g></svg>