<svg xmlns="http://www.w3.org/2000/svg" xmlns:xlink="http://www.w3.org/1999/xlink" contentStyleType="text/css" data-diagram-type="CLASS" height="1000px" preserveAspectRatio="none" style="width:443px;height:1000px;background:#FFFFFF;" version="1.1" viewBox="0 0 443 1000" width="443px" zoomAndPan="magnify"><defs/><g><!--class Company--><g class="entity" data-entity="Company" data-source-line="1" data-uid="ent0002" id="entity_Company"><rect fill="#F1F1F1" height="145.7813" rx="2.5" ry="2.5" style="stroke:#181818;stroke-width:0.5;" width="274.377" x="50.05" y="7"/><ellipse cx="149.6872" cy="23" fill="#ADD1B2" rx="11" ry="11" style="stroke:#181818;stroke-width:1;"/><path d="M152.656,28.6406 Q152.0778,28.9375 151.4372,29.0781 Q150.7966,29.2344 150.0935,29.2344 Q147.5935,29.2344 146.2653,27.5938 Q144.9528,25.9375 144.9528,22.8125 Q144.9528,19.6875 146.2653,18.0313 Q147.5935,16.375 150.0935,16.375 Q150.7966,16.375 151.4372,16.5313 Q152.0935,16.6875 152.656,16.9844 L152.656,19.7031 Q152.031,19.125 151.4372,18.8594 Q150.8435,18.5781 150.2185,18.5781 Q148.8747,18.5781 148.1872,19.6563 Q147.4997,20.7188 147.4997,22.8125 Q147.4997,24.9063 148.1872,25.9844 Q148.8747,27.0469 150.2185,27.0469 Q150.8435,27.0469 151.4372,26.7813 Q152.031,26.5 152.656,25.9219 L152.656,28.6406 Z " fill="#000000"/><text fill="#000000" font-family="sans-serif" font-size="14" lengthAdjust="spacing" textLength="66.6025" x="170.1872" y="27.8467">Company</text><line style="stroke:#181818;stroke-width:0.5;" x1="51.05" x2="323.427" y1="39" y2="39"/><rect fill="none" height="6" style="stroke:#C82930;stroke-width:1;" width="6" x="58.05" y="49.6484"/><text fill="#000000" font-family="sans-serif" font-size="14" lengthAdjust="spacing" textLength="90.6514" x="70.05" y="55.9951">name: String</text><rect fill="none" height="6" style="stroke:#C82930;stroke-width:1;" width="6" x="58.05" y="65.9453"/><text fill="#000000" font-family="sans-serif" font-size="14" lengthAdjust="spacing" textLength="106.2578" x="70.05" y="72.292">address: String</text><rect fill="none" height="6" style="stroke:#C82930;stroke-width:1;" width="6" x="58.05" y="82.2422"/><text fill="#000000" font-family="sans-serif" font-size="14" lengthAdjust="spacing" textLength="184.625" x="70.05" y="88.5889">contactInformation: String</text><line style="stroke:#181818;stroke-width:0.5;" x1="51.05" x2="323.427" y1="95.8906" y2="95.8906"/><ellipse cx="61.05" cy="109.5391" fill="#84BE84" rx="3" ry="3" style="stroke:#038048;stroke-width:1;"/><text fill="#000000" font-family="sans-serif" font-size="14" lengthAdjust="spacing" textLength="198.6113" x="70.05" y="112.8857">addVehicle(vehicle: Vehicle)</text><ellipse cx="61.05" cy="125.8359" fill="#84BE84" rx="3" ry="3" style="stroke:#038048;stroke-width:1;"/><text fill="#000000" font-family="sans-serif" font-size="14" lengthAdjust="spacing" textLength="173.79" x="70.05" y="129.1826">addDriver(driver: Driver)</text><ellipse cx="61.05" cy="142.1328" fill="#84BE84" rx="3" ry="3" style="stroke:#038048;stroke-width:1;"/><text fill="#000000" font-family="sans-serif" font-size="14" lengthAdjust="spacing" textLength="248.377" x="70.05" y="145.4795">addCustomer(customer: Customer)</text></g><!--class Vehicle--><g class="entity" data-entity="Vehicle" data-source-line="9" data-uid="ent0003" id="entity_Vehicle"><rect fill="#F1F1F1" height="113.1875" rx="2.5" ry="2.5" style="stroke:#181818;stroke-width:0.5;" width="139.8252" x="69.33" y="499.86"/><ellipse cx="109.8323" cy="515.86" fill="#ADD1B2" rx="11" ry="11" style="stroke:#181818;stroke-width:1;"/><path d="M112.8011,521.5006 Q112.223,521.7975 111.5823,521.9381 Q110.9417,522.0944 110.2386,522.0944 Q107.7386,522.0944 106.4105,520.4537 Q105.098,518.7975 105.098,515.6725 Q105.098,512.5475 106.4105,510.8912 Q107.7386,509.235 110.2386,509.235 Q110.9417,509.235 111.5823,509.3912 Q112.2386,509.5475 112.8011,509.8444 L112.8011,512.5631 Q112.1761,511.985 111.5823,511.7194 Q110.9886,511.4381 110.3636,511.4381 Q109.0198,511.4381 108.3323,512.5162 Q107.6448,513.5787 107.6448,515.6725 Q107.6448,517.7662 108.3323,518.8444 Q109.0198,519.9069 110.3636,519.9069 Q110.9886,519.9069 111.5823,519.6412 Q112.1761,519.36 112.8011,518.7819 L112.8011,521.5006 Z " fill="#000000"/><text fill="#000000" font-family="sans-serif" font-size="14" lengthAdjust="spacing" textLength="51.1533" x="129.4995" y="520.7067">Vehicle</text><line style="stroke:#181818;stroke-width:0.5;" x1="70.33" x2="208.1552" y1="531.86" y2="531.86"/><rect fill="none" height="6" style="stroke:#C82930;stroke-width:1;" width="6" x="77.33" y="542.5084"/><text fill="#000000" font-family="sans-serif" font-size="14" lengthAdjust="spacing" textLength="113.8252" x="89.33" y="548.8551">vehicleId: String</text><rect fill="none" height="6" style="stroke:#C82930;stroke-width:1;" width="6" x="77.33" y="558.8053"/><text fill="#000000" font-family="sans-serif" font-size="14" lengthAdjust="spacing" textLength="89.8857" x="89.33" y="565.152">make: String</text><rect fill="none" height="6" style="stroke:#C82930;stroke-width:1;" width="6" x="77.33" y="575.1022"/><text fill="#000000" font-family="sans-serif" font-size="14" lengthAdjust="spacing" textLength="94.541" x="89.33" y="581.4489">model: String</text><rect fill="none" height="6" style="stroke:#C82930;stroke-width:1;" width="6" x="77.33" y="591.3991"/><text fill="#000000" font-family="sans-serif" font-size="14" lengthAdjust="spacing" textLength="86.5225" x="89.33" y="597.7457">capacity: int</text><line style="stroke:#181818;stroke-width:0.5;" x1="70.33" x2="208.1552" y1="605.0475" y2="605.0475"/></g><!--class Driver--><g class="entity" data-entity="Driver" data-source-line="15" data-uid="ent0004" id="entity_Driver"><rect fill="#F1F1F1" height="96.8906" rx="2.5" ry="2.5" style="stroke:#181818;stroke-width:0.5;" width="182.0576" x="96.21" y="229.78"/><ellipse cx="161.4488" cy="245.78" fill="#ADD1B2" rx="11" ry="11" style="stroke:#181818;stroke-width:1;"/><path d="M164.4175,251.4206 Q163.8394,251.7175 163.1988,251.8581 Q162.5581,252.0144 161.855,252.0144 Q159.355,252.0144 158.0269,250.3737 Q156.7144,248.7175 156.7144,245.5925 Q156.7144,242.4675 158.0269,240.8112 Q159.355,239.155 161.855,239.155 Q162.5581,239.155 163.1988,239.3112 Q163.855,239.4675 164.4175,239.7644 L164.4175,242.4831 Q163.7925,241.905 163.1988,241.6394 Q162.605,241.3581 161.98,241.3581 Q160.6363,241.3581 159.9488,242.4362 Q159.2613,243.4987 159.2613,245.5925 Q159.2613,247.6862 159.9488,248.7644 Q160.6363,249.8269 161.98,249.8269 Q162.605,249.8269 163.1988,249.5612 Q163.7925,249.28 164.4175,248.7019 L164.4175,251.4206 Z " fill="#000000"/><text fill="#000000" font-family="sans-serif" font-size="14" lengthAdjust="spacing" textLength="43.0801" x="181.9488" y="250.6267">Driver</text><line style="stroke:#181818;stroke-width:0.5;" x1="97.21" x2="277.2676" y1="261.78" y2="261.78"/><rect fill="none" height="6" style="stroke:#C82930;stroke-width:1;" width="6" x="104.21" y="272.4284"/><text fill="#000000" font-family="sans-serif" font-size="14" lengthAdjust="spacing" textLength="105.1504" x="116.21" y="278.7751">driverId: String</text><rect fill="none" height="6" style="stroke:#C82930;stroke-width:1;" width="6" x="104.21" y="288.7253"/><text fill="#000000" font-family="sans-serif" font-size="14" lengthAdjust="spacing" textLength="90.6514" x="116.21" y="295.072">name: String</text><rect fill="none" height="6" style="stroke:#C82930;stroke-width:1;" width="6" x="104.21" y="305.0222"/><text fill="#000000" font-family="sans-serif" font-size="14" lengthAdjust="spacing" textLength="156.0576" x="116.21" y="311.3689">licenseNumber: String</text><line style="stroke:#181818;stroke-width:0.5;" x1="97.21" x2="277.2676" y1="318.6706" y2="318.6706"/></g><!--class Customer--><g class="entity" data-entity="Customer" data-source-line="20" data-uid="ent0005" id="entity_Customer"><rect fill="#F1F1F1" height="113.1875" rx="2.5" ry="2.5" style="stroke:#181818;stroke-width:0.5;" width="210.625" x="225.93" y="356.67"/><ellipse cx="292.9905" cy="372.67" fill="#ADD1B2" rx="11" ry="11" style="stroke:#181818;stroke-width:1;"/><path d="M295.9593,378.3106 Q295.3812,378.6075 294.7405,378.7481 Q294.0999,378.9044 293.3968,378.9044 Q290.8968,378.9044 289.5687,377.2637 Q288.2562,375.6075 288.2562,372.4825 Q288.2562,369.3575 289.5687,367.7012 Q290.8968,366.045 293.3968,366.045 Q294.0999,366.045 294.7405,366.2012 Q295.3968,366.3575 295.9593,366.6544 L295.9593,369.3731 Q295.3343,368.795 294.7405,368.5294 Q294.1468,368.2481 293.5218,368.2481 Q292.178,368.2481 291.4905,369.3262 Q290.803,370.3887 290.803,372.4825 Q290.803,374.5762 291.4905,375.6544 Q292.178,376.7169 293.5218,376.7169 Q294.1468,376.7169 294.7405,376.4512 Q295.3343,376.17 295.9593,375.5919 L295.9593,378.3106 Z " fill="#000000"/><text fill="#000000" font-family="sans-serif" font-size="14" lengthAdjust="spacing" textLength="68.0039" x="313.4905" y="377.5167">Customer</text><line style="stroke:#181818;stroke-width:0.5;" x1="226.93" x2="435.555" y1="388.67" y2="388.67"/><rect fill="none" height="6" style="stroke:#C82930;stroke-width:1;" width="6" x="233.93" y="399.3184"/><text fill="#000000" font-family="sans-serif" font-size="14" lengthAdjust="spacing" textLength="129.8896" x="245.93" y="405.6651">customerId: String</text><rect fill="none" height="6" style="stroke:#C82930;stroke-width:1;" width="6" x="233.93" y="415.6153"/><text fill="#000000" font-family="sans-serif" font-size="14" lengthAdjust="spacing" textLength="90.6514" x="245.93" y="421.962">name: String</text><rect fill="none" height="6" style="stroke:#C82930;stroke-width:1;" width="6" x="233.93" y="431.9122"/><text fill="#000000" font-family="sans-serif" font-size="14" lengthAdjust="spacing" textLength="106.2578" x="245.93" y="438.2589">address: String</text><rect fill="none" height="6" style="stroke:#C82930;stroke-width:1;" width="6" x="233.93" y="448.2091"/><text fill="#000000" font-family="sans-serif" font-size="14" lengthAdjust="spacing" textLength="184.625" x="245.93" y="454.5557">contactInformation: String</text><line style="stroke:#181818;stroke-width:0.5;" x1="226.93" x2="435.555" y1="461.8575" y2="461.8575"/></g><!--class Shipment--><g class="entity" data-entity="Shipment" data-source-line="26" data-uid="ent0006" id="entity_Shipment"><rect fill="#F1F1F1" height="129.4844" rx="2.5" ry="2.5" style="stroke:#181818;stroke-width:0.5;" width="173.0684" x="244.71" y="690.05"/><ellipse cx="293.4195" cy="706.05" fill="#ADD1B2" rx="11" ry="11" style="stroke:#181818;stroke-width:1;"/><path d="M296.3882,711.6906 Q295.8101,711.9875 295.1695,712.1281 Q294.5288,712.2844 293.8257,712.2844 Q291.3257,712.2844 289.9976,710.6438 Q288.6851,708.9875 288.6851,705.8625 Q288.6851,702.7375 289.9976,701.0813 Q291.3257,699.425 293.8257,699.425 Q294.5288,699.425 295.1695,699.5813 Q295.8257,699.7375 296.3882,700.0344 L296.3882,702.7531 Q295.7632,702.175 295.1695,701.9094 Q294.5757,701.6281 293.9507,701.6281 Q292.607,701.6281 291.9195,702.7063 Q291.232,703.7688 291.232,705.8625 Q291.232,707.9563 291.9195,709.0344 Q292.607,710.0969 293.9507,710.0969 Q294.5757,710.0969 295.1695,709.8313 Q295.7632,709.55 296.3882,708.9719 L296.3882,711.6906 Z " fill="#000000"/><text fill="#000000" font-family="sans-serif" font-size="14" lengthAdjust="spacing" textLength="67.1494" x="313.9195" y="710.8967">Shipment</text><line style="stroke:#181818;stroke-width:0.5;" x1="245.71" x2="416.7784" y1="722.05" y2="722.05"/><rect fill="none" height="6" style="stroke:#C82930;stroke-width:1;" width="6" x="252.71" y="732.6984"/><text fill="#000000" font-family="sans-serif" font-size="14" lengthAdjust="spacing" textLength="129.5205" x="264.71" y="739.0451">shipmentId: String</text><rect fill="none" height="6" style="stroke:#C82930;stroke-width:1;" width="6" x="252.71" y="748.9953"/><text fill="#000000" font-family="sans-serif" font-size="14" lengthAdjust="spacing" textLength="108.4863" x="264.71" y="755.342">origin: Location</text><rect fill="none" height="6" style="stroke:#C82930;stroke-width:1;" width="6" x="252.71" y="765.2922"/><text fill="#000000" font-family="sans-serif" font-size="14" lengthAdjust="spacing" textLength="147.0684" x="264.71" y="771.6389">destination: Location</text><rect fill="none" height="6" style="stroke:#C82930;stroke-width:1;" width="6" x="252.71" y="781.5891"/><text fill="#000000" font-family="sans-serif" font-size="14" lengthAdjust="spacing" textLength="104.084" x="264.71" y="787.9357">weight: double</text><rect fill="none" height="6" style="stroke:#C82930;stroke-width:1;" width="6" x="252.71" y="797.8859"/><text fill="#000000" font-family="sans-serif" font-size="14" lengthAdjust="spacing" textLength="84.0273" x="264.71" y="804.2326">size: double</text><line style="stroke:#181818;stroke-width:0.5;" x1="245.71" x2="416.7784" y1="811.5344" y2="811.5344"/></g><!--class Route--><g class="entity" data-entity="Route" data-source-line="33" data-uid="ent0007" id="entity_Route"><rect fill="#F1F1F1" height="129.4844" rx="2.5" ry="2.5" style="stroke:#181818;stroke-width:0.5;" width="188.0664" x="21.21" y="690.05"/><ellipse cx="90.3589" cy="706.05" fill="#ADD1B2" rx="11" ry="11" style="stroke:#181818;stroke-width:1;"/><path d="M93.3277,711.6906 Q92.7496,711.9875 92.1089,712.1281 Q91.4683,712.2844 90.7652,712.2844 Q88.2652,712.2844 86.9371,710.6438 Q85.6246,708.9875 85.6246,705.8625 Q85.6246,702.7375 86.9371,701.0813 Q88.2652,699.425 90.7652,699.425 Q91.4683,699.425 92.1089,699.5813 Q92.7652,699.7375 93.3277,700.0344 L93.3277,702.7531 Q92.7027,702.175 92.1089,701.9094 Q91.5152,701.6281 90.8902,701.6281 Q89.5464,701.6281 88.8589,702.7063 Q88.1714,703.7688 88.1714,705.8625 Q88.1714,707.9563 88.8589,709.0344 Q89.5464,710.0969 90.8902,710.0969 Q91.5152,710.0969 92.1089,709.8313 Q92.7027,709.55 93.3277,708.9719 L93.3277,711.6906 Z " fill="#000000"/><text fill="#000000" font-family="sans-serif" font-size="14" lengthAdjust="spacing" textLength="41.2686" x="110.8589" y="710.8967">Route</text><line style="stroke:#181818;stroke-width:0.5;" x1="22.21" x2="208.2764" y1="722.05" y2="722.05"/><rect fill="none" height="6" style="stroke:#C82930;stroke-width:1;" width="6" x="29.21" y="732.6984"/><text fill="#000000" font-family="sans-serif" font-size="14" lengthAdjust="spacing" textLength="101.2607" x="41.21" y="739.0451">routeId: String</text><rect fill="none" height="6" style="stroke:#C82930;stroke-width:1;" width="6" x="29.21" y="748.9953"/><text fill="#000000" font-family="sans-serif" font-size="14" lengthAdjust="spacing" textLength="160.6924" x="41.21" y="755.342">startLocation: Location</text><rect fill="none" height="6" style="stroke:#C82930;stroke-width:1;" width="6" x="29.21" y="765.2922"/><text fill="#000000" font-family="sans-serif" font-size="14" lengthAdjust="spacing" textLength="154.458" x="41.21" y="771.6389">endLocation: Location</text><rect fill="none" height="6" style="stroke:#C82930;stroke-width:1;" width="6" x="29.21" y="781.5891"/><text fill="#000000" font-family="sans-serif" font-size="14" lengthAdjust="spacing" textLength="116.2041" x="41.21" y="787.9357">distance: double</text><rect fill="none" height="6" style="stroke:#C82930;stroke-width:1;" width="6" x="29.21" y="797.8859"/><text fill="#000000" font-family="sans-serif" font-size="14" lengthAdjust="spacing" textLength="162.0664" x="41.21" y="804.2326">estimatedTime: double</text><line style="stroke:#181818;stroke-width:0.5;" x1="22.21" x2="208.2764" y1="811.5344" y2="811.5344"/></g><!--class Location--><g class="entity" data-entity="Location" data-source-line="40" data-uid="ent0008" id="entity_Location"><rect fill="#F1F1F1" height="96.8906" rx="2.5" ry="2.5" style="stroke:#181818;stroke-width:0.5;" width="158.5625" x="151.96" y="896.53"/><ellipse cx="197.2618" cy="912.53" fill="#ADD1B2" rx="11" ry="11" style="stroke:#181818;stroke-width:1;"/><path d="M200.2305,918.1706 Q199.6524,918.4675 199.0118,918.6081 Q198.3711,918.7644 197.668,918.7644 Q195.168,918.7644 193.8399,917.1238 Q192.5274,915.4675 192.5274,912.3425 Q192.5274,909.2175 193.8399,907.5613 Q195.168,905.905 197.668,905.905 Q198.3711,905.905 199.0118,906.0613 Q199.668,906.2175 200.2305,906.5144 L200.2305,909.2331 Q199.6055,908.655 199.0118,908.3894 Q198.418,908.1081 197.793,908.1081 Q196.4493,908.1081 195.7618,909.1863 Q195.0743,910.2488 195.0743,912.3425 Q195.0743,914.4363 195.7618,915.5144 Q196.4493,916.5769 197.793,916.5769 Q198.418,916.5769 199.0118,916.3113 Q199.6055,916.03 200.2305,915.4519 L200.2305,918.1706 Z " fill="#000000"/><text fill="#000000" font-family="sans-serif" font-size="14" lengthAdjust="spacing" textLength="59.459" x="217.7618" y="917.3767">Location</text><line style="stroke:#181818;stroke-width:0.5;" x1="152.96" x2="309.5225" y1="928.53" y2="928.53"/><rect fill="none" height="6" style="stroke:#C82930;stroke-width:1;" width="6" x="159.96" y="939.1784"/><text fill="#000000" font-family="sans-serif" font-size="14" lengthAdjust="spacing" textLength="119.5127" x="171.96" y="945.5251">locationId: String</text><rect fill="none" height="6" style="stroke:#C82930;stroke-width:1;" width="6" x="159.96" y="955.4753"/><text fill="#000000" font-family="sans-serif" font-size="14" lengthAdjust="spacing" textLength="106.2578" x="171.96" y="961.822">address: String</text><rect fill="none" height="6" style="stroke:#C82930;stroke-width:1;" width="6" x="159.96" y="971.7722"/><text fill="#000000" font-family="sans-serif" font-size="14" lengthAdjust="spacing" textLength="132.5625" x="171.96" y="978.1189">geolocation: String</text><line style="stroke:#181818;stroke-width:0.5;" x1="152.96" x2="309.5225" y1="985.4206" y2="985.4206"/></g><!--link Company to Vehicle--><g class="link" data-entity-1="Company" data-entity-2="Vehicle" data-source-line="46" data-uid="lnk9" id="link_Company_Vehicle"><path codeLine="46" d="M96.04,153.12 C74.66,175.2 54.77,201.28 43.24,229.78 C6,321.86 59.37,433.81 100.21,499.59" fill="none" id="Company-Vehicle" style="stroke:#181818;stroke-width:1;"/><text fill="#000000" font-family="sans-serif" font-size="13" lengthAdjust="spacing" textLength="33.5981" x="44.24" y="282.7869">owns</text><text fill="#000000" font-family="sans-serif" font-size="13" lengthAdjust="spacing" textLength="8.271" x="78.9793" y="172.8877">1</text><text fill="#000000" font-family="sans-serif" font-size="13" lengthAdjust="spacing" textLength="6.5" x="89.1177" y="488.8207">*</text></g><!--link Company to Driver--><g class="link" data-entity-1="Company" data-entity-2="Driver" data-source-line="47" data-uid="lnk10" id="link_Company_Driver"><path codeLine="47" d="M187.24,153.16 C187.24,178.64 187.24,206.62 187.24,229.55" fill="none" id="Company-Driver" style="stroke:#181818;stroke-width:1;"/><text fill="#000000" font-family="sans-serif" font-size="13" lengthAdjust="spacing" textLength="54.9453" x="188.24" y="195.8469">employs</text><text fill="#000000" font-family="sans-serif" font-size="13" lengthAdjust="spacing" textLength="8.271" x="178.8718" y="172.9316">1</text><text fill="#000000" font-family="sans-serif" font-size="13" lengthAdjust="spacing" textLength="6.5" x="180.8534" y="218.7266">*</text></g><!--link Company to Customer--><g class="link" data-entity-1="Company" data-entity-2="Customer" data-source-line="48" data-uid="lnk11" id="link_Company_Customer"><path codeLine="48" d="M249.93,153.02 C267.28,176.22 284.54,202.9 296.24,229.78 C313.82,270.15 322.61,319.35 326.98,356.49" fill="none" id="Company-Customer" style="stroke:#181818;stroke-width:1;"/><text fill="#000000" font-family="sans-serif" font-size="13" lengthAdjust="spacing" textLength="42.5801" x="280.24" y="195.8469">serves</text><text fill="#000000" font-family="sans-serif" font-size="13" lengthAdjust="spacing" textLength="8.271" x="247.537" y="172.7782">1</text><text fill="#000000" font-family="sans-serif" font-size="13" lengthAdjust="spacing" textLength="6.5" x="320.1254" y="345.7316">*</text></g><!--link Driver to Vehicle--><g class="link" data-entity-1="Driver" data-entity-2="Vehicle" data-source-line="50" data-uid="lnk12" id="link_Driver_Vehicle"><path codeLine="50" d="M174.02,326.95 C171.56,336.74 169.17,347 167.24,356.67 C157.73,404.52 150.24,459.49 145.42,499.47" fill="none" id="Driver-Vehicle" style="stroke:#181818;stroke-width:1;"/><text fill="#000000" font-family="sans-serif" font-size="13" lengthAdjust="spacing" textLength="39.6729" x="168.24" y="417.8269">drives</text><text fill="#000000" font-family="sans-serif" font-size="13" lengthAdjust="spacing" textLength="8.271" x="163.7244" y="346.581">1</text><text fill="#000000" font-family="sans-serif" font-size="13" lengthAdjust="spacing" textLength="8.271" x="137.7019" y="488.686">1</text></g><!--link Vehicle to Shipment--><g class="link" data-entity-1="Vehicle" data-entity-2="Shipment" data-source-line="51" data-uid="lnk13" id="link_Vehicle_Shipment"><path codeLine="51" d="M194.01,613.45 C217.28,637.25 244.55,665.14 268.62,689.75" fill="none" id="Vehicle-Shipment" style="stroke:#181818;stroke-width:1;"/><text fill="#000000" font-family="sans-serif" font-size="13" lengthAdjust="spacing" textLength="33.6489" x="236.24" y="656.1169">ships</text><text fill="#000000" font-family="sans-serif" font-size="13" lengthAdjust="spacing" textLength="8.271" x="191.8956" y="632.982">1</text><text fill="#000000" font-family="sans-serif" font-size="13" lengthAdjust="spacing" textLength="6.5" x="255.4697" y="678.8899">*</text></g><!--link Customer to Shipment--><g class="link" data-entity-1="Customer" data-entity-2="Shipment" data-source-line="52" data-uid="lnk14" id="link_Customer_Shipment"><path codeLine="52" d="M331.24,470.33 C331.24,530.69 331.24,626.56 331.24,689.82" fill="none" id="Customer-Shipment" style="stroke:#181818;stroke-width:1;"/><text fill="#000000" font-family="sans-serif" font-size="13" lengthAdjust="spacing" textLength="42.9292" x="332.24" y="561.0169">makes</text><text fill="#000000" font-family="sans-serif" font-size="13" lengthAdjust="spacing" textLength="8.271" x="322.7929" y="489.87">1</text><text fill="#000000" font-family="sans-serif" font-size="13" lengthAdjust="spacing" textLength="6.5" x="324.9388" y="678.9675">*</text></g><!--link Shipment to Location--><g class="link" data-entity-1="Shipment" data-entity-2="Location" data-source-line="53" data-uid="lnk15" id="link_Shipment_Location"><path codeLine="53" d="M297.11,820.02 C283.87,844.94 268.97,872.97 256.7,896.07" fill="none" id="Shipment-Location" style="stroke:#181818;stroke-width:1;"/><text fill="#000000" font-family="sans-serif" font-size="13" lengthAdjust="spacing" textLength="37.0132" x="282.24" y="862.5969">origin</text><text fill="#000000" font-family="sans-serif" font-size="13" lengthAdjust="spacing" textLength="8.271" x="285.1914" y="839.5938">1</text><text fill="#000000" font-family="sans-serif" font-size="13" lengthAdjust="spacing" textLength="8.271" x="251.6017" y="885.5664">1</text></g><!--link Shipment to Location--><g class="link" data-entity-1="Shipment" data-entity-2="Location" data-source-line="54" data-uid="lnk16" id="link_Shipment_Location"><path codeLine="54" d="M338.72,819.87 C338.14,835.78 335.32,852.33 328.24,866.53 C322.77,877.52 314.92,887.46 306.03,896.27" fill="none" id="Shipment-Location-1" style="stroke:#181818;stroke-width:1;"/><text fill="#000000" font-family="sans-serif" font-size="13" lengthAdjust="spacing" textLength="72.8394" x="335.24" y="862.5969">destination</text><text fill="#000000" font-family="sans-serif" font-size="13" lengthAdjust="spacing" textLength="8.271" x="331.0924" y="839.4283">1</text><text fill="#000000" font-family="sans-serif" font-size="13" lengthAdjust="spacing" textLength="8.271" x="308.0037" y="885.4424">1</text></g><!--link Vehicle to Route--><g class="link" data-entity-1="Vehicle" data-entity-2="Route" data-source-line="55" data-uid="lnk17" id="link_Vehicle_Route"><path codeLine="55" d="M132.4,613.45 C129.49,637.25 126.08,665.14 123.07,689.75" fill="none" id="Vehicle-Route" style="stroke:#181818;stroke-width:1;"/><text fill="#000000" font-family="sans-serif" font-size="13" lengthAdjust="spacing" textLength="45.1128" x="130.24" y="656.1169">follows</text><text fill="#000000" font-family="sans-serif" font-size="13" lengthAdjust="spacing" textLength="8.271" x="123.162" y="632.982">1</text><text fill="#000000" font-family="sans-serif" font-size="13" lengthAdjust="spacing" textLength="8.271" x="115.5034" y="678.8899">1</text></g><!--link Route to Location--><g class="link" data-entity-1="Route" data-entity-2="Location" data-source-line="56" data-uid="lnk18" id="link_Route_Location"><path codeLine="56" d="M43.24,819.95 C34.16,835.23 31.12,851.47 41.24,866.53 C65.99,903.33 111.6,922.66 151.93,932.8" fill="none" id="Route-Location" style="stroke:#181818;stroke-width:1;"/><text fill="#000000" font-family="sans-serif" font-size="13" lengthAdjust="spacing" textLength="85.4902" x="42.24" y="862.5969">startLocation</text><text fill="#000000" font-family="sans-serif" font-size="13" lengthAdjust="spacing" textLength="8.271" x="27.4161" y="839.5166">1</text><text fill="#000000" font-family="sans-serif" font-size="13" lengthAdjust="spacing" textLength="8.271" x="135.7424" y="927.9366">1</text></g><!--link Route to Location--><g class="link" data-entity-1="Route" data-entity-2="Location" data-source-line="57" data-uid="lnk19" id="link_Route_Location"><path codeLine="57" d="M154.84,820.02 C170.2,844.94 187.48,872.97 201.71,896.07" fill="none" id="Route-Location-1" style="stroke:#181818;stroke-width:1;"/><text fill="#000000" font-family="sans-serif" font-size="13" lengthAdjust="spacing" textLength="79.7012" x="181.24" y="862.5969">endLocation</text><text fill="#000000" font-family="sans-serif" font-size="13" lengthAdjust="spacing" textLength="8.271" x="150.5249" y="839.5938">1</text><text fill="#000000" font-family="sans-serif" font-size="13" lengthAdjust="spacing" textLength="8.271" x="189.2224" y="885.5664">1</text></g><!--SRC=[bLFBRiCW4Bpp5IkVabOvvCerlKIgUcYgtWbi75GU5k14QTL_hnz07Djz-O9PXfdPzPWhvZrihAwOkS07WUPPWM4QAUo2awQC9IQ4G-z7LMvDO3nipS4wpOAqvWPmtrvxnQFa2XUdVgKG2yihvC794xg5w1OA_NPmlgbziBf1yFX28PMMv9Fmheb8cvk8UbinygpPsxWvRGMgSMkiObo62mLfGXRfhMMDtl54OcP-Id8q7fzglM_jnxD4cxh9nAdHlr3_-zCarTrHLXfDoAe-5YQgribIDWIFbdTKgNtqGPf8FZexeooFWOAmzLvX4f3lc4l9nhEjm_MpkNOtCU03So4fJBJGY6_FX6pk6euZ9wtpPYmeNgIUMaeSsPMAXOcn-U6NQ5KsbATEqdzMh0jOhQ2uAt9gATYpyNE863aAg2jbBxEOd1yA7jq9FI7nMWAjXr9TR3r9XG5HZWJjmj289UPvKFipUP8B0xKyGXhJynjg4AQ9isRfKqBXO9MoPq_w_JpLJLf-H0wIymK0]--></g></svg>